<svg width="512" height="512" viewBox="0 0 512 512" fill="none" xmlns="http://www.w3.org/2000/svg">
<path d="M504 44.4799C503.992 53.369 500.652 61.9321 494.64 68.4799L456 110.08V104C456.011 91.6706 452.451 79.602 445.75 69.2525C439.049 58.9031 429.494 50.7158 418.24 45.6799L435.84 22.6399C442.048 14.8416 451.016 9.72848 460.889 8.3585C470.762 6.98851 480.784 9.46658 488.88 15.2799C493.536 18.5992 497.335 22.9782 499.964 28.0554C502.593 33.1327 503.976 38.7624 504 44.4799Z" fill="#F2CFA9"/>
<path d="M496 312.08V326.24C496.007 369.485 485.927 412.135 466.56 450.8C464.877 454.237 464.001 458.013 464 461.84V472L472 488V504H296V460.24L322.24 476.4C325.995 478.779 330.355 480.028 334.8 480H342.88C348.752 479.989 354.416 477.826 358.8 473.92L414.4 417.6L424 424L486.24 340.8C492.554 332.556 495.983 322.465 496 312.08Z" fill="#EBF5F7"/>
<path d="M414.4 417.6L366.64 385.76L352 376L405.36 287.68C411.94 276.664 422.609 268.698 435.04 265.52C441.513 263.867 448.255 263.546 454.856 264.578C461.457 265.609 467.779 267.971 473.44 271.52C480.327 275.798 486.011 281.759 489.958 288.841C493.904 295.923 495.984 303.892 496 312V312.08C495.983 322.464 492.554 332.555 486.24 340.8L424 424L414.4 417.6ZM418.24 45.6798C429.494 50.7157 439.049 58.903 445.75 69.2525C452.45 79.6019 456.011 91.6705 456 104V168C455.995 175.203 453.56 182.194 449.088 187.842C444.617 193.489 438.37 197.463 431.36 199.12C428.95 199.702 426.479 199.998 424 200C415.513 200 407.374 196.628 401.373 190.627C395.371 184.626 392 176.487 392 168V136H264C259.757 136 255.687 134.314 252.686 131.314C249.686 128.313 248 124.243 248 120C248 115.756 249.686 111.687 252.686 108.686C255.687 105.686 259.757 104 264 104H280C280 87.0259 286.743 70.7473 298.745 58.745C310.748 46.7426 327.026 39.9998 344 39.9998H392C401.055 39.9721 410.007 41.9101 418.24 45.6798ZM432 168C432 166.418 431.531 164.871 430.652 163.555C429.773 162.24 428.523 161.214 427.061 160.609C425.6 160.003 423.991 159.845 422.439 160.154C420.887 160.462 419.462 161.224 418.343 162.343C417.224 163.462 416.462 164.887 416.154 166.439C415.845 167.991 416.003 169.599 416.609 171.061C417.214 172.523 418.24 173.773 419.555 174.652C420.871 175.531 422.418 176 424 176C426.122 176 428.157 175.157 429.657 173.657C431.157 172.156 432 170.122 432 168Z" fill="#2B8FFC"/>
<path d="M434.96 265.28L435.04 265.52C422.609 268.698 411.94 276.664 405.36 287.68L352 376L366.64 385.76L336 424L296 404V304L352 288C352 296.88 360 304 376 304C384.245 303.279 391.972 299.676 397.824 293.824C403.676 287.972 407.279 280.245 408 272L434.96 265.28Z" fill="#FAFCFF"/>
<path d="M431.36 199.12L431.6 200C429.609 217.6 421.21 233.851 408.005 245.654C394.8 257.458 377.712 263.988 360 264C357.353 264 354.708 263.839 352.08 263.52C341.647 262.409 331.591 258.993 322.64 253.52C317.724 250.526 313.185 246.954 309.12 242.88C301.105 234.956 295.122 225.213 291.68 214.48H291.6C289.22 207.224 288.005 199.636 288 192V136H392V168C392 176.487 395.371 184.626 401.373 190.627C407.374 196.629 415.513 200 424 200C426.479 199.998 428.95 199.703 431.36 199.12Z" fill="#FFBEAA"/>
<path d="M424 176C428.418 176 432 172.418 432 168C432 163.582 428.418 160 424 160C419.582 160 416 163.582 416 168C416 172.418 419.582 176 424 176Z" fill="#6F3FF3"/>
<path d="M296 404L336 424L366.64 385.76L414.4 417.6L358.8 473.92C354.416 477.826 348.752 479.989 342.88 480H334.8C330.355 480.028 325.995 478.778 322.24 476.4L296 460.24L224 416L240 376L256 384L296 404ZM408 248V272C407.279 280.244 403.676 287.971 397.824 293.824C391.972 299.676 384.245 303.279 376 304C360 304 352 296.88 352 288V264L352.08 263.52C354.708 263.839 357.353 263.999 360 264C377.203 264.024 393.842 257.863 406.88 246.64L408 248Z" fill="#FFBEAA"/>
<path d="M322.64 253.52L320.56 256L227.12 356.64L214.8 338.16C213.202 335.756 210.981 333.832 208.374 332.592C205.768 331.352 202.873 330.843 200 331.12V330.64L288 215.76L291.6 214.48H291.68C295.122 225.213 301.105 234.956 309.12 242.88C313.185 246.954 317.724 250.526 322.64 253.52Z" fill="#F2CFA9"/>
<path d="M296 460.24V464L293.2 475.2C292.046 479.795 289.724 484.015 286.459 487.448C283.194 490.882 279.097 493.414 274.566 494.799C270.034 496.183 265.222 496.373 260.595 495.35C255.969 494.327 251.685 492.126 248.16 488.96L178.32 426.08L199.44 400.64L224 416L296 460.24Z" fill="#FAA68E"/>
<path d="M296 304V404L256 384L296 304Z" fill="#2B8FFC"/>
<path d="M227.12 356.64L240 376L224 416L199.44 400.64L160 376L160.08 375.84L184 336L196.4 331.84C197.564 331.447 198.774 331.205 200 331.12C202.873 330.843 205.768 331.352 208.374 332.592C210.981 333.831 213.202 335.756 214.8 338.16L227.12 356.64Z" fill="#EBF5F7"/>
<path d="M178.32 426.08L169.76 436.32C167.375 439.189 164.058 441.129 160.388 441.802C156.718 442.475 152.928 441.837 149.68 440C149.023 439.704 148.405 439.328 147.84 438.88L135.68 429.76C131.606 426.705 128.913 422.156 128.193 417.115C127.473 412.074 128.785 406.954 131.84 402.88L146.8 377.04C147.412 375.98 148.26 375.075 149.277 374.393C150.294 373.712 151.454 373.274 152.667 373.112C153.88 372.949 155.115 373.068 156.275 373.457C157.435 373.847 158.491 374.498 159.36 375.36L160.08 375.84L160 376L199.44 400.64L178.32 426.08Z" fill="#DCE1EB"/>
<path d="M184.72 126.88C191.178 130.749 196.633 136.086 200.643 142.458C204.653 148.83 207.103 156.058 207.797 163.554C208.491 171.051 207.407 178.605 204.635 185.605C201.862 192.604 197.479 198.852 191.84 203.84C190.32 180.08 176 176.72 176 168C176.51 154.324 179.211 140.819 184 128L184.72 126.88Z" fill="#FAFCFF"/>
<path d="M176 168C176 176.72 190.32 180.08 191.84 203.84C183.083 211.67 171.748 215.999 160 215.999C148.253 215.999 136.917 211.67 128.16 203.84C129.68 180.08 144 176.72 144 168C143.491 154.324 140.79 140.819 136 128L135.28 126.88C142.74 122.378 151.287 120 160 120C168.713 120 177.26 122.378 184.72 126.88L184 128C179.211 140.819 176.51 154.324 176 168Z" fill="#FAFCFF"/>
<path d="M136 128C140.79 140.819 143.491 154.324 144 168C144 176.72 129.68 180.08 128.16 203.84C122.521 198.852 118.138 192.604 115.366 185.605C112.593 178.605 111.51 171.051 112.203 163.554C112.897 156.058 115.348 148.83 119.357 142.458C123.367 136.086 128.822 130.749 135.28 126.88L136 128Z" fill="#FAFCFF"/>
<path d="M129.6 461.68L131.92 464C134.481 466.658 135.897 470.215 135.862 473.906C135.828 477.597 134.347 481.127 131.737 483.737C129.127 486.347 125.597 487.828 121.906 487.862C118.215 487.897 114.658 486.481 112 483.92L92.0801 464C89.5191 461.342 88.1035 457.785 88.1378 454.094C88.1721 450.403 89.6535 446.873 92.2635 444.263C94.8734 441.654 98.4034 440.172 102.094 440.138C105.785 440.104 109.342 441.519 112 444.08L112.64 444.72L129.6 461.68Z" fill="#F2CFA9"/>
<path d="M135.68 429.76L147.84 438.88C148.405 439.328 149.023 439.704 149.68 440L129.6 461.68L112.64 444.72L130.08 423.04C131.394 425.688 133.312 427.99 135.68 429.76Z" fill="#F2CFA9"/>
<path d="M142.216 179.76C145.522 176.683 147.581 172.497 148 168C147.811 156.094 145.679 144.299 141.688 133.08L139.84 126.88C139.614 126.174 139.192 125.547 138.624 125.072C136.364 126.193 134.197 127.493 132.144 128.96V129.12L134.016 135.4C137.754 145.873 139.775 156.882 140 168C140 169.832 138.584 171.632 136.072 174.64C129.608 181.733 125.568 190.699 124.536 200.24C126.797 202.725 129.312 204.967 132.04 206.928C132.047 205.972 132.085 205.017 132.152 204.064C132.442 195.009 136.02 186.369 142.216 179.76ZM195.464 200.272C194.432 190.731 190.392 181.765 183.928 174.672C181.416 171.664 180 169.872 180 168.032C180.22 156.915 182.236 145.906 185.968 135.432L187.84 129.152V128.992C185.786 127.527 183.619 126.227 181.36 125.104C180.789 125.577 180.367 126.205 180.144 126.912L178.296 133.112C174.314 144.321 172.188 156.105 172 168C172.419 172.497 174.478 176.683 177.784 179.76C183.988 186.377 187.566 195.03 187.848 204.096C187.904 204.976 187.936 205.976 187.96 206.96C190.688 204.999 193.203 202.757 195.464 200.272Z" fill="#FF5A59"/>
<path d="M376 104H264C259.757 104 255.687 105.686 252.686 108.686C249.686 111.687 248 115.757 248 120C248 124.243 249.686 128.313 252.686 131.314C255.687 134.314 259.757 136 264 136H392V120C392 115.757 390.314 111.687 387.314 108.686C384.313 105.686 380.243 104 376 104Z" fill="#2B8FFC"/>
<path d="M120 475.92L100.08 456C98.169 454.058 96.8583 451.607 96.3049 448.939C95.7516 446.272 95.979 443.501 96.96 440.96C94.7641 441.787 92.8118 443.153 91.2828 444.933C89.7539 446.712 88.6977 448.848 88.2115 451.144C87.7254 453.439 87.8249 455.82 88.501 458.067C89.177 460.314 90.4079 462.354 92.08 464L112 483.92C113.646 485.592 115.686 486.823 117.933 487.499C120.18 488.175 122.561 488.275 124.856 487.788C127.152 487.302 129.288 486.246 131.067 484.717C132.847 483.188 134.213 481.236 135.04 479.04C132.5 480.028 129.727 480.259 127.058 479.705C124.389 479.152 121.938 477.837 120 475.92ZM491.504 17.4319C490.656 16.6959 489.808 15.9519 488.88 15.2799C483.608 11.5212 477.481 9.13844 471.054 8.34773C464.628 7.55701 458.106 8.38338 452.08 10.7519L454.312 12.7359C460.567 18.2985 464.394 26.0908 464.971 34.4418C465.548 42.7927 462.83 51.0374 457.4 57.4079L446.352 70.3999C452.643 80.4788 455.986 92.1185 456 104V110.08L494.64 68.4799C498.075 64.6705 500.648 60.1655 502.184 55.2719C503.347 51.7908 503.959 48.1497 504 44.4799C503.976 39.3394 502.848 34.264 500.692 29.5975C498.536 24.9309 495.403 20.782 491.504 17.4319ZM309.12 242.88C301.182 234.895 295.211 225.171 291.68 214.48H291.6L288 215.76L274.848 232.928C276.66 237.468 278.933 241.811 281.632 245.888C283.535 248.772 284.449 252.197 284.236 255.646C284.022 259.095 282.693 262.381 280.448 265.008L216.248 340.328L227.12 356.64L308.872 268.584L320.56 256L322.64 253.52C317.724 250.526 313.185 246.954 309.12 242.88Z" fill="#E9AA70"/>
<path d="M431.36 199.12C428.95 199.703 426.479 199.998 424 200C415.513 200 407.374 196.629 401.373 190.627C395.371 184.626 392 176.487 392 168V136H288V160H368C370.122 160 372.157 160.843 373.657 162.343C375.157 163.843 376 165.878 376 168C376 180.73 381.057 192.939 390.059 201.941C399.061 210.943 411.27 216 424 216C425.32 216 426.616 215.904 427.912 215.8C429.735 210.69 430.973 205.389 431.6 200L431.36 199.12ZM406.88 246.64C393.842 257.863 377.203 264.024 360 264C357.353 264 354.708 263.839 352.08 263.52L352 264V288C352 295.2 357.392 301.224 368 303.2V286.288C368.012 282.609 369.292 279.047 371.623 276.201C373.955 273.355 377.195 271.4 380.8 270.664C390.925 268.441 400.298 263.625 408 256.688V248L406.88 246.64ZM366.64 385.76L355.912 399.144L368 406.4C369.979 407.588 371.678 409.191 372.979 411.098C374.281 413.005 375.154 415.171 375.54 417.447C375.925 419.723 375.813 422.056 375.212 424.285C374.61 426.514 373.534 428.586 372.056 430.36L352.384 453.968C350.021 456.802 346.752 458.733 343.129 459.433C339.506 460.132 335.752 459.558 332.504 457.808L252.592 414.776C249.138 412.914 246.49 409.848 245.149 406.16C243.808 402.473 243.869 398.421 245.32 394.776L250.68 381.368L240 376L224 416L296 460.24L322.24 476.4C325.995 478.778 330.355 480.028 334.8 480H342.88C348.752 479.989 354.416 477.826 358.8 473.92L414.4 417.6L366.64 385.76Z" fill="#FAA68E"/>
<path d="M224 416L199.44 400.64L178.32 426.08L188.632 435.368L198.728 425.272C201.343 422.657 204.783 421.029 208.462 420.665C212.142 420.3 215.835 421.221 218.912 423.272L270.616 457.744C273.361 459.574 275.474 462.208 276.664 465.286C277.854 468.364 278.064 471.734 277.264 474.936C276.099 479.564 273.761 483.814 270.475 487.276C267.189 490.737 263.066 493.293 258.504 494.696C262.06 495.841 265.815 496.239 269.533 495.866C273.251 495.492 276.851 494.354 280.109 492.524C283.366 490.693 286.211 488.21 288.463 485.229C290.716 482.247 292.329 478.833 293.2 475.2L296 464V460.24L224 416Z" fill="#E68D79"/>
<path d="M434.96 265.28L408 272C407.319 279.633 404.175 286.838 399.042 292.529C393.91 298.22 387.067 302.089 379.544 303.552L332.44 376.232C331.868 377.231 331.506 378.336 331.376 379.479C331.246 380.623 331.351 381.781 331.684 382.883C332.017 383.985 332.572 385.007 333.314 385.887C334.056 386.766 334.97 387.486 336 388C338.122 389.061 339.735 390.921 340.485 393.171C341.235 395.422 341.061 397.878 340 400C338.939 402.122 337.079 403.735 334.828 404.485C332.578 405.235 330.122 405.061 328 404L296 388V404L336 424L366.64 385.76L352 376L405.36 287.68C411.94 276.664 422.609 268.698 435.04 265.52L434.96 265.28Z" fill="#EBF5F7"/>
<path d="M288 320V358.112C288 360.839 287.303 363.521 285.975 365.902C284.647 368.284 282.733 370.287 280.413 371.721C278.094 373.155 275.446 373.972 272.722 374.095C269.998 374.218 267.287 373.643 264.848 372.424L262.4 371.2L256 384L288 400L296 404V304L288 320Z" fill="#2864F0"/>
<path d="M390.056 465.944L411.312 444.688C414.312 441.687 418.381 440.001 422.624 440H432L494.256 356.992C495.406 346.782 495.989 336.515 496 326.24V312.08C495.983 322.465 492.554 332.556 486.24 340.8L424 424L414.4 417.6L358.8 473.92C354.416 477.826 348.752 479.989 342.88 480H334.8C330.355 480.028 325.995 478.779 322.24 476.4L296 460.24V504H376V499.88C376.001 487.152 381.057 474.945 390.056 465.944Z" fill="#D8E0E8"/>
<path d="M473.44 271.52C471.348 270.232 469.163 269.101 466.904 268.136C471.828 276.386 474.159 285.926 473.596 295.518C473.033 305.109 469.6 314.31 463.744 321.928L433.84 365.824C429.088 372.787 421.78 377.594 413.503 379.2C405.227 380.806 396.652 379.081 389.64 374.4L363.488 356.96L352 376L366.64 385.76L414.4 417.6L424 424L486.24 340.8C492.554 332.555 495.983 322.464 496 312.08V312C495.984 303.892 493.904 295.923 489.958 288.841C486.011 281.759 480.327 275.798 473.44 271.52Z" fill="#2864F0"/>
<path d="M149.68 440C149.023 439.704 148.405 439.328 147.84 438.88L138.32 431.736L135.68 429.76C133.312 427.99 131.394 425.688 130.08 423.04L121.6 433.6L124.552 436.552C125.975 437.975 126.81 439.881 126.89 441.892C126.97 443.902 126.29 445.869 124.984 447.4L120.536 452.616L129.6 461.68L139.256 451.28L149.68 440Z" fill="#E9AA70"/>
<path d="M160 192C149.372 191.983 139.049 188.439 130.652 181.924C122.255 175.409 116.257 166.291 113.6 156C111.734 163.102 111.522 170.537 112.981 177.734C114.439 184.931 117.53 191.697 122.014 197.511C126.498 203.326 132.256 208.035 138.846 211.274C145.436 214.514 152.681 216.199 160.024 216.199C167.367 216.199 174.612 214.514 181.202 211.274C187.791 208.035 193.55 203.326 198.034 197.511C202.518 191.697 205.609 184.931 207.067 177.734C208.526 170.537 208.314 163.102 206.448 156C203.789 166.299 197.784 175.423 189.377 181.939C180.97 188.455 170.637 191.994 160 192Z" fill="#EBF5F7"/>
<path d="M137.344 186.312C135.012 185.047 132.789 183.591 130.696 181.96C127.327 187.539 125.224 193.791 124.536 200.272C126.797 202.757 129.312 204.999 132.04 206.96C132.047 206.004 132.085 205.049 132.152 204.096C132.363 197.826 134.148 191.71 137.344 186.312ZM189.304 181.96C187.212 183.591 184.988 185.047 182.656 186.312C185.852 191.71 187.638 197.826 187.848 204.096C187.904 204.976 187.936 205.976 187.96 206.96C190.688 204.999 193.203 202.757 195.464 200.272C194.776 193.791 192.673 187.539 189.304 181.96Z" fill="#AE2A25"/>
<path d="M226.296 355.408L216.104 375.792C215.089 377.822 213.654 379.614 211.893 381.047C210.133 382.481 208.087 383.523 205.893 384.105C203.698 384.687 201.405 384.795 199.166 384.422C196.926 384.05 194.792 383.205 192.904 381.944L166.832 364.568L160.08 375.84L160 376L199.44 400.64L224 416L240 376L227.12 356.64L226.296 355.408Z" fill="#D8E0E8"/>
<path d="M160 376L160.08 375.84L159.36 375.36C158.491 374.498 157.435 373.847 156.275 373.457C155.114 373.068 153.88 372.949 152.667 373.112C151.454 373.274 150.294 373.712 149.277 374.393C148.259 375.075 147.412 375.98 146.8 377.04L141.024 387.016L158.424 397.416C160.509 398.666 162.282 400.376 163.607 402.414C164.933 404.452 165.777 406.765 166.075 409.179C166.372 411.592 166.116 414.041 165.325 416.34C164.535 418.639 163.231 420.728 161.512 422.448L146.312 437.648L147.864 438.816C148.429 439.264 149.047 439.64 149.704 439.936C152.952 441.773 156.741 442.411 160.411 441.738C164.081 441.065 167.399 439.125 169.784 436.256L178.344 426.016L199.464 400.576L160 376Z" fill="#C5CED6"/>
<path d="M288 136H392V152H288V136Z" fill="#E68D79"/>
<path d="M376 104H264C259.76 104.013 255.698 105.702 252.7 108.7C249.702 111.698 248.013 115.76 248 120C248.017 122.818 248.788 125.58 250.232 128C251.629 125.581 253.635 123.569 256.05 122.166C258.466 120.762 261.206 120.015 264 120H376C380.243 120 384.313 121.686 387.314 124.686C390.314 127.687 392 131.757 392 136V120C392 115.757 390.314 111.687 387.314 108.686C384.313 105.686 380.243 104 376 104Z" fill="#45CDFF"/>
<path d="M400 120C402.122 120 404.157 120.843 405.657 122.343C407.157 123.843 408 125.878 408 128C408 121.635 405.471 115.53 400.971 111.029C396.47 106.529 390.365 104 384 104H376C380.243 104 384.313 105.686 387.314 108.686C390.314 111.687 392 115.757 392 120V128C392 125.878 392.843 123.843 394.343 122.343C395.843 120.843 397.878 120 400 120Z" fill="#2357D1"/>
<path d="M418.24 45.6798C410.007 41.9101 401.055 39.9721 392 39.9998C394.122 39.9998 396.157 40.8427 397.657 42.343C399.157 43.8432 400 45.8781 400 47.9998C400 50.1215 399.157 52.1564 397.657 53.6567C396.157 55.1569 394.122 55.9998 392 55.9998C404.73 55.9998 416.939 61.0569 425.941 70.0587C434.943 79.0604 440 91.2694 440 104V112C440 109.878 440.843 107.843 442.343 106.343C443.843 104.843 445.878 104 448 104C450.122 104 452.157 104.843 453.657 106.343C455.157 107.843 456 109.878 456 112V104C456.011 91.6705 452.45 79.6019 445.75 69.2525C439.049 58.903 429.494 50.7157 418.24 45.6798Z" fill="#54DFF2"/>
<path d="M290.864 82.1359C288.782 80.819 287.16 78.8872 286.224 76.6079C284.833 79.4905 283.664 82.4752 282.728 85.5359C284.984 84.2808 287.583 83.7791 290.144 84.1039C291.791 84.33 293.373 84.898 294.788 85.7714C296.203 86.6449 297.42 87.8045 298.36 89.1759C299.004 87.2206 299.777 85.3098 300.672 83.4559C299.041 83.9745 297.316 84.1251 295.62 83.8969C293.924 83.6686 292.3 83.0672 290.864 82.1359ZM448 168C445.878 168 443.843 167.157 442.343 165.657C440.843 164.156 440 162.122 440 160V168C440 172.243 438.314 176.313 435.314 179.314C432.313 182.314 428.243 184 424 184C419.757 184 415.687 182.314 412.686 179.314C409.686 176.313 408 172.243 408 168V160C408 162.122 407.157 164.156 405.657 165.657C404.157 167.157 402.122 168 400 168C397.878 168 395.843 167.157 394.343 165.657C392.843 164.156 392 162.122 392 160V168C392 176.487 395.371 184.626 401.373 190.627C407.374 196.628 415.513 200 424 200C426.479 199.998 428.95 199.702 431.36 199.12C438.37 197.463 444.617 193.489 449.088 187.842C453.56 182.194 455.995 175.203 456 168V160C456 162.122 455.157 164.156 453.657 165.657C452.157 167.157 450.122 168 448 168Z" fill="#2864F0"/>
<path d="M448 104C445.878 104 443.843 104.843 442.343 106.343C440.843 107.843 440 109.878 440 112V160C440 162.122 440.843 164.157 442.343 165.657C443.843 167.157 445.878 168 448 168C450.122 168 452.157 167.157 453.657 165.657C455.157 164.157 456 162.122 456 160V112C456 109.878 455.157 107.843 453.657 106.343C452.157 104.843 450.122 104 448 104Z" fill="#2CB5FF"/>
<path d="M400 168C402.122 168 404.157 167.157 405.657 165.657C407.157 164.157 408 162.122 408 160V128C408 125.878 407.157 123.843 405.657 122.343C404.157 120.843 402.122 120 400 120C397.878 120 395.843 120.843 394.343 122.343C392.843 123.843 392 125.878 392 128V160C392 162.122 392.843 164.157 394.343 165.657C395.843 167.157 397.878 168 400 168Z" fill="#2864F0"/>
<path d="M344 56C341.878 56 339.844 55.1571 338.343 53.6569C336.843 52.1566 336 50.1217 336 48C336 45.8783 336.843 43.8434 338.343 42.3431C339.844 40.8429 341.878 40 344 40C331.891 40.001 320.031 43.4425 309.802 49.9237C299.573 56.4049 291.396 65.659 286.224 76.608C287.324 79.3617 289.425 81.5977 292.104 82.8677C294.784 84.1377 297.844 84.3479 300.672 83.456C304.558 75.2502 310.692 68.3148 318.361 63.455C326.03 58.5951 334.921 56.0101 344 56Z" fill="#54DFF2"/>
<path d="M392 40H344C341.878 40 339.843 40.8429 338.343 42.3431C336.843 43.8434 336 45.8783 336 48C336 50.1217 336.843 52.1566 338.343 53.6569C339.843 55.1571 341.878 56 344 56H392C394.122 56 396.157 55.1571 397.657 53.6569C399.157 52.1566 400 50.1217 400 48C400 45.8783 399.157 43.8434 397.657 42.3431C396.157 40.8429 394.122 40 392 40Z" fill="#41F3F3"/>
<path d="M290.144 84.1041C287.583 83.7793 284.984 84.281 282.728 85.5361C280.921 91.5242 280.001 97.7451 280 104H296C296.014 98.9632 296.824 93.9602 298.4 89.1761C297.455 87.8001 296.232 86.6377 294.81 85.764C293.388 84.8903 291.798 84.3248 290.144 84.1041Z" fill="#2357D1"/>
<path d="M360 184C364.418 184 368 176.837 368 168C368 159.163 364.418 152 360 152C355.582 152 352 159.163 352 168C352 176.837 355.582 184 360 184Z" fill="#2864F0"/>
<path d="M304 184C308.418 184 312 176.837 312 168C312 159.163 308.418 152 304 152C299.582 152 296 159.163 296 168C296 176.837 299.582 184 304 184Z" fill="#2864F0"/>
<path d="M336 190.856C336 204.112 332.416 208 328 208C323.584 208 320 204.112 320 190.856C320 177.6 323.584 160 328 160C332.416 160 336 177.6 336 190.856Z" fill="#FAA68E"/>
<path d="M80 128H48C43.5817 128 40 131.582 40 136C40 140.418 43.5817 144 48 144H80C84.4183 144 88 140.418 88 136C88 131.582 84.4183 128 80 128Z" fill="#2CB5FF"/>
<path d="M80 160H48C43.5817 160 40 163.582 40 168C40 172.418 43.5817 176 48 176H80C84.4183 176 88 172.418 88 168C88 163.582 84.4183 160 80 160Z" fill="#2CB5FF"/>
<path d="M80 192H48C43.5817 192 40 195.582 40 200C40 204.418 43.5817 208 48 208H80C84.4183 208 88 204.418 88 200C88 195.582 84.4183 192 80 192Z" fill="#2CB5FF"/>
<path d="M24 192H16C11.5817 192 8 195.582 8 200C8 204.418 11.5817 208 16 208H24C28.4183 208 32 204.418 32 200C32 195.582 28.4183 192 24 192Z" fill="#2CB5FF"/>
<path d="M24 160H16C11.5817 160 8 163.582 8 168C8 172.418 11.5817 176 16 176H24C28.4183 176 32 172.418 32 168C32 163.582 28.4183 160 24 160Z" fill="#2CB5FF"/>
<path d="M24 128H16C11.5817 128 8 131.582 8 136C8 140.418 11.5817 144 16 144H24C28.4183 144 32 140.418 32 136C32 131.582 28.4183 128 24 128Z" fill="#2CB5FF"/>
<path d="M424 152C420.836 152 417.742 152.938 415.111 154.696C412.48 156.455 410.429 158.953 409.218 161.877C408.007 164.801 407.69 168.018 408.307 171.121C408.925 174.225 410.449 177.076 412.686 179.314C414.924 181.551 417.775 183.075 420.879 183.693C423.982 184.31 427.199 183.993 430.123 182.782C433.047 181.571 435.545 179.52 437.304 176.889C439.062 174.258 440 171.165 440 168C440 163.757 438.314 159.687 435.314 156.686C432.313 153.686 428.243 152 424 152ZM424 176C422.418 176 420.871 175.531 419.555 174.652C418.24 173.773 417.214 172.523 416.609 171.061C416.003 169.6 415.845 167.991 416.154 166.439C416.462 164.887 417.224 163.462 418.343 162.343C419.462 161.224 420.887 160.462 422.439 160.154C423.991 159.845 425.6 160.003 427.061 160.609C428.523 161.214 429.773 162.24 430.652 163.555C431.531 164.871 432 166.418 432 168C432 170.122 431.157 172.157 429.657 173.657C428.157 175.157 426.122 176 424 176Z" fill="#FAFCFF"/>
<path d="M426.436 98.6503C431.566 93.5203 429.935 83.572 422.793 76.4301C415.651 69.2882 405.703 67.6572 400.573 72.7871C395.443 77.9171 397.074 87.8653 404.216 95.0072C411.358 102.149 421.306 103.78 426.436 98.6503Z" fill="#F6FAFD"/>
<path d="M427.964 124.318C430.541 121.741 429.723 116.744 426.136 113.157C422.55 109.571 417.553 108.753 414.976 111.33C412.398 113.908 413.216 118.905 416.803 122.491C420.389 126.078 425.386 126.896 427.964 124.318Z" fill="#F6FAFD"/>
<path d="M484.007 44.3266C486.584 41.7491 485.766 36.7522 482.179 33.1656C478.593 29.579 473.596 28.761 471.018 31.3385C468.441 33.9159 469.259 38.9129 472.846 42.4994C476.432 46.086 481.429 46.9041 484.007 44.3266Z" fill="#F6FAFD"/>
<path d="M451.906 300.355C454.483 297.778 453.665 292.781 450.079 289.194C446.492 285.608 441.495 284.79 438.918 287.367C436.34 289.945 437.158 294.942 440.745 298.528C444.332 302.115 449.329 302.933 451.906 300.355Z" fill="#F6FAFD"/>
<path d="M454.613 317.11C455.903 315.82 455.496 313.32 453.702 311.527C451.909 309.734 449.409 309.326 448.119 310.616C446.829 311.907 447.236 314.406 449.03 316.2C450.823 317.993 453.323 318.401 454.613 317.11Z" fill="#F6FAFD"/>
<path d="M350.72 224H318.72C318.675 226.113 319.058 228.214 319.847 230.175C320.635 232.137 321.812 233.919 323.307 235.413C324.801 236.908 326.583 238.085 328.544 238.873C330.506 239.661 332.606 240.045 334.72 240C358.72 240 350.72 224 350.72 224Z" fill="#F2987E"/>
</svg>
