<svg width="512" height="512" viewBox="0 0 512 512" fill="none" xmlns="http://www.w3.org/2000/svg">
<path d="M276.069 432L271.74 421.18L251.27 370C250.003 366.829 249.372 363.44 249.415 360.025C249.458 356.611 250.173 353.238 251.52 350.1L271.27 304H311.27L287.27 368L304.83 410.15L310.6 424L276.069 432Z" fill="#FDC9A6"/>
<path d="M327.27 464L271.27 488L269.6 482.99C267.63 477.076 267.037 470.79 267.865 464.612C268.693 458.434 270.922 452.526 274.38 447.34L279.27 440L271.74 421.18L304.83 410.15L327.27 464Z" fill="#428DC5"/>
<path d="M223.273 200H287.273V232H223.273V200ZM413.43 202.5L439.123 204.782C441.073 205.562 442.824 206.768 444.248 208.31C445.673 209.853 446.735 211.695 447.358 213.7C447.981 215.705 448.148 217.825 447.848 219.903C447.548 221.981 446.788 223.967 445.623 225.714C442.192 231.061 435.998 231.514 428.639 230.989L399.271 227.242L413.43 202.5Z" fill="#FDC9A6"/>
<path d="M258.625 136H299.89C307.345 136 314.495 133.038 319.767 127.767C325.038 122.495 328 115.345 328 107.89C328 104.128 327.245 100.404 325.779 96.9394C324.314 93.4746 322.167 90.3392 319.468 87.719L318.826 87.096C310.558 78.9417 304.469 68.8434 301.115 57.726C298.067 47.9519 291.975 39.4078 283.728 33.3405C275.481 27.2733 265.511 24.0006 255.273 24C242.543 24 230.334 29.0571 221.332 38.0589C212.33 47.0606 207.273 59.2696 207.273 72V84.648C207.273 98.2674 212.683 111.329 222.314 120.959C231.944 130.59 245.006 136 258.625 136Z" fill="#4799CF"/>
<path d="M295.26 120L288 144H224V114.18L231.27 113.14L237.6 112.24L239.27 112V96H271.27V112L272.71 112.48L279.27 114.67L295.26 120Z" fill="#FDC9A6"/>
<path d="M413.43 202.5L399.42 227.02L399.27 227.24L352.935 216.39C351.846 216.135 350.851 215.581 350.061 214.79L295.27 160L303.27 200C286.18 202.847 268.885 204.279 251.56 204.28C236.684 204.281 221.826 203.225 207.1 201.12L199.27 200L207.27 144L180.41 149.37C176.524 150.148 172.494 149.754 168.832 148.239C165.17 146.724 162.04 144.156 159.84 140.86L129.05 94.67L153.94 76L183.27 120L231.27 113.14V120C231.27 126.365 233.798 132.47 238.299 136.971C242.8 141.471 248.905 144 255.27 144C261.635 144 267.74 141.471 272.24 136.971C276.741 132.47 279.27 126.365 279.27 120V114.67L314.02 126.25C317.461 127.392 320.525 129.453 322.88 132.21L367.27 184L413.43 202.5Z" fill="#D6466F"/>
<path d="M88 360H104V376H88V360ZM72 376H88V392H72V376ZM104 376H120V392H104V376ZM88 392H104V408H88V392Z" fill="#F55648"/>
<path d="M432 32H448V48H432V32ZM408 56H424V72H408V56ZM456 56H472V72H456V56ZM432 80H448V96H432V80Z" fill="#F3AF3E"/>
<path d="M255.273 112C258.425 112 261.546 111.379 264.457 110.173C267.369 108.967 270.015 107.199 272.244 104.971C274.472 102.742 276.24 100.096 277.446 97.1844C278.652 94.2726 279.273 91.1517 279.273 88V64H231.273V88C231.273 94.3652 233.802 100.47 238.302 104.971C242.803 109.471 248.908 112 255.273 112Z" fill="#FDC9A6"/>
<path d="M272.71 112.48C270.449 114.875 267.718 116.779 264.689 118.072C261.66 119.366 258.397 120.022 255.103 120C251.809 119.977 248.555 119.277 245.544 117.942C242.533 116.607 239.829 114.666 237.6 112.24L239.27 112V96H271.27V112L272.71 112.48Z" fill="#F6BB92"/>
<path d="M129.05 94.6698L115.5 74.3398C114.358 72.6434 113.561 70.7379 113.157 68.7328C112.753 66.7278 112.749 64.6627 113.145 62.656C113.542 60.6494 114.33 58.7409 115.466 57.04C116.602 55.3391 118.063 53.8793 119.765 52.7446C121.467 51.6099 123.376 50.8225 125.383 50.4277C127.39 50.033 129.455 50.0385 131.46 50.4442C133.464 50.8498 135.369 51.6474 137.065 52.7913C138.76 53.9352 140.213 55.4028 141.34 57.1098L153.94 75.9998L129.05 94.6698ZM196.81 408L193.32 396.65L171.88 326.96C170.488 322.444 170.353 317.633 171.492 313.047C172.63 308.46 174.998 304.271 178.34 300.93L199.27 280L239.27 296L207.27 328L223.97 386.43L227.846 400L196.81 408Z" fill="#FDC9A6"/>
<path d="M239.27 440L183.27 464C180.866 456.788 180.518 449.049 182.265 441.65C184.012 434.252 187.785 427.486 193.16 422.11L199.27 416L193.32 396.65L223.97 386.43L239.27 440Z" fill="#428DC5"/>
<path d="M64 160L59.314 169.373C55.7271 176.547 50.7623 182.944 44.7031 188.199C38.6439 193.454 31.609 197.464 24 200C31.609 202.536 38.6439 206.546 44.7031 211.801C50.7623 217.056 55.7271 223.453 59.314 230.627L64 240L68.686 230.627C72.2729 223.453 77.2377 217.056 83.2969 211.801C89.3561 206.546 96.391 202.536 104 200C96.391 197.464 89.3561 193.454 83.2969 188.199C77.2377 182.944 72.2729 176.547 68.686 169.373L64 160Z" fill="#FBB540"/>
<path d="M448 312L443.314 321.373C439.727 328.547 434.762 334.944 428.703 340.199C422.644 345.454 415.609 349.464 408 352C415.609 354.536 422.644 358.546 428.703 363.801C434.762 369.056 439.727 375.453 443.314 382.627L448 392L452.686 382.627C456.273 375.453 461.238 369.056 467.297 363.801C473.356 358.546 480.391 354.536 488 352C480.391 349.464 473.356 345.454 467.297 340.199C461.238 334.944 456.273 328.547 452.686 321.373L448 312Z" fill="#FD9226"/>
<path d="M136.006 320C134.519 320.001 133.061 319.587 131.797 318.806C130.532 318.024 129.51 316.906 128.845 315.576C125.821 309.493 124.247 302.791 124.247 295.998C124.247 289.204 125.821 282.503 128.845 276.42C129.804 274.539 131.467 273.114 133.472 272.454C135.477 271.795 137.662 271.954 139.55 272.899C141.438 273.843 142.877 275.495 143.552 277.495C144.227 279.495 144.084 281.681 143.155 283.576C141.237 287.436 140.239 291.688 140.239 295.998C140.239 300.308 141.237 304.56 143.155 308.42C143.765 309.639 144.053 310.994 143.993 312.356C143.932 313.718 143.524 315.042 142.808 316.203C142.092 317.363 141.091 318.321 139.9 318.985C138.71 319.65 137.369 319.999 136.006 320ZM107.783 320C106.296 320.001 104.838 319.587 103.574 318.806C102.309 318.024 101.287 316.906 100.622 315.576C97.5981 309.493 96.0244 302.791 96.0244 295.998C96.0244 289.204 97.5981 282.503 100.622 276.42C101.571 274.522 103.235 273.079 105.248 272.408C107.261 271.737 109.458 271.894 111.355 272.842C113.253 273.791 114.696 275.455 115.367 277.468C116.038 279.481 115.882 281.678 114.933 283.576C113.015 287.436 112.016 291.688 112.016 295.998C112.016 300.308 113.015 304.56 114.933 308.42C115.543 309.639 115.831 310.994 115.771 312.357C115.71 313.719 115.302 315.043 114.586 316.203C113.869 317.363 112.868 318.321 111.678 318.986C110.487 319.65 109.146 319.999 107.783 320ZM396.058 163.045C394.496 163.045 392.968 162.587 391.663 161.729C390.358 160.87 389.333 159.648 388.714 158.214C388.095 156.78 387.91 155.196 388.181 153.657C388.452 152.119 389.167 150.694 390.239 149.557C393.188 146.414 395.37 142.63 396.612 138.503C397.854 134.375 398.124 130.016 397.399 125.767C397.037 123.676 397.521 121.528 398.743 119.793C399.966 118.059 401.827 116.882 403.918 116.52C406.009 116.158 408.157 116.642 409.892 117.864C411.626 119.087 412.803 120.948 413.165 123.039C414.307 129.736 413.883 136.606 411.925 143.111C409.967 149.617 406.529 155.58 401.88 160.534C401.133 161.328 400.231 161.961 399.229 162.393C398.228 162.825 397.148 163.047 396.058 163.045ZM423.085 171.179C421.523 171.179 419.995 170.721 418.69 169.863C417.385 169.005 416.359 167.783 415.74 166.348C415.121 164.914 414.936 163.33 415.207 161.792C415.478 160.253 416.193 158.828 417.265 157.691C420.214 154.547 422.395 150.764 423.638 146.636C424.88 142.508 425.149 138.149 424.425 133.9C424.234 132.86 424.251 131.792 424.475 130.758C424.699 129.725 425.126 128.746 425.731 127.878C426.336 127.011 427.107 126.272 427.999 125.704C428.891 125.136 429.887 124.751 430.93 124.571C431.972 124.39 433.039 124.419 434.07 124.654C435.102 124.889 436.076 125.326 436.937 125.94C437.798 126.554 438.529 127.332 439.088 128.231C439.646 129.129 440.021 130.129 440.19 131.173C441.332 137.87 440.908 144.74 438.95 151.245C436.993 157.75 433.555 163.713 428.907 168.667C428.16 169.461 427.258 170.094 426.256 170.526C425.255 170.958 424.176 171.18 423.085 171.179Z" fill="#C0F5F9"/>
<path d="M255.273 112C258.425 112 261.546 111.379 264.457 110.173C267.369 108.967 270.015 107.199 272.244 104.971C274.472 102.742 276.24 100.096 277.446 97.1844C278.652 94.2726 279.273 91.1517 279.273 88V64H231.273V88C231.273 94.3652 233.802 100.47 238.302 104.971C242.803 109.471 248.908 112 255.273 112Z" fill="#FDC9A6"/>
<path d="M335.273 312C283.012 317.226 230.339 307.533 183.362 284.045L175.273 280L223.273 232H287.273L335.273 312Z" fill="#B94137"/>
</svg>
