<svg width="512" height="512" viewBox="0 0 512 512" fill="none" xmlns="http://www.w3.org/2000/svg">
<g clip-path="url(#clip0_113_18574)">
<path d="M291.974 58.9699C291.977 61.0032 291.859 63.0348 291.619 65.0539C288.608 91.1879 266.405 111.478 239.466 111.478C210.468 111.478 186.958 87.9679 186.958 58.9699C186.958 55.0189 187.397 51.1609 188.233 47.4609C189.398 42.2194 191.369 37.1905 194.077 32.5539C203.182 16.9469 220.096 6.46191 239.466 6.46191C265.067 6.46191 286.402 24.7979 291.033 49.0499C291.661 52.3193 291.976 55.6409 291.974 58.9699Z" fill="#F9DCA2"/>
<path d="M217.272 58.9679C217.272 35.2409 233.014 15.1979 254.62 8.69292C249.704 7.21148 244.597 6.4598 239.462 6.46192C210.464 6.46192 186.956 29.9699 186.956 58.9689C186.956 87.9669 210.464 111.475 239.462 111.475C244.734 111.475 249.819 110.69 254.62 109.244C233.014 102.738 217.272 82.6949 217.272 58.9679Z" fill="#E5C691"/>
<path d="M107.807 251.151C80.063 223.616 45.755 250.001 47.647 286.202C50.198 334.999 0 327.452 0 327.452C0 327.452 17.865 305.081 12.241 261.312C6.627 217.543 35.092 168.338 79.813 186.005C106.888 196.699 119.641 215.871 125.495 229.335" fill="#EFBC4B"/>
<path d="M382.23 421.457L306.065 429.224L266.342 410.408L293.521 383.229L320.7 404.136H352.061L297.744 349.819L322.08 311.768L389.673 395.459L391.91 398.229C399.049 407.063 393.54 420.297 382.23 421.457Z" fill="#A56247"/>
<path d="M389.673 395.459C375.947 394.037 361.532 391.842 348.559 388.424C348.549 388.414 348.549 388.414 348.538 388.414C341.921 386.668 335.68 384.609 330.108 382.184L297.744 349.82L322.08 311.769L389.673 395.459Z" fill="#8C4C35"/>
<path d="M512 212.836L496.017 228.819L493.675 231.161C485.898 238.938 473.291 238.938 465.513 231.161L460.255 225.903L441.334 221.398C436.161 220.172 431.198 218.189 426.605 215.513C422.048 212.861 417.903 209.558 414.301 205.708C406.664 197.579 401.721 187.292 400.147 176.25C400.147 176.25 394.241 186.317 394.241 202.854C394.241 208.729 394.994 215.419 397.011 222.768C398.026 226.41 399.269 229.985 400.732 233.472C401.334 234.909 401.971 236.332 402.645 237.737C404.401 241.39 406.359 244.943 408.509 248.379C434.643 290.193 402.237 332.007 402.237 332.007L464.791 355.465C466.175 355.983 467.415 356.825 468.408 357.92C469.4 359.014 470.117 360.33 470.499 361.758C475.872 381.839 492.044 460.973 421.054 484.629L417.918 443.86L447.188 434.452V374.867C447.188 374.867 390.342 376.425 348.559 365.427C348.549 365.417 348.549 365.417 348.538 365.417C341.921 363.671 335.68 361.612 330.108 359.187C310.079 350.458 289.287 347.531 268.976 347.918L224.224 359.793L204.185 365.103C195.833 378.024 176.494 402.046 148.217 402.046C139.739 402.046 130.446 400.436 121.121 397.917C113.856 395.962 106.559 393.464 99.6079 390.756C99.9839 391.864 123.797 462.258 76.0879 505.536L58.3159 477.31C58.3159 477.31 116.856 454.312 58.3159 366.502L76.0869 351.867C76.0869 351.867 104.312 369.638 129.4 344.55C129.4 344.55 81.3139 317.371 105.357 256.74C114.441 233.836 128.292 224.804 143.251 222.442L150.286 220.56L308.636 178.296C329.93 135.301 371.2 76.2279 433.598 88.4369C433.598 88.4369 451.369 66.4849 467.049 66.4849L462.868 102.027L512 212.836Z" fill="#A56247"/>
<path d="M496.017 228.822L493.675 231.164C485.898 238.94 473.29 238.94 465.513 231.164L460.255 225.907L441.334 221.402C419.632 216.238 403.304 198.331 400.147 176.253C400.147 176.253 394.241 186.32 394.241 202.857C394.241 211.481 395.851 221.851 400.733 233.475C370.293 214.689 368.111 171.234 396.514 149.491L433.536 121.151C421.42 133.549 451.892 208.428 494.606 228.143C495.086 228.362 495.557 228.591 496.017 228.822Z" fill="#8C4C35"/>
<path d="M293.521 383.232L320.7 404.139L306.065 429.227L266.342 410.411L293.521 383.232ZM460.192 457.316C451.808 468.794 439.316 478.547 421.054 484.631L417.918 443.862L447.188 434.454L460.192 457.316Z" fill="#455256"/>
<path d="M348.538 365.419C341.921 363.673 335.68 361.614 330.108 359.189C310.079 350.46 289.287 347.533 268.976 347.92L224.224 359.795L228.939 252.04L259.578 257.309C257.655 272.1 282.064 343.947 348.538 365.419ZM121.121 397.918C113.856 395.963 106.559 393.465 99.6079 390.757C99.9839 391.865 123.797 462.259 76.0879 505.537L58.3169 477.312C58.3169 477.312 116.857 454.314 58.3169 366.504L76.0879 351.869C76.0879 351.869 104.313 369.64 129.401 344.552C129.401 344.552 81.3149 317.373 105.358 256.742C114.442 233.838 128.293 224.806 143.252 222.444L150.287 220.562L153.141 235.887C153.141 235.887 115.655 292.42 158.901 335.666C158.9 335.668 166.949 376.541 121.121 397.918Z" fill="#8C4C35"/>
<path d="M77.4979 460.149L97.9869 474.575C93.3979 485.509 86.4249 496.162 76.0869 505.538L58.3159 477.313C58.3159 477.314 69.7939 472.798 77.4979 460.149Z" fill="#455256"/>
<path d="M453.502 145.41C446.321 145.41 442.946 136.063 448.531 131.513C454.112 126.966 462.601 132.027 461.186 139.106C460.461 142.732 457.205 145.41 453.502 145.41Z" fill="#252C2D"/>
<path d="M400.155 184.094C398.941 184.095 397.743 183.813 396.656 183.272C395.569 182.731 394.623 181.945 393.892 180.976C393.161 180.006 392.665 178.881 392.443 177.687C392.221 176.493 392.279 175.264 392.613 174.097C408.04 120.1 457.397 95.9589 459.49 94.9569C463.395 93.0909 468.079 94.7419 469.946 98.6469C470.843 100.521 470.959 102.674 470.269 104.634C469.579 106.593 468.139 108.198 466.266 109.097C465.698 109.372 421.117 131.409 407.69 178.403C407.222 180.041 406.234 181.482 404.874 182.509C403.515 183.535 401.859 184.092 400.155 184.094ZM460.256 233.748C458.973 233.748 457.709 233.432 456.576 232.829C455.443 232.227 454.475 231.355 453.758 230.291C453.04 229.227 452.595 228.003 452.461 226.727C452.327 225.451 452.508 224.161 452.989 222.971C465.946 190.861 493.746 176.122 494.923 175.511C496.766 174.565 498.907 174.386 500.881 175.014C502.855 175.642 504.5 177.025 505.457 178.862C506.414 180.699 506.606 182.84 505.99 184.817C505.374 186.795 504 188.448 502.169 189.416C501.761 189.633 478.215 202.356 467.529 228.838C466.945 230.288 465.94 231.531 464.644 232.406C463.348 233.281 461.82 233.748 460.256 233.748Z" fill="#455256"/>
<path d="M477.253 202.489C444.832 184.464 417.901 139.45 416.77 137.542L430.259 129.547L423.514 133.544L430.257 129.543C430.513 129.974 456.183 172.832 484.873 188.782L477.253 202.489ZM291.974 57.1538L219.217 44.7668L190.574 39.8958C198.205 20.3268 217.241 6.46582 239.507 6.46582C244.734 6.46582 249.783 7.22882 254.55 8.66082C275.666 14.9528 291.2 34.1768 291.974 57.1538Z" fill="#455256"/>
<path d="M254.623 8.69182C237.5 13.8458 224.057 27.5078 219.217 44.7668L190.574 39.8958C198.205 20.3268 217.241 6.46582 239.507 6.46582C244.734 6.46582 249.783 7.22882 254.55 8.66082C254.571 8.67082 254.602 8.68082 254.623 8.69182Z" fill="#2D373A"/>
<path d="M400.732 233.471C401.334 234.909 401.972 236.331 402.645 237.736C389.933 245.325 374.567 249.925 356.639 251.535C336.913 253.302 314.093 251.441 288.294 245.942C280.584 244.293 273.014 242.045 265.652 239.22L237.887 228.578L243.501 213.933L271.266 224.585C277.865 227.111 284.648 229.124 291.556 230.606C338.44 240.6 373.878 237.965 397.011 222.766C398.026 226.409 399.269 229.984 400.732 233.471Z" fill="#8C4C35"/>
<path d="M296.27 174.746L249.302 175.823L228.092 124.308L219.646 107.541C210.698 89.8008 185.369 89.8638 176.494 107.646C156.193 148.321 133.708 200.526 143.252 222.447C156.81 253.609 215.35 259.881 215.35 259.881L202.147 365.106H270.749V356.436C270.749 344.678 261.217 335.146 249.459 335.146L260.937 246.814C261.38 242.216 260.589 237.583 258.647 233.392C256.705 229.201 253.682 225.603 249.888 222.969L243.856 218.777L297.347 217.523C309.16 217.23 318.495 207.404 318.191 195.602V195.592C317.899 183.788 308.083 174.443 296.27 174.746Z" fill="#EAEAE4"/>
<path d="M374.54 240.587C354.742 240.587 332.177 236.699 306.962 228.921C299.432 226.593 292.094 223.681 285.015 220.213L258.305 207.135L265.2 193.052L291.91 206.13C298.256 209.238 304.835 211.848 311.585 213.937C360.365 228.986 397.486 228.613 421.911 212.825C444.768 198.05 447.923 174.667 447.952 174.433L463.512 176.371C463.356 177.624 459.356 207.293 430.423 225.994C415.374 235.721 396.688 240.587 374.54 240.587Z" fill="#455256"/>
<path d="M159.588 222.446C150.044 200.525 172.529 148.32 192.83 107.645C195.842 101.612 200.749 97.6237 206.266 95.6747C195.486 91.8657 182.377 95.8577 176.493 107.645C156.192 148.32 133.707 200.525 143.251 222.446C156.809 253.608 215.349 259.88 215.349 259.88L202.146 365.105H218.483L229.626 271.879C230.712 262.796 224.393 254.461 215.342 253.131C196.966 250.431 168.518 242.971 159.588 222.446Z" fill="#CECECC"/>
<path d="M270.753 356.439V365.105H202.146L211.91 287.278H255.679L249.459 335.145C261.219 335.145 270.753 344.679 270.753 356.439Z" fill="#455256"/>
<path d="M227.789 287.279L218.485 365.105H202.146L211.91 287.279H227.789Z" fill="#2D373A"/>
<path d="M318.191 195.587V195.597C318.296 199.352 317.402 203.068 315.599 206.364C312.066 212.845 305.26 217.319 297.347 217.518L243.856 218.772L235.66 218.96C232.042 219.051 228.46 218.222 225.249 216.55C222.039 214.879 219.305 212.421 217.304 209.405C216.532 208.241 215.874 207.005 215.339 205.715L211.44 196.244L159.664 191.028L143.691 189.418C149.44 164.821 163.417 133.837 176.494 107.64C182.358 95.8798 195.425 91.8658 206.193 95.6388C206.224 95.6488 206.245 95.6598 206.266 95.6698C211.754 97.5928 216.625 101.545 219.647 107.535L228.093 124.302L249.303 175.817L296.271 174.74C308.083 174.44 317.899 183.785 318.191 195.587Z" fill="#7FDD36"/>
<path d="M206.265 95.6761C200.746 97.6201 195.843 101.614 192.832 107.645C179.472 134.417 165.161 166.195 159.663 191.033L143.69 189.423C149.439 164.826 163.416 133.842 176.493 107.645C182.357 95.8851 195.424 91.8711 206.192 95.6441C206.217 95.6529 206.241 95.6636 206.265 95.6761Z" fill="#70C129"/>
<path d="M263.026 75.4707C261.862 75.4721 260.712 75.2142 259.659 74.7157C258.607 74.2171 257.679 73.4905 256.943 72.5885C256.207 71.6866 255.68 70.6319 255.403 69.5012C255.125 68.3705 255.102 67.1922 255.337 66.0517L258.274 51.7447C258.481 50.7361 258.885 49.7782 259.462 48.9257C260.039 48.0732 260.779 47.3427 261.638 46.776C262.498 46.2093 263.461 45.8174 264.472 45.6228C265.483 45.4282 266.522 45.4346 267.531 45.6417C268.539 45.8488 269.497 46.2525 270.35 46.8298C271.202 47.4071 271.933 48.1466 272.5 49.0062C273.066 49.8658 273.458 50.8286 273.653 51.8396C273.847 52.8507 273.841 53.8901 273.634 54.8987L270.697 69.2057C270.334 70.9729 269.373 72.561 267.975 73.7022C266.578 74.8434 264.83 75.468 263.026 75.4707Z" fill="#252C2D"/>
<path d="M216.896 85.5137C216.484 85.5137 216.071 85.4957 215.655 85.4607C212.874 85.2244 210.227 84.1659 208.05 82.42C205.873 80.674 204.265 78.3196 203.431 75.6567L194.899 48.6137C194.589 47.6318 194.476 46.5985 194.565 45.5728C194.655 44.5471 194.946 43.549 195.421 42.6357C195.896 41.7223 196.547 40.9115 197.335 40.2495C198.124 39.5876 199.035 39.0875 200.017 38.7777C200.999 38.4677 202.032 38.3542 203.058 38.4437C204.084 38.5332 205.082 38.8238 205.995 39.2991C206.909 39.7744 207.719 40.425 208.381 41.2136C209.043 42.0023 209.543 42.9137 209.853 43.8957L217.237 67.2997L227.241 48.0527C228.2 46.2077 229.852 44.8192 231.835 44.1927C233.818 43.5661 235.968 43.7528 237.813 44.7117C238.727 45.1865 239.538 45.8366 240.2 46.625C240.863 47.4133 241.363 48.3244 241.673 49.3063C241.983 50.2881 242.097 51.3215 242.008 52.3473C241.919 53.373 241.628 54.3712 241.153 55.2847L229.39 77.9157C228.205 80.2066 226.413 82.1272 224.209 83.4673C222.005 84.8075 219.475 85.5154 216.896 85.5137Z" fill="#455256"/>
<path d="M315.599 206.365C312.066 212.846 305.26 217.32 297.347 217.519L243.856 218.773L235.66 218.961C232.042 219.052 228.459 218.223 225.249 216.552C222.039 214.881 219.305 212.422 217.304 209.406C216.532 208.242 215.874 207.006 215.339 205.716L211.44 196.245L192.76 150.96C196.778 150.216 200.929 150.85 204.542 152.758C208.155 154.667 211.018 157.738 212.669 161.476L229.642 199.927C230.487 201.842 231.871 203.47 233.625 204.612C235.378 205.755 237.427 206.363 239.52 206.363L315.599 206.365Z" fill="#70C129"/>
<path d="M318.191 195.587V195.597C318.494 207.399 309.159 217.225 297.347 217.518L282.21 217.873V175.066L296.27 174.742C306.274 174.481 314.856 181.15 317.418 190.37C317.878 192.033 318.149 193.779 318.191 195.587Z" fill="#E5C691"/>
<path d="M317.418 190.371C314.961 199.194 306.975 205.769 297.347 206.01L282.21 206.365V175.067L296.27 174.743C306.274 174.482 314.857 181.151 317.418 190.371Z" fill="#F9DCA2"/>
<path d="M319.247 61.8027C318.938 63.6259 317.994 65.2811 316.582 66.475C315.17 67.6689 313.381 68.3245 311.532 68.3257C311.093 68.3257 310.654 68.2947 310.204 68.2207L291.618 65.0537L188.233 47.4607C189.398 42.2192 191.369 37.1903 194.077 32.5537L291.034 49.0497L312.84 52.7607C317.104 53.4817 319.979 57.5377 319.247 61.8027Z" fill="#2D373A"/>
</g>
<defs>
<clipPath id="clip0_113_18574">
<rect width="512" height="512" fill="white"/>
</clipPath>
</defs>
</svg>
