<svg width="512" height="512" viewBox="0 0 512 512" fill="none" xmlns="http://www.w3.org/2000/svg">
<g clip-path="url(#clip0_112_18411)">
<path d="M267.486 236.315C268.095 233.56 268.616 230.789 269.051 228H210.376C206.824 228 203.313 227.245 200.075 225.784C196.837 224.323 193.947 222.191 191.597 219.528C189.246 216.865 187.489 213.733 186.441 210.339C185.393 206.945 185.079 203.367 185.52 199.843L190.991 147.631L183.613 152.242C173.59 158.505 164.898 166.682 158.035 176.304C151.172 185.927 146.271 196.807 143.613 208.324L136.676 238.385C134.196 249.14 134.075 260.305 136.321 271.111C138.567 281.917 143.127 292.109 149.688 300.985L264 252L267.486 236.315Z" fill="#007AF6"/>
<path d="M192.663 220.663C194.989 222.989 197.75 224.834 200.79 226.093C203.829 227.352 207.086 228 210.376 228H269.051C274.327 194.492 266.813 160.225 248 132H216L190.991 147.631L185.52 199.843C185.046 203.628 185.444 207.471 186.682 211.08C187.92 214.688 189.965 217.966 192.663 220.663Z" fill="#EAE9E4"/>
<path d="M270.69 205.83L252.8 207.96C251.576 208.111 250.344 208.188 249.11 208.19C244.061 208.186 239.098 206.892 234.689 204.431C230.281 201.971 226.575 198.424 223.922 194.128C221.269 189.833 219.758 184.931 219.532 179.887C219.306 174.843 220.372 169.826 222.63 165.31L223.09 164.38C225.722 159.111 229.865 154.747 234.99 151.845C240.115 148.944 245.988 147.636 251.86 148.09L257.39 148.5C265.985 166.4 270.526 185.975 270.69 205.83Z" fill="#EAE9E4"/>
<path d="M388.062 220.25C386.37 213.483 382.956 207.268 378.152 202.209C373.348 197.151 367.317 193.422 360.645 191.384C353.974 189.345 346.888 189.068 340.078 190.578C333.267 192.088 326.963 195.334 321.778 200L302.261 217.565L335.515 264.121L344 252L368 332H416L388.062 220.25Z" fill="#FDC9A6"/>
<path d="M264 252L149.692 300.989C150.783 302.47 151.927 303.911 153.123 305.31C160.298 313.681 169.199 320.4 179.216 325.007C189.232 329.614 200.127 332 211.152 332H256.723C266.382 332 275.898 329.671 284.465 325.21C293.032 320.75 300.397 314.289 305.936 306.376L335.515 264.121L302.261 217.565L264 252Z" fill="#005DBB"/>
<path d="M256 100C256 93.6348 253.471 87.5303 248.971 83.0294C244.47 78.5286 238.365 76 232 76C225.635 76 219.53 78.5286 215.029 83.0294C210.529 87.5303 208 93.6348 208 100V116L224 100H256Z" fill="#4A4B46"/>
<path d="M224 100L208 116C208 122.365 210.529 128.47 215.029 132.971C219.53 137.471 225.635 140 232 140C238.365 140 244.47 137.471 248.971 132.971C253.471 128.47 256 122.365 256 116V100H224Z" fill="#FDC9A6"/>
<path d="M40 332H504L488 364H53.773L40 332Z" fill="#DC651E"/>
<path d="M152 404H112C109.878 404 107.843 403.157 106.343 401.657C104.843 400.157 104 398.122 104 396C104 393.878 104.843 391.843 106.343 390.343C107.843 388.843 109.878 388 112 388H152C154.122 388 156.157 388.843 157.657 390.343C159.157 391.843 160 393.878 160 396C160 398.122 159.157 400.157 157.657 401.657C156.157 403.157 154.122 404 152 404ZM240 404H208C205.878 404 203.843 403.157 202.343 401.657C200.843 400.157 200 398.122 200 396C200 393.878 200.843 391.843 202.343 390.343C203.843 388.843 205.878 388 208 388H240C242.122 388 244.157 388.843 245.657 390.343C247.157 391.843 248 393.878 248 396C248 398.122 247.157 400.157 245.657 401.657C244.157 403.157 242.122 404 240 404ZM408 404H288C285.878 404 283.843 403.157 282.343 401.657C280.843 400.157 280 398.122 280 396C280 393.878 280.843 391.843 282.343 390.343C283.843 388.843 285.878 388 288 388H408C410.122 388 412.157 388.843 413.657 390.343C415.157 391.843 416 393.878 416 396C416 398.122 415.157 400.157 413.657 401.657C412.157 403.157 410.122 404 408 404Z" fill="#92D1F7"/>
<path d="M456 180L248 364H184L210.512 337.488C214.788 333.212 219.865 329.82 225.452 327.505C231.039 325.191 237.027 324 243.075 324H248L416 180H456Z" fill="#FD7422"/>
<path d="M208 436H136C133.878 436 131.843 435.157 130.343 433.657C128.843 432.157 128 430.122 128 428C128 425.878 128.843 423.843 130.343 422.343C131.843 420.843 133.878 420 136 420H208C210.122 420 212.157 420.843 213.657 422.343C215.157 423.843 216 425.878 216 428C216 430.122 215.157 432.157 213.657 433.657C212.157 435.157 210.122 436 208 436ZM336 436H256C253.878 436 251.843 435.157 250.343 433.657C248.843 432.157 248 430.122 248 428C248 425.878 248.843 423.843 250.343 422.343C251.843 420.843 253.878 420 256 420H336C338.122 420 340.157 420.843 341.657 422.343C343.157 423.843 344 425.878 344 428C344 430.122 343.157 432.157 341.657 433.657C340.157 435.157 338.122 436 336 436Z" fill="#92D1F7"/>
<path d="M270.69 205.83L252.8 207.96C251.576 208.111 250.344 208.188 249.11 208.19C244.061 208.186 239.098 206.892 234.689 204.431C230.281 201.971 226.575 198.424 223.922 194.128C221.269 189.833 219.758 184.931 219.532 179.887C219.306 174.843 220.372 169.826 222.63 165.31L223.09 164.38C225.722 159.111 229.865 154.747 234.99 151.845C240.115 148.944 245.988 147.636 251.86 148.09L257.39 148.5C265.985 166.4 270.526 185.975 270.69 205.83Z" fill="#BBBAB6"/>
<path d="M448 156L288 144.194V197.194L432 180L448 188L464 180L448 156Z" fill="#FDC9A6"/>
<path d="M504 372H32C29.8783 372 27.8434 371.157 26.3431 369.657C24.8429 368.157 24 366.122 24 364C24 361.878 24.8429 359.843 26.3431 358.343C27.8434 356.843 29.8783 356 32 356H504C506.122 356 508.157 356.843 509.657 358.343C511.157 359.843 512 361.878 512 364C512 366.122 511.157 368.157 509.657 369.657C508.157 371.157 506.122 372 504 372Z" fill="#92D1F7"/>
<path d="M251.864 141.528C245.992 141.077 240.118 142.385 234.993 145.287C229.868 148.188 225.724 152.552 223.09 157.819L222.625 158.75C220.227 163.547 219.176 168.904 219.583 174.251C219.991 179.598 221.842 184.735 224.939 189.113C228.036 193.49 232.264 196.945 237.17 199.109C242.077 201.273 247.479 202.065 252.8 201.4L288 197.2V144.2L251.864 141.528Z" fill="#EAE9E4"/>
</g>
<defs>
<clipPath id="clip0_112_18411">
<rect width="512" height="512" fill="white"/>
</clipPath>
</defs>
</svg>
