<svg width="512" height="512" viewBox="0 0 512 512" fill="none" xmlns="http://www.w3.org/2000/svg">
<g clip-path="url(#clip0_113_18941)">
<path d="M335.92 135.76C334.121 136.08 332.279 136.08 330.48 135.76C316.335 133.335 302.077 131.626 287.76 130.64C266.617 129.04 245.383 129.04 224.24 130.64C209.923 131.626 195.665 133.335 181.52 135.76C179.721 136.08 177.879 136.08 176.08 135.76L176 136L178 144.96L183.68 170.4C184.15 172.581 184.792 174.721 185.6 176.8C188.621 184.931 193.799 192.087 200.578 197.499C207.357 202.911 215.481 206.375 224.08 207.52C226.198 207.842 228.338 208.002 230.48 208H281.52C283.662 208.002 285.802 207.842 287.92 207.52C296.519 206.375 304.643 202.911 311.422 197.499C318.201 192.087 323.379 184.931 326.4 176.8C327.208 174.721 327.85 172.581 328.32 170.4L334 144.96L336 136L335.92 135.76Z" fill="#EEF2FA"/>
<path d="M336 360C336.031 364.234 337.727 368.285 340.721 371.279C343.715 374.273 347.766 375.969 352 376H344C339.76 376.013 335.698 377.702 332.7 380.7C329.702 383.698 328.013 387.76 328 392C328.031 396.234 329.727 400.285 332.721 403.279C335.715 406.273 339.766 407.969 344 408H352C347.76 408.013 343.698 409.702 340.7 412.7C337.702 415.698 336.013 419.76 336 424C335.989 426.101 336.401 428.182 337.212 430.12C338.023 432.058 339.216 433.813 340.72 435.28C341.073 435.648 341.447 435.995 341.84 436.32C316.686 454.019 286.755 463.671 256 464C225.245 463.671 195.314 454.019 170.16 436.32C170.553 435.995 170.927 435.648 171.28 435.28C172.784 433.813 173.977 432.058 174.788 430.12C175.599 428.182 176.011 426.101 176 424C175.987 419.76 174.298 415.698 171.3 412.7C168.302 409.702 164.24 408.013 160 408H168C172.234 407.969 176.285 406.273 179.279 403.279C182.273 400.285 183.969 396.234 184 392C183.987 387.76 182.298 383.698 179.3 380.7C176.302 377.702 172.24 376.013 168 376H160C164.234 375.969 168.285 374.273 171.279 371.279C174.273 368.285 175.969 364.234 176 360C176.005 357.641 175.483 355.311 174.473 353.18C173.462 351.048 171.989 349.17 170.16 347.68C195.314 329.981 225.245 320.329 256 320C286.755 320.329 316.686 329.981 341.84 347.68C340.011 349.17 338.538 351.048 337.527 353.18C336.517 355.311 335.995 357.641 336 360Z" fill="#AD726A"/>
<path d="M312 208V216C312 230.852 306.1 245.096 295.598 255.598C285.096 266.1 270.852 272 256 272C241.148 272 226.904 266.1 216.402 255.598C205.9 245.096 200 230.852 200 216V208L200.48 206.48C208.573 208.988 216.441 212.173 224 216C224 224.487 227.371 232.626 233.373 238.627C239.374 244.629 247.513 248 256 248C264.487 248 272.626 244.629 278.627 238.627C284.629 232.626 288 224.487 288 216C295.559 212.173 303.427 208.988 311.52 206.48L312 208Z" fill="#E9EDF5"/>
<path d="M281.52 208C283.662 208.002 285.802 207.842 287.92 207.52L288 208V216C288 224.487 284.629 232.626 278.627 238.627C272.626 244.629 264.487 248 256 248C247.513 248 239.374 244.629 233.373 238.627C227.371 232.626 224 224.487 224 216V208L224.08 207.52C226.198 207.842 228.338 208.002 230.48 208H281.52Z" fill="#FAA68E"/>
<path d="M272 64C276.24 64.0127 280.302 65.7024 283.3 68.7003C286.298 71.6981 287.987 75.7604 288 80V89.12C266.691 87.68 245.309 87.68 224 89.12V80C224.013 75.7604 225.702 71.6981 228.7 68.7003C231.698 65.7024 235.76 64.0127 240 64H272Z" fill="#E9EDF5"/>
<path d="M240 8H272V64H240V8Z" fill="#6F3FF3"/>
<path d="M168 96L170.72 66.24C172.158 50.3247 179.498 35.5233 191.297 24.7459C203.096 13.9686 218.5 7.99508 234.48 8H240V64C235.76 64.0127 231.698 65.7024 228.7 68.7003C225.702 71.6981 224.013 75.7604 224 80V89.12C207.051 90.1704 190.173 92.1467 173.44 95.04C171.657 95.3325 169.93 95.8992 168.32 96.72L168 96ZM338.56 95.04C321.827 92.1467 304.949 90.1704 288 89.12V80C287.987 75.7604 286.298 71.6981 283.3 68.7003C280.302 65.7024 276.24 64.0127 272 64V8H277.52C293.5 7.99508 308.904 13.9686 320.703 24.7459C332.502 35.5233 339.842 50.3247 341.28 66.24L344 96L343.68 96.72C342.07 95.8992 340.343 95.3325 338.56 95.04Z" fill="#2B8FFC"/>
<path d="M288 89.12C304.949 90.1705 321.827 92.1468 338.56 95.04C340.343 95.3325 342.07 95.8992 343.68 96.72C346.526 97.8965 348.877 100.021 350.335 102.733C351.793 105.445 352.268 108.578 351.68 111.6C350.56 116.08 349.52 120.56 348.4 125.04C347.618 127.863 346.013 130.39 343.791 132.299C341.569 134.208 338.829 135.413 335.92 135.76C334.121 136.08 332.279 136.08 330.48 135.76C316.335 133.335 302.077 131.626 287.76 130.64C266.617 129.04 245.383 129.04 224.24 130.64C209.923 131.626 195.665 133.335 181.52 135.76C179.721 136.08 177.879 136.08 176.08 135.76C173.171 135.413 170.431 134.208 168.209 132.299C165.987 130.39 164.382 127.863 163.6 125.04C162.48 120.56 161.44 116.08 160.32 111.6C159.732 108.578 160.207 105.445 161.665 102.733C163.123 100.021 165.475 97.8965 168.32 96.72C169.93 95.8992 171.657 95.3325 173.44 95.04C190.173 92.1468 207.051 90.1705 224 89.12C245.309 87.68 266.691 87.68 288 89.12Z" fill="#9863FC"/>
<path d="M56.88 241.68L88 304L64 320L40 272L38.48 271.36C42.8966 260.5 49.1176 250.466 56.88 241.68ZM104.08 208.16L136 272L112 288L80 224L78.64 222.08C86.5605 216.484 95.0961 211.813 104.08 208.16ZM433.36 222.08L432 224L400 288L376 272L407.92 208.16C416.904 211.813 425.439 216.484 433.36 222.08ZM473.52 271.36L472 272L448 320L424 304L455.12 241.68C462.882 250.466 469.103 260.5 473.52 271.36Z" fill="#CDD6DE"/>
<path d="M376 440L360 504H152L136 440H160C163.714 440.004 167.31 438.701 170.16 436.32C195.314 454.019 225.245 463.671 256 464C286.755 463.671 316.686 454.019 341.84 436.32C344.69 438.701 348.286 440.004 352 440H376ZM360 344H352C348.286 343.997 344.69 345.299 341.84 347.68C316.686 329.981 286.755 320.33 256 320C225.245 320.33 195.314 329.981 170.16 347.68C167.31 345.299 163.714 343.997 160 344H152L157.68 332.72C158.549 331.036 159.075 329.197 159.227 327.308C159.38 325.419 159.156 323.519 158.568 321.718C157.98 319.916 157.041 318.25 155.804 316.814C154.567 315.379 153.057 314.203 151.362 313.356C149.667 312.508 147.821 312.006 145.931 311.878C144.04 311.749 142.143 311.998 140.349 312.608C138.556 313.219 136.901 314.18 135.481 315.435C134.062 316.69 132.906 318.215 132.08 319.92L120 344V345.44C116.548 346.633 113.421 348.614 110.866 351.224C108.311 353.834 106.399 357.003 105.28 360.48L104 360H56C38.32 360 32 330.56 32 304C32.0246 292.803 34.2254 281.717 38.48 271.36L40 272L64 320L88 304L56.88 241.68C63.3317 234.308 70.6362 227.729 78.64 222.08L80 224L112 288L136 272L104.08 208.16C116.741 202.907 130.293 200.137 144 200C163.052 199.121 182.122 201.309 200.48 206.48L200 208V216C200 230.852 205.9 245.096 216.402 255.598C226.904 266.1 241.148 272 256 272C270.852 272 285.096 266.1 295.598 255.598C306.1 245.096 312 230.852 312 216V208L311.52 206.48C329.878 201.309 348.948 199.121 368 200C381.707 200.137 395.259 202.907 407.92 208.16L376 272L400 288L432 224L433.36 222.08C441.364 227.729 448.668 234.308 455.12 241.68L424 304L448 320L472 272L473.52 271.36C477.775 281.717 479.975 292.803 480 304C480 330.56 473.68 360 456 360H408L406.72 360.48C405.601 357.003 403.689 353.834 401.134 351.224C398.579 348.614 395.452 346.633 392 345.44V344L379.92 319.92C379.094 318.215 377.938 316.69 376.519 315.435C375.099 314.18 373.444 313.219 371.651 312.608C369.857 311.998 367.96 311.749 366.069 311.878C364.179 312.006 362.333 312.508 360.638 313.356C358.943 314.203 357.433 315.379 356.196 316.814C354.959 318.25 354.02 319.916 353.432 321.718C352.844 323.519 352.62 325.419 352.773 327.308C352.925 329.197 353.451 331.036 354.32 332.72L360 344Z" fill="#2B8FFC"/>
<path d="M144.88 312C147.319 312.004 149.716 312.63 151.845 313.82C153.974 315.01 155.765 316.723 157.046 318.798C158.328 320.873 159.059 323.24 159.17 325.677C159.281 328.113 158.768 330.537 157.68 332.72L152 344H128C125.267 343.983 122.555 344.471 120 345.44V344L132.08 319.92C133.258 317.534 135.083 315.527 137.346 314.127C139.609 312.727 142.219 311.99 144.88 312ZM392 344V345.44C389.445 344.471 386.733 343.983 384 344H360L354.32 332.72C353.451 331.036 352.925 329.197 352.773 327.308C352.62 325.419 352.844 323.519 353.432 321.718C354.02 319.916 354.959 318.249 356.196 316.814C357.433 315.379 358.943 314.203 360.638 313.356C362.333 312.508 364.179 312.006 366.069 311.878C367.96 311.749 369.857 311.998 371.651 312.608C373.444 313.219 375.099 314.18 376.519 315.435C377.938 316.69 379.094 318.215 379.92 319.92L392 344Z" fill="#CDD2E1"/>
<path d="M104 368V408C103.454 416.245 105.928 424.406 110.96 430.96L60.48 446.24C56.5877 447.411 52.5446 448.004 48.48 448C37.8345 448.066 27.5967 443.91 20.0094 436.443C12.422 428.975 8.10352 418.805 8 408.16C8.02995 400.725 10.145 393.447 14.1047 387.154C18.0644 380.861 23.7101 375.805 30.4 372.56L56 360H104L105.28 360.48C104.403 362.889 103.969 365.437 104 368ZM481.6 372.56C488.29 375.805 493.936 380.861 497.895 387.154C501.855 393.447 503.97 400.725 504 408.16C503.896 418.805 499.578 428.975 491.991 436.443C484.403 443.91 474.165 448.066 463.52 448C459.455 448.004 455.412 447.411 451.52 446.24L401.04 430.96C406.072 424.406 408.546 416.245 408 408V368C408.031 365.437 407.597 362.889 406.72 360.48L408 360H456L481.6 372.56Z" fill="#FAA68E"/>
<path d="M176 344V440L175.92 440.16C151.44 424.64 136 404.88 136 392C136 379.12 151.44 359.36 175.92 343.84L176 344ZM336 440V344L336.08 343.84C360.56 359.36 376 379.12 376 392C376 404.88 360.56 424.64 336.08 440.16L336 440Z" fill="#AD726A"/>
<path d="M336 344V440L336.08 440.16C312.158 455.477 284.404 463.739 256 464C227.596 463.739 199.841 455.477 175.92 440.16L176 440V344L175.92 343.84C199.841 328.523 227.596 320.261 256 320C284.404 320.261 312.158 328.523 336.08 343.84L336 344Z" fill="#AD726A"/>
<path d="M336.08 343.84C333.488 342.192 330.784 340.64 328 339.04V444.952C330.789 443.416 333.483 441.816 336.08 440.152C338.848 438.392 341.472 436.568 344 434.72V349.272C341.42 347.376 338.778 345.564 336.08 343.84ZM168 349.272V434.728C170.528 436.576 173.152 438.4 175.92 440.16C178.512 441.813 181.205 443.413 184 444.96V339.056C178.451 342.111 173.107 345.524 168 349.272ZM313.064 356.144C306.12 354.262 299.091 352.708 292 351.488V336C292 334.939 291.579 333.922 290.828 333.172C290.078 332.421 289.061 332 288 332C286.939 332 285.922 332.421 285.172 333.172C284.421 333.922 284 334.939 284 336V350.264C276.048 349.095 268.034 348.4 260 348.184V336C260 334.939 259.579 333.922 258.828 333.172C258.078 332.421 257.061 332 256 332C254.939 332 253.922 332.421 253.172 333.172C252.421 333.922 252 334.939 252 336V348.12C243.955 348.466 235.939 349.316 228 350.664V336C228 334.939 227.579 333.922 226.828 333.172C226.078 332.421 225.061 332 224 332C222.939 332 221.922 332.421 221.172 333.172C220.421 333.922 220 334.939 220 336V352C212.608 353.312 205.464 354.736 199.2 356.064C198.192 356.311 197.319 356.941 196.767 357.82C196.214 358.698 196.025 359.758 196.239 360.773C196.452 361.789 197.053 362.682 197.913 363.263C198.773 363.844 199.826 364.068 200.848 363.888C207.229 362.541 213.63 361.29 220.048 360.136V376C220.048 377.061 220.469 378.078 221.22 378.828C221.97 379.579 222.987 380 224.048 380C225.109 380 226.126 379.579 226.876 378.828C227.627 378.078 228.048 377.061 228.048 376V358.768C235.984 357.381 244 356.497 252.048 356.12V376C252.048 377.061 252.469 378.078 253.22 378.828C253.97 379.579 254.987 380 256.048 380C257.109 380 258.126 379.579 258.876 378.828C259.627 378.078 260.048 377.061 260.048 376V356.184C268.084 356.402 276.099 357.116 284.048 358.32V376C284.048 377.061 284.469 378.078 285.22 378.828C285.97 379.579 286.987 380 288.048 380C289.109 380 290.126 379.579 290.876 378.828C291.627 378.078 292.048 377.061 292.048 376V359.632C298.624 360.832 305.024 362.208 310.984 363.856C311.315 363.946 311.657 363.995 312 364C312.968 364 313.903 363.649 314.632 363.012C315.361 362.376 315.834 361.496 315.964 360.537C316.094 359.578 315.872 358.604 315.339 357.796C314.805 356.988 313.997 356.401 313.064 356.144Z" fill="#F6FAFD"/>
<path d="M336.08 405.456C311.148 417.658 283.758 424.001 256 424.001C228.242 424.001 200.852 417.658 175.92 405.456C162.128 399.344 149.942 390.115 140.32 378.496C137.803 382.579 136.321 387.214 136 392C136 404.88 151.44 424.64 175.92 440.16C199.841 455.477 227.596 463.739 256 464C284.404 463.739 312.159 455.477 336.08 440.16C360.56 424.64 376 404.88 376 392C375.679 387.214 374.197 382.579 371.68 378.496C362.058 390.115 349.872 399.344 336.08 405.456Z" fill="#8C5956"/>
<path d="M328 409.184V444.952C330.789 443.416 333.483 441.816 336.08 440.152C338.848 438.392 341.472 436.568 344 434.72V401.232C341.472 402.672 338.848 404.088 336.08 405.456C333.488 406.747 330.795 407.989 328 409.184ZM168 401.232V434.728C170.528 436.576 173.152 438.4 175.92 440.16C178.512 441.813 181.205 443.413 184 444.96V409.184C181.211 407.984 178.517 406.741 175.92 405.456C173.239 404.126 170.598 402.717 168 401.232Z" fill="#AFB4C8"/>
<path d="M104 408V368C103.969 365.437 104.403 362.889 105.28 360.48C106.399 357.003 108.311 353.834 110.866 351.224C113.421 348.613 116.548 346.633 120 345.44C122.555 344.471 125.267 343.983 128 344H160C164.237 344.021 168.294 345.713 171.29 348.709C174.286 351.706 175.979 355.763 176 360C175.969 364.234 174.273 368.285 171.279 371.279C168.285 374.273 164.234 375.969 160 376H168C172.24 376.013 176.302 377.702 179.3 380.7C182.298 383.698 183.987 387.76 184 392C183.969 396.234 182.273 400.285 179.279 403.279C176.285 406.273 172.234 407.969 168 408H160C164.24 408.013 168.302 409.702 171.3 412.7C174.298 415.698 175.987 419.76 176 424C176.011 426.101 175.599 428.182 174.788 430.12C173.977 432.058 172.784 433.813 171.28 435.28C170.927 435.648 170.553 435.995 170.16 436.32C167.31 438.701 163.714 440.003 160 440H136C131.419 440.412 126.804 439.816 122.478 438.254C118.153 436.692 114.221 434.203 110.96 430.96C105.928 424.406 103.454 416.245 104 408ZM341.84 347.68C344.69 345.299 348.286 343.996 352 344H384C386.733 343.983 389.445 344.471 392 345.44C395.452 346.633 398.579 348.613 401.134 351.224C403.689 353.834 405.601 357.003 406.72 360.48C407.597 362.889 408.031 365.437 408 368V408C408.546 416.245 406.072 424.406 401.04 430.96C397.779 434.203 393.847 436.692 389.522 438.254C385.196 439.816 380.581 440.412 376 440H352C348.286 440.003 344.69 438.701 341.84 436.32C341.447 435.995 341.073 435.648 340.72 435.28C339.216 433.813 338.023 432.058 337.212 430.12C336.401 428.182 335.989 426.101 336 424C336.013 419.76 337.702 415.698 340.7 412.7C343.698 409.702 347.76 408.013 352 408H344C339.766 407.969 335.715 406.273 332.721 403.279C329.727 400.285 328.031 396.234 328 392C328.013 387.76 329.702 383.698 332.7 380.7C335.698 377.702 339.76 376.013 344 376H352C347.766 375.969 343.715 374.273 340.721 371.279C337.727 368.285 336.031 364.234 336 360C335.995 357.641 336.517 355.311 337.527 353.18C338.538 351.048 340.011 349.169 341.84 347.68Z" fill="#E9EDF5"/>
<path d="M224.24 146.64C245.383 145.04 266.617 145.04 287.76 146.64C302.077 147.626 316.335 149.335 330.48 151.76C331.129 151.855 331.784 151.911 332.44 151.928L334.04 144.96L336 136L335.92 135.76C334.121 136.08 332.279 136.08 330.48 135.76C316.335 133.335 302.077 131.626 287.76 130.64C266.617 129.04 245.383 129.04 224.24 130.64C209.923 131.626 195.665 133.335 181.52 135.76C179.721 136.08 177.879 136.08 176.08 135.76L176 136L178 144.96L179.6 151.928C180.256 151.911 180.911 151.855 181.56 151.76C195.691 149.336 209.936 147.628 224.24 146.64Z" fill="#CDD2E1"/>
<path d="M287.92 207.52C285.802 207.842 283.662 208.002 281.52 208H280C280 225.68 269.256 240 256 240C252.637 239.87 249.35 238.956 246.403 237.331C243.456 235.706 240.929 233.415 239.024 230.64C234.347 224.026 231.887 216.1 232 208H230.48C228.338 208.002 226.198 207.842 224.08 207.52L224 208V216C224 224.487 227.371 232.626 233.373 238.627C239.374 244.629 247.513 248 256 248C264.487 248 272.626 244.629 278.627 238.627C284.629 232.626 288 224.487 288 216V208L287.92 207.52Z" fill="#E68D79"/>
<path d="M336.68 119.76C321.336 117.36 305.912 115.6 290.4 114.64C267.495 113.04 244.505 113.04 221.6 114.64C206.088 115.6 190.664 117.36 175.32 119.76C170.502 120.508 165.58 119.396 161.552 116.648C162.232 119.448 162.904 122.248 163.6 125.04C164.382 127.863 165.987 130.39 168.209 132.299C170.431 134.208 173.171 135.412 176.08 135.76C177.879 136.08 179.721 136.08 181.52 135.76C195.665 133.335 209.923 131.626 224.24 130.64C245.383 129.04 266.617 129.04 287.76 130.64C302.077 131.626 316.335 133.335 330.48 135.76C332.279 136.08 334.121 136.08 335.92 135.76C338.829 135.412 341.569 134.208 343.791 132.299C346.013 130.39 347.618 127.863 348.4 125.04C349.096 122.24 349.768 119.44 350.448 116.648C346.42 119.396 341.498 120.508 336.68 119.76Z" fill="#6F3FF3"/>
<path d="M59.36 310.728C60.072 308.008 60.872 305.336 61.76 302.728C64.8918 293.652 69.1719 285.014 74.496 277.024L56.88 241.68C49.1176 250.466 42.8966 260.5 38.48 271.36L40 272L59.36 310.728ZM94.864 253.72C95.808 252.88 96.672 251.92 97.64 251.112C104.125 245.768 111.2 241.183 118.728 237.448L104.08 208.16C95.0961 211.813 86.5605 216.484 78.64 222.08L80 224L94.864 253.72ZM414.4 251.112C415.368 251.912 416.232 252.88 417.176 253.72L432 224L433.36 222.08C425.439 216.484 416.904 211.813 407.92 208.16L393.272 237.448C400.814 241.181 407.902 245.765 414.4 251.112ZM450.216 302.704C451.128 305.336 451.928 308.008 452.616 310.704L472 272L473.52 271.36C469.103 260.5 462.882 250.466 455.12 241.68L437.52 277C442.83 284.992 447.097 293.63 450.216 302.704Z" fill="#EBF5F7"/>
<path d="M391.64 236.544C392.2 236.808 392.72 237.176 393.24 237.448L407.92 208.16C395.259 202.907 381.707 200.137 368 200C348.948 199.121 329.878 201.309 311.52 206.48L312 208V216C311.991 221.982 311.025 227.924 309.136 233.6C324.338 229.142 340.176 227.25 356 228C368.366 228.173 380.539 231.092 391.64 236.544ZM417.136 253.72C423.292 259.097 428.871 265.1 433.784 271.632C435.08 273.368 436.28 275.184 437.48 277L455.08 241.68C448.628 234.308 441.324 227.729 433.32 222.08L432 224L417.136 253.72ZM120.36 236.544C131.461 231.092 143.634 228.173 156 228C171.824 227.25 187.662 229.142 202.864 233.6C200.975 227.924 200.009 221.982 200 216V208L200.48 206.48C182.122 201.309 163.052 199.121 144 200C130.293 200.137 116.741 202.907 104.08 208.16L118.728 237.448C119.28 237.176 119.8 236.8 120.36 236.544ZM473.52 271.36L472 272L452.64 310.728C454.869 319.264 455.999 328.05 456 336.872C456.016 344.604 455.54 352.329 454.576 360H456C473.68 360 480 330.56 480 304C479.975 292.803 477.775 281.717 473.52 271.36ZM59.36 310.728L40 272L38.48 271.36C34.2254 281.717 32.0246 292.803 32 304C32 330.56 38.32 360 56 360H57.424C56.4596 352.329 55.984 344.604 56 336.872C56.0015 328.05 57.1306 319.264 59.36 310.728ZM78.216 271.632C83.129 265.1 88.7084 259.097 94.864 253.72L80 224L78.64 222.08C70.6362 227.729 63.3317 234.308 56.88 241.68L74.48 277C75.72 275.2 76.92 273.368 78.216 271.632Z" fill="#2CB5FF"/>
<path d="M359.144 314.528C356.533 312.738 353.4 311.867 350.24 312.053C347.079 312.239 344.07 313.471 341.687 315.555C339.304 317.64 337.682 320.458 337.077 323.565C336.471 326.673 336.917 329.894 338.344 332.72L344 344H360L354.32 332.72C352.786 329.618 352.429 326.064 353.316 322.718C354.203 319.373 356.274 316.463 359.144 314.528ZM160.88 312C158.02 312.022 155.233 312.902 152.88 314.528C155.746 316.466 157.812 319.378 158.694 322.723C159.577 326.068 159.217 329.62 157.68 332.72L152 344H168L173.68 332.72C174.768 330.537 175.281 328.113 175.17 325.677C175.059 323.24 174.328 320.873 173.046 318.798C171.765 316.723 169.974 315.01 167.845 313.82C165.716 312.63 163.319 312.004 160.88 312ZM352 440C348.286 440.004 344.69 438.701 341.84 436.32C316.686 454.019 286.755 463.671 256 464C225.245 463.671 195.314 454.019 170.16 436.32C167.31 438.701 163.714 440.004 160 440H136L142 464H160C163.714 464.004 167.31 462.701 170.16 460.32C195.314 478.019 225.245 487.671 256 488C286.755 487.671 316.686 478.019 341.84 460.32C344.69 462.701 348.286 464.004 352 464H370L376 440H352Z" fill="#2864F0"/>
<path d="M160 376H168V373.768C165.583 375.218 162.819 375.989 160 376ZM160 408C162.818 408.017 165.58 408.788 168 410.232V408H160Z" fill="#694240"/>
<path d="M195.28 379.28C196.784 377.813 197.977 376.058 198.788 374.12C199.599 372.182 200.011 370.101 200 368C199.979 363.763 198.287 359.706 195.29 356.71C192.294 353.713 188.237 352.021 184 352V384C186.101 384.011 188.182 383.599 190.12 382.788C192.058 381.977 193.813 380.784 195.28 379.28Z" fill="#8C5956"/>
<path d="M208 400C207.987 395.76 206.298 391.698 203.3 388.7C200.302 385.702 196.24 384.013 192 384H184V409.184C188.56 411.152 193.432 412.936 198.472 414.608C201.289 413.337 203.684 411.286 205.372 408.697C207.061 406.109 207.972 403.091 208 400Z" fill="#8C5956"/>
<path d="M176 352V360C176.011 362.101 175.599 364.182 174.788 366.12C173.977 368.058 172.784 369.813 171.28 371.28C170.304 372.253 169.201 373.09 168 373.768V376C170.818 376.017 173.58 376.788 176 378.232C178.419 379.629 180.431 381.635 181.834 384.05C183.238 386.466 183.985 389.206 184 392V352H176Z" fill="#9DA3B5"/>
<path d="M184 409.184V416H192C194.231 415.999 196.437 415.524 198.472 414.608C193.572 413.01 188.744 411.2 184 409.184ZM188.536 447.28C190.581 446.676 192.485 445.67 194.136 444.32C194.529 443.995 194.903 443.648 195.256 443.28C196.764 441.815 197.962 440.061 198.777 438.123C199.592 436.185 200.008 434.103 200 432C199.987 427.761 198.298 423.698 195.3 420.7C192.302 417.703 188.24 416.013 184 416V444.952C185.464 445.768 187.024 446.512 188.536 447.28Z" fill="#694240"/>
<path d="M179.28 403.28C178.378 404.182 177.367 404.969 176.272 405.624L176 405.768C173.583 407.218 170.819 407.989 168 408V410.232C170.419 411.629 172.431 413.635 173.834 416.05C175.238 418.466 175.985 421.206 176 424C176.011 426.101 175.599 428.182 174.788 430.12C173.977 432.058 172.784 433.813 171.28 435.28C170.945 435.62 170.595 435.946 170.232 436.256C172.096 437.568 173.928 438.896 175.92 440.16C178.512 441.808 181.205 443.408 184 444.96V392C184.011 394.101 183.599 396.182 182.788 398.12C181.977 400.058 180.784 401.813 179.28 403.28Z" fill="#9DA3B5"/>
<path d="M352 376C349.181 375.989 346.417 375.218 344 373.768V376H352ZM352 408H344V410.232C346.42 408.788 349.182 408.017 352 408Z" fill="#694240"/>
<path d="M332.72 403.28C331.216 401.813 330.023 400.058 329.212 398.12C328.401 396.182 327.989 394.101 328 392V409.184C330.667 408.037 333.243 406.851 335.728 405.624C334.633 404.969 333.622 404.182 332.72 403.28Z" fill="#9DA3B5"/>
<path d="M328 392V384H320C315.76 384.013 311.698 385.702 308.7 388.7C305.702 391.698 304.013 395.76 304 400C304.028 403.091 304.939 406.109 306.628 408.697C308.316 411.286 310.711 413.337 313.528 414.608C318.568 412.936 323.44 411.152 328 409.184V392ZM317.84 355.68C316.011 357.17 314.538 359.048 313.527 361.18C312.517 363.311 311.995 365.641 312 368C312.031 372.234 313.727 376.285 316.721 379.279C319.715 382.273 323.766 383.969 328 384V352C324.286 351.997 320.69 353.299 317.84 355.68Z" fill="#8C5956"/>
<path d="M340.72 371.28C339.216 369.813 338.023 368.058 337.212 366.12C336.401 364.182 335.989 362.101 336 360V352H328V392C328.015 389.206 328.762 386.466 330.166 384.05C331.569 381.635 333.581 379.629 336 378.232C338.42 376.788 341.182 376.017 344 376V373.768C342.799 373.09 341.696 372.253 340.72 371.28Z" fill="#9DA3B5"/>
<path d="M312 432C311.989 434.101 312.401 436.182 313.212 438.12C314.023 440.059 315.216 441.813 316.72 443.28C317.073 443.648 317.447 443.995 317.84 444.32C319.491 445.67 321.395 446.676 323.44 447.28C324.952 446.48 326.512 445.768 327.976 444.952V416C323.741 416.019 319.684 417.712 316.692 420.709C313.699 423.706 312.013 427.765 312 432ZM328 409.184C323.44 411.152 318.568 412.936 313.528 414.608C315.563 415.524 317.769 415.999 320 416H328V409.184Z" fill="#694240"/>
<path d="M344 410.232V408C341.181 407.989 338.417 407.218 336 405.768L335.728 405.624C333.237 406.851 330.661 408.037 328 409.184V444.952C330.789 443.411 333.483 441.811 336.08 440.152C338.072 438.888 339.904 437.56 341.768 436.248C341.405 435.938 341.055 435.613 340.72 435.272C339.217 433.806 338.024 432.053 337.214 430.116C336.403 428.18 335.99 426.1 336 424C336.015 421.206 336.762 418.466 338.166 416.05C339.569 413.635 341.581 411.629 344 410.232Z" fill="#9DA3B5"/>
<path d="M336 424C335.989 426.101 336.401 428.182 337.212 430.12C338.023 432.058 339.216 433.813 340.72 435.28C341.096 435.656 341.408 435.952 341.768 436.256C342.504 435.744 343.288 435.248 344 434.728V410.232C341.581 411.629 339.569 413.635 338.166 416.05C336.762 418.466 336.015 421.206 336 424Z" fill="#E9EDF5"/>
<path d="M400 408H352C347.76 408.013 343.698 409.702 340.7 412.7C337.702 415.698 336.013 419.76 336 424H384C388.243 424 392.313 422.314 395.314 419.314C398.314 416.313 400 412.243 400 408Z" fill="#F7FAFF"/>
<path d="M384 392H328C328.031 396.234 329.727 400.285 332.721 403.279C335.715 406.273 339.766 407.969 344 408H400C400 403.757 398.314 399.687 395.314 396.686C392.313 393.686 388.243 392 384 392Z" fill="#E9EDF5"/>
<path d="M384 424H336C335.989 426.101 336.401 428.182 337.212 430.12C338.023 432.058 339.216 433.813 340.72 435.28C341.073 435.648 341.447 435.995 341.84 436.32C344.69 438.701 348.286 440.004 352 440H376C380.581 440.412 385.196 439.816 389.521 438.254C393.847 436.692 397.779 434.203 401.04 430.96C406.072 424.406 408.546 416.245 408 408H400C400 412.243 398.314 416.313 395.314 419.314C392.313 422.314 388.243 424 384 424Z" fill="#DCE1EB"/>
<path d="M406.72 360.48C405.601 357.003 403.689 353.834 401.134 351.224C398.579 348.613 395.452 346.633 392 345.44C389.445 344.471 386.733 343.983 384 344H352C347.763 344.021 343.706 345.713 340.71 348.709C337.714 351.706 336.021 355.763 336 360H384C388.243 360 392.313 361.686 395.314 364.686C398.314 367.687 400 371.756 400 376H408V368C408.031 365.437 407.597 362.889 406.72 360.48ZM352 376H344C339.76 376.013 335.698 377.702 332.7 380.7C329.702 383.698 328.013 387.76 328 392H384C388.243 392 392.313 393.686 395.314 396.686C398.314 399.687 400 403.756 400 408H408V376H352ZM112 408H160C164.24 408.013 168.302 409.702 171.3 412.7C174.298 415.698 175.987 419.76 176 424H128C123.757 424 119.687 422.314 116.686 419.314C113.686 416.313 112 412.243 112 408Z" fill="#F7FAFF"/>
<path d="M128 392H184C183.969 396.234 182.273 400.285 179.279 403.279C176.285 406.273 172.234 407.969 168 408H112C112 403.757 113.686 399.687 116.686 396.686C119.687 393.686 123.757 392 128 392Z" fill="#E9EDF5"/>
<path d="M128 424H176C176.011 426.101 175.599 428.182 174.788 430.12C173.977 432.058 172.784 433.813 171.28 435.28C170.927 435.648 170.553 435.995 170.16 436.32C167.31 438.701 163.714 440.004 160 440H136C131.419 440.412 126.804 439.816 122.478 438.254C118.153 436.692 114.221 434.203 110.96 430.96C105.928 424.406 103.454 416.245 104 408H112C112 412.243 113.686 416.313 116.686 419.314C119.687 422.314 123.757 424 128 424Z" fill="#DCE1EB"/>
<path d="M105.28 360.48C106.399 357.003 108.311 353.834 110.866 351.224C113.421 348.613 116.548 346.633 120 345.44C122.555 344.471 125.267 343.983 128 344H160C164.237 344.021 168.295 345.713 171.291 348.709C174.287 351.706 175.979 355.763 176 360H128C123.757 360 119.687 361.686 116.686 364.686C113.686 367.687 112 371.756 112 376H104V368C103.969 365.437 104.403 362.889 105.28 360.48ZM160 376H168C172.24 376.013 176.302 377.702 179.3 380.7C182.298 383.698 183.987 387.76 184 392H128C123.757 392 119.687 393.686 116.686 396.686C113.686 399.687 112 403.756 112 408H104V376H160Z" fill="#F7FAFF"/>
<path d="M104 368C103.969 365.437 104.403 362.889 105.28 360.48L104 360H56.0001C56.0001 364.243 57.6858 368.313 60.6864 371.314C63.6869 374.314 67.7566 376 72.0001 376C74.1218 376 76.1566 376.843 77.6569 378.343C79.1572 379.843 80.0001 381.878 80.0001 384V405.168C79.9955 408.362 79.0354 411.481 77.2433 414.124C75.4511 416.767 72.909 418.814 69.9441 420L60.0001 424C46.7686 429.289 32.6494 432.004 18.4001 432H16.2161C20.0141 436.955 24.8971 440.973 30.49 443.747C36.083 446.52 42.2372 447.975 48.4801 448C52.5447 448.004 56.5878 447.411 60.4801 446.24L110.96 430.96C105.928 424.406 103.454 416.245 104 408V368ZM493.6 432C479.351 432.004 465.232 429.289 452 424L442.08 420C439.111 418.817 436.563 416.773 434.767 414.129C432.97 411.485 432.007 408.364 432 405.168V384C432 381.878 432.843 379.843 434.343 378.343C435.844 376.843 437.878 376 440 376C444.244 376 448.313 374.314 451.314 371.314C454.314 368.313 456 364.243 456 360H408L406.72 360.48C407.597 362.889 408.031 365.437 408 368V408C408.546 416.245 406.072 424.406 401.04 430.96L451.52 446.24C455.412 447.411 459.455 448.004 463.52 448C469.763 447.975 475.917 446.52 481.51 443.747C487.103 440.973 491.986 436.955 495.784 432H493.6Z" fill="#E68D79"/>
<path d="M147.648 325.056L151.448 313.656C149.427 312.577 147.172 312.008 144.88 312C142.219 311.99 139.609 312.727 137.346 314.127C135.083 315.527 133.258 317.534 132.08 319.92L124 336H132.448C135.81 336.004 139.088 334.949 141.817 332.985C144.545 331.02 146.586 328.246 147.648 325.056ZM379.536 336H388L379.92 319.92C378.742 317.534 376.917 315.527 374.654 314.127C372.391 312.727 369.781 311.99 367.12 312C364.828 312.008 362.573 312.577 360.552 313.656L364.352 325.056C365.414 328.243 367.451 331.016 370.177 332.98C372.902 334.944 376.177 336.001 379.536 336Z" fill="#DCE1EB"/>
<path d="M311.52 206.48C309.12 207.224 306.496 208.216 303.952 209.16C303.416 239.576 282.192 264 256 264C229.808 264 208.584 239.576 208.048 209.16C205.504 208.216 202.92 207.224 200.48 206.48L200 208V216C200 230.852 205.9 245.096 216.402 255.598C226.904 266.1 241.148 272 256 272C270.852 272 285.096 266.1 295.598 255.598C306.1 245.096 312 230.852 312 216V208L311.52 206.48ZM272 64H240C235.76 64.0127 231.698 65.7024 228.7 68.7003C225.702 71.6981 224.013 75.7604 224 80V88C224.013 83.7604 225.702 79.6981 228.7 76.7003C231.698 73.7024 235.76 72.0127 240 72H272C276.24 72.0127 280.302 73.7024 283.3 76.7003C286.298 79.6981 287.987 83.7604 288 88V80C287.987 75.7604 286.298 71.6981 283.3 68.7003C280.302 65.7024 276.24 64.0127 272 64Z" fill="#CDD2E1"/>
<path d="M240 8H248V64H240V8ZM264 8H272V64H264V8Z" fill="#DCE1EB"/>
<path d="M240 8H272V32H240V8Z" fill="#9863FC"/>
<path d="M232.52 32H240V8H234.48C218.5 7.99508 203.096 13.9686 191.297 24.7459C179.498 35.5233 172.158 50.3247 170.72 66.24C177.126 55.6261 186.205 46.8783 197.049 40.8701C207.893 34.8619 220.124 31.8034 232.52 32ZM273.456 32H279.48C291.877 31.8051 304.109 34.866 314.953 40.8771C325.798 46.8882 334.876 55.6391 341.28 66.256C339.846 50.3379 332.507 35.5325 320.708 24.7518C308.909 13.9711 293.503 7.99544 277.52 8H272V32H273.456Z" fill="#2CB5FF"/>
<path d="M240 8H248V32H240V8ZM264 8H272V32H264V8Z" fill="#F7FAFF"/>
<path d="M331.928 135.888L330.56 142.048C317.495 146.324 303.778 148.263 290.04 147.776L291.72 130.976C290.4 130.872 289.08 130.688 287.72 130.6C286.36 130.512 285.04 130.456 283.72 130.368L281.976 147.864C274.4 148 265.816 148 256 148C246.184 148 237.6 148 230.008 147.904L228.264 130.4C226.92 130.488 225.576 130.528 224.264 130.632C222.952 130.736 221.624 130.904 220.264 131.008L221.944 147.808C208.206 148.295 194.489 146.356 181.424 142.08L180.056 135.92C178.723 136.051 177.378 136.008 176.056 135.792C174.757 135.582 173.489 135.214 172.28 134.696C171.998 135.394 171.926 136.158 172.072 136.896L173.064 141.384L174.48 147.744L179.72 171.312C179.928 172.256 180.312 173.104 180.568 174.024C181.053 175.94 181.644 177.829 182.336 179.68C186.203 189.273 192.863 197.482 201.451 203.245C210.04 209.008 220.161 212.058 230.504 212H281.496C291.838 212.051 301.957 208.994 310.541 203.225C319.126 197.457 325.779 189.243 329.64 179.648C330.332 177.797 330.923 175.908 331.408 173.992C331.664 173.072 332.048 172.224 332.256 171.28L337.496 147.712L338.912 141.352L339.904 136.864C340.05 136.126 339.978 135.362 339.696 134.664C338.487 135.182 337.219 135.55 335.92 135.76C334.6 135.975 333.259 136.018 331.928 135.888ZM187.552 169.544L183.488 151.256C196.315 154.526 209.525 156.049 222.76 155.784L225.16 179.784C212.796 180.382 200.445 178.368 188.912 173.872C188.386 172.453 187.932 171.009 187.552 169.544ZM193.792 184.216C204.305 186.853 215.124 188.066 225.96 187.824L227.56 203.752C220.799 203.349 214.226 201.372 208.364 197.981C202.502 194.589 197.512 189.876 193.792 184.216ZM276.376 204H235.624L234.024 187.944C240.368 188 247.624 188 256.008 188C264.392 188 271.648 188 277.992 187.944L276.376 204ZM278.776 179.936C272.288 180 264.8 180 256 180C247.2 180 239.712 180 233.216 179.936L230.816 155.936C238.272 156.016 246.568 156.024 256 156.024C265.432 156.024 273.728 156.024 281.184 155.936L278.776 179.936ZM284.44 203.752L286.04 187.824C296.876 188.066 307.695 186.853 318.208 184.216C314.489 189.875 309.501 194.587 303.64 197.979C297.779 201.37 291.199 203.347 284.44 203.752ZM324.44 169.544C324.06 171.014 323.606 172.464 323.08 173.888C311.547 178.384 299.196 180.398 286.832 179.8L289.232 155.8C302.467 156.065 315.677 154.542 328.504 151.272L324.44 169.544Z" fill="#333940"/>
<path d="M224 80C224 75.7565 225.686 71.6869 228.686 68.6863C231.687 65.6857 235.757 64 240 64H272C276.243 64 280.313 65.6857 283.314 68.6863C286.314 71.6869 288 75.7565 288 80V89.12C290.672 89.288 293.328 89.624 296 89.832V80C296 73.6348 293.471 67.5303 288.971 63.0294C284.47 58.5286 278.365 56 272 56H240C233.635 56 227.53 58.5286 223.029 63.0294C218.529 67.5303 216 73.6348 216 80V89.832C218.672 89.624 221.328 89.288 224 89.12V80Z" fill="#414952"/>
<path d="M336 116C335.14 116.002 334.286 115.861 333.472 115.584C328.615 114.203 323.674 113.134 318.68 112.384C316.587 112.034 314.719 110.867 313.486 109.139C312.254 107.412 311.758 105.265 312.108 103.172C312.458 101.079 313.625 99.2106 315.353 97.9781C317.081 96.7456 319.227 96.2499 321.32 96.6C327.139 97.4655 332.89 98.7434 338.528 100.424C340.32 101.032 341.839 102.255 342.814 103.877C343.789 105.499 344.158 107.414 343.855 109.282C343.552 111.15 342.596 112.85 341.158 114.08C339.72 115.31 337.892 115.99 336 116ZM176 116C174.102 115.999 172.266 115.324 170.82 114.095C169.374 112.865 168.413 111.162 168.107 109.289C167.801 107.416 168.171 105.495 169.151 103.87C170.131 102.244 171.657 101.02 173.456 100.416C174.496 100.064 199.352 92 256 92C270.488 92 284.176 92.536 296.672 93.6C297.722 93.6838 298.745 93.9741 299.682 94.4542C300.62 94.9344 301.453 95.5949 302.135 96.3979C302.816 97.2009 303.333 98.1305 303.654 99.1335C303.975 100.137 304.095 101.193 304.007 102.243C303.92 103.292 303.625 104.314 303.141 105.25C302.658 106.185 301.994 107.016 301.188 107.694C300.382 108.373 299.451 108.885 298.447 109.203C297.442 109.52 296.385 109.636 295.336 109.544C282.252 108.475 269.128 107.96 256 108C202.4 108 178.736 115.52 178.504 115.592C177.697 115.862 176.851 115.999 176 116Z" fill="#CB5FFF"/>
<path d="M378.376 242.649C383.506 237.519 381.875 227.571 374.733 220.429C367.591 213.287 357.643 211.656 352.513 216.786C347.383 221.916 349.014 231.864 356.156 239.006C363.298 246.148 373.246 247.779 378.376 242.649Z" fill="#F6FAFD"/>
<path d="M339.907 244.309C342.484 241.731 341.666 236.734 338.079 233.148C334.493 229.561 329.496 228.743 326.918 231.32C324.341 233.898 325.159 238.895 328.746 242.481C332.332 246.068 337.329 246.886 339.907 244.309Z" fill="#F6FAFD"/>
<path d="M307.975 52.267C310.553 49.6896 309.735 44.6926 306.148 41.1061C302.562 37.5195 297.565 36.7014 294.987 39.2789C292.41 41.8564 293.228 46.8533 296.814 50.4399C300.401 54.0264 305.398 54.8445 307.975 52.267Z" fill="#F6FAFD"/>
<path d="M310.583 349.07C311.873 347.78 311.466 345.28 309.672 343.487C307.879 341.693 305.379 341.286 304.089 342.576C302.799 343.866 303.206 346.366 305 348.159C306.793 349.952 309.293 350.36 310.583 349.07Z" fill="#F6FAFD"/>
</g>
<defs>
<clipPath id="clip0_113_18941">
<rect width="512" height="512" fill="white"/>
</clipPath>
</defs>
</svg>
