<svg width="512" height="512" viewBox="0 0 512 512" fill="none" xmlns="http://www.w3.org/2000/svg">
<g clip-path="url(#clip0_113_19140)">
<g clip-path="url(#clip1_113_19140)">
<path d="M255.492 124.229C255.492 124.229 228.54 161.891 227.745 172.228C226.95 182.565 275.451 199.262 284.993 201.648C294.535 204.033 319.473 210.792 325.49 215.96C331.507 221.127 327.951 221.707 338.663 215.96C349.375 210.212 351.782 210.394 351.782 206.418C351.782 202.443 333.294 195.087 324.648 193.596C316.002 192.104 255.492 124.229 255.492 124.229Z" fill="#F7BE56"/>
<path d="M357.135 55.5647C356.52 60.1894 350.825 57.2511 350.825 57.2511C350.825 57.2511 348.091 58.7323 348.729 62.924C349.344 67.1385 347.453 65.6801 347.453 65.6801C347.453 65.6801 346.837 66.7283 347.248 67.5715C347.681 68.4147 347.681 69.4629 345.197 70.5099C342.714 71.5581 345.151 74.7244 345.151 74.7244C345.994 81.4684 335.036 78.7338 331.026 80.6252C327.04 82.5166 322.894 94.8639 322.894 94.8639C341.803 122.065 338.841 136.236 331.231 164.531C323.599 192.826 314.577 250.123 314.577 250.123C297.81 253.175 285.097 254.018 275.483 253.517C242.859 251.83 245.821 234.562 245.821 234.562C245.821 234.562 251.288 223.604 250.742 208.795C250.195 194.01 251.288 135.37 257.873 113.43C264.456 91.5141 293.754 78.5047 293.754 78.5047C293.754 78.5047 297.558 65.6788 296.282 58.7297C295.029 51.7819 287.238 36.6089 293.754 17.2441C300.292 -2.14339 315.875 6.49073 328.929 6.28564C341.982 6.08055 343.464 14.5096 343.464 14.5096C351.422 21.9841 347.703 26.1657 349.062 36.3152C349.062 36.3152 349.593 39.6941 350.018 41.4159C353.393 55.1102 357.773 50.94 357.135 55.5647Z" fill="#FCD462"/>
<path d="M337.374 3.34366C333.729 0.912933 310.396 -5.40568 292.411 10.1484C274.426 25.7038 288.522 63.3749 294.842 64.1041C301.162 64.8333 310.153 53.8964 310.882 45.8762C311.611 37.8561 314.528 38.0992 323.763 37.37C330.852 36.8104 329.35 46.846 328.269 51.5416C328.204 51.824 328.204 52.1174 328.269 52.3999C328.333 52.6825 328.46 52.9468 328.641 53.1732C328.822 53.3996 329.052 53.5822 329.313 53.7074C329.574 53.8326 329.861 53.8972 330.15 53.8963C331.129 53.8963 331.953 53.1722 332.067 52.1999C332.361 49.678 332.891 44.5381 333.201 38.0979C333.646 28.8624 336.888 27.8902 334.944 23.2718C332.999 18.6534 332.27 16.7101 334.944 13.7932C337.617 10.8764 344.698 15.2112 344.698 15.2112C345.46 9.0951 341.02 5.77311 337.374 3.34366Z" fill="#4D5C7D"/>
<path d="M331.233 164.531C323.6 192.826 314.578 250.123 314.578 250.123L275.484 253.517C242.861 251.831 245.822 234.562 245.822 234.562C245.822 234.562 251.29 223.604 250.743 208.795C250.196 194.01 251.29 135.37 257.874 113.43C264.457 91.5143 293.755 78.5049 293.755 78.5049L322.893 94.8629C341.802 122.065 338.841 136.236 331.233 164.531Z" fill="#27A2DB"/>
<path d="M380.373 439.906L373.106 352.704C372.893 350.143 372.109 347.662 370.813 345.443L325.21 267.337L314.582 250.13L279.157 260.758L288.266 310.354L343.934 366.528C343.934 366.528 336.85 395.374 353.045 432.823C369.239 470.273 369.744 488.849 369.744 488.849H386.951L389.173 469.18C389.174 469.179 381.89 458.124 380.373 439.906Z" fill="#FCD462"/>
<path d="M379.926 434.547H353.77C369.222 470.813 369.746 488.846 369.746 488.846H386.952L389.174 469.179C389.174 469.179 381.89 458.124 380.373 439.906L379.926 434.547Z" fill="#3EA69B"/>
<path d="M239.426 276.693C216.253 316.666 228.998 360.694 228.998 360.694C228.998 360.694 195.398 355.48 174.544 357.219C153.689 358.957 109.081 363.592 109.081 363.592L105.026 385.026L127.619 384.448C159.408 391.564 218.367 391.879 238.669 391.76C240.809 391.747 242.904 391.149 244.73 390.032C246.555 388.916 248.041 387.322 249.027 385.423L288.267 310.353C288.267 310.351 262.598 236.722 239.426 276.693Z" fill="#FCD462"/>
<path d="M167.027 357.875C144.56 359.904 109.081 363.591 109.081 363.591L105.026 385.025L127.619 384.445C138.689 386.924 152.682 388.741 167.029 390.074V357.875H167.027Z" fill="#44C4A1"/>
<path d="M312.224 96.1353C296.594 83.0056 272.429 92.9716 270.2 113.262C270.171 113.531 270.143 113.805 270.117 114.08C267.528 141.589 272.381 150.651 288.241 152.915C304.099 155.18 322.223 156.151 328.694 146.12C334.036 137.841 334.97 115.241 312.224 96.1353Z" fill="#FCD462"/>
<path d="M368.015 198.598C368.015 198.598 373.783 197.962 372.726 194.716C372.165 192.993 369.35 192.931 368.129 193.07C369.496 192.516 370.959 191.445 370.355 189.464C369.302 186.001 365.248 187.79 363.429 187.876C344.333 190.695 327.035 188.857 312.714 179.3L316.776 124.229C316.776 124.229 310.194 139.844 307.326 153.013L281.226 136.788C281.226 136.788 277.337 173.732 278.893 187.343C280.448 200.954 306.115 202.51 327.115 206.787C348.115 211.065 362.114 211.065 364.448 211.065C364.448 211.065 368.826 211.557 370.766 210.675C373.558 209.408 373.61 204.556 366.806 204.939C366.806 204.939 372.743 205.667 373.462 204.32C374.322 202.705 375.312 197.699 368.015 198.598Z" fill="#FCD462"/>
<path d="M247.082 231.547C247.082 231.547 240.178 248.843 236.055 258.413C231.931 267.982 234.556 292.345 234.556 292.345L285.573 315.119H295.274C295.274 315.119 305.77 300.263 321.136 293.471C336.503 286.679 328.258 258.414 328.258 258.414L315.801 242.607C315.803 242.605 272.352 255.83 247.082 231.547Z" fill="#4D5C7D"/>
<path d="M314.596 153.794L316.304 130.634L317.299 153.794H314.596Z" fill="#DC8744"/>
<path d="M424.247 475.543C417.27 479.45 401.812 474.416 394.82 469.105C392.99 467.715 390.411 467.823 388.869 469.527C385.434 473.32 378.404 478.737 365.628 480.023C363.017 480.287 361.252 482.824 361.793 485.391L366.157 506.118C366.157 506.118 368.691 512.053 382.479 510.211C398.147 508.119 402.862 499.001 415.092 495.943C427.321 492.886 445.65 479.282 445.65 471.807C445.649 464.331 432.74 470.787 424.247 475.543Z" fill="#D5D6DB"/>
<path d="M445.643 471.814C445.643 479.286 428.671 494.231 416.436 497.284C404.203 500.337 399.441 509.177 383.812 511.546C368.184 513.937 366.157 506.124 366.157 506.124L365.747 504.209C367.41 506.35 371.761 509.495 382.446 507.877C398.075 505.507 402.837 496.668 415.047 493.615C426.893 490.654 443.183 476.552 444.231 468.874C445.119 469.375 445.643 470.31 445.643 471.814Z" fill="#4D5C7D"/>
<path d="M82.0697 406.345C84.2397 398.649 98.729 391.278 107.43 390.089C109.708 389.778 111.455 387.879 111.341 385.583C111.088 380.474 112.228 371.671 120.352 361.727C122.012 359.695 121.466 356.653 119.269 355.22L101.527 343.65C101.527 343.65 96.3477 339.566 86.978 352.298C77.6096 365.029 80.4923 374.638 74.0066 385.448C67.5209 396.258 64.2925 418.839 69.5781 424.123C74.8637 429.406 79.4276 415.713 82.0697 406.345Z" fill="#D5D6DB"/>
<path d="M69.5769 424.112C64.2926 418.828 65.727 396.259 72.219 385.45C78.7111 374.641 75.8271 365.023 85.2031 352.297C94.5627 339.555 101.522 343.646 101.522 343.646L103.165 344.71C100.475 344.372 95.1754 345.225 88.7631 353.925C79.3871 366.651 82.2711 376.269 75.7955 387.061C69.5123 397.532 67.9665 419.021 72.6545 425.192C71.6721 425.465 70.6403 425.176 69.5769 424.112Z" fill="#4D5C7D"/>
</g>
</g>
<defs>
<clipPath id="clip0_113_19140">
<rect width="512" height="512" fill="white"/>
</clipPath>
<clipPath id="clip1_113_19140">
<rect width="512" height="512" fill="white"/>
</clipPath>
</defs>
</svg>
