<svg width="512" height="512" viewBox="0 0 512 512" fill="none" xmlns="http://www.w3.org/2000/svg">
<g clip-path="url(#clip0_113_19078)">
<path d="M152 216L134.627 198.627C128.626 192.626 125.255 184.487 125.255 176C125.255 167.513 128.626 159.374 134.627 153.373L217.373 70.627C223.374 64.6261 231.513 61.2549 240 61.2549C248.487 61.2549 256.626 64.6261 262.627 70.627L280 88L152 216Z" fill="#F98500"/>
<path d="M328.26 299.1L304 384L264 400L288 304L278.78 301.36L238.15 289.76L211 281.667L224 224L268 242.86L295.73 254.74L310.09 260.9C317.248 263.966 323.042 269.537 326.387 276.57C329.732 283.602 330.398 291.612 328.26 299.1Z" fill="#3B495E"/>
<path d="M295.73 254.74L278.78 301.36L238.15 289.76L268 242.86L295.73 254.74Z" fill="#313B4C"/>
<path d="M296 136L320 112L344 128L369.68 98.04C375.202 91.6015 378.103 83.3234 377.808 74.8466C377.514 66.3698 374.045 58.3131 368.09 52.2735C362.134 46.2339 354.127 42.6522 345.655 42.2385C337.183 41.8248 328.865 44.6093 322.35 50.04L257.93 103.72" fill="#FEC9A3"/>
<path d="M48 16H64V192H48V16Z" fill="#C7C7C5"/>
<path d="M293.93 181.73L224 240L233.72 248.33L260.52 271.3L263.46 273.82C268.217 277.899 271.509 283.422 272.832 289.547C274.156 295.672 273.439 302.061 270.79 307.74L224.1 407.78L182.29 423.24L224 312L207.16 305.26L190.08 298.43C176.194 292.877 164.339 283.209 156.107 270.723C147.876 258.237 143.661 243.531 144.03 228.58C144.06 227.2 144.13 225.82 144.24 224.44C145.786 206.793 153.559 190.271 166.17 177.83L216 128L184 104L97.9099 135.76L87.8099 139.48C87.08 146.146 84.2745 152.414 79.7897 157.399C75.3049 162.384 69.3674 165.834 62.8156 167.263C56.2639 168.691 49.4291 168.025 43.2763 165.359C37.1236 162.692 31.9639 158.161 28.5259 152.403C25.088 146.646 23.5454 139.955 24.1161 133.273C24.6869 126.592 27.3421 120.259 31.7067 115.168C36.0714 110.078 41.9249 106.487 48.4407 104.903C54.9565 103.319 61.8053 103.821 68.0199 106.34L84.0499 98.8002L173.27 56.8202C178.849 54.1912 185.07 53.2315 191.182 54.0565C197.294 54.8815 203.037 57.4561 207.72 61.4702L248 96.0002L296 136C299.045 139.046 301.423 142.692 302.98 146.708C304.538 150.723 305.242 155.019 305.047 159.322C304.852 163.624 303.763 167.839 301.849 171.697C299.935 175.555 297.238 178.972 293.93 181.73Z" fill="#FEC9A3"/>
<path d="M263.46 273.82L260.52 271.3L233.72 248.33L224 240L144.03 228.58C143.665 243.53 147.881 258.234 156.112 270.719C164.343 283.205 176.196 292.874 190.08 298.43L207.16 305.26L224 312L182.29 423.24L224.1 407.78L270.79 307.74C273.438 302.061 274.156 295.672 272.832 289.547C271.509 283.422 268.217 277.899 263.46 273.82Z" fill="#4D5E78"/>
<path d="M56 72C69.2548 72 80 64.8366 80 56C80 47.1634 69.2548 40 56 40C42.7452 40 32 47.1634 32 56C32 64.8366 42.7452 72 56 72Z" fill="#D6D6D4"/>
<path d="M357.728 75.1419L344.939 65.5249L328.194 87.7929L317.091 43.7119L301.576 47.6209L322.818 132.575L338.333 128.667L333.217 107.735L357.728 75.1419Z" fill="#4D5E78"/>
<path d="M293.93 181.73L260 210L240.32 226.4L224 240L204.44 237.21L186.05 234.58L144.03 228.58C144.06 227.2 144.13 225.82 144.24 224.44C145.087 214.191 148.1 204.238 153.08 195.24C156.596 188.846 161.004 182.984 166.17 177.83L176 168L216 128L184 104L97.9098 135.76L84.0498 98.8002L173.27 56.8202C178.849 54.1912 185.069 53.2315 191.182 54.0565C197.294 54.8815 203.037 57.4561 207.72 61.4702L248 96.0002L277.34 120.45L277.42 120.52L289.63 130.69L289.64 130.7L296 136C299.045 139.046 301.422 142.692 302.98 146.708C304.538 150.723 305.242 155.019 305.047 159.322C304.852 163.624 303.763 167.839 301.849 171.697C299.935 175.555 297.238 178.972 293.93 181.73Z" fill="#F35244"/>
<path d="M289.63 130.69L204.44 237.21L186.05 234.58L277.34 120.45L277.42 120.52L289.63 130.69Z" fill="#DE4132"/>
<path d="M184 368H240L216 424L152 448L184 368Z" fill="#3B495E"/>
<path d="M320 336L264 344L248 408L312 384L320 336Z" fill="#313B4C"/>
<path d="M260 210L240.32 226.4L212.52 216.47L153.08 195.24C156.597 188.846 161.004 182.984 166.17 177.83L176 168L226.46 193.23L260 210Z" fill="#4D5E78"/>
<path d="M226.46 193.23L212.52 216.47L153.08 195.24C156.597 188.846 161.004 182.984 166.17 177.83L176 168L226.46 193.23Z" fill="#556A8A"/>
<path d="M248 96L272 72L312 120L296 136L248 96Z" fill="#DE4132"/>
<path d="M134.627 153.373L176 152L168 120L134.627 153.373Z" fill="#FFB531"/>
<path d="M260.52 271.3L207.16 305.26L190.08 298.43C182.536 295.413 175.548 291.162 169.4 285.85L233.72 248.33L260.52 271.3Z" fill="#3B495E"/>
<path d="M408.66 312.129C405.718 311.75 402.729 312.189 400.02 313.398C397.312 314.607 394.989 316.54 393.307 318.983L385.164 330.911C379.207 339.608 370.6 346.148 360.625 349.557L82.9619 444.886C80.9488 445.559 79.0895 446.625 77.4919 448.023C75.8943 449.42 74.5902 451.121 73.6555 453.027C72.7208 454.933 72.174 457.005 72.0468 459.124C71.9197 461.243 72.2148 463.366 72.9149 465.37C74.3866 469.422 77.3949 472.732 81.2888 474.584C85.1827 476.435 89.649 476.678 93.7209 475.261L377.234 377.922C388.437 374.092 398.172 366.875 405.093 357.269L419.716 336.909C421.305 334.676 422.285 332.067 422.557 329.34C422.829 326.613 422.385 323.862 421.269 321.36C420.152 318.857 418.401 316.689 416.19 315.07C413.979 313.451 411.383 312.437 408.66 312.129Z" fill="#C7C7C5"/>
<path d="M475.054 325.472C471.699 324.661 468.178 324.886 464.954 326.118C461.73 327.35 458.956 329.531 456.997 332.372L449.913 342.749C443.957 351.448 435.35 357.99 425.374 361.4L147.711 456.724C145.698 457.397 143.838 458.463 142.24 459.86C140.643 461.258 139.339 462.959 138.404 464.865C137.469 466.771 136.922 468.843 136.795 470.962C136.668 473.081 136.964 475.204 137.664 477.208C139.136 481.26 142.144 484.57 146.038 486.421C149.931 488.272 154.397 488.516 158.469 487.099L443.294 389.31C453.687 385.755 462.835 379.281 469.643 370.662L484.433 351.893C486.16 349.692 487.302 347.09 487.753 344.329C488.205 341.568 487.951 338.738 487.015 336.101C486.079 333.465 484.492 331.108 482.4 329.249C480.309 327.391 477.782 326.092 475.054 325.472Z" fill="#D6D6D4"/>
<path d="M194.675 162.669C187.493 162.695 180.348 161.657 173.47 159.589C171.476 158.906 169.832 157.462 168.896 155.574C167.959 153.685 167.807 151.502 168.471 149.501C169.135 147.5 170.562 145.842 172.441 144.888C174.321 143.933 176.502 143.76 178.509 144.404C178.928 144.538 202.179 151.836 219.37 139.358C233.059 129.422 240 109.451 240 80C240 77.8783 240.843 75.8434 242.343 74.3431C243.844 72.8429 245.878 72 248 72C250.122 72 252.157 72.8429 253.657 74.3431C255.157 75.8434 256 77.8783 256 80C256 114.956 246.792 139.317 228.63 152.407C217.433 160.478 204.939 162.669 194.675 162.669Z" fill="#4D5E78"/>
<path d="M387.42 83.2399C386.248 91.1996 383.707 98.8965 379.91 105.99C379.559 106.6 379.054 107.107 378.444 107.46C377.835 107.813 377.144 107.999 376.44 108C375.596 108 374.774 107.734 374.09 107.24L339.29 81.9999L301.34 54.4699C300.909 54.1529 300.545 53.7539 300.268 53.2956C299.992 52.8374 299.809 52.3291 299.73 51.7999C299.654 51.2708 299.685 50.7319 299.82 50.2149C299.956 49.6979 300.194 49.2134 300.52 48.7899C301.1 48.0399 314.8 30.5799 335.73 28.2499C348.07 26.8799 360.17 31.0399 371.72 40.6099C375.818 43.96 379.303 47.9967 382.02 52.5399C387.21 61.3199 389.06 71.7099 387.42 83.2399Z" fill="#FFB531"/>
<path d="M387.42 83.24C386.247 91.1998 383.707 98.8967 379.91 105.99C379.559 106.6 379.053 107.107 378.444 107.46C377.835 107.813 377.144 107.999 376.44 108C375.596 108 374.774 107.734 374.09 107.24L339.29 82C354.794 74.1478 369.167 64.2383 382.02 52.54C387.21 61.32 389.06 71.71 387.42 83.24Z" fill="#FCAC1F"/>
</g>
<defs>
<clipPath id="clip0_113_19078">
<rect width="512" height="512" fill="white"/>
</clipPath>
</defs>
</svg>
