<svg width="42" height="42" viewBox="0 0 42 42" fill="none" xmlns="http://www.w3.org/2000/svg">
<path d="M15.9684 0H3.26863C1.46328 0 0 1.47359 0 3.29168V16.081C0 17.8991 1.46328 19.3727 3.26863 19.3727H15.9684C17.7738 19.3727 19.237 17.8991 19.237 16.081V3.29168C19.237 1.47359 17.7738 0 15.9684 0ZM14.5266 10.5136C14.3152 10.7265 14.0231 10.8581 13.7005 10.8581H10.7984V13.7796C10.7984 14.4295 10.2756 14.957 9.63026 14.957C8.9849 14.957 8.46106 14.4295 8.46106 13.7796V10.8581H5.56004C4.91469 10.8581 4.39085 10.3316 4.39085 9.68171C4.39085 9.03181 4.91469 8.50427 5.56004 8.50427H8.46106V5.58279C8.46106 4.93289 8.9849 4.40536 9.63026 4.40536C9.95293 4.40536 10.245 4.53698 10.4563 4.74985C10.6677 4.96374 10.7984 5.25784 10.7984 5.58279V8.50427H13.7005C14.3458 8.50427 14.8686 9.03078 14.8686 9.68171C14.8686 10.0067 14.7379 10.3008 14.5266 10.5136Z" fill="white"/>
<path d="M38.7326 0H26.0328C24.2274 0 22.7642 1.47359 22.7642 3.29168V16.081C22.7642 17.8991 24.2274 19.3727 26.0328 19.3727H38.7326C40.5369 19.3727 42.0002 17.8991 42.0002 16.081V3.29168C42.0002 1.47359 40.5369 0 38.7326 0ZM37.2785 10.5188C37.0671 10.7316 36.7751 10.8633 36.4524 10.8633H28.3119C27.6666 10.8633 27.1438 10.3368 27.1438 9.68685C27.1438 9.03695 27.6666 8.50941 28.3119 8.50941H36.4524C37.0977 8.50941 37.6216 9.03695 37.6216 9.68685C37.6216 10.0118 37.4909 10.3059 37.2785 10.5188Z" fill="white"/>
<path d="M15.9684 22.627H3.26863C1.46328 22.627 0 24.1005 0 25.9186V38.7079C0 40.526 1.46328 41.9996 3.26863 41.9996H15.9684C17.7738 41.9996 19.237 40.526 19.237 38.7079V25.9186C19.237 24.1005 17.7738 22.627 15.9684 22.627ZM13.3339 36.1793C13.1062 36.4096 12.807 36.5238 12.5078 36.5238C12.2086 36.5238 11.9094 36.4096 11.6817 36.1793L9.63026 34.1134L7.57881 36.1793C7.12237 36.639 6.38205 36.639 5.9256 36.1793C5.46916 35.7196 5.46916 34.9751 5.9256 34.5155L7.97807 32.4495L5.9256 30.3826C5.46916 29.9229 5.46916 29.1784 5.9256 28.7188C6.38205 28.2591 7.12237 28.2591 7.57881 28.7188L9.63026 30.7847L11.6817 28.7188C12.1381 28.2591 12.8774 28.2591 13.3339 28.7188C13.5616 28.9481 13.676 29.2494 13.676 29.5507C13.676 29.852 13.5616 30.1533 13.3339 30.3826L11.2824 32.4495L13.3339 34.5155C13.7903 34.9751 13.7903 35.7196 13.3339 36.1793Z" fill="white"/>
<path d="M38.7321 22.627H26.0323C24.2269 22.627 22.7637 24.1005 22.7637 25.9186V38.7079C22.7637 40.526 24.2269 41.9996 26.0323 41.9996H38.7321C40.5364 41.9996 41.9997 40.526 41.9997 38.7079V25.9186C41.9997 24.1005 40.5364 22.627 38.7321 22.627ZM32.4205 27.095C33.2323 27.095 33.8909 27.7583 33.8909 28.5758C33.8909 29.3934 33.2323 30.0566 32.4205 30.0566C31.6087 30.0566 30.949 29.3944 30.949 28.5758C30.949 27.7573 31.6077 27.095 32.4205 27.095ZM32.4205 37.7537C31.6077 37.7537 30.949 37.0904 30.949 36.2729C30.949 35.4553 31.6077 34.791 32.4205 34.791C33.2333 34.791 33.8909 35.4543 33.8909 36.2729C33.8909 37.0914 33.2323 37.7537 32.4205 37.7537ZM37.3168 33.2568C37.1044 33.4696 36.8123 33.6013 36.4897 33.6013H28.3503C27.7049 33.6013 27.1811 33.0737 27.1811 32.4238C27.1811 31.7739 27.7049 31.2474 28.3503 31.2474H36.4897C37.135 31.2474 37.6589 31.7739 37.6589 32.4238C37.6589 32.7488 37.5282 33.0429 37.3168 33.2568Z" fill="white"/>
</svg>
