<svg width="512" height="512" viewBox="0 0 512 512" fill="none" xmlns="http://www.w3.org/2000/svg">
<g clip-path="url(#clip0_113_18784)">
<path d="M69.7419 184.649H89.0864V254.992H69.7419C61.0015 254.992 53.915 247.905 53.915 239.165V200.477C53.914 191.737 61.0015 184.649 69.7419 184.649Z" fill="#CF4737"/>
<path d="M238.563 105.514H203.392C183.969 105.514 168.221 121.262 168.221 140.686V298.957H273.735V140.686C273.735 121.262 257.987 105.514 238.563 105.514Z" fill="#3E8CC7"/>
<path d="M264.942 17.5859L195.708 26.3783C194.971 29.2509 194.598 32.205 194.6 35.1706V70.342C194.6 89.7656 210.347 105.513 229.771 105.513C249.195 105.513 264.942 89.7656 264.942 70.342V35.1716C265.302 29.3151 265.302 23.4415 264.942 17.5859Z" fill="#FEC9A3"/>
<path d="M194.6 26.378V61.5494L229.771 26.378H256.149C270.719 26.378 282.527 14.5689 282.527 0H220.978C206.409 0 194.6 11.8091 194.6 26.378ZM273.735 298.956H168.221V386.884L89.0854 422.056L106.671 457.227L190.537 422.285C196.948 419.614 202.425 415.105 206.277 409.326C210.13 403.548 212.185 396.758 212.185 389.813V350.773C212.185 341.585 219.633 334.128 228.83 334.128C231.784 334.128 234.684 334.914 237.234 336.405C239.783 337.896 241.89 340.039 243.338 342.614L317.698 474.814L352.87 457.228L273.735 298.956Z" fill="#75462E"/>
<path d="M84.2228 500.259L53.9141 439.641L89.0855 422.056L120.326 484.537C121.545 486.978 122.179 489.669 122.179 492.398C122.179 495.126 121.545 497.818 120.326 500.259C118.865 503.18 116.62 505.638 113.842 507.355C111.063 509.073 107.862 509.983 104.595 509.984H99.9526C96.6859 509.985 93.4835 509.076 90.7049 507.358C87.9263 505.64 85.6816 503.182 84.2228 500.259ZM388.041 483.605L335.284 509.983L317.698 474.812L370.456 448.434C380.172 443.58 391.98 447.511 396.834 457.226C401.688 466.942 397.749 478.751 388.041 483.605Z" fill="#3E8CC7"/>
<path d="M394.302 160.759C387.091 151.149 373.445 149.197 363.835 156.407C363.008 157.022 362.235 157.699 361.505 158.428L317.7 202.234L273.736 149.477V219.82L277.579 225.579C291.77 246.849 320.514 252.599 341.793 238.408C344.333 236.716 346.698 234.775 348.853 232.614L392.281 189.186C399.929 181.528 400.791 169.421 394.302 160.759Z" fill="#FEC9A3"/>
<path d="M198.565 96.7207H133.05V114.306H198.565C211.279 114.315 221.577 124.63 221.568 137.344C221.566 140.816 220.779 144.243 219.264 147.368L164.001 261.147L141.843 263.785V281.371L166.902 277.757C169.745 277.347 172.445 276.245 174.764 274.55C177.083 272.855 178.952 270.617 180.206 268.032L235.047 155.061C244.842 134.891 236.428 110.596 216.256 100.8C210.743 98.1216 204.695 96.7268 198.565 96.7207Z" fill="#75462E"/>
<path d="M89.0854 263.785C89.0854 278.354 100.895 290.163 115.463 290.163H141.842C156.411 290.163 168.22 278.353 168.22 263.785V254.992H89.0854V263.785Z" fill="#75462E"/>
<path d="M166.727 123.1C164.908 117.954 161.538 113.5 157.081 110.35C152.624 107.2 147.3 105.511 141.843 105.514H115.464C100.895 105.514 89.0864 117.323 89.0864 131.892V254.992H168.222V131.892L166.727 123.1Z" fill="#DE4C3C"/>
<path d="M458.099 508.019L440.971 512.003L353.024 133.897L370.153 129.913L458.099 508.019Z" fill="#75462E"/>
<path d="M128.654 26.3779C106.803 26.3779 89.0854 44.0956 89.0854 65.946C89.0854 87.7964 106.803 105.514 128.654 105.514C150.504 105.514 168.222 87.7964 168.222 65.946C168.222 44.0956 150.504 26.3779 128.654 26.3779ZM128.654 79.135C121.373 79.135 115.464 73.2265 115.464 65.946C115.464 58.6655 121.373 52.757 128.654 52.757C135.934 52.757 141.843 58.6655 141.843 65.946C141.843 73.2265 135.934 79.135 128.654 79.135Z" fill="#3E8CC7"/>
<path d="M228.012 145.723L177.014 176.815L236.805 219.821C246.9 226.573 249.608 240.22 242.855 250.314C242.643 250.631 242.423 250.942 242.195 251.246C235.196 260.558 222.157 262.792 212.457 256.346L138.853 204.161C134.358 201.155 130.674 197.087 128.128 192.317C125.582 187.547 124.252 182.222 124.257 176.815C124.256 171.406 125.592 166.081 128.144 161.312C130.696 156.543 134.387 152.478 138.888 149.478L203.7 109.198C213.398 102.752 226.438 104.986 233.438 114.298C240.692 124.031 238.687 137.801 228.953 145.063C228.645 145.292 228.329 145.512 228.012 145.723Z" fill="#FEC9A3"/>
</g>
<defs>
<clipPath id="clip0_113_18784">
<rect width="512" height="512" fill="white"/>
</clipPath>
</defs>
</svg>
