<svg xmlns="http://www.w3.org/2000/svg" width="58.851" height="60" viewBox="0 0 58.851 60">
  <g id="ic-basketball" transform="translate(-24 -10.358)">
    <circle id="Ellipse_135" data-name="Ellipse 135" cx="17.745" cy="17.745" r="17.745" transform="translate(38.787 15.982)" fill="#f78131"/>
    <path id="Path_4621" data-name="Path 4621" d="M180.682,94.076l25.055,25.055a17.854,17.854,0,0,0,1.394-1.394L182.076,92.682A17.863,17.863,0,0,0,180.682,94.076Z" transform="translate(-137.375 -72.179)" fill="#bc4c00"/>
    <path id="Path_4622" data-name="Path 4622" d="M180.682,117.737a17.865,17.865,0,0,0,1.394,1.394l25.055-25.055a17.856,17.856,0,0,0-1.394-1.394Z" transform="translate(-137.375 -72.179)" fill="#bc4c00"/>
    <path id="Path_4623" data-name="Path 4623" d="M160.961,56.22a17.793,17.793,0,0,0-1.96.216,23.3,23.3,0,0,0,20.437,20.437,17.789,17.789,0,0,0,.216-1.96A21.327,21.327,0,0,1,160.961,56.22ZM144.218,72.962a21.327,21.327,0,0,1,18.693,18.693,17.8,17.8,0,0,0,1.96-.216A23.3,23.3,0,0,0,144.434,71a17.788,17.788,0,0,0-.216,1.96Z" transform="translate(-105.404 -40.211)" fill="#bc4c00"/>
    <path id="Path_4624" data-name="Path 4624" d="M24,24h5.915V81.177H24Z" transform="translate(0 -11.961)" fill="#028c4a"/>
    <path id="Path_4625" data-name="Path 4625" d="M120.305,248H72v5.915h48.305a2.957,2.957,0,1,0,0-5.915Z" transform="translate(-42.085 -208.358)" fill="#8c8c8c"/>
    <path id="Path_4626" data-name="Path 4626" d="M72,305.858h4.929L78.9,296H72Z" transform="translate(-42.085 -250.443)" fill="#575757"/>
    <g id="Group_2654" data-name="Group 2654" transform="translate(43.016 10.358)">
      <path id="Path_4627" data-name="Path 4627" d="M210.843,26.131l4.928-4.928,1.394,1.394-4.928,4.928Zm-2.956-6.9,4.928-4.928,1.394,1.394-4.928,4.928ZM201.972,14.3l3.943-3.943,1.394,1.394L203.366,15.7Zm-23.656.984,4.928-4.928,1.394,1.394L179.71,16.68Zm36.47-2.954,1.971-1.971,1.394,1.394-1.971,1.971Z" transform="translate(-178.316 -10.358)" fill="#dfdfdf"/>
    </g>
    <path id="Path_4628" data-name="Path 4628" d="M185.9,305.858h-6.1l.785-9.858h-1.975l-.789,9.858h-6.109V296h-1.972v9.858h-6.109L162.847,296h-1.975l.785,9.858h-6.1L153.984,296H152l3.956,24.8,1.947-.312-.922-5.759h5.387l.479,5.994,1.965-.157-.467-5.836h5.4v5.915h1.972v-5.915h5.4l-.467,5.836,1.965.157.479-5.994h5.387l-.921,5.759,1.947.312,3.956-24.8h-1.984Zm-29.234,6.9-.789-4.929h5.939l.394,4.929Zm13.079,0h-5.557l-.394-4.929h5.951Zm7.528,0h-5.557V307.83h5.951Zm7.522,0h-5.544l.394-4.929h5.939Z" transform="translate(-112.227 -250.443)" fill="#bebebe"/>
  </g>
</svg>
