<svg xmlns="http://www.w3.org/2000/svg" width="50.753" height="59.999" viewBox="0 0 50.753 59.999">
  <g id="ic-climbing" transform="translate(-39.451 0)">
    <path id="Path_4602" data-name="Path 4602" d="M64.388,286.956a.937.937,0,0,1-.937-.937V266.743a6.527,6.527,0,0,1,1.861-4.578l4.748-4.8a.937.937,0,1,1,1.333,1.318l-4.742,4.8a4.66,4.66,0,0,0-1.325,3.266v19.275a.937.937,0,0,1-.937.938Z" transform="translate(-21.188 -226.957)" fill="#966a5b"/>
    <path id="Path_4603" data-name="Path 4603" d="M153.8,304.435l-7.339-7.339a3.75,3.75,0,0,0-2.652-1.1H135l2.865,4.687h5.625l8.537,6.708,1.775-1.083Z" transform="translate(-84.351 -261.311)" fill="#6f6571"/>
    <path id="Path_4604" data-name="Path 4604" d="M283.415,367.079l1.094-3.281a.607.607,0,0,0-.767-.767l-1.661.554-1.775,2.958,1.652,1.053A.981.981,0,0,0,283.415,367.079Z" transform="translate(-212.629 -320.46)" fill="#966a5b"/>
    <path id="Path_4605" data-name="Path 4605" d="M103.451,283.717a4.687,4.687,0,0,0,1.81,3.7l6.628,5.155,2.727,7.5L117.3,301.6l1.281-1.524-2.613-9.145a4.687,4.687,0,0,0-1.193-2.027l-5.7-5.7-2.338-1.7-3.287,1.7Z" transform="translate(-56.5 -248.511)" fill="#5d5360"/>
    <path id="Path_4606" data-name="Path 4606" d="M198.724,440l.349.961a2.812,2.812,0,0,0,2.643,1.851h2.4a.538.538,0,0,0,.39-.91l-1.812-1.9Z" transform="translate(-140.608 -388.437)" fill="#966a5b"/>
    <path id="Path_4607" data-name="Path 4607" d="M364.732,28.747l-1-.664a.937.937,0,0,1-.369-1.076l5.925-17.774A.937.937,0,0,0,368.4,8h-3.387L355.64,31.435,359.6,47.264l5.86-16.324A1.875,1.875,0,0,0,364.732,28.747Z" transform="translate(-279.136 -7.061)" fill="#eac89f"/>
    <path id="Path_4608" data-name="Path 4608" d="M307.7,44.73l-3.065-12.259a3.75,3.75,0,0,1,.066-2.052L311.878,8h-1.562a1.875,1.875,0,0,0-1.731,1.154L300.52,28.507a7.5,7.5,0,0,0-.475,4.118l2.2,13.2a5.625,5.625,0,0,1-.326,3.014l-6.4,16a.937.937,0,0,0,.87,1.286h4.7a1.875,1.875,0,0,0,1.8-1.36l4.754-16.638A6.564,6.564,0,0,0,307.7,44.73Z" transform="translate(-226 -7.061)" fill="#dcb48c"/>
    <path id="Path_4609" data-name="Path 4609" d="M270.253.241a.94.94,0,0,0-1.325.067L255.576,15.073l.447,2.313,14.3-15.82a.939.939,0,0,0-.067-1.325Z" transform="translate(-190.798 0)" fill="#966a5b"/>
    <ellipse id="Ellipse_134" data-name="Ellipse 134" cx="2.879" cy="2.699" rx="2.879" ry="2.699" transform="translate(47.729 15.116)" fill="#e2a975"/>
    <g id="Group_2650" data-name="Group 2650" transform="translate(39.451 15.073)">
      <path id="Path_4610" data-name="Path 4610" d="M39.451,140.737V147.3a3.75,3.75,0,0,0,3.75,3.75V139.8l2.379-2.637L43.2,136.144A4.689,4.689,0,0,0,39.451,140.737Zm25.327-12.114L58.2,136.05l-1.2,1.816,1.2,1.933h.191a3.75,3.75,0,0,0,2.8-1.259l3.739-4.206A4.126,4.126,0,0,0,64.778,128.623Z" transform="translate(-39.451 -128.623)" fill="#e2a975"/>
    </g>
    <path id="Path_4611" data-name="Path 4611" d="M80.826,140.623l1.875-8.437h3.75v-3.75H72.388a4.707,4.707,0,0,0-.937.094v1.781l4.224,1.582,1.4,8.73ZM78.951,120a3.751,3.751,0,0,0-3.574,2.612.7.7,0,0,0,.848.882l4.993-1.248a.705.705,0,0,0,.332-1.18A3.7,3.7,0,0,0,78.951,120Z" transform="translate(-28.25 -105.936)" fill="#b3e59f"/>
    <path id="Path_4612" data-name="Path 4612" d="M71.451,209.873H75.2v8.437h1.875v-8.437A1.875,1.875,0,0,0,75.2,208h-3.75Z" transform="translate(-28.25 -183.624)" fill="#95d6a4"/>
  </g>
</svg>
