<svg id="ic-calories-cut" xmlns="http://www.w3.org/2000/svg" width="66.103" height="90.623" viewBox="0 0 66.103 90.623">
  <path id="Path_4546" data-name="Path 4546" d="M19.517,36.905c10.942,3.226,17.811,13.5,31.7,10.426,7.132-1.905,11.225-6.735,12.665-13.754,2.537-10.349-3.921-16.933-11.5-22.77C40.254,1.321,15.037.43,14.478,21.089c-.325,5.535,5.053,17.292,11.086,18.716" transform="translate(-3.621 -1.092)" fill="#a7e4d4" opacity="0.6"/>
  <path id="Path_4547" data-name="Path 4547" d="M56.608,115.9c0,1.652-10.794,2.992-24.11,2.992s-24.11-1.34-24.11-2.992,10.794-2.993,24.11-2.993S56.608,114.247,56.608,115.9Z" transform="translate(-2.1 -28.268)" fill="#dedede"/>
  <path id="Path_4548" data-name="Path 4548" d="M38.149,60.28S32.321,70.148,25.1,75.991c-7.037,5.7-17.375,15.1-18.526,20.139-.029.128-.053.253-.07.376-.694,4.934-.833-7.011-.833-7.011a66.822,66.822,0,0,0,5-7.4C12.337,78.977,14,75.472,18.444,73c0,0,6.245-11.426,12.35-15.321" transform="translate(-1.421 -14.442)" fill="#ffb199"/>
  <path id="Path_4549" data-name="Path 4549" d="M34.69,72.578a75.73,75.73,0,0,0,9.36-12.3l-7.355-2.6c-2.63,1.677-5.283,4.751-7.454,7.708A32.536,32.536,0,0,0,34.69,72.578Z" transform="translate(-7.321 -14.442)" fill="#ff8255"/>
  <path id="Path_4550" data-name="Path 4550" d="M5.035,99.628s-.172-1.089-1.027-.881-3.645.564-3.985,1.971,3.161,7.692,5.057,10.224,2.571.9,2.649.467-.859-4.725-.039-6.3l.82-1.572-2.023-1.2-.859.755Z" transform="translate(0 -24.716)" fill="#22689e"/>
  <path id="Path_4551" data-name="Path 4551" d="M5.71,110.791c-1.872-2.5-5.257-8.54-5.247-10.34a1.413,1.413,0,0,0-.438.7c-.34,1.408,3.161,7.692,5.056,10.224,1.5,2.008,2.238,1.4,2.517.841C7.171,112.251,6.559,111.926,5.71,110.791Z" transform="translate(0 -25.149)" fill="#fff"/>
  <path id="Path_4552" data-name="Path 4552" d="M7.277,105.747a4.706,4.706,0,0,1,2.236,1.124" transform="translate(-1.822 -26.475)" fill="none" stroke="#fff" stroke-linecap="round" stroke-linejoin="round" stroke-width="1.681"/>
  <path id="Path_4553" data-name="Path 4553" d="M6.988,108.324a4.706,4.706,0,0,1,2.236,1.124" transform="translate(-1.749 -27.121)" fill="none" stroke="#fff" stroke-linecap="round" stroke-linejoin="round" stroke-width="1.681"/>
  <path id="Path_4554" data-name="Path 4554" d="M7.182,107a4.7,4.7,0,0,1,2.236,1.125" transform="translate(-1.798 -26.789)" fill="none" stroke="#fff" stroke-linecap="round" stroke-linejoin="round" stroke-width="1.681"/>
  <path id="Path_4555" data-name="Path 4555" d="M37.841,49.242s-5.851,6.711-8.113,11.636a14.229,14.229,0,0,0,8.113,7.214s6.384-6.834,7.714-10.884S37.841,49.242,37.841,49.242Z" transform="translate(-7.443 -12.329)" fill="#000c1e"/>
  <path id="Path_4556" data-name="Path 4556" d="M39.849,49.242S33.2,54.431,37.188,60s18.089,7.467,18.089,7.467-3.591.38-6.251,7.34-4.921,9.871-4.921,9.871l3.591.759s4.921-7.72,8.912-11.137,9.044-6.834,5.985-10.124S39.849,49.242,39.849,49.242Z" transform="translate(-8.991 -12.329)" fill="#ffb199"/>
  <path id="Path_4557" data-name="Path 4557" d="M50.609,62.5c1.1-1.568,2.174-3.559,1.919-5.469-6.13-3.91-12.68-7.784-12.68-7.784S33.2,54.431,37.188,60c2,2.789,6.532,4.657,10.562,5.828A25.321,25.321,0,0,0,50.609,62.5Z" transform="translate(-8.991 -12.329)" fill="#ff8255"/>
  <path id="Path_4558" data-name="Path 4558" d="M47.614,92.63s-.9-.688-1.383.017-2.274,2.768-1.52,4.021,7.808,3.607,11.007,4.242,2.526-1,2.278-1.368-4-2.915-4.521-4.6l-.52-1.684-2.339.428L50.524,94.8Z" transform="translate(-11.148 -23.116)" fill="#22689e"/>
  <path id="Path_4559" data-name="Path 4559" d="M55.761,101.26c-3.159-.627-9.952-2.876-11.23-4.2a1.365,1.365,0,0,0,.179.8c.755,1.253,7.808,3.607,11.007,4.243,2.535.5,2.638-.421,2.449-1.007C57.875,101.387,57.195,101.545,55.761,101.26Z" transform="translate(-11.148 -24.299)" fill="#fff"/>
  <path id="Path_4560" data-name="Path 4560" d="M53.2,96.425a4.791,4.791,0,0,1,2.444-.618" transform="translate(-13.319 -23.979)" fill="none" stroke="#fff" stroke-linecap="round" stroke-linejoin="round" stroke-width="1.681"/>
  <path id="Path_4561" data-name="Path 4561" d="M54.828,98.506a4.79,4.79,0,0,1,2.444-.618" transform="translate(-13.727 -24.5)" fill="none" stroke="#fff" stroke-linecap="round" stroke-linejoin="round" stroke-width="1.681"/>
  <path id="Path_4562" data-name="Path 4562" d="M54.027,97.407a4.788,4.788,0,0,1,2.444-.618" transform="translate(-13.526 -24.225)" fill="none" stroke="#fff" stroke-linecap="round" stroke-linejoin="round" stroke-width="1.681"/>
  <path id="Path_4563" data-name="Path 4563" d="M38.374,48.334s-5.631,4.605-4.7,8.021,4.39,7.34,11.039,9.365c0,0,3.92-1.69,7.182-9.175L48.7,54.456l1.927-2.531Z" transform="translate(-8.405 -12.101)" fill="#001433"/>
  <g id="Group_2630" data-name="Group 2630" transform="translate(30.149 36.233)">
    <path id="Path_4564" data-name="Path 4564" d="M43.15,49.015s-4.787,3.8-2.128,7.34,11.2,7.079,11.2,7.079l.887-1.166S41.82,56.988,41.82,54.836s4-6.5,4-6.5" transform="translate(-40.218 -48.334)" fill="none" stroke="#fff" stroke-linecap="round" stroke-linejoin="round" stroke-width="1.681"/>
  </g>
  <path id="Path_4565" data-name="Path 4565" d="M52.594,18.475a38.18,38.18,0,0,0,.6-7.1c-.057-.518-1.122-1.146-1.17-1.72a7.594,7.594,0,0,1,.756-3.6s5.5-1.783,8.9.5l.361,2.952-.361.728A21.152,21.152,0,0,1,63.026,12.8l-.986.581v.644l-.478.279s.537.224.41.46a1.5,1.5,0,0,1-.41.431,1.086,1.086,0,0,1,.268.635,1.074,1.074,0,0,1-.172.664c-.468.669-6.74-.158-6.593-3.528.167-3.855,3.8.737,3.8.737l-.814,5.025s6.554,1.761-1.622,3.8C52.592,23.489,52.594,18.475,52.594,18.475Z" transform="translate(-13.021 -1.351)" fill="#ffb199"/>
  <path id="Path_4566" data-name="Path 4566" d="M56.4,19.241a7.077,7.077,0,0,0,2.618,1.611l.317-1.968c-1.7-.508-3.422-1.569-3.372-3.336A3.268,3.268,0,0,0,56.4,19.241Z" transform="translate(-13.92 -3.892)" fill="#ff8255"/>
  <path id="Path_4567" data-name="Path 4567" d="M52.747,12.754S47.026,5.468,51.4,3.136c0,0,0-2.653,2.346-2.854C55.6.124,60.832,2.9,61.466.6c0,0,.676,1.085,0,1.848s-.357.081-.357.081,1.5-1.409,1.16-2.533c0,0,2.81,2.768-.19,5.179s-7.308.088-7.308.088l1.829-.42L56.234,7.27,55.1,7.889,54.9,9.97l-.649.04s-.127-3.216-1.267-2.854-1.183,2.975.718,3.457Z" transform="translate(-12.456)" fill="#001433"/>
  <path id="Path_4568" data-name="Path 4568" d="M79.58,14.226l-.014.017c.515-5.806-.631-.364-.631-.364-.092-6.381-.857-.028-.857-.028-.367-5.479-.688-.262-1.276,1.787-1.811-4.7-.627,1.56-.627,1.56-.408,1.138-3.092,8.064-3.092,8.064-2.4-.774-8.516-2.209-8.516-2.209-4.1-4.312-11.467-1.1-6.666,3.441,3.1,2.93,16.54,4.968,18.281,4.263S80.259,16.567,80.2,14.345C80.27,10.643,79.713,13.715,79.58,14.226Z" transform="translate(-14.104 -2.763)" fill="#ffb199"/>
  <path id="Path_4569" data-name="Path 4569" d="M68.939,28.447c-.055-.462-.125-.922-.206-1.379-1.43-.352-2.51-.6-2.51-.6a6.512,6.512,0,0,0-3-1.815c-.022,2.361-.092,4.719-.271,7.069A42.023,42.023,0,0,0,68.724,33.3,14.758,14.758,0,0,0,68.939,28.447Z" transform="translate(-15.761 -6.171)" fill="#ff8255"/>
  <path id="Path_4570" data-name="Path 4570" d="M49.761,20.649s-5.719-.773-6.916.816S41.782,34.34,39.387,40.9a19.27,19.27,0,0,0,12.369,5.695S61.2,28.251,59.2,24.387l-3.377-1.636S55.484,26.821,49.761,20.649Z" transform="translate(-9.861 -5.123)" fill="#22689e"/>
  <path id="Path_4571" data-name="Path 4571" d="M47.3,33.974c-1.845-4.209-2.114-8.85-2.152-13.394a3.452,3.452,0,0,0-2.3.914c-1.2,1.589-1.063,12.875-3.458,19.433a19.27,19.27,0,0,0,12.369,5.695s.743-1.444,1.769-3.606A29.272,29.272,0,0,1,47.3,33.974Z" transform="translate(-9.861 -5.153)" fill="#194e72"/>
  <path id="Path_4572" data-name="Path 4572" d="M21.885,35.268l.013-.018c-.163,5.824.652.327.652.327.479,6.365.857-.019.857-.019.7,5.449.7.223,1.166-1.854,2.093,4.588.531-1.592.531-1.592.338-1.158,2.6-8.221,2.6-8.221,2.44.641,8.636,1.738,8.636,1.738,4.355,4.08,9.71-.757,5.954-4.75-2.913-3.1-16.322-3.1-18.017-2.3S21.067,32.967,21.26,35.182C21.415,38.883,21.784,35.786,21.885,35.268Z" transform="translate(-5.319 -4.539)" fill="#ffb199"/>
</svg>
