<svg xmlns="http://www.w3.org/2000/svg" width="64.215" height="60.499" viewBox="0 0 64.215 60.499">
  <g id="ic-hockey" transform="translate(0 -14.816)">
    <path id="Path_4629" data-name="Path 4629" d="M287.152,310.028a3.118,3.118,0,0,1-4.008-1.849l-.965-2.617,1.849-2.547,4.008.386.965,2.617A3.122,3.122,0,0,1,287.152,310.028Z" transform="translate(-246.787 -252.053)" fill="#21386b"/>
    <path id="Path_4630" data-name="Path 4630" d="M259.027,193.056l-5.858,2.16-4.16-11.279,4.039-7.092Z" transform="translate(-217.778 -141.707)" fill="#dd636e"/>
    <g id="Group_2656" data-name="Group 2656" transform="translate(5.608 36.438)">
      <path id="Path_4631" data-name="Path 4631" d="M247.346,221.648l-2.35.867-5.332-14.456,4.229,2.654Z" transform="translate(-215.213 -205.444)" fill="#da4a54"/>
      <path id="Path_4632" data-name="Path 4632" d="M76.359,191.291,71.5,196.153l-1.679-4.681,5.09-4.257Zm-13.69,18.868a3.121,3.121,0,0,1-3.122,3.122H47.837a3.122,3.122,0,0,1,0-6.244h8.589l3.295.5Z" transform="translate(-44.715 -187.215)" fill="#da4a54"/>
    </g>
    <path id="Path_4633" data-name="Path 4633" d="M144.329,242.631v15.994l-6.244-3.122V242.631Z" transform="translate(-120.766 -199.242)" fill="#21386b"/>
    <path id="Path_4634" data-name="Path 4634" d="M155.549,112.971a6.312,6.312,0,0,0-8.926,0l-10.041,10.041,8.926,8.926L155.549,121.9A6.312,6.312,0,0,0,155.549,112.971Z" transform="translate(-119.452 -84.227)" fill="#dd636e"/>
    <path id="Path_4635" data-name="Path 4635" d="M156.4,114.03a6.313,6.313,0,0,0-7.869.852l-10.041,10.041-1.911-1.911,10.041-10.041a6.315,6.315,0,0,1,9.78,1.059Z" transform="translate(-119.451 -84.227)" fill="#da4a54"/>
    <path id="Path_4636" data-name="Path 4636" d="M137.575,219.662l-1.417,3.61-3,.8-9.229-9.228a6.247,6.247,0,0,1,0-8.831Z" transform="translate(-106.788 -167.22)" fill="#26457d"/>
    <path id="Path_4637" data-name="Path 4637" d="M216.507,317.93v4.71a3.122,3.122,0,0,1-6.244,0v-3.418l4.415-4.414.914.914A3.122,3.122,0,0,1,216.507,317.93Z" transform="translate(-183.892 -262.367)" fill="#dd636e"/>
    <path id="Path_4638" data-name="Path 4638" d="M135.1,222.206v1.35l-1.943.521-9.229-9.228a6.246,6.246,0,0,1,0-8.831l1.879,1.879a6.25,6.25,0,0,0,1.3,6.94Z" transform="translate(-106.788 -167.221)" fill="#21386b"/>
    <path id="Path_4639" data-name="Path 4639" d="M210.264,340.134v-3.418l1.906-1.905.038.035v5.335l-.965.8Z" transform="translate(-183.893 -279.861)" fill="#da4a54"/>
    <path id="Path_4640" data-name="Path 4640" d="M225.45,223.905a1.466,1.466,0,0,1-1.04-.431L204.133,203.2a1.471,1.471,0,1,1,2.081-2.081l20.276,20.276a1.471,1.471,0,0,1-1.04,2.512Z" transform="translate(-178.154 -162.559)" fill="#e7a561"/>
    <path id="Path_4641" data-name="Path 4641" d="M226.862,223.255a1.472,1.472,0,0,1-2.454.629l-20.275-20.275a1.471,1.471,0,0,1,.629-2.454,1.47,1.47,0,0,0,.372,1.451l20.277,20.277a1.47,1.47,0,0,0,1.451.372Z" transform="translate(-178.153 -162.968)" fill="#e4936b"/>
    <path id="Path_4642" data-name="Path 4642" d="M378,365.932a2.187,2.187,0,0,1-2.187,2.187h-7.174a2.5,2.5,0,0,1-1.766-.731l-7.821-7.821a.919.919,0,0,1,0-1.3l2.232-2.232a.919.919,0,0,1,1.3,0l7.09,7.09h5.518A2.808,2.808,0,0,1,378,365.932Z" transform="translate(-313.78 -298.187)" fill="#26457d"/>
    <path id="Path_4643" data-name="Path 4643" d="M377.96,379.018a2.186,2.186,0,0,1-2.153,1.806h-7.174a2.5,2.5,0,0,1-1.766-.732l-7.822-7.821a.92.92,0,0,1,0-1.3l.681-.679a.906.906,0,0,0,.261.539l7.821,7.821a2.5,2.5,0,0,0,1.767.732h7.174A2.18,2.18,0,0,0,377.96,379.018Z" transform="translate(-313.779 -310.892)" fill="#21386b"/>
    <path id="Path_4644" data-name="Path 4644" d="M123.977,107.487h-9.039l2.4,2.4-1.431,2.862-2.985,1.552-7.673-7.673a3.184,3.184,0,0,1-.84-3.129,3.121,3.121,0,0,1,3-2.25h16.577Z" transform="translate(-91.202 -75.588)" fill="#dd636e"/>
    <path id="Path_4645" data-name="Path 4645" d="M179.713,176.694a3.119,3.119,0,0,1-4.414,0l-2.159-2.159,4.415-4.414,2.158,2.159A3.119,3.119,0,0,1,179.713,176.694Z" transform="translate(-151.425 -135.827)" fill="#26457d"/>
    <path id="Path_4646" data-name="Path 4646" d="M115.048,114.99l-2.132,1.109-7.673-7.673a3.184,3.184,0,0,1-.84-3.129,3.119,3.119,0,0,1,1.754-1.992,3.051,3.051,0,0,0-.135.372,3.183,3.183,0,0,0,.84,3.129l7.673,7.673h0Z" transform="translate(-91.203 -77.391)" fill="#da4a54"/>
    <path id="Path_4647" data-name="Path 4647" d="M180.37,195.216a3.12,3.12,0,0,1-5.071.965l-2.159-2.159,1.62-1.62,2.159,2.159a3.111,3.111,0,0,0,3.452.654Z" transform="translate(-151.425 -155.314)" fill="#21386b"/>
    <path id="Path_4648" data-name="Path 4648" d="M260.218,32.593v4.685a5.9,5.9,0,1,1-11.8,0V32.593a5.9,5.9,0,1,1,11.8,0Z" transform="translate(-217.261 -10.387)" fill="#ffddce"/>
    <path id="Path_4649" data-name="Path 4649" d="M256.058,42.921a5.906,5.906,0,0,1-7.639-5.64V32.6a5.9,5.9,0,0,1,7.639-5.639A5.9,5.9,0,0,0,251.9,32.6v4.686A5.9,5.9,0,0,0,256.058,42.921Z" transform="translate(-217.262 -10.389)" fill="#ffcbbe"/>
    <path id="Path_4650" data-name="Path 4650" d="M272.462,49.089v1.22H262.418V45.554h8.869a5.878,5.878,0,0,1,1.176,3.535Z" transform="translate(-229.505 -26.883)" fill="#ffcbbe"/>
    <path id="Path_4651" data-name="Path 4651" d="M236,22.209v.832a3.547,3.547,0,0,1-7.094,0v-.832a7.39,7.39,0,0,1,7.39-7.39h.229a7.391,7.391,0,0,1,7.323,6.391.889.889,0,0,1-.887,1Z" transform="translate(-200.196 -0.003)" fill="#26457d"/>
    <path id="Path_4652" data-name="Path 4652" d="M232.59,22.206v.832a3.532,3.532,0,0,0,1.039,2.508,3.6,3.6,0,0,0,.666.525,3.549,3.549,0,0,1-5.389-3.033v-.832a7.39,7.39,0,0,1,7.39-7.39h.23a7.333,7.333,0,0,1,1.727.2,7.39,7.39,0,0,0-5.663,7.186Z" transform="translate(-200.196)" fill="#21386b"/>
    <path id="Path_4653" data-name="Path 4653" d="M220,471.061H204.961V469a1.684,1.684,0,0,1,1.684-1.684h9.611A3.746,3.746,0,0,1,220,471.061Z" transform="translate(-179.255 -395.746)" fill="#f9f6f6"/>
    <path id="Path_4654" data-name="Path 4654" d="M208.929,467.315A1.685,1.685,0,0,0,207.245,469v2.062h-2.284V469a1.685,1.685,0,0,1,1.685-1.685Z" transform="translate(-179.255 -395.746)" fill="#dddaec"/>
    <path id="Path_4655" data-name="Path 4655" d="M213.488,382.45h-.826l-1.095-1.862,1.095-.759v-2.575h-8.724v8.238A3.058,3.058,0,0,0,207,388.55h8.365a2.113,2.113,0,0,0,2.113-2.113A3.986,3.986,0,0,0,213.488,382.45Z" transform="translate(-178.36 -316.981)" fill="#26457d"/>
    <path id="Path_4656" data-name="Path 4656" d="M210.428,388.55h-3.434a3.057,3.057,0,0,1-3.057-3.057v-8.238h3.434v8.238A3.057,3.057,0,0,0,210.428,388.55Z" transform="translate(-178.359 -316.982)" fill="#21386b"/>
    <path id="Path_4657" data-name="Path 4657" d="M235.373,397.781h3.635V400.4h-3.635a1.311,1.311,0,0,1,0-2.621Z" transform="translate(-204.706 -334.933)" fill="#da4a54"/>
    <path id="Path_4658" data-name="Path 4658" d="M0,350.74V335.7H2.062a1.684,1.684,0,0,1,1.684,1.684v9.611A3.746,3.746,0,0,1,0,350.74Z" transform="translate(0 -280.638)" fill="#f9f6f6"/>
    <path id="Path_4659" data-name="Path 4659" d="M3.746,339.667a1.685,1.685,0,0,0-1.685-1.685H0V335.7H2.062a1.685,1.685,0,0,1,1.685,1.685Z" transform="translate(0 -280.638)" fill="#dddaec"/>
    <path id="Path_4660" data-name="Path 4660" d="M35.969,344.226V343.4l1.862-1.095.759,1.095h2.575v-8.724H32.927a3.058,3.058,0,0,0-3.058,3.058V346.1a2.113,2.113,0,0,0,2.113,2.113A3.986,3.986,0,0,0,35.969,344.226Z" transform="translate(-26.123 -279.743)" fill="#26457d"/>
    <path id="Path_4661" data-name="Path 4661" d="M29.875,341.166v-3.434a3.057,3.057,0,0,1,3.057-3.057H41.17v3.434H32.932A3.057,3.057,0,0,0,29.875,341.166Z" transform="translate(-26.128 -279.742)" fill="#21386b"/>
    <path id="Path_4662" data-name="Path 4662" d="M81.123,366.111v3.635H78.5v-3.635a1.311,1.311,0,0,1,2.621,0Z" transform="translate(-68.656 -306.089)" fill="#da4a54"/>
    <circle id="Ellipse_136" data-name="Ellipse 136" cx="3.213" cy="3.213" r="3.213" transform="translate(51.064 68.89)" fill="#f6e266"/>
    <path id="Path_4663" data-name="Path 4663" d="M411.534,452.152a3.213,3.213,0,1,1,0-5.981,3.213,3.213,0,0,0,0,5.981Z" transform="translate(-356.082 -377.06)" fill="#ffd064"/>
    <path id="Path_4664" data-name="Path 4664" d="M176.3,138.084l-3.552-3.552,6.17,2.068-2.051,2.051" transform="translate(-151.082 -104.701)" fill="#da4a54"/>
  </g>
</svg>
