<svg width="512" height="512" viewBox="0 0 512 512" fill="none" xmlns="http://www.w3.org/2000/svg">
<g clip-path="url(#clip0_113_18798)">
<path d="M308.216 496C306.094 496 304.059 495.157 302.559 493.657C301.059 492.156 300.216 490.122 300.216 488V460.026C300.216 457.904 301.059 455.869 302.559 454.369C304.059 452.869 306.094 452.026 308.216 452.026C310.338 452.026 312.373 452.869 313.873 454.369C315.373 455.869 316.216 457.904 316.216 460.026V488C316.216 490.122 315.373 492.156 313.873 493.657C312.373 495.157 310.338 496 308.216 496ZM348.216 496C346.094 496 344.059 495.157 342.559 493.657C341.059 492.156 340.216 490.122 340.216 488V460.719C340.216 458.597 341.059 456.562 342.559 455.062C344.059 453.562 346.094 452.719 348.216 452.719C350.338 452.719 352.373 453.562 353.873 455.062C355.373 456.562 356.216 458.597 356.216 460.719V488C356.216 490.122 355.373 492.156 353.873 493.657C352.373 495.157 350.338 496 348.216 496Z" fill="#5EBEF7"/>
<path d="M364.216 496H293.769C291.647 496 289.612 495.157 288.112 493.657C286.612 492.157 285.769 490.122 285.769 488C285.769 485.878 286.612 483.843 288.112 482.343C289.612 480.843 291.647 480 293.769 480H364.216C368.458 479.995 372.525 478.308 375.524 475.308C378.524 472.309 380.211 468.242 380.216 464C380.216 461.878 381.059 459.843 382.559 458.343C384.059 456.843 386.094 456 388.216 456C390.338 456 392.373 456.843 393.873 458.343C395.373 459.843 396.216 461.878 396.216 464C396.207 472.484 392.832 480.618 386.833 486.617C380.834 492.616 372.7 495.99 364.216 496Z" fill="#A6DEFF"/>
<path d="M89.8361 280.411L120.009 290.468C122.022 291.139 123.686 292.582 124.635 294.48C125.584 296.378 125.74 298.575 125.069 300.588C124.398 302.6 122.954 304.264 121.057 305.213C119.159 306.162 116.962 306.318 114.949 305.647L84.7771 295.589L89.8361 280.411ZM81.8361 307.105L113.528 317.669C114.529 317.998 115.455 318.521 116.253 319.209C117.051 319.897 117.705 320.735 118.178 321.676C118.651 322.617 118.934 323.643 119.01 324.693C119.085 325.744 118.953 326.799 118.62 327.799C118.287 328.798 117.76 329.722 117.069 330.517C116.378 331.312 115.537 331.963 114.593 332.432C113.65 332.901 112.624 333.179 111.573 333.251C110.522 333.322 109.467 333.185 108.469 332.848L76.7771 322.284L81.8361 307.105Z" fill="#5EBEF7"/>
<path d="M95.308 376C94.4476 375.999 93.5929 375.86 92.777 375.587L89.418 374.468C81.9019 371.959 75.631 366.669 71.8923 359.683C68.1536 352.697 67.2307 344.545 69.313 336.9L87.588 269.9C88.1463 267.853 89.4949 266.111 91.3372 265.059C92.2494 264.537 93.2553 264.201 94.2975 264.068C95.3398 263.936 96.3979 264.01 97.4115 264.286C98.4251 264.563 99.3744 265.036 100.205 265.679C101.036 266.323 101.732 267.123 102.253 268.035C102.774 268.948 103.111 269.954 103.243 270.996C103.376 272.038 103.301 273.096 103.025 274.11L84.75 341.114C83.7424 344.813 84.189 348.757 85.998 352.138C87.807 355.518 90.8413 358.077 94.478 359.291L97.836 360.411C99.6376 361.012 101.167 362.234 102.15 363.859C103.133 365.484 103.506 367.406 103.202 369.28C102.898 371.155 101.937 372.861 100.49 374.092C99.0442 375.323 97.2072 375.999 95.308 376Z" fill="#A6DEFF"/>
<path d="M163.8 295.853L217.559 312L276.216 256H345.559L357.74 329.085C360.237 344.067 358.524 359.448 352.792 373.513L332.216 424H300.216L318.886 354.019C320.617 347.528 320.12 340.644 317.474 334.469L297.559 288L251.718 340.389C248.527 344.036 244.593 346.959 240.18 348.961C235.767 350.964 230.977 352 226.131 352H225.068C220.121 352 215.234 350.921 210.748 348.837L148.649 320L163.8 295.853Z" fill="#D5515E"/>
<path d="M281.84 285.69L265.73 301.61C264.366 301.116 262.977 300.692 261.57 300.34L248.65 297.11C249.051 295.986 249.701 294.968 250.55 294.13L270.59 274.31C271.337 273.571 272.223 272.987 273.196 272.591C274.169 272.194 275.21 271.993 276.261 271.999C277.312 272.005 278.351 272.218 279.319 272.626C280.288 273.033 281.166 273.628 281.905 274.375C282.644 275.122 283.228 276.008 283.624 276.981C284.021 277.954 284.222 278.995 284.216 280.046C284.21 281.097 283.997 282.136 283.589 283.104C283.182 284.073 282.587 284.951 281.84 285.69ZM307.99 289.89L298.65 328.38C293.474 325.138 288.942 320.968 285.28 316.08C285.25 316.046 285.223 316.009 285.2 315.97L292.44 286.11C292.688 285.089 293.135 284.127 293.755 283.279C294.375 282.43 295.156 281.712 296.054 281.166C296.951 280.619 297.947 280.255 298.986 280.094C300.024 279.932 301.084 279.977 302.105 280.225C303.126 280.473 304.088 280.92 304.936 281.54C305.785 282.16 306.503 282.941 307.049 283.839C307.596 284.736 307.96 285.733 308.121 286.771C308.283 287.809 308.238 288.869 307.99 289.89ZM341.84 336H325.53L316.37 289.55C316.166 288.519 316.168 287.458 316.374 286.428C316.581 285.398 316.988 284.418 317.573 283.545C318.158 282.672 318.909 281.923 319.784 281.341C320.658 280.758 321.639 280.354 322.67 280.15C323.701 279.947 324.762 279.948 325.792 280.154C326.822 280.361 327.802 280.768 328.675 281.353C329.548 281.938 330.297 282.689 330.879 283.564C331.462 284.439 331.866 285.419 332.07 286.45L341.84 336Z" fill="#5EBEF7"/>
<path d="M215.884 42.3809L227.684 39.0089C243.909 34.3729 261.132 36.4809 276.233 44.0089C281.498 46.634 287.301 48.0002 293.184 47.9999C304.555 47.9199 315.819 45.8045 326.444 41.7539C330.352 40.302 334.535 39.7405 338.687 40.1104C342.84 40.4802 346.857 41.7721 350.447 43.8919C354.037 46.0117 357.108 48.9058 359.438 52.3634C361.767 55.8209 363.295 59.7547 363.911 63.8779L364.211 63.9999L363.932 64.0799C364.116 65.3784 364.209 66.6883 364.211 67.9999V71.9999L308.211 79.9999L300.211 120L287.383 107.172C284.038 103.85 279.912 101.421 275.385 100.106C270.857 98.7915 266.072 98.6336 261.468 99.6469C249.408 102.244 236.871 101.555 225.168 97.6529L215.311 94.3679C210.116 92.688 205.535 89.5061 202.148 85.2241C198.76 80.9421 196.718 75.7521 196.279 70.3099C195.854 64.1134 197.57 57.9589 201.138 52.8753C204.707 47.7917 209.912 44.0871 215.884 42.3809Z" fill="#915628"/>
<path d="M364.216 72L357.609 111.644C357.22 113.979 356.015 116.1 354.209 117.63C352.403 119.16 350.112 120 347.745 120H340.216L332.216 136L300.216 120L308.216 80L364.216 72Z" fill="#FDC9A6"/>
<path d="M188.216 192V209.373C188.216 213.616 186.53 217.686 183.53 220.686L182.03 222.186C179.307 224.909 175.692 226.559 171.85 226.832C168.009 227.105 164.197 225.983 161.116 223.672L152.326 217.079C149.054 214.625 146.846 211.012 146.156 206.981C145.465 202.949 146.345 198.807 148.613 195.404L156.213 183.998L188.216 192Z" fill="#EEB436"/>
<path d="M156.216 184L177.71 151.759C184.595 141.432 194.056 133.08 205.157 127.53C215.062 122.577 225.983 119.999 237.057 120H300.22L332.22 136L350.72 140.624C359.408 142.796 366.975 148.128 371.943 155.58L396.216 192L412.216 176L436.216 198.857L417 218.76C413.172 222.724 408.301 225.524 402.949 226.837C397.598 228.15 391.984 227.922 386.756 226.18C382.455 224.746 378.547 222.331 375.342 219.125L348.216 192L345.597 199.858C342.104 210.336 342.104 221.664 345.597 232.142C347.332 237.347 348.216 242.797 348.216 248.283V256H268.216L262.641 233.7C261.04 227.293 260.697 220.637 261.63 214.1L268.216 168L239.506 163.215C233.54 162.22 227.422 162.665 221.662 164.511C215.902 166.357 210.665 169.551 206.388 173.828L188.216 192L156.216 184Z" fill="#FAA6B2"/>
<path d="M412.216 176V170.361C412.216 166.647 413.25 163.006 415.203 159.846C417.156 156.686 419.95 154.133 423.272 152.472L426.328 150.944C428.677 149.769 431.235 149.069 433.855 148.883C436.475 148.697 439.106 149.028 441.597 149.859C444.089 150.69 446.393 152.003 448.377 153.724C450.361 155.445 451.987 157.54 453.161 159.889L453.888 161.344C455.739 165.045 456.396 169.228 455.769 173.318C455.142 177.408 453.262 181.203 450.388 184.18L436.216 198.857L412.216 176ZM164.216 296L119.307 280L103.307 336L127.307 344L151.307 320L164.216 296ZM300.216 424V464H364.216L362.528 448L331.715 424H300.216Z" fill="#EEB436"/>
<path d="M324.216 264C322.094 264 320.059 263.157 318.559 261.657C317.059 260.157 316.216 258.122 316.216 256V251.313C316.223 248.776 315.726 246.263 314.755 243.918C313.784 241.574 312.358 239.446 310.559 237.657C309.059 236.157 308.216 234.122 308.216 232C308.216 229.878 309.059 227.843 310.559 226.343C312.06 224.842 314.095 223.999 316.217 224C318.339 224 320.374 224.843 321.874 226.343C325.163 229.615 327.77 233.506 329.545 237.792C331.321 242.078 332.228 246.674 332.216 251.313V256C332.216 258.122 331.373 260.157 329.873 261.657C328.372 263.157 326.338 264 324.216 264ZM292.216 264C290.094 264 288.059 263.157 286.559 261.657C285.059 260.157 284.216 258.122 284.216 256V251.313C284.223 248.776 283.726 246.263 282.755 243.918C281.784 241.574 280.358 239.446 278.559 237.657C277.059 236.157 276.216 234.122 276.216 232C276.216 229.878 277.059 227.843 278.559 226.343C280.06 224.842 282.095 223.999 284.217 224C286.339 224 288.374 224.843 289.874 226.343C293.163 229.615 295.77 233.506 297.545 237.792C299.321 242.078 300.228 246.674 300.216 251.313V256C300.216 258.122 299.373 260.157 297.873 261.657C296.372 263.157 294.338 264 292.216 264Z" fill="#EC9DA8"/>
<path d="M332.216 136L309.7 158.519C304.447 163.772 300.761 170.384 299.054 177.613C297.347 184.843 297.688 192.406 300.037 199.453L300.219 200H260.219C260.219 187.696 263.257 175.582 269.062 164.733C274.868 153.885 283.262 144.637 293.5 137.812L308.216 128L332.216 136Z" fill="#933F35"/>
<path d="M332.216 136L326.355 139.908C314.527 147.792 300.631 152 286.416 152H286.334C280.809 152.001 275.379 153.432 270.571 156.155C265.763 158.878 261.743 162.798 258.9 167.536L244.216 192L212.216 176L229.892 146.541C234.056 139.6 239.71 133.671 246.444 129.181C255.424 123.195 265.975 120 276.768 120H300.216L332.216 136Z" fill="#D5515E"/>
<path d="M316.216 80C314.094 80 312.059 79.1571 310.559 77.6569C309.059 76.1566 308.216 74.1217 308.216 72V40C308.216 37.8783 309.059 35.8434 310.559 34.3431C312.059 32.8429 314.094 32 316.216 32C318.338 32 320.373 32.8429 321.873 34.3431C323.373 35.8434 324.216 37.8783 324.216 40V72C324.216 74.1217 323.373 76.1566 321.873 77.6569C320.373 79.1571 318.338 80 316.216 80Z" fill="#D88F9A"/>
<path d="M316.216 98.4482C325.053 98.4482 332.216 91.2848 332.216 82.4482C332.216 73.6117 325.053 66.4482 316.216 66.4482C307.38 66.4482 300.216 73.6117 300.216 82.4482C300.216 91.2848 307.38 98.4482 316.216 98.4482Z" fill="#FAA6B2"/>
<path d="M348.216 256L364.216 336H325.116C317.385 336 309.76 334.2 302.845 330.742C295.93 327.285 289.915 322.265 285.276 316.08C279.415 308.266 271.043 302.707 261.567 300.338L227.949 291.933C227.072 291.714 226.293 291.208 225.737 290.495C225.18 289.782 224.878 288.904 224.878 288C224.878 287.096 225.18 286.218 225.737 285.505C226.293 284.792 227.072 284.286 227.949 284.067C238.594 281.406 248.315 275.902 256.073 268.143L268.216 256H348.216Z" fill="#5EBEF7"/>
<path d="M307.99 289.89L298.65 328.38C293.474 325.138 288.942 320.968 285.28 316.08C285.25 316.046 285.223 316.009 285.2 315.97L292.44 286.11C292.688 285.089 293.135 284.127 293.755 283.279C294.375 282.43 295.156 281.712 296.054 281.166C296.951 280.619 297.947 280.255 298.986 280.094C300.024 279.932 301.084 279.977 302.105 280.225C303.126 280.473 304.088 280.92 304.936 281.54C305.785 282.16 306.503 282.941 307.049 283.839C307.596 284.736 307.96 285.733 308.121 286.771C308.283 287.809 308.238 288.869 307.99 289.89ZM281.84 285.69L265.73 301.61C264.366 301.116 262.977 300.692 261.57 300.34L248.65 297.11C249.051 295.986 249.701 294.968 250.55 294.13L270.59 274.31C271.337 273.571 272.223 272.987 273.196 272.591C274.169 272.194 275.21 271.993 276.261 271.999C277.312 272.005 278.351 272.218 279.319 272.626C280.288 273.033 281.166 273.628 281.905 274.375C282.644 275.122 283.228 276.008 283.624 276.981C284.021 277.954 284.222 278.995 284.216 280.046C284.21 281.097 283.997 282.136 283.589 283.104C283.182 284.073 282.587 284.951 281.84 285.69ZM341.84 336H325.53L316.37 289.55C316.166 288.519 316.168 287.458 316.374 286.428C316.581 285.398 316.988 284.418 317.573 283.545C318.158 282.672 318.909 281.923 319.784 281.341C320.658 280.758 321.639 280.354 322.67 280.15C323.701 279.947 324.762 279.948 325.792 280.154C326.822 280.361 327.802 280.768 328.675 281.353C329.548 281.938 330.297 282.689 330.879 283.564C331.462 284.439 331.866 285.419 332.07 286.45L341.84 336Z" fill="#41B2FF"/>
</g>
<defs>
<clipPath id="clip0_113_18798">
<rect width="512" height="512" fill="white"/>
</clipPath>
</defs>
</svg>
