<svg width="512" height="512" viewBox="0 0 512 512" fill="none" xmlns="http://www.w3.org/2000/svg">
<g clip-path="url(#clip0_113_18833)">
<path d="M378.599 288.74L238.174 73.423L272 96L392 280L378.599 288.74ZM320 352L96 272L86.051 251.456L325.382 336.932L320 352ZM348.24 289.216L286.561 250.666L216.262 59.856L200.542 63.47L267.396 244.932L90.544 204.738L86.051 220.124L276.906 263.5L339.76 302.784L348.24 289.216Z" fill="#E6E6E6"/>
<path d="M480 432V472L447.06 476.49C442.65 473.95 437.4 472 429.33 472C415.23 472 409.73 477.95 402.34 482.59L372.65 486.64C359.25 482.79 355.85 472 336.88 472C313.77 472 313.77 488 290.66 488C276.77 488 271.23 482.22 264 477.61V416C290.481 410.698 317.662 409.856 344.42 413.51L480 432Z" fill="#FCB73F"/>
<path d="M468.7 304V320H428.7V280H412.7L420.7 248H460.7L461.09 250.73L466.41 288L468.7 304Z" fill="#FFC7CC"/>
<path d="M396.702 432L402.582 461.398C403.18 464.388 404.795 467.078 407.153 469.011C409.51 470.944 412.465 472 415.514 472C417.246 472 418.961 471.659 420.561 470.996C422.161 470.333 423.615 469.362 424.839 468.137C426.064 466.913 427.035 465.459 427.698 463.859C428.361 462.259 428.702 460.544 428.702 458.812V416L396.702 432Z" fill="#FFC7CC"/>
<path d="M412.702 376L364.702 416L380.702 440L405.128 433.894C416.968 430.934 427.724 424.674 436.145 415.841C444.567 407.009 450.309 395.967 452.702 384L412.702 376Z" fill="#65DCFF"/>
<path d="M364.702 416L339.378 447.655C337.542 449.95 336.617 452.84 336.78 455.774C336.942 458.708 338.181 461.479 340.259 463.557C341.368 464.666 342.684 465.545 344.133 466.145C345.581 466.745 347.134 467.054 348.702 467.054C350.27 467.054 351.823 466.745 353.271 466.145C354.72 465.545 356.036 464.666 357.145 463.557L380.702 440L364.702 416Z" fill="#FFC7CC"/>
<path d="M459.56 240H396.702C396.702 244.243 398.388 248.313 401.388 251.314C404.389 254.314 408.458 256 412.702 256H440L456 288H466.41L459.56 240Z" fill="#F2E368"/>
<path d="M484.7 339.24C484.702 347.485 481.811 355.468 476.53 361.8L452.46 390.68C450.034 393.598 446.995 395.945 443.559 397.556C440.123 399.167 436.375 400.001 432.58 400H422.59C417.408 400.002 412.344 398.448 408.056 395.538C403.767 392.628 400.452 388.497 398.54 383.68C396.568 378.748 396.17 373.327 397.4 368.16L397.58 367.42C398.036 365.732 398.659 364.094 399.44 362.53L428.67 304.05L428.7 304H449.46C454.194 303.993 458.881 304.942 463.24 306.79V306.8C469.605 309.506 475.034 314.024 478.849 319.792C482.665 325.56 484.7 332.324 484.7 339.24Z" fill="#3EA7FF"/>
<path d="M414.075 310.627L396.702 328L428.702 360L446.075 342.627C448.176 340.526 449.843 338.031 450.98 335.286C452.117 332.541 452.702 329.598 452.702 326.627C452.702 323.656 452.117 320.713 450.98 317.968C449.842 315.223 448.176 312.728 446.075 310.627C443.974 308.526 441.479 306.859 438.734 305.722C435.989 304.585 433.046 304 430.075 304C427.103 304 424.161 304.585 421.416 305.722C418.671 306.859 416.176 308.526 414.075 310.627Z" fill="#3EA7FF"/>
<path d="M428.67 304.05C429.13 304.01 429.6 304 430.07 304H428.7L428.67 304.05ZM449.36 311.03C445.086 307.568 439.974 305.294 434.54 304.44C438.553 305.249 442.271 307.131 445.299 309.886C448.327 312.641 450.551 316.166 451.734 320.085C452.917 324.003 453.015 328.17 452.018 332.14C451.02 336.11 448.965 339.736 446.07 342.63L428.7 360L420.7 352L408.55 361.72C405.301 364.318 401.574 366.255 397.58 367.42L397.4 368.16C396.17 373.327 396.568 378.748 398.54 383.68C405.852 382.121 412.7 378.879 418.54 374.21L419.51 373.44C421.949 375.875 425.254 377.243 428.7 377.243C432.146 377.243 435.451 375.875 437.89 373.44L443.844 367.481C448.435 362.887 452.52 357.815 456.03 352.351C460.203 345.851 461.831 338.04 460.6 330.415C459.369 322.789 455.366 315.886 449.36 311.03Z" fill="#2B7CD4"/>
<path d="M396.702 328C395.681 329.021 394.461 329.82 393.117 330.346C391.772 330.873 390.334 331.116 388.892 331.061C387.449 331.006 386.034 330.653 384.734 330.024C383.434 329.396 382.278 328.506 381.339 327.41L349.151 289.857C348.073 288.599 346.747 287.578 345.255 286.857C343.764 286.136 342.139 285.731 340.484 285.668C338.829 285.604 337.178 285.883 335.636 286.488C334.093 287.092 332.692 288.009 331.521 289.18C329.587 291.115 328.37 293.651 328.071 296.37C327.773 299.09 328.411 301.829 329.88 304.137L361.558 353.917C363.97 357.708 367.154 360.948 370.902 363.427C374.65 365.906 378.877 367.568 383.31 368.305C387.743 369.041 392.281 368.836 396.629 367.702C400.977 366.569 405.037 364.532 408.546 361.725L420.702 352L396.702 328Z" fill="#FFC7CC"/>
<path d="M475.55 496C461.484 496 453.937 490.77 447.873 486.568C446.225 485.427 444.667 484.348 443.056 483.416C440.13 481.73 436.2 480 429.33 480C420.27 480 416.076 482.901 410.766 486.574C409.444 487.488 408.077 488.434 406.594 489.365C401.393 492.643 394.524 496 383.1 496C378.812 496.049 374.54 495.484 370.413 494.32C363.935 492.46 359.416 489.333 355.43 486.574C350.122 482.901 345.93 480 336.88 480C327.824 480 323.632 482.902 318.324 486.577C312.26 490.775 304.714 496 290.66 496C276.61 496 269.066 490.78 263.004 486.584C261.917 485.82 260.815 485.077 259.699 484.356C255.207 481.315 249.861 479.788 244.44 480C235.385 480 231.193 482.902 225.885 486.577C219.821 490.775 212.275 496 198.221 496C184.167 496 176.621 490.775 170.557 486.577C165.249 482.902 161.057 480 152.001 480V464C166.055 464 173.601 469.225 179.665 473.423C184.973 477.098 189.165 480 198.221 480C207.277 480 211.469 477.098 216.777 473.423C222.841 469.225 230.387 464 244.441 464C255.98 464 262.979 467.47 268.302 470.865C269.647 471.722 270.899 472.589 272.11 473.427C277.417 477.1 281.608 480 290.661 480C299.717 480 303.909 477.098 309.217 473.423C315.281 469.225 322.827 464 336.881 464C350.927 464 358.473 469.222 364.536 473.417C367.94 475.772 370.88 477.807 374.86 478.951C377.543 479.691 380.317 480.045 383.1 480C390.025 480 394.095 478.33 398.075 475.821C399.268 475.072 400.432 474.268 401.665 473.415C407.729 469.221 415.275 464 429.33 464C436.945 463.811 444.464 465.735 451.053 469.558C453.243 470.823 455.145 472.142 456.985 473.417C462.293 477.095 466.485 480 475.55 480C478.852 480.068 482.14 479.553 485.263 478.479L490.738 493.512C485.862 495.233 480.72 496.076 475.55 496Z" fill="#65DCFF"/>
<path d="M272 96.0001C255.401 95.9845 238.883 98.3211 222.94 102.94L150.94 30.9401C166.883 26.3211 183.401 23.9845 200 24.0001L272 96.0001Z" fill="#FF6F35"/>
<path d="M222.94 102.94C203.642 108.53 185.45 117.399 169.16 129.16L97.1599 57.1599C113.45 45.3994 131.642 36.5299 150.94 30.9399L222.94 102.94Z" fill="#FCB73F"/>
<path d="M169.16 129.16C153.766 140.261 140.26 153.767 129.16 169.16L57.1599 97.1602C68.2603 81.7667 81.7664 68.2605 97.1599 57.1602L169.16 129.16Z" fill="#FF6F35"/>
<path d="M129.16 169.16C118.657 183.71 110.451 199.788 104.83 216.83L32.83 144.83C38.4509 127.788 46.6566 111.71 57.16 97.1602L129.16 169.16Z" fill="#FCB73F"/>
<path d="M104.83 216.83C98.9617 234.631 95.9806 253.257 96 272L24 200C23.9806 181.257 26.9617 162.631 32.83 144.83L104.83 216.83Z" fill="#FF6F35"/>
</g>
<defs>
<clipPath id="clip0_113_18833">
<rect width="512" height="512" fill="white"/>
</clipPath>
</defs>
</svg>
