<svg width="512" height="512" viewBox="0 0 512 512" fill="none" xmlns="http://www.w3.org/2000/svg">
<g clip-path="url(#clip0_113_18927)">
<path d="M204.833 397.347C177.545 406.943 152.955 422.538 132.564 442.929L128.666 446.827L76.3858 469.119L42.7998 435.533L65.0918 383.254L68.9898 379.356C88.8262 359.506 104.077 335.555 113.672 309.184L158.953 352.967L204.833 397.347Z" fill="#00DD7E"/>
<path d="M204.833 397.347C177.545 406.943 152.955 422.538 132.564 442.929L128.666 446.827L76.3858 469.119L59.5928 452.326L158.953 352.966L204.833 397.347Z" fill="#00CB7E"/>
<path d="M128.665 446.827L76.6869 498.805C67.9919 507.5 56.5959 512 44.8999 512C33.5049 512 21.8089 507.501 13.1129 498.805C-4.28112 481.111 -4.28112 452.623 13.1129 435.231L65.0909 383.253L128.665 446.827Z" fill="#6E77E5"/>
<path d="M75.0359 0.000976562C33.6529 0.000976562 0.0668945 33.587 0.0668945 74.97C0.0668945 116.353 33.6529 149.939 75.0359 149.939C116.419 149.939 150.005 116.353 150.005 74.97C150.005 33.587 116.419 0.000976562 75.0359 0.000976562Z" fill="#BDF052"/>
<path d="M150.005 74.97C150.005 116.353 116.419 149.939 75.0359 149.939V0.000976562C116.419 0.000976562 150.005 33.587 150.005 74.97Z" fill="#92D700"/>
<path d="M96.8778 415.04L128.665 446.827L76.6868 498.805C67.9918 507.5 56.5958 512 44.8998 512C33.5048 512 21.8088 507.501 13.1128 498.805L96.8778 415.04Z" fill="#4C5CE1"/>
<path d="M351.773 355.066C209.332 395.849 204.833 397.348 204.833 397.348C198.237 401.246 162.252 395.849 139.16 372.76C119.369 352.967 110.672 320.58 113.672 309.184C120.869 288.194 104.076 345.169 156.854 160.147C159.254 152.049 167.349 147.553 175.446 149.95C183.243 152.049 188.04 160.447 185.641 168.243L147.258 303.187C146.357 307.085 145.159 310.684 143.659 314.282C145.158 329.276 150.856 341.87 160.452 351.467C170.048 361.064 182.643 366.761 197.637 368.26C201.236 366.761 204.834 365.56 208.732 364.661L343.676 326.276C351.473 323.878 359.868 328.676 361.968 336.473C364.366 344.571 359.569 352.666 351.773 355.066Z" fill="#00CB7E"/>
<path d="M351.773 355.065C209.332 395.848 204.833 397.347 204.833 397.347C198.237 401.245 162.252 395.848 139.16 372.759L160.452 351.467C170.048 361.063 182.643 366.761 197.637 368.26C201.236 366.761 204.834 365.56 208.732 364.661L343.676 326.276C351.473 323.878 359.868 328.676 361.968 336.473C364.366 344.57 359.569 352.665 351.773 355.065Z" fill="#0F9887"/>
<path d="M497.512 198.079L448.08 148.647L495.27 101.454C501.127 95.597 501.127 86.108 495.27 80.252C489.413 74.396 479.924 74.395 474.068 80.252L426.878 127.445L384.471 85.038L431.664 37.848C437.521 31.991 437.521 22.502 431.664 16.646C425.807 10.789 416.318 10.789 410.462 16.646L363.269 63.836L313.838 14.405C307.981 8.54796 298.492 8.54796 292.636 14.405C286.78 20.262 286.779 29.751 292.636 35.607L342.067 85.038L299.662 127.441L236.044 63.823C230.187 57.966 220.698 57.966 214.842 63.823C208.986 69.68 208.985 79.169 214.842 85.025L278.46 148.643L236.04 191.06L186.612 141.632C180.755 135.775 171.266 135.775 165.41 141.632C159.554 147.489 159.553 156.978 165.41 162.834L214.837 212.261L167.651 259.444C161.794 265.301 161.794 274.79 167.651 280.646C170.58 283.575 174.416 285.039 178.252 285.039C182.088 285.039 185.925 283.575 188.853 280.646L236.039 233.463L278.455 275.879L231.272 323.065C225.415 328.922 225.415 338.411 231.272 344.267C234.201 347.196 238.037 348.66 241.873 348.66C245.709 348.66 249.546 347.196 252.474 344.267L299.657 297.081L349.084 346.508C352.013 349.437 355.849 350.901 359.685 350.901C363.521 350.901 367.358 349.437 370.286 346.508C376.143 340.651 376.143 331.162 370.286 325.306L320.858 275.878L363.275 233.458L426.893 297.076C429.822 300.005 433.658 301.469 437.494 301.469C441.33 301.469 445.167 300.005 448.095 297.076C453.952 291.219 453.952 281.73 448.095 275.874L384.477 212.256L426.88 169.851L476.311 219.282C477.702 220.677 479.354 221.783 481.174 222.536C482.993 223.29 484.943 223.677 486.912 223.675C490.747 223.675 494.585 222.211 497.513 219.282C503.369 213.425 503.369 203.937 497.512 198.079ZM299.655 254.678L257.241 212.264L299.661 169.847L342.073 212.259L299.655 254.678ZM363.275 191.055L320.864 148.644L363.269 106.241L405.677 148.649L363.275 191.055Z" fill="#D9D9D9"/>
<path d="M241.871 348.662C245.707 348.662 249.544 347.198 252.472 344.269L299.655 297.083L349.082 346.51C352.011 349.439 355.847 350.903 359.683 350.903C363.519 350.903 367.356 349.439 370.284 346.51C376.141 340.653 376.141 331.164 370.284 325.308L320.856 275.88L363.273 233.46L426.891 297.078C429.82 300.007 433.656 301.471 437.492 301.471C441.328 301.471 445.165 300.007 448.093 297.078C453.95 291.221 453.95 281.732 448.093 275.876L384.475 212.258L426.878 169.853L476.309 219.284C477.7 220.678 479.352 221.784 481.171 222.538C482.991 223.292 484.941 223.679 486.91 223.677C490.745 223.677 494.583 222.213 497.511 219.284C503.368 213.427 503.368 203.938 497.511 198.082L448.079 148.65L495.269 101.457C501.126 95.5996 501.126 86.1106 495.269 80.2546C489.412 74.3976 479.923 74.3976 474.067 80.2546L426.877 127.448L405.674 106.245L405.643 106.214L384.441 127.416L384.472 127.447L405.676 148.651L363.273 191.056L342.068 169.851L342.037 169.82L320.835 191.022L320.866 191.053L342.072 212.259L299.655 254.679L278.448 233.472L278.417 233.441L257.215 254.643L257.246 254.674L278.454 275.882L231.271 323.068C225.414 328.925 225.414 338.414 231.271 344.27C232.662 345.664 234.314 346.77 236.133 347.523C237.952 348.277 239.902 348.664 241.871 348.662Z" fill="#C8C5CD"/>
<path d="M301.481 361.093C259.926 361.093 221.651 346.304 193.64 318.279C154.266 278.92 141.016 219.297 158.206 158.794C168.163 123.755 187.755 90.9119 214.843 63.8229C290.867 -12.1421 405.003 -21.6601 469.299 42.6209C533.593 106.915 524.09 221.068 448.097 297.077C421.008 324.166 388.166 343.757 353.126 353.714C335.686 358.663 318.321 361.093 301.481 361.093ZM361.428 29.8239C318.629 29.8239 272.417 48.6689 236.045 85.0259C212.559 108.512 195.618 136.86 187.051 166.994C172.877 216.88 183.274 265.508 214.842 297.077C246.396 328.646 295.053 339.042 344.925 324.869C375.059 316.304 403.407 299.362 426.893 275.875C491.187 211.566 500.705 116.434 448.095 63.8239C425.238 40.9669 394.329 29.8239 361.428 29.8239Z" fill="#00DD7E"/>
<path d="M426.894 275.875C403.408 299.361 375.06 316.302 344.926 324.869C295.054 339.043 246.398 328.646 214.843 297.077L193.641 318.279C221.651 346.304 259.927 361.093 301.482 361.093C318.321 361.093 335.687 358.662 353.126 353.713C388.165 343.756 421.008 324.164 448.097 297.076C524.091 221.067 533.594 106.916 469.299 42.6196L448.097 63.8216C500.705 116.434 491.188 211.565 426.894 275.875Z" fill="#00CB7E"/>
</g>
<defs>
<clipPath id="clip0_113_18927">
<rect width="512" height="512" fill="white"/>
</clipPath>
</defs>
</svg>
