<svg width="512" height="512" viewBox="0 0 512 512" fill="none" xmlns="http://www.w3.org/2000/svg">
<g clip-path="url(#clip0_113_19286)">
<g clip-path="url(#clip1_113_19286)">
<path d="M197.507 229.598L194.31 231.729C194.31 231.729 177.259 245.583 194.31 282.881C194.31 282.881 198.573 318.048 187.916 346.821C187.916 346.821 180.456 367.07 177.259 372.398C174.062 377.726 161.274 403.302 154.88 427.813C148.486 452.323 149.552 446.995 149.552 446.995C149.552 446.995 145.289 454.455 147.421 460.849L141.027 477.9C141.027 477.9 145.29 483.228 155.946 483.228C155.946 483.228 170.865 481.097 171.931 482.162V473.637C170.865 471.506 172.997 470.44 172.997 470.44C172.997 470.44 174.063 469.374 171.931 464.046C171.931 464.046 177.259 442.733 181.522 435.273C184.719 427.813 202.835 388.384 202.835 388.384C202.835 388.384 219.886 364.939 225.214 348.953C230.542 332.968 240.133 309.523 240.133 309.523L197.507 229.598Z" fill="#344A5E"/>
<path d="M268.906 224.269C268.906 224.269 269.972 235.991 266.775 239.188C266.775 239.188 266.775 241.319 268.906 242.385C271.037 243.451 271.037 249.845 271.037 249.845L283.825 291.406L293.416 336.164C293.416 336.164 304.073 361.74 301.941 373.462L313.663 431.009C313.663 431.009 316.86 456.585 326.451 468.307L331.779 475.767C331.779 475.767 322.188 492.818 304.072 490.686C304.072 490.686 299.809 483.226 300.875 480.029C300.875 480.029 301.941 478.963 299.809 477.898C299.809 477.898 293.415 460.847 291.284 453.388L278.496 422.484C278.496 422.484 273.168 404.368 272.102 390.514C272.102 390.514 269.971 386.25 271.036 385.185C272.102 383.054 268.905 380.922 268.905 380.922C268.905 380.922 267.839 377.725 268.905 376.659C269.971 375.593 266.774 374.528 266.774 374.528C266.774 374.528 249.723 328.704 234.804 309.522C219.885 290.34 207.097 276.486 207.097 276.486C207.097 276.486 178.324 256.238 197.506 225.334L268.906 224.269Z" fill="#425A6B"/>
<path d="M206.032 83.6006C206.032 83.6006 210.295 66.5496 209.229 60.1556C208.163 53.7616 206.032 38.8425 206.032 38.8425L220.951 35.6455L249.724 60.1556V71.8776C249.724 71.8776 241.199 69.7466 239.067 74.0086C236.936 78.2716 233.739 85.7307 233.739 88.9277L206.032 83.6006Z" fill="#F5B54C"/>
<path d="M250.791 13.2664C250.791 13.2664 256.119 17.5294 257.185 31.3824C257.185 31.3824 256.119 35.6455 257.185 36.7105C258.251 38.8415 262.513 46.3015 262.513 46.3015C262.513 46.3015 262.513 49.4985 259.316 49.4985C259.316 49.4985 257.185 49.4985 257.185 51.6295V53.7605C257.185 53.7605 257.185 55.8915 255.054 55.8915C255.054 55.8915 257.185 56.9575 257.185 58.0225C257.185 58.0225 253.988 61.2195 255.054 63.3505C256.12 65.4815 255.054 74.0076 247.594 72.9416C239.068 71.8756 210.295 49.4965 210.295 26.0524C210.295 24.9894 231.608 -6.98067 250.791 13.2664Z" fill="#FFD15C"/>
<path d="M253.988 11.1355C253.988 11.1355 243.331 -2.71853 222.017 0.478483C200.704 3.67549 196.441 17.5295 196.441 17.5295C196.441 17.5295 192.178 30.3176 193.244 37.7776C194.31 45.2376 195.375 42.0406 195.375 42.0406C196.441 40.9746 198.572 42.0406 198.572 44.1716C199.638 45.2376 199.638 47.3686 198.572 48.4346C198.572 49.5006 197.506 51.6316 197.506 52.6976C197.506 55.8946 198.572 59.0917 201.769 60.1577C202.835 61.2237 203.9 61.2237 204.966 62.2887C204.966 62.2887 206.032 63.3547 206.032 64.4197C208.163 64.4197 209.229 64.4197 211.36 63.3537C214.557 61.2227 215.623 56.9596 214.557 53.7626C214.557 52.6966 213.491 51.6316 213.491 49.4996C212.425 46.3026 212.425 42.0396 215.622 38.8426C217.753 36.7116 219.885 36.7116 223.082 36.7116V31.3836H234.804C235.87 30.3176 236.935 30.3176 236.935 30.3176C239.066 30.3176 242.264 28.1866 243.33 26.0546C245.461 24.9886 246.527 22.8575 245.461 20.7265C245.461 19.6605 245.461 17.5295 246.527 15.3985C247.593 14.3325 248.658 14.3325 249.724 14.3325C250.79 14.3325 251.855 16.4635 252.921 15.3985C253.987 15.3985 253.987 14.3325 253.987 13.2675C255.054 13.2665 253.988 12.2015 253.988 11.1355Z" fill="#425A6B"/>
<path d="M240.133 29.2517C238.002 30.3177 234.805 32.4488 233.739 34.5798C232.673 36.7108 231.608 39.9078 232.673 43.1048C231.607 40.9738 231.607 37.7768 232.673 35.6448C230.542 39.9078 230.542 44.1698 232.673 47.3668C230.542 45.2358 231.607 42.0388 229.476 39.9068C227.345 37.7758 225.213 36.7098 222.016 35.6438C220.95 35.6438 218.819 35.6438 217.753 36.7098C216.687 36.7098 216.687 37.7758 215.622 37.7758C214.556 37.7758 213.491 36.7098 213.491 35.6448V32.4478C214.557 28.1847 217.754 24.9877 220.951 22.8567C224.148 21.7907 228.411 20.7257 232.673 21.7907C234.804 22.8567 236.936 23.9217 238.001 24.9877" fill="#425A6B"/>
<path d="M214.557 43.1058C214.557 42.0398 213.491 40.9748 213.491 38.8428C213.491 36.7107 214.557 35.6457 216.688 34.5797C217.754 34.5797 218.819 33.5137 219.885 34.5797C222.016 34.5797 224.148 35.6457 225.213 37.7767C226.279 39.9078 228.41 43.1048 228.41 45.2368C228.41 48.4338 230.541 52.6968 228.41 53.7618C226.279 54.8278 225.213 54.8278 223.082 53.7618C220.951 52.6958 216.688 47.3678 216.688 47.3678C216.689 47.3688 215.623 44.1718 214.557 43.1058ZM325.388 107.046C325.388 107.046 325.388 105.98 324.322 103.849C323.256 102.783 316.861 104.915 316.861 104.915V103.849C318.993 101.718 317.928 98.5209 317.928 98.5209C317.928 97.4549 316.861 97.4549 316.861 97.4549L313.665 101.718C310.467 102.784 310.467 103.849 310.467 103.849L308.336 110.243C308.336 111.309 307.271 112.374 307.271 112.374V127.293C305.139 132.621 289.154 146.475 289.154 146.475C271.038 163.526 259.315 161.394 259.315 161.394L264.643 193.364C264.643 193.364 276.365 184.839 281.694 179.51C287.023 174.181 288.088 175.247 300.876 162.459C312.598 148.605 315.796 144.343 315.796 144.343C315.796 144.343 320.059 137.949 324.321 135.818C327.518 134.752 332.846 127.293 334.978 125.161C336.044 124.095 336.044 124.095 336.044 123.03C336.044 121.965 336.044 120.899 334.978 120.899C334.978 120.899 336.044 114.505 331.781 115.571C331.781 115.571 333.912 112.374 329.65 110.243C328.585 111.309 328.585 107.046 325.388 107.046Z" fill="#FFD15C"/>
<path d="M196.441 78.2726C196.441 77.2066 197.507 76.1416 198.572 76.1416C200.703 75.0756 204.966 74.0106 212.426 76.1416C223.083 79.3386 232.674 87.8637 232.674 87.8637C232.674 87.8637 239.068 94.2577 243.331 95.3237C247.594 96.3897 257.185 118.769 257.185 118.769C257.185 118.769 269.973 128.36 266.776 145.411C266.776 145.411 266.776 160.33 268.907 164.593C271.038 168.856 271.038 188.038 271.038 188.038C271.038 188.038 274.235 205.089 273.169 213.614C272.103 223.205 274.235 229.599 274.235 229.599C274.235 229.599 248.659 232.796 240.134 238.124L238.003 226.402V234.927C238.003 234.927 210.296 235.993 198.573 225.336C198.573 225.336 202.836 212.548 206.033 211.482C206.033 211.482 202.836 206.154 208.164 201.891C208.164 201.891 208.164 181.643 202.836 172.052C197.508 162.461 192.179 133.688 192.179 133.688C192.179 133.688 188.982 123.031 190.048 117.703C191.114 112.375 194.311 99.5867 194.311 97.4547L197.508 91.0607L199.639 85.7327C199.638 85.7327 195.375 81.4696 196.441 78.2726Z" fill="#E8EAE8"/>
<path d="M197.507 39.9087C193.244 45.2367 192.179 51.6307 195.376 58.0247C197.507 62.2878 200.704 66.5498 203.901 69.7468C207.098 74.0098 209.229 78.2718 209.229 83.6008C208.163 87.8638 206.032 91.0608 203.901 94.2578C201.77 97.4549 200.704 101.718 202.835 105.98C200.704 101.717 199.638 96.3889 201.769 91.0608C193.244 105.98 191.112 125.162 195.375 142.213C196.441 145.41 197.506 148.607 197.506 151.804C197.506 155.001 197.506 158.198 195.375 161.395C186.85 157.132 181.521 147.541 181.521 139.016C181.521 141.147 180.455 143.279 180.455 145.41C179.389 144.344 179.389 141.147 179.389 140.082C179.389 137.951 180.455 135.819 180.455 133.688C180.455 130.491 178.324 128.36 177.258 126.228C176.192 123.031 177.258 118.768 177.258 114.506C178.324 110.243 178.324 107.046 176.192 103.849C176.192 108.112 175.126 111.309 174.061 115.571C172.995 119.834 172.995 124.096 174.061 127.293C171.93 124.096 171.93 119.833 171.93 116.636C171.93 114.505 172.996 111.308 172.996 109.176C174.062 102.782 176.193 97.4539 177.259 91.0598C179.39 80.4028 175.128 68.6808 177.259 59.0897C178.325 54.8267 180.456 50.5647 182.587 47.3677C184.718 44.1707 190.047 40.9737 194.309 40.9737" fill="#425A6B"/>
<path d="M223.083 139.016C223.083 139.016 220.952 141.147 219.886 141.147L192.179 132.622C192.179 132.622 192.179 119.834 203.901 118.768C216.689 117.702 226.28 121.965 226.28 121.965C226.28 121.965 228.411 133.688 223.083 139.016Z" fill="#425A6B"/>
<path d="M226.28 129.425L216.689 147.541C216.689 147.541 207.098 174.183 204.967 177.38C202.836 180.577 199.639 192.299 199.639 192.299C199.639 192.299 197.508 217.875 195.376 225.335C192.179 234.926 190.048 245.583 190.048 245.583L188.982 256.24C188.982 256.24 186.851 266.897 188.982 271.159C191.113 275.421 190.048 283.947 190.048 283.947C190.048 283.947 188.982 290.341 188.982 292.472L186.851 296.735C186.851 296.735 185.785 300.998 185.785 302.063C185.785 302.063 182.588 302.063 182.588 298.866C182.588 298.866 181.522 303.129 178.325 302.063C178.325 302.063 176.194 300.997 176.194 298.866C176.194 298.866 175.128 300.997 171.931 300.997C171.931 300.997 169.8 299.931 169.8 296.734C169.8 296.734 168.734 298.865 166.603 297.8C164.472 296.734 165.537 292.472 165.537 292.472V291.406C165.537 291.406 164.471 293.537 162.34 292.472C160.209 291.407 161.274 287.144 161.274 287.144L163.405 278.619C163.405 278.619 166.602 270.094 168.733 266.897C170.864 263.7 172.996 257.306 172.996 257.306C172.996 257.306 174.062 250.912 175.127 239.19C176.193 227.468 181.521 193.366 181.521 193.366C181.521 193.366 183.652 185.906 184.718 182.709L187.915 164.593L194.309 133.689C194.309 133.689 196.44 120.901 203.9 121.967C202.835 121.965 216.689 118.768 226.28 129.425Z" fill="#F5B54C"/>
<path d="M192.178 131.556C192.178 131.556 193.244 121.965 202.835 120.899C212.426 119.833 219.886 123.03 222.017 125.162C224.148 126.228 229.477 133.687 219.886 140.081C219.886 140.081 228.411 139.015 230.543 125.162C232.674 111.308 232.674 100.652 223.083 94.2577C217.755 91.0607 212.426 92.1267 209.229 93.1917C204.966 95.3227 201.769 98.5197 199.638 101.717C195.375 108.112 190.047 119.834 192.178 131.556Z" fill="#F3F3F3"/>
<path d="M304.073 504.541C304.073 504.541 301.942 512.001 308.336 512.001C314.73 512.001 321.124 512.001 322.19 510.935C323.256 510.935 339.241 505.607 347.766 503.475C354.16 501.344 359.488 499.212 364.817 496.015C368.014 493.884 371.212 491.752 373.343 489.621C379.737 482.161 377.606 480.03 375.474 477.899L353.094 486.424L304.073 504.541Z" fill="#56BFEB"/>
<path d="M304.073 489.621C304.073 489.621 312.598 492.818 318.992 489.621C325.386 486.424 328.583 477.899 328.583 474.702C328.583 474.702 347.765 480.03 358.422 477.899C370.145 475.768 373.342 476.833 374.408 477.899C374.408 477.899 375.474 485.359 361.62 491.753C347.765 498.147 326.452 506.672 315.795 507.738C306.204 508.804 303.007 505.607 303.007 505.607C304.073 500.278 303.008 494.95 304.073 489.621Z" fill="#E8EAE8"/>
<path d="M136.764 489.621C136.764 489.621 131.436 494.949 136.764 498.146C142.092 501.343 148.486 503.474 149.552 503.474C150.618 503.474 166.603 506.671 175.128 508.802C181.522 509.868 186.85 510.933 193.244 509.868C196.441 509.868 200.704 508.802 203.901 507.737C212.426 504.54 212.426 501.343 211.361 499.212L187.916 496.015L136.764 489.621Z" fill="#56BFEB"/>
<path d="M143.158 476.833C143.158 476.833 149.552 484.293 155.946 483.227C163.406 483.227 169.8 476.833 171.931 474.702C171.931 474.702 185.785 488.556 197.507 491.753C208.164 494.95 211.361 497.081 212.426 499.213C212.426 499.213 210.295 505.607 194.31 504.541C179.391 503.475 155.946 500.278 146.355 497.081C136.764 492.818 136.764 489.621 136.764 489.621L143.158 476.833Z" fill="#E8EAE8"/>
<path d="M191.113 38.8424L194.31 44.1705C196.441 44.1705 197.507 44.1704 197.507 42.0394L193.244 36.7114C192.178 36.7114 191.113 37.7774 191.113 38.8424Z" fill="#F26F5A"/>
</g>
</g>
<defs>
<clipPath id="clip0_113_19286">
<rect width="512" height="512" fill="white"/>
</clipPath>
<clipPath id="clip1_113_19286">
<rect width="512" height="512" fill="white"/>
</clipPath>
</defs>
</svg>
