<svg width="512" height="512" viewBox="0 0 512 512" fill="none" xmlns="http://www.w3.org/2000/svg">
<g clip-path="url(#clip0_113_19322)">
<path d="M224 176H198.632L171.312 148.688C169.836 147.16 168.07 145.941 166.118 145.102C164.166 144.264 162.067 143.822 159.942 143.804C157.818 143.785 155.711 144.19 153.745 144.995C151.778 145.799 149.992 146.987 148.49 148.49C146.987 149.992 145.799 151.778 144.995 153.745C144.19 155.711 143.785 157.818 143.804 159.942C143.822 162.067 144.264 164.166 145.102 166.118C145.941 168.07 147.16 169.836 148.688 171.312L180.688 203.312C183.688 206.313 187.757 207.999 192 208H224V176Z" fill="#D2AA82"/>
<path d="M480 184H274.568L220.648 145.488C218.921 144.255 216.775 143.759 214.682 144.109C212.589 144.458 210.721 145.625 209.488 147.352C208.255 149.079 207.759 151.225 208.109 153.318C208.458 155.411 209.625 157.279 211.352 158.512L258.232 192L211.352 225.488C210.497 226.099 209.77 226.871 209.214 227.763C208.657 228.654 208.282 229.646 208.109 230.682C207.936 231.718 207.968 232.779 208.205 233.802C208.442 234.826 208.878 235.793 209.488 236.648C210.098 237.503 210.871 238.23 211.762 238.786C212.654 239.343 213.646 239.718 214.682 239.891C215.718 240.065 216.779 240.032 217.802 239.795C218.826 239.559 219.793 239.123 220.648 238.512L274.568 200H480V184ZM270.056 432H64C61.8783 432 59.8434 431.157 58.3431 429.657C56.8429 428.157 56 426.122 56 424C56 421.878 56.8429 419.844 58.3431 418.343C59.8434 416.843 61.8783 416 64 416H270.056C274.328 416 278.352 414.336 281.376 411.312L298.344 394.344C299.844 392.844 301.879 392.001 304 392.001C306.121 392.001 308.156 392.844 309.656 394.344C311.156 395.844 311.999 397.879 311.999 400C311.999 402.122 311.156 404.156 309.656 405.656L292.688 422.624C289.724 425.607 286.197 427.971 282.312 429.581C278.427 431.19 274.261 432.013 270.056 432Z" fill="#C80A50"/>
<path d="M112 336C103.513 336 95.3737 332.629 89.3726 326.627C83.3714 320.626 80 312.487 80 304V224H144V304C144 312.487 140.629 320.626 134.627 326.627C128.626 332.629 120.487 336 112 336Z" fill="#0A5078"/>
<path d="M472 480H40C37.8783 480 35.8434 479.157 34.3431 477.657C32.8429 476.157 32 474.122 32 472V432H480V472C480 474.122 479.157 476.157 477.657 477.657C476.157 479.157 474.122 480 472 480Z" fill="#00A0C8"/>
<path d="M442.616 448C430.312 448 423.888 442.496 418.72 438.08C414.448 434.416 411.616 432 405.224 432C398.84 432 396.024 434.416 391.744 438.072C386.592 442.496 380.168 448 367.864 448C355.568 448 349.152 442.496 343.992 438.072C339.728 434.416 336.912 432 330.536 432C324.16 432 321.352 434.416 317.08 438.072C311.928 442.496 305.504 448 293.216 448C280.92 448 274.504 442.496 269.344 438.072C265.08 434.416 262.256 432 255.888 432C249.512 432 246.696 434.416 242.424 438.072C237.264 442.496 230.84 448 218.552 448C206.264 448 199.84 442.496 194.68 438.072C190.416 434.416 187.592 432 181.216 432C174.848 432 172.032 434.416 167.768 438.072C162.616 442.496 156.192 448 143.904 448C131.616 448 125.2 442.496 120.048 438.072C115.784 434.416 112.968 432 106.608 432C100.24 432 97.424 434.416 93.152 438.072C88 442.496 81.576 448 69.288 448C57.008 448 50.592 442.496 45.44 438.072C41.176 434.416 38.36 432 32 432V416C44.288 416 50.696 421.504 55.856 425.928C60.112 429.584 62.928 432 69.288 432C75.656 432 78.472 429.584 82.744 425.928C87.896 421.504 94.32 416 106.608 416C118.896 416 125.312 421.504 130.464 425.928C134.72 429.584 137.536 432 143.904 432C150.272 432 153.088 429.584 157.36 425.928C162.512 421.504 168.928 416 181.216 416C193.512 416 199.928 421.504 205.088 425.928C209.36 429.584 212.176 432 218.552 432C224.928 432 227.744 429.584 232.016 425.928C237.168 421.504 243.592 416 255.888 416C268.184 416 274.6 421.504 279.76 425.928C284.024 429.584 286.84 432 293.216 432C299.584 432 302.4 429.584 306.672 425.928C311.832 421.504 318.248 416 330.536 416C342.832 416 349.248 421.504 354.408 425.928C358.672 429.584 361.496 432 367.864 432C374.248 432 377.064 429.584 381.344 425.928C386.504 421.504 392.928 416 405.224 416C417.528 416 423.96 421.504 429.12 425.92C433.392 429.584 436.216 432 442.608 432C449 432 451.824 429.584 456.104 425.92C461.272 421.504 467.696 416 480 416V432C473.608 432 470.784 434.416 466.512 438.08C461.344 442.496 454.92 448 442.616 448Z" fill="#0082AA"/>
<path d="M136 144H96V88C96 81.6348 98.5286 75.5303 103.029 71.0294C107.53 66.5286 113.635 64 120 64H136C142.365 64 148.47 66.5286 152.971 71.0294C157.471 75.5303 160 81.6348 160 88V120C160 126.365 157.471 132.47 152.971 136.971C148.47 141.471 142.365 144 136 144Z" fill="#F0C8A0"/>
<path d="M136 64H120C113.635 64 107.53 66.5286 103.029 71.0294C98.5286 75.5303 96 81.6348 96 88V128C96 132.4 99.6 136 104 136H112C116.4 136 120 132.4 120 128V112C117.878 112 115.843 111.157 114.343 109.657C112.843 108.157 112 106.122 112 104C112 101.878 112.843 99.8434 114.343 98.3431C115.843 96.8429 117.878 96 120 96H160V88C160 81.6348 157.471 75.5303 152.971 71.0294C148.47 66.5286 142.365 64 136 64Z" fill="#0A5078"/>
<path d="M248 400H200V345.944L175.032 320.968L208.968 287.032L240.968 319.032C245.472 323.528 248 329.64 248 336V400Z" fill="#F0C8A0"/>
<path d="M208.976 275.712L166.632 233.368C160.63 227.367 152.491 223.995 144.004 223.995C135.517 223.995 127.377 227.367 121.376 233.368C115.374 239.369 112.003 247.509 112.003 255.996C112.003 264.483 115.374 272.623 121.376 278.624L163.72 320.968C164.462 321.711 165.344 322.301 166.314 322.704C167.285 323.106 168.325 323.314 169.376 323.314C170.426 323.314 171.467 323.106 172.437 322.704C173.408 322.301 174.289 321.711 175.032 320.968L208.976 287.024C210.476 285.524 211.318 283.489 211.318 281.368C211.318 279.247 210.476 277.212 208.976 275.712ZM248 416H200V400C200 395.756 201.685 391.687 204.686 388.686C207.687 385.686 211.756 384 216 384H232C236.243 384 240.313 385.686 243.313 388.686C246.314 391.687 248 395.756 248 400V416Z" fill="#0A5078"/>
<path d="M174.976 320.96L208.904 287.032L216.904 295.032L182.976 328.952L174.976 320.96Z" fill="#D2AA82"/>
<path d="M232 210.736L216 222.168V232C216 233.404 216.37 234.784 217.072 236C217.774 237.216 218.784 238.226 220 238.928C220.224 238.801 220.44 238.662 220.648 238.512L232 230.4V210.736ZM220 145.072C218.784 145.774 217.774 146.784 217.072 148C216.37 149.216 216 150.596 216 152V161.832L232 173.264V153.6L220.648 145.488C220.44 145.337 220.224 145.198 220 145.072Z" fill="#A00028"/>
<path d="M216 240C218.122 240 220.157 239.157 221.657 237.657C223.157 236.157 224 234.122 224 232V152C224 149.878 223.157 147.843 221.657 146.343C220.157 144.843 218.122 144 216 144C213.878 144 211.843 144.843 210.343 146.343C208.843 147.843 208 149.878 208 152V232C208 234.122 208.843 236.157 210.343 237.657C211.843 239.157 213.878 240 216 240Z" fill="#0A5078"/>
<path d="M136 64H120C113.635 64 107.53 66.5286 103.029 71.0294C98.5286 75.5303 96 81.6348 96 88V96H160V88C160 81.6348 157.471 75.5303 152.971 71.0294C148.47 66.5286 142.365 64 136 64Z" fill="#00A0C8"/>
<path d="M128 96H136V144H128V96Z" fill="#0A5078"/>
<path d="M176 248V242.744L166.632 233.376C163.663 230.399 160.136 228.038 156.252 226.429C152.368 224.82 148.204 223.995 144 224H80V264H160C164.243 264 168.313 262.314 171.314 259.314C174.314 256.313 176 252.243 176 248Z" fill="#00325A"/>
<path d="M160 256H80V160C80 155.757 81.6857 151.687 84.6863 148.686C87.6869 145.686 91.7565 144 96 144H160C164.243 144 168.313 145.686 171.314 148.686C174.314 151.687 176 155.757 176 160V240C176 244.243 174.314 248.313 171.314 251.314C168.313 254.314 164.243 256 160 256Z" fill="#FAB400"/>
<path d="M112 280C105.635 280 99.5303 282.529 95.0294 287.029C90.5286 291.53 88 297.635 88 304V400H136V304C136 297.635 133.471 291.53 128.971 287.029C124.47 282.529 118.365 280 112 280Z" fill="#F0C8A0"/>
<path d="M136 416H88V400C88 395.757 89.6857 391.687 92.6863 388.686C95.6869 385.686 99.7565 384 104 384H120C124.243 384 128.313 385.686 131.314 388.686C134.314 391.687 136 395.757 136 400V416Z" fill="#0A5078"/>
<path d="M136 144H152V256H136V144Z" fill="#DC9600"/>
<path d="M116.688 211.312C119.688 214.313 123.757 215.999 128 216H176V184H134.632L107.312 156.688C105.836 155.16 104.07 153.941 102.118 153.102C100.166 152.264 98.0667 151.822 95.9423 151.804C93.8178 151.785 91.7109 152.19 89.7446 152.995C87.7782 153.799 85.9918 154.987 84.4895 156.49C82.9872 157.992 81.7992 159.778 80.9947 161.745C80.1902 163.711 79.7854 165.818 79.8038 167.942C79.8223 170.067 80.2637 172.166 81.1022 174.118C81.9408 176.07 83.1597 177.836 84.6878 179.312L116.688 211.312Z" fill="#DC9600"/>
<path d="M208 208H128C123.757 207.999 119.688 206.313 116.688 203.312L84.6878 171.312C83.1597 169.836 81.9408 168.07 81.1022 166.118C80.2637 164.166 79.8223 162.067 79.8038 159.942C79.7854 157.818 80.1902 155.711 80.9947 153.745C81.7992 151.778 82.9872 149.992 84.4895 148.49C85.9918 146.987 87.7782 145.799 89.7446 144.995C91.7109 144.19 93.8178 143.785 95.9423 143.804C98.0667 143.822 100.166 144.264 102.118 145.102C104.07 145.941 105.836 147.16 107.312 148.688L134.632 176H208C212.243 176 216.313 177.686 219.314 180.686C222.314 183.687 224 187.756 224 192C224 196.243 222.314 200.313 219.314 203.314C216.313 206.314 212.243 208 208 208Z" fill="#F0C8A0"/>
</g>
<defs>
<clipPath id="clip0_113_19322">
<rect width="512" height="512" fill="white"/>
</clipPath>
</defs>
</svg>
