<svg width="512" height="512" viewBox="0 0 512 512" fill="none" xmlns="http://www.w3.org/2000/svg">
<g clip-path="url(#clip0_113_19388)">
<path d="M200 328H312V336H200V328Z" fill="#00325A"/>
<path d="M176 336H336V392H176V336Z" fill="#0A5078"/>
<path d="M200 336V344C200 350.365 202.529 356.47 207.029 360.971C211.53 365.471 217.635 368 224 368H288C294.365 368 300.47 365.471 304.971 360.971C309.471 356.47 312 350.365 312 344V336H200Z" fill="#00325A"/>
<path d="M320 256V184H360V216C360 226.609 355.786 236.783 348.284 244.284C340.783 251.786 330.609 256 320 256ZM192 256V184H152V216C152 226.609 156.214 236.783 163.716 244.284C171.217 251.786 181.391 256 192 256Z" fill="#A00028"/>
<path d="M152 88H192V184H152V88ZM320 88H360V184H320V88ZM272 200H240C235.757 200 231.687 198.314 228.686 195.314C225.686 192.313 224 188.243 224 184V136C224 131.757 225.686 127.687 228.686 124.686C231.687 121.686 235.757 120 240 120H272C276.243 120 280.313 121.686 283.314 124.686C286.314 127.687 288 131.757 288 136V184C288 188.243 286.314 192.313 283.314 195.314C280.313 198.314 276.243 200 272 200Z" fill="#F0C8A0"/>
<path d="M240 200H272V216H240V200Z" fill="#D2AA82"/>
<path d="M240 120C235.757 120 231.687 121.686 228.686 124.686C225.686 127.687 224 131.757 224 136V160C226.122 160 228.157 159.157 229.657 157.657C231.157 156.157 232 154.122 232 152C232 149.878 232.843 147.843 234.343 146.343C235.843 144.843 237.878 144 240 144H272C274.122 144 276.157 144.843 277.657 146.343C279.157 147.843 280 149.878 280 152C280 154.122 280.843 156.157 282.343 157.657C283.843 159.157 285.878 160 288 160V136C288 131.757 286.314 127.687 283.314 124.686C280.313 121.686 276.243 120 272 120H240Z" fill="#0A5078"/>
<path d="M224 152C221.878 152 219.843 152.843 218.343 154.343C216.843 155.843 216 157.878 216 160C216 162.122 216.843 164.157 218.343 165.657C219.843 167.157 221.878 168 224 168V152ZM288 152C290.122 152 292.157 152.843 293.657 154.343C295.157 155.843 296 157.878 296 160C296 162.122 295.157 164.157 293.657 165.657C292.157 167.157 290.122 168 288 168V152Z" fill="#D2AA82"/>
<path d="M320 216H192V284.688C192 291.936 194.88 298.88 200 304V336C200 342.365 202.529 348.47 207.029 352.971C211.53 357.471 217.635 360 224 360H288C294.365 360 300.47 357.471 304.971 352.971C309.471 348.47 312 342.365 312 336V304C317.12 298.88 320 291.928 320 284.688V216Z" fill="#C80A50"/>
<path d="M144 88H368V104H144V88Z" fill="#00A0C8"/>
<path d="M184 120H160C157.878 120 155.843 119.157 154.343 117.657C152.843 116.157 152 114.122 152 112V96C152 93.8783 152.843 91.8434 154.343 90.3431C155.843 88.8429 157.878 88 160 88H184C186.122 88 188.157 88.8429 189.657 90.3431C191.157 91.8434 192 93.8783 192 96V112C192 114.122 191.157 116.157 189.657 117.657C188.157 119.157 186.122 120 184 120ZM352 120H328C325.878 120 323.843 119.157 322.343 117.657C320.843 116.157 320 114.122 320 112V96C320 93.8783 320.843 91.8434 322.343 90.3431C323.843 88.8429 325.878 88 328 88H352C354.122 88 356.157 88.8429 357.657 90.3431C359.157 91.8434 360 93.8783 360 96V112C360 114.122 359.157 116.157 357.657 117.657C356.157 119.157 354.122 120 352 120Z" fill="#D2AA82"/>
<path d="M184 112H160C157.878 112 155.843 111.157 154.343 109.657C152.843 108.157 152 106.122 152 104V88C152 85.8783 152.843 83.8434 154.343 82.3431C155.843 80.8429 157.878 80 160 80H184C186.122 80 188.157 80.8429 189.657 82.3431C191.157 83.8434 192 85.8783 192 88V104C192 106.122 191.157 108.157 189.657 109.657C188.157 111.157 186.122 112 184 112ZM352 112H328C325.878 112 323.843 111.157 322.343 109.657C320.843 108.157 320 106.122 320 104V88C320 85.8783 320.843 83.8434 322.343 82.3431C323.843 80.8429 325.878 80 328 80H352C354.122 80 356.157 80.8429 357.657 82.3431C359.157 83.8434 360 85.8783 360 88V104C360 106.122 359.157 108.157 357.657 109.657C356.157 111.157 354.122 112 352 112Z" fill="#F0C8A0"/>
<path d="M408 160H376C373.878 160 371.843 159.157 370.343 157.657C368.843 156.157 368 154.122 368 152V40C368 37.8783 368.843 35.8434 370.343 34.3431C371.843 32.8429 373.878 32 376 32H408C410.122 32 412.157 32.8429 413.657 34.3431C415.157 35.8434 416 37.8783 416 40V152C416 154.122 415.157 156.157 413.657 157.657C412.157 159.157 410.122 160 408 160ZM424 112H416V80H424C426.122 80 428.157 80.8429 429.657 82.3431C431.157 83.8434 432 85.8783 432 88V104C432 106.122 431.157 108.157 429.657 109.657C428.157 111.157 426.122 112 424 112ZM96 112H88C85.8783 112 83.8434 111.157 82.3431 109.657C80.8429 108.157 80 106.122 80 104V88C80 85.8783 80.8429 83.8434 82.3431 82.3431C83.8434 80.8429 85.8783 80 88 80H96V112ZM136 160H104C101.878 160 99.8434 159.157 98.3431 157.657C96.8429 156.157 96 154.122 96 152V40C96 37.8783 96.8429 35.8434 98.3431 34.3431C99.8434 32.8429 101.878 32 104 32H136C138.122 32 140.157 32.8429 141.657 34.3431C143.157 35.8434 144 37.8783 144 40V152C144 154.122 143.157 156.157 141.657 157.657C140.157 159.157 138.122 160 136 160Z" fill="#0A5078"/>
<path d="M88 80H96V112H88V80ZM416 80H424V112H416V80Z" fill="#00325A"/>
<path d="M336 336C329.635 336 323.53 338.529 319.029 343.029C314.529 347.53 312 353.635 312 360V448H360V360C360 353.635 357.471 347.53 352.971 343.029C348.47 338.529 342.365 336 336 336Z" fill="#F0C8A0"/>
<path d="M112 296C110.732 295.999 109.483 295.698 108.354 295.119C107.226 294.541 106.251 293.703 105.511 292.674C104.77 291.645 104.284 290.454 104.094 289.201C103.904 287.947 104.014 286.667 104.416 285.464L116.904 248H96C94.7324 248 93.4828 247.699 92.3543 247.122C91.2258 246.545 90.2507 245.707 89.5092 244.679C88.7678 243.651 88.2813 242.461 88.0898 241.208C87.8984 239.955 88.0074 238.675 88.408 237.472L104.408 189.472C105.08 187.46 106.523 185.796 108.421 184.848C109.361 184.379 110.384 184.099 111.431 184.025C112.479 183.951 113.532 184.084 114.528 184.416C115.524 184.749 116.446 185.274 117.239 185.963C118.032 186.651 118.682 187.489 119.152 188.429C119.621 189.369 119.901 190.392 119.975 191.44C120.049 192.487 119.916 193.54 119.584 194.536L107.096 232H128C129.268 232 130.517 232.301 131.646 232.878C132.774 233.455 133.749 234.293 134.491 235.321C135.232 236.349 135.719 237.539 135.91 238.792C136.102 240.045 135.993 241.325 135.592 242.528L119.592 290.528C118.472 293.88 115.352 296 112 296ZM400 296C396.648 296 393.528 293.88 392.408 290.528L376.408 242.528C376.006 241.325 375.895 240.044 376.086 238.79C376.276 237.537 376.763 236.346 377.505 235.317C378.246 234.289 379.222 233.451 380.352 232.875C381.481 232.298 382.732 231.998 384 232H404.904L392.408 194.528C392.059 193.528 391.913 192.468 391.977 191.41C392.041 190.353 392.315 189.318 392.782 188.368C393.25 187.417 393.901 186.568 394.699 185.871C395.497 185.174 396.425 184.642 397.43 184.307C398.435 183.971 399.497 183.839 400.553 183.917C401.61 183.996 402.641 184.283 403.585 184.763C404.53 185.243 405.37 185.905 406.056 186.712C406.743 187.519 407.262 188.455 407.584 189.464L423.584 237.464C423.988 238.667 424.099 239.948 423.91 241.202C423.72 242.456 423.235 243.648 422.494 244.677C421.753 245.707 420.777 246.545 419.648 247.123C418.519 247.701 417.268 248.001 416 248H395.096L407.592 285.472C407.993 286.675 408.102 287.955 407.91 289.208C407.719 290.461 407.232 291.651 406.491 292.679C405.749 293.707 404.774 294.545 403.646 295.122C402.517 295.699 401.268 296 400 296Z" fill="#FAB400"/>
<path d="M368 480H320C317.878 480 315.843 479.157 314.343 477.657C312.843 476.157 312 474.122 312 472V448H360C364.243 448 368.313 449.686 371.314 452.686C374.314 455.687 376 459.757 376 464V472C376 474.122 375.157 476.157 373.657 477.657C372.157 479.157 370.122 480 368 480Z" fill="#C80A50"/>
<path d="M312 432H360V448H312V432Z" fill="#FAB400"/>
<path d="M176 336C182.365 336 188.47 338.529 192.971 343.029C197.471 347.53 200 353.635 200 360V448H152V360C152 353.635 154.529 347.53 159.029 343.029C163.53 338.529 169.635 336 176 336Z" fill="#F0C8A0"/>
<path d="M144 480H192C194.122 480 196.157 479.157 197.657 477.657C199.157 476.157 200 474.122 200 472V448H152C147.757 448 143.687 449.686 140.686 452.686C137.686 455.687 136 459.757 136 464V472C136 474.122 136.843 476.157 138.343 477.657C139.843 479.157 141.878 480 144 480Z" fill="#C80A50"/>
<path d="M200 448H152V432H200V448Z" fill="#FAB400"/>
<path d="M192 88H200V104H192V88ZM312 88H320V104H312V88Z" fill="#0082AA"/>
</g>
<defs>
<clipPath id="clip0_113_19388">
<rect width="512" height="512" fill="white"/>
</clipPath>
</defs>
</svg>
