<svg width="29" height="34" viewBox="0 0 29 34" fill="none" xmlns="http://www.w3.org/2000/svg">
<path d="M28.6846 29.6766L24.2329 20.6523H17.4283C17.0156 21.8862 15.8594 22.7773 14.5001 22.7773C13.1409 22.7773 11.9847 21.8862 11.572 20.6523H4.76747L0.31635 29.6753C-0.66839 31.6644 0.765651 34 2.96291 34H26.0374C28.2418 34 29.6652 31.6575 28.6846 29.6766ZM10.2918 29.6836C8.58775 29.6836 7.20138 28.2835 7.20138 26.5625C7.20138 24.8415 8.58775 23.4414 10.2918 23.4414C11.9959 23.4414 13.3823 24.8415 13.3823 26.5625C13.3823 28.2835 11.9959 29.6836 10.2918 29.6836ZM17.586 28.7858C17.528 29.35 17.0305 29.7332 16.507 29.6789C15.9452 29.6201 15.5688 29.115 15.6232 28.5899C15.6673 28.0388 16.1919 27.5957 16.7969 27.7107C17.277 27.8117 17.63 28.2414 17.586 28.7858ZM18.6381 24.5358C18.5846 25.0563 18.1399 25.4768 17.5597 25.4289C16.9993 25.3714 16.6207 24.8656 16.6746 24.3399C16.7321 23.7691 17.2549 23.3478 17.849 23.4607C18.372 23.5708 18.6873 24.0512 18.6381 24.5358ZM21.7943 26.6608C21.7362 27.2261 21.2379 27.6081 20.7153 27.5539C20.154 27.4951 19.7769 26.9897 19.8309 26.4649C19.8882 25.8952 20.4096 25.4724 21.0052 25.5857C21.5303 25.6962 21.8432 26.1787 21.7943 26.6608Z" fill="black"/>
<path d="M8.12185 1.99219H9.30544V11.4531L5.75015 18.6602H11.5719C11.9846 17.4263 13.1408 16.5352 14.5 16.5352C15.8593 16.5352 17.0155 17.4263 17.4282 18.6602H23.2499L19.6946 11.4531V1.99219H20.8782C21.4229 1.99219 21.8645 1.5462 21.8645 0.996094C21.8645 0.445984 21.4229 0 20.8782 0C17.8504 0 10.7736 0 8.12179 0C7.57708 0 7.13547 0.445984 7.13547 0.996094C7.13547 1.5462 7.57714 1.99219 8.12185 1.99219Z" fill="black"/>
<path d="M14.5001 20.7852C15.1175 20.7852 15.6179 20.2797 15.6179 19.6562C15.6179 19.0328 15.1175 18.5273 14.5001 18.5273C13.8827 18.5273 13.3823 19.0328 13.3823 19.6562C13.3823 20.2797 13.8827 20.7852 14.5001 20.7852Z" fill="black"/>
<path d="M10.2918 27.6914C10.9092 27.6914 11.4096 27.186 11.4096 26.5625C11.4096 25.939 10.9092 25.4336 10.2918 25.4336C9.67445 25.4336 9.17398 25.939 9.17398 26.5625C9.17398 27.186 9.67445 27.6914 10.2918 27.6914Z" fill="black"/>
</svg>
