<svg width="36" height="36" viewBox="0 0 36 36" fill="none" xmlns="http://www.w3.org/2000/svg">
<path d="M34.9453 33.7778V14.7407H29.5312V24H25.7344L22.3594 20.4444H18.4219V33.7778H12.311V9.18519H13.5V7.94H24.75V11.5556H26.8594V7.94H32.142L25.8209 1.25926H13.5V0H4.78125V1.25926H0.421875V7.94H4.78125V9.18519H5.97023V33.7778H0V36H36V33.7778H34.9453ZM24.96 3.49822L24.9602 3.49852L27.0612 5.71778H22.8532L24.96 3.49822ZM21.9928 3.48148L19.9336 5.65089L17.8744 3.48148H21.9928ZM13.5 3.48148H14.8913L17.014 5.71778H13.5V3.48148ZM4.78125 5.71778H2.53125V3.48148H4.78125V5.71778ZM10.2016 33.7778H8.07961V28.6667H10.2016V33.7778ZM10.2016 26.4444H8.07961V21.4074H10.2016V26.4444ZM10.2016 19.1852H8.07961V14.1481H10.2016V19.1852ZM10.2016 11.9259H8.07961V9.18519H10.2016V11.9259ZM24.8906 31.6296H22.7812V28.1481H24.8906V31.6296ZM31.3594 31.6296H29.25V28.1481H31.3594V31.6296Z" fill="black"/>
</svg>
