<svg width="34" height="34" viewBox="0 0 34 34" fill="none" xmlns="http://www.w3.org/2000/svg">
<path d="M17 0C7.61148 0 0 7.61148 0 17C0 26.3885 7.61148 34 17 34C26.3885 34 34 26.3885 34 17C34 7.61148 26.3885 0 17 0ZM19.1529 24.144C19.1529 24.4267 19.0972 24.7067 18.989 24.9679C18.8808 25.2291 18.7222 25.4664 18.5223 25.6663C18.3224 25.8662 18.0851 26.0248 17.8239 26.133C17.5627 26.2412 17.2827 26.2969 17 26.2969C16.7173 26.2969 16.4373 26.2412 16.1761 26.133C15.9149 26.0248 15.6776 25.8662 15.4777 25.6663C15.2778 25.4664 15.1192 25.2291 15.011 24.9679C14.9028 24.7067 14.8471 24.4267 14.8471 24.144V15.5318C14.8471 15.249 14.9028 14.9691 15.011 14.7079C15.1192 14.4467 15.2778 14.2093 15.4777 14.0094C15.6776 13.8095 15.9149 13.6509 16.1761 13.5427C16.4373 13.4346 16.7173 13.3789 17 13.3789C17.2827 13.3789 17.5627 13.4346 17.8239 13.5427C18.0851 13.6509 18.3224 13.8095 18.5223 14.0094C18.7222 14.2093 18.8808 14.4467 18.989 14.7079C19.0972 14.9691 19.1529 15.249 19.1529 15.5318V24.144ZM17 12.0089C16.5742 12.0089 16.158 11.8826 15.8039 11.6461C15.4499 11.4095 15.1739 11.0733 15.011 10.6799C14.848 10.2865 14.8054 9.85363 14.8885 9.43601C14.9715 9.01839 15.1766 8.63478 15.4777 8.33369C15.7788 8.03261 16.1624 7.82756 16.58 7.74449C16.9976 7.66142 17.4305 7.70406 17.8239 7.867C18.2173 8.02995 18.5535 8.30589 18.7901 8.65993C19.0266 9.01398 19.1529 9.43021 19.1529 9.85602C19.153 10.1388 19.0974 10.4188 18.9892 10.68C18.881 10.9412 18.7225 11.1786 18.5225 11.3785C18.3226 11.5785 18.0852 11.737 17.824 11.8452C17.5627 11.9534 17.2827 12.009 17 12.0089Z" fill="black"/>
</svg>
