<svg width="34" height="36" viewBox="0 0 34 36" fill="none" xmlns="http://www.w3.org/2000/svg">
<path d="M4.87158 18.7969C4.87158 25.5034 10.3135 30.8819 16.95 30.8819C23.5865 30.8819 29.0285 25.437 29.0285 18.7969C29.0285 12.0904 23.6529 6.64551 16.95 6.64551C10.2472 6.64551 4.87158 12.0904 4.87158 18.7969ZM15.6227 18.1329C15.6227 16.0081 15.6227 13.8832 15.6227 11.692C15.6227 10.9616 16.22 10.364 16.95 10.364C17.68 10.364 18.2773 11.028 18.2773 11.692V12.6216V17.7345H22.1265C22.8565 17.7345 23.4538 18.3321 23.4538 19.0625C23.4538 19.7929 22.7902 20.3905 22.1265 20.3905C20.401 20.3905 18.6755 20.3905 16.95 20.3905C16.22 20.3905 15.6227 19.7929 15.6227 19.0625C15.6227 18.7305 15.6227 18.4649 15.6227 18.1329Z" fill="black"/>
<path d="M33.2095 13.6176C31.2185 7.30951 25.6439 2.79423 19.1401 1.86461C19.2065 1.66541 19.2728 1.46621 19.2728 1.3334C19.2728 0.802195 18.941 0.337387 18.5428 0.138183C18.0119 -0.127421 17.481 0.00538097 17.0164 0.403788C16.5519 0.802195 16.0873 1.2006 15.6227 1.59901C15.4237 1.79821 15.1582 1.93101 15.0255 2.13022C14.8927 2.32942 14.8264 2.59503 14.8264 2.86063C14.8264 3.45824 15.2246 3.79025 15.5564 4.25505C15.9546 4.71986 16.3528 5.25107 16.8173 5.71588C17.5473 6.57909 19.0737 5.91508 19.0737 4.85266V4.78626C19.0737 4.71986 19.0737 4.65346 19.0737 4.58706C23.7857 5.31747 27.9667 8.30552 30.0903 12.688C32.4795 17.6681 31.6831 23.9098 28.0994 28.0931C24.5157 32.3427 18.7419 34.202 13.3663 32.8075C8.05712 31.4131 4.00885 27.0306 2.94701 21.7186C1.55334 15.0784 5.26979 8.43832 11.309 5.64948C11.9727 5.38387 12.1054 4.38786 11.7736 3.85665C11.3754 3.19264 10.6454 3.05983 9.98171 3.39184C3.67703 6.24709 -0.371247 12.8872 0.0269441 19.8593C0.425135 26.433 4.53977 32.2099 10.579 34.7332C16.6846 37.2564 23.852 35.9284 28.6303 31.4795C33.3422 26.8978 35.2005 19.8593 33.2095 13.6176Z" fill="black"/>
</svg>
