<svg width="1541" height="530" viewBox="0 0 1541 530" fill="none" xmlns="http://www.w3.org/2000/svg">
<line x1="0.25" x2="0.25" y2="529" stroke="#99EA48" stroke-opacity="0.3" stroke-width="0.5"/>
<line x1="70.25" x2="70.25" y2="529" stroke="#99EA48" stroke-opacity="0.3" stroke-width="0.5"/>
<line x1="140.25" x2="140.25" y2="529" stroke="#99EA48" stroke-opacity="0.3" stroke-width="0.5"/>
<line x1="210.25" x2="210.25" y2="529" stroke="#99EA48" stroke-opacity="0.3" stroke-width="0.5"/>
<line x1="280.25" x2="280.25" y2="529" stroke="#99EA48" stroke-opacity="0.3" stroke-width="0.5"/>
<line x1="350.25" x2="350.25" y2="529" stroke="#99EA48" stroke-opacity="0.3" stroke-width="0.5"/>
<line x1="420.25" x2="420.25" y2="529" stroke="#99EA48" stroke-opacity="0.3" stroke-width="0.5"/>
<line x1="490.25" x2="490.25" y2="529" stroke="#99EA48" stroke-opacity="0.3" stroke-width="0.5"/>
<line x1="560.25" x2="560.25" y2="529" stroke="#99EA48" stroke-opacity="0.3" stroke-width="0.5"/>
<line x1="630.25" x2="630.25" y2="529" stroke="#99EA48" stroke-opacity="0.3" stroke-width="0.5"/>
<line x1="700.25" x2="700.25" y2="529" stroke="#99EA48" stroke-opacity="0.3" stroke-width="0.5"/>
<line x1="770.25" x2="770.25" y2="529" stroke="#99EA48" stroke-opacity="0.3" stroke-width="0.5"/>
<line x1="840.25" x2="840.25" y2="529" stroke="#99EA48" stroke-opacity="0.3" stroke-width="0.5"/>
<line x1="910.25" x2="910.25" y2="529" stroke="#99EA48" stroke-opacity="0.3" stroke-width="0.5"/>
<line x1="980.25" x2="980.25" y2="529" stroke="#99EA48" stroke-opacity="0.3" stroke-width="0.5"/>
<line x1="1050.25" x2="1050.25" y2="529" stroke="#99EA48" stroke-opacity="0.3" stroke-width="0.5"/>
<line x1="1120.25" x2="1120.25" y2="529" stroke="#99EA48" stroke-opacity="0.3" stroke-width="0.5"/>
<line x1="1190.25" x2="1190.25" y2="529" stroke="#99EA48" stroke-opacity="0.3" stroke-width="0.5"/>
<line x1="1260.25" x2="1260.25" y2="529" stroke="#99EA48" stroke-opacity="0.3" stroke-width="0.5"/>
<line x1="1330.25" x2="1330.25" y2="529" stroke="#99EA48" stroke-opacity="0.3" stroke-width="0.5"/>
<line x1="1400.25" x2="1400.25" y2="529" stroke="#99EA48" stroke-opacity="0.3" stroke-width="0.5"/>
<line x1="1470.25" x2="1470.25" y2="529" stroke="#99EA48" stroke-opacity="0.3" stroke-width="0.5"/>
<line x1="1540.25" x2="1540.25" y2="529" stroke="#99EA48" stroke-opacity="0.3" stroke-width="0.5"/>
<line x1="1490" y1="39.25" x2="50" y2="39.2499" stroke="#99EA48" stroke-opacity="0.3" stroke-width="0.5"/>
<line x1="1490" y1="109.25" x2="50" y2="109.25" stroke="#99EA48" stroke-opacity="0.3" stroke-width="0.5"/>
<line x1="1490" y1="179.25" x2="50" y2="179.25" stroke="#99EA48" stroke-opacity="0.3" stroke-width="0.5"/>
<line x1="1490" y1="249.25" x2="50" y2="249.25" stroke="#99EA48" stroke-opacity="0.3" stroke-width="0.5"/>
<line x1="1490" y1="319.25" x2="50" y2="319.25" stroke="#99EA48" stroke-opacity="0.3" stroke-width="0.5"/>
<line x1="1490" y1="389.25" x2="50" y2="389.25" stroke="#99EA48" stroke-opacity="0.3" stroke-width="0.5"/>
<line x1="1490" y1="459.25" x2="50" y2="459.25" stroke="#99EA48" stroke-opacity="0.3" stroke-width="0.5"/>
<line x1="1490" y1="529.25" x2="50" y2="529.25" stroke="#99EA48" stroke-opacity="0.3" stroke-width="0.5"/>
</svg>
