<svg width="36" height="34" viewBox="0 0 36 34" fill="none" xmlns="http://www.w3.org/2000/svg">
<path d="M17.9898 3.13079C10.1429 -4.05281 0.165634 2.2589 0.00202879 10.8155C-0.0396634 12.9961 0.561744 15.1203 1.75886 17.0785H9.51825L10.8984 14.6708C11.2991 13.9718 12.2689 13.9493 12.6924 14.6462L15.6043 19.4356L19.849 10.0566C20.2191 9.23822 21.3223 9.21224 21.7306 10.0058L25.3691 17.0785H34.2207C40.7777 6.35221 27.8189 -5.86729 17.9898 3.13079Z" fill="black"/>
<path d="M23.8105 18.7058L20.8621 12.9746L16.6928 22.1872C16.3381 22.971 15.2948 23.0391 14.85 22.3073L11.8289 17.3384L11.0194 18.7504C10.8288 19.0829 10.4856 19.2863 10.1151 19.2863H3.42694C3.6366 19.5159 2.51921 18.3487 17.2457 33.6827C17.657 34.1111 18.3219 34.1112 18.7332 33.6827C33.2331 18.5847 32.3427 19.5155 32.552 19.2863H24.739C24.351 19.2863 23.9944 19.0634 23.8105 18.7058Z" fill="black"/>
</svg>
