<svg width="28" height="34" viewBox="0 0 28 34" fill="none" xmlns="http://www.w3.org/2000/svg">
<path d="M24.15 0H3.85C1.7262 0 0 1.74675 0 3.89583V30.1042C0 32.2532 1.7262 34 3.85 34H24.15C26.2738 34 28 32.2532 28 30.1042V3.89583C28 1.74675 26.2738 0 24.15 0ZM10.892 26.52C11.3022 26.9351 11.3022 27.608 10.892 28.0231C10.6876 28.2299 10.4188 28.3333 10.15 28.3333C9.8812 28.3333 9.6124 28.2299 9.408 28.0217L8.4 27.0031L7.392 28.0231C7.1876 28.2299 6.9188 28.3333 6.65 28.3333C6.3812 28.3333 6.1124 28.2299 5.908 28.0217C5.4978 27.6066 5.4978 26.9337 5.908 26.5186L6.9146 25.5L5.9066 24.48C5.4964 24.0649 5.4964 23.392 5.9066 22.9769C6.3168 22.5618 6.9818 22.5618 7.392 22.9769L8.4 23.9969L9.408 22.9769C9.8182 22.5618 10.4832 22.5618 10.8934 22.9769C11.3036 23.392 11.3036 24.0649 10.8934 24.48L9.8854 25.5L10.892 26.52ZM10.15 18.0625H9.45V18.7708C9.45 19.3573 8.9796 19.8333 8.4 19.8333C7.8204 19.8333 7.35 19.3573 7.35 18.7708V18.0625H6.65C6.0704 18.0625 5.6 17.5865 5.6 17C5.6 16.4135 6.0704 15.9375 6.65 15.9375H7.35V15.2292C7.35 14.6427 7.8204 14.1667 8.4 14.1667C8.9796 14.1667 9.45 14.6427 9.45 15.2292V15.9375H10.15C10.7296 15.9375 11.2 16.4135 11.2 17C11.2 17.5865 10.7296 18.0625 10.15 18.0625ZM21.35 28.3333H17.85C17.2704 28.3333 16.8 27.8573 16.8 27.2708C16.8 26.6843 17.2704 26.2083 17.85 26.2083H21.35C21.9296 26.2083 22.4 26.6843 22.4 27.2708C22.4 27.8573 21.9296 28.3333 21.35 28.3333ZM21.35 24.7917H17.85C17.2704 24.7917 16.8 24.3157 16.8 23.7292C16.8 23.1427 17.2704 22.6667 17.85 22.6667H21.35C21.9296 22.6667 22.4 23.1427 22.4 23.7292C22.4 24.3157 21.9296 24.7917 21.35 24.7917ZM21.35 18.4167H17.85C17.2704 18.4167 16.8 17.9407 16.8 17.3542C16.8 16.7677 17.2704 16.2917 17.85 16.2917H21.35C21.9296 16.2917 22.4 16.7677 22.4 17.3542C22.4 17.9407 21.9296 18.4167 21.35 18.4167ZM23.8 8.85417C23.8 10.2212 22.701 11.3333 21.35 11.3333H6.65C5.299 11.3333 4.2 10.2212 4.2 8.85417V6.72917C4.2 5.36208 5.299 4.25 6.65 4.25H21.35C22.701 4.25 23.8 5.36208 23.8 6.72917V8.85417Z" fill="black"/>
</svg>
