<svg width="36" height="36" viewBox="0 0 36 36" fill="none" xmlns="http://www.w3.org/2000/svg">
<path d="M13.2944 35.5378C13.5175 34.2957 14.3412 34.8032 15.2425 33.6671C16.1438 32.5309 15.4227 31.6338 15.4227 31.6338C13.3198 28.1653 14.9061 26.2578 14.8219 24.1588C14.7618 22.6637 13.8005 22.0657 13.8005 22.0657C12.7791 21.5873 12.2717 21.493 11.7287 20.5473C11.3895 19.9565 11.5278 19.1324 11.5278 19.1324C11.5278 19.1324 12.2179 18.9985 12.4299 18.8973C12.9955 18.627 13.1627 18.2092 13.5383 17.6588C14.0254 16.9455 15.5967 16.6233 15.5967 16.6233L15.6432 14.1487C15.6432 14.1487 18.6234 16.5642 19.1342 17.4116C20.0057 18.8573 20.4445 21.3065 20.4445 21.3065C20.4445 21.3065 20.5711 22.4064 22.0633 23.8655C23.4706 25.2416 28.6602 25.629 29.247 31.7821C29.7323 31.6883 30.2431 31.4915 30.5335 31.1028C31.1096 30.3315 30.7358 28.9334 30.3208 27.8965C29.1295 24.9203 28.7887 22.6702 29.3045 21.2824C28.3856 20.3409 27.4345 19.3799 26.5584 18.3568C22.9272 14.1166 18.4762 12.639 16.8053 8.35138C15.6688 5.43497 14.1465 2.31647 13.2887 0.619974C12.5536 -0.820938 11.986 0.701325 11.986 0.701325L10.2653 4.3459L6.63338 5.37154L5.04517 7.20649L0.0217702 7.96614C0.0217702 7.96614 -0.585307 13.9136 4.61211 13.8402C4.7874 13.8378 8.13786 14.0515 8.13786 14.0515L11.1968 23.0946L7.35922 31.7656C7.35922 31.7656 4.25282 31.7656 3.61262 34.8213C3.58344 35.6833 4.18785 35.9999 5.0991 35.9999C5.65534 35.9999 9.33542 35.9913 13.7352 35.9816C13.5446 35.9432 13.2416 35.8316 13.2944 35.5378Z" fill="black"/>
<path d="M33.5817 15.7387C32.6036 14.5069 31.6625 14.7381 31.868 15.5747C32.31 17.3756 32.3377 18.7901 32.1447 19.8954C32.3595 19.9546 32.5786 20.0369 32.8003 20.1447C33.287 20.3812 33.4889 20.9658 33.2512 21.4502C33.0135 21.9348 32.4264 22.1357 31.9396 21.8988C31.7688 21.8157 31.6199 21.7682 31.503 21.7485C31.3565 22.0091 31.1984 22.2361 31.0377 22.4326C30.9658 23.1987 31.1396 24.6671 32.1429 27.1739C33.0183 29.3609 33.0037 31.0783 32.0993 32.2784C31.3292 33.3003 30.1091 33.6494 29.2008 33.7607C28.746 35.4411 26.8677 35.9126 25.8168 35.9126C25.2069 35.9126 18.8584 35.9126 18.2969 35.9126C18.3046 35.9202 17.6331 35.8771 17.7096 35.4511C17.849 34.6748 18.5099 34.431 19.33 34.4274C20.15 34.4238 20.3802 34.4391 20.9207 34.4485C21.192 34.4532 18.3083 33.7259 18.5368 31.539C19.1479 27.1917 23.8293 28.9802 23.8293 28.9802C19.2133 26.7104 18.2466 30.4376 18.2466 30.4376C18.2398 30.455 17.1651 34.9826 17.1651 34.9826C17.1651 34.9826 16.9628 35.8266 16.2458 35.9762C21.35 35.9653 26.7927 35.9546 29.2558 35.9546C34.8514 35.9546 35.6295 29.6361 33.5485 26.9818C37.6976 22.5072 35.7932 18.5238 33.5817 15.7387Z" fill="black"/>
</svg>
