<svg width="34" height="34" viewBox="0 0 34 34" fill="none" xmlns="http://www.w3.org/2000/svg">
<path d="M17.2798 13.6133C15.2283 13.6133 13.5597 15.1326 13.5597 17C13.5597 18.8674 15.2286 20.3867 17.2798 20.3867C19.3311 20.3867 20.9999 18.8674 20.9999 17C20.9999 15.1326 19.3311 13.6133 17.2798 13.6133Z" fill="black"/>
<path d="M4.66836 21.1641C4.66836 19.9924 3.62123 19.0391 2.33418 19.0391C1.04713 19.0391 0 19.9924 0 21.1641C0 22.3358 1.04713 23.2891 2.33418 23.2891C3.62123 23.2891 4.66836 22.3358 4.66836 21.1641Z" fill="black"/>
<path d="M30.3441 17C30.7159 16.6267 31.0652 16.2524 31.3883 15.8784C33.8963 12.977 34.6289 10.3565 33.4515 8.5C32.2745 6.64348 29.4155 5.91093 25.4013 6.43752C22.9113 6.7641 20.1218 7.54878 17.2815 8.70337C15.7845 8.09456 14.3017 7.58925 12.8693 7.19937C13.0118 6.80379 13.1634 6.42195 13.3244 6.05568C14.202 4.05856 15.3015 2.69334 16.3911 2.19841C16.6088 1.34525 17.1186 0.592987 17.8192 0.0339813C17.6406 0.011673 17.4605 0 17.2795 0C14.9248 0 12.7987 1.88791 11.2925 5.31587C11.0985 5.75789 10.917 6.2204 10.7477 6.70029C10.2066 6.59367 9.67579 6.50548 9.15835 6.43752C5.14477 5.91119 2.28574 6.64348 1.10839 8.5C-0.0689533 10.3565 0.663612 12.977 3.17132 15.8784C4.72734 17.6786 6.86748 19.4861 9.3863 21.1483C9.55612 22.6326 9.81655 24.0538 10.1619 25.3776C9.71426 25.4632 9.27517 25.5345 8.84635 25.5908C6.51074 25.8971 4.66409 25.7135 3.64773 25.1036C3.23201 25.2188 2.79093 25.2816 2.33418 25.2816C1.82244 25.2816 1.33093 25.2025 0.871899 25.0593C0.939998 25.2108 1.01835 25.3578 1.10839 25.5C2.03671 26.9641 4.01016 27.729 6.77174 27.729C7.51229 27.729 8.30982 27.6738 9.15864 27.5625C9.67608 27.4945 10.2069 27.4063 10.748 27.2997C10.917 27.7796 11.0985 28.2424 11.2928 28.6841C12.7987 32.1121 14.9251 34 17.2795 34C19.6342 34 21.7607 32.1121 23.2669 28.6841C24.2012 26.5571 24.8511 23.9659 25.1731 21.1488C26.5 20.2731 27.7218 19.3572 28.8083 18.4231C29.1137 18.7333 29.4009 19.0438 29.6688 19.3535C31.1327 21.0474 31.8813 22.5999 31.8038 23.707C32.4802 24.2855 32.9615 25.0502 33.1475 25.9109C33.2586 25.7804 33.3606 25.6437 33.4515 25.5C34.6292 23.6435 33.8963 21.0233 31.3886 18.1216C31.0652 17.7476 30.7159 17.3733 30.3441 17ZM25.7136 8.40947C28.6929 8.01855 30.8772 8.42477 31.5564 9.49609C32.236 10.5674 31.5302 12.4927 29.6688 14.6465C29.4009 14.9562 29.1137 15.267 28.8083 15.5769C26.7402 13.7993 24.1835 12.0865 21.3427 10.5936C20.8623 10.3412 20.3799 10.0987 19.8969 9.86548C21.9416 9.14383 23.9171 8.645 25.7136 8.40947ZM4.89118 14.6465C3.0297 12.4929 2.32421 10.5674 3.00378 9.49609C3.68306 8.42477 5.86708 8.01855 8.84663 8.40947C9.27546 8.4655 9.71454 8.53683 10.1622 8.62244C9.50483 11.1417 9.15379 14.0138 9.15379 17C9.15379 17.5048 9.16433 18.0062 9.18428 18.5035C7.47553 17.2527 6.01325 15.9448 4.89118 14.6465ZM11.3421 17C11.3421 14.1757 11.6689 11.473 12.2804 9.11711C14.8274 9.81282 17.5619 10.9067 20.2486 12.3189C22.9355 13.7308 25.3432 15.3396 27.2787 17C25.3432 18.6602 22.9355 20.2692 20.2486 21.6811C17.5619 23.0933 14.8274 24.1872 12.2804 24.8829C11.6686 22.527 11.3421 19.8243 11.3421 17ZM21.235 27.9443C20.1169 30.4888 18.6384 32.0078 17.2795 32.0078C15.921 32.0078 14.4422 30.4888 13.3244 27.9443C13.1634 27.578 13.0118 27.1962 12.8693 26.8006C15.5944 26.059 18.5019 24.8995 21.3424 23.4064C21.8231 23.154 22.2949 22.8949 22.7583 22.6305C22.4226 24.6033 21.9091 26.41 21.235 27.9443Z" fill="black"/>
<path d="M28.7106 24.5811C27.4232 24.5811 26.3764 25.5343 26.3764 26.7061C26.3764 27.8778 27.4232 28.8311 28.7106 28.8311C29.9976 28.8311 31.0447 27.8778 31.0447 26.7061C31.0447 25.5343 29.9973 24.5811 28.7106 24.5811Z" fill="black"/>
<path d="M20.7956 5.25488C22.0827 5.25488 23.1298 4.30159 23.1298 3.12988C23.1298 1.95818 22.0827 1.00488 20.7956 1.00488C19.5086 1.00488 18.4615 1.95818 18.4615 3.12988C18.4615 4.30159 19.5086 5.25488 20.7956 5.25488Z" fill="black"/>
</svg>
