<svg width="24" height="15" viewBox="0 0 24 15" fill="none" xmlns="http://www.w3.org/2000/svg">
<path d="M23.0475 9.79207C23.6646 9.17639 24 8.35994 24 7.49665C24 6.62667 23.6579 5.81023 23.0475 5.20124L18.8284 0.991874C18.171 0.336043 17.1112 0.336043 16.4539 0.991874C15.7965 1.64771 15.7965 2.70507 16.4539 3.3609L18.929 5.82361L1.67691 5.82361C0.751258 5.82361 9.45269e-08 6.57314 8.35141e-08 7.49665C7.25012e-08 8.42017 0.751258 9.16969 1.67691 9.16969L18.929 9.16969L16.4539 11.6391C15.7965 12.2949 15.7965 13.3523 16.4539 14.0081C17.1112 14.664 18.171 14.664 18.8284 14.0081L23.0475 9.79207Z" fill="black"/>
</svg>
