<?xml version="1.0" encoding="utf-8"?>
<!-- Generator: Adobe Illustrator 26.0.1, SVG Export Plug-In . SVG Version: 6.00 Build 0)  -->
<svg version="1.1" id="Layer_1" xmlns="http://www.w3.org/2000/svg" xmlns:xlink="http://www.w3.org/1999/xlink" x="0px" y="0px"
	 viewBox="0 0 293 312.7" style="enable-background:new 0 0 293 312.7;" xml:space="preserve">
<style type="text/css">
	.st0{fill:none;stroke:#2B2A29;stroke-width:0.5669;stroke-miterlimit:10;stroke-dasharray:2.8346,2.8346;}
	.st1{fill:none;stroke:#2B2A29;stroke-width:0.5669;stroke-miterlimit:10;stroke-opacity:0.2;}
	.st2{fill-rule:evenodd;clip-rule:evenodd;fill:#D7C5BC;}
	.st3{fill-rule:evenodd;clip-rule:evenodd;fill:#C5A99A;}
	.st4{fill-rule:evenodd;clip-rule:evenodd;fill:#A6CDA9;}
	.st5{fill-rule:evenodd;clip-rule:evenodd;fill:#59250E;}
	.st6{fill-rule:evenodd;clip-rule:evenodd;fill:#8A8886;}
	.st7{fill-rule:evenodd;clip-rule:evenodd;fill:#AD9986;}
	.st8{fill-rule:evenodd;clip-rule:evenodd;fill:#656463;}
	.st9{fill-rule:evenodd;clip-rule:evenodd;fill:#514F4E;}
	.st10{fill-rule:evenodd;clip-rule:evenodd;fill:#B0BEB1;fill-opacity:0.4392;}
	.st11{fill-rule:evenodd;clip-rule:evenodd;fill:#FEFEFE;}
	.st12{fill-rule:evenodd;clip-rule:evenodd;fill:#006633;fill-opacity:0.251;}
	.st13{fill:#2B2A29;}
	.st14{font-family:'MyriadPro-Regular';}
	.st15{font-size:6.9992px;}
	.st16{font-size:9.9997px;}
	.st17{font-size:6.9998px;}
	.st18{fill:none;stroke:#808080;stroke-width:0.5669;stroke-miterlimit:10;}
</style>
<g id="Layer_x0020_1">
	<line class="st0" x1="98.6" y1="22" x2="54.7" y2="22"/>
	<path class="st1" d="M200,16.3c-7.6-3.8-15.8-5.8-24.1-5.8"/>
	<path class="st2" d="M140.5,121.3c-1.1,0-2.4-0.2-3.8-1l-1.7-0.1l0.1-1c0.5,0.2,0.9,0.3,1.5,0.3c1.4,0.2,2.5,0.3,3.6,0.3
		c1.1,0,2.4-0.2,4.2-0.8c2.2-0.8,5-2.1,7.2-3.1l0,0l0.5,0.1l-8.9,4.9C143.2,120.8,142.1,121.3,140.5,121.3z M164.6,116.5
		c-0.1,0-0.2,0-0.4,0c-1.8-0.2-10.3-1.5-10.3-1.5l-1,0.5c-0.1,0-0.3-0.1-0.4-0.1c0.7-0.5,0-1.7,0.4-2.5c2.6,0.3,6.5,1.3,8.9,1.8
		c1.6,0.3,3.1,0.6,4.6,0.8C166.1,116,165.6,116.5,164.6,116.5z"/>
	<path class="st2" d="M159.7,117l-4.8-0.8l-2.7-0.2l0.7-0.4c1.9,0.4,6.3,0.9,7,0.9c0.3,0,0.7,0.1,1,0.1s0.7,0,1,0
		C161.5,116.7,160.8,117,159.7,117z M151.5,115.8c0.4-0.3,0.6-0.3,0.9-0.4h0c0,0-0.1,0-0.1,0C152.1,115.6,151.8,115.7,151.5,115.8z"
		/>
	<path class="st3" d="M152.1,115.9l-0.5-0.1l0,0c0.3-0.1,0.6-0.3,0.8-0.4c0,0,0.1,0,0.1,0c0.1,0,0.2,0,0.4,0.1L152.1,115.9z"/>
	<path class="st4" d="M149.8,109.9l-13.5,3.8l0.1-1.1l-1.1-0.1l-0.1,1.6h0l0.2-2.4l-29-6c-0.2-1.8-0.4-3.7-0.8-5.7
		c-1.1-7.2,0.1-18.7-9.5-35.8c-0.7-1.2-1.3-2.5-2-3.8c0.3,0.3,0.5,0.4,0.5,0.4s-0.8-4.7-2.7-7.8c-0.2-0.4-0.7-0.7-1.3-1.2
		c0-0.3,0.1-0.6,0.1-1l0,0c0.1-0.9,0.3-1.7,0.5-2.5v-0.1c0.1-0.3,0.2-0.5,0.2-0.7c0.1-0.4,0.3-0.8,0.4-1.1c0.8-2.3,0.8-2.3,0.8-2.3
		s3.7,0,5.7-0.1c0.2,0,0.3,0,0.5,0c0.3,0,0.5,0,0.6-0.1l0.2,0c2.3-1.1,1-3.6,1.1-4.1c0-0.5,1.1-1.6,1.1-1.6l-0.1-1.2l0.6-1l0.3-2.7
		c0,0,1.4-0.4,2.1-0.8c0.7-0.3,0.8-1.5,0.8-1.5l-3.2-5l0.3-3.9l-1.1-7.5c1.1-0.5,1.7-3.8,1.7-3.8s0.5-4.1-13.2-5.7
		c-13.7-1.6-19.8,2.3-21,5.3c-1.2,3.1-4.5,13.2-1,19.6c3.4,6.5,5.3,9.4,5.3,9.4s-0.1,3-0.1,5.4c-0.8-0.3-1.4-0.4-1.4-0.4l-1.9,4.2
		c0,0-10.5,13.7-8.1,25.7c2.7,13.9,8,32.2,8.5,54.7c-1.7,4.5-3.8,12-4.6,18c-1,7.3,6.3,59.4,6.1,61.3c-0.1,0.7-1.9,10.2-1.7,21.4
		c0.3,17.5,0.5,52.2,0.5,53.2h0.1c-0.3,2.1-1.1,7.6-0.3,12.8h39.3c0,0-0.2-6.3-8.5-7.2l-14.2-5.6h1.5c-0.6-1.6,6.5-74,6.9-74.6
		c0.5-0.6,4.4-40.1,4.4-40.1s4.4-27.3,5.9-36.5c0.4-0.9,1.4-3.8,1.6-10.2l27-0.1l0.2-1.2h0.1l-0.1,0.5l1.1,0.1l0.1-0.6l0.5,0
		c3.5,2,6.6,0.5,6.6,0.5l9-4.9l2.8,0.3l4.9,0.8c1.6,0,2.2-0.4,2.5-0.8c0.9,0.1,1.7,0.2,2.1,0.3c2.3,0.3,2.4-1.6,2.4-1.6l-15.7-4.9
		C150.6,109.8,150.2,109.8,149.8,109.9z"/>
	<polygon class="st5" points="118.7,126.9 239,126.9 239,121.4 118.7,121.4 	"/>
	<path class="st6" d="M171.8,115.3l-25.3,3.8c-0.5,0.1-0.9,0.5-0.9,1v0c0,0.7,0.5,1.2,1.1,1.2l25.4-2.2c1.1-0.1,1.9-1.2,1.6-2.3
		C173.6,115.8,172.7,115.1,171.8,115.3z"/>
	<polygon class="st6" points="170.5,119 173,121.4 174.3,121.4 172.7,118.9 	"/>
	<path class="st5" d="M220.4,274.7V139.1c0-4.4,3.6-7.9,7.9-7.9h5.1v-4.5h-50v4.5h5.1c4.4,0,7.9,3.5,7.9,7.9v135.7
		c0,6.9-5.6,12.4-12.5,12.4h-17.3v8.5h83.5v-8.5h-17.3C226,287.2,220.4,281.6,220.4,274.7z"/>
	<polygon class="st7" points="183.3,121.5 231.8,121.5 231.8,106.6 183.3,106.6 	"/>
	<polygon class="st8" points="176,84.5 182.1,86.7 206.6,18.4 200.4,16.2 	"/>
	<path class="st9" d="M206.6,18.4L206.6,18.4l-24.5,68.2c2.9,1,11.2-15.7,12.4-19l9.9-27.4C205.7,37,209.5,19.5,206.6,18.4z"/>
	<path class="st9" d="M197.8,48.4l-2.7,1.4l25.3,49.7c0.3,0.9,0.2,1.9-0.4,2.7c-0.6,0.8-1.5,1.3-2.5,1.3h-23.1v3.1h23.1
		c2,0,3.9-1,5-2.6c1.1-1.7,1.4-3.8,0.7-5.6L197.8,48.4z"/>
	<polygon class="st10" points="105.1,25.2 180.1,66.9 196.1,21.9 105.4,21.7 	"/>
	<path class="st11" d="M80.1,20.8c-1.9,0-3.5,1.6-3.5,3.5s1.6,3.5,3.5,3.5c1.9,0,3.5-1.6,3.5-3.5S82,20.8,80.1,20.8z"/>
	<path class="st11" d="M80.1,39.3c-1.9,0-3.5,1.6-3.5,3.5s1.6,3.5,3.5,3.5c1.9,0,3.5-1.6,3.5-3.5S82,39.3,80.1,39.3z"/>
	<path class="st11" d="M80.1,143.4c-1.6,0-2.9,1.3-2.9,2.9c0,1.6,1.3,2.8,2.9,2.8c1.6,0,2.8-1.3,2.8-2.8
		C82.9,144.7,81.7,143.4,80.1,143.4z"/>
	<path class="st11" d="M80.1,70c-1.9,0-3.5,1.6-3.5,3.5c0,1.9,1.6,3.5,3.5,3.5c1.9,0,3.5-1.6,3.5-3.5C83.6,71.6,82,70,80.1,70z"/>
	<path class="st11" d="M80.1,23.3c-0.5,0-1,0.4-1,1v270.6c0,0.6,0.5,1,1,1c0.5,0,1-0.4,1-1V24.3C81.1,23.7,80.6,23.3,80.1,23.3z"/>
	<path class="st11" d="M131.8,115.9l-42.9-0.6l-6.3-40.1c-0.2-0.5-1-1.7-1.6-1.5c-0.5,0.2-0.2,1.5,0,2l6.3,40.9
		c0.1,0.4,0.5,0.7,0.9,0.7L132,117c0.5,0,1.6,0.1,1.6-0.4C133.7,116,132.3,115.9,131.8,115.9z"/>
	<path class="st12" d="M89.1,115.5h27.2c0-15-12.2-27.2-27.2-27.2c-1.4,0-2.8,0.1-4.3,0.3L89.1,115.5z"/>
	<text transform="matrix(1 0 0 1 88.3506 109.1196)" class="st13 st14 st15">90-110°</text>
	<rect x="4.7" y="295.3" class="st6" width="272" height="17.5"/>
	<g>
		<path class="st13" d="M259.9,121.6l4.3,8.7h-8.7L259.9,121.6z M259.2,287.8v-158h1.4v158H259.2z M259.9,296l-4.3-8.7h8.7
			L259.9,296z"/>
	</g>
	<text transform="matrix(1 0 0 1 265.8296 199.668)" class="st13 st14 st16">Desk</text>
	<text transform="matrix(1 0 0 1 265.8296 210.8262)" class="st13 st14 st16">height</text>
	<line class="st0" x1="239" y1="121.6" x2="260" y2="121.6"/>
	<g>
		<path class="st13" d="M54.7,22l4.3,8.7h-8.7L54.7,22z M54,287V30.2h1.4V287H54z M54.7,295.3l-4.4-8.7H59L54.7,295.3z"/>
	</g>
	<text transform="matrix(1 0 0 1 6.627 106.4824)" class="st13 st14 st16">Monitor</text>
	<text transform="matrix(1 0 0 1 9.6704 117.6401)" class="st13 st14 st16">height</text>
	<text transform="matrix(1 0 0 1 -0.6084 128.832)" class="st13 st14 st16">(Eye sight)</text>
	<text transform="matrix(1 0 0 1 179.981 6.578)" class="st13 st14 st17">10-20°tilt</text>
	<polyline class="st18" points="175.8,5.2 176.2,83.2 200.3,16.2 203,9 	"/>
</g>
</svg>
