<svg xmlns="http://www.w3.org/2000/svg" width="472.73" height="262.221" viewBox="0 0 472.73 262.221">
  <g id="Group_10295" data-name="Group 10295" transform="translate(-20245 -1544.559)">
    <g id="Group_10259" data-name="Group 10259" transform="translate(27 0.559)">
      <g id="Group_10255" data-name="Group 10255" transform="translate(20459 1576.862)">
        <path id="Path_4762" data-name="Path 4762" d="M230.928,88.086a4.719,4.719,0,0,0-2.649-2.71l-20.547-8.29a17.551,17.551,0,0,0-12.806-13.63l-1.108-12.768a4.717,4.717,0,0,0-8.193-2.76l-5.273,5.817-3.26-11.407a4.716,4.716,0,0,0-8.969-.311l-24.352,67.182-90.242,4.213A47.278,47.278,0,0,1,8.9,88.205,4.716,4.716,0,0,0,.541,92.584,56.745,56.745,0,0,0,37.508,121.37a36.663,36.663,0,0,0-7.149,13.949c-2.217,8.013-3.016,20.788,5.136,37.009L22.272,190.288a4.714,4.714,0,0,0-.84,3.652l5.82,31.558a4.717,4.717,0,0,0,4.638,3.861h5.928a4.718,4.718,0,0,0,4.641-5.561l-3.685-20.243,38.991-29.27c.069-.052-.066.056,0,0a35.2,35.2,0,0,0,8.37-10.126c20.321,3.568,48.132,8.4,65.957,11.266l7.854,49.95a4.717,4.717,0,0,0,4.659,3.984h4.878a4.717,4.717,0,0,0,4.717-4.717v-50.7c4.428-3.024,6.01-8.081,7.06-13.034.033-.156,10.493-48.431,10.493-48.431a36.261,36.261,0,0,0,5.968.5c13.812,0,26.461-8.087,33.009-21.1a4.716,4.716,0,0,0,.2-3.783Z" transform="translate(0)" fill="#a3a3a3"/>
      </g>
      <g id="Group_10258" data-name="Group 10258" transform="translate(22305.73 -18690.219) rotate(90)">
        <line id="Line_133" data-name="Line 133" y2="185.73" transform="translate(20270.5 1620.5)" fill="none" stroke="#2b9add" stroke-linecap="round" stroke-width="4"/>
        <path id="Icon_ionic-ios-arrow-back" data-name="Icon ionic-ios-arrow-back" d="M9.432,11.806.5,2.877A1.688,1.688,0,0,1,2.886.493L13.011,10.611a1.685,1.685,0,0,1,.049,2.327L2.893,23.126A1.688,1.688,0,0,1,.5,20.743Z" transform="translate(20258.689 1629.003) rotate(-90)" fill="#2b9add"/>
        <path id="Icon_ionic-ios-arrow-back-2" data-name="Icon ionic-ios-arrow-back" d="M9.432,11.806.5,2.877A1.688,1.688,0,0,1,2.886.493L13.011,10.611a1.685,1.685,0,0,1,.049,2.327L2.893,23.127A1.688,1.688,0,1,1,.5,20.743Z" transform="translate(20282.309 1796.728) rotate(90)" fill="#2b9add"/>
      </g>
      <line id="Line_134" data-name="Line 134" y1="117" transform="translate(20495.5 1580.5)" fill="none" stroke="#707070" stroke-width="1" stroke-dasharray="3"/>
      <line id="Line_135" data-name="Line 135" y1="86" transform="translate(20690.23 1580.5)" fill="none" stroke="#707070" stroke-width="1" stroke-dasharray="3"/>
      <text id="Length" transform="translate(20593 1562)" fill="#2b9add" font-size="18" font-family="Nunito-SemiBold, Nunito" font-weight="600"><tspan x="-28.836" y="0">Length</tspan></text>
    </g>
    <g id="Group_10260" data-name="Group 10260">
      <g id="Group_10256" data-name="Group 10256" transform="translate(20237.387 1615.778)">
        <path id="Path_4763" data-name="Path 4763" d="M187.939,43.861l-19.446-7.846a16.48,16.48,0,0,0-12.1-12.863l-1.052-12.119a4.364,4.364,0,0,0-7.581-2.553l-5.088,5.611L139.554,3.166a4.364,4.364,0,0,0-8.3-.288L104.326,77.169a78.052,78.052,0,0,0-46.677,34.294c-9.517,15.45-12.472,33.15-8.323,49.84,2.425,9.755,7.029,16.182,11.739,20.4H57.256a44.727,44.727,0,0,1-41.342-25.363,4.364,4.364,0,1,0-7.871,3.771,53.473,53.473,0,0,0,48.143,30.334h83.319a4.364,4.364,0,0,0,4.364-4.364c0-11.747-9.37-17.1-17.639-19.067a33.063,33.063,0,0,0,3.762-18.5l1.14-.152,26.157,40.107a4.365,4.365,0,0,0,3.656,1.98h15.883a4.364,4.364,0,0,0,3.692-6.69c-.169-.268-16.567-26.3-25.382-40.881V69.543a36.8,36.8,0,0,0,4.042.225c12.66,0,24.567-7.143,30.978-19.807.005-.01.17-.353.2-.419a4.364,4.364,0,0,0-2.414-5.68Z" transform="translate(0 0)" fill="#a3a3a3"/>
      </g>
      <g id="Group_10257" data-name="Group 10257" transform="translate(66.03 0.279)">
        <line id="Line_133-2" data-name="Line 133" y2="182" transform="translate(20270.5 1620.5)" fill="none" stroke="#2b9add" stroke-linecap="round" stroke-width="4"/>
        <path id="Icon_ionic-ios-arrow-back-3" data-name="Icon ionic-ios-arrow-back" d="M20.683,18,11.746,9.07a1.688,1.688,0,0,1,2.391-2.384L24.262,16.8a1.685,1.685,0,0,1,.049,2.327L14.144,29.32a1.688,1.688,0,0,1-2.391-2.384Z" transform="translate(20252.496 1640.254) rotate(-90)" fill="#2b9add"/>
        <path id="Icon_ionic-ios-arrow-back-4" data-name="Icon ionic-ios-arrow-back" d="M9.432,11.806.5,2.877A1.688,1.688,0,0,1,2.886.493L13.011,10.611a1.685,1.685,0,0,1,.049,2.327L2.893,23.127A1.688,1.688,0,1,1,.5,20.743Z" transform="translate(20282.309 1792.997) rotate(90)" fill="#2b9add"/>
      </g>
      <text id="Height" transform="translate(20291 1661)" fill="#2b9add" font-size="18" font-family="Nunito-SemiBold, Nunito" font-weight="600"><tspan x="-27.738" y="0">Height</tspan></text>
    </g>
  </g>
</svg>
