<svg xmlns="http://www.w3.org/2000/svg" width="1996.778" height="2059.421" viewBox="0 0 1996.778 2059.421">
  <g id="Group_1713" data-name="Group 1713" transform="translate(2275.34 -9319.009)">
    <path id="Path_1867" data-name="Path 1867" d="M240.975,19.845,1964.65,1746.36H240.975Z" transform="translate(-2264 9320)" fill="#e4e4e4" stroke="#000" stroke-miterlimit="10" stroke-width="17.241"/>
    <text id="a" transform="translate(-2275.34 10125.14)" font-size="234" font-family="ArialMT, Arial"><tspan x="0" y="0">a</tspan></text>
    <text id="b_a" data-name="b = a" transform="translate(-1462.767 11328.43)" font-size="234" font-family="ArialMT, Arial"><tspan x="0" y="0">b = a</tspan></text>
    <text id="c_" data-name="c =" transform="translate(-1150.32 9897.565)" font-size="234" font-family="ArialMT, Arial"><tspan x="0" y="0">c =</tspan></text>
    <text id="a_2" data-name="a√2" transform="translate(-787.92 9876.521)" font-size="233" font-family="ArialMT, Arial"><tspan x="0" y="0">a√2</tspan></text>
    <path id="Path_1868" data-name="Path 1868" d="M240.975,1598.94H385.551v144.58H240.975V1598.94Z" transform="translate(-2264 9320)" fill="none" stroke="#000" stroke-miterlimit="10" stroke-width="6.897"/>
    <path id="Path_1869" data-name="Path 1869" d="M246.645,36.855l456.435,453.6C584.01,626.535,419.58,703.08,246.645,703.08Z" transform="translate(-2264 9320)" fill="#2b9add" stroke="#000" stroke-miterlimit="10" stroke-width="6.897" fill-rule="evenodd"/>
    <path id="Path_1870" data-name="Path 1870" d="M1947.64,1740.69H1281.42c0-178.6,68.04-348.71,195.62-473.45Z" transform="translate(-2264 9320)" fill="#2b9add" stroke="#000" stroke-miterlimit="10" stroke-width="6.897" fill-rule="evenodd"/>
    <path id="Path_1871" data-name="Path 1871" d="M1732.7,562.1h172.93" transform="translate(-2270 9110)" fill="none" stroke="#000" stroke-miterlimit="10" stroke-width="17.241"/>
    <text id="_45_" data-name="45°" transform="translate(-1951 9851)" font-size="164" font-family="ArialMT, Arial"><tspan x="0" y="0">45°</tspan></text>
    <text id="_45_2" data-name="45°" transform="translate(-897 10956)" font-size="164" font-family="ArialMT, Arial"><tspan x="0" y="0">45°</tspan></text>
  </g>
</svg>
