<svg xmlns="http://www.w3.org/2000/svg" xmlns:xlink="http://www.w3.org/1999/xlink" width="34.738" height="35.121" viewBox="0 0 34.738 35.121">
  <defs>
    <linearGradient id="linear-gradient" y1="1" x2="0.645" y2="1" gradientUnits="objectBoundingBox">
      <stop offset="0" stop-color="#2d9bde"/>
      <stop offset="1" stop-color="#0576bb"/>
    </linearGradient>
  </defs>
  <g id="ic-arrow" transform="translate(39.796 157.838)">
    <g id="Path_4217" data-name="Path 4217" transform="translate(-112.542 -228.471)" fill="url(#linear-gradient)">
      <path d="M 90.44725036621094 105.2539138793945 L 74.94680023193359 105.2539138793945 C 74.24602508544922 105.2539138793945 73.64430999755859 104.8516998291016 73.37644958496094 104.204231262207 C 73.10889434814453 103.557487487793 73.25035095214844 102.8486099243164 73.74562072753906 102.3542175292969 C 77.67849731445312 98.41761016845703 86.07722473144531 90.01519012451172 87.89945983886719 88.19217681884766 C 86.07246398925781 86.36509704589844 77.65204620361328 77.94403076171875 73.74507904052734 74.03215026855469 C 73.25035095214844 73.53833770751953 73.10885620117188 72.82948303222656 73.37638854980469 72.18275451660156 C 73.64424133300781 71.53524017333984 74.24597930908203 71.13300323486328 74.94680023193359 71.13300323486328 L 90.44733428955078 71.13300323486328 C 90.89440155029297 71.13300323486328 91.33229827880859 71.31443023681641 91.64875030517578 71.63076782226562 L 98.21724700927734 78.19926452636719 L 106.1215667724609 86.10224151611328 C 107.2722473144531 87.25473022460938 107.2722015380859 89.12944793701172 106.1217803955078 90.28160095214844 L 91.64875030517578 104.7559814453125 C 91.33226776123047 105.0724334716797 90.89434814453125 105.2539138793945 90.44725036621094 105.2539138793945 Z" stroke="none"/>
      <path d="M 90.44725036621094 104.7539138793945 C 90.76522064208984 104.7539138793945 91.07061767578125 104.6269836425781 91.29518127441406 104.4024429321289 L 105.7679595947266 89.92831420898438 C 106.7260208129883 88.96881103515625 106.7260208129883 87.41531372070312 105.7680511474609 86.45581817626953 L 91.29525756835938 71.98439025878906 C 91.07070922851562 71.75991821289062 90.76530456542969 71.63300323486328 90.44733428955078 71.63300323486328 L 74.94680023193359 71.63300323486328 C 73.87852478027344 71.63300323486328 73.34299468994141 72.92437744140625 74.09885406494141 73.67881774902344 C 78.52382659912109 78.10935211181641 88.60649108886719 88.19210815429688 88.60649108886719 88.19210815429688 C 88.60649108886719 88.19210815429688 78.52517700195312 98.27755737304688 74.09885406494141 102.7080841064453 C 73.34308624267578 103.4625244140625 73.87852478027344 104.7539138793945 74.94680023193359 104.7539138793945 L 90.44725036621094 104.7539138793945 M 90.44725036621094 105.7539138793945 L 74.94680023193359 105.7539138793945 C 74.05359649658203 105.7539138793945 73.25584411621094 105.2206497192383 72.9144287109375 104.3953704833984 C 72.57331085205078 103.57080078125 72.76091003417969 102.6306991577148 73.39237976074219 102.0003509521484 C 77.11119842529297 98.27799987792969 84.82425689697266 90.56145477294922 87.19244384765625 88.19224548339844 C 84.81938934326172 85.81904602050781 77.08663940429688 78.08545684814453 73.39130401611328 74.38548278808594 C 72.76091003417969 73.75627136230469 72.57325744628906 72.81619262695312 72.91436004638672 71.99162292480469 C 73.25576782226562 71.16629028320312 74.05355072021484 70.63300323486328 74.94680023193359 70.63300323486328 L 90.44733428955078 70.63300323486328 C 91.02597808837891 70.63300323486328 91.59272003173828 70.86779022216797 92.00223541259766 71.27716064453125 L 106.47509765625 85.74864959716797 C 107.8205642700195 87.09626007080078 107.8205184936523 89.28794097900391 106.4756011962891 90.6348876953125 L 92.0023193359375 105.1095123291016 C 91.59273529052734 105.5190582275391 91.02595520019531 105.7539138793945 90.44725036621094 105.7539138793945 Z" stroke="none" fill="#f5f5f5"/>
    </g>
    <g id="Path_4218" data-name="Path 4218" transform="translate(-112.542 -228.471)" fill="#c5c5c5">
      <path d="M 81.38263702392578 105.2539138793945 L 74.94680023193359 105.2539138793945 C 74.24602508544922 105.2539138793945 73.64430999755859 104.8516998291016 73.37644958496094 104.204231262207 C 73.10889434814453 103.557487487793 73.25035858154297 102.8486022949219 73.74562835693359 102.3542098999023 C 77.67849731445312 98.41761016845703 86.07722473144531 90.01519012451172 87.89945983886719 88.19217681884766 C 86.07246398925781 86.36509704589844 77.65204620361328 77.94403076171875 73.74508666992188 74.03215026855469 C 73.25035095214844 73.53835296630859 73.10885620117188 72.82949066162109 73.37638854980469 72.18275451660156 C 73.64423370361328 71.53524017333984 74.24597930908203 71.13300323486328 74.94680023193359 71.13300323486328 L 81.38272094726562 71.13300323486328 C 81.82979583740234 71.13300323486328 82.2677001953125 71.31443023681641 82.58414459228516 71.63078308105469 L 97.05697631835938 86.10215759277344 C 98.20760345458984 87.25473022460938 98.20755767822266 89.12947845458984 97.05716705322266 90.28160095214844 L 82.58412933349609 104.755973815918 C 82.26766967773438 105.0724182128906 81.82975006103516 105.2539138793945 81.38263702392578 105.2539138793945 Z" stroke="none"/>
      <path d="M 81.38263702392578 104.7539138793945 C 81.70060729980469 104.7539138793945 82.00600433349609 104.6269836425781 82.23056030273438 104.4024276733398 L 96.70334625244141 89.92831420898438 C 97.66140747070312 88.96881103515625 97.66140747070312 87.41531372070312 96.70343780517578 86.45573425292969 L 82.23064422607422 71.98439025878906 C 82.006103515625 71.75991821289062 81.70069885253906 71.63300323486328 81.38272094726562 71.63300323486328 L 74.94680023193359 71.63300323486328 C 73.87852478027344 71.63300323486328 73.34299468994141 72.92437744140625 74.09886932373047 73.67881774902344 C 78.52382659912109 78.10935211181641 88.60648345947266 88.19210815429688 88.60648345947266 88.19210815429688 C 88.60648345947266 88.19210815429688 78.52517700195312 98.27755737304688 74.09886932373047 102.7080841064453 C 73.34308624267578 103.4625244140625 73.87852478027344 104.7539138793945 74.94680023193359 104.7539138793945 L 81.38263702392578 104.7539138793945 M 81.38263702392578 105.7539138793945 L 74.94680023193359 105.7539138793945 C 74.05359649658203 105.7539138793945 73.25583648681641 105.2206497192383 72.9144287109375 104.3953704833984 C 72.57331085205078 103.57080078125 72.76091766357422 102.6306991577148 73.39238739013672 102.0003509521484 C 77.11119842529297 98.27799987792969 84.82425689697266 90.56145477294922 87.19244384765625 88.19224548339844 C 84.81938934326172 85.81904602050781 77.08663940429688 78.08545684814453 73.39131927490234 74.38548278808594 C 72.76091766357422 73.75627899169922 72.57326507568359 72.81620025634766 72.91436004638672 71.99163055419922 C 73.25576782226562 71.16629028320312 74.05355072021484 70.63300323486328 74.94680023193359 70.63300323486328 L 81.38272094726562 70.63300323486328 C 81.96138763427734 70.63300323486328 82.52813720703125 70.86779022216797 82.93764495849609 71.27716827392578 L 97.41050720214844 85.74858856201172 C 98.75593566894531 87.09628295898438 98.75586700439453 89.28797912597656 97.41098785400391 90.6348876953125 L 82.93769836425781 105.109504699707 C 82.52816009521484 105.51904296875 81.96136474609375 105.7539138793945 81.38263702392578 105.7539138793945 Z" stroke="none" fill="#f5f5f5"/>
    </g>
    <path id="Path_4219" data-name="Path 4219" d="M135.885,89.929,121.412,104.4a1.2,1.2,0,0,1-.848.351h-3.771a1.2,1.2,0,0,0,.848-.351l14.891-14.893c.958-.959.958-1.676,0-2.636l-14.891-14.89a1.2,1.2,0,0,0-.848-.351h3.771a1.2,1.2,0,0,1,.848.351l14.473,14.471A2.457,2.457,0,0,1,135.885,89.929Z" transform="translate(-151.723 -228.472)" opacity="0.1"/>
  </g>
</svg>
