<svg xmlns="http://www.w3.org/2000/svg" xmlns:xlink="http://www.w3.org/1999/xlink" viewBox="0 0 31.81 31.81"><defs><style>.cls-1{fill:#ed1c24;}.cls-2{fill:#fff;}.cls-3{fill:url(#linear-gradient);}.cls-4{fill:url(#linear-gradient-2);}.cls-5{fill:url(#linear-gradient-3);}.cls-6{fill:url(#linear-gradient-4);}</style><linearGradient id="linear-gradient" x1="1362.1" y1="430.57" x2="1364.35" y2="430.57" gradientTransform="translate(-1399.95 -82.41) rotate(-13.54)" gradientUnits="userSpaceOnUse"><stop offset="0" stop-color="#23c3ff"/><stop offset="1" stop-color="#0091ff"/></linearGradient><linearGradient id="linear-gradient-2" x1="1362.1" y1="435.13" x2="1364.35" y2="435.13" xlink:href="#linear-gradient"/><linearGradient id="linear-gradient-3" x1="-1050.18" y1="-174.77" x2="-1047.93" y2="-174.77" gradientTransform="matrix(-0.97, -0.25, -0.25, 0.97, -1053.54, -79.36)" xlink:href="#linear-gradient"/><linearGradient id="linear-gradient-4" x1="-1050.18" y1="-170.21" x2="-1047.93" y2="-170.21" gradientTransform="matrix(-0.97, -0.25, -0.25, 0.97, -1053.54, -79.36)" xlink:href="#linear-gradient"/></defs><g id="Layer_2" data-name="Layer 2"><g id="Layer_1-2" data-name="Layer 1"><path class="cls-1" d="M16.06,0A15.91,15.91,0,1,0,31.81,16.06,15.92,15.92,0,0,0,16.06,0Z"/><path class="cls-2" d="M24.16,25.57l-1.13,0A7,7,0,0,0,9,25.42H7.82a8.17,8.17,0,1,1,16.34.16Z"/><path class="cls-2" d="M9.23,15.21A2.29,2.29,0,1,0,7,12.9,2.29,2.29,0,0,0,9.23,15.21Z"/><path class="cls-2" d="M22.94,15.34A2.29,2.29,0,1,0,20.68,13,2.27,2.27,0,0,0,22.94,15.34Z"/><path class="cls-2" d="M20.09,5.77l1,.33c.26.09.58.16.9.27a8.35,8.35,0,0,0,1,.18,4,4,0,0,0,1,.09c.17,0,.33,0,.49,0a2.3,2.3,0,0,0,.46,0,6.35,6.35,0,0,1,1,0,4.4,4.4,0,0,1-.86.62,1.36,1.36,0,0,1-.47.22,4.19,4.19,0,0,1-.56.13,2.58,2.58,0,0,1-.62.09l-.65,0a2.3,2.3,0,0,1-.64-.15c-.2-.06-.39-.16-.58-.23A2.44,2.44,0,0,1,21.1,7a1.64,1.64,0,0,1-.4-.33A2.52,2.52,0,0,1,20.22,6,2.45,2.45,0,0,1,20.09,5.77Z"/><path class="cls-2" d="M11.92,5.69s0,.1-.14.26a2.34,2.34,0,0,1-.49.6,1.68,1.68,0,0,1-.4.33,3.89,3.89,0,0,1-.5.3c-.18.07-.38.16-.58.22a2.82,2.82,0,0,1-.64.14l-.65,0a3.09,3.09,0,0,1-.62-.1,4.74,4.74,0,0,1-.57-.15,1.42,1.42,0,0,1-.46-.23A4.43,4.43,0,0,1,6,6.47a5.27,5.27,0,0,1,1,0,3.19,3.19,0,0,0,.45,0,4,4,0,0,1,.49,0,5.25,5.25,0,0,0,1-.07,8.68,8.68,0,0,0,1-.17c.32-.09.64-.16.91-.25C11.51,5.84,11.92,5.69,11.92,5.69Z"/><path class="cls-3" d="M26.63,19c.42-.1,1-.58.77-1.64a5.47,5.47,0,0,0-1.69-2.18,5.45,5.45,0,0,0-.5,2.71C25.47,18.92,26.22,19.07,26.63,19Z"/><path class="cls-4" d="M27.7,23.4a1.22,1.22,0,0,0,.77-1.63,5.45,5.45,0,0,0-1.69-2.19,5.38,5.38,0,0,0-.5,2.72C26.53,23.35,27.29,23.5,27.7,23.4Z"/><path class="cls-5" d="M5.12,18.76a1.23,1.23,0,0,1-.73-1.65A5.5,5.5,0,0,1,6.12,15a5.43,5.43,0,0,1,.44,2.73C6.29,18.73,5.54,18.87,5.12,18.76Z"/><path class="cls-6" d="M4,23.17c-.41-.1-1-.59-.73-1.65A5.36,5.36,0,0,1,5,19.37a5.35,5.35,0,0,1,.45,2.72C5.14,23.14,4.38,23.28,4,23.17Z"/></g></g></svg>