<svg xmlns="http://www.w3.org/2000/svg" width="82" height="77.68" viewBox="0 0 82 77.68">
  <g id="ic-cubic-yard" transform="translate(0 -13.28)">
    <path id="Path_4990" data-name="Path 4990" d="M41,199.771,0,223.446l41,23.671,41-23.671Z" transform="translate(0 -156.157)" fill="#6f7070"/>
    <path id="Path_4991" data-name="Path 4991" d="M42.9,348.131l17.566,10.142V343.666H42.555Z" transform="translate(-35.633 -276.646)" fill="#4f5454"/>
    <path id="Path_4992" data-name="Path 4992" d="M51.528,311.812l-8.973,5.181,8.973,5.18,8.972-5.18Z" transform="translate(-35.633 -249.973)" fill="#4f6060"/>
    <path id="Path_4993" data-name="Path 4993" d="M213.962,217.891h-9.619v2.971h0a2.44,2.44,0,0,0,1.4,1.872,7.552,7.552,0,0,0,6.809,0,2.442,2.442,0,0,0,1.4-1.872h0v-2.971Z" transform="translate(-171.105 -171.329)" fill="#c90505"/>
    <path id="Path_4994" data-name="Path 4994" d="M213.118,222.743a7.554,7.554,0,0,0,6.787-.013,2.442,2.442,0,0,0,1.4-1.872h0v-2.971h-8.192Z" transform="translate(-178.453 -171.326)" fill="#9b0a0a"/>
    <path id="Path_4995" data-name="Path 4995" d="M256.989,220.862h0v-2.971h-1.261v4.755A2.361,2.361,0,0,0,256.989,220.862Z" transform="translate(-214.135 -171.329)" fill="#7a0505"/>
    <path id="Path_4996" data-name="Path 4996" d="M212.555,200.436a7.552,7.552,0,0,0-6.809,0c-1.874,1.081-1.874,2.85,0,3.931a7.552,7.552,0,0,0,6.809,0C214.428,203.286,214.428,201.517,212.555,200.436Z" transform="translate(-171.102 -156.034)" fill="#ff4f12"/>
    <path id="Path_4997" data-name="Path 4997" d="M219.789,200.436a7.552,7.552,0,0,0-6.809,0" transform="translate(-178.337 -156.034)" fill="#ff8415"/>
    <path id="Path_4998" data-name="Path 4998" d="M212.98,208.542a7.552,7.552,0,0,0,6.809,0c1.873-1.081,1.873-2.85,0-3.931" transform="translate(-178.337 -160.209)" fill="#ea3b0c"/>
    <path id="Path_4999" data-name="Path 4999" d="M254.842,208.542c1.873-1.081,1.873-2.85,0-3.931" transform="translate(-213.39 -160.209)" fill="#ea3b0c"/>
    <path id="Path_5000" data-name="Path 5000" d="M212.98,228.781a7.552,7.552,0,0,0,6.809,0" transform="translate(-178.337 -180.448)" fill="#c90505"/>
    <path id="Path_5001" data-name="Path 5001" d="M111.9,45.2,131.439,33.92a.351.351,0,0,1,.482.129.245.245,0,0,1,.008.026.345.345,0,0,0-.008-.321.351.351,0,0,0-.482-.129L111.9,44.9a.351.351,0,0,0-.138.455.353.353,0,0,1,.138-.16Z" transform="translate(-93.557 -16.996)"/>
    <path id="Path_5002" data-name="Path 5002" d="M91.543,91.6l3.092,1.779-3.092,1.8-3.093-1.8Z" transform="translate(-74.063 -65.578)" fill="#67726c"/>
    <path id="Path_5003" data-name="Path 5003" d="M94.635,102.534l-3.092,1.8-3.093-1.8" transform="translate(-74.063 -74.736)" fill="#5b6660"/>
    <path id="Path_5004" data-name="Path 5004" d="M94.234,93.456l2.57,1.479-2.57,1.5-2.57-1.5Z" transform="translate(-76.754 -67.135)" fill="#46544d"/>
    <path id="Path_5005" data-name="Path 5005" d="M93.527,96.915l2.267,1.32,2.266-1.32L95.794,95.61Z" transform="translate(-78.314 -68.938)" fill="#414f48"/>
    <path id="Path_5006" data-name="Path 5006" d="M107.465,98.235l2.266-1.32-2.266-1.305" transform="translate(-89.985 -68.938)" fill="#323f38"/>
    <path id="Path_5007" data-name="Path 5007" d="M88.45,102.534l3.093,1.8v3.7l-3.093-1.786Z" transform="translate(-74.063 -74.736)" fill="#62776e"/>
    <path id="Path_5008" data-name="Path 5008" d="M88.45,102.534l3.093,1.8v3.7" transform="translate(-74.063 -74.736)" fill="#566860"/>
    <path id="Path_5009" data-name="Path 5009" d="M110.557,102.534l-3.092,1.8v3.7l3.092-1.786Z" transform="translate(-89.985 -74.736)" fill="#46544d"/>
    <path id="Path_5010" data-name="Path 5010" d="M110.557,102.534l-3.092,1.8v3.7" transform="translate(-89.985 -74.736)" fill="#414f48"/>
    <path id="Path_5011" data-name="Path 5011" d="M223.15,13.28l2.092,1.2L223.15,15.7l-2.092-1.219Z" transform="translate(-185.101)"/>
    <path id="Path_5012" data-name="Path 5012" d="M225.242,20.681,223.15,21.9l-2.092-1.219" transform="translate(-185.101 -6.197)"/>
    <path id="Path_5013" data-name="Path 5013" d="M224.971,14.541l1.737,1-1.737,1.013-1.739-1.013Z" transform="translate(-186.921 -1.056)"/>
    <path id="Path_5014" data-name="Path 5014" d="M224.488,16.885l1.534.893,1.533-.893L226.022,16Z" transform="translate(-187.973 -2.279)"/>
    <path id="Path_5015" data-name="Path 5015" d="M223.15,17.778l1.533-.893L223.15,16m-2.092.761,2.092,1.219v2.5l-2.092-1.208Z" transform="translate(-185.101 -2.279)"/>
    <path id="Path_5016" data-name="Path 5016" d="M221.058,20.681,223.15,21.9v2.5m2.092-3.72L223.15,21.9v2.5l2.092-1.208Z" transform="translate(-185.101 -6.197)"/>
    <path id="Path_5017" data-name="Path 5017" d="M236.013,20.681,233.921,21.9v2.5" transform="translate(-195.872 -6.197)"/>
    <path id="Path_5018" data-name="Path 5018" d="M68.216,296.956a.321.321,0,0,1-.161-.043l-6.55-3.782-6.549,3.781a.323.323,0,1,1-.323-.559l6.71-3.874a.323.323,0,0,1,.323,0l6.712,3.874a.323.323,0,0,1-.162.6Zm-.559-5.166a.321.321,0,0,1-.161-.043L61.343,288.2a.323.323,0,1,1,.323-.559l6.153,3.551a.323.323,0,0,1-.162.6Z" transform="translate(-45.611 -229.694)" fill="#5e1235"/>
    <path id="Path_5019" data-name="Path 5019" d="M58.234,269.115a.323.323,0,0,1-.161-.6l6.151-3.551a.323.323,0,1,1,.323.559L58.4,269.072A.322.322,0,0,1,58.234,269.115ZM69.7,264.226a.315.315,0,0,1-.161-.044l-5.313-3.067a.323.323,0,0,1,.323-.559l5.313,3.067a.323.323,0,0,1-.162.6Z" transform="translate(-48.491 -207.019)" fill="#5e1235"/>
    <path id="Path_5020" data-name="Path 5020" d="M63.394,246.941a.322.322,0,0,1-.161-.6l5.311-3.067a.323.323,0,1,1,.323.559L63.555,246.9a.32.32,0,0,1-.162.043Zm9.955-3.746a.321.321,0,0,1-.161-.043l-4.643-2.68a.323.323,0,0,1,.323-.559l4.643,2.68a.323.323,0,0,1-.162.6Z" transform="translate(-52.811 -189.733)" fill="#5e1235"/>
    <path id="Path_5021" data-name="Path 5021" d="M67.509,226.034a.323.323,0,0,1-.161-.6l4.642-2.68a.323.323,0,1,1,.323.559l-4.642,2.68A.324.324,0,0,1,67.509,226.034Zm8.868-3.573a.319.319,0,0,1-.161-.044l-4.226-2.439a.323.323,0,0,1,.323-.559l4.226,2.44a.322.322,0,0,1-.162.6Z" transform="translate(-56.257 -172.573)" fill="#5e1235"/>
    <path id="Path_5022" data-name="Path 5022" d="M70.073,206.885a.322.322,0,0,1-.161-.6l4.224-2.44a.323.323,0,1,1,.323.559l-4.224,2.439a.328.328,0,0,1-.162.043Zm7.874-3.358a.315.315,0,0,1-.161-.044l-3.65-2.107a.323.323,0,1,1,.323-.559l3.65,2.107a.323.323,0,0,1-.162.6Z" transform="translate(-58.403 -156.997)" fill="#5e1235"/>
    <path id="Path_5023" data-name="Path 5023" d="M73.617,190a.323.323,0,0,1-.161-.6l3.648-2.107a.323.323,0,1,1,.323.559l-3.648,2.107A.316.316,0,0,1,73.617,190Zm6.838-2.894a.321.321,0,0,1-.161-.043l-3.19-1.842a.323.323,0,0,1,.323-.559l3.19,1.84a.323.323,0,0,1-.162.6Z" transform="translate(-61.372 -143.466)" fill="#5e1235"/>
    <path id="Path_5024" data-name="Path 5024" d="M76.449,187.1a.323.323,0,0,1-.161-.6l3.188-1.84a.323.323,0,1,1,.323.559l-3.188,1.842A.336.336,0,0,1,76.449,187.1Z" transform="translate(-63.743 -143.464)" fill="#5e1235"/>
    <path id="Path_5025" data-name="Path 5025" d="M61.49,190.056l-.307-.178V216.8l-6.036-3.484,3.887-24.677-.6-.347-3.96,25.142a.325.325,0,0,0,.158.331l6.712,3.874a.318.318,0,0,0,.161.044.324.324,0,0,0,.323-.323V189.862Z" transform="translate(-45.61 -146.542)" fill="#8c1143"/>
    <path id="Path_5026" data-name="Path 5026" d="M99.128,188.223l-.6.345,3.888,24.688-6.035,3.484V189.807l-.338.195-.307-.178V217.3a.322.322,0,0,0,.162.279.318.318,0,0,0,.161.044.326.326,0,0,0,.162-.044l6.71-3.874a.323.323,0,0,0,.158-.331Z" transform="translate(-80.165 -146.487)" fill="#8c1143"/>
    <path id="Path_5027" data-name="Path 5027" d="M64.388,313.622a.324.324,0,0,1-.161-.043l-6.153-3.552a.323.323,0,0,1,.323-.559l6.153,3.551a.323.323,0,0,1-.162.6Z" transform="translate(-48.493 -247.975)" fill="#b52d4b"/>
    <path id="Path_5028" data-name="Path 5028" d="M68.709,288.455a.325.325,0,0,1-.281-.161.322.322,0,0,1,.119-.441L74.7,284.3a.323.323,0,1,1,.323.559l-6.151,3.552A.335.335,0,0,1,68.709,288.455Zm0-5.373a.312.312,0,0,1-.161-.044l-5.313-3.067a.323.323,0,0,1,.323-.559l5.313,3.067a.323.323,0,0,1-.162.6Z" transform="translate(-52.814 -222.807)" fill="#b52d4b"/>
    <path id="Path_5029" data-name="Path 5029" d="M72.157,263.8a.323.323,0,0,1-.313-.407.322.322,0,0,1,.151-.2l5.311-3.067a.323.323,0,1,1,.323.559l-5.311,3.066A.333.333,0,0,1,72.157,263.8Zm0-4.132a.313.313,0,0,1-.161-.044l-4.643-2.681a.323.323,0,0,1,.323-.559l4.643,2.682a.322.322,0,0,1-.162.6Z" transform="translate(-56.262 -203.524)" fill="#b52d4b"/>
    <path id="Path_5030" data-name="Path 5030" d="M74.3,241.265a.322.322,0,0,1-.161-.6l4.642-2.682a.323.323,0,1,1,.323.559l-4.642,2.681A.317.317,0,0,1,74.3,241.265Zm0-3.815a.312.312,0,0,1-.161-.044l-4.226-2.44a.322.322,0,1,1,.322-.559l4.226,2.44a.323.323,0,0,1-.161.6Z" transform="translate(-58.409 -185.123)" fill="#b52d4b"/>
    <path id="Path_5031" data-name="Path 5031" d="M77.273,220.175a.322.322,0,0,1-.161-.6l4.224-2.44a.322.322,0,1,1,.322.559l-4.224,2.44A.324.324,0,0,1,77.273,220.175Zm0-3.691a.317.317,0,0,1-.161-.043l-3.65-2.106a.323.323,0,1,1,.323-.559l3.65,2.106a.323.323,0,0,1-.162.6Z" transform="translate(-61.378 -167.847)" fill="#b52d4b"/>
    <path id="Path_5032" data-name="Path 5032" d="M79.64,201.584a.322.322,0,0,1-.161-.6l3.648-2.106a.323.323,0,1,1,.323.559L79.8,201.541A.334.334,0,0,1,79.64,201.584Zm0-3.16a.312.312,0,0,1-.161-.044l-3.19-1.84a.323.323,0,0,1,.323-.559l3.19,1.842a.322.322,0,0,1-.162.6Z" transform="translate(-63.745 -152.947)" fill="#b52d4b"/>
    <path id="Path_5033" data-name="Path 5033" d="M96.054,198.417a.322.322,0,0,1-.161-.6l3.188-1.842a.323.323,0,1,1,.323.559l-3.188,1.84A.324.324,0,0,1,96.054,198.417Z" transform="translate(-80.159 -152.94)" fill="#ce3a61"/>
    <path id="Path_5034" data-name="Path 5034" d="M79.73,226.44a.2.2,0,0,1-.2-.2V201.364l.1-.17.682-.393a.2.2,0,0,1,.2.341l-.582.335v24.766a.2.2,0,0,1-.2.2Z" transform="translate(-66.596 -156.997)" fill="#7a8d93"/>
    <path id="Path_5035" data-name="Path 5035" d="M81.655,209.569a.158.158,0,0,1-.081-.021l-1.13-.652a.163.163,0,1,1,.163-.283l1.13.652a.164.164,0,0,1,.06.223A.162.162,0,0,1,81.655,209.569Zm0,.777a.158.158,0,0,1-.081-.021l-1.13-.651a.163.163,0,1,1,.163-.283l1.13.651a.164.164,0,0,1,.06.223A.162.162,0,0,1,81.655,210.346Zm0,.78a.159.159,0,0,1-.081-.022l-1.13-.653a.163.163,0,1,1,.163-.282l1.13.651a.164.164,0,0,1-.081.306Zm0,.777a.165.165,0,0,1-.081-.021l-1.13-.653a.163.163,0,1,1,.163-.283l1.13.651a.163.163,0,0,1-.081.3Zm0,.778a.16.16,0,0,1-.081-.022l-1.13-.652a.163.163,0,1,1,.163-.283l1.13.653a.164.164,0,0,1-.081.3Zm0,.777a.159.159,0,0,1-.081-.022l-1.13-.652a.164.164,0,0,1-.06-.223.162.162,0,0,1,.223-.059l1.13.652a.163.163,0,0,1-.081.3Zm0,.777a.165.165,0,0,1-.081-.021l-1.13-.652a.164.164,0,0,1,.163-.284l1.13.653a.163.163,0,0,1-.081.3Zm0,.778a.172.172,0,0,1-.081-.021l-1.13-.653a.163.163,0,1,1,.163-.282l1.13.652a.164.164,0,0,1,.06.223A.162.162,0,0,1,81.655,215.013Zm0,.778a.158.158,0,0,1-.081-.021l-1.13-.652a.164.164,0,0,1,.163-.284l1.13.653a.162.162,0,0,1,.06.221A.164.164,0,0,1,81.655,215.791Zm0,.775a.158.158,0,0,1-.081-.021l-1.13-.651a.163.163,0,1,1,.163-.283l1.13.652a.164.164,0,0,1,.06.223.162.162,0,0,1-.141.081Zm0,.778a.158.158,0,0,1-.081-.021l-1.13-.651a.164.164,0,0,1-.06-.223.163.163,0,0,1,.223-.06l1.13.651a.163.163,0,0,1-.081.3Zm0,.779a.166.166,0,0,1-.081-.022l-1.13-.653a.163.163,0,0,1,.163-.282l1.13.652a.164.164,0,0,1,.06.223A.166.166,0,0,1,81.655,218.122Zm0,.777a.171.171,0,0,1-.081-.02l-1.13-.653a.163.163,0,1,1,.163-.282l1.13.651a.163.163,0,0,1-.081.3Zm0,.778a.165.165,0,0,1-.081-.021L80.444,219a.164.164,0,0,1-.06-.223.162.162,0,0,1,.223-.06l1.13.651a.164.164,0,0,1-.081.3Zm0,.778a.154.154,0,0,1-.081-.023l-1.13-.653a.163.163,0,1,1,.163-.282l1.13.653a.164.164,0,0,1-.081.3Zm0,.777a.165.165,0,0,1-.081-.021l-1.13-.652a.165.165,0,0,1-.06-.224.163.163,0,0,1,.223-.06l1.13.653a.163.163,0,0,1-.081.3Zm0,.778a.16.16,0,0,1-.081-.022l-1.13-.651a.164.164,0,0,1,.163-.284l1.13.653a.164.164,0,0,1-.081.3Zm0,.777a.165.165,0,0,1-.081-.021l-1.13-.653a.163.163,0,1,1,.163-.283l1.13.653a.162.162,0,0,1,.06.221A.164.164,0,0,1,81.655,222.787Z" transform="translate(-67.29 -163.542)" fill="#b2c8ce"/>
    <path id="Path_5036" data-name="Path 5036" d="M81.619,281.266a.159.159,0,0,1-.081-.021l-1.13-.651a.163.163,0,1,1,.163-.283l1.13.651a.163.163,0,0,1-.081.3Zm0,.78a.16.16,0,0,1-.081-.022l-1.13-.653a.163.163,0,1,1,.163-.282l1.13.651a.164.164,0,0,1-.081.306Zm0,.777a.165.165,0,0,1-.081-.021l-1.13-.653a.163.163,0,1,1,.163-.283l1.13.651a.163.163,0,0,1-.081.3Zm0,.778a.16.16,0,0,1-.081-.022l-1.13-.652a.163.163,0,0,1,.163-.283l1.13.653a.164.164,0,0,1-.081.3Zm0,.777a.154.154,0,0,1-.081-.022l-1.13-.651a.163.163,0,1,1,.163-.283l1.13.653a.163.163,0,0,1-.081.3Zm0,.778a.165.165,0,0,1-.081-.021l-1.13-.652a.164.164,0,0,1,.163-.284l1.13.653a.163.163,0,0,1-.081.3Zm0,.778a.172.172,0,0,1-.081-.021l-1.13-.653a.163.163,0,1,1,.163-.282l1.13.652a.164.164,0,0,1,.06.223A.162.162,0,0,1,81.619,285.933Zm0,.777a.165.165,0,0,1-.081-.021l-1.13-.653a.163.163,0,1,1,.163-.283l1.13.653a.163.163,0,0,1-.081.3Zm0,.774a.158.158,0,0,1-.081-.021l-1.13-.651a.163.163,0,1,1,.163-.283l1.13.652a.164.164,0,0,1,.06.224A.161.161,0,0,1,81.619,287.485Zm0,.778a.158.158,0,0,1-.081-.021l-1.13-.651a.163.163,0,0,1,.039-.3.163.163,0,0,1,.124.017l1.13.651a.163.163,0,0,1-.081.3Zm0,.779a.16.16,0,0,1-.081-.022l-1.13-.653a.163.163,0,1,1,.163-.282l1.13.652a.164.164,0,0,1,.06.223A.166.166,0,0,1,81.619,289.042Zm0,.777a.172.172,0,0,1-.081-.021l-1.13-.653a.163.163,0,1,1,.163-.282l1.13.651a.163.163,0,0,1-.081.3Zm0,.778a.159.159,0,0,1-.081-.022l-1.13-.652a.163.163,0,1,1,.163-.283l1.13.652a.164.164,0,0,1-.081.3Zm0,.778a.153.153,0,0,1-.081-.022l-1.13-.653a.163.163,0,1,1,.163-.282l1.13.653a.163.163,0,0,1-.081.3Zm0,.777a.165.165,0,0,1-.081-.021l-1.13-.652a.165.165,0,0,1-.06-.224.163.163,0,0,1,.223-.06l1.13.653a.163.163,0,0,1-.081.3Zm0,.778a.16.16,0,0,1-.081-.023l-1.13-.652a.163.163,0,1,1,.163-.283l1.13.653a.164.164,0,0,1-.081.306Zm0,.777a.165.165,0,0,1-.081-.021l-1.13-.653a.163.163,0,1,1,.163-.283l1.13.653a.163.163,0,0,1-.081.3Z" transform="translate(-67.254 -223.577)" fill="#b2c8ce"/>
    <path id="Path_5037" data-name="Path 5037" d="M88.108,231.292a.2.2,0,0,1-.2-.2V206.217l.1-.172.681-.393a.2.2,0,0,1,.2.341l-.582.337v24.764a.2.2,0,0,1-.2.2Z" transform="translate(-73.611 -161.062)" fill="#909fa5"/>
    <path id="Path_5038" data-name="Path 5038" d="M73.6,185.261v.538l-4.667-2.7v-.534l4.667,2.7" transform="translate(-57.722 -141.748)" fill="#151918"/>
    <path id="Path_5039" data-name="Path 5039" d="M97.627,185.261v.538l4.667-2.7v-.534l-4.667,2.7" transform="translate(-81.747 -141.748)" fill="#232b2a"/>
    <path id="Path_5040" data-name="Path 5040" d="M68.935,168.673l4.667,2.7,4.681-2.7-4.674-2.7Z" transform="translate(-57.722 -127.858)" fill="#444c4b"/>
    <path id="Path_5041" data-name="Path 5041" d="M68.935,182.563l4.667,2.7,4.681-2.7" transform="translate(-57.722 -141.748)" fill="#394241"/>
    <path id="Path_5042" data-name="Path 5042" d="M87.741,166.907v3.535l1.608.929,1.608-.927V166.9l-1.6-.924Z" transform="translate(-73.469 -127.858)" fill="#2b3332"/>
    <path id="Path_5043" data-name="Path 5043" d="M90.957,108.024H87.741v12.052h0a.829.829,0,0,0,.468.609,2.527,2.527,0,0,0,2.277,0,.828.828,0,0,0,.467-.609h0Z" transform="translate(-73.469 -79.333)" fill="#46514f"/>
    <path id="Path_5044" data-name="Path 5044" d="M88.667,120.265v.062h0a.719.719,0,0,0,.024.125,1.17,1.17,0,0,0,.293.233,2.527,2.527,0,0,0,2.277,0,.828.828,0,0,0,.467-.609h0V108.025H88.668v12.24h0Z" transform="translate(-74.245 -79.334)" fill="#394241"/>
    <path id="Path_5045" data-name="Path 5045" d="M89.864,120.465v.083h0c0,.022.005.044.009.065a1.284,1.284,0,0,0,.113.073,2.527,2.527,0,0,0,2.277,0,.828.828,0,0,0,.467-.609h0V108.025h-2.87v12.44h0Z" transform="translate(-75.247 -79.334)" fill="#2b3332"/>
    <path id="Path_5046" data-name="Path 5046" d="M97.457,120.773v.1h0c0,.027.005.054.01.08l.007,0a2.33,2.33,0,0,0,1.145-.271.828.828,0,0,0,.467-.609h0V108.026H97.458v12.747h0Z" transform="translate(-81.605 -79.335)" fill="#232b2a"/>
    <path id="Path_5047" data-name="Path 5047" d="M90.486,102.19a2.527,2.527,0,0,0-2.277,0,.7.7,0,0,0,0,1.315,2.576,2.576,0,0,0,1.981.135,1.951,1.951,0,0,0,.3-.135A.7.7,0,0,0,90.486,102.19Z" transform="translate(-73.467 -74.221)" fill="#bccecc"/>
    <path id="Path_5048" data-name="Path 5048" d="M90.632,104.9a2.576,2.576,0,0,0,1.981.135,1.952,1.952,0,0,0,.3-.135.7.7,0,0,0,0-1.315" transform="translate(-75.89 -75.616)" fill="#a4bcbb"/>
    <path id="Path_5049" data-name="Path 5049" d="M107.011,124.107a.153.153,0,0,0,.154-.154V112.272l-.076-.133-.533-.307a.154.154,0,0,0-.153.266l.455.263v11.592a.153.153,0,0,0,.154.154Z" transform="translate(-89.035 -82.508)" fill="#7a8d93"/>
    <path id="Path_5050" data-name="Path 5050" d="M103.948,118.671a.13.13,0,0,0,.063-.017l.883-.509a.127.127,0,0,0-.127-.22l-.883.509a.127.127,0,0,0,.064.237Zm0,.607a.124.124,0,0,0,.063-.017l.883-.508a.127.127,0,0,0-.127-.221l-.883.509a.127.127,0,0,0,.064.237Zm0,.609a.124.124,0,0,0,.063-.018l.883-.509a.127.127,0,0,0-.127-.22l-.883.509a.128.128,0,0,0,.064.238Zm0,.607a.129.129,0,0,0,.063-.016l.883-.509a.127.127,0,0,0-.127-.22l-.883.508a.127.127,0,0,0,.064.237Zm0,.609a.13.13,0,0,0,.063-.018l.883-.509a.128.128,0,0,0-.127-.221l-.883.51a.128.128,0,0,0,.064.238Zm0,.607a.125.125,0,0,0,.063-.019l.883-.508a.127.127,0,0,0-.127-.22l-.883.51a.125.125,0,0,0-.046.173A.127.127,0,0,0,103.948,121.71Zm0,.607a.137.137,0,0,0,.063-.016l.883-.509a.128.128,0,0,0,.046-.174.126.126,0,0,0-.174-.047l-.883.51a.126.126,0,0,0,.064.236Zm0,.608a.149.149,0,0,0,.063-.015l.883-.511a.127.127,0,1,0-.127-.22l-.883.509a.126.126,0,0,0-.046.174A.124.124,0,0,0,103.948,122.924Zm0,.607a.134.134,0,0,0,.063-.015l.883-.51a.128.128,0,0,0-.127-.221l-.883.511a.126.126,0,0,0,.064.236Zm0,.605a.13.13,0,0,0,.063-.017l.883-.508a.129.129,0,0,0,.046-.175.126.126,0,0,0-.174-.046l-.883.509a.126.126,0,0,0-.046.174A.124.124,0,0,0,103.948,124.137Zm0,.608a.124.124,0,0,0,.063-.017l.883-.508a.129.129,0,0,0,.046-.175.127.127,0,0,0-.174-.046l-.883.508a.127.127,0,0,0,.064.238Zm0,.609a.137.137,0,0,0,.063-.017l.883-.51a.127.127,0,1,0-.127-.22l-.883.509a.126.126,0,0,0-.046.174A.128.128,0,0,0,103.948,125.353Zm0,.607a.143.143,0,0,0,.063-.016l.883-.511a.127.127,0,0,0,.046-.174.126.126,0,0,0-.174-.046l-.883.508a.127.127,0,0,0,.064.238Zm0,.607a.137.137,0,0,0,.063-.016l.883-.509a.128.128,0,0,0,.046-.174.125.125,0,0,0-.174-.047l-.883.509a.127.127,0,0,0,.064.237Zm0,.608a.13.13,0,0,0,.063-.018l.883-.509a.127.127,0,0,0-.127-.22l-.883.51a.127.127,0,0,0,.064.237Zm0,.607a.129.129,0,0,0,.063-.017l.883-.508a.129.129,0,0,0,.046-.175.126.126,0,0,0-.174-.046l-.883.509a.126.126,0,0,0-.046.174A.129.129,0,0,0,103.948,127.783Zm0,.608a.136.136,0,0,0,.063-.017l.883-.51a.128.128,0,0,0-.127-.221l-.883.511a.126.126,0,0,0-.046.174A.128.128,0,0,0,103.948,128.391Zm0,.607a.137.137,0,0,0,.063-.016l.883-.511a.127.127,0,1,0-.127-.22l-.883.51a.125.125,0,0,0-.046.173A.127.127,0,0,0,103.948,129Z" transform="translate(-86.933 -87.609)" fill="#b2c8ce"/>
    <path id="Path_5051" data-name="Path 5051" d="M100.435,127.866a.153.153,0,0,0,.154-.154V116.034l-.076-.134-.533-.308a.154.154,0,0,0-.153.267l.455.263v11.59A.153.153,0,0,0,100.435,127.866Z" transform="translate(-83.524 -85.653)" fill="#909fa5"/>
    <path id="Path_5052" data-name="Path 5052" d="M93.174,39.645a.4.4,0,0,1-.2-.746L115.132,26.11a.4.4,0,1,1,.4.693L93.374,39.593A.4.4,0,0,1,93.174,39.645Z" transform="translate(-77.683 -10.697)"/>
    <path id="Path_5053" data-name="Path 5053" d="M88.184,103.326H83.61v.354l0,.081a1.157,1.157,0,0,0,.664.89,3.589,3.589,0,0,0,3.238,0,1.158,1.158,0,0,0,.664-.89l0-.081Z" transform="translate(-70.01 -75.399)" fill="#232b2a"/>
    <path id="Path_5054" data-name="Path 5054" d="M87.717,104.651a3.589,3.589,0,0,0,3.238,0,1.158,1.158,0,0,0,.664-.89l0-.081v-.353H87.717Z" transform="translate(-73.449 -75.399)"/>
    <path id="Path_5055" data-name="Path 5055" d="M87.515,95.826a3.589,3.589,0,0,0-3.238,0,.988.988,0,0,0,0,1.869,3.589,3.589,0,0,0,3.238,0A.988.988,0,0,0,87.515,95.826Z" transform="translate(-70.009 -68.796)" fill="#2d3534"/>
    <path id="Path_5056" data-name="Path 5056" d="M90.955,95.826a3.589,3.589,0,0,0-3.238,0" transform="translate(-73.449 -68.796)" fill="#c7d8d5"/>
    <path id="Path_5057" data-name="Path 5057" d="M87.717,99.681a3.589,3.589,0,0,0,3.238,0,.988.988,0,0,0,0-1.869" transform="translate(-73.449 -70.782)" fill="#232b2a"/>
    <path id="Path_5058" data-name="Path 5058" d="M89,96.957a3.065,3.065,0,0,0-2.764,0,.843.843,0,0,0,0,1.6,3.067,3.067,0,0,0,2.764,0A.843.843,0,0,0,89,96.957Z" transform="translate(-71.731 -69.79)" fill="#90afad"/>
    <path id="Path_5059" data-name="Path 5059" d="M89.52,97.767a2.884,2.884,0,0,0-2.6,0,.794.794,0,0,0,0,1.5,2.884,2.884,0,0,0,2.6,0A.794.794,0,0,0,89.52,97.767Z" transform="translate(-72.334 -70.486)" fill="#7a9e9a"/>
    <path id="Path_5060" data-name="Path 5060" d="M89.683,100.856a2.884,2.884,0,0,0,2.6,0,.794.794,0,0,0,0-1.5" transform="translate(-75.095 -72.074)" fill="#6a918b"/>
    <path id="Path_5061" data-name="Path 5061" d="M89.438,101.431H85.469v.306l0,.07a1,1,0,0,0,.577.773,3.12,3.12,0,0,0,2.81,0,1.006,1.006,0,0,0,.576-.773l0-.07v-.306Z" transform="translate(-71.567 -73.812)" fill="#232b2a"/>
    <path id="Path_5062" data-name="Path 5062" d="M89.033,102.58a3.12,3.12,0,0,0,2.81,0,1.006,1.006,0,0,0,.576-.773l0-.07v-.307h-3.39Z" transform="translate(-74.551 -73.812)"/>
    <path id="Path_5063" data-name="Path 5063" d="M88.855,94.921a3.12,3.12,0,0,0-2.81,0,.857.857,0,0,0,0,1.623,3.124,3.124,0,0,0,2.81,0A.858.858,0,0,0,88.855,94.921Z" transform="translate(-71.563 -68.081)" fill="#2d3534"/>
    <path id="Path_5064" data-name="Path 5064" d="M91.843,94.921a3.12,3.12,0,0,0-2.81,0" transform="translate(-74.551 -68.081)" fill="#414c4a"/>
    <path id="Path_5065" data-name="Path 5065" d="M89.033,98.265a3.124,3.124,0,0,0,2.81,0,.858.858,0,0,0,0-1.623" transform="translate(-74.551 -69.802)" fill="#232b2a"/>
    <path id="Path_5066" data-name="Path 5066" d="M90.145,95.9a2.663,2.663,0,0,0-2.4,0,.732.732,0,0,0,0,1.385,2.655,2.655,0,0,0,2.4,0A.732.732,0,0,0,90.145,95.9Z" transform="translate(-73.059 -68.944)"/>
    <path id="Path_5067" data-name="Path 5067" d="M90.6,96.6a2.5,2.5,0,0,0-2.256,0,.688.688,0,0,0,0,1.3,2.5,2.5,0,0,0,2.256,0A.688.688,0,0,0,90.6,96.6Z" transform="translate(-73.583 -69.544)" fill="#2b3332"/>
    <path id="Path_5068" data-name="Path 5068" d="M90.734,99.287a2.5,2.5,0,0,0,2.256,0,.688.688,0,0,0,0-1.3m26.831,18.169H108.228v.894l.008.206a2.932,2.932,0,0,0,1.684,2.256,9.1,9.1,0,0,0,8.207,0,2.933,2.933,0,0,0,1.684-2.256l.01-.206v-.894Z" transform="translate(-75.975 -70.927)" fill="#232b2a"/>
    <path id="Path_5069" data-name="Path 5069" d="M208.687,213.041a9.1,9.1,0,0,0,8.207,0,2.933,2.933,0,0,0,1.684-2.256l.01-.206v-.895h-9.9Z" transform="translate(-174.742 -164.457)"/>
    <path id="Path_5070" data-name="Path 5070" d="M208.176,190.673a9.1,9.1,0,0,0-8.207,0c-2.258,1.3-2.258,3.434,0,4.738a9.1,9.1,0,0,0,8.207,0C210.433,194.108,210.432,191.976,208.176,190.673Z" transform="translate(-166.024 -147.719)" fill="#2d3534"/>
    <path id="Path_5071" data-name="Path 5071" d="M216.894,190.673a9.1,9.1,0,0,0-8.207,0" transform="translate(-174.742 -147.719)" fill="#c7d8d5"/>
    <path id="Path_5072" data-name="Path 5072" d="M208.687,200.444a9.1,9.1,0,0,0,8.207,0c2.258-1.3,2.257-3.434,0-4.738" transform="translate(-174.742 -152.753)" fill="#232b2a"/>
    <path id="Path_5073" data-name="Path 5073" d="M211.939,193.538a7.777,7.777,0,0,0-7.006,0c-1.928,1.113-1.928,2.934,0,4.045a7.777,7.777,0,0,0,7.006,0C213.866,196.473,213.866,194.651,211.939,193.538Z" transform="translate(-170.388 -150.239)" fill="#90afad"/>
    <path id="Path_5074" data-name="Path 5074" d="M213.259,195.592a7.309,7.309,0,0,0-6.588,0c-1.812,1.046-1.812,2.757,0,3.8a7.317,7.317,0,0,0,6.588,0C215.069,198.349,215.069,196.638,213.259,195.592Z" transform="translate(-171.917 -152.001)" fill="#7a9e9a"/>
    <path id="Path_5075" data-name="Path 5075" d="M213.665,203.432a7.318,7.318,0,0,0,6.588,0c1.81-1.047,1.81-2.759,0-3.8" transform="translate(-178.911 -156.037)" fill="#6a918b"/>
    <path id="Path_5076" data-name="Path 5076" d="M213.049,204.879H202.988v.776l.008.179a2.55,2.55,0,0,0,1.461,1.959,7.91,7.91,0,0,0,7.124,0,2.553,2.553,0,0,0,1.46-1.959l.008-.179Z" transform="translate(-169.97 -160.434)" fill="#232b2a"/>
    <path id="Path_5077" data-name="Path 5077" d="M212.019,207.792a7.91,7.91,0,0,0,7.124,0,2.553,2.553,0,0,0,1.46-1.959l.008-.179v-.775h-8.592v2.914Z" transform="translate(-177.532 -160.433)"/>
    <path id="Path_5078" data-name="Path 5078" d="M211.572,188.377a7.91,7.91,0,0,0-7.124,0c-1.961,1.133-1.961,2.982,0,4.114a7.91,7.91,0,0,0,7.124,0C213.531,191.359,213.531,189.509,211.572,188.377Z" transform="translate(-169.961 -145.907)" fill="#2d3534"/>
    <path id="Path_5079" data-name="Path 5079" d="M219.143,188.377a7.91,7.91,0,0,0-7.124,0" transform="translate(-177.532 -145.907)" fill="#414c4a"/>
    <path id="Path_5080" data-name="Path 5080" d="M212.019,196.85a7.91,7.91,0,0,0,7.124,0c1.958-1.133,1.958-2.982,0-4.114" transform="translate(-177.532 -150.266)" fill="#232b2a"/>
    <path id="Path_5081" data-name="Path 5081" d="M214.844,190.864a6.758,6.758,0,0,0-6.081,0c-1.673.967-1.673,2.545,0,3.511a6.734,6.734,0,0,0,6.081,0C216.517,193.409,216.517,191.832,214.844,190.864Z" transform="translate(-173.756 -148.094)"/>
    <path id="Path_5082" data-name="Path 5082" d="M215.981,192.641a6.351,6.351,0,0,0-5.72,0c-1.572.909-1.572,2.393,0,3.3a6.346,6.346,0,0,0,5.72,0C217.553,195.033,217.553,193.55,215.981,192.641Z" transform="translate(-175.073 -149.616)" fill="#2b3332"/>
    <path id="Path_5083" data-name="Path 5083" d="M216.336,199.445a6.346,6.346,0,0,0,5.72,0c1.571-.91,1.571-2.393,0-3.3" transform="translate(-181.147 -153.119)" fill="#232b2a"/>
    <path id="Path_5084" data-name="Path 5084" d="M233.9,68.2V41.354" transform="translate(-195.858 -23.508)" fill="none" stroke="#000" stroke-linecap="round" stroke-miterlimit="10" stroke-width="0.5"/>
    <path id="Path_5085" data-name="Path 5085" d="M225.957,21.15h-3.839v.3l0,.068a.972.972,0,0,0,.557.747,3.015,3.015,0,0,0,2.719,0,.97.97,0,0,0,.557-.747l0-.068v-.3Z" transform="translate(-185.989 -6.59)" fill="#232b2a"/>
    <path id="Path_5086" data-name="Path 5086" d="M225.56,22.261a3.015,3.015,0,0,0,2.719,0,.97.97,0,0,0,.557-.747l0-.068v-.3H225.56Z" transform="translate(-188.871 -6.59)"/>
    <path id="Path_5087" data-name="Path 5087" d="M225.392,14.851a3.015,3.015,0,0,0-2.719,0,.83.83,0,0,0,0,1.569,3.015,3.015,0,0,0,2.719,0A.83.83,0,0,0,225.392,14.851Z" transform="translate(-185.984 -1.044)" fill="#2d3534"/>
    <path id="Path_5088" data-name="Path 5088" d="M228.278,14.851a3.015,3.015,0,0,0-2.719,0" transform="translate(-188.87 -1.044)" fill="#c7d8d5"/>
    <path id="Path_5089" data-name="Path 5089" d="M225.56,18.091a3.015,3.015,0,0,0,2.719,0,.83.83,0,0,0,0-1.569" transform="translate(-188.871 -2.715)" fill="#232b2a"/>
    <path id="Path_5090" data-name="Path 5090" d="M226.638,15.8a2.579,2.579,0,0,0-2.321,0,.708.708,0,0,0,0,1.34,2.579,2.579,0,0,0,2.321,0A.708.708,0,0,0,226.638,15.8Z" transform="translate(-187.429 -1.882)" fill="#90afad"/>
    <path id="Path_5091" data-name="Path 5091" d="M227.075,16.481a2.427,2.427,0,0,0-2.182,0,.666.666,0,0,0,0,1.26,2.419,2.419,0,0,0,2.182,0A.666.666,0,0,0,227.075,16.481Z" transform="translate(-187.935 -2.463)" fill="#7a9e9a"/>
    <path id="Path_5092" data-name="Path 5092" d="M227.206,19.074a2.419,2.419,0,0,0,2.182,0,.666.666,0,0,0,0-1.26" transform="translate(-190.249 -3.797)" fill="#6a918b"/>
    <path id="Path_5093" data-name="Path 5093" d="M227,19.558h-3.332v.257l0,.059a.843.843,0,0,0,.484.649,2.616,2.616,0,0,0,2.359,0,.846.846,0,0,0,.484-.649l0-.059v-.257Z" transform="translate(-187.291 -5.257)" fill="#232b2a"/>
    <path id="Path_5094" data-name="Path 5094" d="M226.666,20.524a2.616,2.616,0,0,0,2.359,0,.846.846,0,0,0,.484-.649l0-.059v-.257h-2.845v.965Z" transform="translate(-189.797 -5.258)"/>
    <path id="Path_5095" data-name="Path 5095" d="M226.514,14.09a2.616,2.616,0,0,0-2.359,0,.72.72,0,0,0,0,1.363,2.624,2.624,0,0,0,2.359,0A.72.72,0,0,0,226.514,14.09Z" transform="translate(-187.286 -0.443)" fill="#2d3534"/>
    <path id="Path_5096" data-name="Path 5096" d="M229.022,14.09a2.616,2.616,0,0,0-2.359,0" transform="translate(-189.794 -0.443)" fill="#414c4a"/>
    <path id="Path_5097" data-name="Path 5097" d="M226.666,16.9a2.624,2.624,0,0,0,2.359,0,.72.72,0,0,0,0-1.363" transform="translate(-189.797 -1.89)" fill="#232b2a"/>
    <path id="Path_5098" data-name="Path 5098" d="M227.6,14.916a2.239,2.239,0,0,0-2.014,0,.615.615,0,0,0,0,1.163,2.231,2.231,0,0,0,2.014,0,.614.614,0,0,0,0-1.163Z" transform="translate(-188.543 -1.17)"/>
    <path id="Path_5099" data-name="Path 5099" d="M227.975,15.5a2.1,2.1,0,0,0-1.894,0,.577.577,0,0,0,0,1.092,2.1,2.1,0,0,0,1.894,0A.577.577,0,0,0,227.975,15.5Z" transform="translate(-188.98 -1.672)" fill="#2b3332"/>
    <path id="Path_5100" data-name="Path 5100" d="M228.092,17.764a2.1,2.1,0,0,0,1.894,0,.577.577,0,0,0,0-1.092" transform="translate(-190.991 -2.84)" fill="#232b2a"/>
    <path id="Path_5101" data-name="Path 5101" d="M181.031,269.34l-14.351,8.285v6.386l4.783,2.762,14.351-8.285V272.1Z" transform="translate(-139.568 -214.41)" fill="#4f5454" opacity="0.3"/>
    <path id="Path_5102" data-name="Path 5102" d="M210.435,280.482V286l-14.351,8.285v-5.524Z" transform="translate(-164.189 -223.739)" fill="#0f4f4c"/>
    <path id="Path_5103" data-name="Path 5103" d="M166.68,314.435l4.783,2.761v5.524l-4.783-2.762Z" transform="translate(-139.568 -252.17)" fill="#1c7058"/>
    <path id="Path_5104" data-name="Path 5104" d="M210.435,275.172V280.7l-14.351,8.285v-5.523Z" transform="translate(-164.189 -219.293)" fill="#105953"/>
    <path id="Path_5105" data-name="Path 5105" d="M196.084,288.981v-5.523l14.351-8.285" transform="translate(-164.189 -219.293)" fill="#0f4f4c"/>
    <path id="Path_5106" data-name="Path 5106" d="M166.68,309.13l4.783,2.762v5.523l-4.783-2.762Z" transform="translate(-139.568 -247.727)" fill="#118964"/>
    <path id="Path_5107" data-name="Path 5107" d="M166.68,309.13l4.783,2.762v5.523" transform="translate(-139.568 -247.727)" fill="#1c7058"/>
    <path id="Path_5108" data-name="Path 5108" d="M185.814,260.959l-4.783-2.761-14.351,8.285,4.783,2.762Z" transform="translate(-139.568 -205.08)" fill="#0ac984"/>
    <path id="Path_5109" data-name="Path 5109" d="M166.68,280.7l4.783,2.762,14.351-8.285m-2.871,2.914.118-.067v3.318l-.118.068Zm-.706.408.117-.068v3.32l-.117.067Zm-.706.408.117-.068v3.318l-.117.068Zm-.707.407.117-.067v3.318l-.117.068Zm-.706.407.117-.067v3.319l-.117.068Zm-.707.408.116-.068v3.318l-.116.067Zm-.705.407.116-.067v3.319l-.116.067Zm-.707.407.117-.067v3.318l-.117.068Zm-.706.408.116-.068V284.6l-.116.068Zm-.707.408.118-.068v3.319l-.118.067Zm-.705.406.116-.067v3.319l-.116.068Zm-.706.408.116-.067v3.319l-.116.068Z" transform="translate(-139.568 -219.293)" fill="#0faa77"/>
    <path id="Path_5110" data-name="Path 5110" d="M175.023,328.034a.081.081,0,0,1-.08-.08v-2.568a.08.08,0,1,1,.16,0v2.568A.08.08,0,0,1,175.023,328.034Zm1.2.694a.081.081,0,0,1-.08-.08V326.08a.08.08,0,0,1,.16,0v2.568a.08.08,0,0,1-.08.08Z" transform="translate(-146.487 -261.272)" fill="#c9e2e1"/>
    <path id="Path_5111" data-name="Path 5111" d="M217.854,290.536l-14.35,8.285v6.386l4.783,2.762,14.351-8.285V293.3Z" transform="translate(-170.402 -232.158)" fill="#4f5454" opacity="0.3"/>
    <path id="Path_5112" data-name="Path 5112" d="M247.26,301.678V307.2l-14.351,8.285v-5.523Z" transform="translate(-195.024 -241.488)" fill="#0f4f4c"/>
    <path id="Path_5113" data-name="Path 5113" d="M203.5,335.632l4.783,2.761v5.523l-4.783-2.762Z" transform="translate(-170.402 -269.919)" fill="#1c7058"/>
    <path id="Path_5114" data-name="Path 5114" d="M247.26,296.369v5.524l-14.351,8.285v-5.524Z" transform="translate(-195.024 -237.042)" fill="#105953"/>
    <path id="Path_5115" data-name="Path 5115" d="M232.909,310.178v-5.524l14.351-8.285" transform="translate(-195.024 -237.042)" fill="#0f4f4c"/>
    <path id="Path_5116" data-name="Path 5116" d="M203.5,330.327l4.783,2.762v5.524L203.5,335.85Z" transform="translate(-170.402 -265.477)" fill="#118964"/>
    <path id="Path_5117" data-name="Path 5117" d="M203.5,330.327l4.783,2.762v5.524" transform="translate(-170.402 -265.477)" fill="#1c7058"/>
    <path id="Path_5118" data-name="Path 5118" d="M222.638,282.153l-4.783-2.762-14.35,8.285,4.783,2.762Z" transform="translate(-170.402 -222.826)" fill="#0ac984"/>
    <path id="Path_5119" data-name="Path 5119" d="M203.5,301.893l4.783,2.762,14.351-8.285m-2.871,2.914.117-.067v3.319l-.117.067Zm-.706.408.117-.068v3.32l-.117.067Zm-.706.407.117-.067v3.318l-.117.068Zm-.707.408.117-.067v3.318l-.117.068Zm-.707.407.117-.067v3.319l-.117.067Zm-.706.407.117-.067v3.318l-.117.067Zm-.706.407.117-.067v3.318l-.117.068Zm-.706.407.117-.067v3.319l-.117.068Zm-.707.408.117-.068v3.318l-.117.069Zm-.707.407.117-.067V306.2l-.117.066Zm-.706.407.117-.067v3.318l-.117.068Zm-.705.408.116-.068v3.32l-.116.068Z" transform="translate(-170.402 -237.042)" fill="#0faa77"/>
    <path id="Path_5120" data-name="Path 5120" d="M211.847,349.231a.081.081,0,0,1-.08-.08v-2.568a.08.08,0,0,1,.16,0v2.568A.08.08,0,0,1,211.847,349.231Zm1.2.694a.081.081,0,0,1-.08-.08v-2.568a.08.08,0,1,1,.16,0v2.568A.08.08,0,0,1,213.048,349.924Z" transform="translate(-177.321 -279.021)" fill="#c9e2e1"/>
    <path id="Path_5121" data-name="Path 5121" d="M350.742,256.228l14.35,8.285V270.9l-4.783,2.762-14.35-8.285v-6.387Z" transform="translate(-289.685 -203.43)" fill="#4f5454" opacity="0.3"/>
    <path id="Path_5122" data-name="Path 5122" d="M345.958,267.37v5.523l14.35,8.285v-5.524Z" transform="translate(-289.685 -212.76)" fill="#0f4f4c"/>
    <path id="Path_5123" data-name="Path 5123" d="M438.963,301.324l-4.783,2.761v5.524l4.783-2.762Z" transform="translate(-363.557 -241.191)" fill="#1c7058"/>
    <path id="Path_5124" data-name="Path 5124" d="M345.958,262.061v5.524l14.35,8.285v-5.524Z" transform="translate(-289.685 -208.315)" fill="#105953"/>
    <path id="Path_5125" data-name="Path 5125" d="M360.308,275.87v-5.524l-14.35-8.285" transform="translate(-289.685 -208.315)" fill="#0f4f4c"/>
    <path id="Path_5126" data-name="Path 5126" d="M438.963,296.019l-4.783,2.762V304.3l4.783-2.762Z" transform="translate(-363.557 -236.749)" fill="#118964"/>
    <path id="Path_5127" data-name="Path 5127" d="M438.963,296.019l-4.783,2.762V304.3" transform="translate(-363.557 -236.749)" fill="#1c7058"/>
    <path id="Path_5128" data-name="Path 5128" d="M345.958,247.848l4.784-2.761,14.35,8.285-4.783,2.762Z" transform="translate(-289.685 -194.102)" fill="#0ac984"/>
    <path id="Path_5129" data-name="Path 5129" d="M365.092,267.585l-4.783,2.762-14.35-8.285m2.871,2.914-.117-.067v3.318l.117.068Zm.707.408-.117-.068v3.32l.117.067Zm.705.407-.116-.067v3.319l.116.068Zm.707.407-.118-.067v3.318l.118.068Zm.705.407-.116-.067v3.319l.116.067Zm.707.408-.116-.068v3.318l.116.067Zm.707.407-.117-.067v3.319l.117.067Zm.705.407-.117-.067v3.318l.117.068Zm.707.408-.117-.068v3.318l.117.068Zm.706.407-.117-.067V271.9l.117.067Zm.706.407-.117-.067V272.3l.117.068Zm.706.408-.116-.068v3.32l.116.068Z" transform="translate(-289.685 -208.315)" fill="#0faa77"/>
    <path id="Path_5130" data-name="Path 5130" d="M448.238,314.923a.081.081,0,0,0,.08-.08v-2.568a.08.08,0,0,0-.16,0v2.568A.08.08,0,0,0,448.238,314.923Zm-1.2.694a.081.081,0,0,0,.08-.08v-2.568a.08.08,0,1,0-.16,0v2.568a.079.079,0,0,0,.08.08Z" transform="translate(-374.256 -250.294)" fill="#c9e2e1"/>
    <path id="Path_5131" data-name="Path 5131" d="M254.679,311.729l-14.35,8.285V326.4l4.782,2.762,14.351-8.285v-6.386Z" transform="translate(-201.237 -249.904)" fill="#4f5454" opacity="0.3"/>
    <path id="Path_5132" data-name="Path 5132" d="M284.08,322.871v5.524l-14.351,8.285v-5.524Z" transform="translate(-225.855 -259.233)" fill="#0f4f4c"/>
    <path id="Path_5133" data-name="Path 5133" d="M240.329,356.829l4.782,2.761v5.524l-4.782-2.762Z" transform="translate(-201.237 -287.668)" fill="#1c7058"/>
    <path id="Path_5134" data-name="Path 5134" d="M284.08,317.566v5.523l-14.351,8.285v-5.524Z" transform="translate(-225.855 -254.791)" fill="#105953"/>
    <path id="Path_5135" data-name="Path 5135" d="M269.729,331.375v-5.524l14.351-8.285" transform="translate(-225.855 -254.791)" fill="#0f4f4c"/>
    <path id="Path_5136" data-name="Path 5136" d="M240.329,351.523l4.782,2.761v5.524l-4.782-2.762Z" transform="translate(-201.237 -283.225)" fill="#118964"/>
    <path id="Path_5137" data-name="Path 5137" d="M240.329,351.523l4.782,2.761v5.524" transform="translate(-201.237 -283.225)" fill="#1c7058"/>
    <path id="Path_5138" data-name="Path 5138" d="M259.463,303.349l-4.784-2.762-14.35,8.285,4.782,2.761Z" transform="translate(-201.237 -240.574)" fill="#0ac984"/>
    <path id="Path_5139" data-name="Path 5139" d="M240.329,323.089l4.782,2.761,14.351-8.285m-2.872,2.914.118-.067v3.319l-.118.067Zm-.705.408.116-.068v3.32l-.116.067Zm-.707.407.117-.067v3.318l-.117.068Zm-.706.408.117-.067v3.318l-.117.068Zm-.707.407.117-.067v3.319l-.117.067Zm-.706.407.116-.067v3.318l-.116.067Zm-.706.407.117-.067v3.318l-.117.068Zm-.707.407.117-.067v3.319l-.117.068Zm-.706.408.117-.068v3.319l-.117.068Zm-.707.407.118-.067V327.4l-.118.067Zm-.705.407.116-.067v3.318l-.116.068Zm-.706.408.117-.068v3.32l-.117.067Z" transform="translate(-201.237 -254.791)" fill="#0faa77"/>
    <path id="Path_5140" data-name="Path 5140" d="M248.668,370.428a.081.081,0,0,1-.08-.08V367.78a.08.08,0,1,1,.16,0v2.568A.08.08,0,0,1,248.668,370.428Zm1.2.694a.08.08,0,0,1-.08-.08v-2.568a.08.08,0,0,1,.16,0v2.568a.08.08,0,0,1-.08.08Z" transform="translate(-208.153 -296.77)" fill="#c9e2e1"/>
    <path id="Path_5141" data-name="Path 5141" d="M291.5,332.926l-14.351,8.285V347.6l4.783,2.762,14.351-8.285v-6.386Z" transform="translate(-232.069 -267.653)" fill="#4f5454" opacity="0.3"/>
    <path id="Path_5142" data-name="Path 5142" d="M320.9,344.068v5.523l-14.351,8.285v-5.524Z" transform="translate(-256.69 -276.982)" fill="#0f4f4c"/>
    <path id="Path_5143" data-name="Path 5143" d="M277.15,378.021l4.783,2.762v5.524l-4.783-2.762Z" transform="translate(-232.069 -305.413)" fill="#1c7058"/>
    <path id="Path_5144" data-name="Path 5144" d="M320.9,338.763v5.523l-14.351,8.285v-5.523Z" transform="translate(-256.69 -272.54)" fill="#105953"/>
    <path id="Path_5145" data-name="Path 5145" d="M306.554,352.571v-5.523l14.351-8.285" transform="translate(-256.69 -272.54)" fill="#0f4f4c"/>
    <path id="Path_5146" data-name="Path 5146" d="M277.15,372.72l4.783,2.761V381l-4.783-2.761Z" transform="translate(-232.069 -300.974)" fill="#118964"/>
    <path id="Path_5147" data-name="Path 5147" d="M277.15,372.72l4.783,2.761V381" transform="translate(-232.069 -300.974)" fill="#1c7058"/>
    <path id="Path_5148" data-name="Path 5148" d="M296.284,324.546l-4.783-2.762-14.351,8.285,4.783,2.761Z" transform="translate(-232.069 -258.323)" fill="#0ac984"/>
    <path id="Path_5149" data-name="Path 5149" d="M277.15,344.286l4.783,2.761,14.351-8.285m-2.871,2.914.117-.067v3.319l-.117.067Zm-.706.407.117-.067v3.319l-.117.068Zm-.706.408.117-.068v3.318l-.117.069Zm-.707.407.117-.067v3.318l-.117.067Zm-.706.407.117-.066v3.319l-.117.067Zm-.707.408.116-.067v3.318l-.116.068Zm-.705.408.116-.067v3.319l-.116.068Zm-.707.407.117-.067v3.319l-.117.067Zm-.706.407.116-.067v3.318l-.116.069Zm-.707.408.118-.067V348.6l-.118.067Zm-.706.407.117-.067V349l-.117.067Zm-.705.408.116-.068v3.32l-.116.067Z" transform="translate(-232.069 -272.54)" fill="#0faa77"/>
    <path id="Path_5150" data-name="Path 5150" d="M285.493,391.624a.081.081,0,0,1-.08-.08v-2.568a.08.08,0,0,1,.16,0v2.568A.08.08,0,0,1,285.493,391.624Zm1.2.694a.08.08,0,0,1-.08-.08V389.67a.08.08,0,1,1,.16,0v2.568A.08.08,0,0,1,286.694,392.318Z" transform="translate(-238.988 -314.519)" fill="#c9e2e1"/>
  </g>
</svg>
