<svg xmlns="http://www.w3.org/2000/svg" width="75.978" height="73.787" viewBox="0 0 75.978 73.787">
  <g id="ic-calendar" transform="translate(0 -7.385)">
    <path id="Path_4959" data-name="Path 4959" d="M67.27,56.315A5.014,5.014,0,0,0,62.256,51.3H5.014A5.014,5.014,0,0,0,0,56.315v57.242A5,5,0,0,0,1.566,117.2h60.69v1.375h8.783a5.016,5.016,0,0,0,4.7-3.276c.586-1.549.793,1.412-8.473-58.98Z" transform="translate(0 -37.399)" fill="#bababa"/>
    <path id="Path_4960" data-name="Path 4960" d="M87.9,113.557V76.271L84.843,56.315A5.014,5.014,0,0,0,79.829,51.3H25.649a5.014,5.014,0,0,0-5.014,5.014v57.242A5,5,0,0,0,22.2,117.2H79.829v1.375h3.062A5.014,5.014,0,0,0,87.9,113.557Z" transform="translate(-17.573 -37.399)" fill="#a8a8a8"/>
    <path id="Path_4961" data-name="Path 4961" d="M62.256,51.3H5.014A5.014,5.014,0,0,0,0,56.315v57.242a5.014,5.014,0,0,0,5.014,5.014H62.256a5.014,5.014,0,0,0,5.014-5.014V56.315A5.014,5.014,0,0,0,62.256,51.3Z" transform="translate(0 -37.399)" fill="#e6e6e6"/>
    <path id="Path_4962" data-name="Path 4962" d="M3.062,113.557V56.315A5.014,5.014,0,0,1,8.076,51.3H5.014A5.014,5.014,0,0,0,0,56.315v57.242a5.014,5.014,0,0,0,5.014,5.014H8.076A5.014,5.014,0,0,1,3.062,113.557Z" transform="translate(0 -37.399)" fill="#cccbca"/>
    <path id="Path_4963" data-name="Path 4963" d="M62.256,51.3H5.014A5.014,5.014,0,0,0,0,56.315V69.2H67.27V56.315A5.014,5.014,0,0,0,62.256,51.3Z" transform="translate(0 -37.399)" fill="#ea473b"/>
    <path id="Path_4964" data-name="Path 4964" d="M3.062,56.315A5.014,5.014,0,0,1,8.076,51.3H5.014A5.014,5.014,0,0,0,0,56.315V69.2H3.062Z" transform="translate(0 -37.399)" fill="#d63322"/>
    <path id="Path_4965" data-name="Path 4965" d="M110.141,81.509v1.044c0,1.015-.822,1.072-1.837,1.072h-.612c-1.015,0-1.837-.057-1.837-1.072V81.509a3.751,3.751,0,1,0,4.287,0Zm-18.984,0v1.044c0,1.015-.822.919-1.837.919h-.612c-1.015,0-1.837.1-1.837-.919V81.509a3.751,3.751,0,1,0,4.287,0Zm-18.984,0v1.044c0,1.183-1.113,1.072-2.45,1.072-1.015,0-1.837-.057-1.837-1.072V81.509a3.751,3.751,0,1,0,4.287,0Z" transform="translate(-56.446 -63.124)" fill="#414356"/>
    <path id="Path_4966" data-name="Path 4966" d="M107.446,84.587c0-.071,0-.141.007-.211a1.836,1.836,0,0,1-1.614-1.822V81.51a3.751,3.751,0,0,0,3.751,6.467A3.751,3.751,0,0,1,107.446,84.587Zm-18.984,0c0-.071,0-.141.007-.211a1.836,1.836,0,0,1-1.614-1.822V81.51a3.751,3.751,0,0,0,3.751,6.467A3.751,3.751,0,0,1,88.462,84.587Zm-18.977-.211a1.836,1.836,0,0,1-1.614-1.822V81.51a3.751,3.751,0,0,0,3.751,6.467A3.749,3.749,0,0,1,69.485,84.376Z" transform="translate(-56.43 -63.125)" fill="#2f3242"/>
    <path id="Path_4967" data-name="Path 4967" d="M0,171.881H67.27v4.287H0Z" transform="translate(0 -140.086)" fill="#f77c79"/>
    <path id="Path_4968" data-name="Path 4968" d="M0,171.881H3.062v4.287H0Z" transform="translate(0 -140.086)" fill="#dd6464"/>
    <path id="Path_4969" data-name="Path 4969" d="M79.546,7.385a1.837,1.837,0,0,1,1.837,1.837V19.428a1.837,1.837,0,0,1-1.837,1.837h-.612A1.837,1.837,0,0,1,77.1,19.428V9.222a1.837,1.837,0,0,1,1.837-1.837Zm18.984,0a1.837,1.837,0,0,1,1.837,1.837V19.428a1.837,1.837,0,0,1-1.837,1.837h-.612a1.837,1.837,0,0,1-1.837-1.837V9.222a1.837,1.837,0,0,1,1.837-1.837Zm18.984,0a1.837,1.837,0,0,1,1.837,1.837V19.428a1.837,1.837,0,0,1-1.837,1.837H116.9a1.837,1.837,0,0,1-1.837-1.837V9.222A1.837,1.837,0,0,1,116.9,7.385Z" transform="translate(-65.655 0)" fill="#585a60"/>
    <path id="Path_4970" data-name="Path 4970" d="M79.546,7.385a1.837,1.837,0,0,1,1.837,1.837V19.428a1.837,1.837,0,0,1-1.837,1.837h-.612A1.837,1.837,0,0,1,77.1,19.428V9.222a1.837,1.837,0,0,1,1.837-1.837Zm18.984,0a1.837,1.837,0,0,1,1.837,1.837V19.428a1.837,1.837,0,0,1-1.837,1.837h-.612a1.837,1.837,0,0,1-1.837-1.837V9.222a1.837,1.837,0,0,1,1.837-1.837Zm18.984,0a1.837,1.837,0,0,1,1.837,1.837V19.428a1.837,1.837,0,0,1-1.837,1.837H116.9a1.837,1.837,0,0,1-1.837-1.837V9.222A1.837,1.837,0,0,1,116.9,7.385Z" transform="translate(-65.655 0)" fill="#585a60"/>
    <path id="Path_4971" data-name="Path 4971" d="M79.239,19.428V9.222a1.836,1.836,0,0,1,1.072-1.669,1.828,1.828,0,0,0-.765-.169h-.612A1.837,1.837,0,0,0,77.1,9.222V19.428a1.837,1.837,0,0,0,1.837,1.837h.612a1.827,1.827,0,0,0,.765-.169,1.836,1.836,0,0,1-1.072-1.669Zm18.984,0V9.222a1.836,1.836,0,0,1,1.072-1.669,1.828,1.828,0,0,0-.765-.169h-.612A1.837,1.837,0,0,0,96.08,9.222V19.428a1.837,1.837,0,0,0,1.837,1.837h.612a1.827,1.827,0,0,0,.765-.169,1.836,1.836,0,0,1-1.072-1.669Zm18.984,0V9.222a1.836,1.836,0,0,1,1.072-1.669,1.828,1.828,0,0,0-.765-.169H116.9a1.837,1.837,0,0,0-1.837,1.837V19.428a1.837,1.837,0,0,0,1.837,1.837h.612a1.827,1.827,0,0,0,.765-.169,1.836,1.836,0,0,1-1.072-1.669Z" transform="translate(-65.655)" fill="#414356"/>
    <path id="Path_4972" data-name="Path 4972" d="M80.012,248.178h-3.78a1.148,1.148,0,0,0,0,2.3h3.78a1.148,1.148,0,0,0,0-2.3Zm10.509,0H86.741a1.148,1.148,0,0,0,0,2.3h3.781a1.148,1.148,0,1,0,0-2.3Zm10.509,0H97.25a1.148,1.148,0,0,0,0,2.3h3.781a1.148,1.148,0,0,0,0-2.3Zm10.509,0h-3.781a1.148,1.148,0,0,0,0,2.3h3.781a1.148,1.148,0,1,0,0-2.3ZM69.5,257.429H65.722a1.148,1.148,0,0,0,0,2.3H69.5a1.148,1.148,0,0,0,0-2.3Zm10.509,0h-3.78a1.148,1.148,0,0,0,0,2.3h3.78a1.148,1.148,0,0,0,0-2.3Zm10.509,0H86.741a1.148,1.148,0,0,0,0,2.3h3.781a1.148,1.148,0,0,0,0-2.3Zm10.509,0H97.25a1.148,1.148,0,0,0,0,2.3h3.781a1.148,1.148,0,0,0,0-2.3Zm10.509,0h-3.781a1.148,1.148,0,0,0,0,2.3h3.781a1.148,1.148,0,0,0,0-2.3ZM69.5,266.68H65.722a1.148,1.148,0,0,0,0,2.3H69.5a1.148,1.148,0,0,0,0-2.3Zm10.509,0h-3.78a1.148,1.148,0,1,0,0,2.3h3.78a1.148,1.148,0,1,0,0-2.3Zm10.509,0H86.741a1.148,1.148,0,0,0,0,2.3h3.781a1.148,1.148,0,0,0,0-2.3Zm10.509,0H97.25a1.148,1.148,0,0,0,0,2.3h3.781a1.148,1.148,0,0,0,0-2.3Zm10.509,0h-3.781a1.148,1.148,0,0,0,0,2.3h3.781a1.148,1.148,0,0,0,0-2.3ZM69.5,275.931H65.722a1.148,1.148,0,1,0,0,2.3H69.5a1.148,1.148,0,1,0,0-2.3Zm10.509,0h-3.78a1.148,1.148,0,1,0,0,2.3h3.78a1.148,1.148,0,1,0,0-2.3Zm10.509,0H86.741a1.148,1.148,0,1,0,0,2.3h3.781a1.148,1.148,0,1,0,0-2.3Zm10.509,0H97.25a1.148,1.148,0,1,0,0,2.3h3.781a1.148,1.148,0,1,0,0-2.3Z" transform="translate(-54.992 -205.061)" fill="#585a60"/>
  </g>
</svg>
