<svg xmlns="http://www.w3.org/2000/svg" width="82" height="74.546" viewBox="0 0 82 74.546">
  <g id="ic-cost" transform="translate(0 -23.272)">
    <path id="Path_5151" data-name="Path 5151" d="M78.273,71.727H3.727A3.738,3.738,0,0,1,0,68V27a3.738,3.738,0,0,1,3.727-3.727H78.273A3.738,3.738,0,0,1,82,27V68a3.739,3.739,0,0,1-3.727,3.727Z" fill="#0e9347"/>
    <path id="Path_5152" data-name="Path 5152" d="M275.159,232.727a12.473,12.473,0,0,0-10.436,5.4,13.9,13.9,0,0,0-6.336-1.677,13.039,13.039,0,0,0-12.859,11.182h38.95a3.791,3.791,0,0,0,3.727-3.168A13.275,13.275,0,0,0,275.159,232.727Z" transform="translate(-206.204 -175.91)" fill="#0d8944"/>
    <path id="Path_5153" data-name="Path 5153" d="M90.364,87.546H30.727a7.476,7.476,0,0,0-7.454-7.454V54a7.476,7.476,0,0,0,7.454-7.454H90.364A7.476,7.476,0,0,0,97.818,54V80.091A7.476,7.476,0,0,0,90.364,87.546Z" transform="translate(-19.546 -19.547)" fill="#3bb54a"/>
    <path id="Path_5154" data-name="Path 5154" d="M281.023,232.727a12.473,12.473,0,0,0-10.436,5.4,13.9,13.9,0,0,0-6.336-1.677,12.8,12.8,0,0,0-11.741,7.454h30.377a7.438,7.438,0,0,1,7.268-7.454,13.472,13.472,0,0,0-9.132-3.727Z" transform="translate(-212.068 -175.91)" fill="#0e9347"/>
    <ellipse id="Ellipse_172" data-name="Ellipse 172" cx="14.909" cy="16.773" rx="14.909" ry="16.773" transform="translate(26.091 30.727)" fill="#0e9347"/>
    <circle id="Ellipse_173" data-name="Ellipse 173" cx="3.727" cy="3.727" r="3.727" transform="translate(14.909 43.772)" fill="#0e9347"/>
    <circle id="Ellipse_174" data-name="Ellipse 174" cx="3.727" cy="3.727" r="3.727" transform="translate(59.636 43.772)" fill="#0e9347"/>
    <path id="Path_5155" data-name="Path 5155" d="M218.773,114.047h-3.727a1.864,1.864,0,0,1,0-3.727h5.591a1.864,1.864,0,1,0,0-3.727h-1.864a1.864,1.864,0,1,0-3.727,0,5.591,5.591,0,1,0,0,11.182h3.727a1.864,1.864,0,1,1,0,3.727h-5.591a1.864,1.864,0,1,0,0,3.727h1.864a1.864,1.864,0,1,0,3.727,0,5.591,5.591,0,1,0,0-11.182Z" transform="translate(-175.91 -68.411)" fill="#89c763"/>
    <circle id="Ellipse_175" data-name="Ellipse 175" cx="13.046" cy="13.046" r="13.046" transform="translate(35.409 60.545)" fill="#ffca5d"/>
    <circle id="Ellipse_176" data-name="Ellipse 176" cx="13.046" cy="13.046" r="13.046" transform="translate(52.182 56.817)" fill="#f6b545"/>
    <path id="Path_5156" data-name="Path 5156" d="M338.864,232.727a13.046,13.046,0,1,0,13.045,13.046A12.965,12.965,0,0,0,338.864,232.727Zm0,22.364a9.318,9.318,0,1,1,9.318-9.318A9.228,9.228,0,0,1,338.864,255.091Z" transform="translate(-273.636 -175.91)" fill="#ffcb5b"/>
    <path id="Path_5157" data-name="Path 5157" d="M407.273,327.041a12.809,12.809,0,0,0,13.046-12.859h-.186a1.982,1.982,0,0,0-1.864,1.677,11.267,11.267,0,0,1-3.541,6.709,10.559,10.559,0,0,1-5.777,2.8,1.67,1.67,0,0,0-1.677,1.677Z" transform="translate(-342.046 -244.319)" fill="#f6b545"/>
    <path id="Path_5158" data-name="Path 5158" d="M338.864,233.869a12.809,12.809,0,0,0-13.046,12.859H326a1.982,1.982,0,0,0,1.864-1.677,11.268,11.268,0,0,1,3.541-6.709,10.56,10.56,0,0,1,5.777-2.8,1.67,1.67,0,0,0,1.677-1.677Z" transform="translate(-273.636 -176.865)" fill="#ffe27a"/>
    <path id="Path_5159" data-name="Path 5159" d="M350.4,266.623a9.228,9.228,0,0,1,9.318-9.318,8.79,8.79,0,0,1,5.964,2.236,9.289,9.289,0,0,0-16.586,5.777,8.935,8.935,0,0,0,3.354,7.082,8.74,8.74,0,0,1-2.05-5.777Z" transform="translate(-293.182 -195.455)" fill="#f19920"/>
    <path id="Path_5160" data-name="Path 5160" d="M437.784,315.073a.685.685,0,0,1-.559-.186.9.9,0,0,1,0-1.3A6.22,6.22,0,0,0,438.9,309.3a.932.932,0,1,1,1.864,0,8.606,8.606,0,0,1-2.05,5.591A2.026,2.026,0,0,1,437.784,315.073Z" transform="translate(-366.966 -239.433)" fill="#ffcb5b"/>
    <path id="Path_5161" data-name="Path 5161" d="M397.5,290.456a1.761,1.761,0,0,1-1.864-1.864v-7.454a1.864,1.864,0,0,1,3.727,0v7.454A1.761,1.761,0,0,1,397.5,290.456Z" transform="translate(-332.273 -215.002)" fill="#f19920"/>
    <path id="Path_5162" data-name="Path 5162" d="M346.736,276.314a15.142,15.142,0,0,0-8.946-10.064A15.58,15.58,0,0,0,330.708,256a13.471,13.471,0,0,0-3.727,9.132,12.965,12.965,0,0,0,13.046,13.046,10.808,10.808,0,0,0,6.709-1.864Z" transform="translate(-274.613 -195.455)" fill="#f19920"/>
    <path id="Path_5163" data-name="Path 5163" d="M352.445,285.105a9.8,9.8,0,0,1-2.236-5.964,9.022,9.022,0,0,1,2.982-6.709,8.1,8.1,0,0,0-1.118-1.3,9.13,9.13,0,0,0-2.982,6.9A8.935,8.935,0,0,0,352.445,285.105Zm4.1-5.964v2.609a1.864,1.864,0,0,0,3.727,0v-.373A15.225,15.225,0,0,0,356.545,279.142Z" transform="translate(-293.181 -208.16)" fill="#e78825"/>
    <path id="Path_5164" data-name="Path 5164" d="M345.759,277.289a11.911,11.911,0,0,0-1.491-3.541,9.018,9.018,0,0,1-5.4,1.864,9.228,9.228,0,0,1-9.318-9.318,9.13,9.13,0,0,1,2.982-6.9,11.369,11.369,0,0,0-2.982-2.236,13.471,13.471,0,0,0-3.727,9.132,12.965,12.965,0,0,0,13.046,13.046,12.5,12.5,0,0,0,6.9-2.05Z" transform="translate(-273.636 -196.431)" fill="#f6b545"/>
    <path id="Path_5165" data-name="Path 5165" d="M413.608,372.364a12.882,12.882,0,0,1-4.659,1.864,1.982,1.982,0,0,0-1.677,1.864,12.5,12.5,0,0,0,6.9-2.05Z" transform="translate(-342.045 -293.183)" fill="#f19920"/>
    <path id="Path_5166" data-name="Path 5166" d="M329.545,257.164a13.471,13.471,0,0,0-3.727,9.132H326a1.982,1.982,0,0,0,1.864-1.677,11.6,11.6,0,0,1,3.354-6.523A7.56,7.56,0,0,1,329.545,257.164Z" transform="translate(-273.636 -196.433)" fill="#ffcb5b"/>
    <circle id="Ellipse_177" data-name="Ellipse 177" cx="13.046" cy="13.046" r="13.046" transform="translate(35.409 60.545)" fill="#f6b545"/>
    <path id="Path_5167" data-name="Path 5167" d="M290.909,327.227a12.916,12.916,0,0,0,.559,3.727h1.3a13,13,0,0,0,12.486-16.773h-1.3A12.965,12.965,0,0,0,290.909,327.227Z" transform="translate(-244.318 -244.318)" fill="#f19920"/>
    <path id="Path_5168" data-name="Path 5168" d="M234.136,256a13.046,13.046,0,1,0,13.046,13.046A12.965,12.965,0,0,0,234.136,256Zm0,22.364a9.318,9.318,0,1,1,9.318-9.318A9.228,9.228,0,0,1,234.136,278.364Z" transform="translate(-185.681 -195.455)" fill="#ffcb5b"/>
    <path id="Path_5169" data-name="Path 5169" d="M302.545,350.314a12.809,12.809,0,0,0,13.046-12.859H315.4a1.982,1.982,0,0,0-1.864,1.677A11.268,11.268,0,0,1,310,345.841a10.56,10.56,0,0,1-5.777,2.8,1.67,1.67,0,0,0-1.677,1.677Z" transform="translate(-254.091 -263.865)" fill="#f6b545"/>
    <path id="Path_5170" data-name="Path 5170" d="M234.136,257.142A12.809,12.809,0,0,0,221.09,270h.186a1.982,1.982,0,0,0,1.864-1.677,11.267,11.267,0,0,1,3.541-6.709,10.56,10.56,0,0,1,5.777-2.8,1.67,1.67,0,0,0,1.677-1.677Z" transform="translate(-185.681 -196.411)" fill="#ffe27a"/>
    <path id="Path_5171" data-name="Path 5171" d="M245.668,289.9a9.228,9.228,0,0,1,9.318-9.318,8.79,8.79,0,0,1,5.964,2.236,9.289,9.289,0,0,0-16.586,5.777,8.935,8.935,0,0,0,3.354,7.082A8.741,8.741,0,0,1,245.668,289.9Z" transform="translate(-205.227 -215.001)" fill="#f19920"/>
    <path id="Path_5172" data-name="Path 5172" d="M333.057,338.345a.684.684,0,0,1-.559-.186.9.9,0,0,1,0-1.3,6.22,6.22,0,0,0,1.677-4.286.932.932,0,1,1,1.864,0,8.606,8.606,0,0,1-2.05,5.591A2.026,2.026,0,0,1,333.057,338.345Z" transform="translate(-279.012 -258.978)" fill="#ffcb5b"/>
    <path id="Path_5173" data-name="Path 5173" d="M292.773,313.729a1.761,1.761,0,0,1-1.864-1.864v-7.454a1.864,1.864,0,1,1,3.727,0v7.454A1.761,1.761,0,0,1,292.773,313.729Z" transform="translate(-244.318 -234.547)" fill="#f19920"/>
    <path id="Path_5174" data-name="Path 5174" d="M301.346,314.367a10.9,10.9,0,0,1,.746,3.541,9.228,9.228,0,0,1-9.318,9.318,6.338,6.338,0,0,1-1.864-.186v.186a12.916,12.916,0,0,0,.559,3.727h1.3a13,13,0,0,0,12.486-16.773h-1.3A12.322,12.322,0,0,0,301.346,314.367Z" transform="translate(-244.319 -244.318)" fill="#f6b545"/>
    <circle id="Ellipse_178" data-name="Ellipse 178" cx="13.046" cy="13.046" r="13.046" transform="translate(44.727 71.727)" fill="#f6b545"/>
    <path id="Path_5175" data-name="Path 5175" d="M292.317,325.818a13.046,13.046,0,1,0,13.046,13.046A12.965,12.965,0,0,0,292.317,325.818Zm0,22.364a9.318,9.318,0,1,1,9.318-9.318A9.228,9.228,0,0,1,292.317,348.182Z" transform="translate(-234.545 -254.091)" fill="#ffcb5b"/>
    <path id="Path_5176" data-name="Path 5176" d="M360.727,420.132a12.809,12.809,0,0,0,13.045-12.859h-.186a1.982,1.982,0,0,0-1.864,1.677,11.268,11.268,0,0,1-3.541,6.709,10.56,10.56,0,0,1-5.777,2.8,1.67,1.67,0,0,0-1.677,1.677Z" transform="translate(-302.954 -322.501)" fill="#f6b545"/>
    <path id="Path_5177" data-name="Path 5177" d="M292.317,326.96a12.809,12.809,0,0,0-13.046,12.859h.186a1.982,1.982,0,0,0,1.864-1.677,11.268,11.268,0,0,1,3.541-6.709,10.56,10.56,0,0,1,5.777-2.8,1.67,1.67,0,0,0,1.677-1.677Z" transform="translate(-234.545 -255.047)" fill="#ffe27a"/>
    <path id="Path_5178" data-name="Path 5178" d="M303.85,359.714a9.228,9.228,0,0,1,9.318-9.318,8.791,8.791,0,0,1,5.964,2.236,9.289,9.289,0,0,0-16.586,5.777,8.935,8.935,0,0,0,3.354,7.082A8.74,8.74,0,0,1,303.85,359.714Z" transform="translate(-254.091 -273.637)" fill="#f19920"/>
    <path id="Path_5179" data-name="Path 5179" d="M391.238,408.163a.685.685,0,0,1-.559-.186.9.9,0,0,1,0-1.3,6.22,6.22,0,0,0,1.677-4.286.932.932,0,1,1,1.864,0,8.606,8.606,0,0,1-2.05,5.591A2.025,2.025,0,0,1,391.238,408.163Z" transform="translate(-327.875 -317.614)" fill="#ffcb5b"/>
    <path id="Path_5180" data-name="Path 5180" d="M350.955,383.546a1.761,1.761,0,0,1-1.864-1.864v-7.455a1.864,1.864,0,0,1,3.727,0v7.454A1.761,1.761,0,0,1,350.955,383.546Z" transform="translate(-293.182 -293.183)" fill="#f19920"/>
  </g>
</svg>
