<svg xmlns="http://www.w3.org/2000/svg" width="83.194" height="89.583" viewBox="0 0 83.194 89.583">
  <g id="ic-height" transform="translate(0 0.223)">
    <g id="Group_10200" data-name="Group 10200" transform="translate(0 -0.223)">
      <path id="Path_4937" data-name="Path 4937" d="M33.894,23.244V45.583a3.852,3.852,0,0,1-6.163,3.081c-.94-.709-20.459-1.048-21.153-.354a3.144,3.144,0,0,1-.416.354A3.852,3.852,0,0,1,0,45.583V23.244A9.244,9.244,0,0,1,9.244,14H24.65A9.244,9.244,0,0,1,33.894,23.244Z" transform="translate(0 7.796)" fill="#f29c1f"/>
      <path id="Path_4938" data-name="Path 4938" d="M6.541,42.109A1.541,1.541,0,0,1,5,40.569V20.541a1.541,1.541,0,0,1,3.081,0V40.569A1.541,1.541,0,0,1,6.541,42.109Zm15.406,0a1.541,1.541,0,0,1-1.541-1.541V20.541a1.541,1.541,0,0,1,3.081,0V40.569A1.541,1.541,0,0,1,21.947,42.109Z" transform="translate(2.703 10.499)" fill="#e57e25"/>
      <path id="Path_4939" data-name="Path 4939" d="M59.569,0H41.081A3.091,3.091,0,0,0,38,3.081V86.275a3.091,3.091,0,0,0,3.081,3.081H59.569a3.09,3.09,0,0,0,3.081-3.081V3.081A3.09,3.09,0,0,0,59.569,0ZM50.325,13.866a3.081,3.081,0,1,1,3.081-3.081A3.081,3.081,0,0,1,50.325,13.866Z" transform="translate(20.544 0.227)" fill="#f3d55b"/>
      <g id="Group_10199" data-name="Group 10199" transform="translate(58.544 18.715)">
        <path id="Path_4940" data-name="Path 4940" d="M45.7,13.541a1.541,1.541,0,0,1-1.541,1.541H38V12h6.162A1.541,1.541,0,0,1,45.7,13.541Zm-3.081,7.7a1.541,1.541,0,0,1-1.541,1.541H38V19.7h3.081A1.541,1.541,0,0,1,42.622,21.244Zm3.081,7.7a1.541,1.541,0,0,1-1.541,1.541H38V27.406h6.162A1.541,1.541,0,0,1,45.7,28.947ZM38,38.191h3.081a1.541,1.541,0,1,0,0-3.081H38Zm7.7,6.162a1.541,1.541,0,0,1-1.541,1.541H38V42.812h6.162A1.541,1.541,0,0,1,45.7,44.353Zm-3.081,7.7A1.541,1.541,0,0,1,41.081,53.6H38V50.516h3.081A1.541,1.541,0,0,1,42.622,52.056Zm3.081,7.7A1.541,1.541,0,0,1,44.162,61.3H38V58.219h6.162A1.541,1.541,0,0,1,45.7,59.759Zm0,15.406a1.541,1.541,0,0,1-1.541,1.541H38V73.625h6.162A1.541,1.541,0,0,1,45.7,75.166Zm-3.081-7.7A1.541,1.541,0,0,1,41.081,69H38V65.922h3.081A1.541,1.541,0,0,1,42.622,67.462ZM62.65,12v3.081H56.488a1.541,1.541,0,1,1,0-3.081Zm0,10.784H59.569a1.541,1.541,0,1,1,0-3.081H62.65Zm0,4.622v3.081H56.488a1.541,1.541,0,1,1,0-3.081Zm0,10.784H59.569a1.541,1.541,0,1,1,0-3.081H62.65Zm0,4.622v3.081H56.488a1.541,1.541,0,1,1,0-3.081Zm0,7.7V53.6H59.569a1.541,1.541,0,1,1,0-3.081Zm0,7.7V61.3H56.488a1.541,1.541,0,1,1,0-3.081Zm0,15.406v3.081H56.488a1.541,1.541,0,1,1,0-3.081Zm0-7.7V69H59.569a1.541,1.541,0,1,1,0-3.081Z" transform="translate(-38 -12)" fill="#cb8252"/>
      </g>
      <path id="Path_4941" data-name="Path 4941" d="M39.557,59.519a1.541,1.541,0,0,0-2.068.69L34.247,66.7V15.043l3.235,6.488a1.541,1.541,0,1,0,2.758-1.377L34.077,7.828a1.605,1.605,0,0,0-2.758,0L25.157,20.153a1.541,1.541,0,0,0,2.758,1.377l3.251-6.488V66.7L27.93,60.209a1.541,1.541,0,1,0-2.758,1.377l6.162,12.325a1.541,1.541,0,0,0,2.758,0l6.162-12.325a1.541,1.541,0,0,0-.7-2.068Z" transform="translate(13.513 4.036)" fill="#c03a2b"/>
      <path id="Path_4942" data-name="Path 4942" d="M39.272,89.356H16.933a1.541,1.541,0,0,1,0-3.081H39.272V83.194a1.541,1.541,0,1,1,3.081,0v3.081A3.081,3.081,0,0,1,39.272,89.356ZM40.812,7.7a1.541,1.541,0,0,1-1.541-1.541V3.081H11.541a1.541,1.541,0,1,1,0-3.081H39.272a3.081,3.081,0,0,1,3.081,3.081V6.162A1.541,1.541,0,0,1,40.812,7.7Z" transform="translate(5.406 0.227)" fill="#e64c3c"/>
      <circle id="Ellipse_170" data-name="Ellipse 170" cx="10.716" cy="10.716" r="10.716" transform="translate(5.877)" fill="#fdd7ad"/>
      <path id="Path_4943" data-name="Path 4943" d="M21.784,38.392V66.123a5.392,5.392,0,1,1-10.784,0V33h9.244v2.311A3.838,3.838,0,0,0,21.784,38.392Z" transform="translate(5.947 18.068)" fill="#2980ba"/>
      <path id="Path_4944" data-name="Path 4944" d="M14.784,33V66.123A5.392,5.392,0,0,1,4,66.123V38.392a3.158,3.158,0,0,0,.416-.354,3.852,3.852,0,0,0,1.125-2.727V33Z" transform="translate(2.162 18.068)" fill="#3b97d3"/>
    </g>
  </g>
</svg>
