<svg xmlns="http://www.w3.org/2000/svg" viewBox="0 0 31.81 31.81"><defs><style>.cls-1{fill:#009444;}.cls-2{fill:#fff;}</style></defs><g id="Layer_2" data-name="Layer 2"><g id="Layer_1-2" data-name="Layer 1"><path class="cls-1" d="M15.91,0a15.91,15.91,0,1,0,15.9,15.91A15.93,15.93,0,0,0,15.91,0Z"/><path class="cls-2" d="M5.29,17.65a10.62,10.62,0,0,0,21.23,0Z"/><path class="cls-2" d="M11.62,13h-.56a2,2,0,0,0-4,0H6.48a2.57,2.57,0,0,1,5.14,0Z"/><path class="cls-2" d="M25.34,13h-.57a2,2,0,1,0-4,0h-.57a2.58,2.58,0,0,1,5.15,0Z"/><path class="cls-2" d="M11.43,5.76s-.42.09-1,.24c-.27.07-.58.18-.9.27a9.77,9.77,0,0,0-1,.4,5,5,0,0,0-.91.49,3.7,3.7,0,0,1-.43.25c-.15.06-.24.19-.36.26A5.49,5.49,0,0,1,6,8.22a4.35,4.35,0,0,1,.37-1,1.68,1.68,0,0,1,.27-.44,4,4,0,0,1,.41-.42A2.71,2.71,0,0,1,7.55,6l.57-.31a2.38,2.38,0,0,1,.61-.23l.62-.12a3.79,3.79,0,0,1,.58,0,2.75,2.75,0,0,1,.52.06,3.05,3.05,0,0,1,.73.25A1,1,0,0,1,11.43,5.76Z"/><path class="cls-2" d="M20.38,5.75s.09-.07.26-.15a2.9,2.9,0,0,1,.73-.25,2.74,2.74,0,0,1,.51-.06,3.9,3.9,0,0,1,.59,0c.2,0,.41.07.61.12a2.14,2.14,0,0,1,.61.23l.58.31a2.71,2.71,0,0,1,.47.42,3.92,3.92,0,0,1,.4.42,1.45,1.45,0,0,1,.27.44,4.8,4.8,0,0,1,.38,1,5.49,5.49,0,0,1-.86-.55,2.68,2.68,0,0,0-.37-.26,4.77,4.77,0,0,1-.43-.25,4.15,4.15,0,0,0-.91-.48,7.16,7.16,0,0,0-.95-.41c-.32-.09-.63-.2-.91-.27Z"/></g></g></svg>