<svg xmlns="http://www.w3.org/2000/svg" width="25.659" height="25.659" viewBox="0 0 25.659 25.659">
  <g id="ic-half-birthday" transform="translate(-11 -11.177)">
    <g id="_7_Half" data-name="7 Half" transform="translate(11 11.177)">
      <circle id="Ellipse_98" data-name="Ellipse 98" cx="12.805" cy="12.805" r="12.805" transform="translate(0.048 0)" fill="#51555a"/>
      <path id="Path_3724" data-name="Path 3724" d="M30.52,204.645A12.861,12.861,0,0,1,11.469,190.2,26.269,26.269,0,0,0,30.52,204.645Z" transform="translate(-11 -180.847)" fill="#3f4449"/>
      <circle id="Ellipse_99" data-name="Ellipse 99" cx="11.254" cy="11.254" r="11.254" transform="translate(1.6 1.552)" fill="#fb5400"/>
      <path id="Path_3725" data-name="Path 3725" d="M56.955,243.951a11.256,11.256,0,0,1-15.4-11.681A26.292,26.292,0,0,0,56.955,243.951Z" transform="translate(-39.89 -220.709)" opacity="0.1"/>
      <g id="Group_2236" data-name="Group 2236" transform="translate(5.885 5.348)">
        <path id="Path_3726" data-name="Path 3726" d="M123.918,113.86h1.259a.711.711,0,0,1,.712.711v6.883a.792.792,0,1,1-1.584,0v-5.709a.385.385,0,0,0-.385-.385.75.75,0,0,1,0-1.5Z" transform="translate(-123.17 -113.86)" fill="#f7f5fb"/>
        <path id="Path_3727" data-name="Path 3727" d="M290.577,237.193h-.034a.756.756,0,0,1-.722-.981,2.721,2.721,0,0,1,.689-1.154,3.011,3.011,0,0,1,3.375-.456,2.414,2.414,0,0,1,.935.929,2.441,2.441,0,0,1,.35,1.234,3.653,3.653,0,0,1-.425,1.608,8.78,8.78,0,0,1-1.554,2.035l-.675.711a.166.166,0,0,0,.121.281H294.5a.738.738,0,0,1,0,1.477h-4.529a.541.541,0,0,1-.385-.922l2.439-2.487a7.618,7.618,0,0,0,1.249-1.53,2.265,2.265,0,0,0,.311-1.049,1.076,1.076,0,0,0-.322-.8A1.063,1.063,0,0,0,293,235.9a1.207,1.207,0,0,0-1.587.493,1.47,1.47,0,0,0-.111.259A.765.765,0,0,1,290.577,237.193Z" transform="translate(-280.707 -227.962)" fill="#f7f5fb"/>
        <rect id="Rectangle_735" data-name="Rectangle 735" width="1.678" height="12.767" rx="0.839" transform="translate(7.448 1.076) rotate(19.322)" fill="#f7f5fb"/>
      </g>
    </g>
  </g>
</svg>
