<svg xmlns="http://www.w3.org/2000/svg" viewBox="0 0 31.82 31.81"><defs><style>.cls-1{fill:#f15a29;}.cls-2{fill:#fff;}</style></defs><g id="Layer_2" data-name="Layer 2"><g id="Layer_1-2" data-name="Layer 1"><path class="cls-1" d="M15.49,0A15.91,15.91,0,1,0,31.81,15.49,15.92,15.92,0,0,0,15.49,0Z"/><path class="cls-2" d="M11.17,25l-.82-.77a8.07,8.07,0,0,1,5.7-2.56h0a8.11,8.11,0,0,1,5.82,2.22l-.78.82a7,7,0,0,0-5-1.91h0A7,7,0,0,0,11.17,25Z"/><path class="cls-2" d="M9,15.46a2.29,2.29,0,1,0-2.35-2.23A2.29,2.29,0,0,0,9,15.46Z"/><path class="cls-2" d="M22.75,15.1a2.29,2.29,0,1,0-2.35-2.23A2.29,2.29,0,0,0,22.75,15.1Z"/><path class="cls-2" d="M11.17,5.88s-.43.1-1,.27c-.28.07-.58.19-.9.29a8.94,8.94,0,0,0-1,.43,4.11,4.11,0,0,0-.89.51A4.92,4.92,0,0,1,7,7.64a3.38,3.38,0,0,0-.36.27,5.58,5.58,0,0,1-.84.58,4.27,4.27,0,0,1,.35-1A1.59,1.59,0,0,1,6.44,7a5.06,5.06,0,0,1,.39-.43,3.77,3.77,0,0,1,.46-.43l.56-.32a2.42,2.42,0,0,1,.61-.24,4.84,4.84,0,0,1,.61-.14,4,4,0,0,1,.59,0,2.1,2.1,0,0,1,.51,0,2.7,2.7,0,0,1,.74.23A2.26,2.26,0,0,1,11.17,5.88Z"/><path class="cls-2" d="M20.12,5.64a1.55,1.55,0,0,1,.24-.16,3.44,3.44,0,0,1,.73-.27,2.09,2.09,0,0,1,.51-.07,2.9,2.9,0,0,1,.59,0c.2,0,.41.06.62.11a2.32,2.32,0,0,1,.61.21l.59.29a3.15,3.15,0,0,1,.48.41,4,4,0,0,1,.41.41,1.44,1.44,0,0,1,.28.43,4.15,4.15,0,0,1,.4,1,6.74,6.74,0,0,1-.87-.53,2,2,0,0,0-.37-.26A3.68,3.68,0,0,1,23.9,7,5,5,0,0,0,23,6.48a8.78,8.78,0,0,0-1-.37c-.32-.08-.63-.19-.91-.25C20.55,5.72,20.12,5.64,20.12,5.64Z"/></g></g></svg>