<svg xmlns="http://www.w3.org/2000/svg" xmlns:xlink="http://www.w3.org/1999/xlink" width="17.315" height="17.315" viewBox="0 0 17.315 17.315">
  <defs>
    <linearGradient id="linear-gradient" y1="1" x2="1" y2="1" gradientUnits="objectBoundingBox">
      <stop offset="0" stop-color="#2d9bde"/>
      <stop offset="1" stop-color="#0576bb"/>
    </linearGradient>
  </defs>
  <path id="ic-question" d="M17.878,9.22A8.658,8.658,0,1,1,9.22.562,8.657,8.657,0,0,1,17.878,9.22Zm-8.425-5.8A4.522,4.522,0,0,0,5.384,5.651a.42.42,0,0,0,.095.568l1.211.918a.419.419,0,0,0,.582-.074c.624-.791,1.051-1.25,2-1.25.713,0,1.6.459,1.6,1.151,0,.523-.432.791-1.136,1.186-.821.46-1.908,1.033-1.908,2.467v.14a.419.419,0,0,0,.419.419H10.2a.419.419,0,0,0,.419-.419V10.71c0-.994,2.9-1.035,2.9-3.724C13.521,4.961,11.42,3.425,9.453,3.425ZM9.22,12.083a1.606,1.606,0,1,0,1.606,1.606A1.608,1.608,0,0,0,9.22,12.083Z" transform="translate(-0.563 -0.563)" fill="url(#linear-gradient)"/>
</svg>
