<svg xmlns="http://www.w3.org/2000/svg" width="79.617" height="89.499" viewBox="0 0 79.617 89.499">
  <g id="ic-square-footage" transform="translate(-28.268)">
    <path id="Path_4959" data-name="Path 4959" d="M292.975,302.5l-38.993-18.845a1.225,1.225,0,0,0-.533-.122h0l-.54,18.726.54,21.211a1.214,1.214,0,0,0,.528-.121L292.571,304.7a1.2,1.2,0,0,0,.686-1.093v-.916a1.254,1.254,0,0,0-.282-.188Z" transform="translate(-185.372 -233.971)" fill="#ff656f"/>
    <path id="Path_4960" data-name="Path 4960" d="M294.107,112.734a1.223,1.223,0,0,0-.017-.192,1.186,1.186,0,0,1-.669.926L254.827,132.12a1.214,1.214,0,0,1-.528.121l-.36,5.282.36,5.115a1.214,1.214,0,0,1,.528.121l38.595,18.652a1.2,1.2,0,0,1,.686,1.093V112.735h0Z" transform="translate(-186.223 -92.869)" fill="#ff8188"/>
    <path id="Path_4961" data-name="Path 4961" d="M68.079,283.534a1.225,1.225,0,0,0-.534.122L28.553,302.5a1.25,1.25,0,0,0-.282.188v.916a1.2,1.2,0,0,0,.686,1.093L67.551,323.35a1.214,1.214,0,0,0,.528.121Z" transform="translate(-0.002 -233.971)" fill="#23a8fe"/>
    <path id="Path_4962" data-name="Path 4962" d="M35,374.208l-6.449,3.117a1.249,1.249,0,0,0-.282.188v.916a1.2,1.2,0,0,0,.686,1.093L35,382.443v-8.235Z" transform="translate(-0.002 -308.795)" fill="#0193fa"/>
    <path id="Path_4963" data-name="Path 4963" d="M68.076,132.3a1.211,1.211,0,0,1-.528-.121L28.954,113.531a1.193,1.193,0,0,1-.671-.912,1.227,1.227,0,0,0-.014.179h0v49.768a1.2,1.2,0,0,1,.686-1.093l38.595-18.652a1.213,1.213,0,0,1,.528-.121V132.3Z" transform="translate(0 -92.933)" fill="#60b8fe"/>
    <path id="Path_4964" data-name="Path 4964" d="M35,117.44v-.006h0a1.65,1.65,0,0,1,.019-.24,1.626,1.626,0,0,1,.228-.621l-6.293-3.041a1.193,1.193,0,0,1-.671-.912,1.227,1.227,0,0,0-.014.179h0v49.768a1.2,1.2,0,0,1,.686-1.093L35,158.552Z" transform="translate(0 -92.933)" fill="#23a8fe"/>
    <path id="Path_4965" data-name="Path 4965" d="M293.25,19.77c0-.023,0-.045,0-.067s-.011-.057-.017-.085-.008-.051-.015-.076-.019-.054-.028-.081-.015-.05-.026-.074-.025-.049-.037-.073-.024-.051-.038-.075-.033-.047-.049-.071-.03-.046-.047-.067-.05-.054-.076-.08-.027-.031-.042-.045a1.24,1.24,0,0,0-.3-.2L253.976.121A1.211,1.211,0,0,0,253.448,0l-.54,19.866.54,19.866a1.211,1.211,0,0,0,.528-.121l38.595-18.652a1.2,1.2,0,0,0,.679-1.188Z" transform="translate(-185.372)" fill="#ffd301"/>
    <path id="Path_4966" data-name="Path 4966" d="M262.917,3.68,255.553.121A1.211,1.211,0,0,0,255.024,0l-.206,7.594Z" transform="translate(-186.948)" fill="#ffc20c"/>
    <path id="Path_4967" data-name="Path 4967" d="M28.269,19.866v0a1.2,1.2,0,0,0,.685,1.088L67.549,39.611a1.214,1.214,0,0,0,.528.121V0a1.213,1.213,0,0,0-.528.121L28.955,18.773a1.2,1.2,0,0,0-.686,1.092h0Z" transform="translate(-0.001 0)" fill="#fee55a"/>
    <path id="Path_4968" data-name="Path 4968" d="M35.92,23.035,68.077,7.494V0h0a1.213,1.213,0,0,0-.528.121L28.955,18.773a1.2,1.2,0,0,0-.686,1.092h0v0a1.2,1.2,0,0,0,.685,1.088l6.15,2.972A1.594,1.594,0,0,1,35.92,23.035Z" transform="translate(-0.001 0)" fill="#ffd301"/>
  </g>
</svg>
