<svg xmlns="http://www.w3.org/2000/svg" xmlns:xlink="http://www.w3.org/1999/xlink" width="147.736" height="147.736" viewBox="0 0 147.736 147.736">
  <defs>
    <clipPath id="clip-path">
      <rect id="Rectangle_1016" data-name="Rectangle 1016" width="147.736" height="147.736" fill="none"/>
    </clipPath>
  </defs>
  <g id="Group_2304" data-name="Group 2304" transform="translate(0 0)">
    <g id="Group_2303" data-name="Group 2303" transform="translate(0 0)">
      <g id="Group_2302" data-name="Group 2302" clip-path="url(#clip-path)">
        <path id="Path_4073" data-name="Path 4073" d="M4.7,95.374a71.686,71.686,0,1,1,90.676,45.337A71.684,71.684,0,0,1,4.7,95.374Z" transform="translate(1.163 1.164)" fill="none" stroke="#d9d9d9" stroke-linecap="round" stroke-linejoin="round" stroke-width="4"/>
        <path id="Path_4074" data-name="Path 4074" d="M95.373,140.712a71.686,71.686,0,1,1,45.339-90.676" transform="translate(1.163 1.163)" fill="none" stroke="#005487" stroke-linecap="round" stroke-linejoin="round" stroke-width="4"/>
        <path id="Path_4075" data-name="Path 4075" d="M129.967,48.433A64.458,64.458,0,1,1,48.433,7.666,64.46,64.46,0,0,1,129.967,48.433Z" transform="translate(5.052 5.051)" fill="none" stroke="#d9d9d9" stroke-linecap="round" stroke-linejoin="round" stroke-width="3"/>
        <path id="Path_4076" data-name="Path 4076" d="M10.463,83.387a57.652,57.652,0,1,1,72.924,36.462A57.651,57.651,0,0,1,10.463,83.387Z" transform="translate(8.713 8.711)" fill="none" stroke="#d9d9d9" stroke-linecap="round" stroke-linejoin="round" stroke-width="1"/>
        <path id="Path_4077" data-name="Path 4077" d="M25.716,10.462A57.652,57.652,0,1,1,34.13,121.979" transform="translate(29.921 8.712)" fill="none" stroke="#005487" stroke-linecap="round" stroke-linejoin="round" stroke-width="1"/>
        <path id="Path_4078" data-name="Path 4078" d="M18.1,14.484a64.463,64.463,0,1,1,5.876,111.984" transform="translate(21.063 5.052)" fill="none" stroke="#005487" stroke-linecap="round" stroke-linejoin="round" stroke-width="3"/>
      </g>
    </g>
  </g>
</svg>
