<svg id="Layer_1" data-name="Layer 1" xmlns="http://www.w3.org/2000/svg" viewBox="0 0 326 70"><defs><style>.cls-1{fill:#fff;}.cls-2{fill:#e6e6e6;}.cls-3{fill:#ececec;}.cls-4{fill:#2589c5;}.cls-5{fill:#3d3d3d;}</style></defs><rect class="cls-1" x="2.5" y="3" width="66" height="64.6" rx="9.29"/><rect class="cls-2" x="35.21" y="3" width="0.58" height="64.6"/><rect class="cls-3" x="2.5" y="35.46" width="66" height="0.58"/><rect class="cls-4" x="16.78" y="14" width="2.89" height="14.46"/><rect class="cls-4" x="16.78" y="14" width="2.89" height="14.46" transform="translate(-3 39.46) rotate(-90)"/><rect class="cls-4" x="50.77" y="14.72" width="2.89" height="14.46" transform="translate(30.26 74.17) rotate(-90)"/><rect class="cls-4" x="50.77" y="39.65" width="2.89" height="14.46" transform="translate(5.34 99.09) rotate(-90)"/><rect class="cls-4" x="50.77" y="45.43" width="2.89" height="14.46" transform="translate(-0.45 104.88) rotate(-90)"/><rect class="cls-4" x="16.78" y="42.18" width="2.89" height="14.46" transform="translate(-31.18 67.64) rotate(-90)"/><circle class="cls-4" cx="18.23" cy="43.98" r="2.17"/><circle class="cls-4" cx="18.23" cy="54.83" r="2.17"/><path class="cls-1" d="M72.35,21.28c0-8.33,6-14.88,13.78-14.88a12.87,12.87,0,0,1,10.33,5.15,2.39,2.39,0,0,1,.6,1.44,1.53,1.53,0,0,1-1.48,1.53,1.59,1.59,0,0,1-1.33-.7,9.68,9.68,0,0,0-8.08-4.28c-6,0-10.56,5.06-10.56,11.74S80.15,33,86.17,33a9.81,9.81,0,0,0,8.08-4.28,1.59,1.59,0,0,1,1.33-.7,1.53,1.53,0,0,1,1.48,1.53,2.39,2.39,0,0,1-.6,1.44,12.7,12.7,0,0,1-10.33,5.15C78.38,36.17,72.35,29.62,72.35,21.28Z"/><path class="cls-1" d="M124,34.51a1.56,1.56,0,0,1-3,.53l-2.13-5.2H105.22l-2,5.2a1.61,1.61,0,0,1-1.48,1.13,1.63,1.63,0,0,1-1.53-1.66,3.27,3.27,0,0,1,.24-1.09L110.61,7.58a1.52,1.52,0,0,1,3,0l10.16,25.84A2.65,2.65,0,0,1,124,34.51Zm-17.63-7.73h11.25l-5.55-15.27Z"/><path class="cls-1" d="M129.09,33.9V8.19a1.64,1.64,0,0,1,1.57-1.79,1.66,1.66,0,0,1,1.56,1.79V32.63h11.29A1.45,1.45,0,0,1,145,34.16a1.47,1.47,0,0,1-1.45,1.53H130.74A1.68,1.68,0,0,1,129.09,33.9Z"/><path class="cls-1" d="M147.09,21.28c0-8.33,6-14.88,13.78-14.88a12.87,12.87,0,0,1,10.33,5.15,2.39,2.39,0,0,1,.6,1.44,1.53,1.53,0,0,1-1.49,1.53,1.58,1.58,0,0,1-1.32-.7,9.68,9.68,0,0,0-8.08-4.28c-6,0-10.56,5.06-10.56,11.74S154.89,33,160.91,33A9.81,9.81,0,0,0,169,28.75a1.58,1.58,0,0,1,1.32-.7,1.53,1.53,0,0,1,1.49,1.53,2.39,2.39,0,0,1-.6,1.44,12.7,12.7,0,0,1-10.33,5.15C153.12,36.17,147.09,29.62,147.09,21.28Z"/><path class="cls-1" d="M177.19,24.25V8.19a1.66,1.66,0,0,1,1.57-1.79,1.64,1.64,0,0,1,1.56,1.79V24.47c0,5.28,2.85,8.56,7.44,8.56s7.35-3.28,7.35-8.56V8.19a1.66,1.66,0,0,1,1.56-1.79,1.64,1.64,0,0,1,1.57,1.79V24.25c0,7.25-4.14,11.92-10.48,11.92S177.19,31.54,177.19,24.25Z"/><path class="cls-1" d="M205.24,33.9V8.19A1.64,1.64,0,0,1,206.8,6.4a1.66,1.66,0,0,1,1.57,1.79V32.63h11.29a1.45,1.45,0,0,1,1.45,1.53,1.48,1.48,0,0,1-1.45,1.53H206.88A1.68,1.68,0,0,1,205.24,33.9Z"/><path class="cls-1" d="M247.18,34.51a1.56,1.56,0,0,1-3.05.53L242,29.84H228.38l-2,5.2a1.53,1.53,0,0,1-3-.53,3.27,3.27,0,0,1,.24-1.09L233.76,7.58a1.53,1.53,0,0,1,3,0L246.9,33.42A2.65,2.65,0,0,1,247.18,34.51Zm-17.63-7.73h11.24l-5.54-15.27Z"/><path class="cls-1" d="M255.66,34.38V9.93h-8a1.47,1.47,0,0,1-1.49-1.52,1.5,1.5,0,0,1,1.49-1.53h19.2a1.5,1.5,0,0,1,1.45,1.53,1.46,1.46,0,0,1-1.45,1.52H258.8V34.38a1.65,1.65,0,0,1-1.57,1.79A1.68,1.68,0,0,1,255.66,34.38Z"/><path class="cls-1" d="M297.45,21.28c0,8.3-6.07,14.89-13.78,14.89s-13.74-6.55-13.74-14.89S276,6.4,283.67,6.4,297.45,13,297.45,21.28Zm-24.27,0c0,6.77,4.5,11.79,10.53,11.79S294.2,28,294.2,21.24s-4.5-11.7-10.49-11.7S273.18,14.52,273.18,21.24Z"/><path class="cls-1" d="M323.05,34.64a1.51,1.51,0,0,1-1.49,1.53,1.78,1.78,0,0,1-1.37-.92l-8-11.65h-6V34.42a1.66,1.66,0,0,1-1.56,1.75A1.63,1.63,0,0,1,303,34.42V8.62a1.65,1.65,0,0,1,1.61-1.74h7.71c5.06,0,8.48,3.36,8.48,8.34a7.85,7.85,0,0,1-5.27,7.85l6.95,10.26A2.25,2.25,0,0,1,323.05,34.64Zm-16.88-14.1h6.07c3.33,0,5.34-2,5.34-5.28a5,5,0,0,0-5.34-5.33h-6.07Z"/><path class="cls-5" d="M92,54.13C92,60.21,87.56,65,81.91,65s-10.07-4.8-10.07-10.91,4.42-10.91,10.07-10.91S92,48.05,92,54.13Zm-17.79,0c0,5,3.3,8.64,7.72,8.64S89.63,59,89.63,54.1s-3.3-8.58-7.69-8.58S74.22,49.17,74.22,54.1Z"/><path class="cls-5" d="M107.8,54.9v8.86a1.14,1.14,0,1,1-2.27,0V55.19c0-2.53-1.44-4.16-3.56-4.16s-3.77,1.72-3.77,4.16v8.57a1.14,1.14,0,1,1-2.27,0V50a1.19,1.19,0,0,1,1.15-1.28A1.21,1.21,0,0,1,98.2,50v.57a5.64,5.64,0,0,1,4.27-1.85C105.74,48.76,107.8,51.16,107.8,54.9Z"/><path class="cls-5" d="M112.6,63.76V41.62a1.14,1.14,0,1,1,2.26,0V63.76a1.14,1.14,0,1,1-2.26,0Z"/><path class="cls-5" d="M122.64,43.16a1.67,1.67,0,1,1-3.33,0,1.67,1.67,0,1,1,3.33,0Zm-2.8,20.6V50a1.14,1.14,0,1,1,2.27,0V63.76A1.23,1.23,0,0,1,120.93,65,1.16,1.16,0,0,1,119.84,63.76Z"/><path class="cls-5" d="M139,54.9v8.86a1.14,1.14,0,1,1-2.26,0V55.19c0-2.53-1.45-4.16-3.57-4.16s-3.77,1.72-3.77,4.16v8.57a1.14,1.14,0,1,1-2.26,0V50a1.19,1.19,0,0,1,1.14-1.28A1.21,1.21,0,0,1,129.35,50v.57a5.66,5.66,0,0,1,4.27-1.85C136.89,48.76,139,51.16,139,54.9Z"/><path class="cls-5" d="M156.59,56v.16c0,1-.5,1.53-1.38,1.53H145.08c.29,3.07,2.38,5.12,5.27,5.12a5.44,5.44,0,0,0,3.74-1.5,1.11,1.11,0,0,1,.77-.35,1,1,0,0,1,1,1.08,1.46,1.46,0,0,1-.56,1.12,7.27,7.27,0,0,1-5,1.92c-4.36,0-7.6-3.49-7.6-8.12s3.24-8.16,7.34-8.16C153.86,48.76,156.59,51.76,156.59,56Zm-11.42-.49h9.1A4.23,4.23,0,0,0,150,51C147.55,51,145.67,52.82,145.17,55.47Z"/></svg>