<svg id="Layer_1" data-name="Layer 1" xmlns="http://www.w3.org/2000/svg" viewBox="0 0 326 70"><defs><style>.cls-1{fill:#fff;}.cls-2{fill:#e6e6e6;}.cls-3{fill:#ececec;}.cls-4{fill:#2589c5;}.cls-5{fill:#3d3d3d;}</style></defs><rect class="cls-1" x="2.5" y="3" width="66" height="64.6" rx="9.29"/><rect class="cls-2" x="35.21" y="3" width="0.58" height="64.6"/><rect class="cls-3" x="2.5" y="35.46" width="66" height="0.58"/><rect class="cls-4" x="16.78" y="14" width="2.89" height="14.46"/><rect class="cls-4" x="16.78" y="14" width="2.89" height="14.46" transform="translate(-3 39.46) rotate(-90)"/><rect class="cls-4" x="50.77" y="14.72" width="2.89" height="14.46" transform="translate(30.26 74.17) rotate(-90)"/><rect class="cls-4" x="50.77" y="39.65" width="2.89" height="14.46" transform="translate(5.34 99.09) rotate(-90)"/><rect class="cls-4" x="50.77" y="45.43" width="2.89" height="14.46" transform="translate(-0.45 104.88) rotate(-90)"/><rect class="cls-4" x="16.78" y="42.18" width="2.89" height="14.46" transform="translate(-31.18 67.64) rotate(-90)"/><circle class="cls-4" cx="18.23" cy="43.98" r="2.17"/><circle class="cls-4" cx="18.23" cy="54.83" r="2.17"/><path class="cls-1" d="M81.3,22.12c0-7.44,5.38-13.29,12.3-13.29a11.49,11.49,0,0,1,9.21,4.6,2.19,2.19,0,0,1,.54,1.29A1.36,1.36,0,0,1,102,16.08a1.4,1.4,0,0,1-1.18-.62,8.67,8.67,0,0,0-7.21-3.82c-5.38,0-9.43,4.52-9.43,10.48s4,10.48,9.43,10.48a8.77,8.77,0,0,0,7.21-3.82,1.4,1.4,0,0,1,1.18-.62,1.36,1.36,0,0,1,1.33,1.36,2.19,2.19,0,0,1-.54,1.29A11.33,11.33,0,0,1,93.6,35.4C86.68,35.4,81.3,29.56,81.3,22.12Z"/><path class="cls-1" d="M127.41,33.92a1.39,1.39,0,0,1-2.73.47l-1.9-4.64H110.63l-1.79,4.64a1.37,1.37,0,0,1-2.69-.47,2.93,2.93,0,0,1,.21-1l9.07-23.06a1.36,1.36,0,0,1,2.66,0L127.16,33A2.47,2.47,0,0,1,127.41,33.92ZM111.67,27h10l-4.95-13.64Z"/><path class="cls-1" d="M131.93,33.38v-23a1.47,1.47,0,0,1,1.39-1.6,1.5,1.5,0,0,1,1.4,1.6V32.25H144.8a1.29,1.29,0,0,1,1.29,1.36A1.31,1.31,0,0,1,144.8,35H133.4A1.5,1.5,0,0,1,131.93,33.38Z"/><path class="cls-1" d="M148,22.12c0-7.44,5.38-13.29,12.3-13.29a11.49,11.49,0,0,1,9.21,4.6,2.13,2.13,0,0,1,.54,1.29,1.36,1.36,0,0,1-1.33,1.36,1.41,1.41,0,0,1-1.18-.62,8.66,8.66,0,0,0-7.21-3.82c-5.37,0-9.43,4.52-9.43,10.48S155,32.6,160.32,32.6a8.76,8.76,0,0,0,7.21-3.82,1.41,1.41,0,0,1,1.18-.62A1.36,1.36,0,0,1,170,29.52a2.13,2.13,0,0,1-.54,1.29,11.33,11.33,0,0,1-9.21,4.59C153.37,35.4,148,29.56,148,22.12Z"/><path class="cls-1" d="M174.85,24.77V10.43a1.49,1.49,0,0,1,1.39-1.6,1.47,1.47,0,0,1,1.4,1.6V25c0,4.72,2.55,7.64,6.64,7.64s6.56-2.92,6.56-7.64V10.43a1.49,1.49,0,0,1,1.39-1.6,1.47,1.47,0,0,1,1.4,1.6V24.77c0,6.46-3.69,10.63-9.35,10.63S174.85,31.27,174.85,24.77Z"/><path class="cls-1" d="M199.87,33.38v-23a1.48,1.48,0,0,1,1.4-1.6,1.5,1.5,0,0,1,1.4,1.6V32.25h10.07A1.28,1.28,0,0,1,214,33.61,1.3,1.3,0,0,1,212.74,35h-11.4A1.5,1.5,0,0,1,199.87,33.38Z"/><path class="cls-1" d="M237.3,33.92a1.39,1.39,0,0,1-2.72.47l-1.9-4.64H220.53l-1.8,4.64a1.43,1.43,0,0,1-1.32,1A1.45,1.45,0,0,1,216,33.92a3,3,0,0,1,.22-1l9.07-23.06a1.42,1.42,0,0,1,1.33-1.06A1.4,1.4,0,0,1,228,9.89L237.05,33A2.31,2.31,0,0,1,237.3,33.92ZM221.57,27h10l-4.94-13.64Z"/><path class="cls-1" d="M244.87,33.81V12h-7.13a1.31,1.31,0,0,1-1.33-1.36,1.34,1.34,0,0,1,1.33-1.37h17.13a1.34,1.34,0,0,1,1.29,1.37A1.3,1.3,0,0,1,254.87,12h-7.2V33.81a1.47,1.47,0,0,1-1.4,1.59A1.49,1.49,0,0,1,244.87,33.81Z"/><path class="cls-1" d="M282.16,22.12c0,7.4-5.41,13.28-12.3,13.28S257.6,29.56,257.6,22.12,263,8.83,269.86,8.83,282.16,14.72,282.16,22.12Zm-21.65,0c0,6,4,10.52,9.39,10.52s9.36-4.52,9.36-10.52-4-10.44-9.36-10.44S260.51,16.08,260.51,22.08Z"/><path class="cls-1" d="M305,34a1.34,1.34,0,0,1-1.33,1.36,1.58,1.58,0,0,1-1.22-.82l-7.13-10.4h-5.38v9.66a1.48,1.48,0,0,1-1.4,1.56,1.45,1.45,0,0,1-1.39-1.56v-23a1.48,1.48,0,0,1,1.43-1.56h6.88c4.52,0,7.57,3,7.57,7.44a7,7,0,0,1-4.7,7l6.2,9.15A2,2,0,0,1,305,34ZM289.94,21.46h5.42a4.38,4.38,0,0,0,4.76-4.72A4.43,4.43,0,0,0,295.36,12h-5.42Z"/><path class="cls-5" d="M98.84,51.43c0,5.42-4,9.74-9,9.74s-9-4.29-9-9.74,3.94-9.74,9-9.74S98.84,46,98.84,51.43ZM83,51.4c0,4.43,2.94,7.71,6.88,7.71s6.86-3.31,6.86-7.71-2.94-7.65-6.86-7.65S83,47,83,51.4Z"/><path class="cls-5" d="M112.93,52.11V60a1,1,0,1,1-2,0V52.37c0-2.25-1.29-3.71-3.18-3.71a3.41,3.41,0,0,0-3.36,3.71V60a1,1,0,1,1-2,0V47.77a1.07,1.07,0,0,1,1-1.14,1.08,1.08,0,0,1,1,1.14v.52a5,5,0,0,1,3.81-1.66C111.09,46.63,112.93,48.77,112.93,52.11Z"/><path class="cls-5" d="M117.21,60V40.27a1,1,0,1,1,2,0V60a1,1,0,1,1-2,0Z"/><path class="cls-5" d="M126.17,41.64a1.49,1.49,0,1,1-3,0,1.49,1.49,0,1,1,3,0ZM123.67,60V47.77a1,1,0,1,1,2,0V60a1.11,1.11,0,0,1-1,1.15A1.05,1.05,0,0,1,123.67,60Z"/><path class="cls-5" d="M140.73,52.11V60a1,1,0,1,1-2,0V52.37c0-2.25-1.28-3.71-3.18-3.71a3.41,3.41,0,0,0-3.36,3.71V60a1,1,0,1,1-2,0V47.77a1.07,1.07,0,0,1,1-1.14,1.08,1.08,0,0,1,1,1.14v.52A5,5,0,0,1,136,46.63C138.89,46.63,140.73,48.77,140.73,52.11Z"/><path class="cls-5" d="M156.47,53.06v.14c0,.91-.45,1.37-1.24,1.37h-9a4.68,4.68,0,0,0,4.71,4.57,4.84,4.84,0,0,0,3.33-1.34,1,1,0,0,1,.69-.32.91.91,0,0,1,.89,1,1.31,1.31,0,0,1-.5,1,6.48,6.48,0,0,1-4.44,1.72c-3.89,0-6.78-3.12-6.78-7.26s2.89-7.28,6.55-7.28C154,46.63,156.47,49.32,156.47,53.06Zm-10.2-.43h8.12a3.78,3.78,0,0,0-3.81-4A4.5,4.5,0,0,0,146.27,52.63Z"/></svg>