<svg xmlns="http://www.w3.org/2000/svg" width="360.695" height="238.102" viewBox="0 0 360.695 238.102">
  <g id="obj-feedback" transform="translate(-91.569 -161.582)">
    <g id="Group_64" data-name="Group 64" transform="translate(101.266 161.582)">
      <g id="Group_34" data-name="Group 34" transform="translate(59.379 65.704)">
        <g id="Group_22" data-name="Group 22">
          <path id="Path_8" data-name="Path 8" d="M356.631,218.172H170.494a19.381,19.381,0,0,0-19.38,19.382v94.48a19.381,19.381,0,0,0,19.38,19.382h99.274a4.853,4.853,0,0,1,1.839.362l58.228,23.884a8.479,8.479,0,0,0,11.7-7.845V356.26a4.845,4.845,0,0,1,4.845-4.845h10.252a19.382,19.382,0,0,0,19.382-19.382v-94.48A19.382,19.382,0,0,0,356.631,218.172Z" transform="translate(-151.114 -218.172)" fill="#0f6cd3"/>
          <path id="Path_9" data-name="Path 9" d="M265.5,329.8c-14.064-10.754-26.53-23.621-34.5-38.785s-11.2-32.781-6.862-49.155a55.77,55.77,0,0,1,13.226-23.689h-66.87a19.381,19.381,0,0,0-19.38,19.382v94.48a19.381,19.381,0,0,0,19.38,19.382h99.274a4.853,4.853,0,0,1,1.839.362l58.228,23.884a8.479,8.479,0,0,0,11.7-7.845v-3.191A193.76,193.76,0,0,1,265.5,329.8Z" transform="translate(-151.114 -218.172)" fill="#0052ad"/>
        </g>
        <g id="Group_33" data-name="Group 33" transform="translate(21.382 21.383)">
          <g id="Group_26" data-name="Group 26" transform="translate(0 43.576)">
            <g id="Group_23" data-name="Group 23">
              <path id="Path_10" data-name="Path 10" d="M348.448,280.551h-175.7a3.216,3.216,0,0,1-3.216-3.216h0a3.216,3.216,0,0,1,3.216-3.215h175.7a3.215,3.215,0,0,1,3.215,3.215h0A3.216,3.216,0,0,1,348.448,280.551Z" transform="translate(-169.53 -274.12)" fill="#f5f5f5"/>
              <path id="Path_11" data-name="Path 11" d="M172.746,274.12a3.216,3.216,0,0,0-3.216,3.215h0a3.216,3.216,0,0,0,3.216,3.216h54.543q-1.58-3.154-2.874-6.431Z" transform="translate(-169.53 -274.12)" fill="#ebebeb"/>
            </g>
            <g id="Group_24" data-name="Group 24" transform="translate(0 20.235)">
              <path id="Path_12" data-name="Path 12" d="M348.448,297.979h-175.7a3.216,3.216,0,0,1-3.216-3.215h0a3.216,3.216,0,0,1,3.216-3.216h175.7a3.216,3.216,0,0,1,3.215,3.216h0A3.215,3.215,0,0,1,348.448,297.979Z" transform="translate(-169.53 -291.548)" fill="#f5f5f5"/>
              <path id="Path_13" data-name="Path 13" d="M172.746,291.548a3.216,3.216,0,1,0,0,6.431H241q-2.7-3.13-5.147-6.431Z" transform="translate(-169.53 -291.548)" fill="#ebebeb"/>
            </g>
            <g id="Group_25" data-name="Group 25" transform="translate(0 40.471)">
              <path id="Path_14" data-name="Path 14" d="M348.448,315.407h-175.7a3.216,3.216,0,0,1-3.216-3.215h0a3.215,3.215,0,0,1,3.216-3.215h175.7a3.215,3.215,0,0,1,3.215,3.215h0A3.215,3.215,0,0,1,348.448,315.407Z" transform="translate(-169.53 -308.977)" fill="#f5f5f5"/>
              <path id="Path_15" data-name="Path 15" d="M169.53,312.192a3.216,3.216,0,0,0,3.216,3.215h90.1c-.1-.078-.206-.153-.308-.231q-3.91-2.99-7.636-6.2H172.746A3.215,3.215,0,0,0,169.53,312.192Z" transform="translate(-169.53 -308.977)" fill="#ebebeb"/>
            </g>
          </g>
          <g id="Group_32" data-name="Group 32" transform="translate(0)">
            <g id="Group_27" data-name="Group 27">
              <path id="Path_16" data-name="Path 16" d="M182.059,258.213l-6.2,3.263a1.22,1.22,0,0,1-1.769-1.286l1.185-6.908a1.221,1.221,0,0,0-.351-1.079l-5.019-4.893a1.22,1.22,0,0,1,.676-2.081l6.936-1.008a1.217,1.217,0,0,0,.918-.666l3.1-6.286a1.219,1.219,0,0,1,2.186,0l3.1,6.286a1.217,1.217,0,0,0,.918.666l6.936,1.008a1.22,1.22,0,0,1,.676,2.081l-5.019,4.893a1.218,1.218,0,0,0-.351,1.079l1.185,6.908a1.22,1.22,0,0,1-1.769,1.286l-6.2-3.263A1.217,1.217,0,0,0,182.059,258.213Z" transform="translate(-169.53 -236.589)" fill="#efc04d"/>
              <path id="Path_17" data-name="Path 17" d="M183.193,258.213l6.2,3.263a1.22,1.22,0,0,0,1.769-1.286l-.042-.24a19.488,19.488,0,0,1-5.106-2.711c-3.368-2.538-5.661-6.5-5.327-10.525a9.523,9.523,0,0,1,4.244-6.978l-1.217-2.466a1.219,1.219,0,0,0-2.186,0l-3.1,6.286a1.217,1.217,0,0,1-.918.666l-6.936,1.008a1.22,1.22,0,0,0-.676,2.081l5.019,4.893a1.221,1.221,0,0,1,.351,1.079l-1.185,6.908a1.22,1.22,0,0,0,1.769,1.286l6.2-3.263A1.217,1.217,0,0,1,183.193,258.213Z" transform="translate(-169.53 -236.589)" fill="#e0a327"/>
            </g>
            <g id="Group_28" data-name="Group 28" transform="translate(38.986)">
              <path id="Path_18" data-name="Path 18" d="M215.636,258.213l-6.2,3.263a1.219,1.219,0,0,1-1.768-1.286l1.184-6.908a1.215,1.215,0,0,0-.351-1.079l-5.019-4.893a1.22,1.22,0,0,1,.676-2.081l6.937-1.008a1.216,1.216,0,0,0,.917-.666l3.1-6.286a1.219,1.219,0,0,1,2.186,0l3.1,6.286a1.217,1.217,0,0,0,.918.666l6.937,1.008a1.22,1.22,0,0,1,.675,2.081L223.91,252.2a1.222,1.222,0,0,0-.351,1.079l1.185,6.908a1.22,1.22,0,0,1-1.769,1.286l-6.2-3.263A1.22,1.22,0,0,0,215.636,258.213Z" transform="translate(-203.108 -236.589)" fill="#efc04d"/>
              <path id="Path_19" data-name="Path 19" d="M216.771,258.213l6.2,3.263a1.22,1.22,0,0,0,1.769-1.286l-.042-.24a19.488,19.488,0,0,1-5.106-2.711c-3.368-2.538-5.66-6.5-5.327-10.525a9.521,9.521,0,0,1,4.245-6.978l-1.218-2.466a1.219,1.219,0,0,0-2.186,0l-3.1,6.286a1.216,1.216,0,0,1-.917.666l-6.937,1.008a1.22,1.22,0,0,0-.676,2.081L208.5,252.2a1.215,1.215,0,0,1,.351,1.079l-1.184,6.908a1.219,1.219,0,0,0,1.768,1.286l6.2-3.263A1.22,1.22,0,0,1,216.771,258.213Z" transform="translate(-203.108 -236.589)" fill="#e0a327"/>
            </g>
            <g id="Group_29" data-name="Group 29" transform="translate(77.971)">
              <path id="Path_20" data-name="Path 20" d="M249.213,258.213l-6.2,3.263a1.22,1.22,0,0,1-1.769-1.286l1.185-6.908a1.222,1.222,0,0,0-.351-1.079l-5.02-4.893a1.22,1.22,0,0,1,.676-2.081l6.937-1.008a1.217,1.217,0,0,0,.918-.666l3.1-6.286a1.22,1.22,0,0,1,2.187,0l3.1,6.286a1.215,1.215,0,0,0,.917.666l6.937,1.008a1.22,1.22,0,0,1,.676,2.081l-5.019,4.893a1.215,1.215,0,0,0-.351,1.079l1.184,6.908a1.219,1.219,0,0,1-1.768,1.286l-6.2-3.263A1.22,1.22,0,0,0,249.213,258.213Z" transform="translate(-236.685 -236.589)" fill="#efc04d"/>
              <path id="Path_21" data-name="Path 21" d="M250.348,258.213l6.2,3.263a1.219,1.219,0,0,0,1.768-1.286l-.041-.24a19.513,19.513,0,0,1-5.108-2.711c-3.367-2.538-5.66-6.5-5.327-10.525a9.528,9.528,0,0,1,4.245-6.978l-1.217-2.466a1.22,1.22,0,0,0-2.187,0l-3.1,6.286a1.217,1.217,0,0,1-.918.666l-6.937,1.008a1.22,1.22,0,0,0-.676,2.081l5.02,4.893a1.222,1.222,0,0,1,.351,1.079l-1.185,6.908a1.22,1.22,0,0,0,1.769,1.286l6.2-3.263A1.22,1.22,0,0,1,250.348,258.213Z" transform="translate(-236.685 -236.589)" fill="#e0a327"/>
            </g>
            <g id="Group_30" data-name="Group 30" transform="translate(116.956)">
              <path id="Path_22" data-name="Path 22" d="M282.791,258.213l-6.2,3.263a1.22,1.22,0,0,1-1.769-1.286L276,253.28a1.222,1.222,0,0,0-.351-1.079l-5.019-4.893a1.22,1.22,0,0,1,.676-2.081l6.936-1.008a1.217,1.217,0,0,0,.918-.666l3.1-6.286a1.219,1.219,0,0,1,2.186,0l3.1,6.286a1.217,1.217,0,0,0,.918.666l6.936,1.008a1.22,1.22,0,0,1,.676,2.081l-5.019,4.893a1.221,1.221,0,0,0-.351,1.079l1.185,6.908a1.22,1.22,0,0,1-1.769,1.286l-6.2-3.263A1.217,1.217,0,0,0,282.791,258.213Z" transform="translate(-270.263 -236.589)" fill="#efc04d"/>
              <path id="Path_23" data-name="Path 23" d="M283.925,258.213l6.2,3.263a1.22,1.22,0,0,0,1.769-1.286l-.042-.24a19.488,19.488,0,0,1-5.106-2.711c-3.368-2.538-5.661-6.5-5.327-10.525a9.523,9.523,0,0,1,4.244-6.978l-1.217-2.466a1.219,1.219,0,0,0-2.186,0l-3.1,6.286a1.217,1.217,0,0,1-.918.666l-6.936,1.008a1.22,1.22,0,0,0-.676,2.081l5.019,4.893A1.222,1.222,0,0,1,276,253.28l-1.185,6.908a1.22,1.22,0,0,0,1.769,1.286l6.2-3.263A1.217,1.217,0,0,1,283.925,258.213Z" transform="translate(-270.263 -236.589)" fill="#e0a327"/>
            </g>
            <g id="Group_31" data-name="Group 31" transform="translate(155.941)">
              <path id="Path_24" data-name="Path 24" d="M316.368,258.213l-6.2,3.263a1.22,1.22,0,0,1-1.769-1.286l1.184-6.908a1.215,1.215,0,0,0-.351-1.079l-5.019-4.893a1.22,1.22,0,0,1,.676-2.081l6.937-1.008a1.215,1.215,0,0,0,.917-.666l3.1-6.286a1.22,1.22,0,0,1,2.187,0l3.1,6.286a1.214,1.214,0,0,0,.917.666l6.937,1.008a1.22,1.22,0,0,1,.676,2.081l-5.019,4.893a1.219,1.219,0,0,0-.352,1.079l1.185,6.908a1.22,1.22,0,0,1-1.769,1.286l-6.2-3.263A1.22,1.22,0,0,0,316.368,258.213Z" transform="translate(-303.84 -236.589)" fill="#efc04d"/>
              <path id="Path_25" data-name="Path 25" d="M317.5,258.213l6.2,3.263a1.22,1.22,0,0,0,1.769-1.286l-.041-.24a19.5,19.5,0,0,1-5.107-2.711c-3.368-2.538-5.66-6.5-5.327-10.525a9.528,9.528,0,0,1,4.245-6.978l-1.217-2.466a1.22,1.22,0,0,0-2.187,0l-3.1,6.286a1.215,1.215,0,0,1-.917.666l-6.937,1.008a1.22,1.22,0,0,0-.676,2.081l5.019,4.893a1.215,1.215,0,0,1,.351,1.079l-1.184,6.908a1.22,1.22,0,0,0,1.769,1.286l6.2-3.263A1.22,1.22,0,0,1,317.5,258.213Z" transform="translate(-303.84 -236.589)" fill="#e0a327"/>
            </g>
          </g>
        </g>
      </g>
      <g id="Group_63" data-name="Group 63" transform="translate(0)">
        <g id="Group_37" data-name="Group 37" transform="translate(23.049 62.785)">
          <g id="Group_35" data-name="Group 35" transform="translate(0 91.511)">
            <path id="Path_26" data-name="Path 26" d="M139.9,329.125l-9.942,5.227a1.954,1.954,0,0,1-2.834-2.06l1.9-11.071a1.953,1.953,0,0,0-.562-1.729l-8.043-7.841a1.953,1.953,0,0,1,1.082-3.332l11.115-1.615a1.951,1.951,0,0,0,1.471-1.068l4.972-10.072a1.954,1.954,0,0,1,3.5,0l4.97,10.072A1.953,1.953,0,0,0,149,306.7l11.115,1.615a1.954,1.954,0,0,1,1.083,3.332l-8.043,7.841a1.954,1.954,0,0,0-.563,1.729l1.9,11.071a1.954,1.954,0,0,1-2.835,2.06l-9.941-5.227A1.952,1.952,0,0,0,139.9,329.125Z" transform="translate(-119.824 -294.475)" fill="#efc04d"/>
            <path id="Path_27" data-name="Path 27" d="M141.717,329.125l9.941,5.227a1.954,1.954,0,0,0,2.835-2.06l-.066-.385a31.28,31.28,0,0,1-8.183-4.345c-5.4-4.067-9.07-10.42-8.536-16.865a15.264,15.264,0,0,1,6.8-11.181l-1.949-3.951a1.954,1.954,0,0,0-3.5,0l-4.972,10.072a1.951,1.951,0,0,1-1.471,1.068L121.5,308.32a1.953,1.953,0,0,0-1.082,3.332l8.043,7.841a1.95,1.95,0,0,1,.562,1.729l-1.9,11.071a1.954,1.954,0,0,0,2.834,2.06l9.942-5.227A1.952,1.952,0,0,1,141.717,329.125Z" transform="translate(-119.824 -294.475)" fill="#e0a327"/>
          </g>
          <g id="Group_36" data-name="Group 36" transform="translate(247.872)">
            <path id="Path_28" data-name="Path 28" d="M353.387,250.308l-9.942,5.226a1.953,1.953,0,0,1-2.834-2.06l1.9-11.07a1.953,1.953,0,0,0-.562-1.73l-8.043-7.839a1.953,1.953,0,0,1,1.082-3.332l11.116-1.615a1.957,1.957,0,0,0,1.471-1.069l4.97-10.071a1.954,1.954,0,0,1,3.5,0l4.97,10.071a1.955,1.955,0,0,0,1.471,1.069L373.6,229.5a1.954,1.954,0,0,1,1.083,3.332l-8.044,7.839a1.955,1.955,0,0,0-.561,1.73l1.9,11.07a1.954,1.954,0,0,1-2.835,2.06l-9.941-5.226A1.951,1.951,0,0,0,353.387,250.308Z" transform="translate(-333.312 -215.658)" fill="#efc04d"/>
            <path id="Path_29" data-name="Path 29" d="M355.2,250.308l9.941,5.226a1.954,1.954,0,0,0,2.835-2.06l-.066-.385a31.243,31.243,0,0,1-8.183-4.344c-5.4-4.067-9.07-10.421-8.535-16.866A15.259,15.259,0,0,1,358,220.7l-1.949-3.951a1.954,1.954,0,0,0-3.5,0l-4.97,10.071a1.957,1.957,0,0,1-1.471,1.069L334.986,229.5a1.953,1.953,0,0,0-1.082,3.332l8.043,7.839a1.953,1.953,0,0,1,.562,1.73l-1.9,11.07a1.953,1.953,0,0,0,2.834,2.06l9.942-5.226A1.951,1.951,0,0,1,355.2,250.308Z" transform="translate(-333.312 -215.658)" fill="#e0a327"/>
          </g>
        </g>
        <g id="Group_62" data-name="Group 62">
          <g id="Group_56" data-name="Group 56" transform="translate(0 23.475)">
            <g id="Group_45" data-name="Group 45" transform="translate(249.677 109.368)">
              <g id="Group_39" data-name="Group 39" transform="translate(0)">
                <g id="Group_38" data-name="Group 38">
                  <circle id="Ellipse_2" data-name="Ellipse 2" cx="42.229" cy="42.229" r="42.229" fill="#0f6cd3"/>
                </g>
              </g>
              <path id="Path_30" data-name="Path 30" d="M357.243,360.455a42.016,42.016,0,0,0,22.787-6.684A57.983,57.983,0,0,1,360.1,346.01c-9.838-6.373-17.25-17.446-16.658-29.154.588-11.614,8.866-21.756,18.926-27.589a67.972,67.972,0,0,1,17.353-6.782,42.226,42.226,0,1,0-22.48,77.97Z" transform="translate(-315.014 -275.998)" fill="#0052ad"/>
              <g id="Group_41" data-name="Group 41" transform="translate(8.48 8.48)">
                <g id="Group_40" data-name="Group 40">
                  <circle id="Ellipse_3" data-name="Ellipse 3" cx="33.749" cy="33.749" r="33.749" fill="#cfe6ff"/>
                </g>
              </g>
              <path id="Path_31" data-name="Path 31" d="M361.194,288.09a56.056,56.056,0,0,1,5.874-2.946,33.75,33.75,0,1,0-.14,63.857,49.563,49.563,0,0,1-8-4.168c-9.838-6.373-17.25-17.446-16.658-29.154C342.855,304.065,351.133,293.924,361.194,288.09Z" transform="translate(-313.838 -274.821)" fill="#beddff"/>
              <g id="Group_43" data-name="Group 43" transform="translate(27.68 28.309)">
                <path id="Path_32" data-name="Path 32" d="M361.635,308.562c1.743,0,3.156-1.832,3.156-4.092s-1.413-4.09-3.156-4.09-3.156,1.831-3.156,4.09S359.892,308.562,361.635,308.562Z" transform="translate(-335.693 -300.38)" fill="#0052ad"/>
                <g id="Group_42" data-name="Group 42">
                  <path id="Path_33" data-name="Path 33" d="M339.187,302.649c-.012.029-.022.059-.032.089-.028.077-.055.153-.079.232-.014.046-.027.094-.04.142-.019.067-.037.136-.052.206s-.027.125-.038.189-.023.118-.032.179c-.012.08-.02.161-.028.243,0,.048-.012.1-.015.143-.01.132-.016.265-.016.4a5.422,5.422,0,0,0,.032.554c0,.045.01.089.016.135.023.178.052.353.092.522h0a4.545,4.545,0,0,0,.151.5c.013.036.027.072.041.108a4.326,4.326,0,0,0,.459.884c.017.024.034.049.052.073a3.492,3.492,0,0,0,.64.688c.019.015.038.03.058.044a2.618,2.618,0,0,0,1.614.582c1.743,0,3.156-1.832,3.156-4.092s-1.413-4.09-3.156-4.09a3.1,3.1,0,0,0-2.7,1.976l-.014.029C339.259,302.471,339.222,302.558,339.187,302.649Z" transform="translate(-338.854 -300.38)" fill="#0052ad"/>
                  <path id="Path_34" data-name="Path 34" d="M338.9,305.159c.023.178.052.353.092.522h0a4.545,4.545,0,0,0,.151.5c.013.036.027.072.041.108a4.326,4.326,0,0,0,.459.884c.017.024.034.049.052.073a3.492,3.492,0,0,0,.64.688l0,0a30.067,30.067,0,0,1,2.836-7.266,2.528,2.528,0,0,0-1.168-.293,3.1,3.1,0,0,0-2.7,1.976l-.014.029c-.04.086-.077.173-.112.264-.012.029-.022.059-.032.089-.028.077-.055.153-.079.232-.014.046-.027.094-.04.142-.019.067-.037.136-.052.206s-.027.125-.038.189-.023.118-.032.179c-.012.08-.02.161-.028.243,0,.048-.012.1-.015.143-.01.132-.016.265-.016.4a5.422,5.422,0,0,0,.032.554C338.891,305.07,338.9,305.114,338.9,305.159Z" transform="translate(-338.854 -300.38)" fill="#0052ad"/>
                </g>
              </g>
              <g id="Group_44" data-name="Group 44" transform="translate(27.016 49.154)">
                <path id="Path_35" data-name="Path 35" d="M339.329,318.333a1.04,1.04,0,0,0-1.014,1.291,15.685,15.685,0,0,0,30.358,0,1.039,1.039,0,0,0-1.014-1.291Z" transform="translate(-338.282 -318.333)" fill="#0052ad"/>
                <path id="Path_36" data-name="Path 36" d="M345.993,329.441a33.214,33.214,0,0,1-5.4-11.108h-1.259a1.04,1.04,0,0,0-1.014,1.291A15.82,15.82,0,0,0,345.993,329.441Z" transform="translate(-338.282 -318.333)" fill="#0052ad"/>
              </g>
            </g>
            <g id="Group_55" data-name="Group 55" transform="translate(0 0)">
              <g id="Group_48" data-name="Group 48">
                <g id="Group_47" data-name="Group 47">
                  <g id="Group_46" data-name="Group 46">
                    <circle id="Ellipse_4" data-name="Ellipse 4" cx="42.229" cy="42.229" r="42.229" fill="#0f6cd3"/>
                  </g>
                </g>
                <path id="Path_37" data-name="Path 37" d="M142.2,266.259a42.014,42.014,0,0,0,22.788-6.685,57.92,57.92,0,0,1-19.928-7.76c-9.839-6.372-17.251-17.446-16.659-29.153.589-11.614,8.866-21.756,18.926-27.589a67.946,67.946,0,0,1,17.353-6.782,42.226,42.226,0,1,0-22.48,77.97Z" transform="translate(-99.972 -181.801)" fill="#0052ad"/>
              </g>
              <g id="Group_51" data-name="Group 51" transform="translate(1.629 1.629)">
                <g id="Group_50" data-name="Group 50" transform="translate(0 0)">
                  <g id="Group_49" data-name="Group 49">
                    <circle id="Ellipse_5" data-name="Ellipse 5" cx="33.749" cy="33.749" r="33.749" transform="translate(0 65.692) rotate(-76.717)" fill="#cfe6ff"/>
                  </g>
                </g>
                <path id="Path_38" data-name="Path 38" d="M146.152,193.894a55.831,55.831,0,0,1,5.874-2.946,33.749,33.749,0,1,0-.14,63.857,49.56,49.56,0,0,1-8-4.169c-9.839-6.372-17.251-17.446-16.659-29.153C127.814,209.869,136.091,199.728,146.152,193.894Z" transform="translate(-100.425 -182.254)" fill="#beddff"/>
              </g>
              <g id="Group_54" data-name="Group 54" transform="translate(20.931 26.664)">
                <g id="Group_53" data-name="Group 53">
                  <g id="Group_52" data-name="Group 52">
                    <path id="Path_39" data-name="Path 39" d="M129.455,235.9h-.087a3.063,3.063,0,0,1-2.2-1.023l-8.391-9.408a3.066,3.066,0,0,1,4.576-4.081l6.23,6.986,22.706-22.706A3.065,3.065,0,0,1,156.623,210l-25,25A3.066,3.066,0,0,1,129.455,235.9Z" transform="translate(-117.999 -204.766)" fill="#0052ad"/>
                  </g>
                </g>
                <path id="Path_40" data-name="Path 40" d="M127.168,232.709a3.063,3.063,0,0,0,2.2,1.023h.087a3.092,3.092,0,0,0,.64-.069,31.1,31.1,0,0,1-4.353-11.765l-2.389-2.68a3.066,3.066,0,1,0-4.576,4.081Z" transform="translate(-117.999 -202.603)" fill="#0052ad"/>
              </g>
            </g>
          </g>
          <g id="Group_61" data-name="Group 61" transform="translate(134.785)">
            <path id="Path_41" data-name="Path 41" d="M279.682,161.582h-43.61A20.012,20.012,0,0,0,216.06,181.6h0a20.012,20.012,0,0,0,20.012,20.012h13.044a2.094,2.094,0,0,1,.836.174l22.923,10.036a2.606,2.606,0,0,0,3.65-2.387v-5.739a2.085,2.085,0,0,1,2.084-2.084h1.073A20.012,20.012,0,0,0,299.695,181.6h0A20.012,20.012,0,0,0,279.682,161.582Z" transform="translate(-216.06 -161.582)" fill="#0f6cd3"/>
            <path id="Path_42" data-name="Path 42" d="M263.948,199.87c-6.767-2.965-12.905-7.79-16.391-14.3s-3.993-14.81-.338-21.231a15.92,15.92,0,0,1,1.984-2.753H236.072A20.012,20.012,0,0,0,216.06,181.6h0a20.012,20.012,0,0,0,20.012,20.012h13.044a2.094,2.094,0,0,1,.836.174l22.923,10.036a2.606,2.606,0,0,0,3.65-2.387v-5.739c0-.042.009-.081.013-.123A56.244,56.244,0,0,1,263.948,199.87Z" transform="translate(-216.06 -161.582)" fill="#0052ad"/>
            <g id="Group_60" data-name="Group 60" transform="translate(15.85 12.373)">
              <g id="Group_59" data-name="Group 59">
                <g id="Group_57" data-name="Group 57">
                  <path id="Path_43" data-name="Path 43" d="M279.38,176.772h-47.4a2.266,2.266,0,0,1-2.266-2.266h0a2.266,2.266,0,0,1,2.266-2.266h47.4a2.266,2.266,0,0,1,2.266,2.266h0A2.266,2.266,0,0,1,279.38,176.772Z" transform="translate(-229.711 -172.239)" fill="#f5f5f5"/>
                  <path id="Path_44" data-name="Path 44" d="M242.514,172.239H231.977a2.266,2.266,0,0,0,0,4.533H242.9A23.428,23.428,0,0,1,242.514,172.239Z" transform="translate(-229.711 -172.239)" fill="#ebebeb"/>
                </g>
                <g id="Group_58" data-name="Group 58" transform="translate(0 10.746)">
                  <path id="Path_45" data-name="Path 45" d="M279.38,186.027h-47.4a2.266,2.266,0,0,1-2.266-2.266h0a2.266,2.266,0,0,1,2.266-2.266h47.4a2.266,2.266,0,0,1,2.266,2.266h0A2.266,2.266,0,0,1,279.38,186.027Z" transform="translate(-229.711 -181.494)" fill="#f5f5f5"/>
                  <path id="Path_46" data-name="Path 46" d="M229.711,183.76a2.266,2.266,0,0,0,2.266,2.266h15.752a27.171,27.171,0,0,1-2.371-3.668c-.152-.283-.29-.575-.431-.865h-12.95A2.266,2.266,0,0,0,229.711,183.76Z" transform="translate(-229.711 -181.494)" fill="#ebebeb"/>
                </g>
              </g>
            </g>
          </g>
        </g>
      </g>
    </g>
    <g id="Group_68" data-name="Group 68" transform="translate(91.938 172.577)">
      <g id="Group_66" data-name="Group 66" transform="translate(36.144 24.725)">
        <g id="Group_65" data-name="Group 65">
          <path id="Path_47" data-name="Path 47" d="M320.191,195.442h-3.1v-3.1h-1.887v3.1h-3.1v1.887h3.1v3.1H317.1v-3.1h3.1Z" transform="translate(-92.621 -192.347)" fill="#0052ad"/>
          <path id="Path_48" data-name="Path 48" d="M131.146,266.015h-3.1v-3.1h-1.887v3.1h-3.1V267.9h3.1V271h1.887v-3.1h3.1Z" transform="translate(-123.068 -180.98)" fill="#0052ad"/>
          <path id="Path_49" data-name="Path 49" d="M208.288,359.289h-3.1v-3.1h-1.887v3.1h-3.1v1.887h3.1v3.1h1.887v-3.1h3.1Z" transform="translate(-110.644 -165.958)" fill="#0052ad"/>
          <path id="Path_50" data-name="Path 50" d="M403.4,273.737h-3.1v-3.1h-1.887v3.1h-3.1v1.887h3.1v3.1h1.887v-3.1h3.1Z" transform="translate(-79.219 -179.737)" fill="#0052ad"/>
        </g>
      </g>
      <g id="Group_67" data-name="Group 67">
        <path id="Path_51" data-name="Path 51" d="M191.688,178.393a1.428,1.428,0,0,0,0,2.854A1.428,1.428,0,0,0,191.688,178.393Z" transform="translate(-76.094 -169.87)" fill="none" stroke="#efc04d" stroke-miterlimit="10" stroke-width="0.738"/>
        <path id="Path_52" data-name="Path 52" d="M93.316,298.3a1.428,1.428,0,0,0,0,2.854A1.428,1.428,0,0,0,93.316,298.3Z" transform="translate(-91.938 -150.558)" fill="none" stroke="#efc04d" stroke-miterlimit="10" stroke-width="0.738"/>
        <path id="Path_53" data-name="Path 53" d="M272.441,363.88a1.428,1.428,0,0,0,0,2.854A1.428,1.428,0,0,0,272.441,363.88Z" transform="translate(-63.088 -139.995)" fill="none" stroke="#efc04d" stroke-miterlimit="10" stroke-width="0.738"/>
        <path id="Path_54" data-name="Path 54" d="M399.2,330.11a1.428,1.428,0,0,0,0,2.855A1.428,1.428,0,0,0,399.2,330.11Z" transform="translate(-42.673 -145.434)" fill="none" stroke="#efc04d" stroke-miterlimit="10" stroke-width="0.738"/>
        <path id="Path_55" data-name="Path 55" d="M365.918,171.052a1.428,1.428,0,0,0,0,2.854A1.428,1.428,0,0,0,365.918,171.052Z" transform="translate(-48.033 -171.052)" fill="none" stroke="#efc04d" stroke-miterlimit="10" stroke-width="0.738"/>
      </g>
    </g>
  </g>
</svg>
