<?xml version="1.0" encoding="utf-8"?>
<!-- Generator: Adobe Illustrator 25.0.1, SVG Export Plug-In . SVG Version: 6.00 Build 0)  -->
<svg version="1.1" id="Layer_1" xmlns="http://www.w3.org/2000/svg" xmlns:xlink="http://www.w3.org/1999/xlink" x="0px" y="0px"
	 viewBox="0 0 177.5 100.7" style="enable-background:new 0 0 177.5 100.7;" xml:space="preserve">
<style type="text/css">
	.st0{fill-rule:evenodd;clip-rule:evenodd;fill:#FFEBD6;stroke:#000000;stroke-width:0.5669;stroke-miterlimit:10;}
	.st1{fill:none;stroke:#1E5B80;stroke-width:1.4173;stroke-miterlimit:10;}
	.st2{font-family:'MyriadPro-Regular';}
	.st3{font-size:23.999px;}
	.st4{font-family:'Cambria';}
	.st5{font-size:17.9992px;}
</style>
<g id="Layer_x0020_1">
	<path class="st0" d="M1.7,68.2l17.9-27.6c11.7,5.5,19,16.1,19,27.6H1.7z"/>
	<path class="st1" d="M45,0.7h131.2l-43.7,67.7H1.3L45,0.7z"/>
	<text transform="matrix(1 0 0 1 114.8887 41.4272)" class="st2 st3">h</text>
	<g>
		<path d="M130.7,1l3.1,6.2h-6.2L130.7,1z M130.4,62.8v-56h0.6v56H130.4z M130.7,68.7l-3.1-6.2h6.2L130.7,68.7z"/>
	</g>
	<text transform="matrix(1 0 0 1 56.915 100.459)" class="st2 st3">b</text>
	<g>
		<path d="M1.3,76.9l6.2-3.1V80L1.3,76.9z M126.6,77.2H7.2v-0.5h119.5V77.2z M132.5,76.9l-6.2,3.1v-6.2L132.5,76.9z"/>
	</g>
	<text transform="matrix(1 0 0 1 17.2715 60.7676)" class="st4 st5">α</text>
</g>
</svg>
