<svg xmlns="http://www.w3.org/2000/svg" xmlns:xlink="http://www.w3.org/1999/xlink" width="429.424" height="284.373" viewBox="0 0 429.424 284.373">
  <defs>
    <clipPath id="clip-path">
      <rect id="Rectangle_1117" data-name="Rectangle 1117" width="429.424" height="284.373" fill="none"/>
    </clipPath>
  </defs>
  <g id="Group_2496" data-name="Group 2496" transform="translate(3 6)">
    <g id="Group_2495" data-name="Group 2495" transform="translate(-3 -6)" clip-path="url(#clip-path)">
      <path id="Path_4256" data-name="Path 4256" d="M28.264,199.5A24.981,24.981,0,0,1,53.173,224.4,45.58,45.58,0,0,0,98.618,269.85H367.081a59.038,59.038,0,0,0,0-118.075,11.848,11.848,0,1,1,0-23.7h15.909a28.8,28.8,0,0,0,.055-57.6h-28.1a24.981,24.981,0,0,1-24.908-24.908A45.58,45.58,0,0,0,284.587.122H59.157A59.211,59.211,0,0,0,.119,59.159h0A59.211,59.211,0,0,0,59.157,118.2,11.884,11.884,0,0,1,71,130.045h0a11.884,11.884,0,0,1-11.848,11.848H28.264c-37.686,0-37.686,57.6,0,57.6" transform="translate(3.306 6.577)" fill="#c6e3f1" fill-rule="evenodd"/>
      <rect id="Rectangle_1111" data-name="Rectangle 1111" width="17.212" height="141.695" transform="translate(269.615 6.699)" fill="#a4cbe7"/>
      <path id="Path_4257" data-name="Path 4257" d="M483.065,269.85h-95.78V.122h13.287a45.58,45.58,0,0,1,45.446,45.446,24.981,24.981,0,0,0,24.907,24.909h28.1a28.8,28.8,0,0,1-.055,57.6h-15.91a11.848,11.848,0,1,0,0,23.7A59.27,59.27,0,0,1,539.01,192v37.629a59.27,59.27,0,0,1-55.945,40.223" transform="translate(-109.586 6.577)" fill="#e3f3fc" fill-rule="evenodd"/>
      <path id="Path_4258" data-name="Path 4258" d="M387.284,201V185.323l114.69-114.69a28.576,28.576,0,0,1,11.746,3.933ZM489.038,70.477H470.925a24.67,24.67,0,0,1-10.776-2.468l-72.865,72.865v31.356Zm-65.2-63.9a45.263,45.263,0,0,0-8.94-4.123L387.284,30.063V43.128ZM405.989.449l-18.7,18.705V.122h13.287a45.163,45.163,0,0,1,5.417.327" transform="translate(-109.585 6.577)" fill="#f1f8fd" fill-rule="evenodd"/>
      <path id="Path_4259" data-name="Path 4259" d="M503.939,268.382v-6.739H463.63v8.306h-5.344v-8.306H417.978v8.306h-5.344V.462a44.746,44.746,0,0,1,5.344.881v24.3h30.746a45.412,45.412,0,0,1,2.234,5.343H417.978V87.248h40.309V60.428a25.228,25.228,0,0,0,5.344,5.324v21.5h40.309V70.576h2.48a28.526,28.526,0,0,1,2.863.149V87.248h23.187a28.673,28.673,0,0,1,1.882,5.342H509.282V128.03a28.988,28.988,0,0,1-2.918.148h-2.425V92.59H463.63V143.6h15.53a11.914,11.914,0,0,0,3.513,5.344H463.63v51.007h40.309V153.44q2.721.642,5.343,1.531v44.978H546.4v5.344H509.282V256.3H528.1a59.371,59.371,0,0,1-7.551,5.344H509.282v5.208q-2.619.888-5.343,1.531m0-63.089H463.63V256.3h40.309Zm-45.653,0H417.978V256.3h40.309Zm0-56.351H417.978v51.007h40.309Zm0-56.352H417.978V143.6h40.309Z" transform="translate(-116.975 6.477)" fill="#c6e3f1" fill-rule="evenodd"/>
      <path id="Path_4260" data-name="Path 4260" d="M501.7,268.68v-8.559h-40.31v9.773h-5.344v-9.773H415.737v9.773h-5.343V.274a45.231,45.231,0,0,1,5.343.684v23.16h31.577a45.32,45.32,0,0,1,2.456,5.344H415.737V85.726h40.309V57.949a25.225,25.225,0,0,0,5.344,6.482V85.726H501.7V70.521h4.067c.427,0,.853.013,1.277.033V85.726h24.035a28.6,28.6,0,0,1,2.22,5.344H507.043V128.09c-.442.02-.886.033-1.331.033H501.7V91.07h-40.31v51.007h16.753a11.8,11.8,0,0,0,2.464,5.344H461.389v51.007H501.7V153.033q2.719.56,5.344,1.372v44.022h38.7v5.344h-38.7v51.008h22.1a59.651,59.651,0,0,1-6.915,5.342H507.043v7.187q-2.623.807-5.344,1.372m0-64.91h-40.31v51.008H501.7Zm-45.653,0H415.738v51.008h40.308Zm0-56.35H415.738v51.007h40.308Zm0-56.351H415.738v51.008h40.308Z" transform="translate(-116.322 6.532)" fill="#fff" fill-rule="evenodd"/>
      <path id="Path_4261" data-name="Path 4261" d="M247.632,7.052c0-.023-1.151-7.84,7-6.565l-.1.633c-7.292-1.14-6.268,5.827-6.265,5.847Z" transform="translate(-68.861 6.511)" fill="#000618" fill-rule="evenodd"/>
      <path id="Path_4262" data-name="Path 4262" d="M261.345,1.292c.022,0,7.857-.527,6.248,7.123l-.629-.13c1.433-6.821-5.565-6.352-5.586-6.35Z" transform="translate(-72.875 6.238)" fill="#000618" fill-rule="evenodd"/>
      <path id="Path_4263" data-name="Path 4263" d="M256.6.014a6.533,6.533,0,1,1-6.938,6.1A6.532,6.532,0,0,1,256.6.014" transform="translate(-69.466 6.612)" fill="#000618" fill-rule="evenodd"/>
      <path id="Path_4264" data-name="Path 4264" d="M213.493,104.277s-3.958,8.177-8.664,16.869c-5.51,10.18-18.968,14.36-12.38-3.157,2.754-7.322,6.066-16.668,8.466-23.59,2.225-6.419,5.472-14.045,10.732-16.482,0,0,8.263,2.232,1.846,26.361" transform="translate(-52.274 -16.1)" fill="#fff" fill-rule="evenodd"/>
      <path id="Path_4265" data-name="Path 4265" d="M213.493,107.873s-3.958,8.177-8.664,16.869c-5.51,10.18-18.968,14.36-12.38-3.157q.174-.461.35-.933c4.85.541,8.583-2.392,10.329-6.318,1.991-4.481,9.008-24.079,9.008-24.079l3.742.227c.247,3.9-.276,9.462-2.384,17.392" transform="translate(-52.274 -19.697)" fill="#fceadd" fill-rule="evenodd"/>
      <path id="Path_4266" data-name="Path 4266" d="M279.443,104.277s3.959,8.177,8.664,16.869c5.511,10.18,18.969,14.36,12.38-3.157-2.754-7.322-6.067-16.668-8.466-23.59-2.225-6.419-5.472-14.045-10.732-16.482,0,0-8.263,2.232-1.846,26.361" transform="translate(-77.439 -16.1)" fill="#fff" fill-rule="evenodd"/>
      <path id="Path_4267" data-name="Path 4267" d="M279.443,104.277s3.959,8.177,8.664,16.869c5.511,10.18,18.969,14.36,12.38-3.157-.18-.48-.364-.969-.549-1.465-4.23.295-9.053-3.185-10.161-6.034-1.394-3.585-5.178-16.031-7.152-23.446a13.168,13.168,0,0,1,.361-8.118,10.019,10.019,0,0,0-1.7-1.009s-8.263,2.232-1.846,26.361" transform="translate(-77.439 -16.1)" fill="#fceadd" fill-rule="evenodd"/>
      <path id="Path_4268" data-name="Path 4268" d="M255.543,40.81l-.219,5.137V58.069a4.375,4.375,0,0,0,1.991,2.857c0,13.013-19.193,14.008-19.193,0a4.373,4.373,0,0,0,1.99-2.857V45.947l-.218-5.137s3.682.661,7.482,1.592l.343-.084.344.084c3.8-.931,7.481-1.592,7.481-1.592" transform="translate(-66.105 -5.284)" fill="#e8685b" fill-rule="evenodd"/>
      <path id="Path_4269" data-name="Path 4269" d="M241.541,147.527h.138c11.244.1,18.429-1.989,22.3-3.608-.1-.721-.191-1.41-.276-2.057,0,0,2.148-2.441,2.413-3.464s-.858-24.854-.858-24.854l.064-3.039q.157-2.249.316-4.674l.351-5.953a136.289,136.289,0,0,0-2.209-24.5l0-.006L251.138,69.2l-.006,0c-.919,3.46-4.865,6.063-9.591,6.063s-8.672-2.6-9.591-6.063l-.006,0L219.3,75.376l0,.006a136.245,136.245,0,0,0-2.21,24.5l.351,5.953q.157,2.425.316,4.674l.064,3.039s-1.124,23.83-.859,24.854,2.413,3.464,2.413,3.464c-.085.647-.177,1.336-.276,2.057,3.866,1.619,11.051,3.7,22.295,3.608Z" transform="translate(-59.928 -13.56)" fill="#e4414f" fill-rule="evenodd"/>
      <path id="Path_4270" data-name="Path 4270" d="M225.461,99.05l14.053,2.643c.684.129,1.044.842,1.244,1.523a1.011,1.011,0,0,1,1.008-1.006h3.795a1.011,1.011,0,0,1,1.008,1.006,1.789,1.789,0,0,1,1.245-1.523l14.052-2.643a1.023,1.023,0,0,1,1.245,1.055v24.736a1.6,1.6,0,0,1-1.245,1.523l-14.052,2.641c-.684.13-1.118-.356-1.245-1.054v.3a1.01,1.01,0,0,1-1.008,1.007h-3.795a1.011,1.011,0,0,1-1.008-1.007v-.3c-.135.7-.56,1.183-1.244,1.054l-14.053-2.641a1.6,1.6,0,0,1-1.244-1.523V100.105a1.023,1.023,0,0,1,1.244-1.055" transform="translate(-62.052 -22.254)" fill="#be2a34" fill-rule="evenodd"/>
      <path id="Path_4271" data-name="Path 4271" d="M250.86,147.527H251c11.244.1,18.429-1.989,22.3-3.608-.1-.721-.191-1.41-.276-2.057,0,0,2.148-2.441,2.413-3.464s-.858-24.854-.858-24.854l.064-3.039q.157-2.249.316-4.674l.351-5.953a136.291,136.291,0,0,0-2.209-24.5l0-.006L260.457,69.2l-.006,0a8.358,8.358,0,0,1-5.6,5.4c3.482,3.085,8.6,7.664,9.383,8.571,1.2,1.394,2.505,6.529,2.505,21.238v25.263c0,6.97-4.967,15.944-17.842,17.84.6.006,1.2.009,1.822,0Z" transform="translate(-69.247 -13.56)" fill="#be2a34" fill-rule="evenodd"/>
      <path id="Path_4272" data-name="Path 4272" d="M251.488,85.912q.387,0,1.3,1.027t2.043,2.6q1.133,1.576,2.32,3.493t2.209,3.733a35.246,35.246,0,0,1,1.656,3.287,6.3,6.3,0,0,1,.636,2.157,4.889,4.889,0,0,1-.774,2.877A8.462,8.462,0,0,1,259,107a24.344,24.344,0,0,1-2.347,1.54,10.094,10.094,0,0,0-2.126,1.61q.108.547.745,2.636t1.462,4.966q.829,2.875,1.768,6.094t1.711,5.958q.774,2.74,1.3,4.555t.524,1.883q0,.685-.359.856a1.848,1.848,0,0,1-.8.171q-1.1,0-2.208-.1t-2.21-.1a9.922,9.922,0,0,0-1.464.1,2.394,2.394,0,0,1-1.408-.239q-1.216-5.821-2.844-11.676T247.4,113.784a1.424,1.424,0,0,0-1.1.344,1.505,1.505,0,0,0-.5,1.232c0,6.955-.116,9.777-.116,16.739a.7.7,0,0,1-.7.7h-6.244a.7.7,0,0,1-.7-.7c0-10.061.079-16,.033-26.053l-.056-11.779a9.948,9.948,0,0,0-1.326.993,2.115,2.115,0,0,0-.663,1.678v17.19c0,6.535-.039,6.051-.051,10.356v3.746a.5.5,0,0,1-.5.5H229.18a.5.5,0,0,1-.5-.5V123.8a.4.4,0,0,1,0-.058c-.03-2.356.113-2.065.049-7.182q-.054-4.35-.055-8.8,0-1.1.028-2.328t.028-2.535q0-1.3-.11-2.5a13.347,13.347,0,0,0-.387-2.226,1.773,1.773,0,0,0-.8-1.1,1.2,1.2,0,0,1-.635-1.028,1.3,1.3,0,0,1,.221-.821,1.411,1.411,0,0,1,.525-.41,2.088,2.088,0,0,1,.662-.172,6.118,6.118,0,0,0,.69-.1q2.707-.753,5.468-1.472a41.444,41.444,0,0,0,5.412-1.814q1.878-.754,3.7-1.678t3.7-1.678a5.764,5.764,0,0,0,.966-.48q.58-.342,1.215-.685t1.215-.582a2.592,2.592,0,0,1,.911-.239m-12.75,51.362h6.244a.7.7,0,0,0,.7-.7v-1.989a.7.7,0,0,0-.7-.7h-6.244a.7.7,0,0,0-.7.7v1.989a.7.7,0,0,0,.7.7m6.952-44.993q-.056,1.371-.083,2.671t-.028,2.6q0,3.493.083,6.849t.138,6.848a3.589,3.589,0,0,0,1.326-.48q.94-.48,1.96-1.13t1.933-1.3q.911-.65,1.353-.993a2.562,2.562,0,0,0,.884-.959,5.538,5.538,0,0,0,.442-1.3,8.444,8.444,0,0,0-.636-1.781q-.524-1.164-1.27-2.6t-1.6-2.911q-.856-1.471-1.712-2.67a18.711,18.711,0,0,0-1.6-1.986,2.552,2.552,0,0,0-1.187-.856" transform="translate(-62.806 -18.431)" fill="#000618" fill-rule="evenodd"/>
      <path id="Path_4273" data-name="Path 4273" d="M258.936,70.548,256.181,69.2l-.006,0c-.918,3.46-4.864,6.063-9.591,6.063s-8.671-2.6-9.591-6.063l-.006,0-2.755,1.345c1.7,5.094,7.25,7.752,12.351,7.752s10.654-2.658,12.351-7.752" transform="translate(-64.972 -13.56)" fill="#fff" fill-rule="evenodd"/>
      <path id="Path_4274" data-name="Path 4274" d="M279.225,102.853l.176-2.975c0-6.7,1.821-12.722,1.279-17.117a13.272,13.272,0,0,0-3.489-7.379l0-.006L264.554,69.2l-.006,0a6.853,6.853,0,0,1-1.595,2.847l1.525,1.394a93.866,93.866,0,0,1,8.1,4.762c2.465,1.793,6.651,6.579,6.651,24.642" transform="translate(-73.343 -13.56)" fill="#fff" fill-rule="evenodd"/>
      <path id="Path_4275" data-name="Path 4275" d="M279.225,102.853l.176-2.975a68.829,68.829,0,0,1,.825-9.294c-.632-2.191-1.217-4.284-1.695-6.081a13.162,13.162,0,0,1,.089-7.308,11.13,11.13,0,0,0-1.429-1.813l0-.006L264.554,69.2l-.006,0a6.853,6.853,0,0,1-1.595,2.847l1.525,1.394a93.866,93.866,0,0,1,8.1,4.762c2.465,1.793,6.651,6.579,6.651,24.642" transform="translate(-73.343 -13.56)" fill="#fceadd" fill-rule="evenodd"/>
      <path id="Path_4276" data-name="Path 4276" d="M265.66,70.548,262.905,69.2l-.006,0a8.356,8.356,0,0,1-5.6,5.4c.776.687,1.633,1.449,2.507,2.228a10.907,10.907,0,0,0,5.852-6.29" transform="translate(-71.696 -13.56)" fill="#fceadd" fill-rule="evenodd"/>
      <path id="Path_4277" data-name="Path 4277" d="M233,32.473c-.1,0-.2.01-.3.021h0a4.053,4.053,0,1,0,3.283,1.151c-.018,1.2-.356,2.654-1.89,2.648l.279-2.32a1.393,1.393,0,0,0-1.37-1.5" transform="translate(-63.467 -2.854)" fill="#e8685b" fill-rule="evenodd"/>
      <path id="Path_4278" data-name="Path 4278" d="M273.628,36.615c.1.023.2.05.29.081h0a4.053,4.053,0,1,1-3.447.47c-.223,1.18-.182,2.672,1.321,2.974l.191-2.33a1.392,1.392,0,0,1,1.641-1.2" transform="translate(-75.001 -4.057)" fill="#e8685b" fill-rule="evenodd"/>
      <path id="Path_4279" data-name="Path 4279" d="M251.214,6.093h0a13.915,13.915,0,0,0-15.2,12.409l-1.267,12.554a13.873,13.873,0,1,0,27.606,2.789l1.268-12.554a13.915,13.915,0,0,0-12.408-15.2" transform="translate(-65.101 4.857)" fill="#f4ad85" fill-rule="evenodd"/>
      <path id="Path_4280" data-name="Path 4280" d="M251.214,6.093h0a13.915,13.915,0,0,0-15.2,12.409l-1.268,12.554a13.779,13.779,0,0,0,1.742,8.222l.091-.008s.5-4.947.734-7.264.5-4.918.582-5.756a.781.781,0,0,1,.9-.733c2.094.212,2.3-1.945,2.546-4.4s1.24-2.989,2.615-2.85l12.631,1.276c3.307.334,3.17,2.052,3.17,2.052l1.92-1.913A76.431,76.431,0,0,1,259.1,9.6a13.769,13.769,0,0,0-7.883-3.511" transform="translate(-65.101 4.857)" fill="#ef8871" fill-rule="evenodd"/>
      <path id="Path_4281" data-name="Path 4281" d="M264.281,46.454a1.824,1.824,0,1,0,1.593,2.028,1.825,1.825,0,0,0-1.593-2.028" transform="translate(-73.135 -6.925)" fill="#e8685b" fill-rule="evenodd"/>
      <path id="Path_4282" data-name="Path 4282" d="M242.287,43.809a1.825,1.825,0,1,0,1.594,2.029,1.825,1.825,0,0,0-1.594-2.029" transform="translate(-66.724 -6.154)" fill="#e8685b" fill-rule="evenodd"/>
      <path id="Path_4283" data-name="Path 4283" d="M264.547,38.67h0a1.2,1.2,0,0,1,1.071,1.312l-.157,1.554a1.2,1.2,0,0,1-2.383-.241l.157-1.555a1.2,1.2,0,0,1,1.312-1.071" transform="translate(-73.378 -4.658)" fill="#01020e" fill-rule="evenodd"/>
      <path id="Path_4284" data-name="Path 4284" d="M243.906,36.585h0a1.2,1.2,0,0,0-1.312,1.071l-.157,1.555a1.2,1.2,0,0,0,2.384.241l.157-1.554a1.2,1.2,0,0,0-1.072-1.313" transform="translate(-67.361 -4.05)" fill="#01020e" fill-rule="evenodd"/>
      <path id="Path_4285" data-name="Path 4285" d="M244.5,15.407c-1.486-.149-4.43.264-4.731,3.232s-1.1,5.266-2.994,5.074c0,0-.1,1.027-.235,2.328s-.391,2.606-1.62,2.482c.283-2.8-.459-3.987-.459-3.987s.378-3.747.709-7.021a12.567,12.567,0,0,1,6.3-10.168,16.749,16.749,0,0,1,18.876,1.906,12.573,12.573,0,0,1,4.139,11.223l-.709,7.021s-.965,1.015-1.248,3.815c-1.229-.124-1.222-1.453-1.09-2.755s.235-2.329.235-2.329c-1.894-.192-2.219-2.6-1.919-5.57s-2.5-3.962-3.989-4.113L244.5,15.407" transform="translate(-65.038 5.072)" fill="#01020e" fill-rule="evenodd"/>
      <path id="Path_4286" data-name="Path 4286" d="M233.877,32.255s-1.005,9.95-1.346,13.328,4.44,9.278,7.9,10.868,4.712,1.639,5.637,1.732,2.163.3,5.869-.57,9.57-5.691,9.912-9.07,1.346-13.327,1.346-13.327L261.4,33.9c-.193,1.916-.739,9.077-1.127,11.493-.4,2.49-2.312,2.531-4.828,2.94-1.8.292-3.572,5.007-4.98,4.865a5.8,5.8,0,0,1-2.6-.973,4.219,4.219,0,0,0-1.17-.288,4.174,4.174,0,0,0-1.2.049,5.826,5.826,0,0,1-2.741.434c-1.408-.142-2.206-5.118-3.906-5.762-2.383-.9-4.249-1.327-4.142-3.848.1-2.444,1-9.57,1.195-11.486Z" transform="translate(-64.471 -2.52)" fill="#01020e" fill-rule="evenodd"/>
      <path id="Path_4287" data-name="Path 4287" d="M241.362,19.848a3.253,3.253,0,0,0-1.623,2.628c-.3,2.968-1.1,5.266-2.994,5.074l-.026.264-.043.424-.1.975a1.111,1.111,0,0,1-2.21-.224l.141-1.4,0-.045.626-6.194a16.229,16.229,0,0,1,.485-2.639C238.314,17.718,241.362,19.848,241.362,19.848ZM261.62,30.284l-.006.044-.141,1.4a1.111,1.111,0,0,0,2.21.223l.1-.973.043-.424.631-6.239a16.109,16.109,0,0,0,.052-2.682h0c-2.422-1.5-5.81-.052-5.847-.035a3.255,3.255,0,0,1,1.066,2.9c-.3,2.969.026,5.378,1.919,5.57Z" transform="translate(-65.009 1.235)" fill="#0f1630" fill-rule="evenodd"/>
      <path id="Path_4288" data-name="Path 4288" d="M251.852,34.151a5.8,5.8,0,0,1-5.441-.549c-2.227-.993-7.986-2.07-11.782-1.265l-.095,2.045a.767.767,0,0,1,.829.679c.147.758.353,3.841,1.17,5.12,1.015,1.588,3.514,1.9,5.216,2,2.291.132,3.887-.73,4.7-2.381a20.636,20.636,0,0,1,1.773-3.511.955.955,0,0,1,1.325.134,20.686,20.686,0,0,1,1.036,3.794c.464,1.78,1.856,2.945,4.126,3.273,1.687.244,4.2.44,5.51-.913,1.056-1.09,1.875-4.069,2.169-4.782a.766.766,0,0,1,.948-.5l.316-2.023c-3.557-1.548-9.416-1.644-11.8-1.117m-6.428,5.541h0a3.817,3.817,0,0,1-3.382,1.615,7.774,7.774,0,0,1-4.255-1.1c-.769-.571-1.012-2.157-1.114-3.108s-.242-3,.781-3.56,3.431-.372,5.013-.113c1.194.194,3.76.776,4.156,1.756s-.608,3.627-1.2,4.51m15.269-.166h0c-.29.911-.845,2.417-1.713,2.823a7.758,7.758,0,0,1-4.388.225,3.812,3.812,0,0,1-2.991-2.258c-.4-.982-.857-3.776-.273-4.658s3.214-.938,4.423-.89c1.6.063,4,.355,4.889,1.113s.343,2.733.052,3.645" transform="translate(-65.059 -2.732)" fill="#01020e" fill-rule="evenodd"/>
      <path id="Path_4289" data-name="Path 4289" d="M251.123,50.57a.493.493,0,0,0-.982-.087,2.376,2.376,0,0,0,4.734.419.493.493,0,1,0-.981-.086,1.391,1.391,0,1,1-2.771-.246" transform="translate(-69.606 -7.973)" fill="#ed8068" fill-rule="evenodd"/>
      <path id="Path_4290" data-name="Path 4290" d="M216.77,102.853l-.175-2.975c0-6.7-1.822-12.722-1.28-17.117a13.277,13.277,0,0,1,3.489-7.379l0-.006,12.64-6.173.006,0a6.836,6.836,0,0,0,1.595,2.847l-1.525,1.394a93.84,93.84,0,0,0-8.1,4.762c-2.464,1.793-6.651,6.579-6.651,24.642" transform="translate(-59.428 -13.56)" fill="#fff" fill-rule="evenodd"/>
      <path id="Path_4291" data-name="Path 4291" d="M217.128,108.99l-.175-2.975a55.017,55.017,0,0,0-.511-6.91c1.238-3.387,2.318-6.382,2.851-7.864-1.238,3.691-2.165,9.25-2.165,17.749m2.519-18.735,0,.015Z" transform="translate(-59.786 -19.697)" fill="#fceadd" fill-rule="evenodd"/>
      <path id="Path_4292" data-name="Path 4292" d="M224.575,110.5H237.1a.3.3,0,0,1,.3.3v.8a.3.3,0,0,1-.3.3H224.575a.3.3,0,0,1-.3-.3v-.8a.3.3,0,0,1,.3-.3" transform="translate(-62.07 -25.597)" fill="#fff" fill-rule="evenodd"/>
      <path id="Path_4293" data-name="Path 4293" d="M253.889,44.393s-.835.9-.819,1.41a.772.772,0,0,0,.985.659c.462-.079.288-2.624-.166-2.069" transform="translate(-70.463 -6.305)" fill="#f8cab0" fill-rule="evenodd"/>
      <path id="Path_4294" data-name="Path 4294" d="M230.125,147.852h5.952a.671.671,0,0,1,.669.67v6.137a.671.671,0,0,1-.669.67h-5.952a.671.671,0,0,1-.67-.67v-6.137a.671.671,0,0,1,.67-.67" transform="translate(-63.579 -36.486)" fill="#fff" fill-rule="evenodd"/>
      <path id="Path_4295" data-name="Path 4295" d="M248.826,49.38a3.453,3.453,0,0,0,6.843.93h-.006a.6.6,0,0,0-.511-.672l-5.65-.768a.6.6,0,0,0-.672.51Z" transform="translate(-69.216 -7.632)" fill="#01020e" fill-rule="evenodd"/>
      <path id="Path_4296" data-name="Path 4296" d="M250.127,53.272a3.455,3.455,0,0,0,3.923.78,2.15,2.15,0,0,0-1.785-1.529,2.178,2.178,0,0,0-2.138.749" transform="translate(-69.605 -8.687)" fill="#be2a34" fill-rule="evenodd"/>
      <path id="Path_4297" data-name="Path 4297" d="M255.666,49.681l-5.31-.722a1.214,1.214,0,0,0,.4,1.389c.459.222,4.316.645,4.629.379a2.045,2.045,0,0,0,.277-1.046" transform="translate(-69.654 -7.659)" fill="#fff" fill-rule="evenodd"/>
      <path id="Path_4298" data-name="Path 4298" d="M118.383,87.2h0a.736.736,0,0,0-.734.733v1.378a.734.734,0,1,0,1.467,0V87.935a.736.736,0,0,0-.733-.733" transform="translate(-30.988 -18.807)" fill="#a4cbe7" fill-rule="evenodd"/>
      <path id="Path_4299" data-name="Path 4299" d="M118.383,91.881h0a.736.736,0,0,0-.734.734v1.379a.734.734,0,1,0,1.467,0V92.615a.736.736,0,0,0-.733-.734" transform="translate(-30.988 -20.171)" fill="#a4cbe7" fill-rule="evenodd"/>
      <path id="Path_4300" data-name="Path 4300" d="M118.383,96.5h0a.736.736,0,0,0-.734.734v1.379a.734.734,0,1,0,1.467,0V97.23a.736.736,0,0,0-.733-.734" transform="translate(-30.988 -21.516)" fill="#a4cbe7" fill-rule="evenodd"/>
      <path id="Path_4301" data-name="Path 4301" d="M118.383,101.114h0a.736.736,0,0,0-.734.733v1.379a.734.734,0,0,0,1.467,0v-1.379a.736.736,0,0,0-.733-.733" transform="translate(-30.988 -22.862)" fill="#a4cbe7" fill-rule="evenodd"/>
      <path id="Path_4302" data-name="Path 4302" d="M118.383,105.729h0a.736.736,0,0,0-.734.733v1.379a.734.734,0,0,0,1.467,0v-1.379a.736.736,0,0,0-.733-.733" transform="translate(-30.988 -24.207)" fill="#a4cbe7" fill-rule="evenodd"/>
      <path id="Path_4303" data-name="Path 4303" d="M118.383,110.345h0a.736.736,0,0,0-.734.734v1.378a.734.734,0,1,0,1.467,0v-1.378a.736.736,0,0,0-.733-.734" transform="translate(-30.988 -25.553)" fill="#a4cbe7" fill-rule="evenodd"/>
      <path id="Path_4304" data-name="Path 4304" d="M118.383,114.961h0a.736.736,0,0,0-.734.734v1.378a.734.734,0,1,0,1.467,0V115.7a.736.736,0,0,0-.733-.734" transform="translate(-30.988 -26.898)" fill="#a4cbe7" fill-rule="evenodd"/>
      <path id="Path_4305" data-name="Path 4305" d="M118.383,119.577h0a.736.736,0,0,0-.734.734v1.378a.734.734,0,0,0,1.467,0v-1.378a.736.736,0,0,0-.733-.734" transform="translate(-30.988 -28.244)" fill="#a4cbe7" fill-rule="evenodd"/>
      <path id="Path_4306" data-name="Path 4306" d="M117.957,122.342a.742.742,0,0,1,.653.5L120.4,128.5a.351.351,0,0,1-.339.5H114.87a.351.351,0,0,1-.339-.5l1.793-5.664a.741.741,0,0,1,.653-.5Z" transform="translate(-30.072 -29.05)" fill="#a4cbe7" fill-rule="evenodd"/>
      <path id="Path_4307" data-name="Path 4307" d="M139.768,97.809h-1.321c-.315,0-.572.378-.572.839V251.181c0,.461.257.838.572.838h1.321c.315,0,.572-.378.572-.838V98.648c0-.461-.258-.839-.572-.839" transform="translate(-36.884 -21.899)" fill="#a4cbe7" fill-rule="evenodd"/>
      <path id="Path_4308" data-name="Path 4308" d="M140.235,76.973H134.9a2.318,2.318,0,0,0-2.313,2.312V94.226a2.319,2.319,0,0,0,2.313,2.313h5.336a2.319,2.319,0,0,0,2.313-2.313V79.285a2.319,2.319,0,0,0-2.313-2.312" transform="translate(-35.342 -15.825)" fill="#a4cbe7" fill-rule="evenodd"/>
      <path id="Path_4309" data-name="Path 4309" d="M140.235,304.922H134.9a2.319,2.319,0,0,0-2.313,2.313V317.55a2.319,2.319,0,0,0,2.313,2.313h5.336a2.32,2.32,0,0,0,2.313-2.313V307.235a2.32,2.32,0,0,0-2.313-2.313" transform="translate(-35.342 -82.271)" fill="#a4cbe7" fill-rule="evenodd"/>
      <path id="Path_4310" data-name="Path 4310" d="M144.772,326h-20.3a1.99,1.99,0,0,1,0-3.98h20.3a1.99,1.99,0,0,1,0,3.98" transform="translate(-32.397 -87.257)" fill="#a4cbe7" fill-rule="evenodd"/>
      <path id="Path_4311" data-name="Path 4311" d="M128.4,28.4h11.409A4.754,4.754,0,0,1,144,31.577L155.5,67.9a2.254,2.254,0,0,1-2.175,3.181H103.483a2.254,2.254,0,0,1-2.175-3.181l11.5-36.324A4.754,4.754,0,0,1,117,28.4Z" transform="translate(-26.18 -1.665)" fill="#a4cbe7" fill-rule="evenodd"/>
      <path id="Path_4312" data-name="Path 4312" d="M150.656,61.721l1.311,4.144H105.216l1.311-4.144Zm2.106,6.653,2.624,8.288H101.8l2.624-8.288Z" transform="translate(-26.368 -11.379)" fill="#a4cbe7" fill-rule="evenodd"/>
      <path id="Path_4313" data-name="Path 4313" d="M118.516,91.789a.411.411,0,1,0-.412-.411.412.412,0,0,0,.412.411" transform="translate(-31.121 -19.904)" fill="#a4cbe7" fill-rule="evenodd"/>
      <path id="Path_4314" data-name="Path 4314" d="M118.516,96.4a.411.411,0,1,0-.412-.411.412.412,0,0,0,.412.411" transform="translate(-31.121 -21.25)" fill="#a4cbe7" fill-rule="evenodd"/>
      <path id="Path_4315" data-name="Path 4315" d="M118.516,101.021a.411.411,0,1,0-.412-.41.412.412,0,0,0,.412.41" transform="translate(-31.121 -22.595)" fill="#a4cbe7" fill-rule="evenodd"/>
      <path id="Path_4316" data-name="Path 4316" d="M118.516,105.637a.412.412,0,1,0-.412-.412.413.413,0,0,0,.412.412" transform="translate(-31.121 -23.941)" fill="#a4cbe7" fill-rule="evenodd"/>
      <path id="Path_4317" data-name="Path 4317" d="M118.516,110.254a.411.411,0,1,0-.412-.412.412.412,0,0,0,.412.412" transform="translate(-31.121 -25.286)" fill="#a4cbe7" fill-rule="evenodd"/>
      <path id="Path_4318" data-name="Path 4318" d="M118.516,114.869a.411.411,0,1,0-.412-.412.412.412,0,0,0,.412.412" transform="translate(-31.121 -26.632)" fill="#a4cbe7" fill-rule="evenodd"/>
      <path id="Path_4319" data-name="Path 4319" d="M118.516,119.485a.411.411,0,1,0-.412-.412.412.412,0,0,0,.412.412" transform="translate(-31.121 -27.978)" fill="#a4cbe7" fill-rule="evenodd"/>
      <path id="Path_4320" data-name="Path 4320" d="M84.557,218.565c10.156-10.341,17.712,2.8,16.658,15.981-1,12.5-11.777,55.4-9.779,73.447H87.308c-10.094-23.142-15.754-76.189-2.752-89.428" transform="translate(-19.137 -56.014)" fill="#63a9ba" fill-rule="evenodd"/>
      <path id="Path_4321" data-name="Path 4321" d="M92.14,310.311c-9.826-36.475,2.613-86.9,2.655-87.067a.583.583,0,0,1,1.134.276c-.041.171-12.494,50.647-2.595,86.791Z" transform="translate(-22.451 -58.333)" fill="#80b9c9" fill-rule="evenodd"/>
      <path id="Path_4322" data-name="Path 4322" d="M114.5,251.677c10.7-5.672,13.4,6.7,9.229,16.938-3.458,8.484-18.735,33.577-24.511,49.7H93.78c-.462-22.281,8.088-59.944,20.722-66.637" transform="translate(-24.025 -66.334)" fill="#fff" fill-rule="evenodd"/>
      <path id="Path_4323" data-name="Path 4323" d="M96.593,320.3c3.54-30.133,23.58-62.888,23.652-63.006a.488.488,0,0,1,.835.505c-.072.118-19.984,32.661-23.52,62.5Z" transform="translate(-24.85 -68.318)" fill="#b8b8c1" fill-rule="evenodd"/>
      <path id="Path_4324" data-name="Path 4324" d="M55.136,272.035c-10.373-4.532-12.018,7.189-7.41,16.435,3.118,6.255,14.356,22.275,21.924,35.9h8.637c-2.953-20.615-12.428-47.651-23.151-52.335" transform="translate(-9.896 -72.392)" fill="#3a7f80" fill-rule="evenodd"/>
      <path id="Path_4325" data-name="Path 4325" d="M77.133,326.24c-7.365-24.975-24.327-48.511-24.395-48.606a.456.456,0,0,0-.742.531c.068.094,16.85,23.384,24.2,48.076Z" transform="translate(-11.826 -74.261)" fill="#51a5a5" fill-rule="evenodd"/>
      <path id="Path_4326" data-name="Path 4326" d="M97.995,343.453H70.73a1.486,1.486,0,0,0-1.482,1.483v6.731a1.487,1.487,0,0,0,1.482,1.484H97.995a1.487,1.487,0,0,0,1.482-1.484v-6.731a1.486,1.486,0,0,0-1.482-1.483" transform="translate(-16.879 -93.503)" fill="#2f365c" fill-rule="evenodd"/>
      <path id="Path_4327" data-name="Path 4327" d="M93.928,351.181H76.017L71.34,355.4l3.82,14.716H94.784L98.6,355.4Z" transform="translate(-17.489 -95.755)" fill="#2f365c" fill-rule="evenodd"/>
      <path id="Path_4328" data-name="Path 4328" d="M71.34,357.139l.786,3.025H97.819l.786-3.025Z" transform="translate(-17.489 -97.492)" fill="#121c39" fill-rule="evenodd"/>
      <rect id="Rectangle_1112" data-name="Rectangle 1112" width="11.995" height="21.948" transform="translate(97.424 257.838)" fill="#000618"/>
      <rect id="Rectangle_1113" data-name="Rectangle 1113" width="11.995" height="21.948" transform="translate(330.453 257.838)" fill="#000618"/>
      <path id="Path_4329" data-name="Path 4329" d="M340.611,258.814H184.738a26.859,26.859,0,0,1-26.78-26.779V171.781A26.858,26.858,0,0,1,184.738,145H340.611a26.859,26.859,0,0,1,26.779,26.779v60.253a26.86,26.86,0,0,1-26.779,26.779" transform="translate(-42.738 -35.655)" fill="#9d7660" fill-rule="evenodd"/>
      <path id="Path_4330" data-name="Path 4330" d="M157.958,205.114V171.781A26.858,26.858,0,0,1,184.737,145H340.611a26.54,26.54,0,0,1,9.98,1.941v33.334a26.86,26.86,0,0,1-26.779,26.779H167.939a26.541,26.541,0,0,1-9.981-1.941" transform="translate(-42.738 -35.655)" fill="#be8d76" fill-rule="evenodd"/>
      <path id="Path_4331" data-name="Path 4331" d="M463.174,237.92H448.391a12.591,12.591,0,0,0-12.553,12.553v64.158a12.589,12.589,0,0,0,12.553,12.553h14.784a12.59,12.59,0,0,0,12.553-12.553V250.473a12.591,12.591,0,0,0-12.553-12.553" transform="translate(-123.739 -62.74)" fill="#76533e" fill-rule="evenodd"/>
      <rect id="Rectangle_1114" data-name="Rectangle 1114" width="236.769" height="30.405" transform="translate(101.551 192.753)" fill="#5c3f2d"/>
      <path id="Path_4332" data-name="Path 4332" d="M131.926,237.92h14.784a12.591,12.591,0,0,1,12.553,12.553v64.158a12.59,12.59,0,0,1-12.553,12.553H131.926a12.59,12.59,0,0,1-12.553-12.553V250.473a12.59,12.59,0,0,1,12.553-12.553" transform="translate(-31.491 -62.74)" fill="#76533e" fill-rule="evenodd"/>
      <rect id="Rectangle_1115" data-name="Rectangle 1115" width="236.769" height="30.405" transform="translate(101.551 234.039)" fill="#825f49"/>
      <path id="Path_4333" data-name="Path 4333" d="M356.35,354.3H138.665V330.927H348.844a7.545,7.545,0,0,1,7.521,7.523v15.361q0,.243-.016.485" transform="translate(-37.114 -89.851)" fill="#966e59" fill-rule="evenodd"/>
      <rect id="Rectangle_1116" data-name="Rectangle 1116" width="236.769" height="30.405" transform="translate(101.551 204.469)" fill="#be8d76"/>
      <path id="Path_4334" data-name="Path 4334" d="M123.659,237.92h5.858a12.589,12.589,0,0,1,12.553,12.553v64.158a12.589,12.589,0,0,1-12.553,12.553h-5.858a12.589,12.589,0,0,1-12.553-12.553V250.473a12.59,12.59,0,0,1,12.553-12.553" transform="translate(-29.081 -62.74)" fill="#daa38a" fill-rule="evenodd"/>
      <path id="Path_4335" data-name="Path 4335" d="M475.114,237.92h-5.859A12.591,12.591,0,0,0,456.7,250.473v64.158a12.589,12.589,0,0,0,12.553,12.553h5.859a12.59,12.59,0,0,0,12.553-12.553V250.473a12.591,12.591,0,0,0-12.553-12.553" transform="translate(-129.821 -62.74)" fill="#daa38a" fill-rule="evenodd"/>
      <path id="Path_4336" data-name="Path 4336" d="M195.561,145h12.6c-1.485,2.111-2.766,3.9-3.205,4.447-3.8,4.7-14.32,2.711-9.393-4.447m68.7,0h12.6c4.927,7.159-5.591,9.145-9.393,4.447-.44-.543-1.72-2.336-3.206-4.447" transform="translate(-53.323 -35.655)" fill="#9d7660" fill-rule="evenodd"/>
      <path id="Path_4337" data-name="Path 4337" d="M206.284,135.1c-.474.893-.96,1.8-1.454,2.711-5.463,10.092-18.733,14.283-12.543-2.711Z" transform="translate(-52.275 -32.77)" fill="#fceadd" fill-rule="evenodd"/>
      <path id="Path_4338" data-name="Path 4338" d="M290.624,135.1c.475.893.96,1.8,1.454,2.711,5.463,10.092,18.733,14.283,12.543-2.711Z" transform="translate(-81.409 -32.77)" fill="#fceadd" fill-rule="evenodd"/>
      <path id="Path_4339" data-name="Path 4339" d="M260.408,94.44l-14.469,2.721a1.652,1.652,0,0,0-1.282,1.567,1.652,1.652,0,0,0-1.282-1.567L228.907,94.44a1.053,1.053,0,0,0-1.282,1.085v25.469a1.652,1.652,0,0,0,1.282,1.568l14.469,2.72a1.3,1.3,0,0,1,2.563,0l14.469-2.72a1.652,1.652,0,0,0,1.282-1.568V95.526a1.053,1.053,0,0,0-1.282-1.085" transform="translate(-63.046 -20.91)" fill="#fff" fill-rule="evenodd"/>
      <path id="Path_4340" data-name="Path 4340" d="M270.111,96.45l-14.052,2.643a1.789,1.789,0,0,0-1.245,1.523L252.5,112.579l2.315,12.772c.126.7.56,1.183,1.245,1.054l14.052-2.641a1.6,1.6,0,0,0,1.245-1.523V97.505a1.023,1.023,0,0,0-1.245-1.055" transform="translate(-70.296 -21.497)" fill="#4f939b" fill-rule="evenodd"/>
      <path id="Path_4341" data-name="Path 4341" d="M225.461,96.45l14.053,2.643c.684.129,1.044.842,1.244,1.523l2.906,9.832-2.906,14.9c-.135.7-.56,1.183-1.244,1.054l-14.053-2.641a1.6,1.6,0,0,1-1.244-1.523V97.505a1.023,1.023,0,0,1,1.244-1.055" transform="translate(-62.052 -21.497)" fill="#63a9ba" fill-rule="evenodd"/>
      <path id="Path_4342" data-name="Path 4342" d="M248.573,100.918h3.794a1.011,1.011,0,0,1,1.008,1.008v25.038a1.01,1.01,0,0,1-1.008,1.008h-3.794a1.01,1.01,0,0,1-1.008-1.008V101.926a1.011,1.011,0,0,1,1.008-1.008" transform="translate(-68.858 -22.805)" fill="#3a7f80" fill-rule="evenodd"/>
      <path id="Path_4343" data-name="Path 4343" d="M270.366,96.644,257.01,99.155a1.606,1.606,0,0,0-1.244,1.523v22.075l13.355-2.511a1.6,1.6,0,0,0,1.245-1.523Z" transform="translate(-71.248 -21.559)" fill="#63a9ba" fill-rule="evenodd"/>
      <path id="Path_4344" data-name="Path 4344" d="M269.628,103l-7.432,1.4a.849.849,0,0,0-.658.806v4.315a.541.541,0,0,0,.658.557l7.432-1.4a.848.848,0,0,0,.658-.8v-4.316a.541.541,0,0,0-.658-.557" transform="translate(-72.931 -23.408)" fill="#fff" fill-rule="evenodd"/>
      <path id="Path_4345" data-name="Path 4345" d="M237.473,99.648v22.609a1.023,1.023,0,0,1-1.245,1.054l-9.6-1.8-2.415-.454v2.127a1.6,1.6,0,0,0,1.244,1.523l14.053,2.641a1.011,1.011,0,0,0,1.228-.845,1.341,1.341,0,0,0,.017-.21V101.553a1.607,1.607,0,0,0-1.245-1.523Z" transform="translate(-62.052 -22.435)" fill="#4f939b" fill-rule="evenodd"/>
      <path id="Path_4346" data-name="Path 4346" d="M249.363,102.811h2.307a.615.615,0,0,1,.613.613v15.223a.614.614,0,0,1-.613.612h-2.307a.614.614,0,0,1-.613-.612V103.424a.615.615,0,0,1,.613-.613" transform="translate(-69.203 -23.357)" fill="#4b8c93" fill-rule="evenodd"/>
      <path id="Path_4347" data-name="Path 4347" d="M283.236,118.377a4.96,4.96,0,0,1-1.474-3.053c-.258-2.035-.832-5.756-.97-6.408s-.31-1.377-1.066-1.652a34.434,34.434,0,0,0-5.3-1.212c-.688.033-.929,1.823,1.479,2.717l.945.309s-3.37-.155-4.007-.189-.7,1.376-.154,2.029a3.968,3.968,0,0,0,2.821,1.445s-2.271.154-2.753.275a1.168,1.168,0,0,0-.653,1.291c.086.481,1.169,1.565,3.267,1.6-1.207.345-2.24,1.446-.825,2.24a10.558,10.558,0,0,0,2.518.673v1.651l2.41,3.482Z" transform="translate(-76.006 -24.301)" fill="#f4ad85" fill-rule="evenodd"/>
      <path id="Path_4348" data-name="Path 4348" d="M272.1,116.611a1.258,1.258,0,0,0,0,.4c.087.481,1.17,1.565,3.268,1.6.72-.31,1.338-.757,1.114-1.055s-1.361-.025-2.763-.025-1.615-.9-1.618-.915m2.079,2.671c-.451.473-.5,1.077.364,1.564a10.56,10.56,0,0,0,2.518.673v1.651l2.41,3.482,1-1.383a10.254,10.254,0,0,1-1.811-2.512c-.5-1.156-.269-2.278-.487-2.293a20.148,20.148,0,0,1-3.236-.485c-1.01-.255-.77-.677-.759-.7" transform="translate(-76.006 -27.379)" fill="#ef8871" fill-rule="evenodd"/>
      <path id="Path_4349" data-name="Path 4349" d="M286,123.152s-3.54,4.926-3.694,5.2c0,0,8.276,11.986,9.546,13.553,4.277,5.285,17.059,2.111,6.777-7.373C294.106,130.355,286,123.152,286,123.152" transform="translate(-78.986 -29.286)" fill="#f4ad85" fill-rule="evenodd"/>
      <path id="Path_4350" data-name="Path 4350" d="M283.287,128.511c-.524.738-.928,1.313-.978,1.4,0,0,8.276,11.986,9.546,13.553,2.341,2.894,7.23,3.251,9.49,1.428a6.013,6.013,0,0,1-5.364-.759c-1.245-.847-7.617-9.51-11.2-13.741-.607-.716-1.1-1.338-1.491-1.881" transform="translate(-78.986 -30.848)" fill="#ef8871" fill-rule="evenodd"/>
      <path id="Path_4351" data-name="Path 4351" d="M215.508,118.377a4.965,4.965,0,0,0,1.474-3.053c.257-2.035.832-5.756.969-6.408s.31-1.377,1.066-1.652a34.423,34.423,0,0,1,5.3-1.212c.687.033.929,1.823-1.479,2.717l-.946.309s3.37-.155,4.007-.189.7,1.376.154,2.029a3.97,3.97,0,0,1-2.821,1.445s2.27.154,2.752.275a1.168,1.168,0,0,1,.654,1.291c-.086.481-1.169,1.565-3.268,1.6,1.207.345,2.24,1.446.825,2.24a10.567,10.567,0,0,1-2.518.673v1.651l-2.41,3.482Z" transform="translate(-59.513 -24.301)" fill="#f4ad85" fill-rule="evenodd"/>
      <path id="Path_4352" data-name="Path 4352" d="M227.807,116.089a1.374,1.374,0,0,1,.107.765c-.086.481-1.169,1.566-3.268,1.6a8.5,8.5,0,0,1-1.032-.3c-.137-.087-.349-.461.884-.5s3.405-.572,3.309-1.562m-1.69,3.485c.121.373-.032.775-.645,1.119a10.607,10.607,0,0,1-2.519.673v1.651l-2.409,3.482-.661-.913c.443-.683,1.182-1.214,1.344-1.552.332-.694.8-2.666,1.08-3.415.074-.2.523-.349,1.406-.261s2.415-.074,2.4-.784" transform="translate(-60.789 -27.227)" fill="#ef8871" fill-rule="evenodd"/>
      <path id="Path_4353" data-name="Path 4353" d="M209,123.152s3.54,4.926,3.694,5.2c0,0-8.276,11.986-9.546,13.553-4.277,5.285-17.059,2.111-6.777-7.373C200.9,130.355,209,123.152,209,123.152" transform="translate(-52.797 -29.286)" fill="#f4ad85" fill-rule="evenodd"/>
      <path id="Path_4354" data-name="Path 4354" d="M212.369,129.16c.359.508.614.873.652.941,0,0-8.276,11.986-9.545,13.553-2.493,3.081-7.874,3.287-9.895,1.044a7.039,7.039,0,0,0,7.9-1.2c3.231-2.894,8.989-11.393,10.884-14.338" transform="translate(-53.122 -31.037)" fill="#ef8871" fill-rule="evenodd"/>
      <path id="Path_4355" data-name="Path 4355" d="M215.2,122.679a1.181,1.181,0,0,0-.4-.045.4.4,0,0,0-.222.086l-.006,0a.567.567,0,0,0-.136.22h0a2.446,2.446,0,0,0-.066,1.015,6.473,6.473,0,0,0,1.367,3.249,4.126,4.126,0,0,0,2.454,1.6.944.944,0,0,0,.405-.008.445.445,0,0,0,.227-.146.716.716,0,0,0,.135-.339,1.8,1.8,0,0,0,0-.551l.6-.862a.407.407,0,0,1,.122.2,3.142,3.142,0,0,1,.12,1.356,1.548,1.548,0,0,1-.315.732,1.274,1.274,0,0,1-.653.426,1.756,1.756,0,0,1-.773.028,4.956,4.956,0,0,1-2.975-1.909,7.342,7.342,0,0,1-1.547-3.693,3.242,3.242,0,0,1,.113-1.389,1.38,1.38,0,0,1,.372-.563l.014-.013a1.213,1.213,0,0,1,.689-.285,2.282,2.282,0,0,1,1,.162,4.761,4.761,0,0,1-.514.723" transform="translate(-58.93 -28.888)" fill="#000618" fill-rule="evenodd"/>
      <path id="Path_4357" data-name="Path 4357" d="M342.031,145h21.616l11.429,5.582c5.261,2.437,8.506,10.063,10.732,16.482,2.174,6.272,5.1,14.533,7.677,21.477a26.936,26.936,0,0,1-6.973,11.058,21.1,21.1,0,0,1-4.617-5.788c-1.917-3.538-3.708-6.991-5.159-9.842l-.12,1.741-.063,3.039s.443,9.405.706,16.652a26.535,26.535,0,0,1-9.237,1.654h-39.66c.251-7.373.766-18.306.766-18.306l-.065-3.039-.121-1.746c-1.451,2.852-3.244,6.306-5.161,9.848-5.509,10.18-18.968,14.36-12.38-3.156,2.754-7.322,6.067-16.668,8.466-23.59,2.225-6.419,5.472-14.045,10.733-16.482h0Z" transform="translate(-86.948 -35.655)" fill="#9d7660" fill-rule="evenodd"/>
      <path id="Path_4358" data-name="Path 4358" d="M294.362,279.259h11.757a13.26,13.26,0,0,1,2.6,1.642,1.532,1.532,0,0,1,.264,1.633h0a.45.45,0,0,1-.157.193l.491-.062.762-.21a2.021,2.021,0,0,1,.674-1.2l5.487-2h56.475l5.487,2a2.018,2.018,0,0,1,.676,1.2l.761.21.205.026a.441.441,0,0,1-.112-.157c-.128-.3.112.26,0,0A1.533,1.533,0,0,1,380,280.9a13.309,13.309,0,0,1,2.6-1.642h11.756l1.506,3.533c.508,1.19-.342,1.343-.627,1.465l-1.14.485c-.587.252-.323.55-.323.55a32.92,32.92,0,0,0,2.955,3.183,13.752,13.752,0,0,1,3.337,4.735c.811,1.9,5.641,13.235,6.221,14.6a2.37,2.37,0,0,1,.04,1.859h-6.212l-1.924-4.515c-.52-1.219-6.625-6.408-12.836-9.746a.766.766,0,0,1-.49-.842c.008-.068.02-.152.039-.247-2.174-.612-5.394-1.516-7.6-2.118-.306.508-.66.789-1.068.727-1-.154-15.328-3.336-31.752-7.092-16.425,3.756-30.751,6.938-31.754,7.092-.408.063-.764-.222-1.071-.734-2.317.618-5.731,1.547-7.834,2.123.017.1.03.18.038.249a.766.766,0,0,1-.491.842c-6.21,3.338-12.315,8.528-12.834,9.746l-1.926,4.515h-6.212a2.372,2.372,0,0,1,.04-1.859c.58-1.361,5.41-12.691,6.221-14.6a13.77,13.77,0,0,1,3.336-4.735,32.859,32.859,0,0,0,2.956-3.183s.264-.3-.322-.55l-1.14-.485c-.286-.122-1.136-.275-.628-1.465Z" transform="translate(-78.961 -74.79)" fill="#9d7660" fill-rule="evenodd"/>
      <path id="Path_4359" data-name="Path 4359" d="M328.217,179.24s-3.96,8.176-8.664,16.869c-5.51,10.18-18.968,14.359-12.38-3.156,2.753-7.323,6.066-16.668,8.466-23.59,2.225-6.42,5.472-14.045,10.732-16.483,0,0,8.263,2.232,1.846,26.361" transform="translate(-85.716 -37.951)" fill="#3a7f80" fill-rule="evenodd"/>
      <path id="Path_4360" data-name="Path 4360" d="M328.217,182.836s-3.96,8.176-8.664,16.869c-5.51,10.181-18.968,14.359-12.38-3.156q.172-.461.349-.934c4.85.541,8.584-2.391,10.328-6.318,1.992-4.481,9.009-24.079,9.009-24.079l3.742.227c.249,3.9-.274,9.462-2.383,17.392" transform="translate(-85.716 -41.548)" fill="#1c6263" fill-rule="evenodd"/>
      <path id="Path_4361" data-name="Path 4361" d="M394.166,179.24s3.959,8.176,8.666,16.869c5.509,10.18,18.967,14.359,12.379-3.156-2.755-7.323-6.066-16.668-8.466-23.59-2.225-6.42-5.472-14.045-10.732-16.483,0,0-8.263,2.232-1.847,26.361" transform="translate(-110.88 -37.951)" fill="#3a7f80" fill-rule="evenodd"/>
      <path id="Path_4362" data-name="Path 4362" d="M394.166,179.24s3.959,8.176,8.666,16.869c5.509,10.18,18.967,14.359,12.379-3.156q-.271-.721-.548-1.467c-4.232.3-9.053-3.184-10.162-6.034-1.393-3.584-5.178-16.031-7.151-23.446a13.16,13.16,0,0,1,.361-8.117,10.037,10.037,0,0,0-1.7-1.01s-8.263,2.232-1.847,26.361" transform="translate(-110.88 -37.951)" fill="#1c6263" fill-rule="evenodd"/>
      <path id="Path_4363" data-name="Path 4363" d="M370.267,115.773l-.218,5.138v12.121a4.376,4.376,0,0,0,1.99,2.857c0,13.013-19.193,14.008-19.193,0a4.373,4.373,0,0,0,1.99-2.857V120.911l-.22-5.138s3.683.661,7.482,1.592l.344-.083.343.083c3.8-.931,7.481-1.592,7.481-1.592" transform="translate(-99.547 -27.135)" fill="#e8685b" fill-rule="evenodd"/>
      <path id="Path_4364" data-name="Path 4364" d="M356.265,222.491h.137c11.245.1,18.43-1.989,22.3-3.608-.1-.721-.191-1.411-.276-2.056,0,0,2.147-2.441,2.412-3.465s-.857-24.854-.857-24.854l.063-3.039q.159-2.25.317-4.674l.351-5.952a136.259,136.259,0,0,0-2.21-24.5l0-.006-12.641-6.173-.006.006c-.919,3.46-4.864,6.061-9.59,6.061s-8.672-2.6-9.592-6.061l0-.006-12.641,6.173,0,.006a136.3,136.3,0,0,0-2.209,24.5l.351,5.952q.157,2.426.315,4.674l.065,3.039s-1.123,23.831-.858,24.854,2.414,3.465,2.414,3.465c-.085.645-.178,1.336-.276,2.056,3.866,1.62,11.051,3.7,22.295,3.608Z" transform="translate(-93.369 -35.412)" fill="#fff" fill-rule="evenodd"/>
      <path id="Path_4365" data-name="Path 4365" d="M340.186,174.013l14.052,2.643c.685.129,1.044.842,1.245,1.522h0a1.012,1.012,0,0,1,1.008-1.007h3.793a1.011,1.011,0,0,1,1.008,1.007h0a1.789,1.789,0,0,1,1.245-1.522l14.053-2.643a1.024,1.024,0,0,1,1.245,1.055V199.8a1.6,1.6,0,0,1-1.245,1.522l-14.053,2.642c-.684.129-1.118-.357-1.245-1.054v.3a1.01,1.01,0,0,1-1.008,1.007h-3.793a1.01,1.01,0,0,1-1.008-1.007v-.3c-.137.7-.56,1.183-1.245,1.054l-14.052-2.642a1.6,1.6,0,0,1-1.246-1.522V175.068a1.024,1.024,0,0,1,1.246-1.055" transform="translate(-95.493 -44.106)" fill="#1c6263" fill-rule="evenodd"/>
      <path id="Path_4366" data-name="Path 4366" d="M344.354,162.8a1.487,1.487,0,0,1,.866-.137c.308.091.924.219,1.849.38s1.906.325,2.946.486,2.033.336,2.976.521,1.59.3,1.936.346q3.237.625,6.153,1.042t5.258.8a39.352,39.352,0,0,1,3.987.832,6.383,6.383,0,0,1,2.457,1.146,5.592,5.592,0,0,1,1.587,2.879,20.955,20.955,0,0,1,.607,4.164q.116,2.258.059,4.616t-.059,4.234v13.741q0,1.665-.028,3.608a19.392,19.392,0,0,0,.259,3.608,1.631,1.631,0,0,0,.348.9q.287.348.577.694a6.113,6.113,0,0,1,.521.729,1.64,1.64,0,0,1,.231.868,4.183,4.183,0,0,1-.028.451.5.5,0,0,1-.318.382,4.008,4.008,0,0,0-2.861,1.943,37.6,37.6,0,0,0-1.82,3.47,1.052,1.052,0,0,1-.925.278.85.85,0,0,1-.75-.694,5.4,5.4,0,0,0-1.185-2.29,11.267,11.267,0,0,0-1.531-1.387c-.5-.371-.944-.683-1.328-.937a1.064,1.064,0,0,1-.577-.868,2.023,2.023,0,0,1,.2-.9,6.336,6.336,0,0,1,.461-.8q.261-.38.492-.8a2.411,2.411,0,0,0,.289-.832,19.878,19.878,0,0,0,.231-2.359q.056-1.32.087-2.707t0-2.707q-.03-1.318-.03-2.359v-.869a6.446,6.446,0,0,0-.057-.867,12.576,12.576,0,0,0-1.531.45q-1.128.382-2.283.9a16.459,16.459,0,0,0-2.081,1.11q-.923.591-.922,1.007l-.116,3.122a19.7,19.7,0,0,1-.606,4.548,21.607,21.607,0,0,1-1.733,4.753,14.336,14.336,0,0,1-2.717,3.781,4.891,4.891,0,0,1-3.5,1.562,4.036,4.036,0,0,1-.867-.139l-.289-.624a13.769,13.769,0,0,0,1.7-3.817,20.786,20.786,0,0,0,.664-4.512q.117-1.87.144-4.164t0-4.649q-.027-2.36-.057-4.684t-.028-4.338v-3.365q0-1.7-.115-3.367h-.289a1.249,1.249,0,0,0-1.214.972,9.107,9.107,0,0,0-.432,2.5q-.087,1.527-.029,3.3t.057,3.3v8.606q0,2.775-.145,5a14.266,14.266,0,0,1-.808,4.025,8.757,8.757,0,0,1-2.051,3.193,12.022,12.022,0,0,1-3.814,2.428c-.27.094-.568.2-.895.313a2.845,2.845,0,0,1-.954.174,1.037,1.037,0,0,1-1.1-.832q.75-1.458,1.213-2.569a15.2,15.2,0,0,0,.722-2.151,13.189,13.189,0,0,0,.347-2.256q.085-1.213.086-3.02V187.087q0-1.527-.058-2.221a4.2,4.2,0,0,0-.231-1.146,7.5,7.5,0,0,0-.491-1.006q-.319-.555-.837-1.735.057-.555.259-.694a1.575,1.575,0,0,1,.607-.209q1.327-.138,3.264-.415t4.16-.66q2.224-.38,4.506-.867t4.306-1.042a30.651,30.651,0,0,0,3.61-1.214,9.1,9.1,0,0,0,2.4-1.353c-.038-.186-.414-.383-1.127-.59a23.324,23.324,0,0,0-2.889-.59q-1.818-.277-4.132-.555t-4.765-.52q-2.455-.242-4.854-.416t-4.419-.312v-.278a5.846,5.846,0,0,1,.346-1.8,10.12,10.12,0,0,0,.462-2.013q.116-1.18.319-2.291t.318-2.36m16.235,20.682v3.749q1.5-.7,3.207-1.494t3.149-1.561q.058-1.042.174-2.082a18.98,18.98,0,0,0,.116-2.082c0-.139-.01-.37-.029-.694s-.049-.659-.086-1.005a5,5,0,0,0-.174-.9,1.061,1.061,0,0,0-.289-.521q-1.213.417-2.34.8a6.156,6.156,0,0,0-1.936,1.041,4.672,4.672,0,0,0-1.3,1.769,7.493,7.493,0,0,0-.49,2.984m.058,9.855q.576-.277,1.559-.694t1.993-.9q1.012-.486,1.821-.9a3.836,3.836,0,0,0,.982-.625,5.726,5.726,0,0,0,.144-.937q.029-.452.028-1.006c0-.186-.009-.405-.028-.66a1.481,1.481,0,0,0-.144-.589l-5.951,2.637c-.154.047-.261.209-.317.486a6.4,6.4,0,0,0-.116.937,11.407,11.407,0,0,0,0,1.144c.02.417.03.788.03,1.111" transform="translate(-96.162 -40.797)" fill="#01020e" fill-rule="evenodd"/>
      <path id="Path_4367" data-name="Path 4367" d="M365.584,222.491h.137c11.245.1,18.43-1.989,22.3-3.608-.1-.721-.191-1.411-.276-2.056,0,0,2.147-2.441,2.412-3.465s-.857-24.854-.857-24.854l.063-3.039q.159-2.25.317-4.674l.351-5.952a136.26,136.26,0,0,0-2.21-24.5l0-.006-12.641-6.173-.006.006a8.357,8.357,0,0,1-5.6,5.4c3.482,3.085,8.605,7.663,9.383,8.571,1.2,1.394,2.5,6.528,2.5,21.237v25.265c0,6.969-4.967,15.943-17.841,17.84.6.006,1.2.009,1.822,0Z" transform="translate(-102.688 -35.412)" fill="#e3edf2" fill-rule="evenodd"/>
      <path id="Path_4368" data-name="Path 4368" d="M373.661,145.511l-2.755-1.345-.006,0c-.918,3.46-4.864,6.062-9.59,6.062s-8.672-2.6-9.592-6.062l0,0-2.755,1.345c1.7,5.094,7.25,7.752,12.351,7.752s10.654-2.658,12.351-7.752" transform="translate(-98.414 -35.412)" fill="#3a7f80" fill-rule="evenodd"/>
      <path id="Path_4369" data-name="Path 4369" d="M393.948,177.816l.176-2.975c0-6.7,1.82-12.721,1.279-17.117a13.277,13.277,0,0,0-3.489-7.379l0-.006-12.641-6.173-.006.006a6.845,6.845,0,0,1-1.594,2.847l1.524,1.394a93.714,93.714,0,0,1,8.1,4.763c2.465,1.792,6.651,6.578,6.651,24.642" transform="translate(-106.785 -35.412)" fill="#3a7f80" fill-rule="evenodd"/>
      <path id="Path_4370" data-name="Path 4370" d="M393.948,177.816l.176-2.975a68.834,68.834,0,0,1,.825-9.294c-.631-2.191-1.216-4.284-1.695-6.081a13.176,13.176,0,0,1,.089-7.308,11.155,11.155,0,0,0-1.428-1.813l0-.006-12.641-6.173-.006.006a6.845,6.845,0,0,1-1.594,2.847l1.524,1.394a93.714,93.714,0,0,1,8.1,4.763c2.465,1.792,6.651,6.578,6.651,24.642" transform="translate(-106.785 -35.412)" fill="#1c6263" fill-rule="evenodd"/>
      <path id="Path_4371" data-name="Path 4371" d="M380.385,145.511l-2.755-1.345-.006,0a8.355,8.355,0,0,1-5.6,5.4c.777.688,1.634,1.449,2.507,2.228a10.9,10.9,0,0,0,5.853-6.29" transform="translate(-105.137 -35.412)" fill="#1c6263" fill-rule="evenodd"/>
      <path id="Path_4372" data-name="Path 4372" d="M395.9,238.61s-40.407,8.181-51.514,8.181-51.514-8.181-51.514-8.181l2,7.934,49.512,14.375L393.9,246.544Z" transform="translate(-82.066 -62.942)" fill="#01020e" fill-rule="evenodd"/>
      <path id="Path_4373" data-name="Path 4373" d="M310.316,283.875l2.176-.279s2.876-.788,3.778-1.076,3.409.246,4.23,4.436-1.355,5.051-3.778,5.667-11.612,3.137-11.612,3.137-4.491-11.692,5.2-11.884" transform="translate(-85.33 -75.722)" fill="#ef8871" fill-rule="evenodd"/>
      <path id="Path_4374" data-name="Path 4374" d="M317.7,269.35s78.195-28.5,82.139-29.98,9.527-1.807,11.087,3.039,2.629,16.016-11.992,20.124-77.128,18.153-79.264,18.481-2.828-8.824-2.646-10.469a2.015,2.015,0,0,1,.675-1.2" transform="translate(-89.096 -62.881)" fill="#0f1630" fill-rule="evenodd"/>
      <path id="Path_4375" data-name="Path 4375" d="M317.7,272.884s19.79-7.213,39.96-14.57c1.591,1.423,4.673,3.271,10.638,4.96,11.907,3.371,26.8-1.039,34.14-2.74,7.167-1.659,9.364-8.309,9.327-10.006.281,5.382-1.849,12.453-12.832,15.538-14.621,4.107-77.128,18.153-79.264,18.481s-2.828-8.824-2.646-10.469a2.015,2.015,0,0,1,.675-1.2" transform="translate(-89.096 -66.416)" fill="#01020e" fill-rule="evenodd"/>
      <path id="Path_4376" data-name="Path 4376" d="M414.019,283.875l-2.176-.279s-2.875-.788-3.778-1.076-3.409.246-4.23,4.436,1.355,5.051,3.778,5.667,11.836,3.286,11.836,3.286,5.917-11.018-5.43-12.034" transform="translate(-114.358 -75.722)" fill="#ef8871" fill-rule="evenodd"/>
      <path id="Path_4377" data-name="Path 4377" d="M374.471,269.35s-78.2-28.5-82.138-29.98-9.529-1.807-11.089,3.039-2.629,16.016,11.991,20.124,77.129,18.153,79.265,18.481,2.828-8.824,2.646-10.469a2.015,2.015,0,0,0-.675-1.2" transform="translate(-78.424 -62.881)" fill="#0f1630" fill-rule="evenodd"/>
      <path id="Path_4378" data-name="Path 4378" d="M280.885,245.872c-1.271,5.313-1.093,15.062,12.351,18.838,14.621,4.107,77.129,18.153,79.265,18.481,1.316.2,2.084-3.195,2.437-6.218-2.191,1.272-5.856,2.091-11.941.855-13.488-2.741-56.479-13.171-69.861-19.178-13.241-5.943-12.271-12.638-12.25-12.779" transform="translate(-78.424 -65.058)" fill="#01020e" fill-rule="evenodd"/>
      <path id="Path_4379" data-name="Path 4379" d="M343.7,114.071c-.1.014-.2.03-.306.052h0a4.162,4.162,0,1,0,3.474.837c.106,1.229-.09,2.749-1.658,2.9l.045-2.4a1.429,1.429,0,0,0-1.553-1.392" transform="translate(-95.829 -26.639)" fill="#e8685b" fill-rule="evenodd"/>
      <path id="Path_4380" data-name="Path 4380" d="M385.649,114.071c.1.014.206.03.305.052h0a4.163,4.163,0,1,1-3.475.837c-.1,1.229.089,2.749,1.657,2.9l-.045-2.4a1.43,1.43,0,0,1,1.553-1.392" transform="translate(-107.736 -26.639)" fill="#e8685b" fill-rule="evenodd"/>
      <path id="Path_4381" data-name="Path 4381" d="M360.528,84.728h0a14.291,14.291,0,0,0-14.25,14.248v12.96a14.249,14.249,0,1,0,28.5,0V98.976a14.29,14.29,0,0,0-14.247-14.248" transform="translate(-97.632 -18.086)" fill="#f4ad85" fill-rule="evenodd"/>
      <path id="Path_4382" data-name="Path 4382" d="M360.528,84.728h0a14.291,14.291,0,0,0-14.25,14.249v12.96a14.147,14.147,0,0,0,2.629,8.221l.093-.018V106.7a.8.8,0,0,1,.839-.84,1.754,1.754,0,0,0,1.818-1.231c4.32,2.342,12.787,1.154,16.526-2.072,0,0,.323,2.833,2.555,1.592,1.8-1,1.319-4.357,1.064-5.613l.818-1A78.335,78.335,0,0,1,368.946,87.5a14.148,14.148,0,0,0-8.418-2.773m-8.536,16.09c.07-2.3,1.008-2.9,2.373-2.9h5.582s-5.178.436-7.955,2.9m7.955-2.9H367.4a7.365,7.365,0,0,1,1.275.1Z" transform="translate(-97.632 -18.086)" fill="#ef8871" fill-rule="evenodd"/>
      <path id="Path_4383" data-name="Path 4383" d="M377.027,127.039a1.874,1.874,0,1,0,1.839,1.909,1.874,1.874,0,0,0-1.839-1.909" transform="translate(-106.039 -30.419)" fill="#e8685b" fill-rule="evenodd"/>
      <path id="Path_4384" data-name="Path 4384" d="M354.279,126.606a1.874,1.874,0,1,0,1.838,1.909,1.875,1.875,0,0,0-1.838-1.909" transform="translate(-99.408 -30.293)" fill="#e8685b" fill-rule="evenodd"/>
      <path id="Path_4385" data-name="Path 4385" d="M376.537,120.331h0a1.233,1.233,0,0,1,1.23,1.23v1.6a1.23,1.23,0,0,1-2.46,0v-1.6a1.233,1.233,0,0,1,1.23-1.23" transform="translate(-106.094 -28.464)" fill="#01020e" fill-rule="evenodd"/>
      <path id="Path_4386" data-name="Path 4386" d="M355.229,120.331h0a1.233,1.233,0,0,0-1.23,1.23v1.6a1.23,1.23,0,0,0,2.46,0v-1.6a1.233,1.233,0,0,0-1.23-1.23" transform="translate(-99.883 -28.464)" fill="#01020e" fill-rule="evenodd"/>
      <path id="Path_4387" data-name="Path 4387" d="M354.35,94.937c-1.533,0-4.5.726-4.5,3.79s-.582,5.494-2.536,5.494v2.4c0,1.343-.13,2.7-1.4,2.7,0-2.891-.881-4.027-.881-4.027V98.052a12.911,12.911,0,0,1,5.387-11.041,17.207,17.207,0,0,1,19.486,0A12.912,12.912,0,0,1,375.3,98.052V105.3s-.882,1.136-.882,4.027c-1.268,0-1.4-1.359-1.4-2.7v-2.4c-1.955,0-2.535-2.43-2.535-5.494s-2.967-3.79-4.5-3.79Z" transform="translate(-97.27 -17.87)" fill="#01020e" fill-rule="evenodd"/>
      <path id="Path_4388" data-name="Path 4388" d="M363.956,132.645a.506.506,0,1,0-1.012.011,2.441,2.441,0,0,0,4.882-.059.507.507,0,0,0-1.013.013,1.428,1.428,0,1,1-2.856.035" transform="translate(-102.49 -31.893)" fill="#ed8068" fill-rule="evenodd"/>
      <path id="Path_4389" data-name="Path 4389" d="M422.728,291.249l-.761-.83a7.471,7.471,0,0,0-1.92-5.088,11.565,11.565,0,0,0-4.259-3.142.57.57,0,0,1-.5-.3c-.128-.3.112.26,0,0a1.534,1.534,0,0,1,.264-1.633c.574-.6,4.583-3.049,7.315-3.2s2.934,1.177,2.934,1.177.648,5.346,3.128,8.081,4.892,5.181,4.892,5.181-6.342,2.52-11.1-.24" transform="translate(-117.713 -74.143)" fill="#01020e" fill-rule="evenodd"/>
      <path id="Path_4390" data-name="Path 4390" d="M442.783,314.726l-.871.789-1.241.529a1.837,1.837,0,0,1-2.529-.777l-2.242-5.259c-.519-1.219-6.624-6.408-12.835-9.746a.767.767,0,0,1-.491-.842c.074-.66.655-2.816.718-3.037s.6-.473.831-.457l11.354.815s7.667,13.046,7.3,17.987" transform="translate(-119.871 -79.648)" fill="#0f1630" fill-rule="evenodd"/>
      <path id="Path_4391" data-name="Path 4391" d="M442.9,308.88a.926.926,0,0,0,.667.081l.995-.423a2.152,2.152,0,0,0,.425-2.51l-6.221-14.6a13.746,13.746,0,0,0-3.337-4.736,33.009,33.009,0,0,1-2.955-3.183s-.264-.3.323-.549l1.141-.485c.285-.122,1.135-.274.627-1.464s-2.8-6.559-3.026-7.1-.8-1.031-1.883-.568l-2.8,1.191c-.677.289-1.033.934-.842,1.382l2.327,5.46c.976,2.289,2.306,3.879,4.838,6.164a20.552,20.552,0,0,1,5.3,7.685c1.266,2.971,2.869,6.729,3.482,8.168s1.387,4.143.941,5.482" transform="translate(-120.861 -73.013)" fill="#fff" fill-rule="evenodd"/>
      <path id="Path_4392" data-name="Path 4392" d="M300.424,291.249l.762-.83a7.468,7.468,0,0,1,1.919-5.088,11.572,11.572,0,0,1,4.259-3.142.569.569,0,0,0,.5-.3h0a1.532,1.532,0,0,0-.264-1.633c-.573-.6-4.581-3.049-7.315-3.2s-2.934,1.177-2.934,1.177-.648,5.346-3.129,8.081-4.891,5.181-4.891,5.181,6.342,2.52,11.1-.24" transform="translate(-81.032 -74.143)" fill="#01020e" fill-rule="evenodd"/>
      <path id="Path_4393" data-name="Path 4393" d="M279.725,314.726l.871.789,1.24.529a1.837,1.837,0,0,0,2.529-.777c.585-1.373,1.723-4.041,2.242-5.259s6.625-6.408,12.835-9.746a.766.766,0,0,0,.491-.842c-.074-.66-.654-2.816-.718-3.037s-.6-.473-.831-.457l-11.355.815s-7.666,13.046-7.3,17.987" transform="translate(-78.229 -79.648)" fill="#0f1630" fill-rule="evenodd"/>
      <path id="Path_4394" data-name="Path 4394" d="M280.014,308.88a.925.925,0,0,1-.666.081l-.995-.423a2.152,2.152,0,0,1-.426-2.51c.58-1.361,5.41-12.691,6.221-14.6a13.764,13.764,0,0,1,3.336-4.736,32.952,32.952,0,0,0,2.956-3.183s.264-.3-.323-.549l-1.14-.485c-.285-.122-1.136-.274-.627-1.464s2.8-6.559,3.026-7.1.8-1.031,1.883-.568l2.8,1.191c.677.289,1.033.934.842,1.382s-1.352,3.171-2.328,5.46-2.305,3.879-4.836,6.164a20.571,20.571,0,0,0-5.3,7.685c-1.266,2.971-2.868,6.729-3.482,8.168s-1.387,4.143-.941,5.482" transform="translate(-77.647 -73.013)" fill="#fff" fill-rule="evenodd"/>
      <path id="Path_4395" data-name="Path 4395" d="M400.728,198.115s-3.542,4.926-3.695,5.2c0,0,8.277,11.986,9.546,13.554,4.277,5.285,17.059,2.111,6.777-7.373-4.526-4.174-12.628-11.377-12.628-11.377" transform="translate(-112.427 -51.137)" fill="#f4ad85" fill-rule="evenodd"/>
      <path id="Path_4396" data-name="Path 4396" d="M398.011,203.474c-.524.737-.929,1.314-.978,1.4,0,0,8.277,11.985,9.546,13.553,2.342,2.893,7.23,3.251,9.49,1.428a6.013,6.013,0,0,1-5.364-.759c-1.246-.847-7.618-9.51-11.2-13.741-.606-.717-1.1-1.338-1.491-1.881" transform="translate(-112.427 -52.7)" fill="#ef8871" fill-rule="evenodd"/>
      <path id="Path_4397" data-name="Path 4397" d="M331.494,177.816l-.175-2.975c0-6.7-1.82-12.721-1.28-17.117a13.277,13.277,0,0,1,3.489-7.379l0-.006,12.641-6.173,0,.006a6.862,6.862,0,0,0,1.595,2.847l-1.525,1.394a93.623,93.623,0,0,0-8.1,4.763c-2.464,1.792-6.651,6.578-6.651,24.642" transform="translate(-92.87 -35.412)" fill="#3a7f80" fill-rule="evenodd"/>
      <path id="Path_4398" data-name="Path 4398" d="M331.851,183.953l-.175-2.975a55.023,55.023,0,0,0-.51-6.91c1.238-3.387,2.318-6.381,2.851-7.864-1.238,3.691-2.166,9.25-2.166,17.749m2.52-18.735-.006.015,0-.015Z" transform="translate(-93.227 -41.548)" fill="#1c6263" fill-rule="evenodd"/>
      <path id="Path_4399" data-name="Path 4399" d="M323.727,198.115s3.54,4.926,3.694,5.2c0,0-8.277,11.986-9.546,13.554-4.278,5.285-17.059,2.111-6.778-7.373,4.525-4.174,12.629-11.377,12.629-11.377" transform="translate(-86.239 -51.137)" fill="#f4ad85" fill-rule="evenodd"/>
      <path id="Path_4400" data-name="Path 4400" d="M327.093,204.122c.359.508.614.873.653.941,0,0-8.277,11.986-9.546,13.554-2.493,3.081-7.875,3.286-9.895,1.044a7.037,7.037,0,0,0,7.9-1.2c3.23-2.894,8.989-11.393,10.884-14.338" transform="translate(-86.563 -52.888)" fill="#ef8871" fill-rule="evenodd"/>
      <path id="Path_4401" data-name="Path 4401" d="M339.3,185.458h12.528a.3.3,0,0,1,.3.3v.8a.3.3,0,0,1-.3.3H339.3a.3.3,0,0,1-.3-.3v-.8a.3.3,0,0,1,.3-.3" transform="translate(-95.511 -47.448)" fill="#fff" fill-rule="evenodd"/>
      <path id="Path_4402" data-name="Path 4402" d="M375.133,169.4l-14.47,2.721a1.307,1.307,0,1,1-2.563,0l-14.47-2.721a1.053,1.053,0,0,0-1.281,1.086v25.469a1.652,1.652,0,0,0,1.281,1.568l14.47,2.72a1.3,1.3,0,0,1,2.563,0l14.47-2.72a1.652,1.652,0,0,0,1.282-1.568V170.489a1.053,1.053,0,0,0-1.282-1.086" transform="translate(-96.487 -42.762)" fill="#fff" fill-rule="evenodd"/>
      <path id="Path_4403" data-name="Path 4403" d="M384.835,171.413l-14.053,2.643a1.789,1.789,0,0,0-1.245,1.522l-2.315,11.963,2.315,12.774c.127.7.56,1.182,1.245,1.054l14.053-2.642a1.6,1.6,0,0,0,1.245-1.522V172.468a1.023,1.023,0,0,0-1.245-1.055" transform="translate(-103.737 -43.348)" fill="#9a5d50" fill-rule="evenodd"/>
      <path id="Path_4404" data-name="Path 4404" d="M340.186,171.413l14.052,2.643c.685.129,1.044.842,1.245,1.522l2.9,9.833-2.9,14.9c-.137.7-.56,1.182-1.245,1.054l-14.052-2.642a1.6,1.6,0,0,1-1.246-1.522V172.468a1.024,1.024,0,0,1,1.246-1.055" transform="translate(-95.493 -43.348)" fill="#b97a64" fill-rule="evenodd"/>
      <path id="Path_4405" data-name="Path 4405" d="M363.3,175.881h3.793a1.01,1.01,0,0,1,1.008,1.008v25.038a1.009,1.009,0,0,1-1.008,1.007H363.3a1.01,1.01,0,0,1-1.008-1.007V176.889a1.011,1.011,0,0,1,1.008-1.008" transform="translate(-102.299 -44.656)" fill="#7e423b" fill-rule="evenodd"/>
      <path id="Path_4406" data-name="Path 4406" d="M385.089,171.607l-13.356,2.512a1.605,1.605,0,0,0-1.244,1.522v22.076l13.355-2.512a1.6,1.6,0,0,0,1.245-1.522Z" transform="translate(-104.69 -43.41)" fill="#b97a64" fill-rule="evenodd"/>
      <path id="Path_4407" data-name="Path 4407" d="M384.353,177.96l-7.433,1.4a.849.849,0,0,0-.657.806v4.315a.54.54,0,0,0,.657.557l7.433-1.4a.846.846,0,0,0,.659-.8v-4.315a.541.541,0,0,0-.659-.557" transform="translate(-106.373 -45.259)" fill="#fff" fill-rule="evenodd"/>
      <path id="Path_4408" data-name="Path 4408" d="M352.2,174.61v22.61a1.023,1.023,0,0,1-1.245,1.055l-9.6-1.8-2.415-.454v2.126a1.606,1.606,0,0,0,1.246,1.523l14.052,2.641a1.009,1.009,0,0,0,1.227-.845,1.24,1.24,0,0,0,.018-.209V176.517a1.605,1.605,0,0,0-1.245-1.523Z" transform="translate(-95.493 -44.286)" fill="#9a5d50" fill-rule="evenodd"/>
      <path id="Path_4409" data-name="Path 4409" d="M364.089,177.774h2.305a.615.615,0,0,1,.614.613V193.61a.615.615,0,0,1-.614.612h-2.305a.614.614,0,0,1-.614-.612V178.387a.615.615,0,0,1,.614-.613" transform="translate(-102.645 -45.208)" fill="#935749" fill-rule="evenodd"/>
      <path id="Path_4410" data-name="Path 4410" d="M397.96,193.34a8.279,8.279,0,0,1-2.208-2.383c-.354-.981-.1-6.425-.235-7.079s-.31-1.377-1.067-1.652a34.494,34.494,0,0,0-5.3-1.212c-.688.034-.93,1.823,1.479,2.717l.945.31s-3.369-.156-4.006-.19-.7,1.376-.154,2.029a3.965,3.965,0,0,0,2.82,1.445s-2.269.154-2.751.276a1.164,1.164,0,0,0-.654,1.29c.086.481,1.169,1.565,3.267,1.6-1.207.346-2.24,1.447-.825,2.24a10.531,10.531,0,0,0,2.518.673v1.651l2.409,3.482Z" transform="translate(-109.448 -46.153)" fill="#f4ad85" fill-rule="evenodd"/>
      <path id="Path_4411" data-name="Path 4411" d="M386.826,191.574a1.257,1.257,0,0,0,0,.4c.086.481,1.169,1.565,3.268,1.6.719-.31,1.337-.755,1.114-1.054s-1.362-.025-2.763-.025-1.616-.9-1.62-.915m2.08,2.671c-.451.473-.506,1.077.364,1.564a10.556,10.556,0,0,0,2.517.673v1.651l2.41,3.482,1-1.383c-2.125-2.849-2.146-2.305-2.146-2.582,0-.8.187-2.266-.152-2.223a10.318,10.318,0,0,1-3.236-.485c-1.01-.255-.771-.677-.759-.7" transform="translate(-109.447 -49.231)" fill="#ef8871" fill-rule="evenodd"/>
      <path id="Path_4412" data-name="Path 4412" d="M330.232,193.34a4.967,4.967,0,0,0,1.473-3.054c.257-2.034.832-5.754.969-6.408s.31-1.377,1.067-1.652a34.522,34.522,0,0,1,5.3-1.212c.687.034.928,1.823-1.48,2.717l-.946.31s3.37-.156,4.007-.19.7,1.376.155,2.029-2.087.544-3.843.871c0,0,3.292.728,3.774.849a1.165,1.165,0,0,1,.653,1.29c-.086.481-1.168,1.565-3.266,1.6a12.628,12.628,0,0,1,2.505.429c1.822,1.749-4.2,2.208-4.2,2.213v1.921l-2.409,3.482Z" transform="translate(-92.955 -46.153)" fill="#f4ad85" fill-rule="evenodd"/>
      <path id="Path_4413" data-name="Path 4413" d="M342.531,191.052a1.364,1.364,0,0,1,.107.766c-.086.481-1.168,1.565-3.266,1.6a8.36,8.36,0,0,1-1.033-.3c-.137-.087-.349-.461.884-.5s3.405-.572,3.308-1.562m-.444,3.214c.375.4-.048.823-.662,1.166a16.843,16.843,0,0,1-3.747.626v1.921l-2.409,3.482-.66-.913c.442-.684,1.31-1.853,1.472-2.191.875-1.829.2-.773.953-2.777.075-.2.523-.348,1.407-.261s3.659-.346,3.647-1.055" transform="translate(-94.231 -49.079)" fill="#ef8871" fill-rule="evenodd"/>
      <path id="Path_4414" data-name="Path 4414" d="M366.183,126.049s-.761,1-.692,1.525a.794.794,0,0,0,1.075.571c.464-.128.023-2.71-.383-2.1" transform="translate(-103.232 -30.103)" fill="#f8cab0" fill-rule="evenodd"/>
      <path id="Path_4415" data-name="Path 4415" d="M329.926,197.642a1.181,1.181,0,0,0-.4-.045.4.4,0,0,0-.223.086l0,0a.558.558,0,0,0-.135.22h0a2.446,2.446,0,0,0-.066,1.015,6.48,6.48,0,0,0,1.367,3.249,4.124,4.124,0,0,0,2.454,1.6.944.944,0,0,0,.405-.008.442.442,0,0,0,.227-.146.723.723,0,0,0,.136-.338,1.791,1.791,0,0,0-.006-.552l.6-.863a.435.435,0,0,1,.123.2,3.149,3.149,0,0,1,.12,1.355,1.567,1.567,0,0,1-.315.731,1.277,1.277,0,0,1-.654.427,1.746,1.746,0,0,1-.773.028A4.958,4.958,0,0,1,329.8,202.7a7.348,7.348,0,0,1-1.546-3.693,3.22,3.22,0,0,1,.113-1.389,1.378,1.378,0,0,1,.371-.563l.015-.013a1.212,1.212,0,0,1,.689-.284,2.274,2.274,0,0,1,1,.162,4.809,4.809,0,0,1-.514.723" transform="translate(-92.371 -50.74)" fill="#000618" fill-rule="evenodd"/>
      <path id="Path_4416" data-name="Path 4416" d="M353.065,119.041a.5.5,0,0,1-.449-.9,4.566,4.566,0,0,1,4.293.018.5.5,0,1,1-.516.859,3.545,3.545,0,0,0-3.328.018" transform="translate(-99.399 -27.673)" fill="#01020e" fill-rule="evenodd"/>
      <path id="Path_4417" data-name="Path 4417" d="M374.371,119.041a.5.5,0,0,1-.449-.9,4.569,4.569,0,0,1,4.294.018.5.5,0,1,1-.516.859,3.548,3.548,0,0,0-3.329.018" transform="translate(-105.61 -27.673)" fill="#01020e" fill-rule="evenodd"/>
      <path id="Path_4418" data-name="Path 4418" d="M372.708,94.968c-1.732,11.215-7.414,7.465-4.375,2.815-24.809,16.247-36.361-18.418-22.383-10.556,7.073-9.937,23.435-12.82,25.064-1.093,2.881-7.806,8.678,5.2,1.694,8.834" transform="translate(-95.782 -16.267)" fill="#000618" fill-rule="evenodd"/>
      <path id="Path_4419" data-name="Path 4419" d="M341.881,86.3a2.819,2.819,0,0,1,1.34-.2c2.733,4.223,8.3,7.573,14.306,4.38,4.729-2.512,6.07-8.228,6.433-11.865a8.141,8.141,0,0,1,6.7,4.447c-1.931,6.05-8.843,14.346-18.135,11.568-6.581-1.968-9.425-5.7-10.645-8.326" transform="translate(-96.351 -16.303)" fill="#252534" fill-rule="evenodd"/>
      <path id="Path_4420" data-name="Path 4420" d="M306.552,52.156v1.051h1.05a.8.8,0,0,1,0,1.6h-1.05v1.051a.8.8,0,0,1-1.6,0V54.8H303.9a.8.8,0,0,1,0-1.6h1.051V52.156a.8.8,0,0,1,1.6,0" transform="translate(-85.048 -8.358)" fill="#fff" fill-rule="evenodd"/>
      <path id="Path_4421" data-name="Path 4421" d="M185.072,20v1.051h1.051a.8.8,0,0,1,0,1.6h-1.051V23.7a.8.8,0,1,1-1.6,0V22.645h-1.051a.8.8,0,1,1,0-1.6h1.051V20a.8.8,0,1,1,1.6,0" transform="translate(-49.637 1.015)" fill="#fff" fill-rule="evenodd"/>
      <path id="Path_4422" data-name="Path 4422" d="M69.731,219.442v1.051h1.051a.8.8,0,0,1,0,1.6H69.731v1.052a.8.8,0,0,1-1.6,0v-1.052H67.084a.8.8,0,0,1,0-1.6h1.051v-1.051a.8.8,0,1,1,1.6,0" transform="translate(-16.016 -57.122)" fill="#fff" fill-rule="evenodd"/>
      <path id="Path_4423" data-name="Path 4423" d="M407.344,81.273v1.051h1.05a.8.8,0,0,1,0,1.6h-1.05v1.051a.8.8,0,0,1-1.6,0V83.92H404.7a.8.8,0,1,1,0-1.6h1.051V81.273a.8.8,0,0,1,1.6,0" transform="translate(-114.429 -16.846)" fill="#fff" fill-rule="evenodd"/>
      <path id="Path_4424" data-name="Path 4424" d="M85.35,111.31v1.051H86.4a.8.8,0,0,1,0,1.6H85.35v1.051a.8.8,0,1,1-1.6,0v-1.051H82.7a.8.8,0,0,1,0-1.6h1.051V111.31a.8.8,0,0,1,1.6,0" transform="translate(-20.569 -25.602)" fill="#fff" fill-rule="evenodd"/>
      <path id="Path_4425" data-name="Path 4425" d="M166.8,146.356A26.567,26.567,0,0,1,175.184,145H178a56.551,56.551,0,0,1-.06,9.845c-.2,2.717-3.948,9.58-3.957,9.6a42.465,42.465,0,0,1,3.611,7.393c.524.277.99.526,1.343.717,1.862,1.01,6.277,9.044,11.065,16.493s10,16.6,10.215,17.185a1.905,1.905,0,0,1,.031.825H181.591l-5.4-21.585a26.426,26.426,0,0,1-4.857,4.413c-.3,0-.272-.186-.272-.186.2-5.837-8.509-7.421-11.576-14.544s1.83-15.583,1.83-15.583l1.336-4.155,5.047-6.934a21.488,21.488,0,0,0-.9-2.126" transform="translate(-42.889 -35.655)" fill="#9d7660" fill-rule="evenodd"/>
      <path id="Path_4426" data-name="Path 4426" d="M218.885,279.259h30.748c3.314,7.8,8.391,19.98,12.719,30.405H244.674c-1.032-1.684-1.93-3.154-2.612-4.274a50.426,50.426,0,0,1-6.544-16.333,17.248,17.248,0,0,0-1.068-3.54c-4.009,8.735-8.754,19.072-11.049,24.147H211.606l.885-.835a150.861,150.861,0,0,0,3.472-15.457c2.043-11.62,2.923-14.113,2.923-14.113" transform="translate(-58.376 -74.79)" fill="#9d7660" fill-rule="evenodd"/>
      <path id="Path_4427" data-name="Path 4427" d="M159.411,155.939l-1.336,4.157s-4.9,8.46-1.83,15.582,11.773,8.708,11.576,14.545c0,0-.025.185.272.185s5.862-4.588,6.209-6.666,4.107-5.935-3.561-18.773L166.062,146.8Z" transform="translate(-41.944 -36.181)" fill="#01020e" fill-rule="evenodd"/>
      <path id="Path_4428" data-name="Path 4428" d="M224.181,269.8s8.459,4.736,9.736,5.64,2.075,2.66,2.714,5.693a50.41,50.41,0,0,0,6.544,16.333c4.469,7.342,18.194,29.633,18.194,29.633l.026,1.65,1.756,1.383,6.119-1.33a1.533,1.533,0,0,0,.213-1.681c-.425-1.065-2.745-8-2.873-8s-17.237-51.588-19.259-55.543-8.087-7.981-12.343-11.173-10.826,17.4-10.826,17.4" transform="translate(-62.042 -66.863)" fill="#f4ad85" fill-rule="evenodd"/>
      <path id="Path_4429" data-name="Path 4429" d="M224.181,269.8s8.459,4.736,9.736,5.64,2.075,2.66,2.714,5.693a50.41,50.41,0,0,0,6.544,16.333c4.469,7.342,18.194,29.633,18.194,29.633l.026,1.65,1.756,1.383,8.034,1.479c-1.853-4.193-3.115-8.878-4.738-12.806-3.72,1.141-2.237,5.564-9.976-4.087S241.425,283.091,241,278.729s1.064-11.6,2.66-13.3c.684-.728,2.422-.872,4.187-.8-.218-.483-.388-.846-.5-1.057-2.021-3.956-8.087-7.981-12.343-11.173s-10.826,17.4-10.826,17.4" transform="translate(-62.042 -66.863)" fill="#ef8871" fill-rule="evenodd"/>
      <path id="Path_4430" data-name="Path 4430" d="M231.438,261.1c-2.554,5.64-16.585,36.084-18.525,40.528a48.719,48.719,0,0,0-2.83,9.111l-4.55,3.99-4.086-2.3-2.554-3.7.927-5.459,3.471-3.279c1.094-3.765,2.219-10.843,3.345-17.244,2.042-11.62,2.923-14.113,2.923-14.113H191.625l-3.258-10.1,5.3-12.011,8.193-3.725c7.567.121,12.86.125,20.43.125,4.257,0,16.121,3.972,9.152,18.178" transform="translate(-51.602 -64.161)" fill="#f4ad85" fill-rule="evenodd"/>
      <path id="Path_4431" data-name="Path 4431" d="M210.893,307.4c-.549,1.965-.811,3.338-.811,3.338l-4.549,3.99-4.086-2.3-2.554-3.7.8-5.97,3.471-3.279c1.094-3.764,2.347-10.332,3.472-16.733,2.043-11.619,2.923-14.113,2.923-14.113H191.625l-3.259-10.1,5.3-12.011,8.193-3.725c4.078.066,10.688.1,14.158.112l0,.008a13.564,13.564,0,0,0-6.743,4.437c-2.82,3.511-6.066,11.279-6.225,12.237s0,2.82,2.767,2.82h4.575c.532,0,4.363-5.48,6.066-6.438s.107.053-1.649,4.522-6.491,28.622-8.512,35.433c-1.848,6.226-3.161,10.049,4.595,11.473" transform="translate(-51.602 -64.161)" fill="#ef8871" fill-rule="evenodd"/>
      <path id="Path_4432" data-name="Path 4432" d="M174.407,178.8s5.014,2.6,6.876,3.608,6.278,9.045,11.066,16.493,10,16.6,10.215,17.184a4.323,4.323,0,0,1-.213,1.916l-2.313,1.5-15.482-.12Z" transform="translate(-47.533 -45.506)" fill="#fff" fill-rule="evenodd"/>
      <path id="Path_4433" data-name="Path 4433" d="M174.407,178.8s5.014,2.6,6.876,3.608a6.353,6.353,0,0,1,1.586,1.618,9.618,9.618,0,0,0,0,3.922c.852,3.671,9.522,18.622,11.119,20.7.964,1.251,3.223,1.148,4.865.869,2.1,3.569,3.6,6.265,3.717,6.573a4.323,4.323,0,0,1-.213,1.916l-2.313,1.5-15.482-.12Z" transform="translate(-47.533 -45.506)" fill="#e3edf2" fill-rule="evenodd"/>
      <path id="Path_4434" data-name="Path 4434" d="M133.642,117.072s-5.986,3.711-7.668,6.085-.215,9.6-.553,14.89-3.455,9.993-3.257,13.357,2.672,12.17,9.6,17.018,13.465-21.852,13.465-21.852l-11.6-28.807Z" transform="translate(-32.302 -27.514)" fill="#01020e" fill-rule="evenodd"/>
      <path id="Path_4435" data-name="Path 4435" d="M140.56,173.72l-3.808-.875s-6.266.45-8.9,1.7-3.321,6.959-3.321,12.577,12.258,8.778,12.258,15.8c0,10.533.79,31.881,6.336,39.163,4,5.246,6.316,6.544,12.114,6.544h21.707a2.327,2.327,0,0,0,1.915-1.559c.606-1.5,5.908-24.55,19.059-24.55,0,0-.638-1.4-3-1.4h-7.309c-2.682,0-11.59-3.8-13-7.627s1.277-8.108-.319-12.9-12.129-21.262-13.789-23.049S150.4,174.82,150.4,174.82Z" transform="translate(-32.995 -43.771)" fill="#e4414f" fill-rule="evenodd"/>
      <path id="Path_4436" data-name="Path 4436" d="M138.311,173.2l-1.557-.357s-6.267.45-8.9,1.7-3.321,6.959-3.321,12.577,8.683,9.033,8.683,16.056,1.861,25.233,4.994,32,9.242,13.451,17.03,13.451h21.707a3.46,3.46,0,0,0,1.915-1.559,99.844,99.844,0,0,1,3.419-9.841h0c-1.409,3-4.826,4.36-7.745,4.36h-17.7c-7.555,0-10.321-6.6-8.619-12.344s8.14-6.915,13.407-6.915,12.4.106,17.929.106,5.747-.37,5.747-.37l.508-.952h-1.894c-2.584,0-7.509-3.525-9.123-7.207h0c-.061-.14-.118-.28-.169-.419-1.4-3.83,1.277-8.108-.32-12.9-.835,3.052-6.027,4.022-11.774,5.033s-6.066-.637-6.066-.637l-8.087,2.021-5.745-6.384s-10.375-18.887-10.056-20.323,5.747-6.384,5.747-6.384c0-.243,0-.482-.009-.718" transform="translate(-32.995 -43.771)" fill="#be2a34" fill-rule="evenodd"/>
      <path id="Path_4437" data-name="Path 4437" d="M144.435,173.72l-3.808-.875s-1.216.087-2.8.293l.074.324a11.824,11.824,0,0,0,6.564,8.416,9.447,9.447,0,0,0,9.186-.6,8.067,8.067,0,0,0,3.394-6.066c-1.579-.26-2.774-.393-2.774-.393Z" transform="translate(-36.87 -43.771)" fill="#fff" fill-rule="evenodd"/>
      <path id="Path_4438" data-name="Path 4438" d="M142.186,173.2l-1.557-.357s-1.217.087-2.8.293l.074.324a13.482,13.482,0,0,0,1.26,3.4c1.49-1.532,3.035-2.941,3.035-2.941,0-.243,0-.482-.009-.718" transform="translate(-36.87 -43.771)" fill="#e3edf2" fill-rule="evenodd"/>
      <path id="Path_4439" data-name="Path 4439" d="M141.781,169.134l2.028-.892a2.044,2.044,0,0,0,.764-1.471V160.2l3.408-.084,4.689.279,1.236.539-.578,1.257v6.8a1.743,1.743,0,0,0,.555,1.161c.183.157,1.54.954,1.54.954-.487,7.292-11.59,7.084-13.642-1.975" transform="translate(-38.022 -40.061)" fill="#eb6b5d" fill-rule="evenodd"/>
      <path id="Path_4440" data-name="Path 4440" d="M130.147,141.329c-.1.013-.192.028-.286.048h0a3.9,3.9,0,1,0,3.253.784c.1,1.15-.084,2.575-1.552,2.716l.042-2.247a1.338,1.338,0,0,0-1.455-1.3" transform="translate(-33.645 -34.584)" fill="#e8685b" fill-rule="evenodd"/>
      <path id="Path_4441" data-name="Path 4441" d="M169.427,141.329c.1.013.191.028.286.048h0a3.9,3.9,0,1,1-3.253.784c-.1,1.15.084,2.575,1.553,2.716l-.043-2.247a1.338,1.338,0,0,1,1.455-1.3" transform="translate(-44.795 -34.584)" fill="#e8685b" fill-rule="evenodd"/>
      <path id="Path_4442" data-name="Path 4442" d="M145.9,113.85h0a13.384,13.384,0,0,0-13.345,13.344v12.137a13.344,13.344,0,0,0,26.688,0V127.194A13.384,13.384,0,0,0,145.9,113.85" transform="translate(-35.334 -26.575)" fill="#f4ad85" fill-rule="evenodd"/>
      <path id="Path_4443" data-name="Path 4443" d="M138.537,117a13.358,13.358,0,0,0-5.979,11.112v12.137a13.389,13.389,0,0,0,12.273,13.3c-10.715-2.022-9.866-15.431-9.866-15.431,2.409-1.489,2.288-4.735,2.554-7.767s2.341-2.288,2.341-2.288a30.463,30.463,0,0,0,10.62.378c.14.456.29.935.446,1.43,1.137,3.6,5.359,7.713,6.624,11.785a12.3,12.3,0,0,1,.53,4.025,13.217,13.217,0,0,0,1.164-5.434V128.113a13.357,13.357,0,0,0-5.854-11.027c-4.684.678-9.645,1.336-13.211.285a12.106,12.106,0,0,0-1.642-.369" transform="translate(-35.334 -27.493)" fill="#ef8871" fill-rule="evenodd"/>
      <path id="Path_4444" data-name="Path 4444" d="M148.432,156.413a3.453,3.453,0,1,0,6.9.271h-.006a.6.6,0,0,0-.572-.619l-5.7-.223a.6.6,0,0,0-.619.572Z" transform="translate(-39.96 -38.815)" fill="#fff" fill-rule="evenodd"/>
      <path id="Path_4445" data-name="Path 4445" d="M150.1,160.116a3.454,3.454,0,0,0,3.98.4,2.15,2.15,0,0,0-1.923-1.35,2.181,2.181,0,0,0-2.057.95" transform="translate(-40.447 -39.782)" fill="#fff" fill-rule="evenodd"/>
      <path id="Path_4446" data-name="Path 4446" d="M155.251,156.082l-5.354-.211a1.214,1.214,0,0,0,.535,1.345c.478.176,4.358.228,4.644-.066a2.049,2.049,0,0,0,.176-1.068" transform="translate(-40.381 -38.824)" fill="#fff" fill-rule="evenodd"/>
      <path id="Path_4447" data-name="Path 4447" d="M163.246,152.458a1.755,1.755,0,1,0,1.721,1.788,1.755,1.755,0,0,0-1.721-1.788" transform="translate(-43.758 -37.828)" fill="#e8685b" fill-rule="evenodd"/>
      <path id="Path_4448" data-name="Path 4448" d="M141.943,152.053a1.755,1.755,0,1,0,1.722,1.788,1.755,1.755,0,0,0-1.722-1.788" transform="translate(-37.548 -37.71)" fill="#e8685b" fill-rule="evenodd"/>
      <path id="Path_4449" data-name="Path 4449" d="M140.98,141.86a.488.488,0,0,1-.437-.872,4.448,4.448,0,0,1,4.181.017.488.488,0,1,1-.5.837,3.46,3.46,0,0,0-3.242.018" transform="translate(-37.583 -34.335)" fill="#01020e" fill-rule="evenodd"/>
      <path id="Path_4450" data-name="Path 4450" d="M163.661,141.86a3.463,3.463,0,0,0-3.244-.018.488.488,0,1,1-.5-.837,4.447,4.447,0,0,1,4.179-.018.487.487,0,0,1-.434.873" transform="translate(-43.24 -34.335)" fill="#01020e" fill-rule="evenodd"/>
      <path id="Path_4451" data-name="Path 4451" d="M132.366,134.948v1.879c.635,0,1.4-.922,1.4-1.751v-1.72a10.469,10.469,0,0,0,1.492-4.849c0-2.485.578-3.965,2.705-3.965s4.257,1.112,7.743,1.112,5.616-1.112,7.744-1.112,2.705,1.48,2.705,3.965a10.472,10.472,0,0,0,1.491,4.849v1.72c0,.829.769,1.751,1.4,1.751v-1.879a2.543,2.543,0,0,1,.465-1.771v-5.584c0-19.011-27.619-19.011-27.619,0v5.584a2.543,2.543,0,0,1,.465,1.771" transform="translate(-35.142 -26.424)" fill="#01020e" fill-rule="evenodd"/>
      <path id="Path_4452" data-name="Path 4452" d="M142.458,144.6h0a1.143,1.143,0,0,0-.733.265.477.477,0,0,1-.31-.237.183.183,0,1,0-.325.169.8.8,0,0,0,.373.356l-.009.01a.852.852,0,0,1-.479-.293.183.183,0,0,0-.284.231,1.184,1.184,0,0,0,.541.374l0,0a1.137,1.137,0,0,1-.551-.176.183.183,0,1,0-.2.31,1.474,1.474,0,0,0,.569.216l.255.035v1.391a1.152,1.152,0,1,0,2.3,0v-1.5a1.155,1.155,0,0,0-1.153-1.152" transform="translate(-37.619 -35.517)" fill="#01020e" fill-rule="evenodd"/>
      <path id="Path_4453" data-name="Path 4453" d="M162.786,144.6h0a1.143,1.143,0,0,1,.733.265.475.475,0,0,0,.31-.237.183.183,0,1,1,.325.169.8.8,0,0,1-.372.356l.009.01a.852.852,0,0,0,.479-.293.183.183,0,0,1,.284.231,1.18,1.18,0,0,1-.541.374l0,0a1.139,1.139,0,0,0,.551-.176.183.183,0,0,1,.2.31,1.485,1.485,0,0,1-.57.216l-.255.035v1.391a1.152,1.152,0,1,1-2.3,0v-1.5a1.155,1.155,0,0,1,1.152-1.152" transform="translate(-43.809 -35.517)" fill="#01020e" fill-rule="evenodd"/>
      <path id="Path_4454" data-name="Path 4454" d="M144.34,123.326s-3.037-3.465-3.382-5.047,4.055-4.479,5.984-4.479c1,0,1.921,1.158,2.825,3.159,1.7,3.757,2.1,7.8,4.192,11.271,1.069,1.772,2.379,3.432,3.55,5.49a23.56,23.56,0,0,1,3.037,11.493c.176,5.334,4.848,7.915,4.848,7.915s3.76-6.876,3.958-9.6.939-11.427-1.534-15.583-12.565-20.184-15.336-21.272-9.35-.742-14.693,4.749a4.113,4.113,0,0,0-.89,2.969c.094,1.953,1.78,6.134,7.441,8.933" transform="translate(-36.598 -24.339)" fill="#0f1630" fill-rule="evenodd"/>
      <path id="Path_4455" data-name="Path 4455" d="M175.788,138.844c.012-.709.011-1.449-.009-2.2-5.225-2.306-13.214-8.316-11.353-23.234-2.446-3.42-4.668-6.16-5.758-6.588-.132-.051-.272-.1-.421-.145-.391,5.665-.185,14.842,4.119,21.456a29.54,29.54,0,0,0,13.422,10.715" transform="translate(-42.783 -24.483)" fill="#333245" fill-rule="evenodd"/>
      <path id="Path_4456" data-name="Path 4456" d="M278.542,370.174s-3.5.164-3.5-2.365v-8.064s.01-1.509,1.236-1.813c0,0,.412,1.407,2.807,1.407s5.023-4.938,5.745-5.653a1.8,1.8,0,0,1,1.469-.621h2.267c.978,0,1.829.5,3.684,2.386s7.547,7.014,10.432,7.587,7.523,1.05,7.986,2.386.537,4.751-5.1,4.751Z" transform="translate(-76.866 -96.305)" fill="#3a7f80" fill-rule="evenodd"/>
      <path id="Path_4457" data-name="Path 4457" d="M144.9,223.651c-1.117.265-4.34,1.3-13.034-6.012s-13.3-16.706-14.152-25.112,2.341-13.141,4.682-15.428a8.93,8.93,0,0,1,4.788-2.553s-3.222,2.5,2.672,10.213,15.574,18.889,16.107,19.633c-2.651,1.018-2.295,16.175.078,18.115,0,0,.293.612-1.141,1.146" transform="translate(-30.965 -44.267)" fill="#fff" fill-rule="evenodd"/>
      <path id="Path_4458" data-name="Path 4458" d="M144.9,223.651c-1.117.265-4.34,1.3-13.034-6.012s-13.3-16.706-14.152-25.112,2.341-13.141,4.682-15.428a8.93,8.93,0,0,1,4.788-2.553s-2.452,1.9.838,7.513h0a3.774,3.774,0,0,0-4.286-.674c-2.553,1.17-5.533,7.181,1.6,19.1s15.855,11.6,15.855,11.6,1.15.253,2.93.713c.023,4.254.709,8.716,1.925,9.711,0,0,.293.612-1.141,1.146" transform="translate(-30.965 -44.267)" fill="#e3edf2" fill-rule="evenodd"/>
      <path id="Path_4459" data-name="Path 4459" d="M159.827,162.378h-1.492a.4.4,0,0,0-.281.113l-.033,0-11.182-.855a1.046,1.046,0,0,0-1.141,1.059v15.188a1.26,1.26,0,0,0,1.141,1.234l11.182.856a1.022,1.022,0,0,0,.238-.008.374.374,0,0,0,.075.008h1.492a.4.4,0,0,0,.214-.062l9.5-3.022a.906.906,0,0,0,.671-.8v-16.1a.544.544,0,0,0-.671-.577l-9.521,3.025a.407.407,0,0,0-.2-.052" transform="translate(-39.164 -39.847)" fill="#fff" fill-rule="evenodd"/>
      <path id="Path_4460" data-name="Path 4460" d="M176.033,160.185l-10,2.963c-.56.166-1.019.638-1.019,1.048v17.416c0,.411.458.61,1.019.444l10-2.963c.56-.167,1.019-.638,1.019-1.048V160.63c0-.411-.458-.611-1.019-.445" transform="translate(-44.796 -40.064)" fill="#63a9ba" fill-rule="evenodd"/>
      <path id="Path_4461" data-name="Path 4461" d="M145.7,163.377l12.1.925a1.362,1.362,0,0,1,1.234,1.334v16.427a1.133,1.133,0,0,1-1.234,1.146l-12.1-.926a1.361,1.361,0,0,1-1.233-1.334V164.522a1.131,1.131,0,0,1,1.233-1.146" transform="translate(-38.805 -41.01)" fill="#63a9ba" fill-rule="evenodd"/>
      <path id="Path_4462" data-name="Path 4462" d="M165.188,164.516h-1.615a.441.441,0,0,0-.441.441V183.1a.442.442,0,0,0,.441.441h1.615a.443.443,0,0,0,.441-.441V164.957a.442.442,0,0,0-.441-.441" transform="translate(-44.246 -41.343)" fill="#3a7f80" fill-rule="evenodd"/>
      <path id="Path_4463" data-name="Path 4463" d="M205.022,323.127H199.48a4.15,4.15,0,0,0-3.961,4.258v23.708c0,4.113,2.42,6.593,3.387,7.923a4.784,4.784,0,0,0,3.81,1.858h4.264c1.088,0,2.268-.708,2.268-3.158v-6.532c0-1.936.484-3.63,1.693-6.9A18.363,18.363,0,0,0,212.454,336s-.06-1-.877-1h-5.791c-1.542,0-2.8-1.795-2.8-6.44a20.994,20.994,0,0,0,2.033-5.437" transform="translate(-53.687 -87.578)" fill="#3a7f80" fill-rule="evenodd"/>
      <path id="Path_4464" data-name="Path 4464" d="M198.081,351.093V327.385a4.057,4.057,0,0,1,1.71-3.467,4.184,4.184,0,0,1,2.251-.791h-2.561a4.19,4.19,0,0,0-2.252.791,4.058,4.058,0,0,0-1.709,3.467v23.708c0,.287.011.568.034.839.3,3.615,2.453,5.847,3.353,7.084a4.785,4.785,0,0,0,3.81,1.858h2.562a4.787,4.787,0,0,1-3.811-1.858c-.9-1.238-3.057-3.47-3.353-7.084-.022-.271-.034-.552-.034-.839" transform="translate(-53.687 -87.578)" fill="#1c6263" fill-rule="evenodd"/>
      <path id="Path_4465" data-name="Path 4465" d="M305.563,373.035H278.542s-3.5.164-3.5-2.364v2.242c0,2.092,2.4,2.341,3.227,2.365h27.3c5.575,0,5.565-3.338,5.116-4.705-.434,1.258-1.767,2.463-5.116,2.463" transform="translate(-76.866 -101.408)" fill="#1c6263" fill-rule="evenodd"/>
      <path id="Path_4466" data-name="Path 4466" d="M162.417,224.219c3.678-4.682,1.022-33.071,1.022-33.071h-5.874c-.713,2.4-3.379,16.055-4.595,21.2-1.379,5.835-3.256,9.622-.9,12.569a6.611,6.611,0,0,0,10.35-.694" transform="translate(-40.695 -49.107)" fill="#ef8871" fill-rule="evenodd"/>
      <path id="Path_4467" data-name="Path 4467" d="M162.077,191.211l-4.512-.063c-.373,0-.256.966-.437,1.758-1.038,4.524-3.123,15.064-4.157,19.439-1.379,5.835-3.256,9.622-.9,12.569a6.091,6.091,0,0,0,2.675,1.782c1.138-.419.859.5,3.368-2.476s3.967-33.008,3.967-33.008" transform="translate(-40.695 -49.107)" fill="#f4ad85" fill-rule="evenodd"/>
      <path id="Path_4468" data-name="Path 4468" d="M174.408,229.95c11.044-.383,15.523-3.246,17.637-3.486,14.441-1.634,10.444,11.189,4.046,11.189-1.907,0-22.449-1.131-22.4-1.553Z" transform="translate(-47.324 -59.359)" fill="#f4ad85" fill-rule="evenodd"/>
      <path id="Path_4469" data-name="Path 4469" d="M198.644,227.2c5.429,2.833,2.7,10.521-2.169,10.585-7.209.095-22.859-.534-22.783-1.425l.066-.769c.418-.069,1.214-2.611,1.383-2.225.514,1.169.465,2.193,2.163,2.412a71.129,71.129,0,0,0,18-.4c5.536-.954,3.426-8.083,3.344-8.176" transform="translate(-47.324 -59.614)" fill="#ef8871" fill-rule="evenodd"/>
      <path id="Path_4470" data-name="Path 4470" d="M171.512,226.617c-.194-.58-.429-1.219-1.208-1.384a37.045,37.045,0,0,0-5.39-.5c-.682.108-.765,1.766,1.714,2.309l1.058.38s-2.405,0-3.043.045-.994,1.275-.388,1.808,1.709.781,3.486.88a33.489,33.489,0,0,0-3.538.3,1.067,1.067,0,0,0-.538,1.25,3.757,3.757,0,0,0,3.61,1.408c-1.173.452-2.685,1.719-1.205,2.282a9.918,9.918,0,0,0,2.386.321c.478.019,2.1-.074,2.306-.074,3.188-2.367,2.043-5.176.752-9.021" transform="translate(-44.39 -58.89)" fill="#f4ad85" fill-rule="evenodd"/>
      <path id="Path_4471" data-name="Path 4471" d="M165.941,238.462c.026.311.258.605.79.821a9.272,9.272,0,0,0,2.4.35c.48.021,3.818-.017,4.028-.017l1.373-1.452c-2.929.478-7,.867-8.588.3" transform="translate(-45.065 -62.812)" fill="#ef8871" fill-rule="evenodd"/>
      <path id="Path_4472" data-name="Path 4472" d="M164.3,189.951c1.728-1.213,3.086-1.341,3.766-3.7s.307-3.032.184-3.479-.8.159-.8.159-.087-.631-.2-1.218a.764.764,0,0,1-.111-.123c-.555-.765-1.45.224-1.45.224s.154-.83-.339-1.181-1.265.383-1.265.383.093-.925-.524-1.244a.528.528,0,0,0-.215-.057c-2.313,1.22-2.19,7.064-5.4,7.558-2.163.332-3.872-.289-3.936.426-.084.95,4,3.275,4.091,3.261Z" transform="translate(-41.587 -45.773)" fill="#f4ad85" fill-rule="evenodd"/>
    </g>
  </g>
</svg>
