<?xml version="1.0" encoding="utf-8"?>
<!-- Generator: Adobe Illustrator 26.0.1, SVG Export Plug-In . SVG Version: 6.00 Build 0)  -->
<svg version="1.1" id="Layer_1" xmlns="http://www.w3.org/2000/svg" xmlns:xlink="http://www.w3.org/1999/xlink" x="0px" y="0px"
	 viewBox="0 0 185.8 102.1" style="enable-background:new 0 0 185.8 102.1;" xml:space="preserve">
<style type="text/css">
	.st0{fill:#0072B7;stroke:#000000;stroke-width:1.4171;stroke-miterlimit:10;}
	.st1{fill-rule:evenodd;clip-rule:evenodd;fill:#003849;stroke:#000000;stroke-width:0.5668;stroke-miterlimit:10;}
	.st2{font-family:'MyriadPro-Regular';}
	.st3{font-size:23.9955px;}
	.st4{fill:#FFFFFF;}
	.st5{font-family:'Cambria';}
	.st6{font-size:17.9966px;}
</style>
<g id="Layer_x0020_1">
	<path class="st0" d="M53.3,2.1h131.2l-43.7,67.7H9.6L53.3,2.1z"/>
	<path class="st1" d="M10.6,69.3l17.9-27.6c11.7,5.6,19,16.1,19,27.6H10.6z"/>
	<text transform="matrix(1 0 0 1 6.4541 33.9404)" class="st2 st3">a</text>
	<text transform="matrix(1 0 0 1 65.1709 101.7725)" class="st2 st3">b</text>
	<g>
		<path d="M9.6,78.3l6.2-3.1v6.2L9.6,78.3z M134.9,78.5H15.4V78h119.5V78.5z M140.8,78.3l-6.2,3.1v-6.2L140.8,78.3z"/>
	</g>
	<g>
		<path d="M0,67.7l0.8-6.8L6,64.2L0,67.7z M40.8,5L3.4,62.9L3,62.6L40.3,4.8L40.8,5z M43.7,0L43,6.8l-5.2-3.3L43.7,0z"/>
	</g>
	<text transform="matrix(1 0 0 1 25.5576 62.1108)" class="st4 st5 st6">α</text>
</g>
</svg>
