<svg id="Group_2489" data-name="Group 2489" xmlns="http://www.w3.org/2000/svg" xmlns:xlink="http://www.w3.org/1999/xlink" width="428.763" height="319.522" viewBox="0 0 428.763 319.522">
  <defs>
    <clipPath id="clip-path">
      <rect id="Rectangle_1107" data-name="Rectangle 1107" width="428.763" height="319.522" fill="none"/>
    </clipPath>
    <clipPath id="clip-path-5">
      <rect id="Rectangle_1035" data-name="Rectangle 1035" width="23.144" height="31.731" fill="none"/>
    </clipPath>
    <clipPath id="clip-path-7">
      <rect id="Rectangle_1039" data-name="Rectangle 1039" width="6.154" height="245.985" fill="none"/>
    </clipPath>
    <clipPath id="clip-path-9">
      <rect id="Rectangle_1041" data-name="Rectangle 1041" width="18.852" height="27.866" fill="none"/>
    </clipPath>
    <clipPath id="clip-path-11">
      <rect id="Rectangle_1043" data-name="Rectangle 1043" width="1.857" height="29.267" fill="none"/>
    </clipPath>
    <clipPath id="clip-path-12">
      <rect id="Rectangle_1044" data-name="Rectangle 1044" width="14.943" height="31.731" fill="none"/>
    </clipPath>
    <clipPath id="clip-path-13">
      <rect id="Rectangle_1045" data-name="Rectangle 1045" width="34.639" height="11.204" fill="none"/>
    </clipPath>
    <clipPath id="clip-path-14">
      <rect id="Rectangle_1046" data-name="Rectangle 1046" width="22.807" height="11.204" fill="none"/>
    </clipPath>
    <clipPath id="clip-path-15">
      <rect id="Rectangle_1047" data-name="Rectangle 1047" width="15.34" height="4.234" fill="none"/>
    </clipPath>
    <clipPath id="clip-path-17">
      <rect id="Rectangle_1049" data-name="Rectangle 1049" width="39.007" height="33.877" fill="none"/>
    </clipPath>
    <clipPath id="clip-path-19">
      <rect id="Rectangle_1051" data-name="Rectangle 1051" width="66.853" height="84.578" fill="none"/>
    </clipPath>
    <clipPath id="clip-path-20">
      <rect id="Rectangle_1052" data-name="Rectangle 1052" width="10.102" height="14.123" fill="none"/>
    </clipPath>
    <clipPath id="clip-path-21">
      <rect id="Rectangle_1053" data-name="Rectangle 1053" width="26.223" height="25.237" fill="none"/>
    </clipPath>
    <clipPath id="clip-path-22">
      <rect id="Rectangle_1054" data-name="Rectangle 1054" width="33.912" height="19.38" fill="none"/>
    </clipPath>
    <clipPath id="clip-path-23">
      <rect id="Rectangle_1055" data-name="Rectangle 1055" width="26.241" height="139.252" fill="none"/>
    </clipPath>
    <clipPath id="clip-path-24">
      <rect id="Rectangle_1057" data-name="Rectangle 1057" width="5.211" height="16.921" fill="none"/>
    </clipPath>
    <clipPath id="clip-path-25">
      <rect id="Rectangle_1058" data-name="Rectangle 1058" width="6.246" height="7.992" fill="none"/>
    </clipPath>
    <clipPath id="clip-path-26">
      <rect id="Rectangle_1059" data-name="Rectangle 1059" width="7.824" height="7.457" fill="none"/>
    </clipPath>
    <clipPath id="clip-path-27">
      <rect id="Rectangle_1060" data-name="Rectangle 1060" width="4.042" height="5.853" fill="none"/>
    </clipPath>
    <clipPath id="clip-path-28">
      <rect id="Rectangle_1061" data-name="Rectangle 1061" width="2.495" height="12.143" fill="none"/>
    </clipPath>
    <clipPath id="clip-path-29">
      <rect id="Rectangle_1062" data-name="Rectangle 1062" width="8.922" height="30.022" fill="none"/>
    </clipPath>
    <clipPath id="clip-path-30">
      <rect id="Rectangle_1063" data-name="Rectangle 1063" width="10.931" height="14.158" fill="none"/>
    </clipPath>
    <clipPath id="clip-path-31">
      <rect id="Rectangle_1064" data-name="Rectangle 1064" width="5.149" height="5.149" fill="none"/>
    </clipPath>
    <clipPath id="clip-path-32">
      <rect id="Rectangle_1065" data-name="Rectangle 1065" width="11.89" height="1.287" fill="none"/>
    </clipPath>
    <clipPath id="clip-path-35">
      <rect id="Rectangle_1068" data-name="Rectangle 1068" width="16.214" height="54.945" fill="none"/>
    </clipPath>
    <clipPath id="clip-path-38">
      <rect id="Rectangle_1073" data-name="Rectangle 1073" width="179.498" height="6.706" fill="none"/>
    </clipPath>
    <clipPath id="clip-path-40">
      <rect id="Rectangle_1075" data-name="Rectangle 1075" width="16.213" height="54.945" fill="none"/>
    </clipPath>
    <clipPath id="clip-path-43">
      <rect id="Rectangle_1078" data-name="Rectangle 1078" width="16.764" height="58.341" fill="none"/>
    </clipPath>
    <clipPath id="clip-path-48">
      <rect id="Rectangle_1084" data-name="Rectangle 1084" width="149.454" height="10.919" fill="none"/>
    </clipPath>
    <clipPath id="clip-path-50">
      <rect id="Rectangle_1086" data-name="Rectangle 1086" width="149.455" height="10.919" fill="none"/>
    </clipPath>
    <clipPath id="clip-path-51">
      <rect id="Rectangle_1088" data-name="Rectangle 1088" width="192.674" height="7.938" fill="none"/>
    </clipPath>
    <clipPath id="clip-path-52">
      <rect id="Rectangle_1090" data-name="Rectangle 1090" width="141.157" height="7.938" fill="none"/>
    </clipPath>
    <clipPath id="clip-path-53">
      <rect id="Rectangle_1091" data-name="Rectangle 1091" width="7.661" height="12.584" fill="none"/>
    </clipPath>
    <clipPath id="clip-path-54">
      <rect id="Rectangle_1092" data-name="Rectangle 1092" width="7.661" height="7.304" fill="none"/>
    </clipPath>
    <clipPath id="clip-path-55">
      <rect id="Rectangle_1093" data-name="Rectangle 1093" width="17.542" height="21.314" fill="none"/>
    </clipPath>
    <clipPath id="clip-path-56">
      <rect id="Rectangle_1094" data-name="Rectangle 1094" width="4.692" height="7.917" fill="none"/>
    </clipPath>
    <clipPath id="clip-path-57">
      <rect id="Rectangle_1095" data-name="Rectangle 1095" width="39.124" height="51.593" fill="none"/>
    </clipPath>
    <clipPath id="clip-path-58">
      <rect id="Rectangle_1096" data-name="Rectangle 1096" width="7.297" height="9.576" fill="none"/>
    </clipPath>
    <clipPath id="clip-path-59">
      <rect id="Rectangle_1097" data-name="Rectangle 1097" width="20.293" height="8.847" fill="none"/>
    </clipPath>
    <clipPath id="clip-path-60">
      <rect id="Rectangle_1098" data-name="Rectangle 1098" width="7.85" height="4.874" fill="none"/>
    </clipPath>
    <clipPath id="clip-path-61">
      <rect id="Rectangle_1099" data-name="Rectangle 1099" width="4.725" height="5.63" fill="none"/>
    </clipPath>
    <clipPath id="clip-path-62">
      <rect id="Rectangle_1100" data-name="Rectangle 1100" width="9.038" height="8.199" fill="none"/>
    </clipPath>
    <clipPath id="clip-path-63">
      <rect id="Rectangle_1101" data-name="Rectangle 1101" width="9.536" height="8.972" fill="none"/>
    </clipPath>
    <clipPath id="clip-path-64">
      <rect id="Rectangle_1102" data-name="Rectangle 1102" width="2.025" height="11.987" fill="none"/>
    </clipPath>
    <clipPath id="clip-path-65">
      <rect id="Rectangle_1103" data-name="Rectangle 1103" width="21.544" height="14.267" fill="none"/>
    </clipPath>
    <clipPath id="clip-path-66">
      <rect id="Rectangle_1104" data-name="Rectangle 1104" width="24.963" height="22.999" fill="none"/>
    </clipPath>
    <clipPath id="clip-path-67">
      <rect id="Rectangle_1105" data-name="Rectangle 1105" width="42.044" height="17.578" fill="none"/>
    </clipPath>
  </defs>
  <g id="Group_2488" data-name="Group 2488" clip-path="url(#clip-path)">
    <rect id="Rectangle_1017" data-name="Rectangle 1017" width="428.763" height="0.214" transform="translate(0 280.794)" fill="#ebebeb"/>
    <rect id="Rectangle_1018" data-name="Rectangle 1018" width="28.403" height="0.214" transform="translate(357.399 294.596)" fill="#ebebeb"/>
    <rect id="Rectangle_1019" data-name="Rectangle 1019" width="7.454" height="0.214" transform="translate(276.575 296.923)" fill="#ebebeb"/>
    <rect id="Rectangle_1020" data-name="Rectangle 1020" width="16.458" height="0.214" transform="translate(340.083 286.633)" fill="#ebebeb"/>
    <rect id="Rectangle_1021" data-name="Rectangle 1021" width="37.039" height="0.214" transform="translate(44.985 288.074)" fill="#ebebeb"/>
    <rect id="Rectangle_1022" data-name="Rectangle 1022" width="5.431" height="0.214" transform="translate(89.66 288.074)" fill="#ebebeb"/>
    <rect id="Rectangle_1023" data-name="Rectangle 1023" width="80.33" height="0.214" transform="translate(112.74 291.695)" fill="#ebebeb"/>
    <g id="Group_2306" data-name="Group 2306">
      <g id="Group_2305" data-name="Group 2305" clip-path="url(#clip-path)">
        <path id="Path_4079" data-name="Path 4079" d="M208.689,242.549H43.1a4.9,4.9,0,0,1-4.895-4.895V4.895A4.9,4.9,0,0,1,43.1,0H208.689a4.9,4.9,0,0,1,4.894,4.895V237.654a4.9,4.9,0,0,1-4.894,4.895M43.1.214a4.685,4.685,0,0,0-4.68,4.68V237.654a4.685,4.685,0,0,0,4.68,4.68H208.689a4.686,4.686,0,0,0,4.68-4.68V4.895a4.686,4.686,0,0,0-4.68-4.68Z" transform="translate(-5.443)" fill="#ebebeb"/>
        <path id="Path_4080" data-name="Path 4080" d="M424.986,242.549H259.4a4.9,4.9,0,0,1-4.894-4.895V4.895A4.9,4.9,0,0,1,259.4,0H424.986a4.9,4.9,0,0,1,4.895,4.895V237.654a4.9,4.9,0,0,1-4.895,4.895M259.4.214a4.685,4.685,0,0,0-4.68,4.68V237.654a4.685,4.685,0,0,0,4.68,4.68H424.986a4.686,4.686,0,0,0,4.68-4.68V4.895a4.686,4.686,0,0,0-4.68-4.68Z" transform="translate(-36.26)" fill="#ebebeb"/>
        <path id="Path_4081" data-name="Path 4081" d="M195.747,126.1a6.2,6.2,0,0,0-3.458-1.048c-.707-.95-.029-2.3.743-3.2s1.717-1.917,1.5-3.081c-.332-1.759-2.758-1.939-4.529-1.686-.6-1.082-.521-2.4-.779-3.6s-1.145-2.507-2.377-2.418c-1.161.085-1.93,1.354-3.074,1.566-1.33.246-2.412-.972-3.4-1.894a4.053,4.053,0,0,0-.393-.319v-.005c.389-3.593,3.8-2.856,6.752-3.2,2.305-.271-3.469-6.341,1.231-7.981a4.058,4.058,0,0,0,2.3-1.442,2.623,2.623,0,0,0-.85-3.245,6.2,6.2,0,0,0-3.458-1.048c-.707-.951-.029-2.3.744-3.2s1.716-1.917,1.5-3.081c-.332-1.759-2.758-1.939-4.529-1.687-.6-1.081-.521-2.394-.778-3.6s-1.146-2.507-2.378-2.417c-1.161.085-1.929,1.354-3.074,1.565-1.33.246-2.411-.972-3.4-1.893s-2.766-1.554-3.532-.44c-.459.667-.25,1.638-.725,2.294-.823,1.136-2.6.32-3.692-.567s-2.847-1.728-3.7-.611a4.823,4.823,0,0,0-.5,1.184,3.179,3.179,0,0,1-.492.808c-.184-.814-.208-1.685-.383-2.509-.257-1.208-1.146-2.507-2.378-2.417-1.161.085-1.929,1.353-3.074,1.565-1.33.246-2.411-.972-3.4-1.893s-2.766-1.554-3.532-.44c-.459.667-.25,1.638-.725,2.294a1.32,1.32,0,0,1-.387.358,11.655,11.655,0,0,0-1.163-.133c-.707-.951-.029-2.3.744-3.2s1.715-1.917,1.5-3.082c-.333-1.759-2.758-1.939-4.53-1.686-.6-1.082-.521-2.394-.777-3.6s-1.146-2.507-2.378-2.417c-1.161.084-1.929,1.353-3.074,1.565-1.33.246-2.411-.972-3.4-1.893s-2.766-1.555-3.532-.44c-.459.667-.25,1.638-.725,2.293-.822,1.137-2.6.32-3.691-.567s-2.847-1.728-3.7-.611a4.862,4.862,0,0,0-.495,1.183c-.608,1.514-2.31,2.2-3.654,3.124s-2.466,2.838-1.427,4.1c.512.621,1.452.907,1.684,1.678.29.962-.719,1.764-1.515,2.377a4.025,4.025,0,0,0-.96,4.083,3.451,3.451,0,0,1-1.369.713c-1.329.246-2.411-.972-3.4-1.894s-2.766-1.554-3.532-.439c-.458.666-.25,1.637-.725,2.293-.823,1.136-2.6.32-3.691-.567s-2.847-1.728-3.7-.611a4.856,4.856,0,0,0-.5,1.184c-.608,1.514-2.309,2.2-3.653,3.124s-2.466,2.838-1.428,4.1c.492.6,1.372.889,1.646,1.593-.891-.4-1.88-.461-2.4.3-.459.667-.25,1.638-.725,2.294-.822,1.136-2.6.32-3.691-.567s-2.847-1.728-3.7-.611a4.854,4.854,0,0,0-.495,1.184c-.609,1.514-2.31,2.2-3.654,3.124s-2.465,2.838-1.427,4.1c.512.621,1.452.908,1.684,1.678.29.963-.719,1.764-1.515,2.378-1.327,1.021-1.715,4.252-.074,5.221.689.406,1.72.571,1.856,1.36.121.7-.612,1.213-1.109,1.728a3.35,3.35,0,0,0,.783,5.033c.394.214.884.4,1.013.827a1.586,1.586,0,0,1-.142.936,4.991,4.991,0,0,0-.25,1.8.824.824,0,0,0,.192.577.861.861,0,0,0,.527.177c2.427.226,3.642-.578,5.024,1.61a1.732,1.732,0,0,0,.48.563,1.568,1.568,0,0,0,.663.2c1.665.219,2.808-.772,4.346-.892,2.133-.167,2.529.948,4.354,1.917,2.871,1.523,4.337.742,4.986-1.233a8.546,8.546,0,0,0,.346-1.724,3.013,3.013,0,0,1,1.133-2.255c.017,0,.033.008.05.009,1.552.2,2.655-.634,4.042-.847.289-.013.579-.028.868-.049,1.648.062,2.143,1.046,3.791,1.92a5.9,5.9,0,0,0,2.478.794c.2.92-.759,1.69-1.529,2.284-1.327,1.022-1.715,4.253-.074,5.221.689.406,1.72.571,1.856,1.359.122.7-.612,1.213-1.109,1.728a3.351,3.351,0,0,0,.783,5.033c.394.214.884.4,1.014.827a1.6,1.6,0,0,1-.142.936,4.955,4.955,0,0,0-.25,1.8.818.818,0,0,0,.191.576.861.861,0,0,0,.527.177c2.428.226,3.642-.577,5.024,1.61a1.734,1.734,0,0,0,.48.563,1.571,1.571,0,0,0,.663.2c1.665.22,2.808-.771,4.346-.892,2.133-.167,2.529.948,4.354,1.917,2.872,1.524,4.337.742,4.986-1.233a8.487,8.487,0,0,0,.346-1.724c.389-3.593,3.8-2.855,6.752-3.2a.572.572,0,0,0,.5-.306c.061.011.122.026.183.033,1.665.22,2.808-.771,4.346-.892,2.133-.167,2.529.948,4.354,1.917,2.871,1.524,4.337.742,4.985-1.233a8.485,8.485,0,0,0,.347-1.724c.3-2.794,2.434-2.969,4.753-3.072a3.227,3.227,0,0,0,1.571,2.7c.394.214.883.4,1.013.827a1.586,1.586,0,0,1-.142.936,4.991,4.991,0,0,0-.25,1.8.824.824,0,0,0,.192.577.861.861,0,0,0,.527.177c2.427.226,3.642-.578,5.023,1.61a1.745,1.745,0,0,0,.481.563,1.572,1.572,0,0,0,.663.2c1.665.22,2.808-.771,4.346-.892,2.133-.167,2.529.948,4.354,1.917,2.871,1.523,4.337.742,4.986-1.233a8.546,8.546,0,0,0,.346-1.724c.388-3.593,3.8-2.856,6.752-3.2,2.305-.271-3.47-6.341,1.231-7.98a4.054,4.054,0,0,0,2.3-1.443,2.622,2.622,0,0,0-.849-3.245" transform="translate(-11.257 -9.023)" fill="#e0e0e0"/>
        <path id="Path_4082" data-name="Path 4082" d="M108.522,171.527a4.885,4.885,0,0,0-2.723-.825c-.557-.749-.023-1.809.586-2.516s1.351-1.509,1.178-2.426c-.262-1.385-2.172-1.527-3.567-1.328a9.982,9.982,0,0,1-.612-2.837c-.2-.952-.9-1.975-1.872-1.9-.914.067-1.52,1.066-2.421,1.232-1.047.194-1.9-.765-2.677-1.491s-2.178-1.223-2.781-.346c-.361.525-.2,1.29-.571,1.806-.648.894-2.05.251-2.906-.447s-2.242-1.36-2.91-.481a3.8,3.8,0,0,0-.39.932c-.479,1.192-1.819,1.732-2.877,2.46s-1.941,2.234-1.124,3.225c.4.488,1.144.714,1.327,1.321.228.758-.566,1.389-1.193,1.873-1.044.8-1.351,3.349-.058,4.11.543.321,1.355.45,1.461,1.071.1.555-.482.955-.873,1.361a2.638,2.638,0,0,0,.616,3.963c.312.168.7.312.8.651a1.254,1.254,0,0,1-.111.737,3.923,3.923,0,0,0-.2,1.415.653.653,0,0,0,.152.454.676.676,0,0,0,.414.138c1.911.178,2.868-.454,3.956,1.269a1.369,1.369,0,0,0,.378.442,1.235,1.235,0,0,0,.522.157c1.311.173,2.212-.607,3.422-.7,1.68-.131,1.991.747,3.428,1.509,2.26,1.2,3.415.584,3.925-.971a6.7,6.7,0,0,0,.274-1.358c.306-2.829,2.994-2.248,5.317-2.521,1.815-.214-2.731-4.993.97-6.284a3.191,3.191,0,0,0,1.81-1.135,2.064,2.064,0,0,0-.668-2.555" transform="translate(-11.694 -22.599)" fill="#e0e0e0"/>
        <path id="Path_4083" data-name="Path 4083" d="M134.732,291.668H149.1c.823-14.435,3.7-78.639.785-107.118.19-.9.39-1.921.6-3.114,1.974-11.173,13.291-27.66,15.521-30.287s8.734-10.934,8.734-10.934l-1.167-1.949L163.185,148.7l4.358-11.781,7.8-9.086-1.208-1.11-7.292,7.218-.653-12.021-2.753-.133s2.981,13.852.342,18.946c0,0-10.95,21.931-16.426,26.42a4.653,4.653,0,0,0-.823.894A54.929,54.929,0,0,0,141,156.333c2.323-5.2,7.33-16.655,9.14-22.78a122.034,122.034,0,0,0,3.375-14.56l-2.007-1.226s-5.691,23.73-14.253,33.812a31.976,31.976,0,0,0-7.767-5.763c-.492-3.263-.5-8.9,2.07-17.583l-1.517-1.546a49.616,49.616,0,0,0-3.932,17.24,29.8,29.8,0,0,1-3.393-2.241c-7.5-5.833-12.476-15.96-12.476-15.96l-2.943-.142s7.2,16.475,16.2,21.784,14.4,17.434,14.723,20.563c.092.892-.158,10.261-.561,23.2-9.793-6.608-33.86-22.877-35.1-24.006l-.146,3,35.006,28.575c-.927,28.723-2.35,82.376-2.686,92.975" transform="translate(-14.591 -16.779)" fill="#ebebeb"/>
        <path id="Path_4084" data-name="Path 4084" d="M119.14,48.957c0-6.949,3.986-9.253,7.056-9.669,5.029-.683,8.622,3.145,8.622,3.145s2.734-9.218,12.614-9.218,12.922,10.068,12.922,10.068a12.67,12.67,0,0,1,9.377-2.127c3.879.648,6.189,3.508,8.688,7.8Z" transform="translate(-16.974 -4.732)" fill="#f5f5f5"/>
        <path id="Path_4085" data-name="Path 4085" d="M236.26,131.121c0-8.972,5.146-11.948,9.11-12.486,6.494-.88,11.134,4.063,11.134,4.063s3.53-11.9,16.289-11.9,16.686,13,16.686,13a16.357,16.357,0,0,1,12.107-2.747c5.009.837,7.991,4.529,11.218,10.071Z" transform="translate(-33.661 -15.785)" fill="#f5f5f5"/>
        <path id="Path_4086" data-name="Path 4086" d="M382.437,56.047s-2.2-5.447-7.653-6.042a8.865,8.865,0,0,0-8.073,3.021s-4.268-7.6-12.58-6.51c-9.121,1.191-8.6,9.531-8.6,9.531Z" transform="translate(-49.229 -6.612)" fill="#f5f5f5"/>
        <rect id="Rectangle_1024" data-name="Rectangle 1024" width="294.559" height="8.226" transform="translate(67.751 236.219)" fill="#e0e0e0"/>
        <path id="Path_4087" data-name="Path 4087" d="M208.471,304.821h-8.323V252.277l4.162-2.958,4.162,2.958Z" transform="translate(-28.516 -35.521)" fill="#e6e6e6"/>
        <path id="Path_4088" data-name="Path 4088" d="M226.476,304.821h-8.323V252.277l4.162-2.958,4.162,2.958Z" transform="translate(-31.081 -35.521)" fill="#e6e6e6"/>
        <path id="Path_4089" data-name="Path 4089" d="M244.481,304.821h-8.323V252.277l4.162-2.958,4.162,2.958Z" transform="translate(-33.646 -35.521)" fill="#e6e6e6"/>
        <path id="Path_4090" data-name="Path 4090" d="M262.487,304.821h-8.323V252.277l4.162-2.958,4.162,2.958Z" transform="translate(-36.212 -35.521)" fill="#e6e6e6"/>
        <path id="Path_4091" data-name="Path 4091" d="M280.492,304.821h-8.323V252.277l4.162-2.958,4.162,2.958Z" transform="translate(-38.777 -35.521)" fill="#e6e6e6"/>
        <path id="Path_4092" data-name="Path 4092" d="M298.5,304.821h-8.323V252.277l4.162-2.958,4.162,2.958Z" transform="translate(-41.342 -35.521)" fill="#e6e6e6"/>
        <path id="Path_4093" data-name="Path 4093" d="M316.5,304.821H308.18V252.277l4.162-2.958,4.162,2.958Z" transform="translate(-43.907 -35.521)" fill="#e6e6e6"/>
        <path id="Path_4094" data-name="Path 4094" d="M334.508,304.821h-8.323V252.277l4.162-2.958,4.162,2.958Z" transform="translate(-46.473 -35.521)" fill="#e6e6e6"/>
        <path id="Path_4095" data-name="Path 4095" d="M352.514,304.821H344.19V252.277l4.162-2.958,4.162,2.958Z" transform="translate(-49.038 -35.521)" fill="#e6e6e6"/>
        <path id="Path_4096" data-name="Path 4096" d="M370.519,304.821H362.2V252.277l4.162-2.958,4.162,2.958Z" transform="translate(-51.603 -35.521)" fill="#e6e6e6"/>
        <path id="Path_4097" data-name="Path 4097" d="M388.524,304.821H380.2V252.277l4.162-2.958,4.162,2.958Z" transform="translate(-54.169 -35.521)" fill="#e6e6e6"/>
        <path id="Path_4098" data-name="Path 4098" d="M406.53,304.821h-8.323V252.277l4.162-2.958,4.162,2.958Z" transform="translate(-56.734 -35.521)" fill="#e6e6e6"/>
        <path id="Path_4099" data-name="Path 4099" d="M424.535,304.821h-8.323V252.277l4.162-2.958,4.162,2.958Z" transform="translate(-59.299 -35.521)" fill="#e6e6e6"/>
        <path id="Path_4100" data-name="Path 4100" d="M118.444,304.821h-8.323V252.277l4.162-2.958,4.162,2.958Z" transform="translate(-15.689 -35.521)" fill="#e6e6e6"/>
        <path id="Path_4101" data-name="Path 4101" d="M136.449,304.821h-8.323V252.277l4.162-2.958,4.162,2.958Z" transform="translate(-18.255 -35.521)" fill="#e6e6e6"/>
        <path id="Path_4102" data-name="Path 4102" d="M154.454,304.821h-8.323V252.277l4.162-2.958,4.162,2.958Z" transform="translate(-20.82 -35.521)" fill="#e6e6e6"/>
        <path id="Path_4103" data-name="Path 4103" d="M172.46,304.821h-8.323V252.277l4.162-2.958,4.162,2.958Z" transform="translate(-23.385 -35.521)" fill="#e6e6e6"/>
        <path id="Path_4104" data-name="Path 4104" d="M190.465,304.821h-8.323V252.277l4.162-2.958,4.162,2.958Z" transform="translate(-25.95 -35.521)" fill="#e6e6e6"/>
        <path id="Path_4105" data-name="Path 4105" d="M100.438,304.821H92.115V252.277l4.162-2.958,4.162,2.958Z" transform="translate(-13.124 -35.521)" fill="#e6e6e6"/>
        <path id="Path_4106" data-name="Path 4106" d="M82.433,304.821H74.11V252.277l4.162-2.958,4.162,2.958Z" transform="translate(-10.559 -35.521)" fill="#e6e6e6"/>
        <path id="Path_4107" data-name="Path 4107" d="M403.307,310.664s2.236-7.489-2.286-8.98-7.2-4.994-7.054-8.955-4.608-7.816-8.178-4.1-3.094-2.854-7.854-4.45-8.795,2.276-7.491,5.814-3.393,5.748-9.018,2.739-11.812,2.465-10.622,6.75.215,4.759-3.343,3.332-9.924,2.618-7.694,7.854,63.541,0,63.541,0" transform="translate(-48.342 -40.435)" fill="#ebebeb"/>
        <path id="Path_4108" data-name="Path 4108" d="M125.48,310.41s1.736-5.814-1.775-6.972-5.593-3.876-5.475-6.951-3.578-6.067-6.349-3.186-2.4-2.216-6.1-3.454-6.827,1.766-5.816,4.513-2.634,4.463-7,2.127-9.17,1.913-8.246,5.239.167,3.7-2.6,2.586-7.7,2.032-5.973,6.1,49.327,0,49.327,0" transform="translate(-10.799 -41.255)" fill="#ebebeb"/>
        <path id="Path_4109" data-name="Path 4109" d="M221.481,308.631c4-4,.4-10.8-3.6-11.6s-8.02-7.84-8.211-12.321-7.39-18.264-18.591-9.753-7.8,1.254-15.9-1.138-13.214,4.489-9.658,9.65c0,0-8.14-2.04-11.493,5.561s0,12.321,0,12.321-15.309-.453-13.931,9.014,81.384-1.734,81.384-1.734" transform="translate(-19.948 -38.787)" fill="#ebebeb"/>
        <path id="Path_4110" data-name="Path 4110" d="M69.1,314.386v10.961H377.927V314.386a3.264,3.264,0,0,0-3.232-3.44H72.333a3.264,3.264,0,0,0-3.232,3.44" transform="translate(-9.845 -44.302)" fill="#ebebeb"/>
        <rect id="Rectangle_1025" data-name="Rectangle 1025" width="19.202" height="14.401" transform="translate(331.28 266.644)" fill="#f5f5f5"/>
        <rect id="Rectangle_1026" data-name="Rectangle 1026" width="18.402" height="14.401" transform="translate(295.276 266.644)" fill="#f5f5f5"/>
        <rect id="Rectangle_1027" data-name="Rectangle 1027" width="19.202" height="14.401" transform="translate(258.473 266.644)" fill="#f5f5f5"/>
        <rect id="Rectangle_1028" data-name="Rectangle 1028" width="18.402" height="14.401" transform="translate(222.47 266.644)" fill="#f5f5f5"/>
        <rect id="Rectangle_1029" data-name="Rectangle 1029" width="18.402" height="14.401" transform="translate(186.467 266.644)" fill="#f5f5f5"/>
        <rect id="Rectangle_1030" data-name="Rectangle 1030" width="19.202" height="14.401" transform="translate(149.664 266.644)" fill="#f5f5f5"/>
        <rect id="Rectangle_1031" data-name="Rectangle 1031" width="18.402" height="14.401" transform="translate(113.661 266.644)" fill="#f5f5f5"/>
        <rect id="Rectangle_1032" data-name="Rectangle 1032" width="19.202" height="14.401" transform="translate(76.858 266.644)" fill="#f5f5f5"/>
      </g>
    </g>
    <g id="Group_2308" data-name="Group 2308">
      <g id="Group_2307" data-name="Group 2307" clip-path="url(#clip-path)">
        <path id="Path_4111" data-name="Path 4111" d="M388.641,359.673c0,5.363-74.439,9.71-166.265,9.71s-166.265-4.347-166.265-9.71,74.439-9.71,166.265-9.71,166.265,4.348,166.265,9.71" transform="translate(-7.994 -49.86)" fill="#f5f5f5"/>
      </g>
    </g>
    <path id="Path_4112" data-name="Path 4112" d="M386.106,43.843l3.3,31.731h16.537l3.3-31.731Z" transform="translate(-55.01 -6.246)" fill="#263238"/>
    <g id="Group_2313" data-name="Group 2313">
      <g id="Group_2312" data-name="Group 2312" clip-path="url(#clip-path)">
        <g id="Group_2311" data-name="Group 2311" transform="translate(331.096 37.597)" opacity="0.3">
          <g id="Group_2310" data-name="Group 2310">
            <g id="Group_2309" data-name="Group 2309" clip-path="url(#clip-path-5)">
              <path id="Path_4113" data-name="Path 4113" d="M386.106,43.843l3.3,31.731h16.537l3.3-31.731Z" transform="translate(-386.106 -43.843)" fill="#fff"/>
            </g>
          </g>
        </g>
      </g>
    </g>
    <rect id="Rectangle_1037" data-name="Rectangle 1037" width="6.154" height="245.985" transform="translate(339.591 62.504)" fill="#263238"/>
    <g id="Group_2318" data-name="Group 2318">
      <g id="Group_2317" data-name="Group 2317" clip-path="url(#clip-path)">
        <g id="Group_2316" data-name="Group 2316" transform="translate(339.591 62.504)" opacity="0.3">
          <g id="Group_2315" data-name="Group 2315">
            <g id="Group_2314" data-name="Group 2314" clip-path="url(#clip-path-7)">
              <rect id="Rectangle_1038" data-name="Rectangle 1038" width="6.154" height="245.985" fill="#fff"/>
            </g>
          </g>
        </g>
      </g>
    </g>
    <path id="Path_4114" data-name="Path 4114" d="M391.506,73.959h13.056l2.9-27.865H388.608Z" transform="translate(-55.366 -6.567)" fill="#407bff"/>
    <g id="Group_2323" data-name="Group 2323">
      <g id="Group_2322" data-name="Group 2322" clip-path="url(#clip-path)">
        <g id="Group_2321" data-name="Group 2321" transform="translate(333.242 39.526)" opacity="0.4" style="isolation: isolate">
          <g id="Group_2320" data-name="Group 2320">
            <g id="Group_2319" data-name="Group 2319" clip-path="url(#clip-path-9)">
              <path id="Path_4115" data-name="Path 4115" d="M391.506,73.959h13.056l2.9-27.865H388.608Z" transform="translate(-388.608 -46.093)" fill="#fff"/>
            </g>
          </g>
        </g>
      </g>
    </g>
    <path id="Path_4116" data-name="Path 4116" d="M401.6,74.234h.892l.966-29.267h-.892Z" transform="translate(-57.218 -6.407)" fill="#263238"/>
    <g id="Group_2340" data-name="Group 2340">
      <g id="Group_2339" data-name="Group 2339" clip-path="url(#clip-path)">
        <g id="Group_2326" data-name="Group 2326" transform="translate(344.384 38.56)" opacity="0.3">
          <g id="Group_2325" data-name="Group 2325">
            <g id="Group_2324" data-name="Group 2324" clip-path="url(#clip-path-11)">
              <path id="Path_4117" data-name="Path 4117" d="M401.6,74.234h.892l.966-29.267h-.892Z" transform="translate(-401.602 -44.967)" fill="#fff"/>
            </g>
          </g>
        </g>
        <g id="Group_2329" data-name="Group 2329" transform="translate(331.096 37.597)" opacity="0.2">
          <g id="Group_2328" data-name="Group 2328">
            <g id="Group_2327" data-name="Group 2327" clip-path="url(#clip-path-12)">
              <path id="Path_4118" data-name="Path 4118" d="M386.106,43.843l3.3,31.731H399.8l1.246-31.731Z" transform="translate(-386.106 -43.843)" fill="#fff"/>
            </g>
          </g>
        </g>
        <path id="Path_4119" data-name="Path 4119" d="M396.722,31.947s9.808,9.681,17.324,9.681l-2.332,1.529H381.73L379.4,41.628c7.515,0,17.324-9.681,17.324-9.681" transform="translate(-54.054 -4.552)" fill="#263238"/>
        <g id="Group_2332" data-name="Group 2332" transform="translate(325.348 27.396)" opacity="0.4">
          <g id="Group_2331" data-name="Group 2331">
            <g id="Group_2330" data-name="Group 2330" clip-path="url(#clip-path-13)">
              <path id="Path_4120" data-name="Path 4120" d="M379.4,41.627l2.328,1.526h29.983l2.328-1.526c-7.515,0-17.319-9.679-17.319-9.679s-9.8,9.679-17.319,9.679" transform="translate(-379.403 -31.948)" fill="#fff"/>
            </g>
          </g>
        </g>
        <g id="Group_2335" data-name="Group 2335" transform="translate(325.348 27.396)" opacity="0.2">
          <g id="Group_2334" data-name="Group 2334">
            <g id="Group_2333" data-name="Group 2333" clip-path="url(#clip-path-14)">
              <path id="Path_4121" data-name="Path 4121" d="M379.4,41.627l2.328,1.526H401.2c.589-.956,1-1.652,1-1.652-5.226-2.425-5.486-9.554-5.486-9.554s-9.8,9.679-17.319,9.679" transform="translate(-379.403 -31.948)" fill="#fff"/>
            </g>
          </g>
        </g>
        <path id="Path_4122" data-name="Path 4122" d="M392.776,354.806h11.1A2.12,2.12,0,0,1,406,356.927v2.113H390.655v-2.113a2.12,2.12,0,0,1,2.121-2.121" transform="translate(-55.658 -50.55)" fill="#263238"/>
        <g id="Group_2338" data-name="Group 2338" transform="translate(334.997 304.255)" opacity="0.5">
          <g id="Group_2337" data-name="Group 2337">
            <g id="Group_2336" data-name="Group 2336" clip-path="url(#clip-path-15)">
              <path id="Path_4123" data-name="Path 4123" d="M392.776,354.806h11.1A2.12,2.12,0,0,1,406,356.927v2.113H390.655v-2.113a2.12,2.12,0,0,1,2.121-2.121" transform="translate(-390.655 -354.806)" fill="#fff"/>
            </g>
          </g>
        </g>
      </g>
    </g>
    <g id="Group_2345" data-name="Group 2345">
      <g id="Group_2344" data-name="Group 2344" clip-path="url(#clip-path)">
        <path id="Path_4124" data-name="Path 4124" d="M312.4,77.252H335.51a7.948,7.948,0,0,1,7.948,7.948V94.79a7.948,7.948,0,0,1-7.948,7.948h-3.893l-.092,8.391-5.254-8.391H312.4a7.947,7.947,0,0,1-7.947-7.948V85.2a7.947,7.947,0,0,1,7.947-7.948" transform="translate(-43.376 -11.006)" fill="#407bff"/>
        <g id="Group_2343" data-name="Group 2343" transform="translate(261.074 66.246)" opacity="0.7">
          <g id="Group_2342" data-name="Group 2342">
            <g id="Group_2341" data-name="Group 2341" clip-path="url(#clip-path-17)">
              <path id="Path_4125" data-name="Path 4125" d="M312.4,77.252H335.51a7.948,7.948,0,0,1,7.948,7.948V94.79a7.948,7.948,0,0,1-7.948,7.948h-3.893l-.092,8.391-5.254-8.391H312.4a7.947,7.947,0,0,1-7.947-7.948V85.2a7.947,7.947,0,0,1,7.947-7.948" transform="translate(-304.45 -77.252)" fill="#fff"/>
            </g>
          </g>
        </g>
        <path id="Path_4126" data-name="Path 4126" d="M337.7,91.205A1.605,1.605,0,1,0,339.3,89.6a1.605,1.605,0,0,0-1.605,1.605" transform="translate(-48.113 -12.766)" fill="#407bff"/>
        <path id="Path_4127" data-name="Path 4127" d="M329.447,91.205a1.605,1.605,0,1,0,1.605-1.605,1.605,1.605,0,0,0-1.605,1.605" transform="translate(-46.937 -12.766)" fill="#407bff"/>
        <path id="Path_4128" data-name="Path 4128" d="M321.2,91.205A1.605,1.605,0,1,0,322.8,89.6a1.605,1.605,0,0,0-1.605,1.605" transform="translate(-45.762 -12.766)" fill="#407bff"/>
        <path id="Path_4129" data-name="Path 4129" d="M312.948,91.205a1.605,1.605,0,1,0,1.605-1.605,1.605,1.605,0,0,0-1.605,1.605" transform="translate(-44.587 -12.766)" fill="#407bff"/>
      </g>
    </g>
    <g id="Group_2389" data-name="Group 2389">
      <g id="Group_2388" data-name="Group 2388" clip-path="url(#clip-path)">
        <path id="Path_4130" data-name="Path 4130" d="M313.856,156.18l-6.613-1.054,4.218-6.113s5.844,1.3,5.049,4.279Z" transform="translate(-43.774 -21.23)" fill="#ebb376"/>
        <path id="Path_4131" data-name="Path 4131" d="M301.352,150.46l5.412-4.025,3.858,2.211L306.4,154.76Z" transform="translate(-42.935 -20.863)" fill="#ebb376"/>
        <path id="Path_4132" data-name="Path 4132" d="M369.307,133.232a29.414,29.414,0,0,1,13.085-1.483l-2.526,11.391-12.155,1.149-.795-8.131Z" transform="translate(-52.276 -18.74)" fill="#407bff"/>
        <path id="Path_4133" data-name="Path 4133" d="M351.7,196.9s-37.4,37.12-37.4,48.4c0,11.93,65.127,36.181,65.127,36.181l1.724-10.424s-42.1-23.415-45.44-26.49c-1.96-1.806,33.012-34.275,33.012-34.275v-9.729Z" transform="translate(-44.779 -28.053)" fill="#263238"/>
        <path id="Path_4134" data-name="Path 4134" d="M389.765,292.533l.078-8.27a.523.523,0,0,1,.5-.541h.009l6.553-.341a1.3,1.3,0,0,1,1.29,1.3c-.075,2.886-.254,4.259-.316,7.9a68.532,68.532,0,0,1-.387,9.7c-.518,3.047-3.516,2.453-3.566,1.118-.132-3.169-2.142-7.5-3.753-9.589a2.059,2.059,0,0,1-.412-1.272" transform="translate(-55.531 -40.374)" fill="#263238"/>
        <g id="Group_2348" data-name="Group 2348" transform="translate(269.521 168.699)" opacity="0.4" style="isolation: isolate">
          <g id="Group_2347" data-name="Group 2347">
            <g id="Group_2346" data-name="Group 2346" clip-path="url(#clip-path-19)">
              <path id="Path_4135" data-name="Path 4135" d="M381.154,270.877,379.422,281.3s-10.462-3.893-23-9.33c-18.746-8.129-42.122-19.706-42.122-26.849,0-11.285,37.4-48.4,37.4-48.4l17.022,3.662v9.724s-.472.437-1.3,1.218c-1.912,1.784-5.745,5.385-10.1,9.587-10.016,9.621-22.81,22.364-21.61,23.471,1.432,1.321,9.947,6.354,19.226,11.68,12.426,7.135,26.223,14.809,26.223,14.809" transform="translate(-314.301 -196.727)" fill="#fff"/>
            </g>
          </g>
        </g>
        <g id="Group_2351" data-name="Group 2351" transform="translate(312.535 178.92)" opacity="0.2" style="isolation: isolate">
          <g id="Group_2350" data-name="Group 2350">
            <g id="Group_2349" data-name="Group 2349" clip-path="url(#clip-path-20)">
              <path id="Path_4136" data-name="Path 4136" d="M374.563,213.183c-1.912,1.784-5.745,5.385-10.1,9.587,2.453-8.044,8.867-14.123,8.867-14.123a9.393,9.393,0,0,1,1.235,4.536" transform="translate(-364.461 -208.647)"/>
            </g>
          </g>
        </g>
        <g id="Group_2354" data-name="Group 2354" transform="translate(310.151 228.039)" opacity="0.2" style="isolation: isolate">
          <g id="Group_2353" data-name="Group 2353">
            <g id="Group_2352" data-name="Group 2352" clip-path="url(#clip-path-21)">
              <path id="Path_4137" data-name="Path 4137" d="M387.9,280.736l-1.732,10.428s-10.462-3.893-23-9.33a92.722,92.722,0,0,1-1.492-15.907c12.426,7.135,26.223,14.809,26.223,14.809" transform="translate(-361.681 -265.927)"/>
            </g>
          </g>
        </g>
        <path id="Path_4138" data-name="Path 4138" d="M364.712,351.856l8.268-.182a.522.522,0,0,1,.557.486v.009l.547,6.539a1.3,1.3,0,0,1-1.258,1.33c-2.886.016-4.264-.119-7.9-.068a68.4,68.4,0,0,1-9.705-.082c-3.061-.421-2.563-3.437-1.23-3.528,3.163-.232,7.425-2.377,9.466-4.053a2.061,2.061,0,0,1,1.258-.452" transform="translate(-50.285 -50.104)" fill="#263238"/>
        <path id="Path_4139" data-name="Path 4139" d="M357.264,150.122c-.6,1.18-1.141,2.168-1.736,3.223q-.881,1.553-1.815,3.07-1.872,3.036-4.012,5.931a62.212,62.212,0,0,1-4.644,5.623,41.759,41.759,0,0,1-5.644,5.1l-.164.121a4.042,4.042,0,0,1-3.486.63,17.129,17.129,0,0,1-4.133-1.847,35.935,35.935,0,0,1-3.172-2.141c-1.974-1.474-3.775-3.019-5.522-4.6s-3.389-3.229-5.005-4.9q-1.195-1.268-2.361-2.558l-1.16-1.3-.577-.655c-.208-.208-.364-.454-.139-1.1a5.856,5.856,0,0,1,3.44-3.538l.49-.184c.616-.232.854-.071,1.04.128l.613.561,1.238,1.115q1.246,1.107,2.512,2.19c1.666,1.464,3.359,2.886,5.055,4.264s3.413,2.7,5.137,3.853a27.811,27.811,0,0,0,2.548,1.538,9.177,9.177,0,0,0,2.091.854l-3.65.752a44.557,44.557,0,0,0,8.015-9.243c1.2-1.758,2.332-3.585,3.411-5.449q.813-1.4,1.577-2.818c.5-.929,1.019-1.941,1.424-2.793l.024-.05a4.793,4.793,0,1,1,8.659,4.11l-.051.1" transform="translate(-44.677 -20.398)" fill="#263238"/>
        <path id="Path_4140" data-name="Path 4140" d="M359.582,188.464l31.935,1.114s.206,10.472-2.211,18.266L357.61,196.8Z" transform="translate(-50.95 -26.851)" fill="#263238"/>
        <g id="Group_2357" data-name="Group 2357" transform="translate(306.66 161.613)" opacity="0.4" style="isolation: isolate">
          <g id="Group_2356" data-name="Group 2356">
            <g id="Group_2355" data-name="Group 2355" clip-path="url(#clip-path-22)">
              <path id="Path_4141" data-name="Path 4141" d="M359.582,188.464l31.935,1.114s.206,10.472-2.211,18.266L357.61,196.8Z" transform="translate(-357.61 -188.464)" fill="#fff"/>
            </g>
          </g>
        </g>
        <path id="Path_4142" data-name="Path 4142" d="M372.4,191.333s-5.51,51.032-5.759,68.575c-.28,19.234-1.371,69.112-1.371,69.112l10.285,1.566s5.72-47.251,7.654-65.889c2.2-21.241,8.3-64.425,8.3-64.425Z" transform="translate(-52.041 -27.26)" fill="#263238"/>
        <g id="Group_2360" data-name="Group 2360" transform="translate(313.229 164.073)" opacity="0.4" style="isolation: isolate">
          <g id="Group_2359" data-name="Group 2359">
            <g id="Group_2358" data-name="Group 2358" clip-path="url(#clip-path-23)">
              <path id="Path_4143" data-name="Path 4143" d="M372.4,191.333s-5.51,51.032-5.759,68.575c-.28,19.234-1.371,69.112-1.371,69.112l10.285,1.566s5.72-47.251,7.654-65.889c2.2-21.241,8.3-64.425,8.3-64.425Z" transform="translate(-365.27 -191.333)" fill="#fff"/>
            </g>
          </g>
        </g>
        <path id="Path_4144" data-name="Path 4144" d="M365.943,193.244l15.01.951.188-3.663-15.02-.769Z" transform="translate(-52.137 -27.036)" fill="#263238"/>
        <path id="Path_4145" data-name="Path 4145" d="M384.964,190.727l-.189,3.678,10.26.65.195-3.8Z" transform="translate(-54.82 -27.174)" fill="#263238"/>
        <path id="Path_4146" data-name="Path 4146" d="M364,189.657l-4.373-.224-.581,3.389,4.776.3Z" transform="translate(-51.154 -26.989)" fill="#263238"/>
        <rect id="Rectangle_1056" data-name="Rectangle 1056" width="4.262" height="5.915" transform="translate(316.937 166.92) rotate(-87.075)" fill="#fff"/>
        <path id="Path_4147" data-name="Path 4147" d="M354.631,138.108c-2.721.528-10.689,19.426-10.689,19.426l7.524,9.52,3.295-4.6Z" transform="translate(-49.003 -19.677)" fill="#407bff"/>
        <g id="Group_2363" data-name="Group 2363" transform="translate(300.545 130.459)" opacity="0.2" style="isolation: isolate">
          <g id="Group_2362" data-name="Group 2362">
            <g id="Group_2361" data-name="Group 2361" clip-path="url(#clip-path-24)">
              <path id="Path_4148" data-name="Path 4148" d="M355.628,152.134l.062,12.321-3.294,4.6-1.871-2.374a20.44,20.44,0,0,1,5.1-14.546" transform="translate(-350.479 -152.134)"/>
            </g>
          </g>
        </g>
        <path id="Path_4149" data-name="Path 4149" d="M356.244,137.762s20.631-3.147,36.429-1.708c0,0-3.956,30.515-1.887,46.456l-31.015-1.057s-7.04-26.6-3.527-43.69" transform="translate(-50.615 -19.33)" fill="#263238"/>
        <path id="Path_4150" data-name="Path 4150" d="M382.239,133.3c-2.669,3.041-10.072,2.868-10.072,2.868s-4.691-.731-3.9-2.26c2.63-.746,3.786-2.144,4.14-3.8a7.851,7.851,0,0,0-.075-3.092,16.305,16.305,0,0,0-.419-1.683l8.255-7.695c-.682,4.539-1.208,12.805,2.067,15.668" transform="translate(-52.456 -16.76)" fill="#ebb376"/>
        <g id="Group_2366" data-name="Group 2366" transform="translate(319.88 105.353)" opacity="0.2" style="isolation: isolate">
          <g id="Group_2365" data-name="Group 2365">
            <g id="Group_2364" data-name="Group 2364" clip-path="url(#clip-path-25)">
              <path id="Path_4151" data-name="Path 4151" d="M379.262,122.857c.256,5.448-4.019,7.442-6.16,7.992a7.847,7.847,0,0,0-.075-3.091Z" transform="translate(-373.026 -122.857)"/>
            </g>
          </g>
        </g>
        <path id="Path_4152" data-name="Path 4152" d="M383.7,133.965l-3.952,2.561s-.764,38.325,9.322,61.483l9.72-1.354-2.627-60.845Z" transform="translate(-54.102 -19.086)" fill="#407bff"/>
        <path id="Path_4153" data-name="Path 4153" d="M379.746,136.215l4.475-4.431,3.349,2.178-3.239,5.279Z" transform="translate(-54.104 -18.776)" fill="#407bff"/>
        <g id="Group_2369" data-name="Group 2369" transform="translate(325.642 113.008)" opacity="0.2" style="isolation: isolate">
          <g id="Group_2368" data-name="Group 2368">
            <g id="Group_2367" data-name="Group 2367" clip-path="url(#clip-path-26)">
              <path id="Path_4154" data-name="Path 4154" d="M379.746,136.215l4.475-4.431,3.349,2.178-3.239,5.279Z" transform="translate(-379.746 -131.784)" fill="#fff"/>
            </g>
          </g>
        </g>
        <path id="Path_4155" data-name="Path 4155" d="M365.749,136.615c-1.745,3.109-4.4,51.639-10.534,59.959l-4.736-2.408c6.115-11.127,1.357-52.447,5.083-56.271Z" transform="translate(-49.934 -19.464)" fill="#407bff"/>
        <path id="Path_4156" data-name="Path 4156" d="M369.033,133.514l-4.042,2.98.1,2.874,3.482-3.1Z" transform="translate(-52.001 -19.022)" fill="#407bff"/>
        <g id="Group_2372" data-name="Group 2372" transform="translate(312.989 114.492)" opacity="0.2" style="isolation: isolate">
          <g id="Group_2371" data-name="Group 2371">
            <g id="Group_2370" data-name="Group 2370" clip-path="url(#clip-path-27)">
              <path id="Path_4157" data-name="Path 4157" d="M369.033,133.514l-4.042,2.98.1,2.874,3.482-3.1Z" transform="translate(-364.991 -133.514)" fill="#fff"/>
            </g>
          </g>
        </g>
        <g id="Group_2375" data-name="Group 2375" transform="translate(341.42 126.397)" opacity="0.2" style="isolation: isolate">
          <g id="Group_2374" data-name="Group 2374">
            <g id="Group_2373" data-name="Group 2373" clip-path="url(#clip-path-28)">
              <path id="Path_4158" data-name="Path 4158" d="M399.855,150.26l.785,9.279c-3.3-4.615-2.375-12.143-2.375-12.143s.675,1.175,1.591,2.863" transform="translate(-398.145 -147.397)"/>
            </g>
          </g>
        </g>
        <path id="Path_4159" data-name="Path 4159" d="M367.835,106.578c2.684,1.407,1.875,4.4-3.251,9.525-2.626-2.709-3.663-8.429-2.007-10.086s2.92-.655,5.258.561" transform="translate(-51.544 -14.981)" fill="#263238"/>
        <path id="Path_4160" data-name="Path 4160" d="M379.108,109.5c.423,6.12.976,9.675-1.676,13.195-4,5.289-11.854,3.494-14.1-2.379-2.008-5.275-2.367-14.4,3.257-17.59a8.366,8.366,0,0,1,12.517,6.774" transform="translate(-51.574 -14.477)" fill="#ebb376"/>
        <path id="Path_4161" data-name="Path 4161" d="M371.439,114c.064.494-.147.93-.47.97s-.631-.321-.7-.815.141-.927.461-.974.607.337.7.819" transform="translate(-52.752 -16.124)" fill="#263238"/>
        <path id="Path_4162" data-name="Path 4162" d="M364.89,114.865c.064.494-.147.93-.47.97s-.638-.319-.7-.819.147-.93.47-.97.641.325.7.819" transform="translate(-51.818 -16.248)" fill="#263238"/>
        <path id="Path_4163" data-name="Path 4163" d="M366.959,114.993a17.812,17.812,0,0,1-1.808,4.535,2.876,2.876,0,0,0,2.421.13Z" transform="translate(-52.024 -16.383)" fill="#d58745"/>
        <path id="Path_4164" data-name="Path 4164" d="M372.727,111.6a.29.29,0,0,0,.179-.064.3.3,0,0,0,.009-.415,2.893,2.893,0,0,0-2.52-.888.282.282,0,0,0-.233.324l0,.02a.3.3,0,0,0,.344.229,2.308,2.308,0,0,1,1.982.722.3.3,0,0,0,.236.073" transform="translate(-52.738 -15.701)" fill="#263238"/>
        <path id="Path_4165" data-name="Path 4165" d="M361.761,112.8a.3.3,0,0,0,.244-.2,2.329,2.329,0,0,1,1.461-1.527.294.294,0,0,0-.144-.57,2.923,2.923,0,0,0-1.87,1.914.289.289,0,0,0,.18.367h0a.344.344,0,0,0,.125.015" transform="translate(-51.495 -15.743)" fill="#263238"/>
        <path id="Path_4166" data-name="Path 4166" d="M378.053,104.678c-2.711,1.345-1.962,4.359,3.055,9.583,2.685-2.654,3.843-8.358,2.214-10.038s-2.9-.714-5.269.455" transform="translate(-53.642 -14.72)" fill="#263238"/>
        <path id="Path_4167" data-name="Path 4167" d="M385.13,115.5a5.833,5.833,0,0,1-2.3,3.819c-1.654,1.2-3.187-.111-3.323-2.04-.121-1.74.6-4.463,2.541-4.9a2.6,2.6,0,0,1,3.079,3.116" transform="translate(-54.068 -16.002)" fill="#ebb376"/>
        <path id="Path_4168" data-name="Path 4168" d="M380.458,102.876s.755-2.313-3.289-4.943-11.087-1.357-15.848,1.471.3,7.383,2.468,7.671l-.539-.806a16.2,16.2,0,0,0,6.919-.541l-1.341-.581s8.79-.795,11.631-2.27" transform="translate(-51.197 -13.748)" fill="#263238"/>
        <path id="Path_4169" data-name="Path 4169" d="M369.009,121.812a15.264,15.264,0,0,1,.929,2c.128-.024.255-.048.381-.079,1.719-.37,2.4-1.11,2.623-1.818a2.264,2.264,0,0,0,.054-1.072,2.195,2.195,0,0,0-.178-.588,8.277,8.277,0,0,1-3.224,1.423c-.356.094-.584.135-.584.135" transform="translate(-52.574 -17.133)" fill="#263238"/>
        <path id="Path_4170" data-name="Path 4170" d="M369.691,121.677l.289.582c1.619-.352,2.712-.818,3.114-1.418a2.193,2.193,0,0,0-.178-.587,8.287,8.287,0,0,1-3.224,1.424" transform="translate(-52.671 -17.133)" fill="#fff"/>
        <path id="Path_4171" data-name="Path 4171" d="M370.536,124.007c1.719-.37,2.4-1.11,2.623-1.818a5.665,5.665,0,0,0-1.828.79,2.114,2.114,0,0,0-.795,1.028" transform="translate(-52.792 -17.409)" fill="#a24e3f"/>
        <g id="Group_2378" data-name="Group 2378" transform="translate(335.679 121.521)" opacity="0.2" style="isolation: isolate">
          <g id="Group_2377" data-name="Group 2377">
            <g id="Group_2376" data-name="Group 2376" clip-path="url(#clip-path-29)">
              <path id="Path_4172" data-name="Path 4172" d="M400.372,171.733c-5.862-5.647-8.921-16.971-8.921-16.971.5-4.312,3.25-9.568,6.788-13.05l.663,7.738.783,9.281Z" transform="translate(-391.45 -141.711)"/>
            </g>
          </g>
        </g>
        <path id="Path_4173" data-name="Path 4173" d="M398.551,140.841c.974.894,1.777,1.686,2.631,2.544q1.257,1.271,2.463,2.58c1.61,1.749,3.143,3.576,4.62,5.47a62.118,62.118,0,0,1,4.153,5.995,41.726,41.726,0,0,1,3.377,6.816l.051.135a4.161,4.161,0,0,1-.318,3.581,9.174,9.174,0,0,1-2.122,2.419,12.425,12.425,0,0,1-2.155,1.387,21.1,21.1,0,0,1-3.992,1.515,46.427,46.427,0,0,1-7.423,1.331c-2.419.25-4.808.346-7.183.375q-1.783,0-3.558-.063l-1.777-.072-.893-.047c-.3,0-.591-.058-.9-.672a5.569,5.569,0,0,1-.163-4.731l.293-.679c.261-.6.545-.658.816-.651l.829-.045,1.664-.111q1.666-.125,3.323-.3c2.207-.2,4.4-.477,6.529-.82a38.7,38.7,0,0,0,6.059-1.393,12.942,12.942,0,0,0,2.39-1.037c.644-.353.96-.787.834-.676l-.266,3.717a44.554,44.554,0,0,0-6.724-10.221c-1.366-1.632-2.819-3.217-4.319-4.762q-1.122-1.16-2.284-2.282c-.759-.731-1.592-1.507-2.3-2.128l-.042-.036a4.792,4.792,0,0,1,6.3-7.22l.087.078" transform="translate(-54.839 -19.886)" fill="#263238"/>
        <path id="Path_4174" data-name="Path 4174" d="M397.123,135.676c4.1.572,15.177,17.948,15.177,17.948l-10.405,10.251-8.48-9.617s-3.069-7.616-1.875-12.719a7.479,7.479,0,0,1,5.584-5.863" transform="translate(-55.745 -19.33)" fill="#407bff"/>
        <path id="Path_4175" data-name="Path 4175" d="M379.65,183.781h-8.634l-1.148-14.158H380.8Z" transform="translate(-52.696 -24.167)" fill="#263238"/>
        <g id="Group_2381" data-name="Group 2381" transform="translate(317.172 145.456)" opacity="0.4" style="isolation: isolate">
          <g id="Group_2380" data-name="Group 2380">
            <g id="Group_2379" data-name="Group 2379" clip-path="url(#clip-path-30)">
              <path id="Path_4176" data-name="Path 4176" d="M379.65,183.781h-8.634l-1.148-14.158H380.8Z" transform="translate(-369.868 -169.623)" fill="#fff"/>
            </g>
          </g>
        </g>
        <g id="Group_2384" data-name="Group 2384" transform="translate(320.062 149.151)" opacity="0.6" style="isolation: isolate">
          <g id="Group_2383" data-name="Group 2383">
            <g id="Group_2382" data-name="Group 2382" clip-path="url(#clip-path-31)">
              <path id="Path_4177" data-name="Path 4177" d="M378.388,176.507a2.575,2.575,0,1,1-2.575-2.575,2.575,2.575,0,0,1,2.575,2.575" transform="translate(-373.239 -173.932)" fill="#fff"/>
            </g>
          </g>
        </g>
        <path id="Path_4178" data-name="Path 4178" d="M381.2,169.847h-11.89l1.148-1.287h9.592Z" transform="translate(-52.617 -24.015)" fill="#263238"/>
        <g id="Group_2387" data-name="Group 2387" transform="translate(316.692 144.545)" opacity="0.6" style="isolation: isolate">
          <g id="Group_2386" data-name="Group 2386">
            <g id="Group_2385" data-name="Group 2385" clip-path="url(#clip-path-32)">
              <path id="Path_4179" data-name="Path 4179" d="M381.2,169.847h-11.89l1.148-1.287h9.592Z" transform="translate(-369.309 -168.56)" fill="#fff"/>
            </g>
          </g>
        </g>
        <path id="Path_4180" data-name="Path 4180" d="M385.993,178.833l-4.475,2.555.4-7.417s4.081-1.983,4.825,1.012a4.378,4.378,0,0,1-.755,3.849" transform="translate(-54.356 -24.695)" fill="#ebb376"/>
        <path id="Path_4181" data-name="Path 4181" d="M375.876,181.326V175.14l5.242-1.061-.4,7.417Z" transform="translate(-53.552 -24.802)" fill="#ebb376"/>
      </g>
    </g>
    <g id="Group_2391" data-name="Group 2391">
      <g id="Group_2390" data-name="Group 2390" clip-path="url(#clip-path)">
        <path id="Path_4182" data-name="Path 4182" d="M183.393,127.645H160.281a7.948,7.948,0,0,0-7.948,7.948v9.591a7.948,7.948,0,0,0,7.948,7.948h3.893l.092,8.391,5.254-8.391h13.874a7.948,7.948,0,0,0,7.948-7.948v-9.591a7.948,7.948,0,0,0-7.948-7.948" transform="translate(-21.703 -18.186)" fill="#407bff"/>
        <path id="Path_4183" data-name="Path 4183" d="M164.042,141.6a1.605,1.605,0,1,1-1.605-1.605,1.605,1.605,0,0,1,1.605,1.605" transform="translate(-22.914 -19.945)" fill="#fff"/>
        <path id="Path_4184" data-name="Path 4184" d="M172.291,141.6a1.605,1.605,0,1,1-1.605-1.605,1.605,1.605,0,0,1,1.605,1.605" transform="translate(-24.089 -19.945)" fill="#fff"/>
        <path id="Path_4185" data-name="Path 4185" d="M180.541,141.6a1.605,1.605,0,1,1-1.605-1.605,1.605,1.605,0,0,1,1.605,1.605" transform="translate(-25.265 -19.945)" fill="#fff"/>
        <path id="Path_4186" data-name="Path 4186" d="M188.79,141.6a1.606,1.606,0,1,1-1.606-1.605,1.606,1.606,0,0,1,1.606,1.605" transform="translate(-26.44 -19.945)" fill="#fff"/>
      </g>
    </g>
    <path id="Path_4187" data-name="Path 4187" d="M92.761,298.2l-9.913,54.944h6.3L99.061,298.2Z" transform="translate(-11.804 -42.485)" fill="#263238"/>
    <path id="Path_4188" data-name="Path 4188" d="M234.255,298.2l-9.913,54.944h6.3l9.913-54.944Z" transform="translate(-31.963 -42.485)" fill="#263238"/>
    <g id="Group_2399" data-name="Group 2399">
      <g id="Group_2398" data-name="Group 2398" clip-path="url(#clip-path)">
        <g id="Group_2394" data-name="Group 2394" transform="translate(71.044 255.71)" opacity="0.3">
          <g id="Group_2393" data-name="Group 2393">
            <g id="Group_2392" data-name="Group 2392" clip-path="url(#clip-path-35)">
              <path id="Path_4189" data-name="Path 4189" d="M92.761,298.2l-9.913,54.944h6.3L99.061,298.2Z" transform="translate(-82.847 -298.195)" fill="#fff"/>
            </g>
          </g>
        </g>
        <g id="Group_2397" data-name="Group 2397" transform="translate(192.378 255.71)" opacity="0.3">
          <g id="Group_2396" data-name="Group 2396">
            <g id="Group_2395" data-name="Group 2395" clip-path="url(#clip-path-35)">
              <path id="Path_4190" data-name="Path 4190" d="M234.255,298.2l-9.913,54.944h6.3l9.913-54.944Z" transform="translate(-224.341 -298.195)" fill="#fff"/>
            </g>
          </g>
        </g>
      </g>
    </g>
    <rect id="Rectangle_1071" data-name="Rectangle 1071" width="179.497" height="6.706" transform="translate(76.604 281.484)" fill="#263238"/>
    <g id="Group_2404" data-name="Group 2404">
      <g id="Group_2403" data-name="Group 2403" clip-path="url(#clip-path)">
        <g id="Group_2402" data-name="Group 2402" transform="translate(76.604 281.484)" opacity="0.5">
          <g id="Group_2401" data-name="Group 2401">
            <g id="Group_2400" data-name="Group 2400" clip-path="url(#clip-path-38)">
              <rect id="Rectangle_1072" data-name="Rectangle 1072" width="179.497" height="6.706" transform="translate(0 0)" fill="#fff"/>
            </g>
          </g>
        </g>
      </g>
    </g>
    <path id="Path_4191" data-name="Path 4191" d="M146.383,298.2l9.913,54.944h6.3L152.683,298.2Z" transform="translate(-20.856 -42.485)" fill="#263238"/>
    <path id="Path_4192" data-name="Path 4192" d="M287.877,298.2l9.913,54.944h6.3L294.177,298.2Z" transform="translate(-41.015 -42.485)" fill="#263238"/>
    <g id="Group_2412" data-name="Group 2412">
      <g id="Group_2411" data-name="Group 2411" clip-path="url(#clip-path)">
        <g id="Group_2407" data-name="Group 2407" transform="translate(125.527 255.71)" opacity="0.3">
          <g id="Group_2406" data-name="Group 2406">
            <g id="Group_2405" data-name="Group 2405" clip-path="url(#clip-path-40)">
              <path id="Path_4193" data-name="Path 4193" d="M146.383,298.2l9.913,54.944h6.3L152.683,298.2Z" transform="translate(-146.383 -298.195)" fill="#fff"/>
            </g>
          </g>
        </g>
        <g id="Group_2410" data-name="Group 2410" transform="translate(246.862 255.71)" opacity="0.3">
          <g id="Group_2409" data-name="Group 2409">
            <g id="Group_2408" data-name="Group 2408" clip-path="url(#clip-path-40)">
              <path id="Path_4194" data-name="Path 4194" d="M287.877,298.2l9.913,54.944h6.3L294.177,298.2Z" transform="translate(-287.877 -298.195)" fill="#fff"/>
            </g>
          </g>
        </g>
      </g>
    </g>
    <path id="Path_4195" data-name="Path 4195" d="M229.029,294.229h-6.269l-10.494-58.34h6.269Z" transform="translate(-30.242 -33.608)" fill="#263238"/>
    <g id="Group_2417" data-name="Group 2417">
      <g id="Group_2416" data-name="Group 2416" clip-path="url(#clip-path)">
        <g id="Group_2415" data-name="Group 2415" transform="translate(182.023 202.28)" opacity="0.3">
          <g id="Group_2414" data-name="Group 2414">
            <g id="Group_2413" data-name="Group 2413" clip-path="url(#clip-path-43)">
              <path id="Path_4196" data-name="Path 4196" d="M229.029,294.229h-6.269l-10.494-58.34h6.269Z" transform="translate(-212.265 -235.888)" fill="#fff"/>
            </g>
          </g>
        </g>
      </g>
    </g>
    <path id="Path_4197" data-name="Path 4197" d="M105.856,291.229H99.587l-10.494-58.34h6.269Z" transform="translate(-12.693 -33.18)" fill="#263238"/>
    <path id="Path_4198" data-name="Path 4198" d="M168.442,291.229h-6.269l-10.494-58.34h6.269Z" transform="translate(-21.61 -33.18)" fill="#263238"/>
    <g id="Group_2425" data-name="Group 2425">
      <g id="Group_2424" data-name="Group 2424" clip-path="url(#clip-path)">
        <g id="Group_2420" data-name="Group 2420" transform="translate(76.399 199.708)" opacity="0.3">
          <g id="Group_2419" data-name="Group 2419">
            <g id="Group_2418" data-name="Group 2418" clip-path="url(#clip-path-43)">
              <path id="Path_4199" data-name="Path 4199" d="M105.856,291.229H99.587l-10.494-58.34h6.269Z" transform="translate(-89.092 -232.888)" fill="#fff"/>
            </g>
          </g>
        </g>
        <g id="Group_2423" data-name="Group 2423" transform="translate(130.069 199.708)" opacity="0.3">
          <g id="Group_2422" data-name="Group 2422">
            <g id="Group_2421" data-name="Group 2421" clip-path="url(#clip-path-43)">
              <path id="Path_4200" data-name="Path 4200" d="M168.442,291.229h-6.269l-10.494-58.34h6.269Z" transform="translate(-151.679 -232.888)" fill="#fff"/>
            </g>
          </g>
        </g>
      </g>
    </g>
    <path id="Path_4201" data-name="Path 4201" d="M217.61,238.721H70.12L68.155,227.8h147.49Z" transform="translate(-9.71 -32.456)" fill="#263238"/>
    <path id="Path_4202" data-name="Path 4202" d="M221.753,261.753H74.263L72.3,250.834h147.49Z" transform="translate(-10.301 -35.737)" fill="#263238"/>
    <path id="Path_4203" data-name="Path 4203" d="M225.9,284.786H78.406l-1.965-10.919h147.49Z" transform="translate(-10.891 -39.019)" fill="#263238"/>
    <rect id="Rectangle_1083" data-name="Rectangle 1083" width="192.673" height="7.938" transform="translate(71.718 253.558)" fill="#263238"/>
    <g id="Group_2487" data-name="Group 2487">
      <g id="Group_2486" data-name="Group 2486" clip-path="url(#clip-path)">
        <g id="Group_2428" data-name="Group 2428" transform="translate(58.445 195.346)" opacity="0.5">
          <g id="Group_2427" data-name="Group 2427">
            <g id="Group_2426" data-name="Group 2426" clip-path="url(#clip-path-48)">
              <path id="Path_4204" data-name="Path 4204" d="M217.61,238.721H70.12L68.155,227.8h147.49Z" transform="translate(-68.155 -227.802)" fill="#fff"/>
            </g>
          </g>
        </g>
        <g id="Group_2431" data-name="Group 2431" transform="translate(61.998 215.097)" opacity="0.5">
          <g id="Group_2430" data-name="Group 2430">
            <g id="Group_2429" data-name="Group 2429" clip-path="url(#clip-path-48)">
              <path id="Path_4205" data-name="Path 4205" d="M221.753,261.753H74.263L72.3,250.834h147.49Z" transform="translate(-72.299 -250.834)" fill="#fff"/>
            </g>
          </g>
        </g>
        <g id="Group_2434" data-name="Group 2434" transform="translate(65.551 234.848)" opacity="0.5">
          <g id="Group_2433" data-name="Group 2433">
            <g id="Group_2432" data-name="Group 2432" clip-path="url(#clip-path-50)">
              <path id="Path_4206" data-name="Path 4206" d="M225.9,284.786H78.406l-1.965-10.919h147.49Z" transform="translate(-76.441 -273.867)" fill="#fff"/>
            </g>
          </g>
        </g>
        <g id="Group_2437" data-name="Group 2437" transform="translate(71.718 253.558)" opacity="0.5">
          <g id="Group_2436" data-name="Group 2436">
            <g id="Group_2435" data-name="Group 2435" clip-path="url(#clip-path-51)">
              <rect id="Rectangle_1087" data-name="Rectangle 1087" width="192.673" height="7.938" transform="translate(0 -0.001)" fill="#fff"/>
            </g>
          </g>
        </g>
        <g id="Group_2440" data-name="Group 2440" transform="translate(123.235 253.558)" opacity="0.2">
          <g id="Group_2439" data-name="Group 2439">
            <g id="Group_2438" data-name="Group 2438" clip-path="url(#clip-path-52)">
              <rect id="Rectangle_1089" data-name="Rectangle 1089" width="141.156" height="7.938" transform="translate(0.001 -0.001)" fill="#fff"/>
            </g>
          </g>
        </g>
        <path id="Path_4207" data-name="Path 4207" d="M117.178,265.918v-2.553h-4.465v2.553a2.436,2.436,0,0,1-.8,1.8,2.436,2.436,0,0,0-.8,1.8v20.465a1.291,1.291,0,0,0,1.291,1.291h5.079a1.291,1.291,0,0,0,1.291-1.291V269.525a2.435,2.435,0,0,0-.8-1.8,2.433,2.433,0,0,1-.8-1.8" transform="translate(-15.831 -37.523)" fill="#407bff"/>
        <g id="Group_2443" data-name="Group 2443" transform="translate(95.283 225.842)" opacity="0.6" style="isolation: isolate">
          <g id="Group_2442" data-name="Group 2442">
            <g id="Group_2441" data-name="Group 2441" clip-path="url(#clip-path-53)">
              <path id="Path_4208" data-name="Path 4208" d="M118.775,275.948v-6.425a2.432,2.432,0,0,0-.8-1.8,2.436,2.436,0,0,1-.8-1.8v-2.553h-4.466v2.553a2.436,2.436,0,0,1-.8,1.8,2.432,2.432,0,0,0-.8,1.8v6.425Z" transform="translate(-111.114 -263.365)" fill="#fff"/>
            </g>
          </g>
        </g>
        <g id="Group_2446" data-name="Group 2446" transform="translate(95.283 246.454)" opacity="0.6" style="isolation: isolate">
          <g id="Group_2445" data-name="Group 2445">
            <g id="Group_2444" data-name="Group 2444" clip-path="url(#clip-path-54)">
              <path id="Path_4209" data-name="Path 4209" d="M111.114,287.4v6.013a1.291,1.291,0,0,0,1.291,1.291h5.079a1.291,1.291,0,0,0,1.291-1.291V287.4Z" transform="translate(-111.114 -287.401)" fill="#fff"/>
            </g>
          </g>
        </g>
        <path id="Path_4210" data-name="Path 4210" d="M117.493,264.555h-4.7a.285.285,0,0,1-.286-.286v-1.436a.285.285,0,0,1,.286-.285h4.7a.285.285,0,0,1,.286.285v1.436a.285.285,0,0,1-.286.286" transform="translate(-16.029 -37.406)" fill="#407bff"/>
        <path id="Path_4211" data-name="Path 4211" d="M166.848,215.569c3.091,2.746,6.3,5.539,9.493,8.163,1.6,1.312,3.222,2.584,4.827,3.742.8.574,1.609,1.115,2.373,1.564.378.226.747.431,1.064.583.3.151.61.251.561.255a2.856,2.856,0,0,0-.623.085,2.912,2.912,0,0,0-.383.136l-.093.047.015-.007.029-.014c.045-.023.068-.019.135-.057a8.807,8.807,0,0,0,.971-.617c.731-.512,1.516-1.135,2.286-1.783,1.542-1.31,3.109-2.708,4.645-4.142l9.3-8.707,3.145,2.669c-2.457,3.6-5.055,7.045-7.856,10.4-1.416,1.666-2.845,3.33-4.436,4.938-.8.809-1.611,1.613-2.565,2.421a16.258,16.258,0,0,1-1.653,1.231c-.158.105-.377.224-.567.331l-.147.081-.074.04-.188.082a4.886,4.886,0,0,1-.762.262,5.9,5.9,0,0,1-2.218.12,10.433,10.433,0,0,1-2.5-.67,19.928,19.928,0,0,1-1.821-.823c-1.116-.577-2.119-1.182-3.094-1.8-1.946-1.233-3.741-2.548-5.5-3.888-3.513-2.7-6.791-5.506-10.02-8.534Z" transform="translate(-22.966 -30.606)" fill="#dc897c"/>
        <path id="Path_4212" data-name="Path 4212" d="M165.544,213.485c5.149,1.368,16.844,13.005,16.844,13.005l-6.81,8.315-10.726-7.439Z" transform="translate(-23.487 -30.416)" fill="#407bff"/>
        <g id="Group_2449" data-name="Group 2449" transform="translate(141.362 183.072)" opacity="0.7">
          <g id="Group_2448" data-name="Group 2448">
            <g id="Group_2447" data-name="Group 2447" clip-path="url(#clip-path-55)">
              <path id="Path_4213" data-name="Path 4213" d="M182.391,226.493l-6.815,8.309-3.958-2.744-4.071-2.829-2.7-1.867.69-13.873c5.154,1.363,16.851,13,16.851,13" transform="translate(-164.849 -213.489)" fill="#fff"/>
            </g>
          </g>
        </g>
        <g id="Group_2452" data-name="Group 2452" transform="translate(143.438 193.725)" opacity="0.1">
          <g id="Group_2451" data-name="Group 2451">
            <g id="Group_2450" data-name="Group 2450" clip-path="url(#clip-path-56)">
              <path id="Path_4214" data-name="Path 4214" d="M171.962,233.828,167.892,231a15.394,15.394,0,0,1-.587-5.088s3.229,2.287,4.658,7.917" transform="translate(-167.27 -225.911)"/>
            </g>
          </g>
        </g>
        <path id="Path_4215" data-name="Path 4215" d="M209.751,217.574l8.01-1.415-2.339-6.716s-5.739.2-7.3,4.674Z" transform="translate(-29.652 -29.84)" fill="#dc897c"/>
        <path id="Path_4216" data-name="Path 4216" d="M223.536,212.354l-2.942-4.588-3.959,1.438,2.339,6.716Z" transform="translate(-30.865 -29.601)" fill="#dc897c"/>
        <path id="Path_4217" data-name="Path 4217" d="M160.039,213.179s7.171,13.327,5.257,45.969l-30.208,4.2c-.853-4.608-1.086-27.635-8.6-48.862a71.129,71.129,0,0,1,18.095-2.686c11.406-.361,15.454,1.376,15.454,1.376" transform="translate(-18.021 -30.169)" fill="#407bff"/>
        <g id="Group_2455" data-name="Group 2455" transform="translate(108.473 181.585)" opacity="0.7">
          <g id="Group_2454" data-name="Group 2454">
            <g id="Group_2453" data-name="Group 2453" clip-path="url(#clip-path-57)">
              <path id="Path_4218" data-name="Path 4218" d="M165.294,259.146c-9.1,1.27-25.776,3.585-30.2,4.2-.616-3.314-.915-16.179-3.837-31.042-.412-2.146-.888-4.331-1.429-6.534v-.009a116.152,116.152,0,0,0-3.333-11.269,71.035,71.035,0,0,1,18.093-2.688c11.409-.364,15.451,1.372,15.451,1.372s7.17,13.332,5.256,45.969" transform="translate(-126.495 -211.754)" fill="#fff"/>
            </g>
          </g>
        </g>
        <path id="Path_4219" data-name="Path 4219" d="M154.142,207.7s-1.718,4.709-2.645,7.39c-3.7-2.671-6.088-4.736-10.242-5.991,2.6-3.088.963-10.6-.3-14.658l1.753,1.2,6.9,4.7a8.549,8.549,0,0,0,.394,4.88h.009c.635,1.256,1.873,2.194,4.136,2.48" transform="translate(-20.082 -27.703)" fill="#dc897c"/>
        <g id="Group_2458" data-name="Group 2458" transform="translate(122.619 167.941)" opacity="0.2">
          <g id="Group_2457" data-name="Group 2457">
            <g id="Group_2456" data-name="Group 2456" clip-path="url(#clip-path-58)">
              <path id="Path_4220" data-name="Path 4220" d="M150.288,205.419c-2.985-.875-6.347-3.427-6.932-6.178a14.587,14.587,0,0,1-.358-3.4l6.9,4.7a8.549,8.549,0,0,0,.394,4.88" transform="translate(-142.991 -195.843)"/>
            </g>
          </g>
        </g>
        <path id="Path_4221" data-name="Path 4221" d="M136.093,211.727l2.74-2.931,7.987,2.183,3.753,5.031.936-5.4,1.662-1.708,3.216,1.694L156.125,214l-2.308-.953-2.417,4.6-6.269-3.157-1.581,1.723Z" transform="translate(-19.39 -29.748)" fill="#407bff"/>
        <g id="Group_2461" data-name="Group 2461" transform="translate(116.703 179.049)" opacity="0.6">
          <g id="Group_2460" data-name="Group 2460">
            <g id="Group_2459" data-name="Group 2459" clip-path="url(#clip-path-59)">
              <path id="Path_4222" data-name="Path 4222" d="M136.093,211.727l2.74-2.931,7.987,2.183,3.753,5.031.936-5.4,1.662-1.708,3.216,1.694L156.125,214l-2.308-.953-2.417,4.6-6.269-3.157-1.581,1.723Z" transform="translate(-136.093 -208.797)" fill="#fff"/>
            </g>
          </g>
        </g>
        <g id="Group_2464" data-name="Group 2464" transform="translate(124.16 183.022)" opacity="0.1">
          <g id="Group_2463" data-name="Group 2463">
            <g id="Group_2462" data-name="Group 2462" clip-path="url(#clip-path-60)">
              <path id="Path_4223" data-name="Path 4223" d="M152.639,218.3l-5.66-4.874-2.19,3.439,1.581-1.723Z" transform="translate(-144.789 -213.43)"/>
            </g>
          </g>
        </g>
        <g id="Group_2467" data-name="Group 2467" transform="translate(132.01 182.266)" opacity="0.1">
          <g id="Group_2466" data-name="Group 2466">
            <g id="Group_2465" data-name="Group 2465" clip-path="url(#clip-path-61)">
              <path id="Path_4224" data-name="Path 4224" d="M153.943,218.178l1.222-5.63,3.5,1.986-2.308-.953Z" transform="translate(-153.943 -212.549)"/>
            </g>
          </g>
        </g>
        <path id="Path_4225" data-name="Path 4225" d="M151.633,178.119c2.979.931,5.522,8.691,2.137,10.84s-7.779-12.6-2.137-10.84" transform="translate(-21.218 -25.356)" fill="#263238"/>
        <path id="Path_4226" data-name="Path 4226" d="M138.211,188.323c1.892,5.421,2.721,8.68,6.321,10.819a7.463,7.463,0,0,0,11.334-6.8c-.2-5.237-3.26-13.223-9.311-14.084a7.552,7.552,0,0,0-8.344,10.061" transform="translate(-19.627 -25.385)" fill="#dc897c"/>
        <path id="Path_4227" data-name="Path 4227" d="M141.335,180.5l-.957-4.828a6.493,6.493,0,0,1-3.875,1.014c-5.925-.593-9.842,3.674-6.744,6.546-2.557,1.533-.569,5.053,1.56,7.185,2.957,2.962,5.847,4.162,7.507,2.427,1.553-1.032,1.068-6.81.237-8.866-1.251-3.1,2.273-3.478,2.273-3.478" transform="translate(-18.315 -25.028)" fill="#263238"/>
        <path id="Path_4228" data-name="Path 4228" d="M137.45,196.328a6.161,6.161,0,0,0,3.791,1.67c1.792.085,1.989-1.591.9-3.053-.976-1.316-3.085-2.947-4.6-2.341-1.5.6-1.4,2.495-.093,3.723" transform="translate(-19.44 -27.422)" fill="#dc897c"/>
        <path id="Path_4229" data-name="Path 4229" d="M152.748,188.667a17.411,17.411,0,0,0,3.239,3.3,2.646,2.646,0,0,1-2.046.93Z" transform="translate(-21.763 -26.88)" fill="#de5753"/>
        <path id="Path_4230" data-name="Path 4230" d="M145.812,187.273a.278.278,0,0,1-.117-.07.274.274,0,0,1,0-.387,2.62,2.62,0,0,1,2.352-.748.268.268,0,0,1,.2.329.273.273,0,0,1-.329.2,2.077,2.077,0,0,0-1.84.607.273.273,0,0,1-.269.067" transform="translate(-20.746 -26.503)" fill="#263238"/>
        <path id="Path_4231" data-name="Path 4231" d="M156.374,184.253a.272.272,0,0,1-.244.075,2.288,2.288,0,0,0-1.961.476.273.273,0,0,1-.385-.388h0a2.82,2.82,0,0,1,2.447-.623.274.274,0,0,1,.217.321.268.268,0,0,1-.075.141" transform="translate(-21.899 -26.177)" fill="#263238"/>
        <path id="Path_4232" data-name="Path 4232" d="M137.517,176.441s3.5-8.1,11.144-7.038a5.846,5.846,0,0,0-1.993,1.015s6.536-1.035,8.911,3.438l-1.311-.648s1.946,3.708.163,6.37l-.458-1.243s-2.455,3.531-6.54,2.867l1.337-.8s-6.934.276-8.775-1.366a16.212,16.212,0,0,1-2.477-2.591" transform="translate(-19.593 -24.122)" fill="#263238"/>
        <path id="Path_4233" data-name="Path 4233" d="M148.066,189.9c.159.479.542.781.855.673s.437-.583.278-1.062-.543-.78-.855-.673-.437.583-.278,1.062" transform="translate(-21.086 -26.902)" fill="#263238"/>
        <path id="Path_4234" data-name="Path 4234" d="M154.371,187.734c.16.479.542.78.855.673s.437-.583.278-1.062-.543-.78-.855-.673-.437.583-.278,1.062" transform="translate(-21.984 -26.593)" fill="#263238"/>
        <path id="Path_4235" data-name="Path 4235" d="M153.062,195.8a16.289,16.289,0,0,0-.642,2.272c-.14,0-.279-.007-.417-.018-1.883-.1-2.725-.767-3.086-1.478a2.427,2.427,0,0,1-.24-1.126,2.36,2.36,0,0,1,.088-.653,8.888,8.888,0,0,0,3.656.958c.393.039.641.044.641.044" transform="translate(-21.182 -27.754)" fill="#263238"/>
        <path id="Path_4236" data-name="Path 4236" d="M152.421,195.756l-.207.665c-1.774-.1-3.01-.4-3.537-.971a2.339,2.339,0,0,1,.089-.653,8.881,8.881,0,0,0,3.655.958" transform="translate(-21.183 -27.754)" fill="#fff"/>
        <path id="Path_4237" data-name="Path 4237" d="M152.043,198.35c-1.883-.1-2.725-.767-3.086-1.478a6.092,6.092,0,0,1,2.07.524,2.277,2.277,0,0,1,1.016.954" transform="translate(-21.222 -28.049)" fill="#a24e3f"/>
        <path id="Path_4238" data-name="Path 4238" d="M238.856,345.388l5.363,11.642,5.723-4.151-4.892-10.6Z" transform="translate(-34.031 -48.766)" fill="#dc897c"/>
        <g id="Group_2470" data-name="Group 2470" transform="translate(204.824 293.511)" opacity="0.2" style="isolation: isolate">
          <g id="Group_2469" data-name="Group 2469">
            <g id="Group_2468" data-name="Group 2468" clip-path="url(#clip-path-62)">
              <path id="Path_4239" data-name="Path 4239" d="M238.855,345.388l2.338,5.087,6.7-2.037-2.842-6.162Z" transform="translate(-238.855 -342.277)"/>
            </g>
          </g>
        </g>
        <path id="Path_4240" data-name="Path 4240" d="M258.688,313.931l8.554,9.545,4.247-5.653-7.8-8.689Z" transform="translate(-36.856 -44.043)" fill="#dc897c"/>
        <g id="Group_2473" data-name="Group 2473" transform="translate(221.831 265.089)" opacity="0.2" style="isolation: isolate">
          <g id="Group_2472" data-name="Group 2472">
            <g id="Group_2471" data-name="Group 2471" clip-path="url(#clip-path-63)">
              <path id="Path_4241" data-name="Path 4241" d="M258.687,313.931l3.733,4.173,5.8-3.921-4.531-5.051Z" transform="translate(-258.687 -309.133)"/>
            </g>
          </g>
        </g>
        <path id="Path_4242" data-name="Path 4242" d="M252.172,353.229c.014.015.015.039.033.05a.105.105,0,0,0,.063-.008,9,9,0,0,0,1.935.3,1.967,1.967,0,0,0,1.391-.332.916.916,0,0,0,.232-.954.65.65,0,0,0-.383-.5,2.981,2.981,0,0,0-2.012.457,2.685,2.685,0,0,0,.683-1.715.646.646,0,0,0-.6-.537.844.844,0,0,0-.707.214c-.743.7-.57,2.777-.569,2.89l.126-.03v0l-.127.039c0,.008-.117.044-.114.051a.145.145,0,0,0,.045.069m.43-.533-.147.09a3.719,3.719,0,0,1,.531-2.277.5.5,0,0,1,.37-.148l.084.008c.244.034.306.156.319.256A3.478,3.478,0,0,1,252.6,352.7m.121.36c.868-.525,2.106-1.115,2.584-.916a.312.312,0,0,1,.189.244.634.634,0,0,1-.136.609c-.356.331-1.324.351-2.636.063" transform="translate(-35.921 -49.864)" fill="#407bff"/>
        <path id="Path_4243" data-name="Path 4243" d="M249.974,352.611l-8.268-.182a.522.522,0,0,0-.557.486v.009l-.547,6.539a1.3,1.3,0,0,0,1.258,1.33c2.886.016,4.264-.119,7.9-.068a68.391,68.391,0,0,0,9.7-.082c3.062-.421,2.563-3.437,1.23-3.528-3.163-.232-7.425-2.377-9.466-4.053a2.061,2.061,0,0,0-1.258-.452" transform="translate(-34.279 -50.212)" fill="#263238"/>
        <path id="Path_4244" data-name="Path 4244" d="M273.02,317.049c.02.007.034.026.055.025a.108.108,0,0,0,.05-.04,9.054,9.054,0,0,0,1.8-.776,1.975,1.975,0,0,0,1-1.024.917.917,0,0,0-.313-.93.648.648,0,0,0-.59-.215c-.511.089-1.047.787-1.458,1.46a2.682,2.682,0,0,0-.337-1.815.648.648,0,0,0-.792-.136.845.845,0,0,0-.484.558c-.258.986,1,2.653,1.061,2.748l.09-.093,0,0-.087.1c.005.006-.075.1-.069.1a.143.143,0,0,0,.075.033m.08-.679c-.029.057-.053.106-.077.154a3.717,3.717,0,0,1-.766-2.208.5.5,0,0,1,.233-.322l.075-.039c.225-.1.342-.032.406.046a3.476,3.476,0,0,1,.129,2.368m.295.24c.453-.907,1.185-2.067,1.7-2.153a.31.31,0,0,1,.29.106.633.633,0,0,1,.21.587c-.124.47-.933,1-2.2,1.46" transform="translate(-38.74 -44.668)" fill="#407bff"/>
        <path id="Path_4245" data-name="Path 4245" d="M270.831,316.693l-7.089,4.258a.523.523,0,0,0-.211.708l0,.008,3.027,5.822a1.3,1.3,0,0,0,1.773.454c2.45-1.526,3.542-2.377,6.648-4.276a68.211,68.211,0,0,0,8.164-5.248c2.365-1.99.334-4.274-.843-3.64-2.8,1.492-7.547,1.953-10.168,1.625a2.062,2.062,0,0,0-1.305.289" transform="translate(-37.537 -44.832)" fill="#263238"/>
        <g id="Group_2476" data-name="Group 2476" transform="translate(111.805 190.149)" opacity="0.1">
          <g id="Group_2475" data-name="Group 2475">
            <g id="Group_2474" data-name="Group 2474" clip-path="url(#clip-path-64)">
              <path id="Path_4246" data-name="Path 4246" d="M131.81,233.728c-.411-2.147-.887-4.331-1.429-6.535v-.009c.355-2.912.756-5.443.756-5.443s2.334,7.236.672,11.987" transform="translate(-130.381 -221.741)"/>
            </g>
          </g>
        </g>
        <path id="Path_4247" data-name="Path 4247" d="M126.1,224.292c-4.186.754-8.484,1.575-12.63,2.5-2.073.467-4.129.971-6.064,1.549-.959.29-1.9.615-2.691.946a9.274,9.274,0,0,0-.989.467,1.427,1.427,0,0,1-.2.111,2.483,2.483,0,0,0,.28-.449,3.638,3.638,0,0,0,.136-.351,1.748,1.748,0,0,0,.055-.22l.028-.143a1.866,1.866,0,0,0,.008-.46c-.036-.244-.069-.286-.079-.286a1.909,1.909,0,0,0,.3.6,13.942,13.942,0,0,0,1.687,2.031,57.455,57.455,0,0,0,4.6,4.151c3.288,2.7,6.8,5.342,10.278,7.912l-2.05,3.579a96.982,96.982,0,0,1-11.915-6.4,51.674,51.674,0,0,1-5.684-4.125,21.092,21.092,0,0,1-2.786-2.815,9.276,9.276,0,0,1-1.351-2.249,6.248,6.248,0,0,1-.465-1.884,5.377,5.377,0,0,1,.045-1.281c.018-.117.033-.22.062-.347s.073-.279.117-.416a4.643,4.643,0,0,1,.3-.73A6.264,6.264,0,0,1,98.4,224.25a9.642,9.642,0,0,1,1.109-.89,15.782,15.782,0,0,1,1.906-1.115,32.35,32.35,0,0,1,3.458-1.453c2.243-.817,4.445-1.451,6.65-2.025a132.311,132.311,0,0,1,13.268-2.7Z" transform="translate(-13.756 -30.784)" fill="#dc897c"/>
        <path id="Path_4248" data-name="Path 4248" d="M124.08,247.063l3.769,7.208-6.747,2.247s-3.343-4.669-.755-8.635Z" transform="translate(-17.006 -35.2)" fill="#dc897c"/>
        <path id="Path_4249" data-name="Path 4249" d="M128.1,261.259l-5.431.47-1.277-4.013,6.747-2.247Z" transform="translate(-17.295 -36.398)" fill="#dc897c"/>
        <path id="Path_4250" data-name="Path 4250" d="M123.737,214.91s-11.794,2.894-16.561,5.08l4.29,9.014,16.066-.886s1.788-6.18.978-10.311-4.773-2.9-4.773-2.9" transform="translate(-15.27 -30.594)" fill="#407bff"/>
        <g id="Group_2479" data-name="Group 2479" transform="translate(91.906 184.144)" opacity="0.7">
          <g id="Group_2478" data-name="Group 2478">
            <g id="Group_2477" data-name="Group 2477" clip-path="url(#clip-path-65)">
              <path id="Path_4251" data-name="Path 4251" d="M123.737,214.91s-11.794,2.894-16.561,5.08l4.29,9.014,16.066-.886s1.788-6.18.978-10.311-4.773-2.9-4.773-2.9" transform="translate(-107.176 -214.738)" fill="#fff"/>
            </g>
          </g>
        </g>
        <path id="Path_4252" data-name="Path 4252" d="M251.063,305.816l-9.261,6.14-17.339-14.295-.017-.009L199.5,277.089s-27.99,15.8-40.6,16.036c-12.468.232-19.14-3.91-21.352-14.732l29.407-14,2.772,2.34s29.366-6.825,35.454-6.962,45.878,46.049,45.878,46.049" transform="translate(-19.598 -37.01)" fill="#407bff"/>
        <g id="Group_2482" data-name="Group 2482" transform="translate(179.902 237.652)" opacity="0.2" style="isolation: isolate">
          <g id="Group_2481" data-name="Group 2481">
            <g id="Group_2480" data-name="Group 2480" clip-path="url(#clip-path-66)">
              <path id="Path_4253" data-name="Path 4253" d="M234.755,300.136l-.017-.009-24.945-20.563s3.447-2.324,6.449-2.427,18.514,23,18.514,23" transform="translate(-209.792 -277.137)"/>
            </g>
          </g>
        </g>
        <path id="Path_4254" data-name="Path 4254" d="M233.172,336.04l-10.8,2.607-27.844-47.215s-12.468,1.784-24.731,2.29c-7.246.292-14.432.137-18.9-1.1a28.834,28.834,0,0,1-2.941-.978c-9.407-3.722-11.062-11.045-11.448-21.327l30.3-5.162-.114,6.311s9.321,1.029,18.968,2.281c5.66.737,11.422,1.552,15.478,2.29a37.306,37.306,0,0,1,4.656,1.046c5.771,1.955,27.372,58.955,27.372,58.955" transform="translate(-19.449 -37.778)" fill="#407bff"/>
        <g id="Group_2485" data-name="Group 2485" transform="translate(140.885 238.491)" opacity="0.2" style="isolation: isolate">
          <g id="Group_2484" data-name="Group 2484">
            <g id="Group_2483" data-name="Group 2483" clip-path="url(#clip-path-67)">
              <path id="Path_4255" data-name="Path 4255" d="M206.336,278.115c-9.493,9.107-24.31,15.231-32.577,17.452-3.25.129-6.483.172-9.467.069,13-1.338,41.22-17.058,42.044-17.521" transform="translate(-164.292 -278.115)"/>
            </g>
          </g>
        </g>
      </g>
    </g>
  </g>
</svg>
