<?xml version="1.0" encoding="utf-8"?>
<!-- Generator: Adobe Illustrator 25.0.1, SVG Export Plug-In . SVG Version: 6.00 Build 0)  -->
<svg version="1.1" id="Layer_1" xmlns="http://www.w3.org/2000/svg" xmlns:xlink="http://www.w3.org/1999/xlink" x="0px" y="0px"
	 viewBox="0 0 109.7 83.1" style="enable-background:new 0 0 109.7 83.1;" xml:space="preserve">
<style type="text/css">
	.st0{fill-rule:evenodd;clip-rule:evenodd;fill:#FFEBD6;stroke:#000000;stroke-width:0.5667;stroke-miterlimit:10;}
	.st1{font-family:'Cambria';}
	.st2{font-size:17.9929px;}
	.st3{font-family:'MyriadPro-Regular';}
	.st4{font-size:23.9907px;}
	.st5{fill:none;stroke:#1E5B80;stroke-width:1.4168;stroke-miterlimit:10;}
</style>
<g id="Layer_x0020_1">
	<path class="st0" d="M40,3.7l18.1,21.6c-5,4.8-11.4,7.4-18.1,7.4c-2.6,0-5.4-0.4-7.9-1.3L40,3.7z"/>
	<path class="st0" d="M16.6,82.3l8.6-27.5c11.1,3.9,18.5,15,18.5,27.5H16.6z"/>
	<text transform="matrix(1 0 0 1 26.0654 75.915)" class="st1 st2">γ</text>
	<g id="_291069368">
		<text transform="matrix(1 0 0 1 -0.874 45.3345)" class="st3 st4">a</text>
		<g>
			<path d="M8,78.7L6.8,72l5.8,1.7L8,78.7z M30,5.7L9.9,73.1L9.5,73L29.4,5.6L30,5.7z M31.5,0l1.2,6.8l-6-1.7L31.5,0z"/>
		</g>
	</g>
	<text transform="matrix(1 0 0 1 37.7153 25.6758)" class="st1 st2">β</text>
	<polygon class="st5" points="108,82.5 16.6,82.5 40,3.7 	"/>
</g>
</svg>
