<?xml version="1.0" encoding="utf-8"?>
<!-- Generator: Adobe Illustrator 25.0.1, SVG Export Plug-In . SVG Version: 6.00 Build 0)  -->
<svg version="1.1" id="Layer_1" xmlns="http://www.w3.org/2000/svg" xmlns:xlink="http://www.w3.org/1999/xlink" x="0px" y="0px"
	 viewBox="0 0 109.7 111.6" style="enable-background:new 0 0 109.7 111.6;" xml:space="preserve">
<style type="text/css">
	.st0{fill-rule:evenodd;clip-rule:evenodd;fill:#FFEBD6;stroke:#000000;stroke-width:0.5666;stroke-miterlimit:10;}
	.st1{fill:none;stroke:#1E5B80;stroke-width:1.4164;stroke-miterlimit:10;}
	.st2{font-family:'Cambria';}
	.st3{font-size:17.9888px;}
	.st4{font-family:'MyriadPro-Regular';}
	.st5{font-size:23.9853px;}
</style>
<g id="Layer_x0020_1">
	<path class="st0" d="M16.9,81.9l8.4-27.6c11.1,3.9,18.8,15,18.8,27.6H16.9z"/>
	<polygon class="st1" points="108,82.3 16.6,82.3 40,3.6 	"/>
	<text transform="matrix(1 0 0 1 26.0107 75.8281)" class="st2 st3">γ</text>
	<g id="_291065504">
		<text transform="matrix(1 0 0 1 54.6089 111.3584)" class="st4 st5">b</text>
		<g>
			<path d="M15.9,89.5l6.2-3v6.2L15.9,89.5z M101.5,89.8H21.8v-0.6h79.7V89.8z M107.5,89.5l-6.2,3.2v-6.2L107.5,89.5z"/>
		</g>
	</g>
	<g>
		<text transform="matrix(1 0 0 1 -0.854 45.208)" class="st4 st5">a</text>
		<g>
			<path d="M8,78.7l-1.2-6.8l5.9,1.7L8,78.7z M30.1,5.6L10,73.1l-0.6-0.1L29.5,5.5L30.1,5.6z M31.4,0l1.3,6.8l-5.9-1.7L31.4,0z"/>
		</g>
	</g>
</g>
</svg>
