<svg xmlns="http://www.w3.org/2000/svg" width="86.454" height="92.633" viewBox="0 0 86.454 92.633">
  <g id="ic-calories-per-week" transform="translate(-1.058 -0.528)">
    <path id="Path_4265" data-name="Path 4265" d="M2.6,11.377a1.546,1.546,0,0,0-1.54,1.552V32.995a7.729,7.729,0,0,0,7.714,7.714H79.8a7.729,7.729,0,0,0,7.714-7.714V12.929a1.546,1.546,0,0,0-1.54-1.552Z" transform="translate(0 52.453)" fill="#ee4652"/>
    <path id="Path_4266" data-name="Path 4266" d="M2.6,11.377a1.546,1.546,0,0,0-1.54,1.552V29.908a7.728,7.728,0,0,0,7.714,7.708H68.987a1.555,1.555,0,0,0,1.1-.455L87.512,19.732v-6.8a1.546,1.546,0,0,0-1.54-1.552Z" transform="translate(0 52.453)" fill="#e41f2d"/>
    <path id="Path_4267" data-name="Path 4267" d="M8.772,1.852A7.729,7.729,0,0,0,1.058,9.566v63.3a7.729,7.729,0,0,0,7.714,7.714H67.44a1.555,1.555,0,0,0,1.1-.455l18.52-18.52a1.546,1.546,0,0,0,.455-1.091V9.566A7.729,7.729,0,0,0,79.8,1.852Z" transform="translate(0 6.401)" fill="#eee"/>
    <path id="Path_4268" data-name="Path 4268" d="M8.772,1.852A7.729,7.729,0,0,0,1.058,9.566v63.3a7.729,7.729,0,0,0,7.714,7.714h3.092a7.731,7.731,0,0,1-7.719-7.714V9.566a7.729,7.729,0,0,1,7.714-7.714Z" transform="translate(0 6.401)" fill="#d0d0d0"/>
    <path id="Path_4269" data-name="Path 4269" d="M8.772,1.852A7.729,7.729,0,0,0,1.058,9.566V15.75a1.546,1.546,0,0,0,1.54,1.54H85.977a1.546,1.546,0,0,0,1.535-1.54V9.566A7.729,7.729,0,0,0,79.8,1.852Z" transform="translate(0 6.401)" fill="#ffca28"/>
    <path id="Path_4270" data-name="Path 4270" d="M8.332.53A4.644,4.644,0,0,0,3.705,5.151v6.173a4.627,4.627,0,1,0,9.254,0V5.139A4.65,4.65,0,0,0,8.332.53Z" transform="translate(12.798 0.01)" fill="#ee4652"/>
    <path id="Path_4272" data-name="Path 4272" d="M12.083,8.466A3.116,3.116,0,0,0,9,11.558v6.173a3.117,3.117,0,0,0,3.092,3.092h6.173a3.124,3.124,0,0,0,3.092-3.092V11.558a3.122,3.122,0,0,0-3.092-3.092Z" transform="translate(38.378 38.378)" fill="#ee4652"/>
    <path id="Path_4273" data-name="Path 4273" d="M19.9,11.642a7.741,7.741,0,0,0-7.725,7.719V33.248h1.546a1.555,1.555,0,0,0,1.1-.455l18.52-18.52a1.546,1.546,0,0,0,.455-1.091v-1.54Z" transform="translate(53.724 53.734)" fill="#ffca28"/>
    <path id="Path_4274" data-name="Path 4274" d="M7.9,2.91A1.546,1.546,0,0,0,7.9,6H29.5a1.546,1.546,0,0,0,0-3.092Z" transform="translate(25.586 11.516)" fill="#ee4652"/>
    <path id="Path_4275" data-name="Path 4275" d="M19.9,11.642a7.741,7.741,0,0,0-7.725,7.719V33.248h1.546a1.555,1.555,0,0,0,1.1-.455l.443-.443V19.361a7.741,7.741,0,0,1,7.725-7.719Z" transform="translate(53.724 53.734)" fill="#ecb200"/>
    <path id="Path_4276" data-name="Path 4276" d="M8.326.53A4.644,4.644,0,0,0,3.7,5.151v6.173a4.654,4.654,0,0,0,4.621,4.639,4.548,4.548,0,0,0,1.546-.292,4.65,4.65,0,0,1-3.081-4.347V5.139A4.635,4.635,0,0,1,9.872.8,4.539,4.539,0,0,0,8.326.53Z" transform="translate(12.798 0.01)" fill="#e41f2d"/>
    <path id="Path_4277" data-name="Path 4277" d="M16.263.54a4.644,4.644,0,0,0-4.621,4.621v6.173a4.627,4.627,0,1,0,9.254,0V5.149A4.65,4.65,0,0,0,16.263.528Z" transform="translate(51.171 0)" fill="#ee4652"/>
    <path id="Path_4278" data-name="Path 4278" d="M16.263.54a4.644,4.644,0,0,0-4.621,4.621v6.173a4.654,4.654,0,0,0,4.621,4.639,4.548,4.548,0,0,0,1.546-.292,4.65,4.65,0,0,1-3.081-4.347V5.149A4.635,4.635,0,0,1,17.809.814,4.539,4.539,0,0,0,16.263.528Z" transform="translate(51.171 0)" fill="#e41f2d"/>
    <g id="Group_2450" data-name="Group 2450" transform="translate(1.058 8.253)">
      <path id="Path_4279" data-name="Path 4279" d="M8.772,1.852A7.729,7.729,0,0,0,1.058,9.566V15.75a1.546,1.546,0,0,0,1.54,1.54H4.145V9.566a7.729,7.729,0,0,1,7.714-7.714Z" transform="translate(-1.058 -1.852)" fill="#ecb200"/>
    </g>
    <path id="Path_4280" data-name="Path 4280" d="M12.088,8.472A3.112,3.112,0,0,0,9,11.558v6.173a3.117,3.117,0,0,0,3.092,3.092h3.087a3.122,3.122,0,0,1-3.092-3.092V11.558a3.121,3.121,0,0,1,3.092-3.092Z" transform="translate(38.378 38.378)" fill="#e41f2d"/>
    <g id="Group_2452" data-name="Group 2452" transform="translate(10.324 28.319)">
      <path id="Path_4281" data-name="Path 4281" d="M5.738,5.291A3.117,3.117,0,0,0,2.646,8.383v6.167a3.121,3.121,0,0,0,3.092,3.092H11.9a3.124,3.124,0,0,0,3.092-3.092V8.378A3.123,3.123,0,0,0,11.9,5.291Zm18.52,0a3.113,3.113,0,0,0-3.092,3.092v6.167a3.117,3.117,0,0,0,3.092,3.092h6.173a3.121,3.121,0,0,0,3.092-3.092V8.378a3.119,3.119,0,0,0-3.092-3.087Zm18.525,0A3.116,3.116,0,0,0,39.7,8.383v6.167a3.117,3.117,0,0,0,3.092,3.092h6.173a3.124,3.124,0,0,0,3.092-3.092V8.378a3.116,3.116,0,0,0-3.092-3.087Zm18.52,0a3.117,3.117,0,0,0-3.092,3.092v6.167A3.121,3.121,0,0,0,61.3,17.643h6.179a3.119,3.119,0,0,0,3.087-3.092V8.378a3.116,3.116,0,0,0-3.092-3.087ZM5.738,42.348a3.11,3.11,0,0,0-3.092,3.075v6.185a3.114,3.114,0,0,0,3.092,3.081H11.9A3.119,3.119,0,0,0,14.992,51.6V45.428A3.1,3.1,0,0,0,11.9,42.354Zm18.52,0a3.1,3.1,0,0,0-3.092,3.075v6.185a3.111,3.111,0,0,0,3.092,3.081h6.173A3.116,3.116,0,0,0,33.524,51.6V45.428a3.1,3.1,0,0,0-3.092-3.075Zm18.525,0A3.1,3.1,0,0,0,39.7,45.423v6.185a3.111,3.111,0,0,0,3.092,3.081h6.173A3.119,3.119,0,0,0,52.055,51.6V45.428a3.11,3.11,0,0,0-3.092-3.075Z" transform="translate(-2.646 -5.291)" fill="#ffca28"/>
      <path id="Path_4282" data-name="Path 4282" d="M13.952,23.078a3.113,3.113,0,0,0-3.092,3.092v6.173a3.121,3.121,0,0,0,3.092,3.092h3.087a3.122,3.122,0,0,1-3.092-3.092V26.165a3.119,3.119,0,0,1,3.092-3.087Zm18.52,0a3.121,3.121,0,0,0-3.092,3.092v6.173a3.128,3.128,0,0,0,3.092,3.092h3.092a3.122,3.122,0,0,1-3.092-3.092V26.165a3.119,3.119,0,0,1,3.092-3.087Zm18.531,0a3.113,3.113,0,0,0-3.092,3.092v6.173A3.121,3.121,0,0,0,51,35.436h3.087A3.122,3.122,0,0,1,51,32.344V26.165a3.119,3.119,0,0,1,3.092-3.087Zm18.52,0a3.121,3.121,0,0,0-3.092,3.092v6.173a3.128,3.128,0,0,0,3.092,3.092h3.092a3.122,3.122,0,0,1-3.092-3.092V26.165a3.119,3.119,0,0,1,3.092-3.087ZM13.952,60.135a3.112,3.112,0,0,0-3.092,3.087v6.173a3.117,3.117,0,0,0,3.092,3.092h3.087a3.122,3.122,0,0,1-3.092-3.092V63.222a3.121,3.121,0,0,1,3.092-3.092Zm18.52,0a3.119,3.119,0,0,0-3.092,3.087v6.173a3.124,3.124,0,0,0,3.092,3.092h3.092a3.122,3.122,0,0,1-3.092-3.092V63.222a3.121,3.121,0,0,1,3.092-3.092Zm18.531,0a3.112,3.112,0,0,0-3.092,3.087v6.173A3.117,3.117,0,0,0,51,72.487h3.087A3.122,3.122,0,0,1,51,69.395V63.222a3.121,3.121,0,0,1,3.092-3.092Z" transform="translate(-10.86 -23.078)" fill="#ecb200"/>
    </g>
    <g id="Group_2453" data-name="Group 2453" transform="translate(10.324 46.844)">
      <path id="Path_4281-2" data-name="Path 4281" d="M5.738,24.888A3.122,3.122,0,0,0,2.646,27.98v6.173a3.121,3.121,0,0,0,3.092,3.092H11.9a3.124,3.124,0,0,0,3.092-3.092V27.98A3.128,3.128,0,0,0,11.9,24.888Zm18.52,0a3.116,3.116,0,0,0-3.092,3.092v6.173a3.117,3.117,0,0,0,3.092,3.092h6.173a3.121,3.121,0,0,0,3.092-3.092V27.98a3.124,3.124,0,0,0-3.092-3.092Zm37.045,0a3.116,3.116,0,0,0-3.092,3.092v6.173A3.121,3.121,0,0,0,61.3,37.246h6.179a3.119,3.119,0,0,0,3.087-3.092V27.98a3.121,3.121,0,0,0-3.092-3.092Z" transform="translate(-2.646 -24.888)" fill="#ee4652"/>
      <path id="Path_4282-2" data-name="Path 4282" d="M69.522,42.681a3.119,3.119,0,0,0-3.092,3.087v6.173a3.124,3.124,0,0,0,3.092,3.092h3.092a3.122,3.122,0,0,1-3.092-3.092V45.768a3.121,3.121,0,0,1,3.092-3.092Zm-37.051,0a3.119,3.119,0,0,0-3.092,3.087v6.173a3.124,3.124,0,0,0,3.092,3.092h3.092a3.122,3.122,0,0,1-3.092-3.092V45.768a3.121,3.121,0,0,1,3.092-3.092Zm-18.52,0a3.112,3.112,0,0,0-3.092,3.087v6.173a3.117,3.117,0,0,0,3.092,3.092h3.087a3.122,3.122,0,0,1-3.092-3.092V45.768a3.121,3.121,0,0,1,3.092-3.092Z" transform="translate(-10.86 -42.675)" fill="#e41f2d"/>
    </g>
  </g>
</svg>
