<svg xmlns="http://www.w3.org/2000/svg" width="65.148" height="116" viewBox="0 0 65.148 116">
  <path id="ic-rmr" d="M102.459,23.7c-2.651-3.289-5.483-3.216-7.569-3.126a13.9,13.9,0,0,1-8.03-2.438,11.583,11.583,0,0,1,.032-3.64,3.221,3.221,0,0,0,.877-2.38s.549.655,1.067-1.423c0,0,1.682-2.518-.133-2.518,0,0,.739-6.84-5.5-8.084A4.337,4.337,0,0,0,82.435,0,4.289,4.289,0,0,0,81.666.1c-6.242,1.244-5.5,8.084-5.5,8.084-1.813,0-.13,2.518-.13,2.518.518,2.078,1.067,1.423,1.067,1.423a3.188,3.188,0,0,0,.876,2.38,11.591,11.591,0,0,1,.032,3.64,13.975,13.975,0,0,1-8.029,2.438c-2.088-.09-4.919-.169-7.573,3.126,0,0-16.21,4.768-11.785,10.849,0,0,.627,2.8,7.508,7.554a11.973,11.973,0,0,1,2.463,2.333c.753,1.139.9,2.446,3.5,4.2,0,0,.584,1.653,1.619,1.017,0,0,1.361.34,1.684-.221,0,0,1.361-.227,1.487-1.418,0,0,.778,0,.713-1.136,0,0-.814-2.841-2.915-3.812l-1.619-.168s-3.054-2.885-3.433-3.466c-.907-1.4-1.193-3.8-3.2-5.849,0,0,9.182-.337,11.125-2.382,0,0-.889,3.748,2.819,10.224a31.014,31.014,0,0,1,.907,11.639s-3.756,6.763-3.171,12.664c0,0-2.557,5.847,0,13.942,0,0-2.137,10.818,1.264,19.176,0,0,1.845,9.364-.2,10.64,0,0-4.466,3.579-6.119,3.407,0,0-1.166.6-.585,1.448,0,0-.485.934.486,1.19,0,0,1.263,1.959,7.479-2.209a3.594,3.594,0,0,1,2.625.257s3.4.592,2.524-3.152c0,0-1.965-7.073-.022-12.6a29.127,29.127,0,0,0,1.752-10.483c-.065-2.065-.876-2.915-.369-6.477.407-2.846,2.874-5.525,3.485-10.332.611,4.807,3.076,7.487,3.483,10.332.505,3.563-.3,4.412-.369,6.477A29.163,29.163,0,0,0,87.3,97.83c1.948,5.531-.022,12.6-.022,12.6-.875,3.745,2.522,3.152,2.522,3.152a3.587,3.587,0,0,1,2.623-.257c6.222,4.174,7.481,2.209,7.481,2.209.972-.257.486-1.19.486-1.19.581-.856-.59-1.448-.59-1.448-1.654.175-6.117-3.407-6.117-3.407-2.039-1.276-.2-10.64-.2-10.64,3.4-8.358,1.269-19.176,1.269-19.176,2.557-8.088,0-13.942,0-13.942.581-5.9-3.173-12.664-3.173-12.664a30.989,30.989,0,0,1,.906-11.639C96.188,34.958,95.3,31.209,95.3,31.209c1.941,2.045,11.117,2.382,11.117,2.382-2,2.054-2.289,4.458-3.188,5.849-.378.582-3.434,3.466-3.434,3.466l-1.619.168c-2.093.972-2.907,3.812-2.907,3.812-.07,1.136.707,1.136.707,1.136.133,1.191,1.49,1.418,1.49,1.418.322.567,1.683.221,1.683.221,1.035.633,1.619-1.017,1.619-1.017,2.592-1.758,2.743-3.059,3.5-4.2a12.179,12.179,0,0,1,2.465-2.333c6.881-4.749,7.5-7.554,7.5-7.554C118.671,28.475,102.459,23.7,102.459,23.7ZM89.61,39.336a12.887,12.887,0,0,1-4.183,6.5,27.663,27.663,0,0,0,.909-4.872A13.219,13.219,0,0,1,83.71,42.5a12.365,12.365,0,0,1-2.091-7.627S76.43,37.8,78.886,45.838c0,0-6.111-4.24-2.919-10.921s4.555-7.492,4.1-11.013c0,0,5.273,2.436,5.729,8.213.324,4.116-.229,5.893-.574,6.577a1.544,1.544,0,0,1-.238.364A10.832,10.832,0,0,0,87.7,31.206S90.61,35.279,89.61,39.336Z" transform="translate(-49.858 -0.001)" fill="#d77325"/>
</svg>
