<svg xmlns="http://www.w3.org/2000/svg" width="33.589" height="60.873" viewBox="0 0 33.589 60.873">
  <g id="ic-activity" transform="translate(-114.742)">
    <path id="Path_4709" data-name="Path 4709" d="M155.018,42.848l1.234-2.9a4.2,4.2,0,1,1,7.726,3.29l-1.234,2.9a4.2,4.2,0,0,1-7.726-3.29ZM141.225,89.626l5.342.063L149.8,78.081h-6.14Z" transform="translate(-23.334 -32.951)" fill="#f2bb80"/>
    <path id="Path_4710" data-name="Path 4710" d="M114.742,479.523a1.364,1.364,0,0,0,1.364,1.364h5.982l1.154-4.135-5.353-.063-2.54,1.69A1.376,1.376,0,0,0,114.742,479.523Zm24.139-2.834h-5.363l1.165,4.2h5.982a1.37,1.37,0,0,0,.756-2.508Z" transform="translate(0 -420.015)" fill="#de4c3c"/>
    <path id="Path_4711" data-name="Path 4711" d="M154.618,45.13H148.6l3.211,11.545h5.363ZM140.659,8.774l9.173-5.111L147.786,0l-9.677,5.248A4.974,4.974,0,0,0,135.653,8.4a5.046,5.046,0,0,0,.63,3.883l2.582,4.87,4.523-3.421-2.729-4.954Z" transform="translate(-18.298)" fill="#f2bb80"/>
    <path id="Path_4712" data-name="Path 4712" d="M176.062,310.015l-12.594-1.049-1.763,8.4h6.14l.871-3.149h2.1l.871,3.149H177.7Z" transform="translate(-41.38 -272.233)" fill="#666"/>
    <path id="Path_4713" data-name="Path 4713" d="M170.5,119.734l-2.246-4.093-4.523,3.421,2.571,4.87v7.347l-1.05,7.347,12.594,1.049L181,121.833Z" transform="translate(-43.168 -101.892)" fill="#de4c3c"/>
    <path id="Path_4714" data-name="Path 4714" d="M166.428,311a49.3,49.3,0,0,1-4.009,4.639l-.714,3.516h6.14l.871-3.149h2.1l.871,3.149H177.7l-1.637-7.347Z" transform="translate(-41.38 -274.021)" fill="#595959"/>
    <path id="Path_4715" data-name="Path 4715" d="M211.064,181.211l3.149-17.842-2.918-.588a80.485,80.485,0,0,1-9.866,17.622Z" transform="translate(-76.381 -143.428)" fill="#cf4737"/>
    <path id="Path_4716" data-name="Path 4716" d="M302.416,167.724l-.882,5,3.075,2.225,2.792-3.726Z" transform="translate(-164.584 -147.783)" fill="#cf4737"/>
    <path id="Path_4717" data-name="Path 4717" d="M294.253,199.67l-3.652-2.55-2.792,3.726,3.054,2.225-7.5,3.338-.892,5.059,10.863-4.2a4.345,4.345,0,0,0,.924-7.62v.021Z" transform="translate(-147.784 -173.684)" fill="#f2bb80"/>
  </g>
</svg>
