<svg xmlns="http://www.w3.org/2000/svg" width="60.872" height="60.873" viewBox="0 0 60.872 60.873">
  <g id="ic-health-measurements" transform="translate(0 0)">
    <path id="Path_4731" data-name="Path 4731" d="M8.625,60.278l-8.03-8.03a2.031,2.031,0,0,1,0-2.871L49.377.595a2.031,2.031,0,0,1,2.871,0l8.03,8.03a2.031,2.031,0,0,1,0,2.871L11.5,60.278A2.031,2.031,0,0,1,8.625,60.278Z" transform="translate(0 0)" fill="#fbc640"/>
    <path id="Path_4732" data-name="Path 4732" d="M0,0H4.093V1.939H0Z" transform="matrix(-0.707, -0.707, 0.707, -0.707, 20.699, 51.075)" fill="#ff5e2c"/>
    <path id="Path_4733" data-name="Path 4733" d="M0,0H8.185V1.939H0Z" transform="matrix(-0.707, -0.707, 0.707, -0.707, 24.322, 47.452)" fill="#ff5e2c"/>
    <path id="Path_4734" data-name="Path 4734" d="M0,0H8.185V1.939H0Z" transform="matrix(-0.707, -0.707, 0.707, -0.707, 13.455, 58.32)" fill="#ff5e2c"/>
    <path id="Path_4735" data-name="Path 4735" d="M0,0H4.093V1.939H0Z" transform="matrix(-0.707, -0.707, 0.707, -0.707, 27.944, 43.83)" fill="#ff5e2c"/>
    <path id="Path_4736" data-name="Path 4736" d="M0,0H4.093V1.939H0Z" transform="matrix(-0.707, -0.707, 0.707, -0.707, 31.567, 40.207)" fill="#ff5e2c"/>
    <path id="Path_4737" data-name="Path 4737" d="M0,0H8.186V1.939H0Z" transform="matrix(-0.707, -0.707, 0.707, -0.707, 35.191, 36.585)" fill="#ff5e2c"/>
    <path id="Path_4738" data-name="Path 4738" d="M0,0H4.093V1.939H0Z" transform="matrix(-0.707, -0.707, 0.707, -0.707, 38.814, 32.963)" fill="#ff5e2c"/>
    <path id="Path_4739" data-name="Path 4739" d="M0,0H4.093V1.939H0Z" transform="matrix(-0.707, -0.707, 0.707, -0.707, 42.435, 29.341)" fill="#ff5e2c"/>
    <path id="Path_4740" data-name="Path 4740" d="M0,0H8.186V1.939H0Z" transform="matrix(-0.707, -0.707, 0.707, -0.707, 46.057, 25.717)" fill="#ff5e2c"/>
    <path id="Path_4741" data-name="Path 4741" d="M0,0H4.093V1.939H0Z" transform="matrix(-0.707, -0.707, 0.707, -0.707, 49.679, 22.095)" fill="#ff5e2c"/>
    <path id="Path_4742" data-name="Path 4742" d="M0,0H4.093V1.939H0Z" transform="matrix(-0.707, -0.707, 0.707, -0.707, 53.301, 18.472)" fill="#ff5e2c"/>
    <path id="Path_4743" data-name="Path 4743" d="M0,0H8.185V1.939H0Z" transform="matrix(-0.707, -0.707, 0.707, -0.707, 56.924, 14.851)" fill="#ff5e2c"/>
    <path id="Path_4744" data-name="Path 4744" d="M0,0H4.093V1.939H0Z" transform="matrix(-0.707, -0.707, 0.707, -0.707, 17.077, 54.697)" fill="#ff5e2c"/>
    <path id="Path_4745" data-name="Path 4745" d="M0,0H11.23V15.417H0Z" transform="matrix(0.707, -0.707, 0.707, 0.707, 18.516, 31.453)" fill="#f9a638"/>
    <path id="Path_4746" data-name="Path 4746" d="M53.021,60.985l7.941-7.941L16.327,8.409A5.615,5.615,0,0,0,8.386,16.35Z" transform="translate(-5.939 -5.96)" fill="#2aa1f2"/>
    <path id="Path_4747" data-name="Path 4747" d="M403.943,396.025l4.552,11.707a.6.6,0,0,1-.781.781L396,403.966Z" transform="translate(-348.92 -348.941)" fill="#ffad6a"/>
    <path id="Path_4748" data-name="Path 4748" d="M452.18,407.732l-4.552-11.707-2.047,2.047,3.748,9.638,2.07.8A.6.6,0,0,0,452.18,407.732Z" transform="translate(-392.605 -348.941)" fill="#ea875c"/>
    <path id="Path_4749" data-name="Path 4749" d="M43.253,8.418A5.615,5.615,0,0,0,37.3,7.135,5.592,5.592,0,0,1,39.29,8.418L77.966,47.094a8.428,8.428,0,0,1,0,11.919l1.982,1.982,7.941-7.941Z" transform="translate(-32.866 -5.969)" fill="#1982e0"/>
    <path id="Path_4750" data-name="Path 4750" d="M467.284,468.058a.6.6,0,0,0,.781-.781l-1.428-3.673-3.027,3.027Z" transform="translate(-408.49 -408.485)" fill="#1952a5"/>
    <path id="Path_4751" data-name="Path 4751" d="M0,0H11.23V5.484H0Z" transform="matrix(0.707, -0.707, 0.707, 0.707, 6.195, 14.14)" fill="#1952a5"/>
    <path id="Path_4752" data-name="Path 4752" d="M0,0H52.318V1.939H0Z" transform="matrix(-0.707, -0.707, 0.707, -0.707, 50.352, 51.727)" fill="#fbc640"/>
  </g>
</svg>
