<svg xmlns="http://www.w3.org/2000/svg" width="68.356" height="68.351" viewBox="0 0 68.356 68.351">
  <g id="ic-target" transform="translate(0 -0.02)">
    <circle id="Ellipse_142" data-name="Ellipse 142" cx="29.837" cy="29.837" r="29.837" transform="translate(0 8.696)" fill="#fd646f"/>
    <path id="Path_4718" data-name="Path 4718" d="M105.87,138.866A29.836,29.836,0,0,1,53.6,158.537a29.836,29.836,0,0,0,42.1-42.1A29.76,29.76,0,0,1,105.87,138.866Z" transform="translate(-46.196 -100.333)" fill="#fc4755"/>
    <circle id="Ellipse_143" data-name="Ellipse 143" cx="22.516" cy="22.516" r="22.516" transform="translate(7.321 16.017)" fill="#f5f5f5"/>
    <path id="Path_4719" data-name="Path 4719" d="M130.93,171.246a22.517,22.517,0,0,1-39.76,14.481A22.517,22.517,0,0,0,122.894,154,22.475,22.475,0,0,1,130.93,171.246Z" transform="translate(-78.576 -132.713)" fill="#e6e6e6"/>
    <circle id="Ellipse_144" data-name="Ellipse 144" cx="15.195" cy="15.195" r="15.195" transform="translate(14.642 23.339)" fill="#fd646f"/>
    <path id="Path_4720" data-name="Path 4720" d="M156.092,203.73A15.2,15.2,0,0,1,128.86,213a15.2,15.2,0,0,0,21.312-21.312A15.169,15.169,0,0,1,156.092,203.73Z" transform="translate(-111.06 -165.197)" fill="#fc4755"/>
    <circle id="Ellipse_145" data-name="Ellipse 145" cx="7.736" cy="7.736" r="7.736" transform="translate(22.102 30.798)" fill="#f5f5f5"/>
    <path id="Path_4721" data-name="Path 4721" d="M365.064,329.471a29.633,29.633,0,0,1-2.2,4.916L356.2,331.28a22.289,22.289,0,0,0,2.177-4.927Z" transform="translate(-306.996 -281.255)" fill="#fc4755"/>
    <path id="Path_4722" data-name="Path 4722" d="M316.654,306.754a22.288,22.288,0,0,1-2.177,4.927l-6.687-3.118a15.046,15.046,0,0,0,2.127-4.951Z" transform="translate(-265.273 -261.656)" fill="#e6e6e6"/>
    <path id="Path_4723" data-name="Path 4723" d="M266.807,283.032a15.046,15.046,0,0,1-2.127,4.951l-6.91-3.221a7.71,7.71,0,0,0,1.964-5.028Z" transform="translate(-222.163 -241.075)" fill="#fc4755"/>
    <path id="Path_4724" data-name="Path 4724" d="M209.65,260.238a7.71,7.71,0,0,1-1.964,5.028l-6.472-3.018a2.691,2.691,0,0,1-1.4-3.326c.03-.084.064-.169.1-.253a2.694,2.694,0,0,1,3.579-1.3Z" transform="translate(-172.079 -221.58)" fill="#e6e6e6"/>
    <path id="Path_4725" data-name="Path 4725" d="M381.024,82.54a.276.276,0,0,1,.15.467l-2.923,2.936-1.793,1.8-4.9,4.921a1.381,1.381,0,0,1-1.2.388l-7.307-1.2,5.473-5.429,1.814-1.8,3.336-3.31Z" transform="translate(-312.898 -70.064)" fill="#50758d"/>
    <path id="Path_4726" data-name="Path 4726" d="M412.4,106.594l-1.793,1.8-7.937-1.323,1.814-1.8Z" transform="translate(-347.047 -90.714)" fill="#2b597f"/>
    <path id="Path_4727" data-name="Path 4727" d="M340.915,8.059,337.6,11.307l-1.805,1.767-5.454,5.336-1.218-7.4a1.381,1.381,0,0,1,.386-1.2l4.92-4.925,1.8-1.8L339.2.1a.276.276,0,0,1,.468.152Z" transform="translate(-283.64 0)" fill="#50758d"/>
    <path id="Path_4728" data-name="Path 4728" d="M370.812,30.409l-1.805,1.767-1.366-8.19,1.8-1.8Z" transform="translate(-316.856 -19.102)" fill="#2b597f"/>
    <path id="Path_4729" data-name="Path 4729" d="M235.669,38.182a2.682,2.682,0,0,1-.789,1.9L204.257,70.709a2.691,2.691,0,0,1-3.607.182c-.069-.057-.137-.117-.2-.182a2.693,2.693,0,0,1,0-3.808l30.623-30.623a2.691,2.691,0,0,1,3.808,0c.065.065.126.133.182.2a2.682,2.682,0,0,1,.606,1.7Z" transform="translate(-172.08 -30.569)" fill="#918291"/>
    <path id="Path_4730" data-name="Path 4730" d="M241.849,44.366a2.682,2.682,0,0,1-.789,1.9L210.437,76.893a2.691,2.691,0,0,1-3.607.182l34.412-34.412a2.682,2.682,0,0,1,.606,1.7Z" transform="translate(-178.259 -36.753)" fill="#7a6e79"/>
  </g>
</svg>
