<svg xmlns="http://www.w3.org/2000/svg" width="61.644" height="60.872" viewBox="0 0 61.644 60.872">
  <g id="ic-weight-loss-chart" transform="translate(0 -3.202)">
    <path id="Path_4702" data-name="Path 4702" d="M0,482.132H61.644v3.211H0Z" transform="translate(0 -421.268)" fill="#acb3ba"/>
    <path id="Path_4703" data-name="Path 4703" d="M21.333,267.732h9.5v23.245h-9.5Z" transform="translate(-18.765 -232.681)" fill="#cdd6e0"/>
    <path id="Path_4704" data-name="Path 4704" d="M119.47,174.931h9.5v34.418h-9.5Z" transform="translate(-105.086 -151.053)" fill="#4cdbc4"/>
    <path id="Path_4705" data-name="Path 4705" d="M216.53,218.671h9.5v29.152h-9.5Z" transform="translate(-190.46 -189.527)" fill="#ffd15c"/>
    <path id="Path_4706" data-name="Path 4706" d="M314.67,309.331h9.5v18.108h-9.5Z" transform="translate(-276.784 -269.272)" fill="#84dbff"/>
    <path id="Path_4707" data-name="Path 4707" d="M411.73,140.8h9.5v38.4h-9.5Z" transform="translate(-362.159 -121.032)" fill="#ff7058"/>
    <path id="Path_4708" data-name="Path 4708" d="M74.1,35.572,55.994,17.465l-15.8,15.8-1.8-1.8L55.994,13.869,74.1,31.977,89,17.08l1.8,1.8Z" transform="translate(-33.777 -9.383)" fill="#cdd6e0"/>
    <circle id="Ellipse_138" data-name="Ellipse 138" cx="3.211" cy="3.211" r="3.211" transform="translate(2.312 19.769)" fill="#40596b"/>
    <circle id="Ellipse_139" data-name="Ellipse 139" cx="3.211" cy="3.211" r="3.211" transform="translate(19.006 3.202)" fill="#40596b"/>
    <circle id="Ellipse_140" data-name="Ellipse 140" cx="3.211" cy="3.211" r="3.211" transform="translate(36.986 21.31)" fill="#40596b"/>
    <circle id="Ellipse_141" data-name="Ellipse 141" cx="3.211" cy="3.211" r="3.211" transform="translate(52.91 5.385)" fill="#40596b"/>
  </g>
</svg>
