<svg id="Layer_1" data-name="Layer 1" xmlns="http://www.w3.org/2000/svg" viewBox="0 0 465 326"><defs><style>.cls-1{fill:#cbe6f3;stroke:#0a75b7;}.cls-1,.cls-2{stroke-miterlimit:10;stroke-width:1.5px;}.cls-2{fill:none;stroke:#055780;}.cls-3{fill:#055780;}.cls-4{font-size:10px;font-family:MyriadPro-Regular, Myriad Pro;}.cls-4,.cls-5{fill:#231f20;}.cls-5{font-size:18px;font-family:MyriadPro-Bold, Myriad Pro;font-weight:700;}.cls-6{letter-spacing:0em;}.cls-7{letter-spacing:0em;}.cls-8{letter-spacing:-0.02em;}.cls-9{letter-spacing:-0.09em;}.cls-10{letter-spacing:0em;}.cls-11{letter-spacing:-0.01em;}.cls-12{letter-spacing:-0.04em;}.cls-13{letter-spacing:-0.04em;}.cls-14{letter-spacing:-0.02em;}.cls-15{letter-spacing:-0.01em;}.cls-16{letter-spacing:-0.01em;}</style></defs><title>charles law</title><polyline class="cls-1" points="443.67 48.67 69.67 48.67 69.67 274 443.67 274"/><line class="cls-1" x1="70.37" y1="72.96" x2="442.97" y2="72.96"/><line class="cls-1" x1="70.37" y1="98" x2="442.97" y2="98"/><line class="cls-1" x1="70.37" y1="123.04" x2="442.97" y2="123.04"/><line class="cls-1" x1="70.37" y1="148.08" x2="442.97" y2="148.08"/><line class="cls-1" x1="70.37" y1="173.13" x2="442.97" y2="173.13"/><line class="cls-1" x1="70.37" y1="198.17" x2="442.97" y2="198.17"/><line class="cls-1" x1="70.37" y1="223.21" x2="442.97" y2="223.21"/><line class="cls-1" x1="70.37" y1="248.25" x2="442.97" y2="248.25"/><line class="cls-2" x1="85.53" y1="223.21" x2="386.54" y2="79.21"/><circle class="cls-3" cx="83.99" cy="227.03" r="2.56"/><circle class="cls-3" cx="191.52" cy="163" r="2.56"/><circle class="cls-3" cx="271" cy="146.04" r="2.56"/><circle class="cls-3" cx="387.35" cy="75.72" r="2.56"/><text class="cls-4" transform="translate(60.94 289.94)">270</text><text class="cls-4" transform="translate(31.92 278.12)">0.0018</text><text class="cls-4" transform="translate(31.92 252.62)">0.0019</text><text class="cls-4" transform="translate(31.92 203.12)">0.0021</text><text class="cls-4" transform="translate(31.92 177.87)">0.0022</text><text class="cls-4" transform="translate(31.92 153.12)">0.0023</text><text class="cls-4" transform="translate(31.92 127.12)">0.0024</text><text class="cls-4" transform="translate(31.92 102.12)">0.0025</text><text class="cls-4" transform="translate(31.92 77.12)">0.0026</text><text class="cls-4" transform="translate(31.92 52.62)">0.0027</text><text class="cls-4" transform="translate(36.92 228.37)">0.002</text><text class="cls-4" transform="translate(108.19 289.94)">280</text><text class="cls-4" transform="translate(154.94 289.94)">290</text><text class="cls-4" transform="translate(201.44 289.94)">300</text><text class="cls-4" transform="translate(247.94 289.94)">310</text><text class="cls-4" transform="translate(294.94 289.94)">320</text><text class="cls-4" transform="translate(340.94 289.94)">330</text><text class="cls-4" transform="translate(387.69 289.94)">340</text><text class="cls-4" transform="translate(433.94 289.94)">350</text><text class="cls-5" transform="translate(103.88 28.67)"><tspan class="cls-6">C</tspan><tspan class="cls-7" x="10.66" y="0">hal</tspan><tspan class="cls-8" x="35.66" y="0">e</tspan><tspan class="cls-9" x="44.75" y="0">’</tspan><tspan x="47.75" y="0">s </tspan><tspan class="cls-10" x="59.2" y="0">L</tspan><tspan class="cls-11" x="68.47" y="0">a</tspan><tspan x="77.76" y="0">w (</tspan><tspan class="cls-12" x="100.71" y="0"> </tspan><tspan class="cls-13" x="103.68" y="0">V</tspan><tspan x="114.37" y="0">olume </tspan><tspan class="cls-14" x="168.82" y="0">v</tspan><tspan x="178.07" y="0">s </tspan><tspan class="cls-15" x="189.52" y="0">P</tspan><tspan class="cls-16" x="199.82" y="0">r</tspan><tspan x="206.51" y="0">essu</tspan><tspan class="cls-16" x="242.13" y="0">r</tspan><tspan x="248.83" y="0">e)</tspan></text></svg>