<svg id="Layer_1" data-name="Layer 1" xmlns="http://www.w3.org/2000/svg" viewBox="0 0 1300 708"><defs><style>.cls-1,.cls-15{fill:#0a75b7;}.cls-2{font-size:70px;fill:#ececed;}.cls-11,.cls-14,.cls-15,.cls-2,.cls-9{font-family:Roboto-Medium, Roboto;}.cls-3{letter-spacing:-0.01em;}.cls-4{fill:#5ea552;}.cls-14,.cls-5{fill:#c83c31;}.cls-6{fill:#fff;}.cls-11,.cls-14,.cls-15,.cls-7{font-size:32px;}.cls-11,.cls-7{fill:#231f20;}.cls-7{font-family:Roboto-MediumItalic, Roboto;}.cls-10,.cls-8{font-style:italic;}.cls-10,.cls-12{letter-spacing:-0.01em;}.cls-13{fill:#010101;}</style></defs><title>Artboard 1</title><path class="cls-1" d="M1250,0H50A50,50,0,0,0,0,50V658a50,50,0,0,0,50,50H1250a50,50,0,0,0,50-50V50A50,50,0,0,0,1250,0ZM967.49,85.46a12.05,12.05,0,0,1,20.61-.11l119.15,193.86h-256ZM55,268.3a36,36,0,0,1,36-36H243a36,36,0,1,1,0,72H91A36,36,0,0,1,55,268.3ZM589.49,518.07a37,37,0,0,1-37,37H234a37,37,0,0,1-37-37v-134a37,37,0,0,1,37-37h318.5a37,37,0,0,1,37,37Zm387-51.28a.6.6,0,0,1-.6.6H766.45a11.66,11.66,0,0,1-10.19-17.33l91.21-163.74A.6.6,0,0,1,848,286H975.84a.6.6,0,0,1,.6.6Zm215.93,0H983.67a.58.58,0,0,1-.59-.59V286.6a.59.59,0,0,1,.59-.59h127.42a.59.59,0,0,1,.52.31l90.91,163.19A11.62,11.62,0,0,1,1192.37,466.78Z"/><text class="cls-2" transform="translate(88.95 98.7)">Density <tspan class="cls-3" x="251.02" y="0">F</tspan><tspan x="288.75" y="0">ormula</tspan></text><path class="cls-4" d="M452.43,370.93c.39-.49.75-1,1.19-1.45,5.69-5.86,12.57-7.77,20.49-6a14.8,14.8,0,0,1,8.86,6l1,1.4s.09.06.25.16c.53-.57,1.08-1.15,1.63-1.73,5.87-6.11,13-7.74,21-5.63,6.47,1.7,10.33,6.43,11.05,13.2a61.39,61.39,0,0,1,.35,6.24q.05,13.65,0,27.3a14.63,14.63,0,0,1-.58,4.1,6.3,6.3,0,0,1-6.4,4.63c-3.21,0-5.77-1.58-6.64-4.55a19.09,19.09,0,0,1-.64-5.14c-.06-7.65,0-15.3,0-22.95a44.57,44.57,0,0,0-.47-6.92c-.89-5.36-4.77-6.76-9-5.87a10.37,10.37,0,0,0-8.06,9.18,84.17,84.17,0,0,0-.66,9.52c-.1,6,0,12.05,0,18.08a15,15,0,0,1-.37,3.44c-.85,3.48-3.37,5.31-7,5.21a6.46,6.46,0,0,1-6.42-5.51,19.88,19.88,0,0,1-.35-3.8c0-7.77,0-15.53,0-23.3,0-2.2-.16-4.4-.38-6.58a10.11,10.11,0,0,0-.86-3,5.51,5.51,0,0,0-5-3.43,17.36,17.36,0,0,0-3.12.06,8.37,8.37,0,0,0-7.57,6.19A35.11,35.11,0,0,0,453,390.06c-.08,6.72,0,13.45-.06,20.17a16.86,16.86,0,0,1-.41,3.78,6.37,6.37,0,0,1-6.2,5.12c-3.4.13-5.92-1.5-6.92-4.65a12.15,12.15,0,0,1-.6-3.57q-.07-20.26,0-40.51a12.51,12.51,0,0,1,.28-2.41,6,6,0,0,1,6.53-5.22,6.28,6.28,0,0,1,6.22,5.67c.1.74.11,1.49.16,2.24Z"/><path class="cls-4" d="M953.1,166.68c.39-.49.75-1,1.19-1.45,5.69-5.86,12.57-7.77,20.49-6a14.8,14.8,0,0,1,8.86,6l1,1.4s.09.06.25.16c.53-.57,1.08-1.15,1.63-1.73,5.87-6.11,13-7.74,21-5.63,6.47,1.7,10.33,6.43,11.05,13.2a61.39,61.39,0,0,1,.35,6.24q.05,13.65,0,27.3a14.63,14.63,0,0,1-.58,4.1,6.3,6.3,0,0,1-6.4,4.63c-3.21,0-5.77-1.58-6.64-4.55a19.09,19.09,0,0,1-.64-5.14c-.06-7.65,0-15.3,0-22.95a44.57,44.57,0,0,0-.47-6.92c-.89-5.36-4.77-6.76-9-5.87a10.37,10.37,0,0,0-8.06,9.18,84.17,84.17,0,0,0-.66,9.52c-.1,6,0,12.05,0,18.08a15,15,0,0,1-.37,3.44c-.85,3.48-3.37,5.31-7,5.21a6.46,6.46,0,0,1-6.42-5.51,19.88,19.88,0,0,1-.35-3.8c0-7.77,0-15.53,0-23.3,0-2.2-.16-4.4-.38-6.58a10.11,10.11,0,0,0-.86-3,5.51,5.51,0,0,0-5-3.43,17.36,17.36,0,0,0-3.12.06,8.37,8.37,0,0,0-7.57,6.19,35.11,35.11,0,0,0-1.52,10.27c-.08,6.72,0,13.45-.06,20.17a16.86,16.86,0,0,1-.41,3.78,6.37,6.37,0,0,1-6.2,5.12c-3.4.13-5.92-1.5-6.92-4.65a12.15,12.15,0,0,1-.6-3.57q-.07-20.26,0-40.51a12.51,12.51,0,0,1,.28-2.41,6,6,0,0,1,6.53-5.22,6.28,6.28,0,0,1,6.22,5.67c.1.74.11,1.49.16,2.24Z"/><path class="cls-1" d="M269.48,469c0,1.29,0,2.15,0,3q.41,17.88.83,35.76c0,.49,0,1,0,1.47a6.94,6.94,0,0,1-4.4,7.66,68,68,0,0,1-8.15,3.26c-2.57.79-3.43-.24-3.16-2.86a100.13,100.13,0,0,0,.7-10.25c0-14.7-.12-29.41-.21-44.11-.05-9-.21-18-.17-27a48.33,48.33,0,0,1,2.88-17.56c5.94-15.15,17.25-23.94,33-27.28,11.18-.93,20.63,2.5,27.81,11.32a36.6,36.6,0,0,1,8.12,21.43c1.22,21.41-8.84,36.5-26.88,46.92a41.14,41.14,0,0,1-10.48,4c-6.64,1.7-12.41,0-17.67-4.09Zm42.64-34.66a49.92,49.92,0,0,0-2-13.88,32.25,32.25,0,0,0-8.7-14.53,21.19,21.19,0,0,0-18-5.7c-4.92.68-8.3,3.55-10.49,7.92A36.88,36.88,0,0,0,269.48,422c-.8,10.51-.25,21-.33,31.55,0,4.28,1.83,6.48,5.11,8.18a60.77,60.77,0,0,0,6.65,3.06,22.26,22.26,0,0,0,11.58.92c8.88-1.48,14.3-6.94,17.19-15.2C311.48,445.41,311.92,440,312.13,434.3Z"/><path class="cls-1" d="M890.69,370.87c0,.65,0,1.08,0,1.51q.21,9,.42,17.9c0,.25,0,.49,0,.74a3.47,3.47,0,0,1-2.2,3.84,34.06,34.06,0,0,1-4.08,1.63c-1.28.4-1.72-.12-1.58-1.43a50.12,50.12,0,0,0,.35-5.13c0-7.36-.06-14.72-.11-22.08,0-4.5-.11-9-.08-13.49a24.19,24.19,0,0,1,1.44-8.79c3-7.59,8.63-12,16.52-13.66,5.6-.47,10.33,1.25,13.92,5.67a18.32,18.32,0,0,1,4.06,10.72c.61,10.72-4.43,18.27-13.46,23.48a20.59,20.59,0,0,1-5.25,2,9.76,9.76,0,0,1-8.84-2ZM912,353.52a25,25,0,0,0-1-6.95,16.14,16.14,0,0,0-4.35-7.27,10.6,10.6,0,0,0-9-2.85,6.71,6.71,0,0,0-5.25,4,18.46,18.46,0,0,0-1.7,7c-.4,5.26-.12,10.53-.17,15.79a4.1,4.1,0,0,0,2.56,4.09,30.41,30.41,0,0,0,3.33,1.53,11.14,11.14,0,0,0,5.8.46c4.45-.74,7.16-3.47,8.6-7.61A27.23,27.23,0,0,0,912,353.52Z"/><path class="cls-5" d="M478.54,528c.35-.84.61-1.4.82-2,3.78-10.27,7.54-20.55,11.35-30.8a30.26,30.26,0,0,1,2.18-4.72c1.42-2.43,4.33-3.21,7.17-2.1a5.76,5.76,0,0,1,3.77,6.32,18.11,18.11,0,0,1-1,3.5q-7.86,19.59-15.78,39.15a31.64,31.64,0,0,1-1.55,3.11c-2.83,5.25-11.43,5.46-14.36-.59q-1.44-3-2.68-6-7-17.22-13.91-34.47c-.49-1.23-.81-2.53-1.23-3.79-1-3,1.2-6.7,5-7.46a9.47,9.47,0,0,1,3.28.06,3.94,3.94,0,0,1,3.09,2.29c.79,1.73,1.59,3.48,2.24,5.27q5.47,15.2,10.87,30.42C478,526.71,478.2,527.22,478.54,528Z"/><path class="cls-5" d="M1066,374.61c.35-.84.61-1.4.82-2,3.78-10.27,7.54-20.55,11.35-30.8a30.26,30.26,0,0,1,2.18-4.72c1.42-2.43,4.33-3.21,7.17-2.1a5.76,5.76,0,0,1,3.77,6.32,18.11,18.11,0,0,1-1,3.5q-7.86,19.59-15.78,39.15a31.64,31.64,0,0,1-1.55,3.11c-2.83,5.25-11.43,5.46-14.36-.59q-1.44-3-2.68-6-7-17.22-13.91-34.47c-.49-1.23-.81-2.53-1.23-3.79-1-3,1.2-6.7,5-7.46a9.47,9.47,0,0,1,3.28.06,3.94,3.94,0,0,1,3.09,2.29c.79,1.73,1.59,3.48,2.24,5.27q5.47,15.2,10.87,30.42C1065.46,373.3,1065.7,373.81,1066,374.61Z"/><path d="M357,445.34V432.59c1.27-.45,49.93-.56,51.94-.11v12.86Z"/><path d="M357,468V455.19c1.31-.45,50-.53,51.95-.09V468Z"/><path d="M478.87,454.23H428.8c-.58,0-1.16,0-1.74,0a3,3,0,0,1-.07-6,10.89,10.89,0,0,1,1.22,0H529.4a8.68,8.68,0,0,1,1.56.08,3,3,0,0,1-.1,5.93,14,14,0,0,1-1.91.05Z"/><rect class="cls-6" x="366.49" y="597.85" width="224" height="72" rx="36" ry="36"/><rect class="cls-6" x="415.98" y="232.3" width="175.85" height="72" rx="36" ry="36"/><path class="cls-5" d="M512.12,649H508c0-.62,0-1.17,0-1.72,0-4.72,0-9.44,0-14.16a10.17,10.17,0,0,0-.49-2.85,3.09,3.09,0,0,0-2.47-2.08,5.5,5.5,0,0,0-6.54,3.75,18.08,18.08,0,0,0-.57,4.4c-.08,3.64,0,7.28,0,10.93,0,.55,0,1.1,0,1.73h-3.82c-.31-1.06-.41-21.77-.08-23.93h3.41v3c.46-.39.73-.57.94-.79,2.54-2.62,5.64-3.19,9.06-2.35,1.75.43,2.67,1.29,4.14,3.56l1-1.11c2.54-2.72,5.67-3.34,9.15-2.42a5.86,5.86,0,0,1,4.35,4.72,12.63,12.63,0,0,1,.34,2.74c0,5.28,0,10.57,0,15.85,0,.2,0,.4-.07.73H522.4c0-.51-.09-1-.1-1.58,0-4.36,0-8.72,0-13.08a24.6,24.6,0,0,0-.16-2.76,3.74,3.74,0,0,0-3.56-3.42,5.56,5.56,0,0,0-6.27,5,22.15,22.15,0,0,0-.17,2.91c0,3.74,0,7.49,0,11.23Z"/><path class="cls-5" d="M552.92,638.16H535.33a7.49,7.49,0,0,0,5,7.79c3.63,1.06,6-.21,8.52-4.61l4.1.52c-1.13,3.88-3.38,6.37-7.12,7.36a13.2,13.2,0,0,1-7,0,9.86,9.86,0,0,1-7.29-7.4,17.38,17.38,0,0,1,.17-9.72,10.5,10.5,0,0,1,11-7.54,10.3,10.3,0,0,1,9.93,8.5A15.22,15.22,0,0,1,552.92,638.16Zm-4.41-3.48a6.21,6.21,0,0,0-6.18-6.76,6.55,6.55,0,0,0-6.78,6.76Z"/><path class="cls-5" d="M430.54,637.11a42.87,42.87,0,0,1,.56-4.25c1.27-5.53,6-8.81,11.8-8.3a10.6,10.6,0,0,1,10,9.42,20.22,20.22,0,0,1-.16,7,10.8,10.8,0,0,1-12.2,8.59c-6-.72-9.45-4.76-9.85-11.08,0-.46,0-.92,0-1.39Zm18.53,0A14.31,14.31,0,0,0,448,632a6.63,6.63,0,0,0-12.32.27,14,14,0,0,0,0,9.65,6.6,6.6,0,0,0,12.46-.14A38.81,38.81,0,0,0,449.07,637.12Z"/><path class="cls-5" d="M468.14,625.14h3.91c0,.53.08,1.07.08,1.61,0,4.82,0,9.65.09,14.47.05,3.25,2,5,5.24,4.8a5.67,5.67,0,0,0,5.61-4.76,13.78,13.78,0,0,0,.27-2.59c0-3.9,0-7.8,0-11.7,0-.56,0-1.12,0-1.79h3.85c.34,1.2.38,22.26,0,23.82H484l-.21-2.81-.39-.25a5.48,5.48,0,0,1-.64,1A9.38,9.38,0,0,1,471,648.12a6.38,6.38,0,0,1-2.7-4.48,17.19,17.19,0,0,1-.24-2.76c0-4.82,0-9.65,0-14.47C468,626,468.1,625.61,468.14,625.14Z"/><path class="cls-5" d="M417.59,643.81c1.15-3.19,2.25-6.27,3.36-9.35s2.24-6.16,3.39-9.31h4.22l-9,23.88h-4l-9-23.89h4.38Z"/><path class="cls-5" d="M457.89,616.12c.37,0,.67-.1,1-.1.92,0,1.84,0,2.72,0,.35,1.24.4,31.36.06,33-.22,0-.46.06-.71.06H458C457.71,647.86,457.58,619.43,457.89,616.12Z"/><path class="cls-4" d="M471.24,278.59h-3.83c0-.52-.08-1-.08-1.54,0-4.33,0-8.67,0-13a12.16,12.16,0,0,0-.39-3,3,3,0,0,0-2.75-2.26,5.11,5.11,0,0,0-6,4,24.13,24.13,0,0,0-.45,4.63c-.07,3.16,0,6.33,0,9.49,0,.52,0,1,0,1.64h-3.63c-.31-1-.43-19.91-.13-22.64h3.28v2.5l.24.17a8.59,8.59,0,0,1,6.83-3.29c2.8,0,5,1,6.34,3.79l1-1.11a8.38,8.38,0,0,1,9.23-2.14,5.39,5.39,0,0,1,3.41,3.73,10.57,10.57,0,0,1,.46,2.72c0,5.11,0,10.22,0,15.34,0,.28,0,.56-.07.93h-3.8c0-.6,0-1.12,0-1.64,0-4.24,0-8.47,0-12.71a16.73,16.73,0,0,0-.18-2.47,3.4,3.4,0,0,0-3-3,5.33,5.33,0,0,0-6.38,5.17c-.09,1.21-.08,2.43-.09,3.65,0,3.12,0,6.23,0,9.35Z"/><path class="cls-4" d="M504.85,264.17c.3-3.66-.94-5.21-4.34-5.58a12.24,12.24,0,0,0-1.89,0c-2.43.11-4.19,1.13-4.89,3.6a5.92,5.92,0,0,1-.33.73l-3.66-.53c.51-2.68,1.67-4.74,4.1-5.8a15.14,15.14,0,0,1,11-.51,5.37,5.37,0,0,1,3.94,5.22c.05.87.08,1.75.09,2.62,0,2.24,0,4.48,0,6.71.05,2.66-.11,5.35,1.08,8h-4l-.82-2.54c-.37.25-.72.46-1,.71a11.94,11.94,0,0,1-9.53,2.19,6.22,6.22,0,0,1-5.4-5.18,6.41,6.41,0,0,1,3.62-7,15,15,0,0,1,4.78-1.22c1.87-.27,3.75-.57,5.61-.9A17.25,17.25,0,0,0,504.85,264.17Zm.12,3.31-8.2,1.54a7.93,7.93,0,0,0-1.13.3,3.27,3.27,0,0,0-2.42,3.26,3.37,3.37,0,0,0,2.54,3.19,7.46,7.46,0,0,0,4.87-.21,5.8,5.8,0,0,0,4.14-5C504.9,269.59,504.9,268.57,505,267.49Z"/><path class="cls-4" d="M553.15,261.74l-3.58.51a4.74,4.74,0,0,1-.29-.62,4,4,0,0,0-3.74-3,15,15,0,0,0-3.61.23,3.37,3.37,0,0,0-1.61.92,2.14,2.14,0,0,0,.29,3.5,6.83,6.83,0,0,0,1.86.8c2.14.64,4.3,1.24,6.45,1.86.33.09.64.24,1,.34,5.39,1.7,5.14,8,1.73,10.75a8.59,8.59,0,0,1-3.66,1.74,14.24,14.24,0,0,1-7.77-.37,7.39,7.39,0,0,1-4.91-6.64l3.57-.52.52,1.43a4.48,4.48,0,0,0,2.93,2.84,8.61,8.61,0,0,0,5,.06,3.73,3.73,0,0,0,2.36-1.83,2.46,2.46,0,0,0-1.18-3.66,33.44,33.44,0,0,0-3.33-1.06c-1.9-.59-3.86-1-5.7-1.77a5.55,5.55,0,0,1-3.55-6.59,5.73,5.73,0,0,1,3.52-4.37,12.3,12.3,0,0,1,10.33.19C551.91,257.48,552.85,259.32,553.15,261.74Z"/><path class="cls-4" d="M531.22,261.73l-3.48.51c-.11-.1-.22-.16-.24-.24-.59-2.35-2.25-3.53-5.22-3.46a9.53,9.53,0,0,0-2.58.42,2.69,2.69,0,0,0-2.06,2.4,2.47,2.47,0,0,0,2,2.43c1.33.46,2.71.78,4.06,1.19s2.88.88,4.32,1.34c5.29,1.66,5.13,7.88,1.78,10.67a8.5,8.5,0,0,1-3.78,1.82,14.1,14.1,0,0,1-7.77-.39c-3-1.09-4.43-3.42-5-6.61l3.69-.54.47,1.33a4.6,4.6,0,0,0,3.29,3,8.86,8.86,0,0,0,4.62,0,3.83,3.83,0,0,0,2.41-1.77,2.5,2.5,0,0,0-1.16-3.77c-1.07-.45-2.22-.71-3.33-1.05-1.9-.59-3.86-1-5.7-1.78a5.55,5.55,0,0,1-3.51-6.61,5.75,5.75,0,0,1,3.55-4.35,12.27,12.27,0,0,1,10.33.22C529.88,257.45,530.8,259,531.22,261.73Z"/><path class="cls-4" d="M945.3,265.1h-3.83c0-.52-.08-1-.08-1.54,0-4.33,0-8.67,0-13a12.16,12.16,0,0,0-.39-3,3,3,0,0,0-2.75-2.26,5.11,5.11,0,0,0-6,4,24.13,24.13,0,0,0-.45,4.63c-.07,3.16,0,6.33,0,9.49,0,.52,0,1,0,1.64h-3.63c-.31-1-.43-19.91-.13-22.64h3.28v2.5l.24.17a8.59,8.59,0,0,1,6.83-3.29c2.8,0,5,1,6.34,3.79l1-1.11a8.38,8.38,0,0,1,9.23-2.14,5.39,5.39,0,0,1,3.41,3.73,10.57,10.57,0,0,1,.46,2.72c0,5.11,0,10.22,0,15.34,0,.28,0,.56-.07.93h-3.8c0-.6,0-1.12,0-1.64,0-4.24,0-8.47,0-12.71a16.73,16.73,0,0,0-.18-2.47,3.4,3.4,0,0,0-3-3,5.33,5.33,0,0,0-6.38,5.17c-.09,1.21-.08,2.43-.09,3.65,0,3.12,0,6.23,0,9.35Z"/><path class="cls-4" d="M978.92,250.69c.3-3.66-.94-5.21-4.34-5.58a12.24,12.24,0,0,0-1.89,0c-2.43.11-4.19,1.13-4.89,3.6a5.92,5.92,0,0,1-.33.73l-3.66-.53c.51-2.68,1.67-4.74,4.1-5.8a15.14,15.14,0,0,1,11-.51,5.37,5.37,0,0,1,3.94,5.22c.05.87.08,1.75.09,2.62,0,2.24,0,4.48,0,6.71.05,2.66-.11,5.35,1.08,8h-4l-.82-2.54c-.37.25-.72.46-1,.71a11.94,11.94,0,0,1-9.53,2.19,6.22,6.22,0,0,1-5.4-5.18,6.41,6.41,0,0,1,3.62-7,15,15,0,0,1,4.78-1.22c1.87-.27,3.75-.57,5.61-.9A17.25,17.25,0,0,0,978.92,250.69ZM979,254l-8.2,1.54a7.93,7.93,0,0,0-1.13.3,3.27,3.27,0,0,0-2.42,3.26,3.37,3.37,0,0,0,2.54,3.19,7.46,7.46,0,0,0,4.87-.21,5.8,5.8,0,0,0,4.14-5C979,256.1,979,255.08,979,254Z"/><path class="cls-4" d="M1027.22,248.25l-3.58.51a4.74,4.74,0,0,1-.29-.62,4,4,0,0,0-3.74-3,15,15,0,0,0-3.61.23,3.37,3.37,0,0,0-1.61.92,2.14,2.14,0,0,0,.29,3.5,6.83,6.83,0,0,0,1.86.8c2.14.64,4.3,1.24,6.45,1.86.33.09.64.24,1,.34,5.39,1.7,5.14,8,1.73,10.75a8.59,8.59,0,0,1-3.66,1.74,14.24,14.24,0,0,1-7.77-.37,7.39,7.39,0,0,1-4.91-6.64l3.57-.52.52,1.43a4.48,4.48,0,0,0,2.93,2.84,8.61,8.61,0,0,0,5,.06,3.73,3.73,0,0,0,2.36-1.83,2.46,2.46,0,0,0-1.18-3.66,33.44,33.44,0,0,0-3.33-1.06c-1.9-.59-3.86-1-5.7-1.77a5.55,5.55,0,0,1-3.55-6.59,5.73,5.73,0,0,1,3.52-4.37,12.3,12.3,0,0,1,10.33.19C1026,244,1026.91,245.83,1027.22,248.25Z"/><path class="cls-4" d="M1005.28,248.25l-3.48.51c-.11-.1-.22-.16-.24-.24-.59-2.35-2.25-3.53-5.22-3.46a9.53,9.53,0,0,0-2.58.42,2.69,2.69,0,0,0-2.06,2.4,2.47,2.47,0,0,0,2,2.43c1.33.46,2.71.78,4.06,1.19s2.88.88,4.32,1.34c5.29,1.66,5.13,7.88,1.78,10.67a8.5,8.5,0,0,1-3.78,1.82,14.1,14.1,0,0,1-7.77-.39c-3-1.09-4.43-3.42-5-6.61l3.69-.54.47,1.33a4.6,4.6,0,0,0,3.29,3,8.86,8.86,0,0,0,4.62,0,3.83,3.83,0,0,0,2.41-1.77,2.5,2.5,0,0,0-1.16-3.77c-1.07-.45-2.22-.71-3.33-1.05-1.9-.59-3.86-1-5.7-1.78a5.55,5.55,0,0,1-3.51-6.61,5.75,5.75,0,0,1,3.55-4.35,12.27,12.27,0,0,1,10.33.22C1003.95,244,1004.87,245.47,1005.28,248.25Z"/><path class="cls-1" d="M109.1,258.84V248h3.66c.28,1.06.4,28.78.11,31.49l-1.66,0h-1.76l-.14-2.52a5.06,5.06,0,0,0-.62.49c-2.2,2.5-5,2.9-8,2.16a9.05,9.05,0,0,1-6.52-6,15.87,15.87,0,0,1,.39-12.41,8.91,8.91,0,0,1,10.65-4.84,7.74,7.74,0,0,1,2,.93A23.21,23.21,0,0,1,109.1,258.84Zm.31,9.42a11.56,11.56,0,0,0-.9-5.33,5.7,5.7,0,0,0-5.07-3.66,5.63,5.63,0,0,0-5.74,4.33,14.68,14.68,0,0,0,0,8.39A7.33,7.33,0,0,0,99,274.55a5.53,5.53,0,0,0,9.44-1.18A10.38,10.38,0,0,0,109.4,268.25Z"/><path class="cls-1" d="M138.73,269H121.91a7.16,7.16,0,0,0,4.74,7.41c3.38,1,5.64-.15,8.16-4.36l3.84.47a9.8,9.8,0,0,1-2.67,4.83c-3.44,3.52-12,3.69-15.65-.89a10.56,10.56,0,0,1-2.21-4.73,16.8,16.8,0,0,1,.64-9.37A10,10,0,0,1,128,256c5.73-.24,10.34,3.64,10.77,10.15C138.78,267,138.73,267.91,138.73,269Zm-4.14-3.33c-.09-4.32-3.21-6.62-6.58-6.43a6.27,6.27,0,0,0-5.88,6.43Z"/><path class="cls-1" d="M166.68,272.59c.56-.11,1.12-.25,1.7-.34s1.16-.13,1.83-.2c.15.41.3.81.43,1.2a4.59,4.59,0,0,0,3.37,3.16,9.05,9.05,0,0,0,4.64,0,3.84,3.84,0,0,0,2.33-1.67,2.51,2.51,0,0,0-1.13-3.89,32.79,32.79,0,0,0-3.21-1c-2-.6-4-1.08-5.87-1.83a5.54,5.54,0,0,1-3.55-6.36,5.63,5.63,0,0,1,3.24-4.44,12.07,12.07,0,0,1,11.14.25c1.94,1,2.69,2.81,3,5l-3.49.49c-.16-.14-.26-.19-.29-.27-.92-2.5-2.17-3.41-4.82-3.41a10,10,0,0,0-2.6.3,4.16,4.16,0,0,0-1.73,1,2.14,2.14,0,0,0,.3,3.41,6.66,6.66,0,0,0,1.86.83c2,.61,4,1.16,6.05,1.74.47.13.93.29,1.39.45,2.17.77,3.77,2.09,4.14,4.49a6.49,6.49,0,0,1-2.44,6.38,7.79,7.79,0,0,1-2.15,1.24,13.51,13.51,0,0,1-9.47,0A7.15,7.15,0,0,1,166.68,272.59Z"/><path class="cls-1" d="M211.87,288.14l-.43-3.43,1.66.16c2.32.19,3.47-.5,4.35-2.62,1.1-2.62,1.1-2.62.1-5.25l-7.09-18.77c-.19-.49-.33-1-.54-1.61h4.18l6.32,17.73,6.42-17.71h3.77a6.1,6.1,0,0,1-.19,1q-4.56,12.21-9.16,24.41a22.08,22.08,0,0,1-1.68,3.57C217.85,288.47,215.25,289.33,211.87,288.14Z"/><path class="cls-1" d="M162,279.43h-3.82v-1.62q0-6.16,0-12.33c0-.34,0-.69,0-1,.11-4.74-3.69-5.63-6.63-4.76-2.46.72-3.83,2.51-4,5.38-.14,3.08-.12,6.16-.15,9.24,0,1.66,0,3.31,0,5.17h-3.82V256.65c.38,0,.71-.09,1-.1.72,0,1.45,0,2.33,0v3c.54-.53.85-.81,1.13-1.11,2.91-3.11,8.53-3,11.5-.83a6.23,6.23,0,0,1,2.34,4.25,13.1,13.1,0,0,1,.15,2q0,7.19,0,14.38C162.06,278.62,162,279,162,279.43Z"/><path class="cls-1" d="M200.42,259.55h-2.68v-2.9l1.25-.1,1.39-.09V251l3.85-2.34c.27,2.7,0,5.22.21,7.86h3.75v3h-3.6a3.66,3.66,0,0,0-.22.8q0,6.52,0,13a8.15,8.15,0,0,0,.08,1,1.63,1.63,0,0,0,1.82,1.66c.63,0,1.25,0,2,0l.5,3.27a9,9,0,0,1-5.53,0,3.52,3.52,0,0,1-2.58-3.23c-.11-1.41-.23-2.82-.25-4.24,0-3.57,0-7.13,0-10.7Z"/><path class="cls-1" d="M190.2,256.62h3.64v22.87h-3.45C190,278.39,189.88,260.23,190.2,256.62Z"/><path class="cls-1" d="M193.87,247.93v4.21a11.43,11.43,0,0,1-3.68.08v-4.3Z"/><path class="cls-6" d="M478.79,596.3a2.45,2.45,0,0,1-1.75-.73l-7.66-7.69a2.47,2.47,0,1,1,3.5-3.49l3.43,3.45V559.09a2.47,2.47,0,1,1,4.94,0v28.74l3.43-3.45a2.47,2.47,0,1,1,3.5,3.49l-7.65,7.69a2.46,2.46,0,0,1-1.75.73Z"/><path d="M478.79,557.62a1.47,1.47,0,0,1,1.47,1.47v31.17l5.14-5.16a1.47,1.47,0,0,1,2.09,2.08l-7.65,7.69h0a1.47,1.47,0,0,1-2.08,0h0l-7.65-7.69a1.47,1.47,0,0,1,2.09-2.08l5.14,5.16V559.09a1.47,1.47,0,0,1,1.47-1.47m0-2a3.48,3.48,0,0,0-3.47,3.47v26.32l-1.72-1.73a3.47,3.47,0,0,0-4.92,4.9l7.57,7.61,0,.06.1.09a3.47,3.47,0,0,0,4.85-.06l7.66-7.69a3.47,3.47,0,0,0-4.92-4.9l-1.72,1.73V559.09a3.48,3.48,0,0,0-3.47-3.47Z"/><path class="cls-6" d="M478.79,345.52a2.47,2.47,0,0,1-2.47-2.47V314.31l-3.43,3.45a2.46,2.46,0,0,1-1.75.73h0a2.47,2.47,0,0,1-1.75-4.22l7.65-7.69a2.47,2.47,0,0,1,3.5,0l7.66,7.69a2.47,2.47,0,1,1-3.5,3.49l-3.43-3.45V343A2.47,2.47,0,0,1,478.79,345.52Z"/><path d="M478.79,306.85a1.47,1.47,0,0,1,1,.43h0l7.65,7.69A1.47,1.47,0,0,1,485.4,317l-5.14-5.16V343a1.47,1.47,0,0,1-2.94,0V311.88L472.18,317a1.47,1.47,0,0,1-2.09-2.08l7.65-7.69h0a1.47,1.47,0,0,1,1-.43m0-2a3.45,3.45,0,0,0-2.4,1h0l-.05.05,0,0h0l-7.61,7.65a3.47,3.47,0,0,0,4.92,4.9l1.72-1.73V343a3.47,3.47,0,0,0,6.94,0V316.73l1.72,1.73a3.47,3.47,0,0,0,4.92-4.9l-7.61-7.65,0,0-.05,0a3.45,3.45,0,0,0-2.41-1Z"/><path class="cls-6" d="M230.35,345.52a2.48,2.48,0,0,1-2.14-1.23L213.82,319.4l-1.24,4.7a2.47,2.47,0,0,1-2.39,1.84h0a2.49,2.49,0,0,1-.63-.08,2.47,2.47,0,0,1-1.76-3l2.74-10.36v-.87h.37a2.47,2.47,0,0,1,2.69-1l10.48,2.83a2.47,2.47,0,0,1-1.29,4.77l-4.69-1.27,14.39,24.88a2.47,2.47,0,0,1-2.14,3.71Z"/><path d="M213,311.51a1.47,1.47,0,0,1,.38.05h0l10.47,2.83a1.47,1.47,0,1,1-.77,2.84l-7-1.9,15.6,27a1.47,1.47,0,1,1-2.55,1.47l-15.6-27-1.86,7a1.47,1.47,0,0,1-2.85-.75l2.78-10.49h0a1.47,1.47,0,0,1,1.42-1.09m0-2a3.48,3.48,0,0,0-3.33,2.5h0l0,.07v.08h0l-2.76,10.41a3.47,3.47,0,1,0,6.71,1.78l.62-2.36,13.18,22.79a3.47,3.47,0,1,0,6-3.48l-13.18-22.79,2.35.64a3.47,3.47,0,0,0,1.81-6.7l-10.42-2.81-.07,0h-.07a3.47,3.47,0,0,0-.81-.1Z"/><rect class="cls-6" x="134.97" y="130.86" width="409.69" height="48.33" rx="12.9" ry="12.9"/><rect class="cls-6" x="774.97" y="573.68" width="412.58" height="96.16" rx="12.9" ry="12.9"/><text class="cls-7" transform="translate(159.05 165.43)"><tspan class="cls-8">density </tspan><tspan class="cls-9" x="109.8" y="0">= mass</tspan></text><text class="cls-7" transform="translate(797.05 612.3)"><tspan class="cls-8">mass </tspan><tspan class="cls-9" x="84.36" y="0">= density</tspan></text><text class="cls-7" transform="translate(797.05 654.32)"><tspan class="cls-10">v</tspan><tspan class="cls-8" x="15.28" y="0">olume </tspan><tspan class="cls-9" x="110.47" y="0">= mass</tspan></text><text class="cls-11" transform="translate(410.27 165.43)"><tspan class="cls-12">v</tspan><tspan x="15.59" y="0">olumne</tspan></text><path class="cls-13" d="M381.78,157.54h19.14a1.3,1.3,0,0,0,0-2.61H381.78a1.3,1.3,0,1,0,0,2.61Z"/><path class="cls-13" d="M391.31,151.67a3.23,3.23,0,1,0-3.23-3.23A3.23,3.23,0,0,0,391.31,151.67Z"/><path class="cls-13" d="M394.54,162.79a3.23,3.23,0,1,0-3.23,3.23A3.23,3.23,0,0,0,394.54,162.79Z"/><text class="cls-11" transform="translate(1051.42 615.5)"><tspan class="cls-12">v</tspan><tspan x="15.59" y="0">olumne</tspan></text><text class="cls-14" transform="translate(1013.44 440.16)"><tspan class="cls-12">v</tspan><tspan x="15.59" y="0">olumne</tspan></text><text class="cls-11" transform="translate(1051.42 654.32)">density</text><text class="cls-15" transform="translate(832.09 440.16)">density</text><path class="cls-13" d="M1022.93,648.16h19.14a1.3,1.3,0,0,0,0-2.61h-19.14a1.3,1.3,0,0,0,0,2.61Z"/><path class="cls-13" d="M1032.46,642.29a3.23,3.23,0,1,0-3.23-3.23A3.23,3.23,0,0,0,1032.46,642.29Z"/><path class="cls-13" d="M1035.69,653.42a3.23,3.23,0,1,0-3.23,3.23A3.23,3.23,0,0,0,1035.69,653.42Z"/><path class="cls-13" d="M1024,611.91a1.34,1.34,0,0,0,1.9,0l6.18-6.18,6.18,6.18a1.34,1.34,0,1,0,1.9-1.9l-6.18-6.18,5.86-5.86a1.34,1.34,0,0,0-1.9-1.9l-5.86,5.86-5.86-5.86a1.34,1.34,0,0,0-1.9,1.9l5.86,5.86L1024,610A1.34,1.34,0,0,0,1024,611.91Z"/></svg>