<svg xmlns="http://www.w3.org/2000/svg" xmlns:xlink="http://www.w3.org/1999/xlink" width="512" height="358" viewBox="0 0 512 358">
  <defs>
    <clipPath id="clip-displace-distance">
      <rect width="512" height="358"/>
    </clipPath>
  </defs>
  <g id="displace-distance" clip-path="url(#clip-displace-distance)">
    <g id="displace-distance-2" data-name="displace-distance" transform="translate(23.2 -502.5)">
      <path id="Path_1037" data-name="Path 1037" d="M53.6,680.288s60.875-54.709,113.354-52.216c45.919,2.23,74.913,39.621,109.943,12.988s27.158-91.05,77.406-101.94c71.24-15.35,110.336,104.432,72.42,160.453-36.6,54.053-70.846-14.825-145.759,42.245-50.511,38.441-68.091,56.939-68.091,56.939" transform="translate(17.72 7.261)" fill="none" stroke="#16d2c5" stroke-width="2.87"/>
      <path id="Path_1038" data-name="Path 1038" d="M223.454,810.435c8-8.134,39.49-36.473,64.417-55.5,35.423-27.026,51.691-18.892,76.619-18.105,12.464.394,24.8,1.05,37.26-2.624,12.464-3.542,24.534-11.939,34.636-26.9,20.335-30.044,20.6-72.814,8.4-109.024-6.166-18.105-15.481-34.636-28.207-47.1S387.58,530.462,369.081,530.2a66.283,66.283,0,0,0-15.088,1.574,60.648,60.648,0,0,0-33.717,19.942c-8,9.315-13.12,20.2-17.711,30.962-8.921,21.516-15.744,42.114-29.913,52.872-7.347,5.641-13.382,7.347-19.811,7.478s-13.644-1.574-21.91-4.592c-16.4-5.9-36.473-16.662-61.925-17.843-29.782-1.443-59.3,12.726-81.867,26.633A300.855,300.855,0,0,0,48.7,675.3" transform="translate(16.191 4.898)" fill="none" stroke="#0084c8" stroke-width="1.92" stroke-dasharray="7.7 7.7"/>
      <path id="Path_1039" data-name="Path 1039" d="M55.6,647.9,204.77,765.977" transform="translate(18.343 41.616)" fill="none" stroke="#000" stroke-width="1.99"/>
      <text id="Displacement" transform="translate(98.898 696.321) rotate(39.101)" font-size="23" font-family="ComicSansMS, Comic Sans MS"><tspan x="0" y="0">Displacement</tspan></text>
      <g id="Group_24" data-name="Group 24" transform="translate(298.464 514.5)">
        <path id="Path_1040" data-name="Path 1040" d="M238.5,548.406a11.475,11.475,0,0,0-2.23-1.312,7.831,7.831,0,0,0-2.493-.394,4.232,4.232,0,0,0-2.362.787,6.007,6.007,0,0,0-2.1,2.1,14.632,14.632,0,0,0-1.05,1.968q-.394.918-.656,1.574a10.358,10.358,0,0,0-.394,1.574,12.127,12.127,0,0,1-.394,1.443,2.208,2.208,0,0,0,.262,1.837,2.529,2.529,0,0,0,1.312,1.05l9.84,7.741,1.05.787a6.9,6.9,0,0,0,1.05.656,1.2,1.2,0,0,0,.918.131,1.058,1.058,0,0,0,.787-.525,14.56,14.56,0,0,0,.918-1.968,13.779,13.779,0,0,0,.787-3.017,23.275,23.275,0,0,0,.262-3.542,20.024,20.024,0,0,0-.394-3.936,15.907,15.907,0,0,0-1.574-3.8,15.66,15.66,0,0,0-3.018-3.411Zm-1.574,2.362a9.333,9.333,0,0,1,2.755,3.411,9.911,9.911,0,0,1,1.05,3.8,14.426,14.426,0,0,1-.787,6.953l-10.5-8.265a9.691,9.691,0,0,1,.394-2.493,10.917,10.917,0,0,1,1.181-2.755,4.64,4.64,0,0,1,1.312-1.312,3.493,3.493,0,0,1,1.574-.394,4.953,4.953,0,0,1,1.574.262,4.646,4.646,0,0,1,1.443.787Z" transform="translate(-226.733 -504.455)" fill="#0084c8"/>
        <path id="Path_1041" data-name="Path 1041" d="M236.793,541.494a1.259,1.259,0,0,0-.918-.394,1.422,1.422,0,0,0-1.05.656,2.821,2.821,0,0,0-.525,1.574q0,.787,1.181,1.706a1.645,1.645,0,0,0,.656.394h.787a1.46,1.46,0,0,0,.656-.131.42.42,0,0,0,.394-.262,2.5,2.5,0,0,0,.525-1.837,3.576,3.576,0,0,0-.918-1.574Zm11.676,10.889-6.3-5.51q-.787-.656-1.181-1.05a1.134,1.134,0,0,0-.787-.394h-.525a.858.858,0,0,0-.394.394,3.412,3.412,0,0,0-.525.918v.787a1.749,1.749,0,0,0,.656.787,13.007,13.007,0,0,0,1.05.918l6.3,5.379a4.3,4.3,0,0,1,.656.525,1.645,1.645,0,0,0,.656.394h.525q.262,0,.656-.525a1.134,1.134,0,0,0,.394-.787v-.656a1.264,1.264,0,0,0-.525-.656,2.343,2.343,0,0,0-.656-.656Z" transform="translate(-224.373 -506.202)" fill="#0084c8"/>
        <path id="Path_1042" data-name="Path 1042" d="M253.691,538.827a2.033,2.033,0,0,0-1.181-.787,1.91,1.91,0,0,0-1.181-.131,1.745,1.745,0,0,0-1.05.394,3.5,3.5,0,0,0-.918.656,11.8,11.8,0,0,0-1.181,1.706,13.546,13.546,0,0,0-.918,1.968q-.394.918-.656,1.706a2.848,2.848,0,0,1-.525,1.049q-.394.394-.525.394a.378.378,0,0,1-.262-.131,2,2,0,0,1-.525-1.05v-1.706a11.516,11.516,0,0,1,.787-1.968,10.541,10.541,0,0,1,1.574-2.23l.262-.262a.858.858,0,0,0,.394-.394l.525-.525a2.056,2.056,0,0,0,.394-.525,1.632,1.632,0,0,0,0-.918,1.264,1.264,0,0,0-.525-.656,2.1,2.1,0,0,0-1.05,0,2.422,2.422,0,0,0-1.312.918,17.108,17.108,0,0,0-1.968,2.755,15.382,15.382,0,0,0-1.181,3.149,9.025,9.025,0,0,0-.262,3.018,4.5,4.5,0,0,0,1.181,2.624,3.052,3.052,0,0,0,.787.525,1.616,1.616,0,0,0,.918.262,3.222,3.222,0,0,0,1.181-.262,4.827,4.827,0,0,0,1.181-.918,8.1,8.1,0,0,0,.918-1.443l.787-1.837q.394-.918.656-1.706a4.6,4.6,0,0,1,.656-1.312.756.756,0,0,1,.525-.262,1.461,1.461,0,0,1,.656.131,2.35,2.35,0,0,1,.656,1.312,7.4,7.4,0,0,1,0,1.968,4.658,4.658,0,0,1-.525,2.1,5.1,5.1,0,0,1-1.181,1.837,3.08,3.08,0,0,1-1.05.656,12.453,12.453,0,0,1-1.837.525.756.756,0,0,0-.525.262l-.525.525a1.828,1.828,0,0,0-.131.787.89.89,0,0,0,.262.656,1.382,1.382,0,0,0,1.181.525,4.953,4.953,0,0,0,1.574-.262,6.625,6.625,0,0,0,1.574-.787,5.735,5.735,0,0,0,1.312-1.181,9.754,9.754,0,0,0,1.706-2.755,10.405,10.405,0,0,0,.787-3.149,8.652,8.652,0,0,0-.262-3.017,5.2,5.2,0,0,0-1.312-2.362Z" transform="translate(-221.854 -507.996)" fill="#0084c8"/>
        <path id="Path_1043" data-name="Path 1043" d="M263.332,535.615v.918a3.223,3.223,0,0,1-.262,1.181,3.265,3.265,0,0,1-.394,1.443,4.645,4.645,0,0,1-.787,1.443,3.873,3.873,0,0,1-1.05,1.312,1.647,1.647,0,0,1-.656.394,1.706,1.706,0,0,1-1.312,0,1.749,1.749,0,0,1-.787-.656l-5.773-7.347-.656.918q-1.312,1.181-1.837.525a1.259,1.259,0,0,1-.394-.918,2.353,2.353,0,0,1,.394-1.181l1.05-1.312-1.312-1.706q-1.312-1.574,0-2.624a.756.756,0,0,1,.525-.262h.525q.262,0,.525.394l.525.525,1.05,1.312,2.23-2.624a2.139,2.139,0,0,1,.656-.787.756.756,0,0,1,.525-.262.535.535,0,0,1,.394.131.857.857,0,0,1,.394.394.664.664,0,0,1,.262.787,3.615,3.615,0,0,1-.656,1.443l-2.362,2.886,4.985,6.429q.131.262.262.262a.378.378,0,0,0,.262-.131,1.135,1.135,0,0,0,.525-.918V536.8a2.329,2.329,0,0,1,.262-1.05,1.98,1.98,0,0,1,.656-.787,1.616,1.616,0,0,1,.918-.262,1.135,1.135,0,0,1,.918.525Z" transform="translate(-219.818 -510.819)" fill="#0084c8"/>
        <path id="Path_1044" data-name="Path 1044" d="M273.507,529.546l-4.2-7.609a4.284,4.284,0,0,0-1.05-1.312,2.957,2.957,0,0,0-1.05-.525,4.313,4.313,0,0,0-1.05.131,2.913,2.913,0,0,0-.918.394,17.138,17.138,0,0,0-2.886,2.362,10.917,10.917,0,0,0-2.23,3.149q0,.131-.262.394a1.525,1.525,0,0,0-.262.394v.525a1.164,1.164,0,0,0,.131.525q.262.656.656.525a1.134,1.134,0,0,0,.787-.394,5.213,5.213,0,0,0,.656-.787,3.038,3.038,0,0,1,.394-.656,9.853,9.853,0,0,0,.918-1.05l.787-1.05a7.882,7.882,0,0,1,1.706-1.706l.262-.131a1.008,1.008,0,0,0,.394-.131h.394q.131,0,.262.262l.787,1.443a24.984,24.984,0,0,0-3.149,2.624,11.88,11.88,0,0,0-2.23,2.624,8.247,8.247,0,0,0-1.05,2.624,5.505,5.505,0,0,0,.394,2.624,4.112,4.112,0,0,0,.787,1.05,3.494,3.494,0,0,0,1.181.787,3.851,3.851,0,0,0,1.443.262,2.125,2.125,0,0,0,1.312-.394,8.074,8.074,0,0,0,1.706-1.312q.787-.787,1.443-1.574a8.21,8.21,0,0,0,1.05-1.574l.787-1.181a1.275,1.275,0,0,1,.262.656,1.526,1.526,0,0,0,.262.394.558.558,0,0,0,.525,0,1.593,1.593,0,0,0,.787-.394q.787-.525.787-1.05a3.23,3.23,0,0,0-.525-1.443Zm-3.542-1.312-.131.525q-.131.394-.394,1.05a9.185,9.185,0,0,1-.656,1.312,8.1,8.1,0,0,1-.918,1.443,14.315,14.315,0,0,1-1.05,1.181,3.494,3.494,0,0,1-1.181.787h-.787a1.275,1.275,0,0,1-.656-.262,2.344,2.344,0,0,1-.656-.656,2.046,2.046,0,0,1,0-1.443,14.622,14.622,0,0,1,1.05-1.968q.787-1.05,1.706-2.1,1.05-1.05,2.1-1.968Z" transform="translate(-216.48 -512.753)" fill="#0084c8"/>
        <path id="Path_1045" data-name="Path 1045" d="M283.864,524.484l.262,1.312a1.663,1.663,0,0,1,0,1.574,1.2,1.2,0,0,1-.918.787,2.619,2.619,0,0,1-1.181,0,2.246,2.246,0,0,1-.656-1.312l-1.837-8a1.007,1.007,0,0,0-.131-.394.259.259,0,0,0-.394-.131l-.656.262a2.956,2.956,0,0,0-1.05.525,6.9,6.9,0,0,0-1.312,1.05,4.983,4.983,0,0,0-1.181,1.443l1.312,7.085a1.164,1.164,0,0,0,.131.525v.656a1.074,1.074,0,0,1-.394.656,4.3,4.3,0,0,1-.656.525.866.866,0,0,1-.918,0,1.274,1.274,0,0,1-.525-.787v-.787q-.394-1.837-.656-2.755t-.394-1.443a2.906,2.906,0,0,0-.131-.918,3.023,3.023,0,0,0-.262-1.05l-.787-3.542a1.705,1.705,0,0,1,0-1.312,2.041,2.041,0,0,1,1.05-1.05,2.012,2.012,0,0,1,.787-.262h.394l.131.394a.42.42,0,0,0,.262.394l.262.525q.394-.263,1.05-.656.656-.525,1.443-1.05t1.443-.918a4.47,4.47,0,0,1,1.181-.525h.787a1.617,1.617,0,0,1,.918.262,2.064,2.064,0,0,1,.787.525,1.663,1.663,0,0,1,.394.787Z" transform="translate(-212.799 -514.25)" fill="#0084c8"/>
        <path id="Path_1046" data-name="Path 1046" d="M295.78,524.077l-1.05,1.181a6.36,6.36,0,0,1-.787.918,8.6,8.6,0,0,1-1.312,1.05,15.27,15.27,0,0,1-1.968.787,8.262,8.262,0,0,1-2.624.394,5.284,5.284,0,0,1-2.1-.394,3.873,3.873,0,0,1-1.312-1.049,4.44,4.44,0,0,1-.787-1.574,4.367,4.367,0,0,1-.131-1.837,7.521,7.521,0,0,1,.787-3.411,11.675,11.675,0,0,1,1.837-2.886,6.739,6.739,0,0,1,2.493-1.968,5.981,5.981,0,0,1,2.886-.787,14.98,14.98,0,0,1,2.1.131,4.189,4.189,0,0,1,1.837.787,2.543,2.543,0,0,1,.918,1.181,1.617,1.617,0,0,1-.262.918,1.8,1.8,0,0,1-.918.394,2.6,2.6,0,0,1-1.181-.262,1.363,1.363,0,0,0-.918-.525,8.149,8.149,0,0,0-1.574-.131,3.015,3.015,0,0,0-1.706.525,7.868,7.868,0,0,0-1.574,1.443,6.207,6.207,0,0,0-1.181,2.1,6.07,6.07,0,0,0-.525,2.493v.918a1.411,1.411,0,0,0,.262.787,1.265,1.265,0,0,0,.656.525,1.616,1.616,0,0,0,.918.262,5.361,5.361,0,0,0,1.706-.262,7.252,7.252,0,0,0,1.443-.656,3.61,3.61,0,0,0,1.05-.918,2.585,2.585,0,0,0,.656-.918l.131-.262a.42.42,0,0,1,.262-.394,2.055,2.055,0,0,1,.525-.394,2.252,2.252,0,0,1,.918-.131q1.181,0,1.181.787a3.608,3.608,0,0,1-.656,1.837Z" transform="translate(-208.972 -514.5)" fill="#0084c8"/>
        <path id="Path_1047" data-name="Path 1047" d="M307.585,519.647a2.267,2.267,0,0,1-1.181,1.574,9.3,9.3,0,0,1-2.493,1.05,27.126,27.126,0,0,1-3.28.656q-1.706.262-3.411.394v1.312a1.617,1.617,0,0,0,.262.918l.394.394.525.262h1.968a6.959,6.959,0,0,0,1.443-.394q.656-.262,1.443-.656a9.185,9.185,0,0,1,1.312-.656,1.423,1.423,0,0,0,.525-.262H306.4a.606.606,0,0,1,.656.394,2.1,2.1,0,0,1,0,1.05q0,.394-.918,1.05a11.647,11.647,0,0,1-2.1,1.05,14.272,14.272,0,0,1-2.755.787,8.737,8.737,0,0,1-3.017,0,4.434,4.434,0,0,1-3.018-1.574,5.153,5.153,0,0,1-.525-3.8,9.272,9.272,0,0,1,1.181-3.149,10.651,10.651,0,0,1,2.1-2.624,8.133,8.133,0,0,1,2.886-1.706,6.37,6.37,0,0,1,3.411-.394,2.442,2.442,0,0,1,1.574.525,3.265,3.265,0,0,1,1.181.918,2.35,2.35,0,0,1,.656,1.312,4.756,4.756,0,0,1,0,1.574Zm-2.755-.787a2.115,2.115,0,0,0-.262-.918,1.382,1.382,0,0,0-1.181-.525,8.833,8.833,0,0,0-1.443.131,12.022,12.022,0,0,0-1.574.656,4.526,4.526,0,0,0-1.443,1.181,4.962,4.962,0,0,0-1.05,1.574,2.907,2.907,0,0,0,.918.131,6.674,6.674,0,0,0,1.312-.131,6.959,6.959,0,0,0,1.443-.394q.787-.262,1.443-.525a5.134,5.134,0,0,0,1.181-.656,7.94,7.94,0,0,0,.656-.525Z" transform="translate(-205.558 -514.268)" fill="#0084c8"/>
      </g>
      <path id="Path_1048" data-name="Path 1048" d="M92.2,611.919S125,592.9,147.565,594.076s50.511,13.251,68.747,18.63,25.321,9.184,36.079,4.067c10.889-5.117,21.254-38.44,24.927-50.773" transform="translate(29.761 16.066)" fill="none"/>
      <path id="Path_1049" data-name="Path 1049" d="M236.6,577.609s28.863-52.347,64.286-53.4,67.566,14.563,75.044,36.473" transform="translate(74.809 3.014)" fill="none"/>
      <text id="Start" transform="translate(-3.2 680.451)" fill="#16d2c5" font-size="29" font-family="ComicSansMS, Comic Sans MS"><tspan x="0" y="0">Start</tspan></text>
      <text id="End" transform="translate(180.606 838.543)" fill="#16d2c5" font-size="29" font-family="ComicSansMS, Comic Sans MS"><tspan x="0" y="0">End</tspan></text>
    </g>
    <rect id="Rectangle_141" data-name="Rectangle 141" width="121" height="73" rx="10" transform="translate(366 279)" fill="#0084c8"/>
    <path id="Icon_awesome-long-arrow-alt-right" data-name="Icon awesome-long-arrow-alt-right" d="M4.8,17.254l-64.067-.28a1.2,1.2,0,0,0-1.2,1.2V23.76a1.2,1.2,0,0,0,1.2,1.2l64.067.28v4.6a2.4,2.4,0,0,0,4.089,1.694l8.588-8.588a2.4,2.4,0,0,0,0-3.387L8.884,10.964A2.4,2.4,0,0,0,4.8,12.658Z" transform="translate(447.475 280.409)" fill="#fff"/>
    <text id="Path_Taken" data-name="Path Taken" transform="translate(373 338)" fill="#fff" font-size="20" font-family="ComicSansMS, Comic Sans MS"><tspan x="0" y="0">Path Taken</tspan></text>
  </g>
</svg>
