<svg xmlns="http://www.w3.org/2000/svg" width="18322" height="2164.777" viewBox="0 0 18322 2164.777">
  <g id="e7a28771fd808a97c21dccc3129e3f78b79f4ede" transform="translate(-94 750)">
    <path id="Path_728" data-name="Path 728" d="M94-250a822.51,822.51,0,0,1,10-131q10-62,23-107a418.739,418.739,0,0,1,37-88q24-43,38-67t42-52q28-28,33-34t25-21h17q14,0,14,9,0,3-17,21t-41,53q-24,35-49,86T184-443q-17,87-17,193T184-58q17,86,41,139t49,86q25,33,42,53t17,21q0,9-15,9H302l-28-24Q180,141,137,14T94-250Z" fill="#0975b7" stroke="#000" stroke-width="0"/>
    <path id="Path_729" data-name="Path 729" d="M33-157q0-101,76-192t171-92q51,0,90,49,16-30,46-30a35.78,35.78,0,0,1,23,8q10,8,10,20,0,13-37,160T374-68q0,25,7,33t21,9q9-1,20-9,21-20,41-96,6-20,10-21,2-1,10-1h4q19,0,19,9,0,6-5,27T481-63q-15,33-32,50A98.88,98.88,0,0,1,417,8q-8,2-24,2-34,0-57-15T306-36l-6-15q-1-1-4,1l-4,4Q233,10,172,10q-55,0-97-40T33-157ZM351-328q0-6-5-22t-23-35q-18-19-46-20-35,0-67,31t-50,81a798.345,798.345,0,0,0-41,164v11a53.305,53.305,0,0,1-1,12q0,45,18,62a64.4,64.4,0,0,0,43,18q38,0,75-33t44-51q2-4,27-107T351-328Z" transform="translate(389)" fill="#0975b7" stroke="#000" stroke-width="0"/>
    <path id="Path_730" data-name="Path 730" d="M56-237v-13l14-20H369V-420l1-150q10-13,19-13,13,0,20,15v298H707q15,8,15,20t-15,20H409V68q-8,14-18,14h-4q-12,0-18-14V-230H70q-14-7-14-20Z" transform="translate(1141)" fill="#0975b7" stroke="#000" stroke-width="0"/>
    <path id="Path_731" data-name="Path 731" d="M73-647q0-10,4-23t12-13q1,0,72-5t73-6q12,0,12,9T212-542q-8,34-17,70t-15,54l-4,19q0,3,6-3,49-40,101-40,62,0,100,46t39,116q0,111-79,201T173,11q-50,0-91-38T40-150v-9q0-21,8-58T97-414q50-197,50-209t-38-14H83q-3,0-7-3T73-647ZM336-325v-6q0-74-61-74-17,0-35,8a131.971,131.971,0,0,0-33,21q-15,13-26,24a130.628,130.628,0,0,0-18,22l-6,8-21,86q-22,86-22,122,0,48,24,72,16,16,40,16,33,0,67-32,25-23,40-56t33-105Q336-291,336-325Z" transform="translate(2141)" fill="#0975b7" stroke="#000" stroke-width="0"/>
    <path id="Path_732" data-name="Path 732" d="M60-749l4-1H86l28,24q94,85,137,212t43,264a834.819,834.819,0,0,1-10,131Q274-56,261-12a450.4,450.4,0,0,1-37,88q-24,44-38,67t-41,51q-27,28-32,33T90,246l-4,4H63a5.876,5.876,0,0,1-5-3q-2-3-3-9,1-1,11-13Q221,64,221-250T66-725q-10-12-11-13Q55-746,60-749Z" transform="translate(2571)" fill="#0975b7" stroke="#000" stroke-width="0"/>
    <path id="Path_733" data-name="Path 733" d="M94-250a822.51,822.51,0,0,1,10-131q10-62,23-107a418.739,418.739,0,0,1,37-88q24-43,38-67t42-52q28-28,33-34t25-21h17q14,0,14,9,0,3-17,21t-41,53q-24,35-49,86T184-443q-17,87-17,193T184-58q17,86,41,139t49,86q25,33,42,53t17,21q0,9-15,9H302l-28-24Q180,141,137,14T94-250Z" transform="translate(2960)" fill="#0975b7" stroke="#000" stroke-width="0"/>
    <path id="Path_734" data-name="Path 734" d="M34-159q0-109,86-196t186-87q56,0,88,24t33,63q0,29-19,49t-48,21q-19,0-30-10t-11-30q0-20,11-34t22-21q11-7,14-6h1q0-2-6-6t-21-8a132.2,132.2,0,0,0-34-4,122.145,122.145,0,0,0-57,14q-21,9-43,31-44,44-64,124T121-119q0,46,26,69,22,24,58,24h4q112,0,185-85,9-10,12-10,4,0,13,9t10,14q1,5-9,15T391-55a165.807,165.807,0,0,1-45,30Q320-13,282,0a213.548,213.548,0,0,1-80,11Q127,11,81-37T34-159Z" transform="translate(3350)" fill="#0975b7" stroke="#000" stroke-width="0"/>
    <path id="Path_735" data-name="Path 735" d="M56-237v-13l14-20H369V-420l1-150q10-13,19-13,13,0,20,15v298H707q15,8,15,20t-15,20H409V68q-8,14-18,14h-4q-12,0-18-14V-230H70q-14-7-14-20Z" transform="translate(4006)" fill="#0975b7" stroke="#000" stroke-width="0"/>
    <path id="Path_736" data-name="Path 736" d="M366-683q1,0,72-5t73-6q12,0,12,8,0,7-73,302T375-83q-2,6-1,15,0,42,28,42,9-1,20-9,21-20,41-96,6-20,10-21,2-1,10-1h8q15,0,15,8,0,5-3,16-13,50-30,81T445-8Q434,1,417,8q-8,2-24,2-34,0-57-15T306-36l-6-15q-1-1-4,1l-4,4Q233,10,172,10q-55,0-97-40T33-157q0-48,20-98t48-86q47-57,94-79t85-22q56,0,84,42,5,6,5,4,1-4,27-109t28-111q0-13-7-16t-39-5H357q-6-6-6-8t2-19Q358-683,366-683ZM352-326q-23-79-75-79-35,0-67,31t-50,81a798.345,798.345,0,0,0-41,164v11a53.305,53.305,0,0,1-1,12q0,45,18,62a64.4,64.4,0,0,0,43,18q54,0,111-72l8-11Z" transform="translate(5006)" fill="#0975b7" stroke="#000" stroke-width="0"/>
    <path id="Path_737" data-name="Path 737" d="M60-749l4-1H86l28,24q94,85,137,212t43,264a834.819,834.819,0,0,1-10,131Q274-56,261-12a450.4,450.4,0,0,1-37,88q-24,44-38,67t-41,51q-27,28-32,33T90,246l-4,4H63a5.876,5.876,0,0,1-5-3q-2-3-3-9,1-1,11-13Q221,64,221-250T66-725q-10-12-11-13Q55-746,60-749Z" transform="translate(5530)" fill="#0975b7" stroke="#000" stroke-width="0"/>
    <path id="Path_738" data-name="Path 738" d="M56-347q0-13,14-20H707q15,8,15,20,0,11-14,19l-318,1H72Q56-332,56-347Zm0,194q0-15,16-20H708q14,10,14,20,0,13-15,20H70Q56-140,56-153Z" transform="translate(6197)" fill="#0975b7" stroke="#000" stroke-width="0"/>
    <g id="Group_319" data-name="Group 319" transform="translate(7253)">
      <g id="Group_315" data-name="Group 315" transform="translate(347)">
        <path id="Path_739" data-name="Path 739" d="M33-157q0-101,76-192t171-92q51,0,90,49,16-30,46-30a35.78,35.78,0,0,1,23,8q10,8,10,20,0,13-37,160T374-68q0,25,7,33t21,9q9-1,20-9,21-20,41-96,6-20,10-21,2-1,10-1h4q19,0,19,9,0,6-5,27T481-63q-15,33-32,50A98.88,98.88,0,0,1,417,8q-8,2-24,2-34,0-57-15T306-36l-6-15q-1-1-4,1l-4,4Q233,10,172,10q-55,0-97-40T33-157ZM351-328q0-6-5-22t-23-35q-18-19-46-20-35,0-67,31t-50,81a798.345,798.345,0,0,0-41,164v11a53.305,53.305,0,0,1-1,12q0,45,18,62a64.4,64.4,0,0,0,43,18q38,0,75-33t44-51q2-4,27-107T351-328Z" fill="#0975b7" stroke="#000" stroke-width="0"/>
        <path id="Path_740" data-name="Path 740" d="M34-159q0-109,86-196t186-87q56,0,88,24t33,63q0,29-19,49t-48,21q-19,0-30-10t-11-30q0-20,11-34t22-21q11-7,14-6h1q0-2-6-6t-21-8a132.2,132.2,0,0,0-34-4,122.145,122.145,0,0,0-57,14q-21,9-43,31-44,44-64,124T121-119q0,46,26,69,22,24,58,24h4q112,0,185-85,9-10,12-10,4,0,13,9t10,14q1,5-9,15T391-55a165.807,165.807,0,0,1-45,30Q320-13,282,0a213.548,213.548,0,0,1-80,11Q127,11,81-37T34-159Z" transform="translate(529)" fill="#0975b7" stroke="#000" stroke-width="0"/>
      </g>
      <g id="Group_317" data-name="Group 317" transform="translate(0 527)">
        <path id="Path_741" data-name="Path 741" d="M-24-327l6-6H15q4,0,7,4t5,7q2,3,8,14t19,24q61,81,171,122t216,42q13,0,16,3t3,22v67q0,20-3,24T442,0Q355,0,260-36,75-118-16-278l-8-14Z" transform="translate(23)" fill="#0975b7" stroke="#000" stroke-width="0"/>
        <g id="Group_316" data-name="Group 316" transform="translate(390)">
          <path id="Path_742" data-name="Path 742" d="M-10-60v-51q0-7,5-7,4-2,15-2,86,0,180,36Q375-2,466,158l8,14v35l-6,6H434q-3,0-6-4t-5-7q-2-3-9-15a140.8,140.8,0,0,0-18-24Q331,82,224,41T9,0Q-4,0-7-3t-3-22Z" fill="#0975b7" stroke="#000" stroke-width="0"/>
          <path id="Path_743" data-name="Path 743" d="M-18,213l-6-6V172l8-14Q75-2,260-84a529.528,529.528,0,0,1,155-35h12q9,0,13-1,14,0,17,3t3,19v73q0,18-3,21T441,0Q308,0,193,55T25,205q-4,6-7,7t-19,1Z" transform="translate(450)" fill="#0975b7" stroke="#000" stroke-width="0"/>
        </g>
        <path id="Path_744" data-name="Path 744" d="M-10-60V-95q0-18,3-21t16-4q142,0,241-51T396-284a191.517,191.517,0,0,0,16-21q8-12,12-19t7-7q2-2,20-2h17l6,6v35l-8,14Q375-118,190-36,95,0,8,0-5,0-7-3t-3-21Z" transform="translate(1207)" fill="#0975b7" stroke="#000" stroke-width="0"/>
      </g>
      <g id="Group_318" data-name="Group 318" transform="translate(206 1407)">
        <path id="Path_745" data-name="Path 745" d="M193.011,0q-12.726-2.121-89.789-2.121Q30.4-2.121,24.038,0H18.382V-32.522H29.694a248.056,248.056,0,0,0,34.643-2.121,15.225,15.225,0,0,0,8.484-7.777q.707-1.414.707-115.948V-272.2h-50.2v-32.522h50.2v-46.662l.707-47.369,1.414-7.07q13.433-45.955,45.248-66.458t67.165-25.452h6.363a60.9,60.9,0,0,0,9.9-.707q28.987,2.121,43.834,18.382T263-443.289q0,16.261-9.9,26.159t-26.159,9.9q-16.261,0-26.159-9.9t-9.9-26.159q0-14.14,12.726-28.28h-2.828a33.555,33.555,0,0,0-7.777-.707q-19.8,0-35.35,14.847t-24.038,38.885q-4.242,14.14-4.949,67.165v46.662h78.477V-272.2H130.795v113.12q0,114.534.707,115.948a11.079,11.079,0,0,0,2.121,2.828,8.874,8.874,0,0,0,3.535,2.121,8.874,8.874,0,0,1,3.535,2.121q1.414,1.414,4.949,1.414a12.133,12.133,0,0,1,4.949.707q1.414.707,6.363.707h6.363q1.414,0,7.07.707t7.07,0h21.917V0Z" fill="#0975b7" stroke="#000" stroke-width="0"/>
        <path id="Path_746" data-name="Path 746" d="M48.783-430.563q0-19.8,12.726-31.108t31.108-11.312a47.924,47.924,0,0,1,28.28,12.019q12.019,10.605,12.019,30.4,0,21.21-12.019,31.815T91.2-388.143q-17.675,0-29.694-10.605T48.783-430.563ZM174.629,0q-10.6-2.121-73.528-2.121H74.942q-18.382,0-35.35,1.414L24.038,0H18.382V-32.522H29.694a248.056,248.056,0,0,0,34.643-2.121q6.363-2.828,7.777-7.777t1.414-29.694V-207.151q0-36.764-1.414-46.662t-9.9-13.433q-9.9-4.949-33.229-4.949H21.21v-16.261q0-16.261,1.414-16.261l7.07-.707q7.07-.707,19.8-1.414l25.452-1.414q12.019-.707,25.452-1.414a153,153,0,0,0,20.5-2.121q7.07-1.414,7.777-.707h2.121v268.66q3.535,7.07,8.484,8.484t24.745,2.828h16.261V0Z" transform="translate(216.342)" fill="#0975b7" stroke="#000" stroke-width="0"/>
        <path id="Path_747" data-name="Path 747" d="M25.452-32.522h9.9q27.573,0,33.229-9.9V-64.337q0-9.9.707-21.917a267.913,267.913,0,0,0,0-27.573q-.707-15.554,0-29.694V-231.9l-.707-16.261q-2.121-13.433-9.9-17.675T26.866-272.2H14.14v-16.261q0-16.261,1.414-16.261l7.07-.707q7.07-.707,19.8-1.414l25.452-1.414q11.312-.707,24.745-1.414a153,153,0,0,0,20.5-2.121q7.07-1.414,7.777-.707h2.121v48.783q27.573-48.076,68.579-48.076h4.242q31.815,0,46.662,15.554t14.847,32.522a37.556,37.556,0,0,1-9.191,25.452q-9.191,10.6-26.866,10.6t-26.159-11.312q-8.484-11.312-9.191-24.038a41.246,41.246,0,0,1,1.414-11.312,35.342,35.342,0,0,1,3.535-8.484l2.121-3.535q-1.414-1.414-16.261,2.828-11.312,5.656-16.968,10.605-33.229,31.815-33.229,126.553v74.942a117.235,117.235,0,0,0,.707,14.14,39.9,39.9,0,0,1,0,10.6v3.535a11.079,11.079,0,0,0,2.121,2.828,8.874,8.874,0,0,0,3.535,2.121,8.874,8.874,0,0,1,3.535,2.121q1.414,1.414,4.949,1.414a12.133,12.133,0,0,1,4.949.707q1.414.707,6.363.707h6.363q1.414,0,7.07.707t7.07,0h21.917V0h-6.363Q176.043-2.121,98.98-2.121,26.159-2.121,19.8,0H14.14V-32.522Z" transform="translate(413.595)" fill="#0975b7" stroke="#000" stroke-width="0"/>
        <path id="Path_748" data-name="Path 748" d="M208.565-223.412q0-28.28-19.089-48.783T134.33-292.7q-25.452,0-43.834,9.191-21.21,13.433-21.21,36.764a29.654,29.654,0,0,0,0,9.191q.707,5.656,11.312,16.968T111-202.909a274.285,274.285,0,0,0,31.108,6.363,274.286,274.286,0,0,1,31.108,6.363,98.664,98.664,0,0,1,22.624,9.191,133.938,133.938,0,0,1,23.331,14.14q11.312,8.484,22.624,28.987a95.487,95.487,0,0,1,12.019,43.834q0,43.834-26.866,72.114T139.986,7.07H134.33q-36.764,0-67.872-25.452L60.8-13.433,54.439-7.07Q50.2-2.828,45.955.707l-7.777,7.07H29.694q-2.121,0-6.363-4.242V-93.324q0-14.847,1.414-17.675t7.07-3.535h6.363q8.484,0,11.312,2.828t3.535,8.484q.707,5.656,4.949,19.089A158.47,158.47,0,0,0,71.407-54.439q24.745,36.057,68.579,36.057,68.579,0,68.579-55.146,0-20.5-12.726-33.229-14.14-16.968-58.681-25.452T78.477-148.47q-25.452-12.019-40.3-32.522T23.331-224.826q0-27.573,12.019-46.662t30.4-28.28a146.079,146.079,0,0,1,35.35-12.726,153.487,153.487,0,0,1,31.108-3.535h7.777q28.28,0,49.49,10.605l10.605,5.656,6.363-4.949A135.806,135.806,0,0,1,222-316.736h8.484q2.121,0,6.363,4.242v93.324l-4.242,4.242h-19.8Q208.565-219.17,208.565-223.412Z" transform="translate(690.739)" fill="#0975b7" stroke="#000" stroke-width="0"/>
        <path id="Path_749" data-name="Path 749" d="M19.089-298.354q37.471-2.828,57.974-39.592T99.687-424.2v-10.605h28.28v130.088h95.445V-272.2H127.967v101.808q.707,88.375.707,99.687a56.044,56.044,0,0,0,4.949,22.624q9.9,27.573,34.643,27.573,31.108,0,38.178-50.2.707-5.656.707-32.522v-24.745h28.28v33.229q0,54.439-29.694,82.719Q186.648,7.07,156.247,7.07q-24.038,0-41.713-8.484T87.668-23.331A118.518,118.518,0,0,1,74.235-48.076,78.066,78.066,0,0,1,69.286-70.7q-.707-4.949-.707-104.636V-272.2H12.726v-26.159Z" transform="translate(970.004)" fill="#0975b7" stroke="#000" stroke-width="0"/>
      </g>
    </g>
    <path id="Path_750" data-name="Path 750" d="M56-237v-13l14-20H369V-420l1-150q10-13,19-13,13,0,20,15v298H707q15,8,15,20t-15,20H409V68q-8,14-18,14h-4q-12,0-18-14V-230H70q-14-7-14-20Z" transform="translate(9134)" fill="#0975b7" stroke="#000" stroke-width="0"/>
    <g id="Group_325" data-name="Group 325" transform="translate(10134)">
      <g id="Group_323" data-name="Group 323" transform="translate(275)">
        <g id="Group_320" data-name="Group 320" transform="translate(302)">
          <path id="Path_751" data-name="Path 751" d="M33-157q0-101,76-192t171-92q51,0,90,49,16-30,46-30a35.78,35.78,0,0,1,23,8q10,8,10,20,0,13-37,160T374-68q0,25,7,33t21,9q9-1,20-9,21-20,41-96,6-20,10-21,2-1,10-1h4q19,0,19,9,0,6-5,27T481-63q-15,33-32,50A98.88,98.88,0,0,1,417,8q-8,2-24,2-34,0-57-15T306-36l-6-15q-1-1-4,1l-4,4Q233,10,172,10q-55,0-97-40T33-157ZM351-328q0-6-5-22t-23-35q-18-19-46-20-35,0-67,31t-50,81a798.345,798.345,0,0,0-41,164v11a53.305,53.305,0,0,1-1,12q0,45,18,62a64.4,64.4,0,0,0,43,18q38,0,75-33t44-51q2-4,27-107T351-328Z" fill="#0975b7" stroke="#000" stroke-width="0"/>
          <path id="Path_752" data-name="Path 752" d="M366-683q1,0,72-5t73-6q12,0,12,8,0,7-73,302T375-83q-2,6-1,15,0,42,28,42,9-1,20-9,21-20,41-96,6-20,10-21,2-1,10-1h8q15,0,15,8,0,5-3,16-13,50-30,81T445-8Q434,1,417,8q-8,2-24,2-34,0-57-15T306-36l-6-15q-1-1-4,1l-4,4Q233,10,172,10q-55,0-97-40T33-157q0-48,20-98t48-86q47-57,94-79t85-22q56,0,84,42,5,6,5,4,1-4,27-109t28-111q0-13-7-16t-39-5H357q-6-6-6-8t2-19Q358-683,366-683ZM352-326q-23-79-75-79-35,0-67,31t-50,81a798.345,798.345,0,0,0-41,164v11a53.305,53.305,0,0,1-1,12q0,45,18,62a64.4,64.4,0,0,0,43,18q54,0,111-72l8-11Z" transform="translate(529)" fill="#0975b7" stroke="#000" stroke-width="0"/>
        </g>
        <g id="Group_322" data-name="Group 322" transform="translate(-2 525)">
          <path id="Path_753" data-name="Path 753" d="M-24-327l6-6H15q4,0,7,4t5,7q2,3,8,14t19,24q61,81,171,122t216,42q13,0,16,3t3,22v67q0,20-3,24T442,0Q355,0,260-36,75-118-16-278l-8-14Z" transform="translate(23)" fill="#0975b7" stroke="#000" stroke-width="0"/>
          <g id="Group_321" data-name="Group 321" transform="translate(390)">
            <path id="Path_754" data-name="Path 754" d="M-10-60v-51q0-7,5-7,4-2,15-2,86,0,180,36Q375-2,466,158l8,14v35l-6,6H434q-3,0-6-4t-5-7q-2-3-9-15a140.8,140.8,0,0,0-18-24Q331,82,224,41T9,0Q-4,0-7-3t-3-22Z" fill="#0975b7" stroke="#000" stroke-width="0"/>
            <path id="Path_755" data-name="Path 755" d="M-18,213l-6-6V172l8-14Q75-2,260-84a529.528,529.528,0,0,1,155-35h12q9,0,13-1,14,0,17,3t3,19v73q0,18-3,21T441,0Q308,0,193,55T25,205q-4,6-7,7t-19,1Z" transform="translate(450)" fill="#0975b7" stroke="#000" stroke-width="0"/>
          </g>
          <path id="Path_756" data-name="Path 756" d="M-10-60V-95q0-18,3-21t16-4q142,0,241-51T396-284a191.517,191.517,0,0,0,16-21q8-12,12-19t7-7q2-2,20-2h17l6,6v35l-8,14Q375-118,190-36,95,0,8,0-5,0-7-3t-3-21Z" transform="translate(1207)" fill="#0975b7" stroke="#000" stroke-width="0"/>
        </g>
      </g>
      <g id="Group_324" data-name="Group 324" transform="translate(0 1398)">
        <path id="Path_757" data-name="Path 757" d="M19.8-151.3q0-67.165,45.955-115.948t111-49.49q63.63,0,109.585,48.076T333-152.005q0,67.165-45.248,113.12T176.75,7.07Q108.171,7.07,64.337-40.3T19.8-151.3ZM176.75-21.21Q263-21.21,263-136.451v-40.3q0-15.554-.707-26.866a137.063,137.063,0,0,0-4.949-26.866q-4.242-15.554-11.312-25.452t-21.917-19.8a99.288,99.288,0,0,0-34.643-14.14,64.069,64.069,0,0,0-11.312-.707,98.127,98.127,0,0,0-40.3,8.484q-30.4,15.554-39.592,43.127t-9.191,65.044v14.14q0,67.872,13.433,95.445Q125.139-21.21,176.75-21.21Z" fill="#0975b7" stroke="#000" stroke-width="0"/>
        <path id="Path_758" data-name="Path 758" d="M270.781-41.006Q231.189,7.07,180.992,7.07h-4.949q-88.375,0-101.808-69.993-.707-4.949-1.414-96.859-.707-77.063-.707-86.254t-4.242-14.847Q60.8-272.2,25.452-272.2H17.675v-16.261q0-16.261,1.414-16.261l7.777-.707q7.07-.707,20.5-1.414l26.866-1.414q12.019-.707,26.159-1.414a157.337,157.337,0,0,0,21.21-2.121q7.07-1.414,8.484-.707h2.121v127.967q.707,130.088,2.121,139.279a28.34,28.34,0,0,0,9.9,16.968q14.14,9.9,42.42,9.9a83.547,83.547,0,0,0,33.229-6.363q14.847-6.363,22.624-16.261a132.125,132.125,0,0,0,14.14-22.624Q263-76.356,265.125-84.84a106.246,106.246,0,0,0,2.828-16.968v-12.019q0-11.312.707-28.28t0-33.229v-47.369q0-32.522-7.07-40.3T226.24-272.2H213.514v-32.522q1.414,0,53.732-3.535t55.853-4.242h4.949v125.846q0,127.26.707,129.381,2.121,14.14,9.9,18.382t31.815,6.363h12.726V0q-1.414,0-53.025,3.535T275.73,7.777h-4.949Z" transform="translate(353.5)" fill="#0975b7" stroke="#000" stroke-width="0"/>
        <path id="Path_759" data-name="Path 759" d="M19.089-298.354q37.471-2.828,57.974-39.592T99.687-424.2v-10.605h28.28v130.088h95.445V-272.2H127.967v101.808q.707,88.375.707,99.687a56.044,56.044,0,0,0,4.949,22.624q9.9,27.573,34.643,27.573,31.108,0,38.178-50.2.707-5.656.707-32.522v-24.745h28.28v33.229q0,54.439-29.694,82.719Q186.648,7.07,156.247,7.07q-24.038,0-41.713-8.484T87.668-23.331A118.518,118.518,0,0,1,74.235-48.076,78.066,78.066,0,0,1,69.286-70.7q-.707-4.949-.707-104.636V-272.2H12.726v-26.159Z" transform="translate(747.299)" fill="#0975b7" stroke="#000" stroke-width="0"/>
        <path id="Path_760" data-name="Path 760" d="M208.565-223.412q0-28.28-19.089-48.783T134.33-292.7q-25.452,0-43.834,9.191-21.21,13.433-21.21,36.764a29.654,29.654,0,0,0,0,9.191q.707,5.656,11.312,16.968T111-202.909a274.285,274.285,0,0,0,31.108,6.363,274.286,274.286,0,0,1,31.108,6.363,98.664,98.664,0,0,1,22.624,9.191,133.938,133.938,0,0,1,23.331,14.14q11.312,8.484,22.624,28.987a95.487,95.487,0,0,1,12.019,43.834q0,43.834-26.866,72.114T139.986,7.07H134.33q-36.764,0-67.872-25.452L60.8-13.433,54.439-7.07Q50.2-2.828,45.955.707l-7.777,7.07H29.694q-2.121,0-6.363-4.242V-93.324q0-14.847,1.414-17.675t7.07-3.535h6.363q8.484,0,11.312,2.828t3.535,8.484q.707,5.656,4.949,19.089A158.47,158.47,0,0,0,71.407-54.439q24.745,36.057,68.579,36.057,68.579,0,68.579-55.146,0-20.5-12.726-33.229-14.14-16.968-58.681-25.452T78.477-148.47q-25.452-12.019-40.3-32.522T23.331-224.826q0-27.573,12.019-46.662t30.4-28.28a146.079,146.079,0,0,1,35.35-12.726,153.487,153.487,0,0,1,31.108-3.535h7.777q28.28,0,49.49,10.605l10.605,5.656,6.363-4.949A135.806,135.806,0,0,1,222-316.736h8.484q2.121,0,6.363,4.242v93.324l-4.242,4.242h-19.8Q208.565-219.17,208.565-223.412Z" transform="translate(1022.322)" fill="#0975b7" stroke="#000" stroke-width="0"/>
        <path id="Path_761" data-name="Path 761" d="M48.783-430.563q0-19.8,12.726-31.108t31.108-11.312a47.924,47.924,0,0,1,28.28,12.019q12.019,10.605,12.019,30.4,0,21.21-12.019,31.815T91.2-388.143q-17.675,0-29.694-10.605T48.783-430.563ZM174.629,0q-10.6-2.121-73.528-2.121H74.942q-18.382,0-35.35,1.414L24.038,0H18.382V-32.522H29.694a248.056,248.056,0,0,0,34.643-2.121q6.363-2.828,7.777-7.777t1.414-29.694V-207.151q0-36.764-1.414-46.662t-9.9-13.433q-9.9-4.949-33.229-4.949H21.21v-16.261q0-16.261,1.414-16.261l7.07-.707q7.07-.707,19.8-1.414l25.452-1.414q12.019-.707,25.452-1.414a153,153,0,0,0,20.5-2.121q7.07-1.414,7.777-.707h2.121v268.66q3.535,7.07,8.484,8.484t24.745,2.828h16.261V0Z" transform="translate(1301.587)" fill="#0975b7" stroke="#000" stroke-width="0"/>
        <path id="Path_762" data-name="Path 762" d="M265.832-349.965v-28.28q0-16.968.707-23.331,0-31.815-7.07-39.592t-36.057-9.191H210.686V-466.62q0-16.261,1.414-16.261l7.07-.707q7.07-.707,20.5-1.414t26.159-1.414q12.019-.707,26.159-1.414a157.347,157.347,0,0,0,21.21-2.121q7.07-1.414,7.777-.707H323.1V-275.73q0,216.342.707,218.463,2.121,14.14,9.9,18.382t31.815,6.363h12.726V0q-1.414,0-53.732,3.535T268.66,7.777h-4.949V-31.108l-5.656,4.949Q217.049,7.777,166.145,7.777q-54.439,0-98.273-43.127T24.038-152.005q0-70.7,44.541-115.241t103.929-45.248q53.025,0,93.324,34.643Zm-2.121,108.171Q231.9-286.335,183.82-286.335q-34.643,0-61.509,25.452-19.089,19.8-24.038,45.248t-5.656,66.458q0,39.592,4.949,64.337t24.745,43.127q21.21,23.331,55.146,23.331,50.2,0,86.254-54.439Z" transform="translate(1498.133)" fill="#0975b7" stroke="#000" stroke-width="0"/>
        <path id="Path_763" data-name="Path 763" d="M19.8-154.126q0-38.885,14.14-70.7t35.35-51.611a147.5,147.5,0,0,1,45.955-29.694q24.745-9.9,46.662-10.605,37.471,0,64.337,12.726t41.006,35.35q14.14,22.624,19.8,45.248a231.675,231.675,0,0,1,6.363,50.2q0,4.949-4.949,9.9H89.082v10.6q0,104.636,70.7,127.26A107.927,107.927,0,0,0,190.89-21.21q29.694,0,50.9-22.624a87.107,87.107,0,0,0,19.089-29.694l7.07-16.968q2.121-2.121,11.312-2.121h2.121q12.019,0,12.019,7.07,0,2.828-2.121,9.191-13.433,38.885-44.541,61.509A116.1,116.1,0,0,1,176.75,7.777q-67.165,0-111.706-48.783T19.8-154.126Zm215.635-40.3q-7.777-90.5-67.165-96.152h-1.414a91.113,91.113,0,0,0-11.312.707q-5.656.707-17.675,5.656a53.444,53.444,0,0,0-20.5,14.847q-8.484,9.9-16.261,28.987T89.789-193.718v4.949H235.431Z" transform="translate(1891.932)" fill="#0975b7" stroke="#000" stroke-width="0"/>
      </g>
    </g>
    <path id="Path_764" data-name="Path 764" d="M56-237v-13l14-20H369V-420l1-150q10-13,19-13,13,0,20,15v298H707q15,8,15,20t-15,20H409V68q-8,14-18,14h-4q-12,0-18-14V-230H70q-14-7-14-20Z" transform="translate(12563)" fill="#0975b7" stroke="#000" stroke-width="0"/>
    <g id="Group_331" data-name="Group 331" transform="translate(13564)">
      <g id="Group_329" data-name="Group 329" transform="translate(58)">
        <g id="Group_326" data-name="Group 326" transform="translate(397)">
          <path id="Path_765" data-name="Path 765" d="M73-647q0-10,4-23t12-13q1,0,72-5t73-6q12,0,12,9T212-542q-8,34-17,70t-15,54l-4,19q0,3,6-3,49-40,101-40,62,0,100,46t39,116q0,111-79,201T173,11q-50,0-91-38T40-150v-9q0-21,8-58T97-414q50-197,50-209t-38-14H83q-3,0-7-3T73-647ZM336-325v-6q0-74-61-74-17,0-35,8a131.971,131.971,0,0,0-33,21q-15,13-26,24a130.628,130.628,0,0,0-18,22l-6,8-21,86q-22,86-22,122,0,48,24,72,16,16,40,16,33,0,67-32,25-23,40-56t33-105Q336-291,336-325Z" fill="#0975b7" stroke="#000" stroke-width="0"/>
          <path id="Path_766" data-name="Path 766" d="M34-159q0-109,86-196t186-87q56,0,88,24t33,63q0,29-19,49t-48,21q-19,0-30-10t-11-30q0-20,11-34t22-21q11-7,14-6h1q0-2-6-6t-21-8a132.2,132.2,0,0,0-34-4,122.145,122.145,0,0,0-57,14q-21,9-43,31-44,44-64,124T121-119q0,46,26,69,22,24,58,24h4q112,0,185-85,9-10,12-10,4,0,13,9t10,14q1,5-9,15T391-55a165.807,165.807,0,0,1-45,30Q320-13,282,0a213.548,213.548,0,0,1-80,11Q127,11,81-37T34-159Z" transform="translate(429)" fill="#0975b7" stroke="#000" stroke-width="0"/>
        </g>
        <g id="Group_328" data-name="Group 328" transform="translate(0 527)">
          <path id="Path_767" data-name="Path 767" d="M-24-327l6-6H15q4,0,7,4t5,7q2,3,8,14t19,24q61,81,171,122t216,42q13,0,16,3t3,22v67q0,20-3,24T442,0Q355,0,260-36,75-118-16-278l-8-14Z" transform="translate(23)" fill="#0975b7" stroke="#000" stroke-width="0"/>
          <g id="Group_327" data-name="Group 327" transform="translate(390)">
            <path id="Path_768" data-name="Path 768" d="M-10-60v-51q0-7,5-7,4-2,15-2,86,0,180,36Q375-2,466,158l8,14v35l-6,6H434q-3,0-6-4t-5-7q-2-3-9-15a140.8,140.8,0,0,0-18-24Q331,82,224,41T9,0Q-4,0-7-3t-3-22Z" fill="#0975b7" stroke="#000" stroke-width="0"/>
            <path id="Path_769" data-name="Path 769" d="M-18,213l-6-6V172l8-14Q75-2,260-84a529.528,529.528,0,0,1,155-35h12q9,0,13-1,14,0,17,3t3,19v73q0,18-3,21T441,0Q308,0,193,55T25,205q-4,6-7,7t-19,1Z" transform="translate(450)" fill="#0975b7" stroke="#000" stroke-width="0"/>
          </g>
          <path id="Path_770" data-name="Path 770" d="M-10-60V-95q0-18,3-21t16-4q142,0,241-51T396-284a191.517,191.517,0,0,0,16-21q8-12,12-19t7-7q2-2,20-2h17l6,6v35l-8,14Q375-118,190-36,95,0,8,0-5,0-7-3t-3-21Z" transform="translate(1207)" fill="#0975b7" stroke="#000" stroke-width="0"/>
        </g>
      </g>
      <g id="Group_330" data-name="Group 330" transform="translate(0 1400)">
        <path id="Path_771" data-name="Path 771" d="M48.783-430.563q0-19.8,12.726-31.108t31.108-11.312a47.924,47.924,0,0,1,28.28,12.019q12.019,10.605,12.019,30.4,0,21.21-12.019,31.815T91.2-388.143q-17.675,0-29.694-10.605T48.783-430.563ZM174.629,0q-10.6-2.121-73.528-2.121H74.942q-18.382,0-35.35,1.414L24.038,0H18.382V-32.522H29.694a248.056,248.056,0,0,0,34.643-2.121q6.363-2.828,7.777-7.777t1.414-29.694V-207.151q0-36.764-1.414-46.662t-9.9-13.433q-9.9-4.949-33.229-4.949H21.21v-16.261q0-16.261,1.414-16.261l7.07-.707q7.07-.707,19.8-1.414l25.452-1.414q12.019-.707,25.452-1.414a153,153,0,0,0,20.5-2.121q7.07-1.414,7.777-.707h2.121v268.66q3.535,7.07,8.484,8.484t24.745,2.828h16.261V0Z" fill="#0975b7" stroke="#000" stroke-width="0"/>
        <path id="Path_772" data-name="Path 772" d="M28.987-32.522h9.9q27.573,0,33.229-9.9V-86.254q0-12.019.707-27.573t0-29.694v-46.662q0-24.745-.707-41.713v-16.261q-2.121-13.433-9.9-17.675T30.4-272.2H17.675v-16.261q0-16.261,1.414-16.261l7.07-.707q7.07-.707,19.8-1.414t26.159-1.414q12.019-.707,25.452-1.414a153,153,0,0,0,20.5-2.121q7.07-1.414,7.777-.707h2.121v28.28q0,26.866.707,26.866t3.535-3.535l8.484-10.605a69.183,69.183,0,0,1,13.433-12.726q7.777-5.656,20.5-13.433A95.853,95.853,0,0,1,201.5-308.959q14.14-3.535,36.057-3.535,80.6,2.828,89.789,79.891.707,4.949.707,98.273v60.8q0,26.866,1.414,31.815t7.777,7.07a248.056,248.056,0,0,0,34.643,2.121h11.312V0h-5.656L360.57-.707q-16.261-.707-35.35-.707t-26.866-.707Q225.533-2.121,219.17,0h-5.656V-32.522h11.312q43.127,0,43.127-11.312.707-1.414.707-97.566-.707-95.445-1.414-101.1Q263-262.3,253.106-272.2t-16.968-12.019q-7.07-2.121-18.382-1.414-31.815,0-55.853,24.038-19.089,19.089-24.038,38.885t-5.656,58.681v87.668q0,21.21.707,28.28t2.121,9.191q1.414,2.121,6.363,4.242a248.056,248.056,0,0,0,34.643,2.121h11.312V0H181.7L165.438-.707q-16.968-.707-36.057-.707t-26.866-.707Q29.694-2.121,23.331,0H17.675V-32.522Z" transform="translate(196.546)" fill="#0975b7" stroke="#000" stroke-width="0"/>
        <path id="Path_773" data-name="Path 773" d="M208.565-223.412q0-28.28-19.089-48.783T134.33-292.7q-25.452,0-43.834,9.191-21.21,13.433-21.21,36.764a29.654,29.654,0,0,0,0,9.191q.707,5.656,11.312,16.968T111-202.909a274.285,274.285,0,0,0,31.108,6.363,274.286,274.286,0,0,1,31.108,6.363,98.664,98.664,0,0,1,22.624,9.191,133.938,133.938,0,0,1,23.331,14.14q11.312,8.484,22.624,28.987a95.487,95.487,0,0,1,12.019,43.834q0,43.834-26.866,72.114T139.986,7.07H134.33q-36.764,0-67.872-25.452L60.8-13.433,54.439-7.07Q50.2-2.828,45.955.707l-7.777,7.07H29.694q-2.121,0-6.363-4.242V-93.324q0-14.847,1.414-17.675t7.07-3.535h6.363q8.484,0,11.312,2.828t3.535,8.484q.707,5.656,4.949,19.089A158.47,158.47,0,0,0,71.407-54.439q24.745,36.057,68.579,36.057,68.579,0,68.579-55.146,0-20.5-12.726-33.229-14.14-16.968-58.681-25.452T78.477-148.47q-25.452-12.019-40.3-32.522T23.331-224.826q0-27.573,12.019-46.662t30.4-28.28a146.079,146.079,0,0,1,35.35-12.726,153.487,153.487,0,0,1,31.108-3.535h7.777q28.28,0,49.49,10.605l10.605,5.656,6.363-4.949A135.806,135.806,0,0,1,222-316.736h8.484q2.121,0,6.363,4.242v93.324l-4.242,4.242h-19.8Q208.565-219.17,208.565-223.412Z" transform="translate(590.345)" fill="#0975b7" stroke="#000" stroke-width="0"/>
        <path id="Path_774" data-name="Path 774" d="M48.783-430.563q0-19.8,12.726-31.108t31.108-11.312a47.924,47.924,0,0,1,28.28,12.019q12.019,10.605,12.019,30.4,0,21.21-12.019,31.815T91.2-388.143q-17.675,0-29.694-10.605T48.783-430.563ZM174.629,0q-10.6-2.121-73.528-2.121H74.942q-18.382,0-35.35,1.414L24.038,0H18.382V-32.522H29.694a248.056,248.056,0,0,0,34.643-2.121q6.363-2.828,7.777-7.777t1.414-29.694V-207.151q0-36.764-1.414-46.662t-9.9-13.433q-9.9-4.949-33.229-4.949H21.21v-16.261q0-16.261,1.414-16.261l7.07-.707q7.07-.707,19.8-1.414l25.452-1.414q12.019-.707,25.452-1.414a153,153,0,0,0,20.5-2.121q7.07-1.414,7.777-.707h2.121v268.66q3.535,7.07,8.484,8.484t24.745,2.828h16.261V0Z" transform="translate(868.903)" fill="#0975b7" stroke="#000" stroke-width="0"/>
        <path id="Path_775" data-name="Path 775" d="M265.832-349.965v-28.28q0-16.968.707-23.331,0-31.815-7.07-39.592t-36.057-9.191H210.686V-466.62q0-16.261,1.414-16.261l7.07-.707q7.07-.707,20.5-1.414t26.159-1.414q12.019-.707,26.159-1.414a157.347,157.347,0,0,0,21.21-2.121q7.07-1.414,7.777-.707H323.1V-275.73q0,216.342.707,218.463,2.121,14.14,9.9,18.382t31.815,6.363h12.726V0q-1.414,0-53.732,3.535T268.66,7.777h-4.949V-31.108l-5.656,4.949Q217.049,7.777,166.145,7.777q-54.439,0-98.273-43.127T24.038-152.005q0-70.7,44.541-115.241t103.929-45.248q53.025,0,93.324,34.643Zm-2.121,108.171Q231.9-286.335,183.82-286.335q-34.643,0-61.509,25.452-19.089,19.8-24.038,45.248t-5.656,66.458q0,39.592,4.949,64.337t24.745,43.127q21.21,23.331,55.146,23.331,50.2,0,86.254-54.439Z" transform="translate(1066.156)" fill="#0975b7" stroke="#000" stroke-width="0"/>
        <path id="Path_776" data-name="Path 776" d="M19.8-154.126q0-38.885,14.14-70.7t35.35-51.611a147.5,147.5,0,0,1,45.955-29.694q24.745-9.9,46.662-10.605,37.471,0,64.337,12.726t41.006,35.35q14.14,22.624,19.8,45.248a231.675,231.675,0,0,1,6.363,50.2q0,4.949-4.949,9.9H89.082v10.6q0,104.636,70.7,127.26A107.927,107.927,0,0,0,190.89-21.21q29.694,0,50.9-22.624a87.107,87.107,0,0,0,19.089-29.694l7.07-16.968q2.121-2.121,11.312-2.121h2.121q12.019,0,12.019,7.07,0,2.828-2.121,9.191-13.433,38.885-44.541,61.509A116.1,116.1,0,0,1,176.75,7.777q-67.165,0-111.706-48.783T19.8-154.126Zm215.635-40.3q-7.777-90.5-67.165-96.152h-1.414a91.113,91.113,0,0,0-11.312.707q-5.656.707-17.675,5.656a53.444,53.444,0,0,0-20.5,14.847q-8.484,9.9-16.261,28.987T89.789-193.718v4.949H235.431Z" transform="translate(1459.248)" fill="#0975b7" stroke="#000" stroke-width="0"/>
      </g>
    </g>
    <path id="Path_777" data-name="Path 777" d="M56-237v-13l14-20H369V-420l1-150q10-13,19-13,13,0,20,15v298H707q15,8,15,20t-15,20H409V68q-8,14-18,14h-4q-12,0-18-14V-230H70q-14-7-14-20Z" transform="translate(15560)" fill="#0975b7" stroke="#000" stroke-width="0"/>
    <g id="Group_336" data-name="Group 336" transform="translate(16561)">
      <g id="Group_332" data-name="Group 332" transform="translate(352)">
        <path id="Path_778" data-name="Path 778" d="M73-647q0-10,4-23t12-13q1,0,72-5t73-6q12,0,12,9T212-542q-8,34-17,70t-15,54l-4,19q0,3,6-3,49-40,101-40,62,0,100,46t39,116q0,111-79,201T173,11q-50,0-91-38T40-150v-9q0-21,8-58T97-414q50-197,50-209t-38-14H83q-3,0-7-3T73-647ZM336-325v-6q0-74-61-74-17,0-35,8a131.971,131.971,0,0,0-33,21q-15,13-26,24a130.628,130.628,0,0,0-18,22l-6,8-21,86q-22,86-22,122,0,48,24,72,16,16,40,16,33,0,67-32,25-23,40-56t33-105Q336-291,336-325Z" fill="#0975b7" stroke="#000" stroke-width="0"/>
        <path id="Path_779" data-name="Path 779" d="M366-683q1,0,72-5t73-6q12,0,12,8,0,7-73,302T375-83q-2,6-1,15,0,42,28,42,9-1,20-9,21-20,41-96,6-20,10-21,2-1,10-1h8q15,0,15,8,0,5-3,16-13,50-30,81T445-8Q434,1,417,8q-8,2-24,2-34,0-57-15T306-36l-6-15q-1-1-4,1l-4,4Q233,10,172,10q-55,0-97-40T33-157q0-48,20-98t48-86q47-57,94-79t85-22q56,0,84,42,5,6,5,4,1-4,27-109t28-111q0-13-7-16t-39-5H357q-6-6-6-8t2-19Q358-683,366-683ZM352-326q-23-79-75-79-35,0-67,31t-50,81a798.345,798.345,0,0,0-41,164v11a53.305,53.305,0,0,1-1,12q0,45,18,62a64.4,64.4,0,0,0,43,18q54,0,111-72l8-11Z" transform="translate(429)" fill="#0975b7" stroke="#000" stroke-width="0"/>
      </g>
      <g id="Group_334" data-name="Group 334" transform="translate(-2 526)">
        <path id="Path_780" data-name="Path 780" d="M-24-327l6-6H15q4,0,7,4t5,7q2,3,8,14t19,24q61,81,171,122t216,42q13,0,16,3t3,22v67q0,20-3,24T442,0Q355,0,260-36,75-118-16-278l-8-14Z" transform="translate(23)" fill="#0975b7" stroke="#000" stroke-width="0"/>
        <g id="Group_333" data-name="Group 333" transform="translate(390)">
          <path id="Path_781" data-name="Path 781" d="M-10-60v-51q0-7,5-7,4-2,15-2,86,0,180,36Q375-2,466,158l8,14v35l-6,6H434q-3,0-6-4t-5-7q-2-3-9-15a140.8,140.8,0,0,0-18-24Q331,82,224,41T9,0Q-4,0-7-3t-3-22Z" fill="#0975b7" stroke="#000" stroke-width="0"/>
          <path id="Path_782" data-name="Path 782" d="M-18,213l-6-6V172l8-14Q75-2,260-84a529.528,529.528,0,0,1,155-35h12q9,0,13-1,14,0,17,3t3,19v73q0,18-3,21T441,0Q308,0,193,55T25,205q-4,6-7,7t-19,1Z" transform="translate(450)" fill="#0975b7" stroke="#000" stroke-width="0"/>
        </g>
        <path id="Path_783" data-name="Path 783" d="M-10-60V-95q0-18,3-21t16-4q142,0,241-51T396-284a191.517,191.517,0,0,0,16-21q8-12,12-19t7-7q2-2,20-2h17l6,6v35l-8,14Q375-118,190-36,95,0,8,0-5,0-7-3t-3-21Z" transform="translate(1207)" fill="#0975b7" stroke="#000" stroke-width="0"/>
      </g>
      <g id="Group_335" data-name="Group 335" transform="translate(275 1399)">
        <path id="Path_784" data-name="Path 784" d="M29.694-32.522h9.9q27.573,0,33.229-9.9V-87.668q0-13.433.707-30.4t0-35.35q-.707-18.382,0-38.885t0-40.3V-383.194q0-18.382-.707-31.108t0-12.019Q70.7-439.754,62.923-444t-31.815-6.363H18.382V-466.62q0-16.261,1.414-16.261l7.07-.707q7.07-.707,20.5-1.414t26.159-1.414q12.019-.707,26.159-1.414a157.347,157.347,0,0,0,21.21-2.121q7.07-1.414,7.777-.707h2.121v222.705q0,224.119.707,225.533a15.225,15.225,0,0,0,8.484,7.777,248.056,248.056,0,0,0,34.643,2.121h11.312V0h-5.656L164.024-.707q-16.261-.707-34.643-.707t-26.866-.707q-8.484-.707-26.866,0T40.3-.707L24.038,0H18.382V-32.522Z" fill="#0975b7" stroke="#000" stroke-width="0"/>
        <path id="Path_785" data-name="Path 785" d="M96.859-215.635H81.305l-26.159-10.6q-26.159-10.605-10.6-27.573,0-24.745,24.038-43.834t85.547-19.089q51.611,0,83.426,22.624t42.42,53.732a64.784,64.784,0,0,1,3.535,21.917q0,12.019.707,81.305v49.49q0,33.936,3.535,46.662T302.6-28.28q10.605,0,14.14-11.312t3.535-37.471v-25.452h28.28v27.573q-.707,28.28-2.121,33.229A58.618,58.618,0,0,1,321.685-8.484Q303.3,3.535,282.8,4.242T249.571-8.484Q236.845-21.917,232.6-38.178v-2.828l-1.414,2.121a28.09,28.09,0,0,1-3.535,4.242Q225.533-32.522,222-28.28a45.01,45.01,0,0,1-8.484,7.777q-4.949,3.535-10.6,8.484a43.981,43.981,0,0,1-12.726,7.777q-7.07,2.828-15.554,5.656a105.066,105.066,0,0,1-18.382,4.242q-9.9,1.414-21.917,2.121-42.42,0-76.356-21.917T24.038-75.649a81.147,81.147,0,0,1,4.949-28.28q4.949-13.433,19.089-28.987a125.4,125.4,0,0,1,33.936-26.159q19.8-10.605,55.146-19.8t77.77-10.6h9.9V-205.03q0-24.038-4.242-35.35-15.554-50.2-68.579-50.2-12.726,0-24.038.707t-17.675,2.828q-6.363,2.121-5.656,2.121,15.554,10.605,15.554,31.108,0,17.675-11.312,27.573ZM89.082-74.942q0,21.917,16.968,38.885t41.713,17.675q26.866,0,47.369-16.261t27.573-42.42q1.414-4.949,2.121-46.662,0-41.006-.707-41.006-5.656,0-14.847.707t-31.815,6.363a232.126,232.126,0,0,0-41.006,14.14q-18.382,8.484-32.522,26.159T89.082-74.942Z" transform="translate(196.546)" fill="#0975b7" stroke="#000" stroke-width="0"/>
        <path id="Path_786" data-name="Path 786" d="M208.565-223.412q0-28.28-19.089-48.783T134.33-292.7q-25.452,0-43.834,9.191-21.21,13.433-21.21,36.764a29.654,29.654,0,0,0,0,9.191q.707,5.656,11.312,16.968T111-202.909a274.285,274.285,0,0,0,31.108,6.363,274.286,274.286,0,0,1,31.108,6.363,98.664,98.664,0,0,1,22.624,9.191,133.938,133.938,0,0,1,23.331,14.14q11.312,8.484,22.624,28.987a95.487,95.487,0,0,1,12.019,43.834q0,43.834-26.866,72.114T139.986,7.07H134.33q-36.764,0-67.872-25.452L60.8-13.433,54.439-7.07Q50.2-2.828,45.955.707l-7.777,7.07H29.694q-2.121,0-6.363-4.242V-93.324q0-14.847,1.414-17.675t7.07-3.535h6.363q8.484,0,11.312,2.828t3.535,8.484q.707,5.656,4.949,19.089A158.47,158.47,0,0,0,71.407-54.439q24.745,36.057,68.579,36.057,68.579,0,68.579-55.146,0-20.5-12.726-33.229-14.14-16.968-58.681-25.452T78.477-148.47q-25.452-12.019-40.3-32.522T23.331-224.826q0-27.573,12.019-46.662t30.4-28.28a146.079,146.079,0,0,1,35.35-12.726,153.487,153.487,0,0,1,31.108-3.535h7.777q28.28,0,49.49,10.605l10.605,5.656,6.363-4.949A135.806,135.806,0,0,1,222-316.736h8.484q2.121,0,6.363,4.242v93.324l-4.242,4.242h-19.8Q208.565-219.17,208.565-223.412Z" transform="translate(550.753)" fill="#0975b7" stroke="#000" stroke-width="0"/>
        <path id="Path_787" data-name="Path 787" d="M19.089-298.354q37.471-2.828,57.974-39.592T99.687-424.2v-10.605h28.28v130.088h95.445V-272.2H127.967v101.808q.707,88.375.707,99.687a56.044,56.044,0,0,0,4.949,22.624q9.9,27.573,34.643,27.573,31.108,0,38.178-50.2.707-5.656.707-32.522v-24.745h28.28v33.229q0,54.439-29.694,82.719Q186.648,7.07,156.247,7.07q-24.038,0-41.713-8.484T87.668-23.331A118.518,118.518,0,0,1,74.235-48.076,78.066,78.066,0,0,1,69.286-70.7q-.707-4.949-.707-104.636V-272.2H12.726v-26.159Z" transform="translate(829.311)" fill="#0975b7" stroke="#000" stroke-width="0"/>
      </g>
    </g>
    <path id="Path_788" data-name="Path 788" d="M78-60q0-24,17-42t43-18a61.243,61.243,0,0,1,42,16q18,16,19,43a60.449,60.449,0,0,1-17,43Q165,0,139,0T96-17Q79-34,78-60Z" transform="translate(18217)" fill="#0975b7" stroke="#000" stroke-width="0"/>
  </g>
</svg>
