<svg id="Layer_1" data-name="Layer 1" xmlns="http://www.w3.org/2000/svg" viewBox="0 0 550 175"><defs><style>.cls-1{fill:#0a75b7;}.cls-2{font-size:20.21px;font-family:Calibri, Calibri;}.cls-2,.cls-7{fill:#231f20;}.cls-3{letter-spacing:-0.02em;}.cls-4{letter-spacing:-0.01em;}.cls-5{letter-spacing:-0.02em;}.cls-6{letter-spacing:-0.01em;}</style></defs><title>image 2</title><path class="cls-1" d="M147.86,49.36h0l-20.15-20a3.86,3.86,0,0,0-5.44,5.47L135.8,48.24H54.15a3.86,3.86,0,0,0,0,7.71H135.8L122.27,69.41a3.86,3.86,0,0,0,5.44,5.47l20.15-20h0A3.86,3.86,0,0,0,147.86,49.36Z"/><path class="cls-1" d="M309.56,49.36h0l-20.15-20A3.86,3.86,0,0,0,284,34.78L297.5,48.24H215.85a3.86,3.86,0,1,0,0,7.71H297.5L284,69.41a3.86,3.86,0,0,0,5.44,5.47l20.15-20h0A3.86,3.86,0,0,0,309.56,49.36Z"/><path class="cls-1" d="M485.5,49.36h0l-20.15-20a3.86,3.86,0,0,0-5.44,5.47l13.53,13.46H391.78a3.86,3.86,0,0,0,0,7.71h81.66L459.91,69.41a3.86,3.86,0,0,0,5.44,5.47l20.15-20h0A3.86,3.86,0,0,0,485.5,49.36Z"/><path class="cls-1" d="M389.05,123.63h0l20.15,20a3.86,3.86,0,0,0,5.44-5.47l-13.53-13.46h81.66a3.86,3.86,0,0,0,0-7.71H401.12l13.53-13.46a3.86,3.86,0,0,0-5.44-5.47l-20.15,20h0A3.86,3.86,0,0,0,389.05,123.63Z"/><path class="cls-1" d="M213.12,123.63h0l20.15,20a3.86,3.86,0,0,0,5.44-5.47l-13.53-13.46h81.66a3.86,3.86,0,0,0,0-7.71H225.18l13.53-13.46a3.86,3.86,0,0,0-5.44-5.47l-20.15,20h0A3.86,3.86,0,0,0,213.12,123.63Z"/><path class="cls-1" d="M51.42,123.63h0l20.15,20A3.86,3.86,0,0,0,77,138.22L63.48,124.76h81.66a3.86,3.86,0,1,0,0-7.71H63.48L77,103.58a3.86,3.86,0,0,0-5.44-5.47l-20.15,20h0A3.86,3.86,0,0,0,51.42,123.63Z"/><text class="cls-2" transform="translate(16.76 87.5)">inched</text><text class="cls-2" transform="translate(328.96 87.5)"><tspan class="cls-3">y</tspan><tspan x="8.84" y="0">a</tspan><tspan class="cls-4" x="18.52" y="0">r</tspan><tspan x="25.29" y="0">ds</tspan></text><text class="cls-2" transform="translate(498.89 87.5)">miles</text><text class="cls-2" transform="translate(157 87.5)"><tspan class="cls-5">f</tspan><tspan x="5.66" y="0">e</tspan><tspan class="cls-6" x="15.72" y="0">e</tspan><tspan x="25.66" y="0">ts</tspan></text><text class="cls-2" transform="translate(78.81 18.5)">X 12</text><text class="cls-2" transform="translate(89.81 171.17)">12</text><text class="cls-2" transform="translate(245.68 18.5)">X 3</text><text class="cls-2" transform="translate(261.34 171.17)">3</text><text class="cls-2" transform="translate(407.44 18.5)">X 1760</text><text class="cls-2" transform="translate(422.44 171.17)">1760</text><rect class="cls-7" x="72.91" y="164.45" width="11.79" height="1.7"/><circle class="cls-7" cx="78.84" cy="161.14" r="1.95"/><circle class="cls-7" cx="78.84" cy="169.45" r="1.95"/><rect class="cls-7" x="405.55" y="164.45" width="11.79" height="1.7"/><circle class="cls-7" cx="411.48" cy="161.14" r="1.95"/><circle class="cls-7" cx="411.48" cy="169.45" r="1.95"/><rect class="cls-7" x="242.57" y="164.45" width="11.79" height="1.7"/><circle class="cls-7" cx="248.5" cy="161.14" r="1.95"/><circle class="cls-7" cx="248.5" cy="169.45" r="1.95"/></svg>