<svg id="Layer_1" data-name="Layer 1" xmlns="http://www.w3.org/2000/svg" viewBox="0 0 550 175"><defs><style>.cls-1{fill:#0a75b7;}.cls-2{font-size:20.21px;fill:#231f20;font-family:Calibri, Calibri;}</style></defs><title>image 1</title><path class="cls-1" d="M147.86,49.36h0l-20.15-20a3.86,3.86,0,0,0-5.44,5.47L135.8,48.24H54.15a3.86,3.86,0,0,0,0,7.71H135.8L122.27,69.41a3.86,3.86,0,0,0,5.44,5.47l20.15-20h0A3.86,3.86,0,0,0,147.86,49.36Z"/><path class="cls-1" d="M309.56,49.36h0l-20.15-20A3.86,3.86,0,0,0,284,34.78L297.5,48.24H215.85a3.86,3.86,0,1,0,0,7.71H297.5L284,69.41a3.86,3.86,0,0,0,5.44,5.47l20.15-20h0A3.86,3.86,0,0,0,309.56,49.36Z"/><path class="cls-1" d="M485.5,49.36h0l-20.15-20a3.86,3.86,0,0,0-5.44,5.47l13.53,13.46H391.78a3.86,3.86,0,0,0,0,7.71h81.66L459.91,69.41a3.86,3.86,0,0,0,5.44,5.47l20.15-20h0A3.86,3.86,0,0,0,485.5,49.36Z"/><path class="cls-1" d="M389.05,123.63h0l20.15,20a3.86,3.86,0,0,0,5.44-5.47l-13.53-13.46h81.66a3.86,3.86,0,0,0,0-7.71H401.12l13.53-13.46a3.86,3.86,0,0,0-5.44-5.47l-20.15,20h0A3.86,3.86,0,0,0,389.05,123.63Z"/><path class="cls-1" d="M213.12,123.63h0l20.15,20a3.86,3.86,0,0,0,5.44-5.47l-13.53-13.46h81.66a3.86,3.86,0,0,0,0-7.71H225.18l13.53-13.46a3.86,3.86,0,0,0-5.44-5.47l-20.15,20h0A3.86,3.86,0,0,0,213.12,123.63Z"/><path class="cls-1" d="M51.42,123.63h0l20.15,20A3.86,3.86,0,0,0,77,138.22L63.48,124.76h81.66a3.86,3.86,0,1,0,0-7.71H63.48L77,103.58a3.86,3.86,0,0,0-5.44-5.47l-20.15,20h0A3.86,3.86,0,0,0,51.42,123.63Z"/><text class="cls-2" transform="translate(3.26 91.5)">km</text><text class="cls-2" transform="translate(328.96 91.5)">cm</text><text class="cls-2" transform="translate(513.89 91.5)">mm</text><text class="cls-2" transform="translate(166 91.5)">m</text><text class="cls-2" transform="translate(66.81 18.5)">X 1000</text><text class="cls-2" transform="translate(66.81 171.17)">X 1000</text><text class="cls-2" transform="translate(236.68 18.5)">X 100</text><text class="cls-2" transform="translate(236.68 171.17)">X 100</text><text class="cls-2" transform="translate(422.44 18.5)">X 10</text><text class="cls-2" transform="translate(422.44 171.17)">X 10</text></svg>