<svg xmlns="http://www.w3.org/2000/svg" width="198.7" height="189.01" viewBox="0 0 198.7 189.01">
  <g id="tangent-at-inflection-point" transform="translate(0 -3.73)">
    <g id="Group_58" data-name="Group 58">
      <line id="Line_48" data-name="Line 48" x2="79.12" transform="translate(27.4 101.33)" fill="none" stroke="#131312" stroke-width="0.5" stroke-dasharray="2 2"/>
      <path id="Path_105" data-name="Path 105" d="M27.58,165.74" fill="#131312"/>
      <line id="Line_49" data-name="Line 49" x2="1" transform="translate(54.5 165.82)" fill="#131312"/>
      <g id="Group_43" data-name="Group 43">
        <g id="Group_42" data-name="Group 42">
          <line id="Line_50" data-name="Line 50" x2="192.39" transform="translate(0 165.74)" fill="none" stroke="#000" stroke-width="0.25"/>
          <g id="Group_41" data-name="Group 41">
            <path id="Path_106" data-name="Path 106" d="M191.04,165.74l-1.64-2.7.09-.06,4.41,1.75c1.54.34,3.07.68,4.61,1.01-1.54.34-3.07.68-4.61,1.01l-4.41,1.75-.09-.05Z"/>
          </g>
        </g>
      </g>
      <g id="Group_44" data-name="Group 44">
        <path id="Path_107" data-name="Path 107" d="M19.04,171.6a7.813,7.813,0,0,1,.31-2.45,3.028,3.028,0,0,1,.93-1.43,2.412,2.412,0,0,1,1.56-.5,2.459,2.459,0,0,1,1.21.28,2.43,2.43,0,0,1,.86.8,4.287,4.287,0,0,1,.53,1.28,8.451,8.451,0,0,1,.19,2.03,7.787,7.787,0,0,1-.31,2.44,3.113,3.113,0,0,1-.93,1.44,2.606,2.606,0,0,1-3.51-.38A5.809,5.809,0,0,1,19.04,171.6Zm1.08,0a5.4,5.4,0,0,0,.5,2.82,1.413,1.413,0,0,0,2.44,0,8.174,8.174,0,0,0,0-5.63,1.458,1.458,0,0,0-1.23-.7,1.363,1.363,0,0,0-1.16.62A5.3,5.3,0,0,0,20.12,171.6Z"/>
      </g>
      <g id="Group_47" data-name="Group 47">
        <g id="Group_46" data-name="Group 46">
          <line id="Line_51" data-name="Line 51" y1="182.88" transform="translate(27.5 9.86)" fill="none" stroke="#000" stroke-width="0.25"/>
          <g id="Group_45" data-name="Group 45">
            <path id="Path_108" data-name="Path 108" d="M27.5,11.2l-2.7,1.64-.06-.09,1.75-4.41c.34-1.54.68-3.07,1.01-4.61.34,1.54.68,3.07,1.01,4.61l1.75,4.41-.05.09Z"/>
          </g>
        </g>
      </g>
      <g id="Group_48" data-name="Group 48">
        <path id="Path_109" data-name="Path 109" d="M16.83,12.7l.06-1a2.409,2.409,0,0,0,.64.09.844.844,0,0,0,.52-.15,2.386,2.386,0,0,0,.56-.73l.34-.61L17.91,4.06h1.04l.47,3.15q.135.93.24,1.86l2.78-5.01h1.11l-3.97,7.05a4.506,4.506,0,0,1-1.02,1.37,1.628,1.628,0,0,1-1.03.33A1.964,1.964,0,0,1,16.83,12.7Z"/>
      </g>
      <g id="Group_49" data-name="Group 49">
        <path id="Path_110" data-name="Path 110" d="M192.23,174.95l2.71-3.16-1.55-3.06h1.17l.53,1.11c.2.41.37.81.53,1.19l1.79-2.3h1.29l-2.61,3.15,1.57,3.08h-1.17l-.62-1.27c-.13-.27-.28-.6-.45-1l-1.85,2.27h-1.34Z"/>
      </g>
      <g id="Group_50" data-name="Group 50">
        <path id="Path_111" data-name="Path 111" d="M143.25,70.93l.06-1a2.409,2.409,0,0,0,.64.09.844.844,0,0,0,.52-.15,2.386,2.386,0,0,0,.56-.73l.34-.61-1.04-6.24h1.04l.47,3.15q.135.93.24,1.86l2.78-5.01h1.11L146,69.34a4.506,4.506,0,0,1-1.02,1.37,1.628,1.628,0,0,1-1.03.33A1.712,1.712,0,0,1,143.25,70.93Z"/>
        <path id="Path_112" data-name="Path 112" d="M156,63.48h-5.67V62.5H156Zm0,2.61h-5.67V65.1H156Z"/>
        <path id="Path_113" data-name="Path 113" d="M156.8,68.53l1.13-5.4h-.95l.17-.82h.95l.18-.88a4.139,4.139,0,0,1,.29-.96,1.085,1.085,0,0,1,.49-.48,1.97,1.97,0,0,1,.92-.19,6.12,6.12,0,0,1,1.17.17l-.19.93a3.89,3.89,0,0,0-.9-.14.624.624,0,0,0-.47.16,1.575,1.575,0,0,0-.28.74l-.14.67h1.18l-.17.82H159l-1.13,5.4H156.8Z"/>
        <path id="Path_114" data-name="Path 114" d="M161.52,71.06a9.9,9.9,0,0,1-.92-4.14,8.914,8.914,0,0,1,.37-2.64,10.34,10.34,0,0,1,1.13-2.42,18,18,0,0,1,1.61-2.06h.83a11.433,11.433,0,0,0-1.45,2.06,10.935,10.935,0,0,0-1.11,2.61,9.842,9.842,0,0,0-.35,2.58,12.959,12.959,0,0,0,.67,4.01h-.78Z"/>
        <path id="Path_115" data-name="Path 115" d="M163.57,68.53l2.71-3.16-1.55-3.06h1.17l.53,1.11c.2.41.37.81.53,1.19l1.79-2.3h1.29l-2.61,3.15L169,68.54h-1.17l-.62-1.27c-.13-.27-.28-.6-.45-1l-1.85,2.27h-1.34Z"/>
        <path id="Path_116" data-name="Path 116" d="M171.97,59.79a9.757,9.757,0,0,1,.93,4.14,8.914,8.914,0,0,1-.37,2.64,10.34,10.34,0,0,1-1.13,2.42,19.222,19.222,0,0,1-1.61,2.06h-.83a11.7,11.7,0,0,0,1.45-2.07,11.109,11.109,0,0,0,1.11-2.61,9.831,9.831,0,0,0,.34-2.58,12.851,12.851,0,0,0-.67-4h.78Z"/>
      </g>
      <line id="Line_52" data-name="Line 52" y1="64.4" transform="translate(106.44 101.18)" fill="none" stroke="#131312" stroke-width="0.5" stroke-dasharray="2 2"/>
      <g id="Group_53" data-name="Group 53">
        <g id="Group_51" data-name="Group 51">
          <path id="Path_117" data-name="Path 117" d="M102.98,174.95l2.71-3.16-1.55-3.06h1.17l.53,1.11c.2.41.37.81.53,1.19l1.79-2.3h1.29l-2.61,3.15,1.57,3.08h-1.17l-.62-1.27c-.13-.27-.28-.6-.45-1l-1.85,2.27h-1.34Z"/>
        </g>
        <g id="Group_52" data-name="Group 52">
          <path id="Path_118" data-name="Path 118" d="M109.49,175.45a5.16,5.16,0,0,1,.21-1.63,2.138,2.138,0,0,1,.62-.96,1.551,1.551,0,0,1,1.04-.34,1.617,1.617,0,0,1,.81.19,1.549,1.549,0,0,1,.57.54,3.153,3.153,0,0,1,.36.85,5.432,5.432,0,0,1,.13,1.35,5.246,5.246,0,0,1-.21,1.63,2.008,2.008,0,0,1-.62.96,1.741,1.741,0,0,1-2.34-.25A3.814,3.814,0,0,1,109.49,175.45Zm.73,0a3.6,3.6,0,0,0,.33,1.88.933.933,0,0,0,1.62,0,5.52,5.52,0,0,0,0-3.76.968.968,0,0,0-.82-.46.9.9,0,0,0-.77.41A3.647,3.647,0,0,0,110.22,175.45Z"/>
        </g>
      </g>
      <g id="Group_54" data-name="Group 54">
        <path id="Path_119" data-name="Path 119" d="M48.58,146.23c20.14-1.89,39.61-4.86,58.04-45.11" fill="none" stroke="#269de6" stroke-linecap="round" stroke-width="2"/>
        <path id="Path_120" data-name="Path 120" d="M164.63,56.13c-20.14,1.89-39.6,4.86-58.04,45.11" fill="none" stroke="#269de6" stroke-linecap="round" stroke-width="2"/>
      </g>
      <circle id="Ellipse_21" data-name="Ellipse 21" cx="1.91" cy="1.91" r="1.91" transform="translate(104.65 99.35)" fill="#48a0b5" stroke="#000" stroke-width="0.5"/>
      <g id="Group_57" data-name="Group 57">
        <g id="Group_55" data-name="Group 55">
          <path id="Path_121" data-name="Path 121" d="M4.88,104.61l1.13-5.4H5.06l.17-.82h.95l.18-.88a4.138,4.138,0,0,1,.29-.96,1.085,1.085,0,0,1,.49-.48,1.969,1.969,0,0,1,.92-.19,6.12,6.12,0,0,1,1.17.17l-.19.93a3.89,3.89,0,0,0-.9-.14.624.624,0,0,0-.47.16,1.575,1.575,0,0,0-.28.74l-.14.67H8.43l-.17.82H7.07l-1.13,5.4H4.88Z"/>
          <path id="Path_122" data-name="Path 122" d="M10.47,107.14a10.691,10.691,0,0,1-1.48-2.58,7.873,7.873,0,0,1-.6-3.06,7.963,7.963,0,0,1,.45-2.67,10.985,10.985,0,0,1,1.63-2.95h.76c-.47.81-.79,1.39-.94,1.74a8.816,8.816,0,0,0-.56,1.69,9.642,9.642,0,0,0-.25,2.2,10.535,10.535,0,0,0,1.75,5.63Z"/>
          <path id="Path_123" data-name="Path 123" d="M11.65,104.61l2.71-3.16-1.55-3.06h1.17l.53,1.11c.2.41.37.81.53,1.19l1.79-2.3h1.29l-2.61,3.15,1.57,3.08H15.9l-.62-1.27c-.13-.27-.28-.6-.45-1l-1.85,2.27H11.65Z"/>
          <path id="Path_124" data-name="Path 124" d="M22.48,107.14h-.76a10.56,10.56,0,0,0,1.75-5.63,9.62,9.62,0,0,0-.25-2.19,8.817,8.817,0,0,0-.56-1.69c-.15-.35-.47-.94-.94-1.76h.76a11.268,11.268,0,0,1,1.63,2.95,8.056,8.056,0,0,1-.16,5.73A10.938,10.938,0,0,1,22.48,107.14Z"/>
        </g>
        <g id="Group_56" data-name="Group 56">
          <path id="Path_125" data-name="Path 125" d="M17.66,105.14a5.159,5.159,0,0,1,.21-1.63,2.138,2.138,0,0,1,.62-.96,1.551,1.551,0,0,1,1.04-.34,1.617,1.617,0,0,1,.81.19,1.549,1.549,0,0,1,.57.54,3.153,3.153,0,0,1,.36.85,5.433,5.433,0,0,1,.13,1.35,5.246,5.246,0,0,1-.21,1.63,2.008,2.008,0,0,1-.62.96,1.741,1.741,0,0,1-2.34-.25A3.834,3.834,0,0,1,17.66,105.14Zm.72,0a3.6,3.6,0,0,0,.33,1.88.933.933,0,0,0,1.62,0,5.52,5.52,0,0,0,0-3.76.968.968,0,0,0-.82-.46.9.9,0,0,0-.77.41A3.623,3.623,0,0,0,18.38,105.14Z"/>
        </g>
      </g>
    </g>
  </g>
</svg>
