<svg xmlns="http://www.w3.org/2000/svg" width="193.7" height="127" viewBox="0 0 193.7 127">
  <g id="square-vs-square-root" transform="translate(2.5 8.6)">
    <g id="Group_265" data-name="Group 265" transform="matrix(1, 0.03, -0.03, 1, -100.015, -124.513)">
      <path id="Path_654" data-name="Path 654" d="M130.509,156.911c6.552-4.664,14.569-6.206,22.008-8.865,13.722-4.394,28.175-6.128,42.552-6.475,13.143-.116,26.749,1,38.775,6.707,2.351,1.5,8.9,2.775,8.325,5.242-2.621,2.505-4.972-2.351-8.017-2.274-12.758-6.707-27.52-7.786-41.666-7.632-14.955.463-29.987,2.582-44.132,7.67-5.165,1.812-10.677,3.045-15.109,6.4-.925-.27-1.927-.5-2.775-.809Z" fill="#a7a7a7"/>
      <path id="Path_655" data-name="Path 655" d="M225.712,151.708c4.818-1.927,10.176-.308,15.071.655,2.929.578,4.278,2,1.156,3.276-3.854-2.12-8.518-2.236-12.8-2.66-2.814.231-.886.308-1.233-.347a12.53,12.53,0,0,1-2.2-.925Z" fill="#a7a7a7"/>
      <path id="Path_656" data-name="Path 656" d="M238.624,144.115c.964,3.854,2.775,7.786,6.321,9.906-1.966,2.274-3.97.964-5.4-1.156-1.118-2.043-5.55-7.632-2.081-8.48A11.611,11.611,0,0,1,238.624,144.115Z" fill="#a7a7a7"/>
    </g>
    <g id="Group_266" data-name="Group 266" transform="matrix(-1, -0.03, 0.03, -1, 264.561, 242.187)">
      <path id="Path_657" data-name="Path 657" d="M130.509,156.911c6.552-4.664,14.569-6.206,22.008-8.865,13.722-4.394,28.175-6.128,42.552-6.475,13.143-.116,26.749,1,38.775,6.707,2.351,1.5,8.9,2.775,8.325,5.242-2.621,2.505-4.972-2.351-8.017-2.274-12.758-6.707-27.52-7.786-41.666-7.632-14.955.463-29.987,2.582-44.132,7.67-5.165,1.812-10.677,3.045-15.109,6.4-.925-.27-1.927-.5-2.775-.809Z" fill="#0975b7"/>
      <path id="Path_658" data-name="Path 658" d="M225.712,151.708c4.818-1.927,10.176-.308,15.071.655,2.929.578,4.278,2,1.156,3.276-3.854-2.12-8.518-2.236-12.8-2.66-2.814.231-.886.308-1.233-.347a12.53,12.53,0,0,1-2.2-.925Z" fill="#0975b7"/>
      <path id="Path_659" data-name="Path 659" d="M238.624,144.115c.964,3.854,2.775,7.786,6.321,9.906-1.966,2.274-3.97.964-5.4-1.156-1.118-2.043-5.55-7.632-2.081-8.48A11.611,11.611,0,0,1,238.624,144.115Z" fill="#0975b7"/>
    </g>
    <text id="Square" transform="translate(49.6 15.4)" fill="#a7a7a7" font-size="21.6" font-family="ComicSansMS, Comic Sans MS"><tspan x="0" y="0">Square</tspan></text>
    <text id="Square_Root" data-name="Square Root" transform="translate(29.9 112.4)" fill="#0975b7" font-size="21.6" font-family="ComicSansMS, Comic Sans MS"><tspan x="0" y="0">Square Root</tspan></text>
    <text id="_7" data-name="7" transform="translate(-2.5 68.5)" fill="#a7a7a7" font-size="34.7" font-family="ComicSansMS, Comic Sans MS"><tspan x="0" y="0">7</tspan></text>
    <text id="_49" data-name="49" transform="translate(148.2 69.7)" fill="#0975b7" font-size="34.7" font-family="ComicSansMS, Comic Sans MS"><tspan x="0" y="0">49</tspan></text>
  </g>
</svg>
