<svg xmlns="http://www.w3.org/2000/svg" width="10289" height="3204.989" viewBox="0 0 10289 3204.989">
  <g id="tan_laws" data-name="tan laws" transform="translate(-120 1851.565)">
    <g id="Group_300" data-name="Group 300" transform="translate(120)">
      <rect id="Rectangle_581" data-name="Rectangle 581" width="2301" height="60" transform="translate(0 -280)" fill="#2a2a2a"/>
      <g id="Group_298" data-name="Group 298" transform="translate(60 -676)">
        <path id="Path_682" data-name="Path 682" d="M33-157q0-101,76-192t171-92q51,0,90,49,16-30,46-30a35.78,35.78,0,0,1,23,8q10,8,10,20,0,13-37,160T374-68q0,25,7,33t21,9q9-1,20-9,21-20,41-96,6-20,10-21,2-1,10-1h4q19,0,19,9,0,6-5,27T481-63q-15,33-32,50A98.88,98.88,0,0,1,417,8q-8,2-24,2-34,0-57-15T306-36l-6-15q-1-1-4,1l-4,4Q233,10,172,10q-55,0-97-40T33-157ZM351-328q0-6-5-22t-23-35q-18-19-46-20-35,0-67,31t-50,81a798.345,798.345,0,0,0-41,164v11a53.305,53.305,0,0,1-1,12q0,45,18,62a64.4,64.4,0,0,0,43,18q38,0,75-33t44-51q2-4,27-107T351-328Z" fill="#0975b7" stroke="#000" stroke-width="0"/>
        <path id="Path_683" data-name="Path 683" d="M84-237v-13l14-20H679q15,8,15,20t-15,20H98q-14-7-14-20Z" transform="translate(751)" fill="#0975b7" stroke="#000" stroke-width="0"/>
        <path id="Path_684" data-name="Path 684" d="M73-647q0-10,4-23t12-13q1,0,72-5t73-6q12,0,12,9T212-542q-8,34-17,70t-15,54l-4,19q0,3,6-3,49-40,101-40,62,0,100,46t39,116q0,111-79,201T173,11q-50,0-91-38T40-150v-9q0-21,8-58T97-414q50-197,50-209t-38-14H83q-3,0-7-3T73-647ZM336-325v-6q0-74-61-74-17,0-35,8a131.971,131.971,0,0,0-33,21q-15,13-26,24a130.628,130.628,0,0,0-18,22l-6,8-21,86q-22,86-22,122,0,48,24,72,16,16,40,16,33,0,67-32,25-23,40-56t33-105Q336-291,336-325Z" transform="translate(1752)" fill="#0975b7" stroke="#000" stroke-width="0"/>
      </g>
      <g id="Group_299" data-name="Group 299" transform="translate(60 715)">
        <path id="Path_685" data-name="Path 685" d="M33-157q0-101,76-192t171-92q51,0,90,49,16-30,46-30a35.78,35.78,0,0,1,23,8q10,8,10,20,0,13-37,160T374-68q0,25,7,33t21,9q9-1,20-9,21-20,41-96,6-20,10-21,2-1,10-1h4q19,0,19,9,0,6-5,27T481-63q-15,33-32,50A98.88,98.88,0,0,1,417,8q-8,2-24,2-34,0-57-15T306-36l-6-15q-1-1-4,1l-4,4Q233,10,172,10q-55,0-97-40T33-157ZM351-328q0-6-5-22t-23-35q-18-19-46-20-35,0-67,31t-50,81a798.345,798.345,0,0,0-41,164v11a53.305,53.305,0,0,1-1,12q0,45,18,62a64.4,64.4,0,0,0,43,18q38,0,75-33t44-51q2-4,27-107T351-328Z" fill="#0975b7" stroke="#000" stroke-width="0"/>
        <path id="Path_686" data-name="Path 686" d="M56-237v-13l14-20H369V-420l1-150q10-13,19-13,13,0,20,15v298H707q15,8,15,20t-15,20H409V68q-8,14-18,14h-4q-12,0-18-14V-230H70q-14-7-14-20Z" transform="translate(751)" fill="#0975b7" stroke="#000" stroke-width="0"/>
        <path id="Path_687" data-name="Path 687" d="M73-647q0-10,4-23t12-13q1,0,72-5t73-6q12,0,12,9T212-542q-8,34-17,70t-15,54l-4,19q0,3,6-3,49-40,101-40,62,0,100,46t39,116q0,111-79,201T173,11q-50,0-91-38T40-150v-9q0-21,8-58T97-414q50-197,50-209t-38-14H83q-3,0-7-3T73-647ZM336-325v-6q0-74-61-74-17,0-35,8a131.971,131.971,0,0,0-33,21q-15,13-26,24a130.628,130.628,0,0,0-18,22l-6,8-21,86q-22,86-22,122,0,48,24,72,16,16,40,16,33,0,67-32,25-23,40-56t33-105Q336-291,336-325Z" transform="translate(1752)" fill="#0975b7" stroke="#000" stroke-width="0"/>
      </g>
    </g>
    <path id="Path_688" data-name="Path 688" d="M56-347q0-13,14-20H707q15,8,15,20,0,11-14,19l-318,1H72Q56-332,56-347Zm0,194q0-15,16-20H708q14,10,14,20,0,13-15,20H70Q56-140,56-153Z" transform="translate(2819)" fill="#0975b7" stroke="#000" stroke-width="0"/>
    <g id="Group_310" data-name="Group 310" transform="translate(3876)">
      <g id="Group_309" data-name="Group 309" transform="translate(120)">
        <rect id="Rectangle_582" data-name="Rectangle 582" width="6413" height="60" transform="translate(0 -280)" fill="#2a2a2a"/>
        <g id="Group_304" data-name="Group 304" transform="translate(60 -936)">
          <path id="Path_689" data-name="Path 689" d="M27-422q53-4,82-56t32-122v-15h40v184H316v46H181v144q1,125,1,141a79.27,79.27,0,0,0,7,32q14,39,49,39,44,0,54-71,1-8,1-46v-35h40v47q0,77-42,117-27,27-70,27-34,0-59-12T124-33q-13-19-19-35a110.419,110.419,0,0,1-7-32q-1-7-1-148V-385H18v-37Z" fill="#0975b7" stroke="#000" stroke-width="0"/>
          <path id="Path_690" data-name="Path 690" d="M137-305H115L78-320q-37-15-15-39,0-35,34-62t121-27q73,0,118,32t60,76a91.632,91.632,0,0,1,5,31q0,17,1,115v70q0,48,5,66t21,18q15,0,20-16t5-53v-36h40v39q-1,40-3,47a82.911,82.911,0,0,1-35,47Q429,5,400,6T353-12q-18-19-24-42v-4l-2,3a39.732,39.732,0,0,1-5,6q-3,3-8,9a63.663,63.663,0,0,1-12,11q-7,5-15,12A62.208,62.208,0,0,1,269-6q-10,4-22,8a148.609,148.609,0,0,1-26,6q-14,2-31,3Q130,11,82-20T34-107a114.777,114.777,0,0,1,7-40q7-19,27-41a177.363,177.363,0,0,1,48-37q28-15,78-28t110-15h14v-22q0-34-6-50-22-71-97-71-18,0-34,1t-25,4q-9,3-8,3,22,15,22,44,0,25-16,39ZM126-106q0,31,24,55t59,25q38,0,67-23t39-60q2-7,3-66,0-58-1-58-8,0-21,1t-45,9a328.324,328.324,0,0,0-58,20q-26,12-46,37T126-106Z" transform="translate(389)" fill="#0975b7" stroke="#000" stroke-width="0"/>
          <path id="Path_691" data-name="Path 691" d="M41-46H55q39,0,47-14v-62q0-17,1-39t0-42v-66q0-35-1-59v-23q-3-19-14-25t-45-9H25v-23q0-23,2-23l10-1q10-1,28-2t37-2q17-1,36-2t29-3q10-2,11-1h3v40q0,38,1,38t5-5l12-15a97.853,97.853,0,0,1,19-18q11-8,29-19a135.577,135.577,0,0,1,38-16q20-5,51-5,114,4,127,113,1,7,1,139v86q0,38,2,45t11,10a350.858,350.858,0,0,0,49,3h16V0h-8L510-1q-23-1-50-1T422-3Q319-3,310,0h-8V-46h16q61,0,61-16,1-2,1-138-1-135-2-143-6-28-20-42t-24-17q-10-3-26-2-45,0-79,34-27,27-34,55t-8,83v124q0,30,1,40t3,13q2,3,9,6a350.857,350.857,0,0,0,49,3h16V0h-8L234-1q-24-1-51-1T145-3Q42-3,33,0H25V-46Z" transform="translate(890)" fill="#0975b7" stroke="#000" stroke-width="0"/>
          <g id="Group_303" data-name="Group 303" transform="translate(1446)">
            <path id="Path_692" data-name="Path 692" d="M152-251q0-395,236-599h28q6,6,6,9,0,4-19,25t-46,63q-27,42-55,104T255-482q-19,105-19,232,0,126,19,231t46,166q27,61,55,104t47,64q19,21,19,25,0,3-6,9H388a594.285,594.285,0,0,1-56-53q-27-29-61-83A728.341,728.341,0,0,1,212,97Q187,35,170-56T152-251Z" fill="#0975b7" stroke="#000" stroke-width="0"/>
            <g id="Group_302" data-name="Group 302" transform="translate(458)">
              <g id="Group_301" data-name="Group 301" transform="translate(120)">
                <rect id="Rectangle_583" data-name="Rectangle 583" width="473" height="60" transform="translate(0 -280)" fill="#0975b7"/>
                <path id="Path_693" data-name="Path 693" d="M150.591-408.646l-9.191,3.535q-9.9,3.535-28.28,7.07a325.9,325.9,0,0,1-41.006,4.949H58.681v-32.522H72.114a229.915,229.915,0,0,0,61.509-10.605q28.28-9.191,39.592-16.968a181.246,181.246,0,0,0,19.8-15.554q1.414-2.121,8.484-2.121a19.692,19.692,0,0,1,12.019,4.242v211.393l.707,212.1q4.949,4.949,8.484,6.363t16.968,2.828q13.433,1.414,43.834,1.414h18.382V0h-7.777Q279.265-2.121,181.7-2.121,85.547-2.121,70.7,0H62.216V-32.522h45.248a169.8,169.8,0,0,0,17.675-.707,69.229,69.229,0,0,0,11.312-2.121,42.368,42.368,0,0,1,5.656-1.414q.707,0,4.242-3.535t4.242-2.828Z" transform="translate(59.388 -444.703)" fill="#0975b7" stroke="#000" stroke-width="0"/>
                <path id="Path_694" data-name="Path 694" d="M77.063-303.3q-19.089,0-30.4-12.726T35.35-347.137q0-50.2,37.471-86.961t93.324-36.764q64.337,0,107.464,39.592t43.834,102.515a125.377,125.377,0,0,1-14.14,57.974,200.066,200.066,0,0,1-33.936,48.076q-19.8,20.5-56.56,52.318-25.452,21.917-70.7,65.044L100.394-65.751l53.732.707q111,0,118.069-3.535,4.949-1.414,16.968-62.923v-2.121h28.28v2.121q-.707,2.121-9.191,64.337T297.647-2.121V0H35.35V-21.917q0-4.949,4.242-10.6T60.8-57.267q20.5-22.624,35.35-39.592,6.363-7.07,24.038-26.159t24.038-26.159q6.363-7.07,20.5-23.331t19.8-24.038q5.656-7.777,16.261-21.21t14.847-22.624q4.242-9.191,10.6-20.5a91.381,91.381,0,0,0,9.191-22.624q2.828-11.312,4.949-21.21a112.558,112.558,0,0,0,2.121-23.331q0-44.541-24.038-77.063t-68.579-32.522q-23.331,0-41.006,12.019T84.133-402.283q-7.07,11.312-7.07,13.433,0,.707,3.535.707,12.726,0,26.159,9.9t13.433,32.522q0,17.675-11.312,29.694T77.063-303.3Z" transform="translate(59.388 416.423)" fill="#0975b7" stroke="#000" stroke-width="0"/>
              </g>
              <path id="Path_695" data-name="Path 695" d="M94-250a822.51,822.51,0,0,1,10-131q10-62,23-107a418.739,418.739,0,0,1,37-88q24-43,38-67t42-52q28-28,33-34t25-21h17q14,0,14,9,0,3-17,21t-41,53q-24,35-49,86T184-443q-17,87-17,193T184-58q17,86,41,139t49,86q25,33,42,53t17,21q0,9-15,9H302l-28-24Q180,141,137,14T94-250Z" transform="translate(713)" fill="#0975b7" stroke="#000" stroke-width="0"/>
              <path id="Path_696" data-name="Path 696" d="M34-156q0-114,86-200t189-86q70,0,112,40t57,98q6,29,7,67v29q49-74,75-166,4-14,6-16t16-3q21,0,21,8,0,9-9,39t-36,85a614.577,614.577,0,0,1-61,100l-11,14,1,24q2,56,8,76t19,21a56.038,56.038,0,0,0,26-11,48.626,48.626,0,0,0,17-23q2-7,5-8t15-2q20,0,20,8,0,6-6,19A91.628,91.628,0,0,1,556-5Q533,9,512,10h-7q-67,0-91-72l-3-7-11,8q-10,8-30,20a403.117,403.117,0,0,1-45,23A417.584,417.584,0,0,1,267,2a242.827,242.827,0,0,1-64,9Q124,11,79-39T34-156ZM208-26q49,0,98-21t73-43l24-22q-2-143-7-178-14-115-92-115-69,0-121,73-27,40-44,108T121-120q0,49,25,71T208-26Z" transform="translate(1103)" fill="#0975b7" stroke="#000" stroke-width="0"/>
              <path id="Path_697" data-name="Path 697" d="M84-237v-13l14-20H679q15,8,15,20t-15,20H98q-14-7-14-20Z" transform="translate(1966)" fill="#0975b7" stroke="#000" stroke-width="0"/>
              <path id="Path_698" data-name="Path 698" d="M29,194q-6-6-6-8,0-3,79-320t84-331q22-68,57-119t66-74q56-47,120-47h2q62,0,102,38t40,97q0,105-104,174l13,13q51,51,51,131,0,113-85,187T257,10q-30,0-54-8T165-17q-14-11-22-23T131-59q-4-7-5-6L62,188q-2,6-20,6ZM353-431a226.58,226.58,0,0,1,74,12l5-3,7-7,10-10a112,112,0,0,0,12-14,179.107,179.107,0,0,0,11-18q6-11,12-24a123.129,123.129,0,0,0,9-29q3-16,8-36,2-9,2-33,0-18-1-23-15-51-76-51-42,0-79,24a204.694,204.694,0,0,0-61,61q-24,37-39,68a369.112,369.112,0,0,0-23,59q-5,16-38,147T152-168q-1,5-1,21,0,48,22,79,31,42,87,42,42,0,89-25t76-86q16-34,24-77t8-65q0-58-35-93-42,14-75,14H337q-79,0-79-31a35.292,35.292,0,0,1,3-14Q275-431,353-431Z" transform="translate(2966)" fill="#0975b7" stroke="#000" stroke-width="0"/>
              <path id="Path_699" data-name="Path 699" d="M60-749l4-1H86l28,24q94,85,137,212t43,264a834.819,834.819,0,0,1-10,131Q274-56,261-12a450.4,450.4,0,0,1-37,88q-24,44-38,67t-41,51q-27,28-32,33T90,246l-4,4H63a5.876,5.876,0,0,1-5-3q-2-3-3-9,1-1,11-13Q221,64,221-250T66-725q-10-12-11-13Q55-746,60-749Z" transform="translate(3540)" fill="#0975b7" stroke="#000" stroke-width="0"/>
            </g>
            <path id="Path_700" data-name="Path 700" d="M305-251q0,396-236,600H56q-13,0-17-2t-4-9q2-5,25-31t48-68q25-42,52-103T204-27q17-102,17-223T204-473q-17-102-44-163T108-740q-25-43-48-67T35-839q0-11,15-11H69Q197-743,256-566,305-425,305-251Z" transform="translate(4388 1)" fill="#0975b7" stroke="#000" stroke-width="0"/>
          </g>
        </g>
        <g id="Group_308" data-name="Group 308" transform="translate(60 937)">
          <path id="Path_701" data-name="Path 701" d="M27-422q53-4,82-56t32-122v-15h40v184H316v46H181v144q1,125,1,141a79.27,79.27,0,0,0,7,32q14,39,49,39,44,0,54-71,1-8,1-46v-35h40v47q0,77-42,117-27,27-70,27-34,0-59-12T124-33q-13-19-19-35a110.419,110.419,0,0,1-7-32q-1-7-1-148V-385H18v-37Z" fill="#0975b7" stroke="#000" stroke-width="0"/>
          <path id="Path_702" data-name="Path 702" d="M137-305H115L78-320q-37-15-15-39,0-35,34-62t121-27q73,0,118,32t60,76a91.632,91.632,0,0,1,5,31q0,17,1,115v70q0,48,5,66t21,18q15,0,20-16t5-53v-36h40v39q-1,40-3,47a82.911,82.911,0,0,1-35,47Q429,5,400,6T353-12q-18-19-24-42v-4l-2,3a39.732,39.732,0,0,1-5,6q-3,3-8,9a63.663,63.663,0,0,1-12,11q-7,5-15,12A62.208,62.208,0,0,1,269-6q-10,4-22,8a148.609,148.609,0,0,1-26,6q-14,2-31,3Q130,11,82-20T34-107a114.777,114.777,0,0,1,7-40q7-19,27-41a177.363,177.363,0,0,1,48-37q28-15,78-28t110-15h14v-22q0-34-6-50-22-71-97-71-18,0-34,1t-25,4q-9,3-8,3,22,15,22,44,0,25-16,39ZM126-106q0,31,24,55t59,25q38,0,67-23t39-60q2-7,3-66,0-58-1-58-8,0-21,1t-45,9a328.324,328.324,0,0,0-58,20q-26,12-46,37T126-106Z" transform="translate(389)" fill="#0975b7" stroke="#000" stroke-width="0"/>
          <path id="Path_703" data-name="Path 703" d="M41-46H55q39,0,47-14v-62q0-17,1-39t0-42v-66q0-35-1-59v-23q-3-19-14-25t-45-9H25v-23q0-23,2-23l10-1q10-1,28-2t37-2q17-1,36-2t29-3q10-2,11-1h3v40q0,38,1,38t5-5l12-15a97.853,97.853,0,0,1,19-18q11-8,29-19a135.577,135.577,0,0,1,38-16q20-5,51-5,114,4,127,113,1,7,1,139v86q0,38,2,45t11,10a350.858,350.858,0,0,0,49,3h16V0h-8L510-1q-23-1-50-1T422-3Q319-3,310,0h-8V-46h16q61,0,61-16,1-2,1-138-1-135-2-143-6-28-20-42t-24-17q-10-3-26-2-45,0-79,34-27,27-34,55t-8,83v124q0,30,1,40t3,13q2,3,9,6a350.857,350.857,0,0,0,49,3h16V0h-8L234-1q-24-1-51-1T145-3Q42-3,33,0H25V-46Z" transform="translate(890)" fill="#0975b7" stroke="#000" stroke-width="0"/>
          <g id="Group_307" data-name="Group 307" transform="translate(1446)">
            <path id="Path_704" data-name="Path 704" d="M152-251q0-395,236-599h28q6,6,6,9,0,4-19,25t-46,63q-27,42-55,104T255-482q-19,105-19,232,0,126,19,231t46,166q27,61,55,104t47,64q19,21,19,25,0,3-6,9H388a594.285,594.285,0,0,1-56-53q-27-29-61-83A728.341,728.341,0,0,1,212,97Q187,35,170-56T152-251Z" fill="#0975b7" stroke="#000" stroke-width="0"/>
            <g id="Group_306" data-name="Group 306" transform="translate(458)">
              <g id="Group_305" data-name="Group 305" transform="translate(120)">
                <rect id="Rectangle_584" data-name="Rectangle 584" width="473" height="60" transform="translate(0 -280)" fill="#0975b7"/>
                <path id="Path_705" data-name="Path 705" d="M150.591-408.646l-9.191,3.535q-9.9,3.535-28.28,7.07a325.9,325.9,0,0,1-41.006,4.949H58.681v-32.522H72.114a229.915,229.915,0,0,0,61.509-10.605q28.28-9.191,39.592-16.968a181.246,181.246,0,0,0,19.8-15.554q1.414-2.121,8.484-2.121a19.692,19.692,0,0,1,12.019,4.242v211.393l.707,212.1q4.949,4.949,8.484,6.363t16.968,2.828q13.433,1.414,43.834,1.414h18.382V0h-7.777Q279.265-2.121,181.7-2.121,85.547-2.121,70.7,0H62.216V-32.522h45.248a169.8,169.8,0,0,0,17.675-.707,69.229,69.229,0,0,0,11.312-2.121,42.368,42.368,0,0,1,5.656-1.414q.707,0,4.242-3.535t4.242-2.828Z" transform="translate(59.388 -444.703)" fill="#0975b7" stroke="#000" stroke-width="0"/>
                <path id="Path_706" data-name="Path 706" d="M77.063-303.3q-19.089,0-30.4-12.726T35.35-347.137q0-50.2,37.471-86.961t93.324-36.764q64.337,0,107.464,39.592t43.834,102.515a125.377,125.377,0,0,1-14.14,57.974,200.066,200.066,0,0,1-33.936,48.076q-19.8,20.5-56.56,52.318-25.452,21.917-70.7,65.044L100.394-65.751l53.732.707q111,0,118.069-3.535,4.949-1.414,16.968-62.923v-2.121h28.28v2.121q-.707,2.121-9.191,64.337T297.647-2.121V0H35.35V-21.917q0-4.949,4.242-10.6T60.8-57.267q20.5-22.624,35.35-39.592,6.363-7.07,24.038-26.159t24.038-26.159q6.363-7.07,20.5-23.331t19.8-24.038q5.656-7.777,16.261-21.21t14.847-22.624q4.242-9.191,10.6-20.5a91.381,91.381,0,0,0,9.191-22.624q2.828-11.312,4.949-21.21a112.558,112.558,0,0,0,2.121-23.331q0-44.541-24.038-77.063t-68.579-32.522q-23.331,0-41.006,12.019T84.133-402.283q-7.07,11.312-7.07,13.433,0,.707,3.535.707,12.726,0,26.159,9.9t13.433,32.522q0,17.675-11.312,29.694T77.063-303.3Z" transform="translate(59.388 416.423)" fill="#0975b7" stroke="#000" stroke-width="0"/>
              </g>
              <path id="Path_707" data-name="Path 707" d="M94-250a822.51,822.51,0,0,1,10-131q10-62,23-107a418.739,418.739,0,0,1,37-88q24-43,38-67t42-52q28-28,33-34t25-21h17q14,0,14,9,0,3-17,21t-41,53q-24,35-49,86T184-443q-17,87-17,193T184-58q17,86,41,139t49,86q25,33,42,53t17,21q0,9-15,9H302l-28-24Q180,141,137,14T94-250Z" transform="translate(713)" fill="#0975b7" stroke="#000" stroke-width="0"/>
              <path id="Path_708" data-name="Path 708" d="M34-156q0-114,86-200t189-86q70,0,112,40t57,98q6,29,7,67v29q49-74,75-166,4-14,6-16t16-3q21,0,21,8,0,9-9,39t-36,85a614.577,614.577,0,0,1-61,100l-11,14,1,24q2,56,8,76t19,21a56.038,56.038,0,0,0,26-11,48.626,48.626,0,0,0,17-23q2-7,5-8t15-2q20,0,20,8,0,6-6,19A91.628,91.628,0,0,1,556-5Q533,9,512,10h-7q-67,0-91-72l-3-7-11,8q-10,8-30,20a403.117,403.117,0,0,1-45,23A417.584,417.584,0,0,1,267,2a242.827,242.827,0,0,1-64,9Q124,11,79-39T34-156ZM208-26q49,0,98-21t73-43l24-22q-2-143-7-178-14-115-92-115-69,0-121,73-27,40-44,108T121-120q0,49,25,71T208-26Z" transform="translate(1103)" fill="#0975b7" stroke="#000" stroke-width="0"/>
              <path id="Path_709" data-name="Path 709" d="M56-237v-13l14-20H369V-420l1-150q10-13,19-13,13,0,20,15v298H707q15,8,15,20t-15,20H409V68q-8,14-18,14h-4q-12,0-18-14V-230H70q-14-7-14-20Z" transform="translate(1966)" fill="#0975b7" stroke="#000" stroke-width="0"/>
              <path id="Path_710" data-name="Path 710" d="M29,194q-6-6-6-8,0-3,79-320t84-331q22-68,57-119t66-74q56-47,120-47h2q62,0,102,38t40,97q0,105-104,174l13,13q51,51,51,131,0,113-85,187T257,10q-30,0-54-8T165-17q-14-11-22-23T131-59q-4-7-5-6L62,188q-2,6-20,6ZM353-431a226.58,226.58,0,0,1,74,12l5-3,7-7,10-10a112,112,0,0,0,12-14,179.107,179.107,0,0,0,11-18q6-11,12-24a123.129,123.129,0,0,0,9-29q3-16,8-36,2-9,2-33,0-18-1-23-15-51-76-51-42,0-79,24a204.694,204.694,0,0,0-61,61q-24,37-39,68a369.112,369.112,0,0,0-23,59q-5,16-38,147T152-168q-1,5-1,21,0,48,22,79,31,42,87,42,42,0,89-25t76-86q16-34,24-77t8-65q0-58-35-93-42,14-75,14H337q-79,0-79-31a35.292,35.292,0,0,1,3-14Q275-431,353-431Z" transform="translate(2966)" fill="#0975b7" stroke="#000" stroke-width="0"/>
              <path id="Path_711" data-name="Path 711" d="M60-749l4-1H86l28,24q94,85,137,212t43,264a834.819,834.819,0,0,1-10,131Q274-56,261-12a450.4,450.4,0,0,1-37,88q-24,44-38,67t-41,51q-27,28-32,33T90,246l-4,4H63a5.876,5.876,0,0,1-5-3q-2-3-3-9,1-1,11-13Q221,64,221-250T66-725q-10-12-11-13Q55-746,60-749Z" transform="translate(3540)" fill="#0975b7" stroke="#000" stroke-width="0"/>
            </g>
            <path id="Path_712" data-name="Path 712" d="M305-251q0,396-236,600H56q-13,0-17-2t-4-9q2-5,25-31t48-68q25-42,52-103T204-27q17-102,17-223T204-473q-17-102-44-163T108-740q-25-43-48-67T35-839q0-11,15-11H69Q197-743,256-566,305-425,305-251Z" transform="translate(4388 1)" fill="#0975b7" stroke="#000" stroke-width="0"/>
          </g>
        </g>
      </g>
    </g>
  </g>
</svg>
