<svg xmlns="http://www.w3.org/2000/svg" width="317.246" height="242.2" viewBox="0 0 317.246 242.2">
  <g id="Group_199" data-name="Group 199" transform="translate(-6885.754 -7485)">
    <g id="layer1" transform="translate(6558.774 7091.334)">
      <ellipse id="circle906" cx="6.634" cy="6.634" rx="6.634" ry="6.634" transform="matrix(0.987, -0.159, 0.159, 0.987, 499.727, 450.711)" fill="#9dceff"/>
      <ellipse id="circle904" cx="6.634" cy="6.634" rx="6.634" ry="6.634" transform="matrix(0.987, -0.159, 0.159, 0.987, 379.271, 564.08)" fill="#9dceff"/>
      <ellipse id="path4538" cx="6.634" cy="6.634" rx="6.634" ry="6.634" transform="matrix(0.987, -0.159, 0.159, 0.987, 443.332, 545.99)" fill="#85b8eb"/>
      <path id="path3213" d="M354.618,609.069,546.752,495.01" fill="none" stroke="#5591cd" stroke-width="1.26"/>
      <path id="path2388" d="M352.818,568.386s73.726,9.293,113.946-29.149C509.107,498.763,515.2,409.873,515.2,409.873" fill="none" stroke="#369" stroke-width="2.03"/>
      <path id="path3160" d="M354.225,598.749l192.644-179.4" fill="none" stroke="#3091f1" stroke-width="1.26"/>
      <path id="path3162" d="M468.448,562.8A62.8,62.8,0,0,0,496.2,531.526c10.465-26.532,16.39-55.275,16.39-55.275" fill="none"/>
      <text id="text3175" transform="matrix(0.729, -0.684, 0.684, 0.729, 408.903, 544.254)" fill="#3091f1" font-size="17.33" font-family="ArialMT, Arial"><tspan x="0" y="0">secant</tspan></text>
      <text id="text3215" transform="matrix(0.857, -0.515, 0.515, 0.857, 473.438, 553.557)" fill="#5591cd" font-size="17.33" font-family="ArialMT, Arial"><tspan x="0" y="0">tangent</tspan></text>
      <text id="text902" transform="matrix(0.468, -0.884, 0.884, 0.468, 477.658, 523.03)" fill="#369" font-size="16.17" font-family="ComicSansMS-Italic, Comic Sans MS" font-style="italic"><tspan x="0" y="0">curve</tspan></text>
    </g>
    <g id="layer1-2" data-name="layer1" transform="translate(6553.774 7078.568)">
      <path id="path3160-2" data-name="path3160" d="M354.225,648.632V418.639" transform="translate(0)" fill="none" stroke="#8c8c8c" stroke-width="1.26"/>
    </g>
    <g id="layer1-3" data-name="layer1" transform="translate(7599.639 7349.845) rotate(90)">
      <path id="path3160-3" data-name="path3160" d="M354.225,713.885V418.639" transform="translate(0 0)" fill="none" stroke="#8c8c8c" stroke-width="1.26"/>
    </g>
    <text id="y" transform="translate(6890 7504)" fill="#3091f1" font-size="17.33" font-family="ComicSansMS, Comic Sans MS"><tspan x="0" y="0">y</tspan></text>
    <text id="x" transform="translate(7192 7707)" fill="#3091f1" font-size="17.33" font-family="ComicSansMS, Comic Sans MS"><tspan x="0" y="0">x</tspan></text>
    <path id="Icon_ionic-ios-arrow-back" data-name="Icon ionic-ios-arrow-back" d="M12.587,10.071l2.935-2.932a.554.554,0,0,0-.785-.783L11.412,9.678a.553.553,0,0,0-.016.764l3.339,3.346a.554.554,0,0,0,.785-.783Z" transform="translate(6898.374 7697.615) rotate(-30)" fill="#438ad7"/>
    <path id="Icon_ionic-ios-arrow-back-2" data-name="Icon ionic-ios-arrow-back" d="M13.563,12.9,18.64,7.828a.959.959,0,0,0-1.358-1.354L11.53,12.222a.957.957,0,0,0-.028,1.322l5.776,5.788a.959.959,0,1,0,1.358-1.354Z" transform="translate(7123 7591.218) rotate(150)" fill="#5591cd"/>
    <path id="Icon_ionic-ios-arrow-back-3" data-name="Icon ionic-ios-arrow-back" d="M13.563,12.9,18.64,7.828a.959.959,0,0,0-1.358-1.354L11.53,12.222a.957.957,0,0,0-.028,1.322l5.776,5.788a.959.959,0,1,0,1.358-1.354Z" transform="translate(7123.435 7510.456) rotate(135)" fill="#3091f1"/>
  </g>
</svg>
