<svg xmlns="http://www.w3.org/2000/svg" width="800" height="450"><path fill="#1a5186" stroke="#1a5186" stroke-width="1.51" d="m773 254 74 89 22-67Z"/><path fill="#1a5186" stroke="#1a5186" stroke-width="1.51" d="m773 254-1 84 75 5Z"/><path fill="#1c5488" stroke="#1c5488" stroke-width="1.51" d="m830 232-57 22 96 22Z"/><path fill="#184e83" stroke="#184e83" stroke-width="1.51" d="m772 338 60 49 15-44Z"/><path fill="#246195" stroke="#246195" stroke-width="1.51" d="m736 28 33 114 38-114Z"/><path fill="#13467c" stroke="#13467c" stroke-width="1.51" d="m748 442-8 100 71 8Z"/><path fill="#13477c" stroke="#13477c" stroke-width="1.51" d="m748 442 63 108 14-100Z"/><path fill="#164b80" stroke="#164b80" stroke-width="1.51" d="m749 406-1 36 77 8Z"/><path fill="#225e92" stroke="#225e92" stroke-width="1.51" d="m807 28-38 114 57-20Z"/><path fill="#1f598d" stroke="#1f598d" stroke-width="1.51" d="m729 174 44 80 56-84Z"/><path fill="#205c8f" stroke="#205c8f" stroke-width="1.51" d="m769 142-40 32 100-4Z"/><path fill="#205b8f" stroke="#205b8f" stroke-width="1.51" d="m826 122-57 20 60 28Z"/><path fill="#1d578a" stroke="#1d578a" stroke-width="1.51" d="m829 170-56 84 57-22Z"/><path fill="#164b80" stroke="#164b80" stroke-width="1.51" d="m749 406 76 44 7-63Z"/><path fill="#184e83" stroke="#184e83" stroke-width="1.51" d="m772 338-23 68 83-19Z"/><path fill="#266598" stroke="#266598" stroke-width="1.51" d="M799-19 746-6l61 34Z"/><path fill="#246295" stroke="#246295" stroke-width="1.51" d="m736 28-44 43 77 71Z"/><path fill="#266598" stroke="#266598" stroke-width="1.51" d="m746-6-10 34h71Z"/><path fill="#164a7f" stroke="#164a7f" stroke-width="1.51" d="m694 453 46 89 8-100Z"/><path fill="#246295" stroke="#246295" stroke-width="1.51" d="m692 71-19 30 96 41Z"/><path fill="#1b5186" stroke="#1b5186" stroke-width="1.51" d="m657 310 92 96 23-68Z"/><path fill="#1d568a" stroke="#1d568a" stroke-width="1.51" d="m683 246-26 64 115 28Z"/><path fill="#1f5a8e" stroke="#1f5a8e" stroke-width="1.51" d="m729 174-37 39 81 41Z"/><path fill="#1d558a" stroke="#1d558a" stroke-width="1.51" d="m683 246 89 92 1-84Z"/><path fill="#1f598d" stroke="#1f598d" stroke-width="1.51" d="m692 213-9 33 90 8Z"/><path fill="#235f92" stroke="#235f92" stroke-width="1.51" d="m673 101 56 73 40-32Z"/><path fill="#1a5185" stroke="#1a5185" stroke-width="1.51" d="m657 310 36 116 56-20Z"/><path fill="#184d82" stroke="#184d82" stroke-width="1.51" d="m693 426 55 16 1-36Z"/><path fill="#184d82" stroke="#184d82" stroke-width="1.51" d="m693 426 1 27 54-11Z"/><path fill="#27679a" stroke="#27679a" stroke-width="1.51" d="m675-19 61 47 10-34Z"/><path fill="#276699" stroke="#276699" stroke-width="1.51" d="m675-19 17 90 44-43Z"/><path fill="#225f92" stroke="#225f92" stroke-width="1.51" d="m673 101 19 112 37-39Z"/><path fill="#246194" stroke="#246194" stroke-width="1.51" d="m673 101-50 9 69 103Z"/><path fill="#236194" stroke="#236194" stroke-width="1.51" d="m623 110-25 83 94 20Z"/><path fill="#28699b" stroke="#28699b" stroke-width="1.51" d="m675-19-67 47 84 43Z"/><path fill="#1c5489" stroke="#1c5489" stroke-width="1.51" d="m657 310-51 26 87 90Z"/><path fill="#1c5388" stroke="#1c5388" stroke-width="1.51" d="m606 336-9 81 96 9Z"/><path fill="#195084" stroke="#195084" stroke-width="1.51" d="m693 426-96-9 97 36Z"/><path fill="#194f84" stroke="#194f84" stroke-width="1.51" d="m597 417-7 74 104-38Z"/><path fill="#205c8f" stroke="#205c8f" stroke-width="1.51" d="m598 240 85 6 9-33Z"/><path fill="#225e92" stroke="#225e92" stroke-width="1.51" d="M598 193v47l94-27Z"/><path fill="#266699" stroke="#266699" stroke-width="1.51" d="m608 28 65 73 19-30Z"/><path fill="#276699" stroke="#276699" stroke-width="1.51" d="m608 28 15 82 50-9Z"/><path fill="#205a8e" stroke="#205a8e" stroke-width="1.51" d="m598 240 59 70 26-64Z"/><path fill="#2a6c9e" stroke="#2a6c9e" stroke-width="1.51" d="m590-4 18 32 67-47Z"/><path fill="#1f598d" stroke="#1f598d" stroke-width="1.51" d="m598 240 8 96 51-26Z"/><path fill="#225d90" stroke="#225d90" stroke-width="1.51" d="m566 234-5 106 37-100Z"/><path fill="#205a8e" stroke="#205a8e" stroke-width="1.51" d="m598 240-37 100 45-4Z"/><path fill="#1e578b" stroke="#1e578b" stroke-width="1.51" d="m561 340 36 77 9-81Z"/><path fill="#266598" stroke="#266598" stroke-width="1.51" d="m536 130 18 32 69-52Z"/><path fill="#28699b" stroke="#28699b" stroke-width="1.51" d="m608 28-69 35 84 47Z"/><path fill="#27689a" stroke="#27689a" stroke-width="1.51" d="m539 63-3 67 87-20Z"/><path fill="#256396" stroke="#256396" stroke-width="1.51" d="m554 162 44 31 25-83Z"/><path fill="#1b5286" stroke="#1b5286" stroke-width="1.51" d="m560 420 30 71 7-74Z"/><path fill="#1a5186" stroke="#1a5186" stroke-width="1.51" d="m560 420-1 75 31-4Z"/><path fill="#1d558a" stroke="#1d558a" stroke-width="1.51" d="m561 340-1 80 37-3Z"/><path fill="#235f93" stroke="#235f93" stroke-width="1.51" d="m566 234 32 6v-47Z"/><path fill="#296c9e" stroke="#296c9e" stroke-width="1.51" d="m590-4-51 67 69-35Z"/><path fill="#2b6ea0" stroke="#2b6ea0" stroke-width="1.51" d="m532-12 7 75 51-67Z"/><path fill="#246295" stroke="#246295" stroke-width="1.51" d="m554 162 12 72 32-41Z"/><path fill="#225d91" stroke="#225d91" stroke-width="1.51" d="m457 304 104 36 5-106Z"/><path fill="#1c5488" stroke="#1c5488" stroke-width="1.51" d="m477 407-23 86 105 2Z"/><path fill="#1c5489" stroke="#1c5489" stroke-width="1.51" d="m477 407 82 88 1-75Z"/><path fill="#1e578b" stroke="#1e578b" stroke-width="1.51" d="m477 407 83 13 1-80Z"/><path fill="#256396" stroke="#256396" stroke-width="1.51" d="m554 162-83 20 95 52Z"/><path fill="#256396" stroke="#256396" stroke-width="1.51" d="m471 182-13 76 108-24Z"/><path fill="#246094" stroke="#246094" stroke-width="1.51" d="m458 258-1 46 109-70Z"/><path fill="#205b8f" stroke="#205b8f" stroke-width="1.51" d="m457 304 20 103 84-67Z"/><path fill="#276699" stroke="#276699" stroke-width="1.51" d="m536 130-65 52 83-20Z"/><path fill="#2e74a5" stroke="#2e74a5" stroke-width="1.51" d="M457-91 446 3l86-15Z"/><path fill="#2c71a3" stroke="#2c71a3" stroke-width="1.51" d="m446 3 4 52 82-67Z"/><path fill="#2b6ea0" stroke="#2b6ea0" stroke-width="1.51" d="m532-12-82 67 89 8Z"/><path fill="#296a9c" stroke="#296a9c" stroke-width="1.51" d="m448 124 88 6 3-67Z"/><path fill="#2a6c9f" stroke="#2a6c9f" stroke-width="1.51" d="m450 55-2 69 91-61Z"/><path fill="#28689b" stroke="#28689b" stroke-width="1.51" d="m448 124 23 58 65-52Z"/><path fill="#2f76a7" stroke="#2f76a7" stroke-width="1.51" d="m386-15 60 18 11-94Z"/><path fill="#225e92" stroke="#225e92" stroke-width="1.51" d="m396 338 25 63 36-97Z"/><path fill="#276699" stroke="#276699" stroke-width="1.51" d="m375 205 83 53 13-76Z"/><path fill="#215c8f" stroke="#215c8f" stroke-width="1.51" d="m457 304-36 97 56 6Z"/><path fill="#1e588c" stroke="#1e588c" stroke-width="1.51" d="m421 401 33 92 23-86Z"/><path fill="#1e578b" stroke="#1e578b" stroke-width="1.51" d="m421 401-30 94 63-2Z"/><path fill="#29699b" stroke="#29699b" stroke-width="1.51" d="m448 124-73 81 96-23Z"/><path fill="#2a6b9d" stroke="#2a6b9d" stroke-width="1.51" d="m398 113-23 92 73-81Z"/><path fill="#2b6d9f" stroke="#2b6d9f" stroke-width="1.51" d="m398 113 50 11 2-69Z"/><path fill="#2c6fa1" stroke="#2c6fa1" stroke-width="1.51" d="m384 75 14 38 52-58Z"/><path fill="#246295" stroke="#246295" stroke-width="1.51" d="m404 282 53 22 1-46Z"/><path fill="#266598" stroke="#266598" stroke-width="1.51" d="m375 205 29 77 54-24Z"/><path fill="#246194" stroke="#246194" stroke-width="1.51" d="m404 282-8 56 61-34Z"/><path fill="#2e73a5" stroke="#2e73a5" stroke-width="1.51" d="m386-15-2 90 62-72Z"/><path fill="#2d71a3" stroke="#2d71a3" stroke-width="1.51" d="m446 3-62 72 66-20Z"/><path fill="#1f5a8d" stroke="#1f5a8d" stroke-width="1.51" d="m320 469 71 26 30-94Z"/><path fill="#215d90" stroke="#215d90" stroke-width="1.51" d="m321 396-1 73 101-68Z"/><path fill="#225e92" stroke="#225e92" stroke-width="1.51" d="m396 338-75 58 100 5Z"/><path fill="#2e73a5" stroke="#2e73a5" stroke-width="1.51" d="m341 65 43 10 2-90Z"/><path fill="#2f76a7" stroke="#2f76a7" stroke-width="1.51" d="m332-2 9 67 45-80Z"/><path fill="#2b6d9f" stroke="#2b6d9f" stroke-width="1.51" d="m317 129 58 76 23-92Z"/><path fill="#28679a" stroke="#28679a" stroke-width="1.51" d="m375 205-68 28 97 49Z"/><path fill="#276799" stroke="#276799" stroke-width="1.51" d="m307 233-23 80 120-31Z"/><path fill="#246295" stroke="#246295" stroke-width="1.51" d="m305 344 91-6 8-56Z"/><path fill="#266497" stroke="#266497" stroke-width="1.51" d="m284 313 21 31 99-62Z"/><path fill="#296a9c" stroke="#296a9c" stroke-width="1.51" d="m316 216-9 17 68-28Z"/><path fill="#246194" stroke="#246194" stroke-width="1.51" d="m305 344 16 52 75-58Z"/><path fill="#2c70a1" stroke="#2c70a1" stroke-width="1.51" d="m384 75-67 54 81-16Z"/><path fill="#2d71a3" stroke="#2d71a3" stroke-width="1.51" d="m341 65-24 64 67-54Z"/><path fill="#2a6c9e" stroke="#2a6c9e" stroke-width="1.51" d="m317 129-1 87 59-11Z"/><path fill="#28689b" stroke="#28689b" stroke-width="1.51" d="m273 269 11 44 23-80Z"/><path fill="#2b6d9f" stroke="#2b6d9f" stroke-width="1.51" d="m278 212 38 4 1-87Z"/><path fill="#225e92" stroke="#225e92" stroke-width="1.51" d="m269 426 51 43 1-73Z"/><path fill="#3179aa" stroke="#3179aa" stroke-width="1.51" d="m255-1-9 49 86-50Z"/><path fill="#3077a8" stroke="#3077a8" stroke-width="1.51" d="m332-2-86 50 95 17Z"/><path fill="#2e74a5" stroke="#2e74a5" stroke-width="1.51" d="m246 48 71 81 24-64Z"/><path fill="#2c70a2" stroke="#2c70a2" stroke-width="1.51" d="m247 141 31 71 39-83Z"/><path fill="#2e74a5" stroke="#2e74a5" stroke-width="1.51" d="m246 48 1 93 70-12Z"/><path fill="#225d91" stroke="#225d91" stroke-width="1.51" d="m269 426-1 47 52-4Z"/><path fill="#246194" stroke="#246194" stroke-width="1.51" d="m305 344-36 82 52-30Z"/><path fill="#2a6b9d" stroke="#2a6b9d" stroke-width="1.51" d="m278 212 29 21 9-17Z"/><path fill="#256496" stroke="#256496" stroke-width="1.51" d="m208 351 61 75 36-82Z"/><path fill="#296a9d" stroke="#296a9d" stroke-width="1.51" d="m278 212-5 57 34-36Z"/><path fill="#266598" stroke="#266598" stroke-width="1.51" d="m284 313-76 38 97-7Z"/><path fill="#256396" stroke="#256396" stroke-width="1.51" d="m208 351-2 75h63Z"/><path fill="#2d71a2" stroke="#2d71a2" stroke-width="1.51" d="m247 141-35 22 66 49Z"/><path fill="#2a6c9f" stroke="#2a6c9f" stroke-width="1.51" d="m180 242 93 27 5-57Z"/><path fill="#28679a" stroke="#28679a" stroke-width="1.51" d="m273 269-65 82 76-38Z"/><path fill="#2c6fa1" stroke="#2c6fa1" stroke-width="1.51" d="m212 163-32 79 98-30Z"/><path fill="#236093" stroke="#236093" stroke-width="1.51" d="m206 426 62 47 1-47Z"/><path fill="#296a9d" stroke="#296a9d" stroke-width="1.51" d="m180 242 28 109 65-82Z"/><path fill="#2f76a7" stroke="#2f76a7" stroke-width="1.51" d="m246 48-77 79 78 14Z"/><path fill="#236094" stroke="#236094" stroke-width="1.51" d="m206 426-28 43 90 4Z"/><path fill="#327bac" stroke="#327bac" stroke-width="1.51" d="m180 22 66 26 9-49Z"/><path fill="#347eae" stroke="#347eae" stroke-width="1.51" d="m186-47-6 69 75-23Z"/><path fill="#3179aa" stroke="#3179aa" stroke-width="1.51" d="m180 22-11 105 77-79Z"/><path fill="#2f74a5" stroke="#2f74a5" stroke-width="1.51" d="m169 127 43 36 35-22Z"/><path fill="#2b6ea0" stroke="#2b6ea0" stroke-width="1.51" d="m107 279 17 55 56-92Z"/><path fill="#2e74a6" stroke="#2e74a6" stroke-width="1.51" d="m169 127-77 49 88 66Z"/><path fill="#296b9d" stroke="#296b9d" stroke-width="1.51" d="m180 242-56 92 84 17Z"/><path fill="#266699" stroke="#266699" stroke-width="1.51" d="m136 381 70 45 2-75Z"/><path fill="#2e73a4" stroke="#2e73a4" stroke-width="1.51" d="m169 127 11 115 32-79Z"/><path fill="#28699b" stroke="#28699b" stroke-width="1.51" d="m124 334 12 47 72-30Z"/><path fill="#3077a8" stroke="#3077a8" stroke-width="1.51" d="m125 129-33 47 77-49Z"/><path fill="#256497" stroke="#256497" stroke-width="1.51" d="m136 381 42 88 28-43Z"/><path fill="#327aab" stroke="#327aab" stroke-width="1.51" d="m93 41 32 88 44-2Z"/><path fill="#266597" stroke="#266597" stroke-width="1.51" d="m136 381-28 87 70 1Z"/><path fill="#327bac" stroke="#327bac" stroke-width="1.51" d="m93 41 76 86 11-105Z"/><path fill="#3580b1" stroke="#3580b1" stroke-width="1.51" d="m124-37 56 59 6-69Z"/><path fill="#3480b0" stroke="#3480b0" stroke-width="1.51" d="M124-37 93 41l87-19Z"/><path fill="#2d72a4" stroke="#2d72a4" stroke-width="1.51" d="m92 176 15 103 73-37Z"/><path fill="#2f75a7" stroke="#2f75a7" stroke-width="1.51" d="m45 194 18 84 29-102Z"/><path fill="#2e73a5" stroke="#2e73a5" stroke-width="1.51" d="M92 176 63 278l44 1Z"/><path fill="#296c9e" stroke="#296c9e" stroke-width="1.51" d="m55 343 11 56 58-65Z"/><path fill="#337cad" stroke="#337cad" stroke-width="1.51" d="M93 41 49 97l76 32Z"/><path fill="#286a9c" stroke="#286a9c" stroke-width="1.51" d="m124 334-58 65 70-18Z"/><path fill="#27689a" stroke="#27689a" stroke-width="1.51" d="m66 399 42 69 28-87Z"/><path fill="#2c70a1" stroke="#2c70a1" stroke-width="1.51" d="m63 278-8 65 52-64Z"/><path fill="#2b6ea0" stroke="#2b6ea0" stroke-width="1.51" d="m107 279-52 64 69-9Z"/><path fill="#3683b3" stroke="#3683b3" stroke-width="1.51" d="m24-29 69 70 31-78Z"/><path fill="#3179aa" stroke="#3179aa" stroke-width="1.51" d="m49 97 43 79 33-47Z"/><path fill="#347faf" stroke="#347faf" stroke-width="1.51" d="m50 58-1 39 44-56Z"/><path fill="#276699" stroke="#276699" stroke-width="1.51" d="m66 399-40 97 82-28Z"/><path fill="#317aaa" stroke="#317aaa" stroke-width="1.51" d="m49 97-4 97 47-18Z"/><path fill="#3582b2" stroke="#3582b2" stroke-width="1.51" d="m24-29 26 87 43-17Z"/><path fill="#327dad" stroke="#327dad" stroke-width="1.51" d="m-8 99 53 95 4-97Z"/><path fill="#3684b4" stroke="#3684b4" stroke-width="1.51" d="m24-29-48 72 74 15Z"/><path fill="#2d71a3" stroke="#2d71a3" stroke-width="1.51" d="m6 267 49 76 8-65Z"/><path fill="#2e75a6" stroke="#2e75a6" stroke-width="1.51" d="M45 194 6 267l57 11Z"/><path fill="#2a6c9e" stroke="#2a6c9e" stroke-width="1.51" d="m55 343-63 75 74-19Z"/><path fill="#28699c" stroke="#28699c" stroke-width="1.51" d="m-8 418 34 78 40-97Z"/><path fill="#337cad" stroke="#337cad" stroke-width="1.51" d="m-8 99-34 75 87 20Z"/><path fill="#347fb0" stroke="#347fb0" stroke-width="1.51" d="m-8 99 57-2 1-39Z"/><path fill="#2d72a4" stroke="#2d72a4" stroke-width="1.51" d="m6 267-51 59 100 17Z"/><path fill="#2c6fa1" stroke="#2c6fa1" stroke-width="1.51" d="m-45 326 37 92 63-75Z"/><path fill="#3581b2" stroke="#3581b2" stroke-width="1.51" d="m-24 43 16 56 58-41Z"/><path fill="#3179a9" stroke="#3179a9" stroke-width="1.51" d="m-42 174 48 93 39-73Z"/><path fill="#28699c" stroke="#28699c" stroke-width="1.51" d="m-8 418-36 62 70 16Z"/><path fill="#3887b7" stroke="#3887b7" stroke-width="1.51" d="m-31-42 7 85 48-72Z"/><path fill="#3179aa" stroke="#3179aa" stroke-width="1.51" d="m-42 174-72 85 120 8Z"/><path fill="#2f77a8" stroke="#2f77a8" stroke-width="1.51" d="m-114 259 48 44 72-36Z"/><path fill="#2e75a6" stroke="#2e75a6" stroke-width="1.51" d="m-66 303 21 23 51-59Z"/></svg>