<svg xmlns="http://www.w3.org/2000/svg" width="800" height="450" style="opacity:.28"><path fill="#494949" stroke="#494949" stroke-width="1.51" d="m773 254 74 89 22-67Z"/><path fill="#4a4a4a" stroke="#4a4a4a" stroke-width="1.51" d="m773 254-1 84 75 5Z"/><path fill="#515151" stroke="#515151" stroke-width="1.51" d="m830 232-57 22 96 22Z"/><path fill="#404040" stroke="#404040" stroke-width="1.51" d="m772 338 60 49 15-44Z"/><path fill="#7b7b7b" stroke="#7b7b7b" stroke-width="1.51" d="m736 28 33 114 38-114Z"/><path fill="#252525" stroke="#252525" stroke-width="1.51" d="m748 442-8 100 71 8Z"/><path fill="#262626" stroke="#262626" stroke-width="1.51" d="m748 442 63 108 14-100Z"/><path fill="#363636" stroke="#363636" stroke-width="1.51" d="m749 406-1 36 77 8Z"/><path fill="#717171" stroke="#717171" stroke-width="1.51" d="m807 28-38 114 57-20Z"/><path fill="#626262" stroke="#626262" stroke-width="1.51" d="m729 174 44 80 56-84Z"/><path fill="#6b6b6b" stroke="#6b6b6b" stroke-width="1.51" d="m769 142-40 32 100-4Z"/><path fill="#696969" stroke="#696969" stroke-width="1.51" d="m826 122-57 20 60 28Z"/><path fill="#595959" stroke="#595959" stroke-width="1.51" d="m829 170-56 84 57-22Z"/><path fill="#363636" stroke="#363636" stroke-width="1.51" d="m749 406 76 44 7-63Z"/><path fill="#404040" stroke="#404040" stroke-width="1.51" d="m772 338-23 68 83-19Z"/><path fill="gray" stroke="gray" stroke-width="1.51" d="M799-19 746-6l61 34Zm-63 47-44 43 77 71Z"/><path fill="#838383" stroke="#838383" stroke-width="1.51" d="m746-6-10 34h71Z"/><path fill="#323232" stroke="#323232" stroke-width="1.51" d="m694 453 46 89 8-100Z"/><path fill="#818181" stroke="#818181" stroke-width="1.51" d="m692 71-19 30 96 41Z"/><path fill="#505050" stroke="#505050" stroke-width="1.51" d="m657 310 92 96 23-68Z"/><path fill="#5d5d5d" stroke="#5d5d5d" stroke-width="1.51" d="m683 246-26 64 115 28Z"/><path fill="#686868" stroke="#686868" stroke-width="1.51" d="m729 174-37 39 81 41Z"/><path fill="#5a5a5a" stroke="#5a5a5a" stroke-width="1.51" d="m683 246 89 92 1-84Z"/><path fill="#676767" stroke="#676767" stroke-width="1.51" d="m692 213-9 33 90 8Z"/><path fill="#797979" stroke="#797979" stroke-width="1.51" d="m673 101 56 73 40-32Z"/><path fill="#4f4f4f" stroke="#4f4f4f" stroke-width="1.51" d="m657 310 36 116 56-20Z"/><path fill="#3f3f3f" stroke="#3f3f3f" stroke-width="1.51" d="m693 426 55 16 1-36Z"/><path fill="#3e3e3e" stroke="#3e3e3e" stroke-width="1.51" d="m693 426 1 27 54-11Z"/><path fill="#8d8d8d" stroke="#8d8d8d" stroke-width="1.51" d="m675-19 61 47 10-34Z"/><path fill="#8e8e8e" stroke="#8e8e8e" stroke-width="1.51" d="m675-19 17 90 44-43Z"/><path fill="#797979" stroke="#797979" stroke-width="1.51" d="m673 101 19 112 37-39Z"/><path fill="#858585" stroke="#858585" stroke-width="1.51" d="m673 101-50 9 69 103Z"/><path fill="#818181" stroke="#818181" stroke-width="1.51" d="m623 110-25 83 94 20Z"/><path fill="#969696" stroke="#969696" stroke-width="1.51" d="m675-19-67 47 84 43Z"/><path fill="#5b5b5b" stroke="#5b5b5b" stroke-width="1.51" d="m657 310-51 26 87 90Z"/><path fill="#575757" stroke="#575757" stroke-width="1.51" d="m606 336-9 81 96 9Z"/><path fill="#494949" stroke="#494949" stroke-width="1.51" d="m693 426-96-9 97 36Z"/><path fill="#484848" stroke="#484848" stroke-width="1.51" d="m597 417-7 74 104-38Z"/><path fill="#727272" stroke="#727272" stroke-width="1.51" d="m598 240 85 6 9-33Z"/><path fill="#797979" stroke="#797979" stroke-width="1.51" d="M598 193v47l94-27Z"/><path fill="#919191" stroke="#919191" stroke-width="1.51" d="m608 28 65 73 19-30Z"/><path fill="#929292" stroke="#929292" stroke-width="1.51" d="m608 28 15 82 50-9Z"/><path fill="#6e6e6e" stroke="#6e6e6e" stroke-width="1.51" d="m598 240 59 70 26-64Z"/><path fill="#9e9e9e" stroke="#9e9e9e" stroke-width="1.51" d="m590-4 18 32 67-47Z"/><path fill="#6b6b6b" stroke="#6b6b6b" stroke-width="1.51" d="m598 240 8 96 51-26Z"/><path fill="#757575" stroke="#757575" stroke-width="1.51" d="m566 234-5 106 37-100Z"/><path fill="#6d6d6d" stroke="#6d6d6d" stroke-width="1.51" d="m598 240-37 100 45-4Z"/><path fill="#616161" stroke="#616161" stroke-width="1.51" d="m561 340 36 77 9-81Z"/><path fill="#929292" stroke="#929292" stroke-width="1.51" d="m536 130 18 32 69-52Z"/><path fill="#9a9a9a" stroke="#9a9a9a" stroke-width="1.51" d="m608 28-69 35 84 47Z"/><path fill="#989898" stroke="#989898" stroke-width="1.51" d="m539 63-3 67 87-20Z"/><path fill="#8b8b8b" stroke="#8b8b8b" stroke-width="1.51" d="m554 162 44 31 25-83Z"/><path fill="#505050" stroke="#505050" stroke-width="1.51" d="m560 420 30 71 7-74Z"/><path fill="#4b4b4b" stroke="#4b4b4b" stroke-width="1.51" d="m560 420-1 75 31-4Z"/><path fill="#5e5e5e" stroke="#5e5e5e" stroke-width="1.51" d="m561 340-1 80 37-3Z"/><path fill="#7e7e7e" stroke="#7e7e7e" stroke-width="1.51" d="m566 234 32 6v-47Z"/><path fill="#a0a0a0" stroke="#a0a0a0" stroke-width="1.51" d="m590-4-51 67 69-35Z"/><path fill="#a6a6a6" stroke="#a6a6a6" stroke-width="1.51" d="m532-12 7 75 51-67Z"/><path fill="#858585" stroke="#858585" stroke-width="1.51" d="m554 162 12 72 32-41Z"/><path fill="#777" stroke="#777" stroke-width="1.51" d="m457 304 104 36 5-106Z"/><path fill="#555" stroke="#555" stroke-width="1.51" d="m477 407-23 86 105 2Z"/><path fill="#575757" stroke="#575757" stroke-width="1.51" d="m477 407 82 88 1-75Z"/><path fill="#646464" stroke="#646464" stroke-width="1.51" d="m477 407 83 13 1-80Z"/><path fill="#8b8b8b" stroke="#8b8b8b" stroke-width="1.51" d="m554 162-83 20 95 52Z"/><path fill="#898989" stroke="#898989" stroke-width="1.51" d="m471 182-13 76 108-24Z"/><path fill="#818181" stroke="#818181" stroke-width="1.51" d="m458 258-1 46 109-70Z"/><path fill="#707070" stroke="#707070" stroke-width="1.51" d="m457 304 20 103 84-67Z"/><path fill="#949494" stroke="#949494" stroke-width="1.51" d="m536 130-65 52 83-20Z"/><path fill="#b6b6b6" stroke="#b6b6b6" stroke-width="1.51" d="M457-91 446 3l86-15Z"/><path fill="#b1b1b1" stroke="#b1b1b1" stroke-width="1.51" d="m446 3 4 52 82-67Z"/><path fill="#aaa" stroke="#aaa" stroke-width="1.51" d="m532-12-82 67 89 8Z"/><path fill="#9f9f9f" stroke="#9f9f9f" stroke-width="1.51" d="m448 124 88 6 3-67Z"/><path fill="#a7a7a7" stroke="#a7a7a7" stroke-width="1.51" d="m450 55-2 69 91-61Z"/><path fill="#9c9c9c" stroke="#9c9c9c" stroke-width="1.51" d="m448 124 23 58 65-52Z"/><path fill="#bdbdbd" stroke="#bdbdbd" stroke-width="1.51" d="m386-15 60 18 11-94Z"/><path fill="#7a7a7a" stroke="#7a7a7a" stroke-width="1.51" d="m396 338 25 63 36-97Z"/><path fill="#939393" stroke="#939393" stroke-width="1.51" d="m375 205 83 53 13-76Z"/><path fill="#727272" stroke="#727272" stroke-width="1.51" d="m457 304-36 97 56 6Z"/><path fill="#636363" stroke="#636363" stroke-width="1.51" d="m421 401 33 92 23-86Z"/><path fill="#5e5e5e" stroke="#5e5e5e" stroke-width="1.51" d="m421 401-30 94 63-2Z"/><path fill="#9d9d9d" stroke="#9d9d9d" stroke-width="1.51" d="m448 124-73 81 96-23Z"/><path fill="#a6a6a6" stroke="#a6a6a6" stroke-width="1.51" d="m398 113-23 92 73-81Z"/><path fill="#ababab" stroke="#ababab" stroke-width="1.51" d="m398 113 50 11 2-69Z"/><path fill="#b1b1b1" stroke="#b1b1b1" stroke-width="1.51" d="m384 75 14 38 52-58Z"/><path fill="#858585" stroke="#858585" stroke-width="1.51" d="m404 282 53 22 1-46Z"/><path fill="#909090" stroke="#909090" stroke-width="1.51" d="m375 205 29 77 54-24Z"/><path fill="#838383" stroke="#838383" stroke-width="1.51" d="m404 282-8 56 61-34Z"/><path fill="#bababa" stroke="#bababa" stroke-width="1.51" d="m386-15-2 90 62-72Z"/><path fill="#b4b4b4" stroke="#b4b4b4" stroke-width="1.51" d="m446 3-62 72 66-20Z"/><path fill="#676767" stroke="#676767" stroke-width="1.51" d="m320 469 71 26 30-94Z"/><path fill="#737373" stroke="#737373" stroke-width="1.51" d="m321 396-1 73 101-68Z"/><path fill="#7a7a7a" stroke="#7a7a7a" stroke-width="1.51" d="m396 338-75 58 100 5Z"/><path fill="#bdbdbd" stroke="#bdbdbd" stroke-width="1.51" d="m341 65 43 10 2-90Z"/><path fill="#c3c3c3" stroke="#c3c3c3" stroke-width="1.51" d="m332-2 9 67 45-80Z"/><path fill="#acacac" stroke="#acacac" stroke-width="1.51" d="m317 129 58 76 23-92Z"/><path fill="#989898" stroke="#989898" stroke-width="1.51" d="m375 205-68 28 97 49Z"/><path fill="#959595" stroke="#959595" stroke-width="1.51" d="m307 233-23 80 120-31Z"/><path fill="#878787" stroke="#878787" stroke-width="1.51" d="m305 344 91-6 8-56Z"/><path fill="#8e8e8e" stroke="#8e8e8e" stroke-width="1.51" d="m284 313 21 31 99-62Z"/><path fill="#a1a1a1" stroke="#a1a1a1" stroke-width="1.51" d="m316 216-9 17 68-28Z"/><path fill="#838383" stroke="#838383" stroke-width="1.51" d="m305 344 16 52 75-58Z"/><path fill="#b3b3b3" stroke="#b3b3b3" stroke-width="1.51" d="m384 75-67 54 81-16Z"/><path fill="#b8b8b8" stroke="#b8b8b8" stroke-width="1.51" d="m341 65-24 64 67-54Z"/><path fill="#a8a8a8" stroke="#a8a8a8" stroke-width="1.51" d="m317 129-1 87 59-11Z"/><path fill="#9d9d9d" stroke="#9d9d9d" stroke-width="1.51" d="m273 269 11 44 23-80Z"/><path fill="#acacac" stroke="#acacac" stroke-width="1.51" d="m278 212 38 4 1-87Z"/><path fill="#787878" stroke="#787878" stroke-width="1.51" d="m269 426 51 43 1-73Z"/><path fill="#cecece" stroke="#cecece" stroke-width="1.51" d="m255-1-9 49 86-50Z"/><path fill="#c7c7c7" stroke="#c7c7c7" stroke-width="1.51" d="m332-2-86 50 95 17Z"/><path fill="#c1c1c1" stroke="#c1c1c1" stroke-width="1.51" d="m246 48 71 81 24-64Z"/><path fill="#b6b6b6" stroke="#b6b6b6" stroke-width="1.51" d="m247 141 31 71 39-83Z"/><path fill="#c2c2c2" stroke="#c2c2c2" stroke-width="1.51" d="m246 48 1 93 70-12Z"/><path fill="#737373" stroke="#737373" stroke-width="1.51" d="m269 426-1 47 52-4Z"/><path fill="#838383" stroke="#838383" stroke-width="1.51" d="m305 344-36 82 52-30Z"/><path fill="#a5a5a5" stroke="#a5a5a5" stroke-width="1.51" d="m278 212 29 21 9-17Z"/><path fill="#8c8c8c" stroke="#8c8c8c" stroke-width="1.51" d="m208 351 61 75 36-82Z"/><path fill="#a4a4a4" stroke="#a4a4a4" stroke-width="1.51" d="m278 212-5 57 34-36Z"/><path fill="#939393" stroke="#939393" stroke-width="1.51" d="m284 313-76 38 97-7Z"/><path fill="#898989" stroke="#898989" stroke-width="1.51" d="m208 351-2 75h63Z"/><path fill="#b7b7b7" stroke="#b7b7b7" stroke-width="1.51" d="m247 141-35 22 66 49Z"/><path fill="#a8a8a8" stroke="#a8a8a8" stroke-width="1.51" d="m180 242 93 27 5-57Z"/><path fill="#999" stroke="#999" stroke-width="1.51" d="m273 269-65 82 76-38Z"/><path fill="#b2b2b2" stroke="#b2b2b2" stroke-width="1.51" d="m212 163-32 79 98-30Z"/><path fill="#7b7b7b" stroke="#7b7b7b" stroke-width="1.51" d="m206 426 62 47 1-47Z"/><path fill="#a1a1a1" stroke="#a1a1a1" stroke-width="1.51" d="m180 242 28 109 65-82Z"/><path fill="#c7c7c7" stroke="#c7c7c7" stroke-width="1.51" d="m246 48-77 79 78 14Z"/><path fill="#7a7a7a" stroke="#7a7a7a" stroke-width="1.51" d="m206 426-28 43 90 4Z"/><path fill="#d3d3d3" stroke="#d3d3d3" stroke-width="1.51" d="m180 22 66 26 9-49Z"/><path fill="#d9d9d9" stroke="#d9d9d9" stroke-width="1.51" d="m186-47-6 69 75-23Z"/><path fill="#d0d0d0" stroke="#d0d0d0" stroke-width="1.51" d="m180 22-11 105 77-79Z"/><path fill="#c2c2c2" stroke="#c2c2c2" stroke-width="1.51" d="m169 127 43 36 35-22Z"/><path fill="#aaa" stroke="#aaa" stroke-width="1.51" d="m107 279 17 55 56-92Z"/><path fill="silver" stroke="silver" stroke-width="1.51" d="m169 127-77 49 88 66Z"/><path fill="#a2a2a2" stroke="#a2a2a2" stroke-width="1.51" d="m180 242-56 92 84 17Z"/><path fill="#919191" stroke="#919191" stroke-width="1.51" d="m136 381 70 45 2-75Z"/><path fill="#bcbcbc" stroke="#bcbcbc" stroke-width="1.51" d="m169 127 11 115 32-79Z"/><path fill="#9a9a9a" stroke="#9a9a9a" stroke-width="1.51" d="m124 334 12 47 72-30Z"/><path fill="#cacaca" stroke="#cacaca" stroke-width="1.51" d="m125 129-33 47 77-49Z"/><path fill="#878787" stroke="#878787" stroke-width="1.51" d="m136 381 42 88 28-43Z"/><path fill="#d1d1d1" stroke="#d1d1d1" stroke-width="1.51" d="m93 41 32 88 44-2Z"/><path fill="#868686" stroke="#868686" stroke-width="1.51" d="m136 381-28 87 70 1Z"/><path fill="#d6d6d6" stroke="#d6d6d6" stroke-width="1.51" d="m93 41 76 86 11-105Z"/><path fill="#dfdfdf" stroke="#dfdfdf" stroke-width="1.51" d="m124-37 56 59 6-69Z"/><path fill="#dfdfdf" stroke="#dfdfdf" stroke-width="1.51" d="M124-37 93 41l87-19Z"/><path fill="#b6b6b6" stroke="#b6b6b6" stroke-width="1.51" d="m92 176 15 103 73-37Z"/><path fill="#bfbfbf" stroke="#bfbfbf" stroke-width="1.51" d="m45 194 18 84 29-102Z"/><path fill="#b7b7b7" stroke="#b7b7b7" stroke-width="1.51" d="M92 176 63 278l44 1Z"/><path fill="#a0a0a0" stroke="#a0a0a0" stroke-width="1.51" d="m55 343 11 56 58-65Z"/><path fill="#d6d6d6" stroke="#d6d6d6" stroke-width="1.51" d="M93 41 49 97l76 32Z"/><path fill="#9b9b9b" stroke="#9b9b9b" stroke-width="1.51" d="m124 334-58 65 70-18Z"/><path fill="#909090" stroke="#909090" stroke-width="1.51" d="m66 399 42 69 28-87Z"/><path fill="#acacac" stroke="#acacac" stroke-width="1.51" d="m63 278-8 65 52-64Z"/><path fill="#a7a7a7" stroke="#a7a7a7" stroke-width="1.51" d="m107 279-52 64 69-9Z"/><path fill="#e5e5e5" stroke="#e5e5e5" stroke-width="1.51" d="m24-29 69 70 31-78Z"/><path fill="#d0d0d0" stroke="#d0d0d0" stroke-width="1.51" d="m49 97 43 79 33-47Z"/><path fill="#ddd" stroke="#ddd" stroke-width="1.51" d="m50 58-1 39 44-56Z"/><path fill="#888" stroke="#888" stroke-width="1.51" d="m66 399-40 97 82-28Z"/><path fill="#cdcdcd" stroke="#cdcdcd" stroke-width="1.51" d="m49 97-4 97 47-18Z"/><path fill="#e3e3e3" stroke="#e3e3e3" stroke-width="1.51" d="m24-29 26 87 43-17Z"/><path fill="#d5d5d5" stroke="#d5d5d5" stroke-width="1.51" d="m-8 99 53 95 4-97Z"/><path fill="#e7e7e7" stroke="#e7e7e7" stroke-width="1.51" d="m24-29-48 72 74 15Z"/><path fill="#b0b0b0" stroke="#b0b0b0" stroke-width="1.51" d="m6 267 49 76 8-65Z"/><path fill="#bababa" stroke="#bababa" stroke-width="1.51" d="M45 194 6 267l57 11Z"/><path fill="#9d9d9d" stroke="#9d9d9d" stroke-width="1.51" d="m55 343-63 75 74-19Z"/><path fill="#909090" stroke="#909090" stroke-width="1.51" d="m-8 418 34 78 40-97Z"/><path fill="#d3d3d3" stroke="#d3d3d3" stroke-width="1.51" d="m-8 99-34 75 87 20Z"/><path fill="#ddd" stroke="#ddd" stroke-width="1.51" d="m-8 99 57-2 1-39Z"/><path fill="#afafaf" stroke="#afafaf" stroke-width="1.51" d="m6 267-51 59 100 17Z"/><path fill="#a6a6a6" stroke="#a6a6a6" stroke-width="1.51" d="m-45 326 37 92 63-75Z"/><path fill="#e2e2e2" stroke="#e2e2e2" stroke-width="1.51" d="m-24 43 16 56 58-41Z"/><path fill="#c5c5c5" stroke="#c5c5c5" stroke-width="1.51" d="m-42 174 48 93 39-73Z"/><path fill="#8b8b8b" stroke="#8b8b8b" stroke-width="1.51" d="m-8 418-36 62 70 16Z"/><path fill="#ededed" stroke="#ededed" stroke-width="1.51" d="m-31-42 7 85 48-72Z"/><path fill="#c3c3c3" stroke="#c3c3c3" stroke-width="1.51" d="m-42 174-72 85 120 8Z"/><path fill="#bababa" stroke="#bababa" stroke-width="1.51" d="m-114 259 48 44 72-36Z"/><path fill="#b4b4b4" stroke="#b4b4b4" stroke-width="1.51" d="m-66 303 21 23 51-59Z"/></svg>