<?xml version="1.0" encoding="UTF-8"?>
<svg version="1.1" xmlns="http://www.w3.org/2000/svg" width="2484" height="1406">
<path d="M0 0 C819.72 0 1639.44 0 2484 0 C2484 463.98 2484 927.96 2484 1406 C1664.28 1406 844.56 1406 0 1406 C0 942.02 0 478.04 0 0 Z " fill="#E2E2E2" transform="translate(0,0)"/>
<path d="M0 0 C0 60.72 0 121.44 0 184 C-819.72 184 -1639.44 184 -2484 184 C-2484 176.41 -2484 168.82 -2484 161 C-2477.31193592 160.42799452 -2470.62385976 159.86537739 -2463.93359375 159.32080078 C-2461.3214394 159.10776883 -2458.70945708 158.89261624 -2456.09765625 158.67529297 C-2438.16335887 157.18859817 -2420.21795595 155.98236488 -2402.25 154.98828125 C-2401.46497101 154.9448484 -2400.67994202 154.90141556 -2399.87112427 154.85666656 C-2391.9094243 154.41738828 -2383.94732627 153.98609875 -2375.98452759 153.56720066 C-2372.94275277 153.40671317 -2369.90112045 153.2436117 -2366.85949707 153.08028221 C-2364.79806471 152.9707201 -2362.73645769 152.86515373 -2360.67480469 152.75984192 C-2352.56792657 152.32506926 -2344.48740568 151.72496936 -2336.3984375 151.03173828 C-2325.58261204 150.10558671 -2314.76358779 149.36199291 -2303.92819214 148.70792961 C-2300.83225846 148.52098899 -2297.73654924 148.3306332 -2294.64086914 148.13954163 C-2288.09408732 147.73598648 -2281.54706387 147.33644966 -2275 146.9375 C-2267.34449785 146.47089513 -2259.68910783 146.00257556 -2252.03396606 145.53009224 C-2248.99859579 145.34359751 -2245.96305303 145.16012165 -2242.92749023 144.97679138 C-2241.06493233 144.86219778 -2239.20238303 144.74746431 -2237.33984375 144.63256836 C-2236.50864014 144.58320129 -2235.67743652 144.53383423 -2234.82104492 144.48297119 C-2229.84568879 144.1722351 -2224.94252991 143.64943874 -2220 143 C-2218.27237625 142.89016984 -2216.54285802 142.80497107 -2214.8125 142.75390625 C-2213.41257812 142.7065332 -2213.41257812 142.7065332 -2211.984375 142.65820312 C-2210.50710938 142.61083008 -2210.50710938 142.61083008 -2209 142.5625 C-2200.64029524 142.25879151 -2192.33117659 141.7512054 -2184 141 C-2175.00024417 140.19110734 -2166.02937974 139.71197038 -2157 139.39453125 C-2148.97499441 139.0915037 -2141.00569549 138.4510519 -2133.00878906 137.73046875 C-2125.03498095 137.03324833 -2117.07159696 136.63963374 -2109.0703125 136.4296875 C-2102.95676931 136.23588642 -2096.92227501 135.70799652 -2090.84375 135.0625 C-2079.94695528 133.9169953 -2069.03817941 133.27427658 -2058.09924316 132.68164062 C-2054.6606384 132.49515362 -2051.22238785 132.30302961 -2047.78417969 132.109375 C-2043.22988789 131.85288954 -2038.67552747 131.59770253 -2034.12109375 131.34375 C-2026.49614584 130.91708112 -2018.87177096 130.48046262 -2011.25 130 C-2010.16865784 129.93207245 -2009.08731567 129.8641449 -2007.97320557 129.79415894 C-2001.33881074 129.36900374 -1994.70871324 128.91224832 -1988.08105469 128.39111328 C-1966.85789935 126.72628747 -1945.62234555 125.30829189 -1924.375 123.9921875 C-1923.68062301 123.94914018 -1922.98624601 123.90609285 -1922.27082729 123.86174107 C-1911.51415527 123.1950874 -1900.75710732 122.53458603 -1890 121.875 C-1880.52056736 121.29365252 -1871.04119464 120.71138469 -1861.56211281 120.12434113 C-1858.15093765 119.9132082 -1854.7397044 119.70313328 -1851.32830811 119.49560165 C-1847.55987737 119.26605549 -1843.79164414 119.03348485 -1840.0234375 118.80029297 C-1838.91814697 118.73379547 -1837.81285645 118.66729797 -1836.67407227 118.5987854 C-1831.07709233 118.24916565 -1825.55825985 117.73946167 -1820 117 C-1818.62295248 116.89022671 -1817.2442874 116.79649317 -1815.86425781 116.73461914 C-1815.15338013 116.70103302 -1814.44250244 116.6674469 -1813.71008301 116.63284302 C-1812.96528687 116.60060638 -1812.22049072 116.56836975 -1811.453125 116.53515625 C-1809.80045296 116.45765997 -1808.1477838 116.3801022 -1806.49511719 116.30249023 C-1805.21090881 116.24386307 -1805.21090881 116.24386307 -1803.90075684 116.18405151 C-1789.69779876 115.5327692 -1775.51985237 114.75141076 -1761.34179688 113.67993164 C-1755.72814298 113.25823891 -1750.12020895 112.87524659 -1744.49609375 112.62524414 C-1743.58988281 112.58391357 -1742.68367188 112.54258301 -1741.75 112.5 C-1741.08511063 112.47063323 -1740.42022125 112.44126646 -1739.73518372 112.41100979 C-1733.4792452 112.11531228 -1727.25377505 111.62151916 -1721.015625 111.07226562 C-1709.17121043 110.05955738 -1697.3195125 109.27288905 -1685.45410156 108.55329895 C-1681.88330497 108.3366705 -1678.31273034 108.11664345 -1674.7421875 107.89587402 C-1665.88433662 107.34884382 -1657.02615033 106.80732975 -1648.16796875 106.26568604 C-1640.640803 105.80520936 -1633.11377757 105.34254328 -1625.58691406 104.87715149 C-1622.11796339 104.66351482 -1618.64883633 104.45294382 -1615.1796875 104.24255371 C-1603.47658329 103.52435076 -1591.79084256 102.70285965 -1580.11035156 101.67630768 C-1571.57091833 100.93086909 -1563.0289557 100.48356255 -1554.46630859 100.10861206 C-1541.68014366 99.54553098 -1528.9346325 98.84817465 -1516.1875 97.6796875 C-1508.56819967 96.9978467 -1500.95885469 96.6741106 -1493.31512451 96.4057312 C-1486.71296016 96.15628432 -1480.15710768 95.72045623 -1473.578125 95.125 C-1458.29947185 93.80185217 -1442.99894435 92.81946917 -1427.69628906 91.82275391 C-1423.60953965 91.5565552 -1419.52302905 91.28687708 -1415.43657684 91.01615906 C-1401.76109974 90.11137114 -1388.08596084 89.20833553 -1374.40039062 88.46875 C-1373.61283512 88.42605232 -1372.82527962 88.38335464 -1372.0138588 88.3393631 C-1368.3222381 88.14025327 -1364.63047137 87.94572636 -1360.93817139 87.75964355 C-1352.79027495 87.33740107 -1344.66901561 86.74162517 -1336.54003906 86.04296875 C-1323.79795426 84.94969992 -1311.04565741 84.12644702 -1298.28125 83.34375 C-1295.8811304 83.1946802 -1293.48102491 83.04538289 -1291.08093262 82.89587402 C-1284.82020448 82.50646483 -1278.55929592 82.12003861 -1272.29833984 81.73431396 C-1266.01649081 81.34679599 -1259.73481459 80.95649874 -1253.453125 80.56640625 C-1243.87091434 79.97168916 -1234.28864518 79.37792718 -1224.70629883 78.78540039 C-1223.04964187 78.68295438 -1223.04964187 78.68295438 -1221.3595171 78.57843876 C-1216.44757508 78.27475279 -1211.53561969 77.97128704 -1206.62362671 77.66842651 C-1202.82041872 77.43392129 -1199.01725906 77.19864963 -1195.21414185 76.962677 C-1193.33323141 76.84620703 -1191.45226185 76.73069307 -1189.57128906 76.61523438 C-1182.31258712 76.16422969 -1175.06238331 75.63758065 -1167.8125 75.0625 C-1151.2858426 73.77631522 -1134.72872026 72.94390713 -1118.17700195 72.05297852 C-1117.04129761 71.9908316 -1115.90559326 71.92868469 -1114.73547363 71.86465454 C-1112.58960651 71.74726224 -1110.44361503 71.63211309 -1108.29748535 71.5196228 C-1102.8191192 71.21820734 -1097.43902222 70.71210841 -1092 70 C-1090.27237625 69.89016984 -1088.54285802 69.80497107 -1086.8125 69.75390625 C-1085.86375 69.72103516 -1084.915 69.68816406 -1083.9375 69.65429688 C-1082.04172664 69.59505396 -1080.14589518 69.53762905 -1078.25 69.48242188 C-1071.38685485 69.24056902 -1064.57272364 68.72043841 -1057.734375 68.1171875 C-1041.44475379 66.69973086 -1025.12039478 65.82573784 -1008.79797363 64.88345337 C-999.42731747 64.34226304 -990.05740495 63.78839516 -980.6875 63.234375 C-979.3155888 63.15335006 -979.3155888 63.15335006 -977.91596222 63.07068825 C-963.35657399 62.20999568 -948.80068431 61.31114027 -934.25 60.3125 C-933.44679321 60.25796661 -932.64358643 60.20343323 -931.81604004 60.14724731 C-922.70301782 59.52560065 -913.60139227 58.80433024 -904.5 58.03125 C-891.59251762 56.93929741 -878.6751398 56.04182811 -865.75 55.1875 C-864.51307404 55.10518127 -863.27614807 55.02286255 -862.0017395 54.93804932 C-837.48680936 53.31053885 -812.9631793 51.83032021 -788.4375 50.375 C-787.11225563 50.29635523 -787.11225563 50.29635523 -785.76023865 50.21612167 C-779.73477443 49.85879521 -773.70920749 49.50323266 -767.68359375 49.1484375 C-766.85873096 49.09976595 -766.03386818 49.0510944 -765.18400955 49.00094795 C-756.07947226 48.46410299 -746.97442226 47.94042989 -737.86767578 47.44238281 C-735.44673456 47.30874112 -733.02580447 47.17489921 -730.60487556 47.0410347 C-728.34515394 46.91734653 -726.08524585 46.79761977 -723.82530212 46.67807007 C-722.45782469 46.60278504 -721.09035686 46.5273252 -719.72290039 46.45166016 C-718.5401503 46.38822418 -717.35740021 46.32478821 -716.1388092 46.25942993 C-713.12428686 46.07665415 -713.12428686 46.07665415 -710.70758438 45.51418781 C-707.64036768 44.93170349 -704.65632174 44.70660307 -701.5398407 44.51356506 C-700.23294785 44.43093918 -698.92605499 44.34831329 -697.57955933 44.26318359 C-696.13727191 44.17547393 -694.69498051 44.08782966 -693.25268555 44.00024414 C-691.72751559 43.90511507 -690.20236445 43.8096839 -688.67723083 43.713974 C-684.53106857 43.45464136 -680.38465535 43.19954138 -676.23818564 42.94517827 C-671.86744322 42.67632417 -667.49694515 42.40355473 -663.12641907 42.13121033 C-654.81379083 41.61381106 -646.50095095 41.09989671 -638.18802911 40.58723873 C-628.85665743 40.01161609 -619.52551724 39.43228614 -610.19440019 38.85255253 C-594.76256735 37.8938303 -579.33055633 36.93802524 -563.89840829 35.98439133 C-551.35216788 35.20895214 -538.80631835 34.42738595 -526.26076031 33.64098454 C-519.747156 33.23290612 -513.23333863 32.8295569 -506.71875 32.4375 C-505.48640625 32.36273437 -504.2540625 32.28796875 -502.984375 32.2109375 C-500.63032169 32.06842755 -498.27615061 31.92785167 -495.921875 31.7890625 C-489.28052926 31.38273544 -482.65395328 30.89502361 -476.02516937 30.32190037 C-462.30897493 29.13947453 -448.58443895 28.22111103 -434.84375 27.37890625 C-432.48196041 27.23223307 -430.12018504 27.08533092 -427.75842285 26.93821716 C-421.58273691 26.55412452 -415.40687099 26.17300887 -409.23095703 25.79260254 C-403.10698798 25.4149137 -396.98318754 25.0345135 -390.859375 24.65429688 C-381.23309834 24.05704433 -371.60681334 23.4599263 -361.98046875 22.86376953 C-360.81321762 22.79147943 -359.64596649 22.71918934 -358.44334412 22.64470863 C-351.57916311 22.22006302 -344.71478232 21.79884095 -337.8502121 21.38053608 C-333.5475788 21.11798211 -329.24507073 20.85341234 -324.94258118 20.58851433 C-322.97233329 20.46770992 -321.00202968 20.34780958 -319.03166199 20.2289753 C-308.99132986 19.62321594 -298.96818544 18.93074985 -288.94726562 18.05908203 C-273.15768913 16.69790534 -257.33876655 15.77868953 -241.52134323 14.81085277 C-237.12615576 14.54122463 -232.73117757 14.26822815 -228.33618164 13.99549866 C-217.22430574 13.30649796 -206.112167 12.62178735 -195 11.9375 C-182.94049764 11.19483565 -170.88104724 10.45137211 -158.82189274 9.70307738 C-153.61248654 9.37996858 -148.40293881 9.05928163 -143.19326591 8.74050319 C-139.95876297 8.5420858 -136.72439139 8.34158778 -133.49005127 8.14053535 C-131.99699264 8.04815168 -130.50388066 7.95662557 -129.01071167 7.86604309 C-121.97596991 7.43887432 -114.9838429 6.97253772 -108 6 C-106.27237625 5.89016984 -104.54285802 5.80497107 -102.8125 5.75390625 C-101.88115234 5.72248535 -100.94980469 5.69106445 -99.99023438 5.65869141 C-99.00345703 5.62694824 -98.01667969 5.59520508 -97 5.5625 C-89.1430954 5.27101883 -81.32982553 4.83595957 -73.5 4.125 C-61.84945508 3.0811946 -50.18331247 2.32004231 -38.51000977 1.58148193 C-36.35611241 1.44505876 -34.20230127 1.30726671 -32.04858398 1.16802979 C-28.97534032 0.96991188 -25.90180476 0.77715764 -22.828125 0.5859375 C-21.91625427 0.52666077 -21.00438354 0.46738403 -20.06488037 0.40631104 C-13.33780057 -0.00240856 -6.77364467 0 0 0 Z " fill="#FEFEFE" transform="translate(2484,1222)"/>
<path d="M0 0 C1.19882813 0.07250977 1.19882813 0.07250977 2.421875 0.14648438 C3.246875 0.20255859 4.071875 0.25863281 4.921875 0.31640625 C5.76234375 0.36861328 6.6028125 0.42082031 7.46875 0.47460938 C9.5368102 0.60386314 11.6043972 0.74064899 13.671875 0.87890625 C14.001875 1.53890625 14.331875 2.19890625 14.671875 2.87890625 C6.69697372 4.20805646 -1.26999219 3.96691984 -9.328125 3.87890625 C-8.998125 2.88890625 -8.668125 1.89890625 -8.328125 0.87890625 C-5.51418018 -0.21255164 -2.98088024 -0.19162802 0 0 Z " fill="#D3D3D3" transform="translate(1769.328125,1264.12109375)"/>
<path d="M0 0 C1.60379341 -0.05416188 3.20811406 -0.09286638 4.8125 -0.125 C5.70582031 -0.14820313 6.59914063 -0.17140625 7.51953125 -0.1953125 C10 0 10 0 13 2 C9.38132441 3.2062252 6.07493749 3.10816918 2.3125 3.0625 C1.61060547 3.05798828 0.90871094 3.05347656 0.18554688 3.04882812 C-1.54300538 3.03706927 -3.27151365 3.01913454 -5 3 C-5.33 2.34 -5.66 1.68 -6 1 C-4.02 1 -2.04 1 0 1 C0 0.67 0 0.34 0 0 Z " fill="#D8D8D8" transform="translate(1398,1289)"/>
<path d="M0 0 C0 0.66 0 1.32 0 2 C-6.27 2 -12.54 2 -19 2 C-13.08783025 -1.9414465 -6.70163628 -1.07704869 0 0 Z " fill="#C7C7C7" transform="translate(2387,1226)"/>
<path d="M0 0 C0.33 0.66 0.66 1.32 1 2 C-6.92 2.495 -6.92 2.495 -15 3 C-15 2.34 -15 1.68 -15 1 C-10.03926578 -0.32286246 -5.08888488 -0.08893197 0 0 Z " fill="#D9D9D9" transform="translate(671,1337)"/>
<path d="M0 0 C6.52307692 -0.36923077 6.52307692 -0.36923077 8.9375 1.5 C9.288125 1.995 9.63875 2.49 10 3 C7.24921116 3.91692961 5.64051087 4.10886083 2.8125 4.0625 C0.9253125 4.0315625 0.9253125 4.0315625 -1 4 C-0.67 2.68 -0.34 1.36 0 0 Z " fill="#D1D1D1" transform="translate(1857,1258)"/>
<path d="M0 0 C2 0.33333333 4 0.66666667 6 1 C6 1.33 6 1.66 6 2 C0.72 2 -4.56 2 -10 2 C-7.8547216 -2.2905568 -3.94970733 -0.77445242 0 0 Z " fill="#D2D2D2" transform="translate(2138,1242)"/>
<path d="M0 0 C-0.33 0.99 -0.66 1.98 -1 3 C-3.31 3 -5.62 3 -8 3 C-8 2.01 -8 1.02 -8 0 C-4.94736336 -0.98120464 -3.05263664 -0.98120464 0 0 Z " fill="#CECECE" transform="translate(2361,1227)"/>
<path d="M0 0 C0 0.66 0 1.32 0 2 C-3.96 2 -7.92 2 -12 2 C-11.67 1.34 -11.34 0.68 -11 0 C-7.08234111 -0.81309902 -3.82092412 -1.37553268 0 0 Z " fill="#CACACA" transform="translate(2484,1219)"/>
<path d="M0 0 C2.3431213 0.25561323 4.67843403 0.59270772 7 1 C7.33 1.66 7.66 2.32 8 3 C4.04 3 0.08 3 -4 3 C-2.68 2.67 -1.36 2.34 0 2 C0 1.34 0 0.68 0 0 Z " fill="#CECECE" transform="translate(2208,1236)"/>
<path d="M0 0 C2.31 0.33 4.62 0.66 7 1 C7.33 1.99 7.66 2.98 8 4 C5.69 4 3.38 4 1 4 C0.67 2.68 0.34 1.36 0 0 Z " fill="#CDCDCD" transform="translate(2224,1234)"/>
<path d="M0 0 C2.02045442 0.60183749 4.02111039 1.27306096 6 2 C6.33 2.66 6.66 3.32 7 4 C4.36 4 1.72 4 -1 4 C-0.67 2.68 -0.34 1.36 0 0 Z " fill="#D3D3D3" transform="translate(2089,1243)"/>
<path d="M0 0 C0 0.99 0 1.98 0 3 C-2.97 2.67 -5.94 2.34 -9 2 C-5.5647952 -0.29013653 -4.014669 -0.17842973 0 0 Z " fill="#D4D4D4" transform="translate(1616,1272)"/>
<path d="M0 0 C0 0.99 0 1.98 0 3 C-2.31 3 -4.62 3 -7 3 C-7 2.34 -7 1.68 -7 1 C-4.53721199 -0.231394 -2.7204945 -0.07159196 0 0 Z " fill="#D3D3D3" transform="translate(2112,1243)"/>
<path d="M0 0 C2.64 0.33 5.28 0.66 8 1 C8 1.66 8 2.32 8 3 C5.69 3 3.38 3 1 3 C0.67 2.01 0.34 1.02 0 0 Z " fill="#CDCDCD" transform="translate(2379,1225)"/>
<path d="M0 0 C0 0.66 0 1.32 0 2 C-2.31 2 -4.62 2 -7 2 C-7.33 1.34 -7.66 0.68 -8 0 C-4.71303767 -0.79953138 -3.28976808 -1.09658936 0 0 Z " fill="#D2D2D2" transform="translate(1496,1284)"/>
</svg>
