<?xml version="1.0" encoding="UTF-8"?>
<svg version="1.1" xmlns="http://www.w3.org/2000/svg" width="2484" height="1406">
<path d="M0 0 C819.72 0 1639.44 0 2484 0 C2484 463.98 2484 927.96 2484 1406 C1664.28 1406 844.56 1406 0 1406 C0 942.02 0 478.04 0 0 Z " fill="#27689B" transform="translate(0,0)"/>
<path d="M0 0 C0 66 0 132 0 200 C-819.72 200 -1639.44 200 -2484 200 C-2484 197.36 -2484 194.72 -2484 192 C-2372.40862122 182.66878578 -2372.40862122 182.66878578 -2341.07421875 180.64575195 C-2336.09070954 180.31798697 -2331.17017658 179.91322794 -2326.21875 179.24560547 C-2321.40758726 178.71303178 -2316.56493125 178.51632088 -2311.73345947 178.24227905 C-2300.01321376 177.5704479 -2288.31855521 176.7317435 -2276.625 175.6875 C-2261.16921197 174.31488776 -2245.70212545 173.12407458 -2230.22893143 171.96542358 C-2200.87699828 169.76667091 -2171.53132722 167.49179965 -2142.1875 165.1875 C-2140.00993879 165.01658843 -2137.83237735 164.84567983 -2135.65481567 164.67477417 C-2111.37173475 162.76847385 -2087.08959141 160.85062247 -2062.80859375 158.91796875 C-2055.30719848 158.3210873 -2047.80579082 157.72436155 -2040.30436707 157.12783813 C-2038.18722795 156.95947333 -2036.0700913 156.79107741 -2033.95295715 156.62265015 C-2001.56731937 154.04662463 -1969.17691398 151.54465293 -1936.77660847 149.15976524 C-1919.3514732 147.87687572 -1901.93440919 146.52756728 -1884.52452087 145.05070496 C-1874.45713466 144.19718083 -1864.38652042 143.39627287 -1854.3125 142.625 C-1853.35739532 142.55173996 -1852.40229065 142.47847992 -1851.41824341 142.40299988 C-1849.10571333 142.22617967 -1846.79310657 142.05040476 -1844.48046875 141.875 C-1831.75048785 140.90668068 -1819.02147378 139.92581357 -1806.29238892 138.94580078 C-1799.93352812 138.45626134 -1793.57462948 137.96721384 -1787.21573448 137.4781189 C-1783.620384 137.20157773 -1780.02503587 136.92500607 -1776.4296875 136.6484375 C-1775.00781251 136.53906235 -1773.58593751 136.42968735 -1772.1640625 136.3203125 C-1771.47070801 136.26697754 -1770.77735352 136.21364258 -1770.06298828 136.15869141 C-1768.05501302 136.00423177 -1766.04703776 135.84977214 -1764.0390625 135.6953125 C-1762.12867188 135.54835938 -1762.12867188 135.54835938 -1760.1796875 135.3984375 C-1758.91990082 135.30153122 -1757.66011414 135.20462494 -1756.3621521 135.1047821 C-1753.8190407 134.90915736 -1751.27592953 134.71352949 -1748.7328186 134.51789856 C-1742.23383132 134.01796258 -1735.73483964 133.51808384 -1729.23583984 133.01831055 C-1726.49837169 132.80778908 -1723.76090432 132.59725751 -1721.0234375 132.38671875 C-1720.32985516 132.33337561 -1719.63627281 132.28003246 -1718.92167282 132.22507286 C-1708.07899679 131.39112166 -1697.23640626 130.55606364 -1686.3938446 129.72062683 C-1677.5127117 129.03633209 -1668.63155373 128.35236284 -1659.75038528 127.66852951 C-1657.74711642 127.51427791 -1655.7438485 127.36001406 -1653.74058151 127.20573807 C-1632.18352252 125.54562223 -1610.62635447 123.88852391 -1589.06555176 122.27764893 C-1562.20543702 120.26971949 -1535.3527599 118.16609723 -1508.5 116.0625 C-1507.38212727 115.97495831 -1506.26425453 115.88741661 -1505.11250687 115.79722214 C-1476.21848154 113.53405149 -1447.32895894 111.22674139 -1418.44668579 108.81826782 C-1401.26849287 107.38842618 -1384.0934911 106.10133836 -1366.87768555 105.21777344 C-1364.70021586 105.05298995 -1362.52894115 104.80349289 -1360.36447144 104.51435852 C-1356.01006993 103.96291893 -1351.67362846 103.73879473 -1347.29077148 103.55249023 C-1337.87109375 103.10166036 -1328.50339593 102.30022699 -1319.11556816 101.41894341 C-1302.04715186 99.82312423 -1284.96927053 98.41822025 -1267.87109375 97.18359375 C-1266.86821949 97.11111042 -1265.86534523 97.03862709 -1264.83208084 96.9639473 C-1258.72385437 96.5236159 -1252.6152669 96.08847048 -1246.50653076 95.65527344 C-1237.31519239 95.003071 -1228.12427292 94.34501626 -1218.93359375 93.68359375 C-1217.94303104 93.61236864 -1216.95246834 93.54114353 -1215.93188858 93.46776009 C-1199.40734735 92.27664506 -1182.89788121 90.94512866 -1166.39041805 89.53925514 C-1158.48638022 88.8679129 -1150.57942287 88.23392541 -1142.671875 87.60546875 C-1141.9516044 87.54821625 -1141.23133381 87.49096375 -1140.48923683 87.43197632 C-1136.02045278 87.07712023 -1131.55154242 86.72387952 -1127.08256531 86.37146378 C-1124.69504316 86.18316569 -1122.30754314 85.99458867 -1119.92004395 85.80599976 C-1087.53127382 83.24928629 -1055.1341558 80.80715294 -1022.734375 78.39453125 C-1021.97417305 78.33791321 -1021.2139711 78.28129517 -1020.43073273 78.22296143 C-1018.12439694 78.05119925 -1015.81805852 77.87947242 -1013.51171875 77.70776367 C-1012.36399302 77.62231072 -1012.36399302 77.62231072 -1011.1930809 77.53513145 C-1007.04135487 77.22610194 -1002.88959478 76.91753732 -998.73779297 76.60952759 C-994.25015818 76.27656366 -989.76260347 75.94253664 -985.27509308 75.60790062 C-983.57587693 75.48137535 -981.87663388 75.35521068 -980.17736053 75.22945595 C-969.27694165 74.42258156 -958.38685642 73.53529064 -947.5 72.5625 C-929.69452115 70.98722428 -911.86648709 69.74837428 -894.03320312 68.53344727 C-882.04778761 67.70745037 -870.08588737 66.75281913 -858.125 65.625 C-843.55747194 64.25590243 -828.97492818 63.13509784 -814.3828125 62.0625 C-813.24367275 61.97874115 -812.104533 61.8949823 -810.93087387 61.8086853 C-802.66253705 61.20182424 -794.39379029 60.60064466 -786.125 60 C-776.7107244 59.31540127 -767.29661673 58.628552 -757.8828125 57.9375 C-756.17611106 57.81227903 -756.17611106 57.81227903 -754.4349308 57.68452835 C-738.54166979 56.51553852 -722.66112086 55.24607828 -706.78621006 53.85134697 C-693.38615941 52.67430196 -679.97505951 51.64773824 -666.5625 50.625 C-665.20023971 50.52054126 -663.837986 50.41599668 -662.47573853 50.31137085 C-646.11371551 49.05487831 -629.74965007 47.82887021 -613.3828125 46.63671875 C-611.83835295 46.52405511 -610.29389392 46.41138424 -608.74943542 46.29870605 C-602.07751652 45.81230639 -595.40549371 45.32756728 -588.73293877 44.8499651 C-576.09230781 43.94377302 -563.46285622 43.01658738 -550.85760498 41.69537354 C-542.23105991 40.79580614 -533.58844757 40.17432462 -524.9375 39.5625 C-523.17780074 39.43583662 -521.41811687 39.30895941 -519.65844727 39.18188477 C-510.31503368 38.50954165 -500.97024471 37.8572689 -491.625 37.2109375 C-490.68564102 37.14585495 -489.74628204 37.0807724 -488.77845764 37.01371765 C-484.29185973 36.70307627 -479.80515129 36.39433687 -475.31811523 36.09008789 C-459.67237945 35.02086226 -444.0506519 33.6907215 -428.4261322 32.35115051 C-401.27221093 30.02485662 -374.1040532 27.94590088 -346.92541504 25.93445969 C-321.10549247 24.02267432 -295.2988624 21.99009788 -269.5 19.8125 C-267.98189407 19.68446492 -266.46378698 19.5564436 -264.94567871 19.42843628 C-264.2026865 19.36578425 -263.45969429 19.30313223 -262.69418716 19.23858166 C-259.06176409 18.93232186 -255.42932878 18.6262079 -251.796875 18.3203125 C-251.10312523 18.26186975 -250.40937546 18.20342701 -249.69460297 18.14321327 C-237.38355213 17.10700154 -225.06966657 16.11577612 -212.75 15.1875 C-211.62356079 15.10140976 -211.62356079 15.10140976 -210.47436523 15.01358032 C-203.23228959 14.46233523 -195.99594386 13.98862074 -188.73986816 13.66482544 C-181.49103709 13.33894023 -174.29329226 12.88874584 -167.078125 12.11328125 C-157.66483571 11.10824997 -148.23651721 10.37011002 -138.796875 9.66796875 C-138.00877693 9.60926857 -137.22067886 9.55056839 -136.40869904 9.49008942 C-131.39332472 9.11723785 -126.37768672 8.74802286 -121.36198425 8.37961578 C-113.34516911 7.7899657 -105.32884309 7.1936831 -97.3125 6.59765625 C-96.41760612 6.53120659 -95.52271225 6.46475693 -94.60070038 6.39629364 C-82.04354797 5.46314878 -69.48942115 4.49708086 -56.9375 3.49609375 C-55.44802037 3.37765556 -53.95853879 3.25924196 -52.46905518 3.14085388 C-44.07946489 2.47329457 -44.07946489 2.47329457 -35.6907959 1.79428101 C-31.91396148 1.48651097 -28.13671909 1.18425192 -24.359375 0.8828125 C-22.73334351 0.74733253 -22.73334351 0.74733253 -21.07446289 0.6091156 C-13.98221087 0.0490158 -7.16243697 0 0 0 Z " fill="#FEFEFE" transform="translate(2484,1206)"/>
<path d="M0 0 C1.66056787 0.01619977 3.32205182 -0.03506254 4.98046875 -0.12109375 C5.98013672 -0.16943359 6.97980469 -0.21777344 8.00976562 -0.26757812 C9.05841797 -0.32365234 10.10707031 -0.37972656 11.1875 -0.4375 C23.82707286 -1.0785804 23.82707286 -1.0785804 30 -1 C23.90371784 5.09628216 6.15153774 3.38528939 -2.00390625 3.859375 C-21.01307702 4.99957084 -39.99111926 6.50916825 -58.97346497 8.02383804 C-63.82231758 8.4101052 -68.67143206 8.79305984 -73.52050781 9.17651367 C-91.64070068 10.61069842 -109.75976904 12.05887976 -127.87822533 13.51482773 C-130.44658397 13.72118912 -133.01495468 13.92739983 -135.58332825 14.13357544 C-142.75097936 14.70909763 -149.91857426 15.28523696 -157.08576679 15.86644554 C-171.40178136 17.02666372 -185.71960901 18.15482197 -200.046875 19.16796875 C-201.22509827 19.25307205 -202.40332153 19.33817535 -203.61724854 19.42585754 C-212.34706583 20.02875801 -220.8005211 20.35427419 -229.5 19.125 C-230.7065625 18.96257812 -231.913125 18.80015625 -233.15625 18.6328125 C-234.0946875 18.42398437 -235.033125 18.21515625 -236 18 C-236.33 17.34 -236.66 16.68 -237 16 C-234.03 15.67 -231.06 15.34 -228 15 C-227.67 15.99 -227.34 16.98 -227 18 C-225.68 18 -224.36 18 -223 18 C-222.67 17.01 -222.34 16.02 -222 15 C-221.67 15.66 -221.34 16.32 -221 17 C-219.8553125 16.7834375 -219.8553125 16.7834375 -218.6875 16.5625 C-210.71575735 15.34647146 -202.88574119 14.88653225 -194.82421875 15.0625 C-192.01681191 15.07523446 -192.01681191 15.07523446 -189.3659668 14.51586914 C-185.33368722 13.89788069 -181.39328535 13.77104602 -177.3203125 13.68359375 C-176.10116653 13.6524221 -176.10116653 13.6524221 -174.85739136 13.62062073 C-172.28000743 13.55562421 -169.70252806 13.49647407 -167.125 13.4375 C-165.36978209 13.39426723 -163.61457357 13.35065148 -161.859375 13.30664062 C-157.57301262 13.19999451 -153.28655496 13.09858886 -149 13 C-149 12.34 -149 11.68 -149 11 C-149.99 10.67 -150.98 10.34 -152 10 C-150.8125 8.5 -150.8125 8.5 -149 7 C-146.3125 6.8125 -146.3125 6.8125 -144 7 C-143.505 8.485 -143.505 8.485 -143 10 C-138.545 9.505 -138.545 9.505 -134 9 C-134 8.34 -134 7.68 -134 7 C-132 8 -132 8 -131 10 C-130.01 9.67 -129.02 9.34 -128 9 C-128 8.34 -128 7.68 -128 7 C-126.948125 7.350625 -125.89625 7.70125 -124.8125 8.0625 C-120.97489352 9.00617373 -119.69616496 8.79601143 -116 8 C-114.229698 7.95662353 -112.45788004 7.95993482 -110.6875 8 C-105.62522734 8.04396515 -100.61274517 7.87332 -95.5625 7.5625 C-94.55159302 7.50352539 -94.55159302 7.50352539 -93.52026367 7.44335938 C-90.85951527 7.27047556 -88.27944284 7.06023409 -85.67016602 6.49780273 C-82.65418523 5.93552927 -79.77753298 5.80429978 -76.7109375 5.71875 C-74.92816406 5.66267578 -74.92816406 5.66267578 -73.109375 5.60546875 C-70.61198538 5.53493578 -68.11458949 5.46462465 -65.6171875 5.39453125 C-64.43125 5.35714844 -63.2453125 5.31976562 -62.0234375 5.28125 C-60.93981934 5.25095703 -59.85620117 5.22066406 -58.73974609 5.18945312 C-55.90843567 5.10838375 -55.90843567 5.10838375 -53 4 C-50.99124558 4.27571139 -48.98821313 4.60235737 -47 5 C-47.33 4.01 -47.66 3.02 -48 2 C-46.083412 1.97287847 -44.1667127 1.95354903 -42.25 1.9375 C-40.64898438 1.92009766 -40.64898438 1.92009766 -39.015625 1.90234375 C-36.46631499 1.98489913 -34.42066409 2.25382442 -32 3 C-31.67 2.01 -31.34 1.02 -31 0 C-29.35 0.66 -27.7 1.32 -26 2 C-26 1.34 -26 0.68 -26 0 C-21.25 -0.125 -21.25 -0.125 -19 1 C-13.78104951 1.32618441 -9.2192325 0.53069307 -4.13671875 -0.66015625 C-2 -1 -2 -1 0 0 Z " fill="#275279" transform="translate(2296,1217)"/>
<path d="M0 0 C2.76171875 0.3046875 2.76171875 0.3046875 6 1 C14.47151939 1.34412385 22.89268118 0.93089153 31.34277344 0.3581543 C39.89058225 -0.18364948 48.4393553 -0.08457278 57 0 C57 0.33 57 0.66 57 1 C19.14506218 4.28340294 -18.72036409 7.43729394 -56.60165405 10.40206909 C-60.59057975 10.71444291 -64.579177 11.03059444 -68.5675354 11.35012817 C-73.32900957 11.73130981 -78.09107415 12.10409645 -82.85367393 12.47093773 C-84.59893024 12.60660594 -86.34398375 12.74491809 -88.08878517 12.8863163 C-100.7473967 13.9091453 -113.30176529 14.15076236 -126 14 C-126 13.67 -126 13.34 -126 13 C-119.565 12.505 -119.565 12.505 -113 12 C-113.66 11.34 -114.32 10.68 -115 10 C-108.25 8.875 -108.25 8.875 -106 10 C-104.24348065 10.02809263 -102.4856413 9.98835086 -100.73046875 9.9140625 C-99.14975586 9.84832031 -99.14975586 9.84832031 -97.53710938 9.78125 C-96.43173828 9.7296875 -95.32636719 9.678125 -94.1875 9.625 C-93.09373047 9.58117188 -91.99996094 9.53734375 -90.87304688 9.4921875 C-86.13308695 9.28421851 -81.64408975 9.00887481 -77 8 C-69.7405521 7.01504978 -62.52963178 6.91184173 -55.21948242 7.03686523 C-53.47975324 7.05906914 -51.73954137 7.03385969 -50 7 C-49.67 6.67 -49.34 6.34 -49 6 C-46.69052429 5.81226197 -44.37682265 5.67578852 -42.0625 5.5625 C-37.43973194 5.31853276 -33.01134251 4.90024255 -28.5 3.8125 C-24.02277755 2.78678181 -21.25369472 3.33551076 -17 5 C-17 4.34 -17 3.68 -17 3 C-15.53626953 3.05220703 -15.53626953 3.05220703 -14.04296875 3.10546875 C-12.13451172 3.14607422 -12.13451172 3.14607422 -10.1875 3.1875 C-8.29064453 3.23970703 -8.29064453 3.23970703 -6.35546875 3.29296875 C-3.02730953 3.36467657 -3.02730953 3.36467657 -1.42578125 1.42578125 C-0.72001953 0.72001953 -0.72001953 0.72001953 0 0 Z " fill="#345F83" transform="translate(1041,1312)"/>
<path d="M0 0 C0.99 0 1.98 0 3 0 C2.67 0.99 2.34 1.98 2 3 C-20.63166778 4.89783405 -43.26448136 6.78168796 -65.90326118 8.59298515 C-70.0608724 8.92570691 -74.21825864 9.2608605 -78.37524414 9.60131836 C-82.52067938 9.94076469 -86.66655596 10.27425387 -90.81279564 10.60372353 C-92.35520056 10.72725063 -93.89744843 10.85275942 -95.43950844 10.98052025 C-105.32207238 11.79753611 -115.0810415 12.15648453 -125 12 C-123 10 -123 10 -120.8359375 9.8046875 C-119.61777344 9.83949219 -119.61777344 9.83949219 -118.375 9.875 C-117.14910156 9.90207031 -117.14910156 9.90207031 -115.8984375 9.9296875 C-114.95871094 9.96449219 -114.95871094 9.96449219 -114 10 C-114 9.34 -114 8.68 -114 8 C-109.71 8 -105.42 8 -101 8 C-101 7.34 -101 6.68 -101 6 C-100.25234375 5.93941406 -99.5046875 5.87882812 -98.734375 5.81640625 C-97.74953125 5.73261719 -96.7646875 5.64882812 -95.75 5.5625 C-94.77546875 5.48128906 -93.8009375 5.40007812 -92.796875 5.31640625 C-90.43538247 5.04925416 -88.28098935 4.64628032 -86 4 C-85.505 4.99 -85.505 4.99 -85 6 C-79.2651022 5.33828102 -73.60995394 4.4344346 -67.9296875 3.40234375 C-64.90324879 2.98671283 -62.05086613 2.8629321 -59 3 C-58.505 3.495 -58.505 3.495 -58 4 C-53.34911285 4.30523962 -53.34911285 4.30523962 -49 3 C-47.45206753 2.92771737 -45.90103529 2.91619734 -44.3515625 2.9375 C-42.96710938 2.94910156 -42.96710938 2.94910156 -41.5546875 2.9609375 C-39.60937361 2.98687502 -37.66406109 3.01291585 -35.71875 3.0390625 C-34.33042969 3.05066406 -34.33042969 3.05066406 -32.9140625 3.0625 C-31.6448999 3.07990234 -31.6448999 3.07990234 -30.35009766 3.09765625 C-28.06909201 3.00287106 -26.20362336 2.55773169 -24 2 C-22.20692492 1.86675991 -20.41035953 1.77689486 -18.61328125 1.71875 C-17.0828418 1.66267578 -17.0828418 1.66267578 -15.52148438 1.60546875 C-13.37045532 1.53477151 -11.21941345 1.46446317 -9.06835938 1.39453125 C-8.05193359 1.35714844 -7.03550781 1.31976562 -5.98828125 1.28125 C-4.58896362 1.23581055 -4.58896362 1.23581055 -3.16137695 1.18945312 C-1.02089541 1.23511607 -1.02089541 1.23511607 0 0 Z " fill="#315A7D" transform="translate(1730,1261)"/>
<path d="M0 0 C0 0.66 0 1.32 0 2 C-19.2157764 3.77363823 -38.44341022 5.39995874 -57.68127441 6.91516113 C-59.95578004 7.09503501 -62.23011813 7.27704159 -64.50427246 7.46130371 C-77.02948026 8.47339984 -89.42889165 9.30510129 -102 9 C-101.67 7.68 -101.34 6.36 -101 5 C-100.0925 4.855625 -99.185 4.71125 -98.25 4.5625 C-95.13935446 4.09376642 -95.13935446 4.09376642 -92.75 3.3125 C-92.1725 3.209375 -91.595 3.10625 -91 3 C-90.34 3.66 -89.68 4.32 -89 5 C-88.01 4.67 -87.02 4.34 -86 4 C-81.91405167 2.8134874 -78.23657606 2.85134821 -74 3 C-74 3.66 -74 4.32 -74 5 C-73.35417969 4.68160156 -72.70835937 4.36320312 -72.04296875 4.03515625 C-68.1408883 2.70774763 -64.39204091 2.57383636 -60.3125 2.4375 C-59.46123535 2.40140625 -58.6099707 2.3653125 -57.73291016 2.328125 C-53.67430128 2.16013263 -49.61476072 2.02152316 -45.55517578 1.87939453 C-43.17109997 1.79588527 -40.787066 1.71117278 -38.40307617 1.62524414 C-36.07138436 1.54247078 -33.73950737 1.46474321 -31.4074707 1.39233398 C-29.80971802 1.33734741 -29.80971802 1.33734741 -28.1796875 1.28125 C-27.22819824 1.25095703 -26.27670898 1.22066406 -25.29638672 1.18945312 C-22.97207199 1.14110204 -22.97207199 1.14110204 -21 0 C-13.83685891 -1.00574524 -7.14249589 -1.07137438 0 0 Z " fill="#2F557A" transform="translate(2454,1206)"/>
<path d="M0 0 C0.495 0.99 0.495 0.99 1 2 C-2.90446901 3.19840138 -6.88430199 3.35596894 -10.93359375 3.61328125 C-11.73885498 3.6676535 -12.54411621 3.72202576 -13.3737793 3.77804565 C-15.13376017 3.89668692 -16.89384684 4.01376645 -18.65402222 4.12948608 C-23.46777532 4.44599079 -28.28079007 4.77324351 -33.09375 5.1015625 C-34.11899277 5.17136826 -35.14423553 5.24117401 -36.20054626 5.31309509 C-44.20981921 5.86393902 -52.21457262 6.46574311 -60.21875 7.0859375 C-61.99669701 7.22315468 -61.99669701 7.22315468 -63.81056213 7.36314392 C-68.50523059 7.72598344 -73.19983338 8.08935437 -77.89376831 8.46157837 C-81.17757975 8.72184853 -84.46178558 8.97655516 -87.74609375 9.23046875 C-88.70708984 9.30844696 -89.66808594 9.38642517 -90.65820312 9.46676636 C-97.44870811 9.985539 -104.19113093 10.08262749 -111 10 C-111.33 9.34 -111.66 8.68 -112 8 C-105.07 8 -98.14 8 -91 8 C-91 7.01 -91 6.02 -91 5 C-85.22982774 3.18974988 -80.84233741 2.26893706 -75 4 C-75 3.01 -75 2.02 -75 1 C-73.68 1.33 -72.36 1.66 -71 2 C-71.33 2.66 -71.66 3.32 -72 4 C-71.34 3.814375 -70.68 3.62875 -70 3.4375 C-66.10669886 2.86972692 -62.88624521 3.40718293 -59 4 C-59 3.34 -59 2.68 -59 2 C-57.44539063 2.01740234 -57.44539063 2.01740234 -55.859375 2.03515625 C-54.48958514 2.04453837 -53.11979332 2.05363812 -51.75 2.0625 C-50.72712891 2.07506836 -50.72712891 2.07506836 -49.68359375 2.08789062 C-46.26362779 2.1044924 -43.29737414 1.83946911 -40 1 C-39.01 1.33 -38.02 1.66 -37 2 C-35.65761354 1.70523316 -34.32429493 1.36760282 -33 1 C-31.48216167 0.85778721 -29.96031578 0.75493654 -28.4375 0.68359375 C-27.12591919 0.6206311 -27.12591919 0.6206311 -25.7878418 0.55639648 C-24.867854 0.51716064 -23.94786621 0.4779248 -23 0.4375 C-22.06260986 0.3950415 -21.12521973 0.35258301 -20.15942383 0.30883789 C-13.43435936 0.02023094 -6.73144549 -0.12543066 0 0 Z " fill="#33587B" transform="translate(2027,1239)"/>
<path d="M0 0 C-2.82968915 1.57906827 -5.04015511 2.28869173 -8.26513672 2.52294922 C-9.13220245 2.5905545 -9.99926819 2.65815979 -10.89260864 2.72781372 C-11.85359467 2.79443207 -12.81458069 2.86105042 -13.8046875 2.9296875 C-15.98536247 3.09588565 -18.16602569 3.2622379 -20.34667969 3.42871094 C-21.55964722 3.51842163 -22.77261475 3.60813232 -24.02233887 3.70056152 C-28.33552915 4.02525865 -32.64681243 4.36972849 -36.95800781 4.71972656 C-44.42535251 5.32543495 -51.89338023 5.92178757 -59.3620491 6.51094437 C-63.69637161 6.8530131 -68.03050309 7.19719151 -72.36425781 7.54638672 C-76.63853746 7.89073619 -80.91322002 8.22961073 -85.18822861 8.564785 C-86.79005731 8.69126746 -88.39174203 8.81959004 -89.99325943 8.94995499 C-115.36013509 11.01072629 -115.36013509 11.01072629 -124 9 C-124 8.67 -124 8.34 -124 8 C-120.14674943 7.49276851 -116.29227297 6.99551801 -112.4375 6.5 C-111.35146484 6.35691406 -110.26542969 6.21382812 -109.14648438 6.06640625 C-103.7083525 5.37217665 -98.4784701 4.88343681 -93 5 C-90.9935269 4.70814937 -88.99005807 4.38830401 -87 4 C-87 4.66 -87 5.32 -87 6 C-86.01 6 -85.02 6 -84 6 C-83.67 5.34 -83.34 4.68 -83 4 C-80.14142084 3.04503218 -77.23879823 2.74517041 -74.25 2.4375 C-73.05117187 2.31181641 -73.05117187 2.31181641 -71.828125 2.18359375 C-71.22484375 2.12300781 -70.6215625 2.06242187 -70 2 C-69.505 2.99 -69.505 2.99 -69 4 C-66.69 4 -64.38 4 -62 4 C-61.67 3.34 -61.34 2.68 -61 2 C-60.31897217 2.00523682 -59.63794434 2.01047363 -58.9362793 2.01586914 C-55.85336223 2.03664458 -52.7704599 2.04966198 -49.6875 2.0625 C-48.0797168 2.07506836 -48.0797168 2.07506836 -46.43945312 2.08789062 C-45.41142578 2.09111328 -44.38339844 2.09433594 -43.32421875 2.09765625 C-42.37635498 2.10289307 -41.42849121 2.10812988 -40.4519043 2.11352539 C-37.86161319 2.10498854 -37.86161319 2.10498854 -35 1 C-32.88660909 0.86093519 -30.76956371 0.77478398 -28.65234375 0.71875 C-26.78545898 0.66267578 -26.78545898 0.66267578 -24.88085938 0.60546875 C-22.24804967 0.53505185 -19.61523715 0.46473966 -16.98242188 0.39453125 C-15.73912109 0.35714844 -14.49582031 0.31976562 -13.21484375 0.28125 C-12.07136475 0.25095703 -10.92788574 0.22066406 -9.74975586 0.18945312 C-1.57744068 -0.37360437 -1.57744068 -0.37360437 0 0 Z " fill="#305980" transform="translate(1532,1278)"/>
<path d="M0 0 C0.44657959 0.49346924 0.89315918 0.98693848 1.35327148 1.49536133 C-12.2343769 3.00590205 -25.82677474 4.19956468 -39.45922852 5.22192383 C-41.49081353 5.37588187 -43.52238886 5.52996778 -45.55395508 5.68417358 C-49.77240107 6.00367628 -53.9910005 6.32105022 -58.2097168 6.63696289 C-63.59039337 7.04014808 -68.97056483 7.44969494 -74.35063171 7.86092567 C-78.53019763 8.17952553 -82.71004609 8.49428792 -86.88998413 8.80796432 C-88.87382687 8.95738176 -90.85757413 9.10807314 -92.84121704 9.26012039 C-120.34454173 11.36348585 -120.34454173 11.36348585 -124.64672852 8.49536133 C-121.73575504 7.52503683 -120.26427134 7.44648838 -117.27172852 7.55786133 C-111.82272518 7.62188356 -106.55117435 7.09336293 -101.14672852 6.49536133 C-88.33065266 5.11709784 -75.51978314 5.30490985 -62.64672852 5.49536133 C-62.64672852 4.83536133 -62.64672852 4.17536133 -62.64672852 3.49536133 C-60.99672852 3.49536133 -59.34672852 3.49536133 -57.64672852 3.49536133 C-57.64672852 2.83536133 -57.64672852 2.17536133 -57.64672852 1.49536133 C-56.64258911 1.51107178 -56.64258911 1.51107178 -55.61816406 1.52709961 C-52.52355859 1.56921034 -49.42901373 1.59485986 -46.33422852 1.62036133 C-45.28170898 1.63711914 -44.22918945 1.65387695 -43.14477539 1.67114258 C-36.92717773 1.70940472 -31.17709805 1.25189778 -25.09521484 -0.06542969 C-21.76846153 -0.66218203 -18.57203647 -0.59378754 -15.20532227 -0.49682617 C-11.42784351 -0.50836046 -7.73023576 -1.04670023 -3.99438477 -1.57885742 C-1.64672852 -1.50463867 -1.64672852 -1.50463867 0 0 Z " fill="#346287" transform="translate(761.646728515625,1337.504638671875)"/>
<path d="M0 0 C1.86323318 0.25288812 3.71708432 0.57690153 5.5625 0.9375 C7.08037109 1.22947266 7.08037109 1.22947266 8.62890625 1.52734375 C9.41136719 1.68332031 10.19382812 1.83929687 11 2 C11 2.33 11 2.66 11 3 C-57.39594896 9.76562981 -57.39594896 9.76562981 -90 9 C-90 8.67 -90 8.34 -90 8 C-88.9644397 7.92483154 -88.9644397 7.92483154 -87.90795898 7.84814453 C-84.75052841 7.61465298 -81.59406368 7.36992156 -78.4375 7.125 C-77.35146484 7.04636719 -76.26542969 6.96773437 -75.14648438 6.88671875 C-69.47835333 6.43878134 -64.41514353 5.70654592 -59 4 C-56.75 4.4375 -56.75 4.4375 -55 5 C-54.01 4.67 -53.02 4.34 -52 4 C-49.6593935 4.27769908 -47.32375692 4.60539977 -45 5 C-45 4.34 -45 3.68 -45 3 C-41.25 1.875 -41.25 1.875 -39 3 C-38.34 2.34 -37.68 1.68 -37 1 C-36.34 1.33 -35.68 1.66 -35 2 C-33.23132545 2.09683564 -31.45881697 2.12979382 -29.6875 2.125 C-28.74261719 2.12757812 -27.79773437 2.13015625 -26.82421875 2.1328125 C-24.07147799 2.08428944 -24.07147799 2.08428944 -21.72265625 1.4921875 C-17.7310466 0.77060527 -13.79573756 0.93578194 -9.75 1 C-6.82770487 1.04551862 -3.92349185 1.047344 -1 1 C-0.67 0.67 -0.34 0.34 0 0 Z " fill="#2A5782" transform="translate(1901,1247)"/>
<path d="M0 0 C6.4 -0.36923077 6.4 -0.36923077 9.4375 1.5 C9.953125 1.995 10.46875 2.49 11 3 C6.73284173 4.58055671 2.92028704 5.34520244 -1.61279297 5.67016602 C-2.90788788 5.76689102 -4.20298279 5.86361603 -5.537323 5.96327209 C-6.93893757 6.06025039 -8.34055925 6.15712591 -9.7421875 6.25390625 C-11.1942371 6.36002044 -12.6462324 6.46687993 -14.09817505 6.57444763 C-17.91191333 6.85525964 -21.72623101 7.12718204 -25.54077148 7.39685059 C-31.63803356 7.82954511 -37.73427232 8.27647262 -43.83060074 8.72208977 C-45.94849453 8.87573646 -48.06660414 9.0260286 -50.18478394 9.17567444 C-56.48917873 9.62897128 -62.73398805 10.18079833 -69 11 C-73.60023212 11.32659394 -78.2045846 11.50298657 -82.8125 11.6875 C-84.03904297 11.74744141 -85.26558594 11.80738281 -86.52929688 11.86914062 C-87.70169922 11.91619141 -88.87410156 11.96324219 -90.08203125 12.01171875 C-91.14655518 12.05772217 -92.2110791 12.10372559 -93.30786133 12.15112305 C-96 12 -96 12 -99 10 C-98.01306152 9.9498877 -97.02612305 9.89977539 -96.00927734 9.84814453 C-92.27764264 9.65695651 -88.54649651 9.45731415 -84.81542969 9.25537109 C-83.21365952 9.16980234 -81.61177199 9.08639743 -80.00976562 9.00537109 C-70.91188727 8.54363667 -61.99741715 7.83877489 -52.98925781 6.44580078 C-40.7941431 4.62709125 -28.29948563 4.86145761 -16 5 C-16 4.34 -16 3.68 -16 3 C-14.92878906 2.95101563 -13.85757812 2.90203125 -12.75390625 2.8515625 C-11.35674361 2.77654706 -9.9596095 2.7009987 -8.5625 2.625 C-7.85544922 2.5940625 -7.14839844 2.563125 -6.41992188 2.53125 C-4.60760812 2.42719371 -2.80182012 2.22080108 -1 2 C-0.67 1.34 -0.34 0.68 0 0 Z " fill="#3A6181" transform="translate(1216,1299)"/>
<path d="M0 0 C0 0.66 0 1.32 0 2 C-23.88664401 4.06972105 -47.77656265 6.09426916 -71.67831421 7.98254395 C-73.92855989 8.16038342 -76.17874361 8.33900886 -78.42886353 8.51843262 C-81.58910233 8.77001084 -84.74957858 9.01834482 -87.91015625 9.265625 C-89.3134317 9.37783386 -89.3134317 9.37783386 -90.74505615 9.49230957 C-95.17663141 9.83497458 -99.55071307 10.08618918 -104 10 C-103.67 9.34 -103.34 8.68 -103 8 C-100.6015625 7.62109375 -100.6015625 7.62109375 -97.625 7.4375 C-94.46357425 7.23313343 -92.01866352 7.00622117 -89 6 C-84.36644508 5.50426054 -79.71228199 5.24017172 -75.0625 4.9375 C-74.39192566 4.89264465 -73.72135132 4.84778931 -73.03045654 4.80157471 C-61.67775696 4.05016079 -50.37668786 3.7590819 -39 4 C-39 3.34 -39 2.68 -39 2 C-25.98257939 0.78381162 -13.08304907 -0.37739565 0 0 Z " fill="#39698B" transform="translate(442,1362)"/>
<path d="M0 0 C-0.33 0.66 -0.66 1.32 -1 2 C-3.50431013 2.44193708 -5.91726987 2.73540707 -8.4453125 2.9609375 C-9.26991974 3.04080902 -10.09452698 3.12068054 -10.94412231 3.20297241 C-23.72893586 4.40188237 -36.53949125 5.33587225 -49.34472656 6.28710938 C-53.13342695 6.56869713 -56.92155032 6.85738213 -60.70957756 7.1478672 C-63.67621059 7.3743138 -66.64316909 7.59624876 -69.61023331 7.81696701 C-71.00631342 7.92147586 -72.40228259 8.02748018 -73.79812241 8.13515091 C-98.91864274 10.06604732 -98.91864274 10.06604732 -104 7 C-102.68386719 6.95101563 -101.36773438 6.90203125 -100.01171875 6.8515625 C-91.76457808 6.51231619 -83.72980967 6.17718573 -75.6328125 4.4765625 C-68.6350531 3.20990575 -61.45746042 2.95587227 -54.359375 3.0703125 C-45.30269476 3.10281255 -36.27244976 2.20643458 -27.25 1.5 C-24.47155411 1.28411867 -21.69303084 1.06950261 -18.91424561 0.85803223 C-17.1966313 0.72717768 -15.47920754 0.59378753 -13.76202393 0.45739746 C-9.15781968 0.1050367 -4.61771213 -0.0648425 0 0 Z " fill="#356184" transform="translate(868,1329)"/>
<path d="M0 0 C1.35444466 0.00212242 1.35444466 0.00212242 2.73625183 0.00428772 C5.60935838 0.00986802 8.48238591 0.02241691 11.35546875 0.03515625 C13.30794158 0.0401738 15.26041564 0.04473626 17.21289062 0.04882812 C21.9896136 0.059831 26.76627779 0.07708207 31.54296875 0.09765625 C31.54296875 0.42765625 31.54296875 0.75765625 31.54296875 1.09765625 C22.96298974 1.75357038 14.38274133 2.40579441 5.80213261 3.05341339 C1.81708736 3.35429788 -2.16785623 3.65641429 -6.15258789 3.96142578 C-10.00381828 4.2561715 -13.85528863 4.54757706 -17.7069416 4.83674622 C-19.17049598 4.94720001 -20.6339627 5.05882212 -22.09733391 5.17167664 C-32.14730239 5.94571087 -41.92625173 6.64004901 -51.95703125 5.22265625 C-53.16359375 5.06023437 -54.37015625 4.8978125 -55.61328125 4.73046875 C-56.55171875 4.52164062 -57.49015625 4.3128125 -58.45703125 4.09765625 C-58.78703125 3.43765625 -59.11703125 2.77765625 -59.45703125 2.09765625 C-55.00203125 1.60265625 -55.00203125 1.60265625 -50.45703125 1.09765625 C-50.12703125 2.08765625 -49.79703125 3.07765625 -49.45703125 4.09765625 C-48.13703125 4.09765625 -46.81703125 4.09765625 -45.45703125 4.09765625 C-45.12703125 3.10765625 -44.79703125 2.11765625 -44.45703125 1.09765625 C-44.12703125 1.75765625 -43.79703125 2.41765625 -43.45703125 3.09765625 C-42.31234375 2.88109375 -42.31234375 2.88109375 -41.14453125 2.66015625 C-33.13951306 1.43905178 -25.2786846 0.98559903 -17.18359375 1.16015625 C-14.54282923 1.19531943 -14.54282923 1.19531943 -12.37768555 0.59985352 C-8.24387 -0.11094299 -4.1864028 -0.02480684 0 0 Z " fill="#2E5679" transform="translate(2118.45703125,1230.90234375)"/>
<path d="M0 0 C1.15177734 0.00451172 2.30355469 0.00902344 3.49023438 0.01367188 C6.30604518 0.02535574 9.12174398 0.04173719 11.9375 0.0625 C11.9375 0.3925 11.9375 0.7225 11.9375 1.0625 C-62.93091681 8.42612274 -62.93091681 8.42612274 -76.0625 5.0625 C-76.0625 4.7325 -76.0625 4.4025 -76.0625 4.0625 C-74.46921875 3.97162109 -74.46921875 3.97162109 -72.84375 3.87890625 C-71.41665857 3.79440742 -69.98957569 3.70976425 -68.5625 3.625 C-67.86640625 3.58568359 -67.1703125 3.54636719 -66.453125 3.50585938 C-62.33682254 3.25811895 -58.28758723 2.83939568 -54.19677734 2.30102539 C-50.01947732 1.83417317 -45.82255397 1.68460764 -41.625 1.5 C-40.28985352 1.43522461 -40.28985352 1.43522461 -38.92773438 1.36914062 C-34.7671673 1.17767552 -30.62982899 1.04793318 -26.46484375 1.09765625 C-23.52991911 1.11828388 -20.72649455 0.9426708 -17.81640625 0.56640625 C-11.88729532 -0.16458003 -5.96491985 -0.0447455 0 0 Z " fill="#2A5A81" transform="translate(1308.0625,1294.9375)"/>
<path d="M0 0 C0.99 0 1.98 0 3 0 C2.67 0.99 2.34 1.98 2 3 C-1.3046875 3.27539062 -1.3046875 3.27539062 -4.609375 3.55078125 C-5.31126953 3.60930267 -6.01316406 3.6678241 -6.73632812 3.7281189 C-10.694283 4.05807433 -14.65228016 4.38750955 -18.61035156 4.71606445 C-26.28454339 5.35360357 -33.95841449 5.99410143 -41.63079834 6.65309143 C-44.88820472 6.9326991 -48.14581526 7.20988553 -51.40344238 7.48690796 C-52.95652474 7.61967093 -54.50950574 7.75362547 -56.06237793 7.88882446 C-58.24445981 8.07869002 -60.42686378 8.26436315 -62.609375 8.44921875 C-63.84655273 8.55580811 -65.08373047 8.66239746 -66.35839844 8.7722168 C-70.25713941 9.01608414 -74.0948475 9.0379952 -78 9 C-77.67 8.34 -77.34 7.68 -77 7 C-74.6015625 6.62109375 -74.6015625 6.62109375 -71.625 6.4375 C-68.46357425 6.23313343 -66.01866352 6.00622117 -63 5 C-59.90775724 4.69459331 -56.81488281 4.49167689 -53.71484375 4.28125 C-51.03617684 4.16503263 -51.03617684 4.16503263 -49 3 C-47.45206753 2.92771737 -45.90103529 2.91619734 -44.3515625 2.9375 C-42.96710938 2.94910156 -42.96710938 2.94910156 -41.5546875 2.9609375 C-39.60937361 2.98687502 -37.66406109 3.01291585 -35.71875 3.0390625 C-34.79320312 3.04679687 -33.86765625 3.05453125 -32.9140625 3.0625 C-32.0679541 3.07410156 -31.2218457 3.08570313 -30.35009766 3.09765625 C-28.06909201 3.00287106 -26.20362336 2.55773169 -24 2 C-22.20692492 1.86675991 -20.41035953 1.77689486 -18.61328125 1.71875 C-17.0828418 1.66267578 -17.0828418 1.66267578 -15.52148438 1.60546875 C-13.37045532 1.53477151 -11.21941345 1.46446317 -9.06835938 1.39453125 C-8.05193359 1.35714844 -7.03550781 1.31976562 -5.98828125 1.28125 C-4.58896362 1.23581055 -4.58896362 1.23581055 -3.16137695 1.18945312 C-1.02089541 1.23511607 -1.02089541 1.23511607 0 0 Z " fill="#325A7F" transform="translate(1730,1261)"/>
<path d="M0 0 C1.74965358 -0.05429959 3.49979787 -0.09292823 5.25 -0.125 C6.22453125 -0.14820313 7.1990625 -0.17140625 8.203125 -0.1953125 C11.0196498 0.00137219 12.60949036 0.55431084 15 2 C9.558974 3.76232346 4.46366343 4.46898794 -1.23046875 4.8515625 C-2.10214188 4.91532074 -2.973815 4.97907898 -3.87190247 5.04476929 C-5.70967825 5.17758839 -7.54771737 5.30680778 -9.38598633 5.43261719 C-12.16233475 5.62327188 -14.93756418 5.82630888 -17.71289062 6.03125 C-26.81791597 6.68688788 -35.86470345 7.23324161 -45 7 C-44.34 6.01 -43.68 5.02 -43 4 C-40.81689453 3.58349609 -40.81689453 3.58349609 -38.1328125 3.5234375 C-36.68068359 3.47703125 -36.68068359 3.47703125 -35.19921875 3.4296875 C-34.18472656 3.41164063 -33.17023437 3.39359375 -32.125 3.375 C-30.1275105 3.3238479 -28.13010458 3.26929132 -26.1328125 3.2109375 C-25.24480957 3.19337402 -24.35680664 3.17581055 -23.44189453 3.15771484 C-21.15312179 3.00988969 -19.20963585 2.5781834 -17 2 C-15.63323368 1.86070644 -14.2625433 1.75634699 -12.890625 1.68359375 C-12.13652344 1.64169922 -11.38242187 1.59980469 -10.60546875 1.55664062 C-9.82816406 1.51732422 -9.05085937 1.47800781 -8.25 1.4375 C-7.45722656 1.39431641 -6.66445313 1.35113281 -5.84765625 1.30664062 C-3.89862185 1.20097009 -1.94933252 1.10002034 0 1 C0 0.67 0 0.34 0 0 Z " fill="#37658A" transform="translate(621,1346)"/>
<path d="M0 0 C-10.52266043 5.81383449 -24.96629249 4.58440223 -36.6875 5.0625 C-39.4499383 5.17809224 -42.21222145 5.29582984 -44.97431946 5.41929626 C-46.68129574 5.49536469 -48.38848728 5.56677426 -50.09587097 5.6330719 C-53.85814909 5.45148665 -53.85814909 5.45148665 -57 7 C-60.00589636 7.2683836 -62.98785287 7.47099549 -66 7.625 C-67.23943359 7.70234375 -67.23943359 7.70234375 -68.50390625 7.78125 C-74.13649337 8.08094947 -79.40959435 7.7551556 -85 7 C-85 6.67 -85 6.34 -85 6 C-75.09890163 5.21401134 -65.19754142 4.43141529 -55.2958374 3.65309143 C-50.69758064 3.29153927 -46.09942044 2.92884041 -41.50146484 2.56347656 C-37.06020029 2.21060692 -32.61870343 1.86080745 -28.17703247 1.51309204 C-26.48657693 1.38022072 -24.79620642 1.24626278 -23.10592651 1.11117554 C-20.72969117 0.92145762 -18.3531767 0.73568435 -15.9765625 0.55078125 C-14.93969551 0.4666246 -14.93969551 0.4666246 -13.88188171 0.38076782 C-9.23723168 0.02488777 -4.65392463 -0.04575397 0 0 Z " fill="#D0E4EF" transform="translate(1240,1302)"/>
<path d="M0 0 C0.76837189 0.00141495 1.53674377 0.0028299 2.32839966 0.00428772 C4.76324489 0.00984942 7.19799544 0.02239465 9.6328125 0.03515625 C11.29166533 0.04017621 12.95051962 0.04473824 14.609375 0.04882812 C18.6588902 0.05980627 22.70833534 0.07704419 26.7578125 0.09765625 C26.7578125 0.42765625 26.7578125 0.75765625 26.7578125 1.09765625 C19.57245678 1.6739486 12.38653722 2.24278033 5.20019531 2.80664062 C2.75995793 2.99896825 0.31985022 3.19294905 -2.12011719 3.38867188 C-5.64484671 3.67111136 -9.17001322 3.94743053 -12.6953125 4.22265625 C-13.7708136 4.31015137 -14.8463147 4.39764648 -15.95440674 4.48779297 C-36.28530081 6.05307064 -36.28530081 6.05307064 -41.2421875 3.09765625 C-37.87695018 0.85416471 -36.83208898 0.86809995 -32.91015625 0.9375 C-31.34104492 0.95393555 -31.34104492 0.95393555 -29.74023438 0.97070312 C-28.10151367 1.00260742 -28.10151367 1.00260742 -26.4296875 1.03515625 C-24.27741434 1.06980823 -22.12506194 1.09989521 -19.97265625 1.125 C-19.01770264 1.14296631 -18.06274902 1.16093262 -17.07885742 1.17944336 C-14.22735324 1.16502009 -14.22735324 1.16502009 -11.39916992 0.60205078 C-7.58427208 -0.00745961 -3.85049156 -0.02705294 0 0 Z " fill="#477191" transform="translate(125.2421875,1385.90234375)"/>
<path d="M0 0 C1.09828125 0.00902344 2.1965625 0.01804687 3.328125 0.02734375 C4.12734375 0.03894531 4.9265625 0.05054688 5.75 0.0625 C5.42 0.7225 5.09 1.3825 4.75 2.0625 C2.20898438 2.45727539 2.20898438 2.45727539 -1.15625 2.66015625 C-2.37570312 2.73943359 -3.59515625 2.81871094 -4.8515625 2.90039062 C-6.78128906 3.01157227 -6.78128906 3.01157227 -8.75 3.125 C-11.26051727 3.28094075 -13.77093711 3.43845926 -16.28125 3.59765625 C-17.48128662 3.67250244 -18.68132324 3.74734863 -19.91772461 3.82446289 C-22.74134375 4.02616475 -25.53723963 4.29170875 -28.34765625 4.625 C-32.11544462 5.04741471 -35.63206792 5.06858166 -39.40234375 4.90234375 C-41.5010786 4.88464418 -41.5010786 4.88464418 -43.25 7.0625 C-46.26308951 7.23796482 -49.18310454 7.29377445 -52.1953125 7.2578125 C-53.0803244 7.2549826 -53.9653363 7.25215271 -54.87716675 7.24923706 C-57.70991412 7.2380224 -60.54234784 7.2129157 -63.375 7.1875 C-65.29296419 7.17747185 -67.21093333 7.16834572 -69.12890625 7.16015625 C-73.83605876 7.13807889 -78.54297616 7.10354045 -83.25 7.0625 C-83.25 6.7325 -83.25 6.4025 -83.25 6.0625 C-82.47485046 6.00208023 -81.69970093 5.94166046 -80.90106201 5.87940979 C-73.54670137 5.30610985 -66.19236496 4.73250035 -58.83805466 4.15855503 C-55.05839058 3.86359303 -51.27871769 3.56874498 -47.49902344 3.27416992 C-43.84205225 2.989155 -40.18510581 2.70382435 -36.52817535 2.41828728 C-35.14255882 2.31015025 -33.75693384 2.20212135 -32.37129974 2.09420967 C-24.82294571 1.50627583 -17.27652669 0.90509194 -9.73376465 0.24890137 C-6.47430088 0.0042854 -3.26842756 -0.03552639 0 0 Z " fill="#D6EDF4" transform="translate(619.25,1349.9375)"/>
<path d="M0 0 C4.97859553 0.44974707 9.24615909 0.60796591 14.125 -0.4375 C14.62 1.0475 14.62 1.0475 15.125 2.5625 C8.79383509 3.25110611 2.46085595 3.91846005 -3.875 4.5625 C-5.02613281 4.67980469 -6.17726563 4.79710937 -7.36328125 4.91796875 C-16.8598905 5.76785985 -26.35000218 5.65302268 -35.875 5.5625 C-35.875 4.5725 -35.875 3.5825 -35.875 2.5625 C-35.05515625 2.57410156 -34.2353125 2.58570313 -33.390625 2.59765625 C-31.77414062 2.61119141 -31.77414062 2.61119141 -30.125 2.625 C-29.05765625 2.63660156 -27.9903125 2.64820313 -26.890625 2.66015625 C-24.31193844 2.57664956 -22.33780614 2.21579173 -19.875 1.5625 C-15.9375 1.625 -15.9375 1.625 -13.97265625 1.72265625 C-11.77293739 1.67244076 -11.77293739 1.67244076 -9.55078125 0.53125 C-6.12190701 -0.71015264 -3.61230957 -0.38336327 0 0 Z " fill="#2D587E" transform="translate(1571.875,1272.4375)"/>
<path d="M0 0 C6.75 -0.125 6.75 -0.125 9 1 C9 1.66 9 2.32 9 3 C9.78117187 2.75443359 9.78117187 2.75443359 10.578125 2.50390625 C13.6756875 1.85941341 16.58841094 1.90588411 19.75 1.9375 C21.50570313 1.95103516 21.50570313 1.95103516 23.296875 1.96484375 C24.18890625 1.97644531 25.0809375 1.98804688 26 2 C26.495 3.485 26.495 3.485 27 5 C5.46808511 7.38297872 5.46808511 7.38297872 -5 7 C-5.33 6.01 -5.66 5.02 -6 4 C-6.99 4 -7.98 4 -9 4 C-9 3.34 -9 2.68 -9 2 C-6.03 2 -3.06 2 0 2 C0 1.34 0 0.68 0 0 Z " fill="#2A597F" transform="translate(1329,1288)"/>
<path d="M0 0 C0 0.33 0 0.66 0 1 C-5.779206 2.30235628 -11.04768039 3.11904639 -17 3 C-17.62261719 3.16371094 -18.24523438 3.32742188 -18.88671875 3.49609375 C-21.32764908 4.07812705 -23.4277314 4.05896666 -25.9375 4 C-31.94722125 3.95537336 -37.93398508 4.12689951 -43.9375 4.375 C-44.84943115 4.4059375 -45.7613623 4.436875 -46.70092773 4.46875 C-47.57177002 4.50742188 -48.4426123 4.54609375 -49.33984375 4.5859375 C-50.50567993 4.63306885 -50.50567993 4.63306885 -51.69506836 4.68115234 C-54.08047584 4.91043319 -54.08047584 4.91043319 -56.44628906 6.02734375 C-59.37645342 7.14338341 -61.40121427 7.15077015 -64.51953125 6.9765625 C-65.54111328 6.925 -66.56269531 6.8734375 -67.61523438 6.8203125 C-68.67033203 6.75585938 -69.72542969 6.69140625 -70.8125 6.625 C-71.88693359 6.56828125 -72.96136719 6.5115625 -74.06835938 6.453125 C-76.71295466 6.31207992 -79.35653894 6.16071024 -82 6 C-82 5.67 -82 5.34 -82 5 C-73.96698742 4.33949346 -65.93337379 3.68705297 -57.89892769 3.04424286 C-54.16618495 2.74535734 -50.43368667 2.4439401 -46.70166016 2.13623047 C-14.9886425 -0.47507583 -14.9886425 -0.47507583 0 0 Z " fill="#D9EBF2" transform="translate(2306,1220)"/>
<path d="M0 0 C0 0.33 0 0.66 0 1 C-38.24639765 5.61946605 -38.24639765 5.61946605 -48 4 C-48 4.66 -48 5.32 -48 6 C-61.32630426 7.21345209 -74.62935544 7.10315631 -88 7 C-88 6.67 -88 6.34 -88 6 C-78.4462361 5.21147259 -68.89202091 4.42872006 -59.33720112 3.65309143 C-54.89929117 3.29265926 -50.46155406 2.93032991 -46.02416992 2.56347656 C-41.73216671 2.20871574 -37.43976526 1.85918433 -33.14705467 1.51309204 C-31.51928049 1.38096642 -29.89165138 1.24703941 -28.26418495 1.11117554 C-18.81910531 0.32402759 -9.48868982 -0.1970146 0 0 Z " fill="#D6EAF4" transform="translate(1904,1251)"/>
<path d="M0 0 C0 0.33 0 0.66 0 1 C-1.134375 1.144375 -2.26875 1.28875 -3.4375 1.4375 C-6.80777201 1.61171478 -6.80777201 1.61171478 -8 3 C-9.49753284 3.13428501 -11.00096369 3.20365873 -12.50390625 3.24609375 C-13.46135742 3.27767578 -14.41880859 3.30925781 -15.40527344 3.34179688 C-16.96810059 3.38916992 -16.96810059 3.38916992 -18.5625 3.4375 C-27.47883553 3.75622996 -36.35869141 4.25706415 -45.25 5 C-46.26650635 5.08306396 -47.2830127 5.16612793 -48.33032227 5.25170898 C-52.33639907 5.59794678 -56.10416182 5.99438999 -60 7 C-65.41548779 7.30383925 -70.67984113 7.12003345 -76 6 C-76 5.67 -76 5.34 -76 5 C-68.01083647 4.34186785 -60.02122918 3.6895218 -52.03101826 3.04424286 C-48.31951906 2.7443309 -44.60819359 2.4425441 -40.8972168 2.13623047 C-37.30546606 1.83983154 -33.71332311 1.54867357 -30.12087059 1.26091003 C-28.10636002 1.09823799 -26.09227219 0.93035723 -24.07820129 0.7623291 C-16.03243287 0.12327856 -8.07036984 -0.13407079 0 0 Z " fill="#D5ECF4" transform="translate(408,1367)"/>
<path d="M0 0 C9.72657452 -0.11237377 19.30429046 0.07027443 29 1 C25.22671651 3.51552233 21.91366518 3.55130566 17.51953125 3.8515625 C16.67388107 3.91532074 15.8282309 3.97907898 14.95695496 4.04476929 C13.15919431 4.17828838 11.36110575 4.30745237 9.56274414 4.43261719 C6.86706634 4.62118302 4.17289122 4.82500099 1.47851562 5.03125 C-9.03700685 5.80942269 -19.45511134 6.18413334 -30 6 C-30.33 5.34 -30.66 4.68 -31 4 C-20.31563078 2.92580848 -9.72655709 2.89805806 1 3 C0.67 2.01 0.34 1.02 0 0 Z " fill="#37678B" transform="translate(526,1353)"/>
<path d="M0 0 C0.495 0.99 0.495 0.99 1 2 C-6.40120454 2.57393707 -13.80276584 3.14309275 -21.20458984 3.70898438 C-23.72062432 3.90190301 -26.23657627 4.09590104 -28.75244141 4.29101562 C-32.3764139 4.57187708 -36.00066901 4.84880798 -39.625 5.125 C-40.74302002 5.21249512 -41.86104004 5.29999023 -43.01293945 5.39013672 C-48.69530699 5.819239 -54.30152719 6.09658428 -60 6 C-60 5.67 -60 5.34 -60 5 C-58.35 5 -56.7 5 -55 5 C-55 4.34 -55 3.68 -55 3 C-36.7240241 1.21221765 -18.37624054 -0.15485596 0 0 Z " fill="#3F6B8C" transform="translate(279,1375)"/>
<path d="M0 0 C0 0.66 0 1.32 0 2 C-1.65 2 -3.3 2 -5 2 C-5 2.66 -5 3.32 -5 4 C-6.28970703 3.96519531 -6.28970703 3.96519531 -7.60546875 3.9296875 C-13.49537135 3.83976532 -19.08002495 3.88949196 -24.875 5 C-35.11197536 6.81479463 -45.64331263 6.16461295 -56 6 C-56 5.34 -56 4.68 -56 4 C-54.83017578 3.91435791 -53.66035156 3.82871582 -52.45507812 3.74047852 C-48.08643546 3.42010798 -43.71799537 3.09704343 -39.34960938 2.77319336 C-37.46424635 2.63379409 -35.57883022 2.49511101 -33.69335938 2.35717773 C-30.97251098 2.15800358 -28.25186833 1.95619589 -25.53125 1.75390625 C-24.28075867 1.66321617 -24.28075867 1.66321617 -23.00500488 1.57069397 C-1.6571198 -0.02959143 -1.6571198 -0.02959143 0 0 Z " fill="#E3F4F9" transform="translate(1304,1297)"/>
<path d="M0 0 C0.72703125 0.00451172 1.4540625 0.00902344 2.203125 0.01367188 C3.96878681 0.02528807 5.7344053 0.04321559 7.5 0.0625 C7.5 0.3925 7.5 0.7225 7.5 1.0625 C6.8387915 1.11784912 6.17758301 1.17319824 5.49633789 1.23022461 C2.5179762 1.48215715 -0.45974625 1.74098502 -3.4375 2 C-4.47841797 2.08701172 -5.51933594 2.17402344 -6.59179688 2.26367188 C-7.58115234 2.35068359 -8.57050781 2.43769531 -9.58984375 2.52734375 C-10.50628662 2.605896 -11.42272949 2.68444824 -12.36694336 2.76538086 C-14.47963826 2.84120751 -14.47963826 2.84120751 -15.5 4.0625 C-17.29339579 4.2083779 -19.0921143 4.28982336 -20.890625 4.34375 C-21.99277344 4.38113281 -23.09492188 4.41851563 -24.23046875 4.45703125 C-25.39191406 4.49183594 -26.55335938 4.52664063 -27.75 4.5625 C-30.02615983 4.63162971 -32.30221225 4.70441476 -34.578125 4.78125 C-36.10034668 4.82668945 -36.10034668 4.82668945 -37.65332031 4.87304688 C-40.35303528 5.05271916 -42.86434037 5.46551886 -45.5 6.0625 C-45.5 6.3925 -45.5 6.7225 -45.5 7.0625 C-52.76 6.7325 -60.02 6.4025 -67.5 6.0625 C-67.5 5.7325 -67.5 5.4025 -67.5 5.0625 C-54.23580745 3.45575503 -40.95596225 2.52062346 -27.62109375 1.76025391 C-19.829127 1.34155918 -19.829127 1.34155918 -12.07421875 0.5078125 C-8.0158253 0.0021766 -4.08237206 -0.04913966 0 0 Z " fill="#DCF0F6" transform="translate(208.5,1381.9375)"/>
<path d="M0 0 C-1.1171875 1.4921875 -1.1171875 1.4921875 -3 3 C-5.8828125 3.2578125 -5.8828125 3.2578125 -9.125 3.125 C-11.08251052 3.05458595 -13.04123218 3.00584707 -15 3 C-15.33 3.33 -15.66 3.66 -16 4 C-18.35964788 4.21865463 -20.69729142 4.37926435 -23.0625 4.5 C-24.53256911 4.58172554 -26.00262078 4.66376534 -27.47265625 4.74609375 C-28.22691895 4.78718262 -28.98118164 4.82827148 -29.75830078 4.87060547 C-31.85998715 4.99191823 -33.95891351 5.13337834 -36.05859375 5.28515625 C-45.39477347 5.9421124 -54.64509372 6.11196031 -64 6 C-60.91008442 4.23035167 -58.43781416 3.67039164 -54.89941406 3.40576172 C-53.88445862 3.32582977 -52.86950317 3.24589783 -51.8237915 3.1635437 C-50.73209656 3.08637115 -49.64040161 3.00919861 -48.515625 2.9296875 C-47.38606384 2.84373322 -46.25650269 2.75777893 -45.0927124 2.66921997 C-42.70240183 2.48891682 -40.31178325 2.31265824 -37.92089844 2.14013672 C-34.2772811 1.87697042 -30.63473806 1.60172294 -26.9921875 1.32421875 C-24.66671988 1.15032861 -22.34120048 0.97712914 -20.015625 0.8046875 C-18.93202698 0.72346649 -17.84842896 0.64224548 -16.73199463 0.55856323 C-11.13691103 0.15766102 -5.60932316 -0.08682902 0 0 Z " fill="#DBEFF5" transform="translate(1072,1315)"/>
<path d="M0 0 C-4.72749311 0.43531528 -9.45565709 0.86213049 -14.18457031 1.28173828 C-15.78665878 1.4250223 -17.38855635 1.5704603 -18.99023438 1.71826172 C-29.03239311 2.64319739 -38.90593451 3.22027866 -49 3 C-48.67 2.34 -48.34 1.68 -48 1 C-45.60212909 0.53323887 -43.29751548 0.19698517 -40.875 -0.0625 C-40.15723389 -0.14483887 -39.43946777 -0.22717773 -38.69995117 -0.31201172 C-7.08184103 -3.81242729 -7.08184103 -3.81242729 0 0 Z " fill="#2E577D" transform="translate(1408,1289)"/>
<path d="M0 0 C0 0.66 0 1.32 0 2 C-5.79669819 2.89179972 -11.304912 3.03194915 -17.16796875 2.83984375 C-19.98794785 2.8392407 -19.98794785 2.8392407 -22.34082031 3.9934082 C-25.21195663 5.08023294 -27.32135583 5.25806149 -30.37890625 5.265625 C-31.38244141 5.26820312 -32.38597656 5.27078125 -33.41992188 5.2734375 C-34.45697266 5.26570313 -35.49402344 5.25796875 -36.5625 5.25 C-38.12387695 5.26160156 -38.12387695 5.26160156 -39.71679688 5.2734375 C-40.71904297 5.27085938 -41.72128906 5.26828125 -42.75390625 5.265625 C-43.66470947 5.26336914 -44.5755127 5.26111328 -45.51391602 5.25878906 C-48.11626036 4.98789787 -49.7605954 4.31702756 -52 3 C-46.68435298 2.56610103 -41.36820525 2.13916846 -36.05151367 1.71826172 C-34.2486315 1.57459681 -32.44589132 1.42913673 -30.64331055 1.28173828 C-20.40478796 0.44582447 -10.28030049 -0.25456207 0 0 Z " fill="#DEF0F6" transform="translate(872,1331)"/>
<path d="M0 0 C1.32 0.33 2.64 0.66 4 1 C3.67 1.66 3.34 2.32 3 3 C3.99 2.7215625 3.99 2.7215625 5 2.4375 C8.89330114 1.86972692 12.11375479 2.40718293 16 3 C16 2.34 16 1.68 16 1 C17.55460937 1.01740234 17.55460937 1.01740234 19.140625 1.03515625 C20.51041486 1.04453837 21.88020668 1.05363812 23.25 1.0625 C24.27287109 1.07506836 24.27287109 1.07506836 25.31640625 1.08789062 C28.71181977 1.10437321 31.74466293 0.98435192 35 0 C35.66 0 36.32 0 37 0 C37 0.66 37 1.32 37 2 C19.3171712 4.63298039 1.85646442 5.65410744 -16 6 C-16 5.34 -16 4.68 -16 4 C-10.22982774 2.18974988 -5.84233741 1.26893706 0 3 C0 2.01 0 1.02 0 0 Z " fill="#205181" transform="translate(1952,1240)"/>
<path d="M0 0 C3.3 0 6.6 0 10 0 C10 0.99 10 1.98 10 3 C10.66 2.67 11.32 2.34 12 2 C14.6723621 1.86584528 17.32250488 1.95681459 20 2 C20 2.99 20 3.98 20 5 C10.64087671 5.99263429 1.39605802 6.10731538 -8 6 C-7.67 5.01 -7.34 4.02 -7 3 C-5.02 3 -3.04 3 -1 3 C-0.67 2.01 -0.34 1.02 0 0 Z " fill="#22507B" transform="translate(2464,1201)"/>
<path d="M0 0 C1.38606606 0.00503316 2.77213393 0.0095928 4.15820312 0.01367188 C7.50134975 0.02532047 10.84440011 0.04167571 14.1875 0.0625 C14.1875 0.3925 14.1875 0.7225 14.1875 1.0625 C9.78167138 1.4996723 5.37497079 1.92630894 0.96728516 2.34423828 C-0.52418843 2.48702875 -2.0154148 2.63243165 -3.50634766 2.78076172 C-13.97716546 3.82006639 -24.29088075 4.25483833 -34.8125 4.0625 C-34.4825 3.4025 -34.1525 2.7425 -33.8125 2.0625 C-23.02158249 -0.83385176 -11.06607593 -0.07108254 0 0 Z " fill="#36678A" transform="translate(478.8125,1358.9375)"/>
<path d="M0 0 C1.11375 0.2475 1.11375 0.2475 2.25 0.5 C5.184996 1.03363564 7.83837656 1.33189241 10.75 0.5 C14.17480487 -0.26106775 17.49627957 -0.05839534 21 0 C21 0.66 21 1.32 21 2 C22.32 2.33 23.64 2.66 25 3 C17.63959083 3.79725902 10.40239645 4.12886183 3 4 C3 4.66 3 5.32 3 6 C-0.3 6 -3.6 6 -7 6 C-6.67 4.68 -6.34 3.36 -6 2 C-4.02 1.67 -2.04 1.34 0 1 C0 0.67 0 0.34 0 0 Z " fill="#1D4F81" transform="translate(2359,1209)"/>
<path d="M0 0 C0 0.33 0 0.66 0 1 C-5.92181884 1.57635511 -11.84425296 2.14574808 -17.76733398 2.70898438 C-19.77792975 2.90112982 -21.78835171 3.09510385 -23.79858398 3.29101562 C-26.70511665 3.57394605 -29.61223217 3.85007014 -32.51953125 4.125 C-33.84522881 4.25624268 -33.84522881 4.25624268 -35.19770813 4.39013672 C-41.47944495 4.97504882 -47.69297476 5.09520822 -54 5 C-53.67 4.01 -53.34 3.02 -53 2 C-47.54164058 1.71083577 -42.08306897 1.42620525 -36.62426758 1.14550781 C-34.77296805 1.04970383 -32.92172867 0.95272908 -31.07055664 0.85449219 C-20.70389264 0.30519072 -10.38454663 -0.17285571 0 0 Z " fill="#406F91" transform="translate(80,1391)"/>
<path d="M0 0 C1.18335938 -0.01224609 2.36671875 -0.02449219 3.5859375 -0.03710938 C4.71773437 -0.03904297 5.84953125 -0.04097656 7.015625 -0.04296875 C8.55911621 -0.04913208 8.55911621 -0.04913208 10.13378906 -0.05541992 C12.75 0.1875 12.75 0.1875 15.75 2.1875 C2.73257939 3.40368838 -10.16695093 4.56489565 -23.25 4.1875 C-21.4736886 1.78425517 -20.33055626 1.20653857 -17.390625 0.51171875 C-11.61997706 -0.09052816 -5.79473791 0.00319798 0 0 Z " fill="#2B567C" transform="translate(1795.25,1255.8125)"/>
<path d="M0 0 C2.64 0 5.28 0 8 0 C8 0.66 8 1.32 8 2 C9.093125 1.835 10.18625 1.67 11.3125 1.5 C15.81544326 0.91897506 20.24429914 0.96273561 24.77734375 1.0625 C26.97356304 1.25542088 26.97356304 1.25542088 28 0 C29.68608966 -0.07205511 31.37500659 -0.08386068 33.0625 -0.0625 C33.98160156 -0.05347656 34.90070313 -0.04445313 35.84765625 -0.03515625 C36.55792969 -0.02355469 37.26820312 -0.01195312 38 0 C38.495 0.99 38.495 0.99 39 2 C24.96447945 3.34386446 11.10275987 4.32051727 -3 4 C-2.01 3.67 -1.02 3.34 0 3 C0 2.01 0 1.02 0 0 Z " fill="#225C8B" transform="translate(1121,1305)"/>
<path d="M0 0 C0 0.66 0 1.32 0 2 C-1.02154175 2.029729 -1.02154175 2.029729 -2.0637207 2.06005859 C-5.14703917 2.15526983 -8.22967649 2.26496466 -11.3125 2.375 C-12.9202832 2.42140625 -12.9202832 2.42140625 -14.56054688 2.46875 C-15.58857422 2.50742188 -16.61660156 2.54609375 -17.67578125 2.5859375 C-19.0975769 2.63306885 -19.0975769 2.63306885 -20.5480957 2.68115234 C-23.2530269 2.8489051 -23.2530269 2.8489051 -26 5 C-29.5663379 5.13866684 -33.08604909 4.9950015 -36.65234375 4.875 C-39.91919354 4.99698272 -41.23388689 5.47057245 -44 7 C-45.32 7 -46.64 7 -48 7 C-48 5.68 -48 4.36 -48 3 C-43.25414284 2.56530029 -38.50766363 2.13843232 -33.76049805 1.71826172 C-32.15158921 1.57481258 -30.54285712 1.42936447 -28.93432617 1.28173828 C-19.25473234 0.39491977 -9.7290805 -0.23321289 0 0 Z " fill="#DDEFF5" transform="translate(1464,1285)"/>
<path d="M0 0 C1.35444466 0.00212242 1.35444466 0.00212242 2.73625183 0.00428772 C5.60935838 0.00986802 8.48238591 0.02241691 11.35546875 0.03515625 C13.30794158 0.0401738 15.26041564 0.04473626 17.21289062 0.04882812 C21.9896136 0.059831 26.76627779 0.07708207 31.54296875 0.09765625 C31.54296875 0.42765625 31.54296875 0.75765625 31.54296875 1.09765625 C26.27799499 1.52901087 21.01269899 1.9561094 15.74707031 2.37939453 C13.95856578 2.52375378 12.17015207 2.66924323 10.38183594 2.81591797 C7.8003653 3.02744315 5.21858731 3.23480177 2.63671875 3.44140625 C1.84680542 3.50702759 1.05689209 3.57264893 0.24304199 3.64025879 C-4.67411096 4.02876364 -9.52437837 4.15661226 -14.45703125 4.09765625 C-14.45703125 3.10765625 -14.45703125 2.11765625 -14.45703125 1.09765625 C-9.64304344 -0.14786074 -4.93356238 -0.02923419 0 0 Z " fill="#345D82" transform="translate(2118.45703125,1230.90234375)"/>
<path d="M0 0 C0 0.66 0 1.32 0 2 C-0.87736816 2.05534912 -1.75473633 2.11069824 -2.65869141 2.16772461 C-5.93522396 2.37589252 -9.21155581 2.58681297 -12.48779297 2.79956055 C-13.90178538 2.89082234 -15.31584766 2.9810085 -16.72998047 3.07006836 C-18.77070431 3.19878209 -20.81113982 3.33145061 -22.8515625 3.46484375 C-24.07697754 3.543396 -25.30239258 3.62194824 -26.56494141 3.70288086 C-29.75547513 3.97884955 -32.84626135 4.45706214 -36 5 C-38.58544317 5.02649795 -41.14723573 4.93904625 -43.73046875 4.83984375 C-46.28392449 4.83196087 -46.28392449 4.83196087 -49 7 C-51.6875 7.125 -51.6875 7.125 -54 7 C-54 6.34 -54 5.68 -54 5 C-55.98 5 -57.96 5 -60 5 C-60 4.67 -60 4.34 -60 4 C-52.74122361 3.42597941 -45.48207651 2.8568347 -38.22265625 2.29101562 C-35.75512108 2.09811807 -33.28767164 1.90412053 -30.8203125 1.70898438 C-27.26584702 1.42806694 -23.71108808 1.15115745 -20.15625 0.875 C-19.06010376 0.78750488 -17.96395752 0.70000977 -16.83459473 0.60986328 C-11.20233793 0.17636115 -5.64883461 -0.09533898 0 0 Z " fill="#DAECF4" transform="translate(2480,1206)"/>
<path d="M0 0 C2.25 0.875 2.25 0.875 4 2 C2 5 2 5 -1.5703125 5.73046875 C-3.0867839 5.8994152 -4.60529497 6.05066049 -6.125 6.1875 C-7.31778564 6.30810791 -7.31778564 6.30810791 -8.53466797 6.43115234 C-16.360695 7.1581095 -24.14919763 7.19252649 -32 7 C-32 6.67 -32 6.34 -32 6 C-30.38931641 5.81824219 -30.38931641 5.81824219 -28.74609375 5.6328125 C-27.30986025 5.46384385 -25.87366428 5.29455596 -24.4375 5.125 C-23.73302734 5.04636719 -23.02855469 4.96773437 -22.30273438 4.88671875 C-18.81626329 4.46898489 -15.51079562 3.93054477 -12.140625 2.9296875 C-9.18295738 2.05415903 -7.03745287 2 -4 2 C-3.319375 1.62875 -2.63875 1.2575 -1.9375 0.875 C-1.298125 0.58625 -0.65875 0.2975 0 0 Z " fill="#2F587F" transform="translate(1768,1256)"/>
<path d="M0 0 C0 0.66 0 1.32 0 2 C1.32 2.33 2.64 2.66 4 3 C-0.4370135 3.34002182 -4.87467316 3.67077776 -9.3125 4 C-11.17745117 4.14308594 -11.17745117 4.14308594 -13.08007812 4.2890625 C-20.40368414 4.82728026 -27.65676838 5.13660061 -35 5 C-31.85478393 2.90318928 -29.74166815 2.59603418 -26.03515625 2.24609375 C-24.02754245 2.05586556 -24.02754245 2.05586556 -22.24609375 1.5078125 C-18.86673307 0.74378313 -15.4492579 0.628084 -12 0.4375 C-11.2884375 0.39431641 -10.576875 0.35113281 -9.84375 0.30664062 C-6.55377209 0.11329304 -3.29699107 0 0 0 Z " fill="#437194" transform="translate(328,1370)"/>
<path d="M0 0 C0.495 0.99 0.495 0.99 1 2 C-4.62086387 3.59081053 -9.94791184 4.36100094 -15.77734375 4.75390625 C-17.97072742 4.76239534 -17.97072742 4.76239534 -19 6 C-21.53049402 6.07313567 -24.03304837 6.09247527 -26.5625 6.0625 C-27.27341797 6.05798828 -27.98433594 6.05347656 -28.71679688 6.04882812 C-30.47790013 6.03700864 -32.23896036 6.01907263 -34 6 C-34 5.67 -34 5.34 -34 5 C-32.9275 4.87625 -31.855 4.7525 -30.75 4.625 C-27.19229297 4.24412004 -27.19229297 4.24412004 -25.0625 2.9375 C-21.79043225 1.45019648 -18.56911665 1.94148989 -15 2 C-14.67 1.67 -14.34 1.34 -14 1 C-9.27917277 0.27987381 -4.78426665 -0.11960667 0 0 Z " fill="#255481" transform="translate(1671,1264)"/>
<path d="M0 0 C-1.32 0.33 -2.64 0.66 -4 1 C-4 1.66 -4 2.32 -4 3 C-16.3491755 3.97815251 -28.61702895 4.11739981 -41 4 C-41 3.67 -41 3.34 -41 3 C-36.44721106 2.56800589 -31.89399491 2.14094438 -27.34033203 1.71826172 C-25.79430953 1.57407811 -24.24840762 1.42859473 -22.70263672 1.28173828 C-20.46873657 1.0697413 -18.23443092 0.86256853 -16 0.65625 C-15.31945557 0.59062866 -14.63891113 0.52500732 -13.93774414 0.45739746 C-9.26694043 0.03239024 -4.6838198 -0.05488851 0 0 Z " fill="#D7EAF2" transform="translate(1652,1270)"/>
<path d="M0 0 C0 0.33 0 0.66 0 1 C-4.41034579 1.43214646 -8.82114778 1.85919878 -13.23242188 2.28173828 C-14.72994981 2.42588018 -16.22734945 2.57136199 -17.72460938 2.71826172 C-19.88899093 2.93037111 -22.05380321 3.13749923 -24.21875 3.34375 C-25.51748047 3.46943359 -26.81621094 3.59511719 -28.15429688 3.72460938 C-32.12999702 4.00930908 -36.01639567 4.04650122 -40 4 C-40 3.34 -40 2.68 -40 2 C-26.69561212 -0.42291291 -13.48086352 -0.20801332 0 0 Z " fill="#375D82" transform="translate(1320,1295)"/>
<path d="M0 0 C-7.77323413 4.3104477 -17.42882007 4.21841662 -26.125 4.75 C-26.96683838 4.80679932 -27.80867676 4.86359863 -28.67602539 4.92211914 C-30.78132078 5.0318169 -32.89199858 5.02514515 -35 5 C-35.66 4.34 -36.32 3.68 -37 3 C-9.02198492 -0.17022613 -9.02198492 -0.17022613 0 0 Z " fill="#DBEFF5" transform="translate(1240,1302)"/>
<path d="M0 0 C0.33 0.66 0.66 1.32 1 2 C-3.90913022 3.3920459 -8.86605515 3.40121139 -13.9375 3.625 C-15.4215332 3.70234375 -15.4215332 3.70234375 -16.93554688 3.78125 C-17.89396484 3.82507812 -18.85238281 3.86890625 -19.83984375 3.9140625 C-20.70988037 3.9548291 -21.57991699 3.9955957 -22.47631836 4.03759766 C-25.10086954 3.99849725 -27.44779555 3.59233807 -30 3 C-27.19452563 0.19452563 -24.39465599 0.54148734 -20.625 0.375 C-19.9134375 0.33705322 -19.201875 0.29910645 -18.46875 0.26000977 C-12.31247295 -0.04408053 -6.16288776 -0.10504922 0 0 Z " fill="#345D82" transform="translate(2027,1239)"/>
<path d="M0 0 C3.3 0.33 6.6 0.66 10 1 C9.67 1.99 9.34 2.98 9 4 C3.28094617 4.82536345 -2.2267149 5.12753701 -8 5.0625 C-9.16208984 5.05573242 -9.16208984 5.05573242 -10.34765625 5.04882812 C-12.23180524 5.03719758 -14.11591365 5.01926906 -16 5 C-13.54667367 2.54667367 -12.51201372 2.64636312 -9.125 2.375 C-7.82949219 2.26285156 -7.82949219 2.26285156 -6.5078125 2.1484375 C-4.34176846 2.02022929 -2.16983505 2 0 2 C0 1.34 0 0.68 0 0 Z " fill="#305A82" transform="translate(2047,1235)"/>
<path d="M0 0 C0 0.66 0 1.32 0 2 C-13.32630426 3.21345209 -26.62935544 3.10315631 -40 3 C-40 2.67 -40 2.34 -40 2 C-26.64005361 0.74164834 -13.42668441 -0.35541223 0 0 Z " fill="#E0F4FA" transform="translate(1856,1255)"/>
<path d="M0 0 C2.625 0.3125 2.625 0.3125 6 1 C9.00203977 1.09810587 11.99729772 1.06005405 15 1 C15 1.33 15 1.66 15 2 C12.36 2.33 9.72 2.66 7 3 C7 3.66 7 4.32 7 5 C-0.92 5 -8.84 5 -17 5 C-17 4.34 -17 3.68 -17 3 C-16.02417969 3.03480469 -15.04835938 3.06960938 -14.04296875 3.10546875 C-12.13451172 3.14607422 -12.13451172 3.14607422 -10.1875 3.1875 C-8.29064453 3.23970703 -8.29064453 3.23970703 -6.35546875 3.29296875 C-3.03559359 3.33139492 -3.03559359 3.33139492 -1.21484375 1.46875 C-0.61349609 0.74171875 -0.61349609 0.74171875 0 0 Z " fill="#265883" transform="translate(1041,1312)"/>
<path d="M0 0 C0 0.33 0 0.66 0 1 C-8.53040904 2.3312608 -17.0029877 3.23266908 -25.625 3.6875 C-26.47739258 3.73575928 -27.32978516 3.78401855 -28.20800781 3.83374023 C-32.31262849 4.02673085 -35.99079742 4.08821213 -40 3 C-40 2.67 -40 2.34 -40 2 C-26.64005361 0.74164834 -13.42668441 -0.35541223 0 0 Z " fill="#DEF1F8" transform="translate(2048,1240)"/>
<path d="M0 0 C-0.33 0.99 -0.66 1.98 -1 3 C-2.06927734 2.98259766 -2.06927734 2.98259766 -3.16015625 2.96484375 C-9.6661718 2.89094476 -9.6661718 2.89094476 -16.125 3.5625 C-17.548125 3.7790625 -17.548125 3.7790625 -19 4 C-19.33 3.67 -19.66 3.34 -20 3 C-21.34747084 2.76924918 -22.70377565 2.58846937 -24.0625 2.4375 C-25.361875 2.293125 -26.66125 2.14875 -28 2 C-28 1.67 -28 1.34 -28 1 C-18.64072209 0.27507668 -9.39355936 -0.14256667 0 0 Z " fill="#DEF0F6" transform="translate(976,1323)"/>
<path d="M0 0 C1.86323318 0.25288812 3.71708432 0.57690153 5.5625 0.9375 C6.57441406 1.13214844 7.58632812 1.32679687 8.62890625 1.52734375 C9.80259766 1.76130859 9.80259766 1.76130859 11 2 C11 2.33 11 2.66 11 3 C7.66729126 3.33977725 4.33375214 3.67063063 1 4 C-0.40185547 4.14308594 -0.40185547 4.14308594 -1.83203125 4.2890625 C-7.25318323 4.81980465 -12.55322171 5.1027694 -18 5 C-18 4.34 -18 3.68 -18 3 C-16.78441406 2.86722656 -15.56882812 2.73445313 -14.31640625 2.59765625 C-12.73174516 2.41949909 -11.1471111 2.24110125 -9.5625 2.0625 C-8.35883789 1.93198242 -8.35883789 1.93198242 -7.13085938 1.79882812 C-3.24423336 1.69451606 -3.24423336 1.69451606 0 0 Z " fill="#2F577C" transform="translate(1901,1247)"/>
<path d="M0 0 C6.71052988 0.11944309 13.35855073 0.58767037 20.0390625 1.23046875 C20.0390625 1.56046875 20.0390625 1.89046875 20.0390625 2.23046875 C17.3990625 2.23046875 14.7590625 2.23046875 12.0390625 2.23046875 C12.0390625 2.89046875 12.0390625 3.55046875 12.0390625 4.23046875 C10.12271033 4.28470513 8.20591325 4.32336838 6.2890625 4.35546875 C4.68804687 4.39027344 4.68804687 4.39027344 3.0546875 4.42578125 C0.11436144 4.23534562 -1.48455628 3.75716979 -3.9609375 2.23046875 C-1.9609375 0.23046875 -1.9609375 0.23046875 0 0 Z " fill="#38688F" transform="translate(87.9609375,1386.76953125)"/>
<path d="M0 0 C0 0.33 0 0.66 0 1 C-3.83285925 1.33893581 -7.66635091 1.67012787 -11.5 2 C-12.57765625 2.09539062 -13.6553125 2.19078125 -14.765625 2.2890625 C-26.62467264 3.30142023 -26.62467264 3.30142023 -32 3 C-32.66 2.34 -33.32 1.68 -34 1 C-28.52446312 0.13273376 -23.09658045 -0.32609812 -17.5625 -0.625 C-16.75490234 -0.6765625 -15.94730469 -0.728125 -15.11523438 -0.78125 C-9.92433565 -1.06568281 -5.13971361 -0.79072517 0 0 Z " fill="#46728F" transform="translate(216,1381)"/>
<path d="M0 0 C-4.29712499 4.29712499 -10.65527796 3.38609269 -16.375 3.625 C-17.4165625 3.6765625 -18.458125 3.728125 -19.53125 3.78125 C-20.53929687 3.82507812 -21.54734375 3.86890625 -22.5859375 3.9140625 C-23.96338135 3.9752124 -23.96338135 3.9752124 -25.36865234 4.03759766 C-28.03589953 3.99948705 -30.40753611 3.60609897 -33 3 C-33 2.67 -33 2.34 -33 2 C-29.00043584 1.66129817 -25.00028974 1.33001275 -21 1 C-19.87464844 0.90460938 -18.74929688 0.80921875 -17.58984375 0.7109375 C-11.70349155 0.22901393 -5.9059119 -0.11580219 0 0 Z " fill="#D4E7F0" transform="translate(724,1342)"/>
<path d="M0 0 C0 0.99 0 1.98 0 3 C-13.2 3 -26.4 3 -40 3 C-40 2.67 -40 2.34 -40 2 C-36.07172765 1.71007353 -32.14310426 1.42550392 -28.21411133 1.14550781 C-26.23434117 1.00336313 -24.25486091 0.85719891 -22.27539062 0.7109375 C-14.83425254 0.18346442 -7.45984395 -0.1400727 0 0 Z " fill="#D3EAF3" transform="translate(768,1339)"/>
<path d="M0 0 C-8.13397791 6.9241185 -22.02303054 3.76026145 -32 3 C-32 2.67 -32 2.34 -32 2 C-27.79196298 1.66285491 -23.58352782 1.33095755 -19.375 1 C-18.18519531 0.90460938 -16.99539063 0.80921875 -15.76953125 0.7109375 C-14.61582031 0.62070313 -13.46210937 0.53046875 -12.2734375 0.4375 C-10.68668213 0.31181641 -10.68668213 0.31181641 -9.06787109 0.18359375 C-6.03692697 0.00220986 -3.03554529 -0.03182747 0 0 Z " fill="#D4E8F0" transform="translate(1587,1275)"/>
<path d="M0 0 C0 0.33 0 0.66 0 1 C-1.74816858 1.50636607 -3.49862263 2.00484619 -5.25 2.5 C-6.22453125 2.7784375 -7.1990625 3.056875 -8.203125 3.34375 C-11 4 -11 4 -15 4 C-15 3.34 -15 2.68 -15 2 C-15.99 2.33 -16.98 2.66 -18 3 C-19.48123547 3.0806622 -20.96582204 3.10761193 -22.44921875 3.09765625 C-23.29677734 3.09443359 -24.14433594 3.09121094 -25.01757812 3.08789062 C-25.89865234 3.07951172 -26.77972656 3.07113281 -27.6875 3.0625 C-28.58017578 3.05798828 -29.47285156 3.05347656 -30.39257812 3.04882812 C-32.59511987 3.03704983 -34.79752599 3.02060164 -37 3 C-37 2.67 -37 2.34 -37 2 C-32.70880631 1.66038964 -28.41698339 1.3294676 -24.125 1 C-22.92101562 0.90460938 -21.71703125 0.80921875 -20.4765625 0.7109375 C-13.63428483 0.19032942 -6.86221524 -0.14267384 0 0 Z " fill="#DDF0F7" transform="translate(277,1377)"/>
<path d="M0 0 C0.33 0.99 0.66 1.98 1 3 C2.49985609 4.66710346 2.49985609 4.66710346 4 6 C3 7 3 7 0.49609375 7.09765625 C-1.01791016 7.08025391 -1.01791016 7.08025391 -2.5625 7.0625 C-3.57441406 7.05347656 -4.58632812 7.04445313 -5.62890625 7.03515625 C-6.41136719 7.02355469 -7.19382812 7.01195312 -8 7 C-7.01 6.67 -6.02 6.34 -5 6 C-5 5.34 -5 4.68 -5 4 C-5.99 3.67 -6.98 3.34 -8 3 C-5.53387212 -0.1151089 -3.89156016 -0.31553191 0 0 Z " fill="#204F79" transform="translate(2152,1224)"/>
<path d="M0 0 C-0.99 1.485 -0.99 1.485 -2 3 C-4.90625 3.2578125 -4.90625 3.2578125 -8.5 3.125 C-12.90548872 3.02118213 -17.12567436 3.02237747 -21.5 3.5625 C-25.19978325 4.00207821 -28.33904124 3.86706918 -32 3 C-32 2.67 -32 2.34 -32 2 C-28.16714075 1.66106419 -24.33364909 1.32987213 -20.5 1 C-18.88351562 0.85691406 -18.88351562 0.85691406 -17.234375 0.7109375 C-11.46437756 0.21837674 -5.79076447 -0.11244203 0 0 Z " fill="#D5E9F2" transform="translate(1808,1258)"/>
<path d="M0 0 C6.75 -0.125 6.75 -0.125 9 1 C9 1.66 9 2.32 9 3 C5.78548731 4.60725635 2.56387464 4.05748185 -1 4 C-1 4.66 -1 5.32 -1 6 C-2.65 6 -4.3 6 -6 6 C-6 5.34 -6 4.68 -6 4 C-6.99 4 -7.98 4 -9 4 C-9 3.34 -9 2.68 -9 2 C-6.03 2 -3.06 2 0 2 C0 1.34 0 0.68 0 0 Z " fill="#1C588C" transform="translate(1329,1288)"/>
<path d="M0 0 C6.4 -0.36923077 6.4 -0.36923077 9.4375 1.5 C9.953125 1.995 10.46875 2.49 11 3 C10 4 10 4 7.49975586 4.11352539 C6.41573486 4.10828857 5.33171387 4.10305176 4.21484375 4.09765625 C3.04501953 4.09443359 1.87519531 4.09121094 0.66992188 4.08789062 C-1.17762695 4.07532227 -1.17762695 4.07532227 -3.0625 4.0625 C-4.91584961 4.05573242 -4.91584961 4.05573242 -6.80664062 4.04882812 C-9.87114117 4.03699608 -12.93554721 4.02051173 -16 4 C-16 3.67 -16 3.34 -16 3 C-14.92878906 2.95101563 -13.85757812 2.90203125 -12.75390625 2.8515625 C-11.35674361 2.77654706 -9.9596095 2.7009987 -8.5625 2.625 C-7.85544922 2.5940625 -7.14839844 2.563125 -6.41992188 2.53125 C-4.60760812 2.42719371 -2.80182012 2.22080108 -1 2 C-0.67 1.34 -0.34 0.68 0 0 Z " fill="#285A83" transform="translate(1216,1299)"/>
<path d="M0 0 C0 0.66 0 1.32 0 2 C2.31 2 4.62 2 7 2 C7.33 1.34 7.66 0.68 8 0 C10.97 0.495 10.97 0.495 14 1 C14 1.33 14 1.66 14 2 C10.39129392 2.80929482 6.95538062 3.17814083 3.26171875 3.31640625 C2.19501953 3.35830078 1.12832031 3.40019531 0.02929688 3.44335938 C-1.62489258 3.50233398 -1.62489258 3.50233398 -3.3125 3.5625 C-4.43462891 3.60568359 -5.55675781 3.64886719 -6.71289062 3.69335938 C-9.47514569 3.79914787 -12.2374863 3.90123672 -15 4 C-14.67 3.34 -14.34 2.68 -14 2 C-12.125 1.4375 -12.125 1.4375 -10 1 C-6.52674819 -0.1577506 -3.63932552 -0.06866652 0 0 Z " fill="#22568B" transform="translate(1463,1280)"/>
<path d="M0 0 C0 0.66 0 1.32 0 2 C-6.85983809 3.05728087 -13.56783224 3.11639843 -20.5 3.0625 C-21.60859375 3.05798828 -22.7171875 3.05347656 -23.859375 3.04882812 C-26.57297399 3.03713158 -29.28645761 3.02074086 -32 3 C-32 2.67 -32 2.34 -32 2 C-28.16714075 1.66106419 -24.33364909 1.32987213 -20.5 1 C-18.88351562 0.85691406 -18.88351562 0.85691406 -17.234375 0.7109375 C-11.46437756 0.21837674 -5.79076447 -0.11244203 0 0 Z " fill="#CEE2EE" transform="translate(2000,1243)"/>
<path d="M0 0 C-4.97584408 2.5800673 -8.82573453 4.2946517 -14.51953125 3.9765625 C-15.54111328 3.925 -16.56269531 3.8734375 -17.61523438 3.8203125 C-18.67033203 3.75585938 -19.72542969 3.69140625 -20.8125 3.625 C-21.88693359 3.56828125 -22.96136719 3.5115625 -24.06835938 3.453125 C-26.71295466 3.31207992 -29.35653894 3.16071024 -32 3 C-32 2.67 -32 2.34 -32 2 C-28.16714075 1.66106419 -24.33364909 1.32987213 -20.5 1 C-18.88351563 0.85691406 -18.88351563 0.85691406 -17.234375 0.7109375 C-11.46437756 0.21837674 -5.79076447 -0.11244203 0 0 Z " fill="#BFD3E1" transform="translate(2256,1223)"/>
<path d="M0 0 C0 0.99 0 1.98 0 3 C-1.19496094 2.98259766 -1.19496094 2.98259766 -2.4140625 2.96484375 C-10.25478989 2.88148443 -10.25478989 2.88148443 -18 4 C-18 3.67 -18 3.34 -18 3 C-20.97 2.505 -20.97 2.505 -24 2 C-24 1.67 -24 1.34 -24 1 C-15.97667603 0.09958689 -8.07029553 -0.11547323 0 0 Z " fill="#D9EBF3" transform="translate(1696,1267)"/>
<path d="M0 0 C0 0.33 0 0.66 0 1 C-8.91 1.99 -8.91 1.99 -18 3 C-18 3.33 -18 3.66 -18 4 C-23.61 3.67 -29.22 3.34 -35 3 C-35 2.67 -35 2.34 -35 2 C-30.66703867 1.66171232 -26.33357981 1.33026252 -22 1 C-20.16888672 0.85691406 -20.16888672 0.85691406 -18.30078125 0.7109375 C-12.18152207 0.24785843 -6.13685286 -0.12273706 0 0 Z " fill="#C5DBE7" transform="translate(1112,1312)"/>
<path d="M0 0 C1.36511719 0.29197266 1.36511719 0.29197266 2.7578125 0.58984375 C3.45648437 0.74582031 4.15515625 0.90179687 4.875 1.0625 C4.875 1.3925 4.875 1.7225 4.875 2.0625 C-5.10199803 3.3927664 -15.08114824 3.15752917 -25.125 3.0625 C-25.125 2.7325 -25.125 2.4025 -25.125 2.0625 C-23.84882812 1.92972656 -22.57265625 1.79695313 -21.2578125 1.66015625 C-19.58852004 1.48197335 -17.91925036 1.30357686 -16.25 1.125 C-15.40824219 1.03798828 -14.56648438 0.95097656 -13.69921875 0.86132812 C-12.49072266 0.73081055 -12.49072266 0.73081055 -11.2578125 0.59765625 C-10.51418457 0.519104 -9.77055664 0.44055176 -9.00439453 0.35961914 C-2.82924107 -0.61662946 -2.82924107 -0.61662946 0 0 Z " fill="#2A5077" transform="translate(1997.125,1240.9375)"/>
<path d="M0 0 C-8.91 0 -17.82 0 -27 0 C-23.78217017 -2.14521989 -23.15456696 -2.21081846 -19.5 -2.0625 C-14.68591201 -1.93525538 -10.11092563 -2.39570987 -5.34765625 -3.07421875 C-3 -3 -3 -3 0 0 Z " fill="#285B86" transform="translate(763,1339)"/>
<path d="M0 0 C0 0.33 0 0.66 0 1 C-1.7015625 1.2165625 -1.7015625 1.2165625 -3.4375 1.4375 C-6.80777201 1.61171478 -6.80777201 1.61171478 -8 3 C-10.69654854 3.07319621 -13.36691458 3.09242537 -16.0625 3.0625 C-16.82111328 3.05798828 -17.57972656 3.05347656 -18.36132812 3.04882812 C-20.24091871 3.0370068 -22.12046899 3.01907078 -24 3 C-16.50281133 -0.96625465 -8.27719832 -0.11202223 0 0 Z " fill="#E3F6FB" transform="translate(408,1367)"/>
<path d="M0 0 C8.25 0 16.5 0 25 0 C25 0.66 25 1.32 25 2 C24.39671875 1.98839844 23.7934375 1.97679687 23.171875 1.96484375 C22.37265625 1.95582031 21.5734375 1.94679688 20.75 1.9375 C19.96109375 1.92589844 19.1721875 1.91429687 18.359375 1.90234375 C16.01639655 1.91298977 16.01639655 1.91298977 13.890625 2.56640625 C12 3 12 3 9 2 C7.44146733 1.78196693 5.87817349 1.59633644 4.3125 1.4375 C3.10013672 1.31181641 3.10013672 1.31181641 1.86328125 1.18359375 C1.24839844 1.12300781 0.63351563 1.06242187 0 1 C0 0.67 0 0.34 0 0 Z " fill="#E2F0F5" transform="translate(2212,1226)"/>
<path d="M0 0 C0.33 0.99 0.66 1.98 1 3 C-7.07029553 3.11547323 -14.97667603 2.90041311 -23 2 C-23 1.67 -23 1.34 -23 1 C-20.47932687 0.83054298 -17.95850616 0.66436516 -15.4375 0.5 C-14.73302734 0.45230469 -14.02855469 0.40460938 -13.30273438 0.35546875 C-8.85739865 0.0686729 -4.45455341 -0.04682842 0 0 Z " fill="#D5EAF1" transform="translate(687,1345)"/>
<path d="M0 0 C0.99 0 1.98 0 3 0 C3 0.66 3 1.32 3 2 C4.216875 1.979375 5.43375 1.95875 6.6875 1.9375 C9.91977322 1.93175884 12.84934741 2.21233685 16 3 C16 3.33 16 3.66 16 4 C5.605 4.495 5.605 4.495 -5 5 C-5 4.67 -5 4.34 -5 4 C-3.35 3.67 -1.7 3.34 0 3 C0 2.01 0 1.02 0 0 Z " fill="#225A8C" transform="translate(912,1321)"/>
<path d="M0 0 C7.73708326 -0.12152487 15.307359 0.15199233 23 1 C23 1.33 23 1.66 23 2 C12.11 2.495 12.11 2.495 1 3 C0.67 2.01 0.34 1.02 0 0 Z " fill="#39678A" transform="translate(1225,1300)"/>
<path d="M0 0 C1.32 0.33 2.64 0.66 4 1 C4 1.66 4 2.32 4 3 C-3.7527507 4.51537186 -11.10042938 5.27990605 -19 5 C-19 4.67 -19 4.34 -19 4 C-16.36 4 -13.72 4 -11 4 C-11 3.34 -11 2.68 -11 2 C-5.555 1.505 -5.555 1.505 0 1 C0 0.67 0 0.34 0 0 Z " fill="#1D5385" transform="translate(1640,1265)"/>
<path d="M0 0 C0.66 0.33 1.32 0.66 2 1 C3.87379605 1.07033769 5.75001102 1.0843022 7.625 1.0625 C8.62789062 1.05347656 9.63078125 1.04445313 10.6640625 1.03515625 C11.82035156 1.01775391 11.82035156 1.01775391 13 1 C11 3 11 3 7.8828125 3.265625 C6.02269531 3.25789063 6.02269531 3.25789063 4.125 3.25 C2.89007812 3.25515625 1.65515625 3.2603125 0.3828125 3.265625 C-2.72188334 3.02183826 -4.41039696 2.63964816 -7 1 C-4.50564175 -0.24717912 -2.76297351 -0.13814868 0 0 Z " fill="#225B8C" transform="translate(933,1321)"/>
<path d="M0 0 C0 0.66 0 1.32 0 2 C1.32 2 2.64 2 4 2 C4.33 1.01 4.66 0.02 5 -1 C5.33 -0.34 5.66 0.32 6 1 C8.52733235 1.65555119 8.52733235 1.65555119 11 2 C11 2.33 11 2.66 11 3 C-2.61741547 3.20426123 -2.61741547 3.20426123 -9 2 C-9.33 1.34 -9.66 0.68 -10 0 C-6.33694766 -0.74926071 -3.57644848 -1.2380014 0 0 Z " fill="#1B5387" transform="translate(2069,1233)"/>
<path d="M0 0 C1.74965358 -0.05429959 3.49979787 -0.09292823 5.25 -0.125 C6.22453125 -0.14820313 7.1990625 -0.17140625 8.203125 -0.1953125 C11.0196498 0.00137219 12.60949036 0.55431084 15 2 C13.26780072 3.73219928 10.97973192 3.21291761 8.625 3.25 C7.15933594 3.28867188 7.15933594 3.28867188 5.6640625 3.328125 C3 3 3 3 1.1484375 1.484375 C0.76945313 0.99453125 0.39046875 0.5046875 0 0 Z " fill="#2B6187" transform="translate(621,1346)"/>
<path d="M0 0 C0 0.66 0 1.32 0 2 C-1.65 2 -3.3 2 -5 2 C-5 2.66 -5 3.32 -5 4 C-6.45922693 3.88590407 -7.91740598 3.75834456 -9.375 3.625 C-10.59316406 3.52058594 -10.59316406 3.52058594 -11.8359375 3.4140625 C-14 3 -14 3 -16 1 C-10.59255982 0.22750855 -5.46137814 -0.09752461 0 0 Z " fill="#DAECF4" transform="translate(1304,1297)"/>
<path d="M0 0 C0 0.66 0 1.32 0 2 C-11.385 1.505 -11.385 1.505 -23 1 C-23 0.67 -23 0.34 -23 0 C-15.31381187 -1.33672837 -7.67442249 -1.61566789 0 0 Z " fill="#215180" transform="translate(2104,1233)"/>
<path d="M0 0 C-3.81615468 2.47045803 -7.84744248 2.43831912 -12.25 2.625 C-12.99507812 2.66367188 -13.74015625 2.70234375 -14.5078125 2.7421875 C-16.3381524 2.83605108 -18.16904143 2.91909718 -20 3 C-20 2.34 -20 1.68 -20 1 C-19.08476563 0.93941406 -18.16953125 0.87882812 -17.2265625 0.81640625 C-15.44378906 0.69072266 -15.44378906 0.69072266 -13.625 0.5625 C-12.44164062 0.48128906 -11.25828125 0.40007812 -10.0390625 0.31640625 C-2.1375 -0.50625 -2.1375 -0.50625 0 0 Z " fill="#3A6187" transform="translate(1532,1278)"/>
<path d="M0 0 C0 0.66 0 1.32 0 2 C-3.3 2.66 -6.6 3.32 -10 4 C-10 3.34 -10 2.68 -10 2 C-13.63 2 -17.26 2 -21 2 C-21 1.67 -21 1.34 -21 1 C-13.98441385 0.4011085 -7.04321257 -0.13810221 0 0 Z " fill="#D1E6F0" transform="translate(2208,1227)"/>
<path d="M0 0 C0 0.66 0 1.32 0 2 C-7.07721931 2.12109311 -13.97195301 1.85373239 -21 1 C-21 0.67 -21 0.34 -21 0 C-13.78194245 -0.7938642 -7.19172157 -1.07875823 0 0 Z " fill="#214C74" transform="translate(2454,1206)"/>
<path d="M0 0 C-5.62524703 3.24533483 -11.04631837 3.09984089 -17.375 2.5625 C-18.62023437 2.46066406 -19.86546875 2.35882812 -21.1484375 2.25390625 C-22.55996094 2.12822266 -22.55996094 2.12822266 -24 2 C-24 1.67 -24 1.34 -24 1 C-15.97667603 0.09958689 -8.07029553 -0.11547323 0 0 Z " fill="#D6ECF5" transform="translate(240,1380)"/>
<path d="M0 0 C1.07765625 0.10183594 2.1553125 0.20367188 3.265625 0.30859375 C4.08546875 0.39238281 4.9053125 0.47617188 5.75 0.5625 C5.75 0.8925 5.75 1.2225 5.75 1.5625 C-0.62358711 2.52455088 -6.80929529 2.66905578 -13.25 2.5625 C-8.57770959 -0.55236027 -5.54891101 -0.54282825 0 0 Z " fill="#3A6885" transform="translate(306.25,1372.4375)"/>
<path d="M0 0 C1.17949219 0.01804687 2.35898437 0.03609375 3.57421875 0.0546875 C4.92966797 0.08949219 4.92966797 0.08949219 6.3125 0.125 C6.3125 0.785 6.3125 1.445 6.3125 2.125 C0.62552429 3.03897824 -4.00052429 3.03897824 -9.6875 2.125 C-6.05554504 -0.29630331 -4.30400652 -0.08522785 0 0 Z " fill="#E0F2F8" transform="translate(865.6875,1330.875)"/>
<path d="M0 0 C0.33 0.66 0.66 1.32 1 2 C-3.96073422 3.32286246 -8.91111512 3.08893197 -14 3 C-14 2.34 -14 1.68 -14 1 C-9.27616037 0.34843591 -4.78025483 -0.11950637 0 0 Z " fill="#1E568E" transform="translate(1671,1264)"/>
<path d="M0 0 C0.89203125 0.00902344 1.7840625 0.01804687 2.703125 0.02734375 C3.37859375 0.03894531 4.0540625 0.05054688 4.75 0.0625 C4.42 0.7225 4.09 1.3825 3.75 2.0625 C-0.53769786 3.36180238 -4.81510345 3.13766774 -9.25 3.0625 C-9.25 2.4025 -9.25 1.7425 -9.25 1.0625 C-6.09493858 0.12630187 -3.28413498 -0.0432123 0 0 Z " fill="#3E6988" transform="translate(1289.25,1295.9375)"/>
<path d="M0 0 C2.57265818 0.07029121 5.11641431 0.09370832 7.6875 0.0625 C8.38939453 0.05798828 9.09128906 0.05347656 9.81445312 0.04882812 C11.54300538 0.03706927 13.27151365 0.01913454 15 0 C12.44950449 2.55049551 10.76517246 2.2606479 7.28320312 2.2734375 C6.55037109 2.26570313 5.81753906 2.25796875 5.0625 2.25 C4.33353516 2.25773437 3.60457031 2.26546875 2.85351562 2.2734375 C-0.95838223 2.25946171 -2.7581111 2.16125927 -6 0 C-3 -1 -3 -1 0 0 Z " fill="#245E8D" transform="translate(835,1329)"/>
<path d="M0 0 C-2.44568622 2.92746298 -2.44568622 2.92746298 -4.90112305 3.2487793 C-5.59761963 3.19117432 -6.29411621 3.13356934 -7.01171875 3.07421875 C-7.76904297 3.01943359 -8.52636719 2.96464844 -9.30664062 2.90820312 C-10.09232422 2.83537109 -10.87800781 2.76253906 -11.6875 2.6875 C-12.48478516 2.62626953 -13.28207031 2.56503906 -14.10351562 2.50195312 C-16.07016953 2.34886031 -18.03528989 2.17629291 -20 2 C-20 1.67 -20 1.34 -20 1 C-13.31184516 0.37577221 -6.71884955 -0.12920865 0 0 Z " fill="#C6DCEA" transform="translate(1072,1315)"/>
<path d="M0 0 C3.63 0 7.26 0 11 0 C11.33 0.99 11.66 1.98 12 3 C8.04 3 4.08 3 0 3 C0 2.01 0 1.02 0 0 Z " fill="#235179" transform="translate(1536,1275)"/>
<path d="M0 0 C0.33 0.99 0.66 1.98 1 3 C0 4 0 4 -3.5625 4.0625 C-4.696875 4.041875 -5.83125 4.02125 -7 4 C-7.33 3.34 -7.66 2.68 -8 2 C-4.77208445 -0.1519437 -3.71599191 -0.20086443 0 0 Z " fill="#175287" transform="translate(2152,1224)"/>
<path d="M0 0 C1.17949219 0.10183594 2.35898438 0.20367188 3.57421875 0.30859375 C4.47785156 0.39238281 5.38148437 0.47617188 6.3125 0.5625 C6.3125 0.8925 6.3125 1.2225 6.3125 1.5625 C-1.6075 2.0575 -1.6075 2.0575 -9.6875 2.5625 C-9.6875 1.9025 -9.6875 1.2425 -9.6875 0.5625 C-6.14075997 -0.61974668 -3.71227005 -0.33079634 0 0 Z " fill="#3D6385" transform="translate(1057.6875,1314.4375)"/>
<path d="M0 0 C-0.33 0.66 -0.66 1.32 -1 2 C-4.63 2 -8.26 2 -12 2 C-8.40939861 -1.59060139 -4.69614193 -1.20757935 0 0 Z " fill="#29507B" transform="translate(2043,1238)"/>
<path d="M0 0 C4.29 0 8.58 0 13 0 C13.33 0.66 13.66 1.32 14 2 C10.58860997 3.09651823 7.79344419 2.94215473 4.25 2.5625 C2.77273437 2.40974609 2.77273437 2.40974609 1.265625 2.25390625 C0.51796875 2.17011719 -0.2296875 2.08632812 -1 2 C-0.67 1.34 -0.34 0.68 0 0 Z " fill="#1B4F7A" transform="translate(2209,1223)"/>
<path d="M0 0 C4.62 0 9.24 0 14 0 C11 3 11 3 8.3125 3.1875 C7.549375 3.125625 6.78625 3.06375 6 3 C6 2.34 6 1.68 6 1 C4.02 1 2.04 1 0 1 C0 0.67 0 0.34 0 0 Z " fill="#DEEEF5" transform="translate(2420,1210)"/>
<path d="M0 0 C-0.639375 0.309375 -1.27875 0.61875 -1.9375 0.9375 C-3.93610821 1.8345163 -3.93610821 1.8345163 -5 3 C-6.99958364 3.04080783 -9.00045254 3.04254356 -11 3 C-11.33 2.34 -11.66 1.68 -12 1 C-7.9472484 0.01751476 -4.16138263 -0.08159574 0 0 Z " fill="#E8F8FC" transform="translate(1604,1274)"/>
<path d="M0 0 C0 0.99 0 1.98 0 3 C-2.64 3.33 -5.28 3.66 -8 4 C-8 3.34 -8 2.68 -8 2 C-5.09399739 0.74335022 -3.20395416 0 0 0 Z " fill="#ECF8FC" transform="translate(1008,1320)"/>
<path d="M0 0 C2.64 0.33 5.28 0.66 8 1 C8 1.33 8 1.66 8 2 C3.59085217 3.10228696 -0.48382401 3.07654536 -5 3 C-5 2.67 -5 2.34 -5 2 C-3.35 2 -1.7 2 0 2 C0 1.34 0 0.68 0 0 Z " fill="#2B6089" transform="translate(216,1378)"/>
<path d="M0 0 C1.32 0.33 2.64 0.66 4 1 C3.67 1.66 3.34 2.32 3 3 C4.175625 2.690625 4.175625 2.690625 5.375 2.375 C6.674375 2.189375 6.674375 2.189375 8 2 C8.66 2.66 9.32 3.32 10 4 C7.36 4 4.72 4 2 4 C1.34 2.68 0.68 1.36 0 0 Z " fill="#1D538B" transform="translate(1952,1240)"/>
<path d="M0 0 C0.70125 0.144375 1.4025 0.28875 2.125 0.4375 C5.07556141 1.01478375 8.03270151 1.51695141 11 2 C11 2.33 11 2.66 11 3 C9.54176788 3.0270043 8.08339325 3.04639787 6.625 3.0625 C5.81289062 3.07410156 5.00078125 3.08570313 4.1640625 3.09765625 C2 3 2 3 0 2 C0 1.34 0 0.68 0 0 Z " fill="#4D7293" transform="translate(1600,1271)"/>
<path d="M0 0 C1.32 0 2.64 0 4 0 C4 0.99 4 1.98 4 3 C1.36 3 -1.28 3 -4 3 C-4 2.34 -4 1.68 -4 1 C-2.68 1.33 -1.36 1.66 0 2 C0 1.34 0 0.68 0 0 Z " fill="#205989" transform="translate(1748,1258)"/>
<path d="M0 0 C0 0.66 0 1.32 0 2 C-2.64 2 -5.28 2 -8 2 C-7 0 -7 0 -5.125 -0.6875 C-3 -1 -3 -1 0 0 Z " fill="#1E5786" transform="translate(1568,1273)"/>
</svg>
