<svg width="17" height="22" viewBox="0 0 17 22" fill="none" xmlns="http://www.w3.org/2000/svg">
    <path fill-rule="evenodd" clip-rule="evenodd" d="M11.935 0.836924C11.7387 0.640584 11.4723 0.530273 11.1946 0.530273C10.917 0.530273 10.6506 0.640584 10.4543 0.836924L0.306651 10.9846C0.11031 11.1809 0 11.4473 0 11.7249V16.235C0 16.8132 0.468755 17.282 1.04698 17.282H5.55706C5.83474 17.282 6.10104 17.1716 6.29739 16.9753L16.4451 6.82766C16.8539 6.41878 16.8539 5.75588 16.4451 5.34701L11.935 0.836924ZM2.09396 15.188V12.1586L11.1946 3.05791L14.2241 6.08733L5.12339 15.188H2.09396Z" fill="#FFFFFF"/>
    <path d="M15.7047 21.4699C16.283 21.4699 16.7517 21.0012 16.7517 20.423C16.7517 19.8447 16.283 19.376 15.7047 19.376H1.04698C0.468755 19.376 0 19.8447 0 20.423C0 21.0012 0.468744 21.4699 1.04698 21.4699H15.7047Z" fill="#FFFFFF"/>
</svg>
