<svg enable-background="new 0 0 512 512" viewBox="0 0 512 512" xmlns="http://www.w3.org/2000/svg" xmlns:xlink="http://www.w3.org/1999/xlink"><linearGradient id="SVGID_1_" gradientUnits="userSpaceOnUse" x1="260.916" x2="123.347" y1="296" y2="296"><stop offset="0" stop-color="#fff"/><stop offset="1" stop-color="#e6e7e8"/></linearGradient><g id="guides"/><g id="icon"><path d="m297.941 48h-201.941v416h320v-297.941z" fill="#231f20"/><path d="m392 440h-272v-368h168l104 104z" fill="#fff"/><path d="m288 176v-104l104 104z" fill="#6d6e71"/><path d="m288 176 104 104v-104z" fill="#e6e7e8"/><path d="m48 176h72v240h-72z" fill="#231f20"/><path d="m120 176h144v240h-144z" fill="url(#SVGID_1_)"/><path d="m72 200h192v192h-192z" fill="#2fa860"/><g fill="#e6e7e8"><path d="m264 248h24v16h-24z"/><path d="m264 288h24v16h-24z"/><path d="m264 328h24v16h-24z"/><path d="m264 368h24v16h-24z"/><path d="m264 208h24v16h-24z"/><path d="m304 248h24v16h-24z"/><path d="m304 288h24v16h-24z"/><path d="m304 328h24v16h-24z"/><path d="m304 368h24v16h-24z"/><path d="m304 208h24v16h-24z"/></g><path d="m224 240h-32l-24 33.6-24-33.6h-32l40 56-40 56h32l24-33.6 24 33.6h32l-40-56z" fill="#fff"/><path d="m320 208 8 8v-8z" fill="#d4d6d8"/></g></svg>