<svg xmlns="http://www.w3.org/2000/svg" width="86.454" height="54.26" viewBox="0 0 86.454 54.26">
  <g id="ic-bmr" transform="translate(-268.613 -285.132)">
    <rect id="Rectangle_742" data-name="Rectangle 742" width="37.107" height="22.466" transform="translate(317.96 308.475)" fill="#dadada"/>
    <path id="Path_4295" data-name="Path 4295" d="M330.673,320.513h-.008a.383.383,0,0,1-.392-.286l-1.746-11.256-.915,4.7a.385.385,0,0,1-.4.278h-5.359v-.656h5.014l1.305-6.7a.424.424,0,0,1,.8.011l1.754,11.31,1.341-6.582a.378.378,0,0,1,.361-.273.413.413,0,0,1,.416.216l.893,2.019h4.451v.656h-4.734a.409.409,0,0,1-.381-.217l-.464-1.05-1.54,7.558A.387.387,0,0,1,330.673,320.513Z" transform="translate(16.877 6.714)" fill="#c6c6c6"/>
    <path id="Path_4296" data-name="Path 4296" d="M330.243,311.386h-24.16v11.233Z" transform="translate(11.877 8.322)" fill="#575756"/>
    <path id="Path_4297" data-name="Path 4297" d="M295.78,339.393c-7.471-4.357-16.942-11.227-21.969-20.187-7.62-13.585-6.724-26.906,1.782-32.062a14.926,14.926,0,0,1,20.187,5.147,14.926,14.926,0,0,1,20.187-5.147c8.506,5.156,9.4,18.477,1.78,32.062C312.721,328.166,303.25,335.036,295.78,339.393Z" transform="translate(0 0)" fill="#e94e1b"/>
    <rect id="Rectangle_743" data-name="Rectangle 743" width="54.368" height="22.466" transform="translate(287.752 297.242)" fill="#ededed"/>
    <path id="Path_4298" data-name="Path 4298" d="M289.594,312.478h-.008a.382.382,0,0,1-.392-.287l-1.746-11.255-.915,4.7a.387.387,0,0,1-.4.277h-2.99v-.656h2.645l1.305-6.7a.424.424,0,0,1,.8.009l1.756,11.311,1.339-6.582a.38.38,0,0,1,.362-.273.414.414,0,0,1,.416.216l.893,2.018h4.451v.656h-4.736A.407.407,0,0,1,292,305.7l-.465-1.05-1.538,7.558A.387.387,0,0,1,289.594,312.478Z" transform="translate(4.606 4.168)" fill="#9d9d9c"/>
    <path id="Path_4299" data-name="Path 4299" d="M309.675,312.478h-.008a.382.382,0,0,1-.393-.287l-1.746-11.255-.915,4.7a.387.387,0,0,1-.4.277h-2.988v-.656h2.643l1.305-6.7a.425.425,0,0,1,.8.009l1.754,11.311,1.339-6.582a.38.38,0,0,1,.362-.273.414.414,0,0,1,.416.216l.893,2.018h4.451v.656h-4.736a.407.407,0,0,1-.379-.216l-.464-1.05-1.54,7.558A.387.387,0,0,1,309.675,312.478Z" transform="translate(10.972 4.168)" fill="#9d9d9c"/>
    <path id="Path_4300" data-name="Path 4300" d="M320.279,312.478h-.008a.382.382,0,0,1-.392-.287l-1.746-11.255-.915,4.7a.388.388,0,0,1-.4.277H313.83v-.656h2.645l1.305-6.7a.424.424,0,0,1,.8.009l1.756,11.311,1.339-6.582a.379.379,0,0,1,.361-.273.415.415,0,0,1,.417.216l.892,2.018H327.8v.656h-4.736a.407.407,0,0,1-.379-.216l-.465-1.05-1.538,7.558A.389.389,0,0,1,320.279,312.478Z" transform="translate(14.333 4.168)" fill="#9d9d9c"/>
    <path id="Path_4301" data-name="Path 4301" d="M299.743,314.767h-.008a.382.382,0,0,1-.392-.286L297.6,298.223l-.917,8.272a.387.387,0,0,1-.4.277h-2.534v-.656h2.189l1.306-10.273a.375.375,0,0,1,.4-.277.383.383,0,0,1,.394.287l1.754,16.312,1.341-11.584a.378.378,0,0,1,.361-.273.414.414,0,0,1,.416.216l.893,5.591h3.424v.656h-3.707a.408.408,0,0,1-.381-.216l-.562-3.822-1.441,11.759A.387.387,0,0,1,299.743,314.767Z" transform="translate(7.968 3.308)" fill="#e04938"/>
  </g>
</svg>
