<svg xmlns="http://www.w3.org/2000/svg" xmlns:xlink="http://www.w3.org/1999/xlink" width="86.462" height="97.99" viewBox="0 0 86.462 97.99">
  <defs>
    <linearGradient id="linear-gradient" x1="-0.027" y1="0.5" x2="0.997" y2="0.5" gradientUnits="objectBoundingBox">
      <stop offset="0" stop-color="#fff9df"/>
      <stop offset="0.593" stop-color="#ffe177"/>
      <stop offset="1" stop-color="#feb137"/>
    </linearGradient>
    <linearGradient id="linear-gradient-2" x1="-1.867" x2="6.101" xlink:href="#linear-gradient"/>
    <linearGradient id="linear-gradient-3" x1="-0.033" y1="0.5" x2="0.98" y2="0.5" gradientUnits="objectBoundingBox">
      <stop offset="0" stop-color="#ffe177"/>
      <stop offset="1" stop-color="#feb137"/>
    </linearGradient>
    <linearGradient id="linear-gradient-4" x1="-0.175" y1="0.5" x2="0.827" y2="0.5" gradientUnits="objectBoundingBox">
      <stop offset="0" stop-color="#ffd15b"/>
      <stop offset="1" stop-color="#eca026"/>
    </linearGradient>
    <linearGradient id="linear-gradient-5" x1="-0.047" y1="0.5" x2="1.095" y2="0.5" gradientUnits="objectBoundingBox">
      <stop offset="0" stop-color="#fe99a0"/>
      <stop offset="0.593" stop-color="#fe646f"/>
      <stop offset="1" stop-color="#e41f2d"/>
    </linearGradient>
    <linearGradient id="linear-gradient-6" x1="-0.673" x2="0.742" xlink:href="#linear-gradient"/>
    <linearGradient id="linear-gradient-7" x1="-1.003" y1="0.5" x2="0.583" y2="0.5" xlink:href="#linear-gradient-5"/>
    <linearGradient id="linear-gradient-8" x1="0.06" y1="0.5" x2="3.832" y2="0.5" gradientUnits="objectBoundingBox">
      <stop offset="0" stop-color="#f8f6f7"/>
      <stop offset="0.179" stop-color="#f8f6f7"/>
      <stop offset="1" stop-color="#e7e6f5"/>
    </linearGradient>
    <linearGradient id="linear-gradient-9" x1="-0.533" y1="0.5" x2="1.461" y2="0.5" xlink:href="#linear-gradient-8"/>
    <linearGradient id="linear-gradient-10" x1="-9.091" y1="0.5" x2="1.935" y2="0.5" xlink:href="#linear-gradient-8"/>
    <linearGradient id="linear-gradient-11" x1="-6.969" y1="0.5" x2="-2.071" y2="0.5" gradientUnits="objectBoundingBox">
      <stop offset="0" stop-color="#f8f6f7"/>
      <stop offset="1" stop-color="#d1ceeb"/>
    </linearGradient>
  </defs>
  <g id="ic-calories-per-day" transform="translate(-30)">
    <path id="Path_4254" data-name="Path 4254" d="M112.144,45.835a1.9,1.9,0,0,0-3.519.4l-.039.112a1.947,1.947,0,0,1-3.817-.489C101.223,18.2,88.449,0,73.231,0h-.078c-3.385.014-5.78,3.713-4.781,7.325a19.6,19.6,0,0,1,.7,5.264c-.017,9.617-7.021,17.527-15.631,17.647a14.3,14.3,0,0,1-4.292-.594,3.953,3.953,0,0,0-4.891,2.992,100.505,100.505,0,0,0-2.569,13.219,1.947,1.947,0,0,1-3.817.492l-.039-.111a1.9,1.9,0,0,0-3.519-.4A31.482,31.482,0,0,0,30,61.673C30,81.73,49.355,97.99,73.231,97.99h.121l.1,0c23.775-.1,43.011-16.319,43.011-36.315a31.483,31.483,0,0,0-4.318-15.837Z" fill="url(#linear-gradient)"/>
    <path id="Path_4255" data-name="Path 4255" d="M131.434,46.929a5.551,5.551,0,0,0,5.551-5.551c0-3.066-2.485-12.22-5.551-12.22s-5.551,9.154-5.551,12.22A5.551,5.551,0,0,0,131.434,46.929Z" transform="translate(-77.46 -23.556)" fill="url(#linear-gradient-2)"/>
    <path id="Path_4256" data-name="Path 4256" d="M163.168,191.5a28.656,28.656,0,0,1-57.313,0c0-15.827,12.493-37.5,28.319-37.5s28.994,21.67,28.994,37.5Z" transform="translate(-61.28 -124.411)" fill="url(#linear-gradient-3)"/>
    <path id="Path_4257" data-name="Path 4257" d="M237.106,154a17.642,17.642,0,0,0-3.838.429c14.055,3.105,25.142,22.545,25.142,37.067a28.661,28.661,0,0,1-24.812,28.4,28.668,28.668,0,0,0,32.5-28.4C266.1,175.669,252.933,154,237.106,154Z" transform="translate(-164.213 -124.411)" fill="url(#linear-gradient-4)"/>
    <path id="Path_4258" data-name="Path 4258" d="M180.893,251.694a23.125,23.125,0,0,1-46.25,0c0-12.772,10.354-26.853,23.125-26.853S180.893,238.922,180.893,251.694Z" transform="translate(-84.537 -181.641)" fill="url(#linear-gradient-5)"/>
    <path id="Path_4259" data-name="Path 4259" d="M277.71,45.835a1.9,1.9,0,0,0-3.519.4l-.039.112a1.947,1.947,0,0,1-3.817-.489C266.789,18.2,254.014,0,238.8,0h-.078a4.562,4.562,0,0,0-2.439.72c12.877,3.621,23.23,20.683,26.366,45.137a1.947,1.947,0,0,0,3.817.489l.039-.112a1.9,1.9,0,0,1,3.519-.4,31.483,31.483,0,0,1,4.318,15.837c0,18.971-17.317,34.541-39.4,36.172,1.27.094,2.555.145,3.854.145h.121l.1,0c23.775-.1,43.011-16.319,43.011-36.315a31.483,31.483,0,0,0-4.318-15.837Z" transform="translate(-165.566)" fill="url(#linear-gradient-6)"/>
    <path id="Path_4260" data-name="Path 4260" d="M301.414,304.446a28.9,28.9,0,0,0-4.065-14.307,37.956,37.956,0,0,1,1.907,11.339A28.649,28.649,0,0,1,283.828,326.9,23.133,23.133,0,0,0,301.414,304.446Z" transform="translate(-205.058 -234.392)" fill="url(#linear-gradient-7)"/>
    <path id="Path_4261" data-name="Path 4261" d="M160.151,327.288l2.623-2.426a.923.923,0,0,0,.3-.668,2.153,2.153,0,0,0-1.856-1.832,1.049,1.049,0,0,0-.743.3l-4.108,3.985v-9.7c0-.693-.866-1.163-1.955-1.163s-1.881.47-1.881,1.163V333.1c0,.594.792,1.188,1.881,1.188s1.955-.594,1.955-1.188v-2.3l1.262-1.163,2.995,4.43a1.064,1.064,0,0,0,.916.47c.916,0,2.2-1.015,2.2-1.906a1.13,1.13,0,0,0-.2-.594Z" transform="translate(-98.986 -255.106)" fill="url(#linear-gradient-8)"/>
    <path id="Path_4262" data-name="Path 4262" d="M223.143,358.21c-.668,0-1.015.668-2.351.668-1.51,0-2.079-.693-2.079-1.906v-1.683c0-1.213.569-1.906,2.054-1.906,1.337,0,1.782.594,2.376.594.891,0,1.485-1.163,1.485-1.881,0-1.089-1.757-2.054-4.183-2.054-3.886,0-5.569,2.3-5.569,5.247v1.683c0,2.995,1.683,5.247,5.618,5.247,2.4,0,4.282-1.064,4.282-2.178A1.817,1.817,0,0,0,223.143,358.21Zm7.3-8.167c-1.831,0-4.232.817-4.232,1.98,0,.891.445,1.906,1.287,1.906.668,0,.866-.817,2.9-.817a1.711,1.711,0,0,1,1.856,1.831v.247h-.891c-3.415,0-5.791.817-5.791,3.737a3.007,3.007,0,0,0,3.168,3.292,4.83,4.83,0,0,0,3.762-1.98v.545c0,.668.742,1.188,1.708,1.188,1.089,0,1.881-.52,1.881-1.188v-5.89C236.087,352.393,234.5,350.042,230.444,350.042Zm1.807,7.1a2.3,2.3,0,0,1-1.856,2.277.908.908,0,0,1-.965-1.039c0-1.188,1.312-1.337,2.723-1.337h.1Z" transform="translate(-149.355 -282.786)" fill="url(#linear-gradient-9)"/>
    <path id="Path_4263" data-name="Path 4263" d="M339.413,315.779c-1.114,0-1.906.47-1.906,1.163V333.1c0,.594.792,1.188,1.906,1.188,1.064,0,1.93-.594,1.93-1.188V316.942C341.343,316.249,340.477,315.779,339.413,315.779Z" transform="translate(-248.423 -255.106)" fill="url(#linear-gradient-10)"/>
    <path id="Path_4264" data-name="Path 4264" d="M351.7,395.694v-2.439a28.453,28.453,0,0,1-1.374,3.571C351.117,396.665,351.7,396.18,351.7,395.694Z" transform="translate(-258.777 -317.696)" fill="url(#linear-gradient-11)"/>
  </g>
</svg>
