<svg xmlns="http://www.w3.org/2000/svg" width="86.454" height="88.526" viewBox="0 0 86.454 88.526">
  <g id="ic-ibw" transform="translate(-5.994)">
    <path id="Path_4387" data-name="Path 4387" d="M69.686,118.355H82.634a9.813,9.813,0,0,1,9.763,10.8l-4.874,48.435a9.816,9.816,0,0,1-9.765,8.831H20.684a9.813,9.813,0,0,1-9.763-8.831L6.044,129.152a9.814,9.814,0,0,1,9.765-10.8H28.758" transform="translate(0 -97.891)" fill="#55b5e0"/>
    <circle id="Ellipse_127" data-name="Ellipse 127" cx="20.464" cy="20.464" r="20.464" transform="translate(28.757 0)" fill="#fce381"/>
    <path id="Path_4388" data-name="Path 4388" d="M199.583,47.022a14.853,14.853,0,0,1-3.794,9.937,14.912,14.912,0,0,0-22.238,0,14.915,14.915,0,0,1,7.769-24.469c.033-.009.067-.016.1-.024a14.925,14.925,0,0,1,18.164,14.556Z" transform="translate(-135.449 -26.558)" fill="#caf1fc"/>
    <path id="Path_4389" data-name="Path 4389" d="M192.874,48.837a14.819,14.819,0,0,1-1.51,6.544,14.923,14.923,0,0,0-17.812,3.393A14.915,14.915,0,0,1,181.321,34.3a14.918,14.918,0,0,1,11.554,14.533Z" transform="translate(-135.45 -28.373)" fill="#a7e6fc"/>
    <path id="Path_4390" data-name="Path 4390" d="M189.309,51.831h0a1.355,1.355,0,0,1-1.01-.452,13.557,13.557,0,0,0-20.218,0,1.355,1.355,0,0,1-2.02,0,16.268,16.268,0,1,1,24.258,0,1.356,1.356,0,0,1-1.01.452Zm-11.118-7.686a16.287,16.287,0,0,1,11.015,4.3,13.557,13.557,0,1,0-22.031,0,16.29,16.29,0,0,1,11.016-4.3Z" transform="translate(-128.969 -20.075)" fill="#e29f33"/>
    <path id="Path_4391" data-name="Path 4391" d="M235.694,80.386a1.356,1.356,0,0,1-1.25-.83l-2.89-6.865a1.355,1.355,0,1,1,2.5-1.051l2.89,6.865a1.355,1.355,0,0,1-1.248,1.881Z" transform="translate(-186.472 -58.567)" fill="#595c63"/>
    <path id="Path_4392" data-name="Path 4392" d="M127.079,266.682H69.988a4.155,4.155,0,1,1,0-8.311h57.091a4.155,4.155,0,1,1,0,8.311Zm-2.387,14.092H72.376a4.155,4.155,0,1,1,0-8.311h52.316a4.155,4.155,0,0,1,0,8.311Zm-1.649,14.092H74.025a4.155,4.155,0,1,1,0-8.311h49.017a4.155,4.155,0,1,1,0,8.311Z" transform="translate(-49.493 -213.698)" fill="#188eb7"/>
  </g>
</svg>
