<svg xmlns="http://www.w3.org/2000/svg" width="86.808" height="68.159" viewBox="0 0 86.808 68.159">
  <g id="ic-calories-to-consume" transform="translate(0 -54.999)">
    <path id="Path_4587" data-name="Path 4587" d="M349.885,124.514a2.543,2.543,0,0,1-2.539-2.443q-.013-.333-.013-.666a16.811,16.811,0,0,1,9.106-14.977,2.543,2.543,0,1,1,2.341,4.516,11.743,11.743,0,0,0-6.361,10.461q0,.233.009.466a2.543,2.543,0,0,1-2.441,2.641l-.1,0Z" transform="translate(-288.444 -42.472)" fill="#803c19"/>
    <path id="Path_4588" data-name="Path 4588" d="M217.27,210.456a12.513,12.513,0,0,1-5.476-1.25,12.29,12.29,0,0,1-3.371,1.075c-5.474.915-11.089-1.778-15.81-7.582a40.648,40.648,0,0,1-8.144-18.453c-.95-5.69-.488-10.829,1.335-14.862a14.943,14.943,0,0,1,11.706-8.8,16.5,16.5,0,0,1,14.284,4.161,16.506,16.506,0,0,1,14.285-4.161,14.943,14.943,0,0,1,11.706,8.8c1.824,4.033,2.286,9.173,1.336,14.862a40.649,40.649,0,0,1-8.144,18.453c-4.117,5.061-8.914,7.756-13.705,7.757Z" transform="translate(-152.793 -87.468)" fill="#f37"/>
    <g id="Group_2637" data-name="Group 2637" transform="translate(0 54.999)">
      <path id="Path_4589" data-name="Path 4589" d="M47.3,55H5.086A5.092,5.092,0,0,0,0,60.085v57.986a5.092,5.092,0,0,0,5.086,5.086H47.3a5.092,5.092,0,0,0,5.086-5.086V60.085A5.092,5.092,0,0,0,47.3,55Z" transform="translate(0 -54.999)" fill="#5980ff" fill-rule="evenodd"/>
      <path id="Path_4590" data-name="Path 4590" d="M175.606,55H154.5v68.159h21.109a5.092,5.092,0,0,0,5.086-5.086V60.085A5.092,5.092,0,0,0,175.606,55Z" transform="translate(-128.303 -54.999)" fill="#4c4cff" fill-rule="evenodd"/>
      <path id="Path_4591" data-name="Path 4591" d="M131.986,178.015H124.7a1.7,1.7,0,0,0-1.7,1.7V187a1.7,1.7,0,0,0,1.7,1.7h7.29a1.7,1.7,0,0,0,1.7-1.7V179.71A1.7,1.7,0,0,0,131.986,178.015Zm-7.29,42.216h7.29a1.7,1.7,0,0,0,1.7-1.7v-7.293a1.7,1.7,0,0,0-1.7-1.7H124.7a1.7,1.7,0,0,0-1.7,1.7v7.293A1.7,1.7,0,0,0,124.7,220.231Z" transform="translate(-102.146 -157.159)" fill="#ebe5f1" fill-rule="evenodd"/>
      <path id="Path_4592" data-name="Path 4592" d="M226.681,295.768V272.71a1.7,1.7,0,0,0-1.7-1.7H217.7a1.7,1.7,0,0,0-1.7,1.7v23.058a1.7,1.7,0,0,0,1.7,1.7h7.29A1.7,1.7,0,0,0,226.681,295.768Z" transform="translate(-179.379 -234.391)" fill="#f92" fill-rule="evenodd"/>
      <path id="Path_4593" data-name="Path 4593" d="M131.986,270.983H124.7a1.7,1.7,0,0,0-1.7,1.7v7.293a1.7,1.7,0,0,0,1.7,1.7h7.29a1.7,1.7,0,0,0,1.7-1.7v-7.293A1.7,1.7,0,0,0,131.986,270.983Z" transform="translate(-102.146 -234.364)" fill="#ebe5f1" fill-rule="evenodd"/>
      <path id="Path_4594" data-name="Path 4594" d="M72.211,93.985v-7.29a1.7,1.7,0,0,0-1.7-1.7H31.689a1.7,1.7,0,0,0-1.7,1.7v7.29a1.7,1.7,0,0,0,1.7,1.7H70.516A1.7,1.7,0,0,0,72.211,93.985Z" transform="translate(-24.909 -79.913)" fill="#fff5f5" fill-rule="evenodd"/>
      <path id="Path_4595" data-name="Path 4595" d="M226.681,187v-7.29a1.7,1.7,0,0,0-1.7-1.7H217.7a1.7,1.7,0,0,0-1.7,1.7V187a1.7,1.7,0,0,0,1.7,1.7h7.29A1.7,1.7,0,0,0,226.681,187Z" transform="translate(-179.379 -157.159)" fill="#cecee5" fill-rule="evenodd"/>
      <path id="Path_4596" data-name="Path 4596" d="M38.986,100.769H31.7a1.7,1.7,0,0,0-1.7,1.7v7.285a1.7,1.7,0,0,0,1.7,1.7h7.29a1.7,1.7,0,0,0,1.7-1.7v-7.285A1.7,1.7,0,0,0,38.986,100.769ZM31.7,142.985h7.29a1.7,1.7,0,0,0,1.7-1.7V134a1.7,1.7,0,0,0-1.7-1.7H31.7A1.7,1.7,0,0,0,30,134v7.293A1.7,1.7,0,0,0,31.7,142.985Zm7.29-26.449H31.7a1.7,1.7,0,0,0-1.7,1.7v7.288a1.7,1.7,0,0,0,1.7,1.7h7.29a1.7,1.7,0,0,0,1.7-1.7v-7.288A1.7,1.7,0,0,0,38.986,116.537ZM70.521,85H51.108V95.68H70.521a1.7,1.7,0,0,0,1.7-1.7v-7.29A1.7,1.7,0,0,0,70.521,85Z" transform="translate(-24.914 -79.913)" fill="#ebe5f1" fill-rule="evenodd"/>
      <path id="Path_4597" data-name="Path 4597" d="M158.143,178.015H154.5v10.676h3.646a1.7,1.7,0,0,0,1.7-1.7V179.71A1.7,1.7,0,0,0,158.143,178.015Zm0,15.762H154.5v10.684h3.646a1.7,1.7,0,0,0,1.7-1.7v-7.293A1.7,1.7,0,0,0,158.143,193.777Zm0,15.77H154.5v10.684h3.646a1.7,1.7,0,0,0,1.7-1.7v-7.293A1.7,1.7,0,0,0,158.143,209.547Z" transform="translate(-128.303 -157.159)" fill="#cecee5" fill-rule="evenodd"/>
    </g>
  </g>
</svg>
