<svg xmlns="http://www.w3.org/2000/svg" width="86.454" height="92.626" viewBox="0 0 86.454 92.626">
  <g id="ic-exercise-time" transform="translate(-17.058)">
    <path id="Path_4573" data-name="Path 4573" d="M58.518,370.75H23.234a6.175,6.175,0,0,1-6.175-6.175V358.4h47.39Z" transform="translate(-0.001 -293.562)" fill="#d3dcfb"/>
    <path id="Path_4574" data-name="Path 4574" d="M97.34,83.7v43.225H23.234a6.175,6.175,0,0,1-6.175-6.175V83.7L60.287,68.266Z" transform="translate(-0.001 -55.916)" fill="#ebf5fc"/>
    <g id="Group_2635" data-name="Group 2635" transform="translate(23.235 33.963)">
      <path id="Path_4575" data-name="Path 4575" d="M55.931,193.909H52.65a1.447,1.447,0,0,1-1.447-1.447v-3.28a1.447,1.447,0,0,1,1.447-1.447h3.28a1.447,1.447,0,0,1,1.447,1.447v3.28A1.447,1.447,0,0,1,55.931,193.909Zm12.35,0H65a1.447,1.447,0,0,1-1.447-1.447v-3.28A1.447,1.447,0,0,1,65,187.734h3.28a1.447,1.447,0,0,1,1.447,1.447v3.28A1.447,1.447,0,0,1,68.281,193.909Zm12.35,0H77.35a1.447,1.447,0,0,1-1.447-1.447v-3.28a1.447,1.447,0,0,1,1.447-1.447h3.28a1.447,1.447,0,0,1,1.447,1.447v3.28A1.447,1.447,0,0,1,80.631,193.909Zm12.35,0H89.7a1.447,1.447,0,0,1-1.447-1.447v-3.28a1.447,1.447,0,0,1,1.447-1.447h3.28a1.447,1.447,0,0,1,1.447,1.447v3.28A1.447,1.447,0,0,1,92.981,193.909Zm12.348,0h-3.28a1.447,1.447,0,0,1-1.447-1.447v-3.28a1.447,1.447,0,0,1,1.447-1.447h3.28a1.447,1.447,0,0,1,1.447,1.447v3.28A1.447,1.447,0,0,1,105.329,193.909Zm12.35,0H114.4a1.447,1.447,0,0,1-1.447-1.447v-3.28a1.447,1.447,0,0,1,1.447-1.447h3.28a1.447,1.447,0,0,1,1.447,1.447v3.28A1.447,1.447,0,0,1,117.679,193.909Zm-61.748,12.35H52.65a1.447,1.447,0,0,1-1.447-1.447v-3.28a1.447,1.447,0,0,1,1.447-1.447h3.28a1.447,1.447,0,0,1,1.447,1.447v3.28A1.447,1.447,0,0,1,55.931,206.259Zm12.35,0H65a1.447,1.447,0,0,1-1.447-1.447v-3.28A1.447,1.447,0,0,1,65,200.084h3.28a1.447,1.447,0,0,1,1.447,1.447v3.28A1.447,1.447,0,0,1,68.281,206.259Zm12.35,0H77.35a1.447,1.447,0,0,1-1.447-1.447v-3.28a1.447,1.447,0,0,1,1.447-1.447h3.28a1.447,1.447,0,0,1,1.447,1.447v3.28A1.447,1.447,0,0,1,80.631,206.259Zm13.8,0v-4.631a1.544,1.544,0,0,0-1.544-1.544H89.8a1.544,1.544,0,0,0-1.544,1.544v3.088a1.544,1.544,0,0,0,1.544,1.544Zm-38.5,12.35H52.65a1.447,1.447,0,0,1-1.447-1.447v-3.28a1.447,1.447,0,0,1,1.447-1.447h3.28a1.447,1.447,0,0,1,1.447,1.447v3.28A1.447,1.447,0,0,1,55.931,218.609Zm12.35,0H65a1.447,1.447,0,0,1-1.447-1.447v-3.28A1.447,1.447,0,0,1,65,212.434h3.28a1.447,1.447,0,0,1,1.447,1.447v3.28A1.447,1.447,0,0,1,68.281,218.609Zm12.35,0H77.35a1.447,1.447,0,0,1-1.447-1.447v-3.28a1.447,1.447,0,0,1,1.447-1.447h3.28a1.447,1.447,0,0,1,1.447,1.447v3.28A1.447,1.447,0,0,1,80.631,218.609Z" transform="translate(-51.203 -187.734)" fill="#3c58a0"/>
    </g>
    <path id="Path_4576" data-name="Path 4576" d="M121.911,187.733h-3.193a1.488,1.488,0,0,0-.547.1,1.49,1.49,0,0,1,.944,1.386v3.193a1.49,1.49,0,0,1-.944,1.386,1.484,1.484,0,0,0,.547.1h3.193a1.491,1.491,0,0,0,1.491-1.491v-3.193a1.491,1.491,0,0,0-1.491-1.491Zm-12.35,0h-3.193a1.488,1.488,0,0,0-.547.1,1.49,1.49,0,0,1,.944,1.386v3.193a1.49,1.49,0,0,1-.944,1.386,1.484,1.484,0,0,0,.547.1h3.193a1.491,1.491,0,0,0,1.491-1.491v-3.193a1.491,1.491,0,0,0-1.491-1.491Zm-12.348,0H94.02a1.488,1.488,0,0,0-.547.1,1.49,1.49,0,0,1,.944,1.386v3.193a1.49,1.49,0,0,1-.944,1.386,1.484,1.484,0,0,0,.547.1h3.193a1.491,1.491,0,0,0,1.491-1.491v-3.193a1.491,1.491,0,0,0-1.491-1.491Zm-12.35,0H81.67a1.488,1.488,0,0,0-.547.1,1.49,1.49,0,0,1,.944,1.386v3.193a1.49,1.49,0,0,1-.944,1.386,1.484,1.484,0,0,0,.547.1h3.193a1.491,1.491,0,0,0,1.491-1.491v-3.193a1.491,1.491,0,0,0-1.491-1.491Zm-12.35,0H69.32a1.488,1.488,0,0,0-.547.1,1.49,1.49,0,0,1,.944,1.386v3.193a1.49,1.49,0,0,1-.944,1.386,1.484,1.484,0,0,0,.547.1h3.193A1.491,1.491,0,0,0,74,192.417v-3.193A1.491,1.491,0,0,0,72.513,187.733Zm-12.35,0H56.97a1.488,1.488,0,0,0-.547.1,1.49,1.49,0,0,1,.944,1.386v3.193a1.49,1.49,0,0,1-.944,1.386,1.484,1.484,0,0,0,.547.1h3.193a1.491,1.491,0,0,0,1.491-1.491v-3.193a1.491,1.491,0,0,0-1.491-1.491Zm0,12.35H56.97a1.488,1.488,0,0,0-.547.1,1.49,1.49,0,0,1,.944,1.386v3.193a1.49,1.49,0,0,1-.944,1.386,1.485,1.485,0,0,0,.547.1h3.193a1.491,1.491,0,0,0,1.491-1.491v-3.193a1.491,1.491,0,0,0-1.491-1.491Zm0,12.35H56.97a1.488,1.488,0,0,0-.547.1,1.49,1.49,0,0,1,.944,1.386v3.193a1.49,1.49,0,0,1-.944,1.386,1.485,1.485,0,0,0,.547.1h3.193a1.491,1.491,0,0,0,1.491-1.491v-3.193a1.491,1.491,0,0,0-1.491-1.491Zm12.35-12.35H69.32a1.488,1.488,0,0,0-.547.1,1.49,1.49,0,0,1,.944,1.386v3.193a1.49,1.49,0,0,1-.944,1.386,1.484,1.484,0,0,0,.547.1h3.193A1.491,1.491,0,0,0,74,204.767v-3.193a1.491,1.491,0,0,0-1.491-1.491Zm0,12.35H69.32a1.488,1.488,0,0,0-.547.1,1.49,1.49,0,0,1,.944,1.386v3.193a1.49,1.49,0,0,1-.944,1.386,1.484,1.484,0,0,0,.547.1h3.193A1.491,1.491,0,0,0,74,217.118v-3.193a1.491,1.491,0,0,0-1.491-1.491Zm12.35-12.35H81.67a1.488,1.488,0,0,0-.547.1,1.49,1.49,0,0,1,.944,1.386v3.193a1.49,1.49,0,0,1-.944,1.386,1.484,1.484,0,0,0,.547.1h3.193a1.491,1.491,0,0,0,1.491-1.491v-3.193a1.491,1.491,0,0,0-1.491-1.491ZM98.7,206.258v-4.684a1.491,1.491,0,0,0-1.491-1.491H94.02a1.488,1.488,0,0,0-.547.1,1.49,1.49,0,0,1,.944,1.386v3.193a1.49,1.49,0,0,1-.944,1.386,1.485,1.485,0,0,0,.547.1H98.7Zm-13.841,6.175H81.67a1.488,1.488,0,0,0-.547.1,1.49,1.49,0,0,1,.944,1.386v3.193a1.49,1.49,0,0,1-.944,1.386,1.484,1.484,0,0,0,.547.1h3.193a1.491,1.491,0,0,0,1.491-1.491v-3.193A1.491,1.491,0,0,0,84.863,212.433Z" transform="translate(-32.243 -153.77)" fill="#2a428c"/>
    <path id="Path_4577" data-name="Path 4577" d="M437.114,143.721v45.012h4.29V145.508Z" transform="translate(-344.064 -117.721)" fill="#d3dcfb"/>
    <path id="Path_4578" data-name="Path 4578" d="M97.34,55.747V40.309a6.175,6.175,0,0,0-6.175-6.175H23.234a6.175,6.175,0,0,0-6.175,6.175V55.747Z" transform="translate(-0.001 -27.959)" fill="#ff4155"/>
    <path id="Path_4579" data-name="Path 4579" d="M100.083,63.336H96.064a1.4,1.4,0,0,1,0-2.8h4.019a1.4,1.4,0,0,1,0,2.8Zm9.874,0h-4.019a1.4,1.4,0,1,1,0-2.8h4.019a1.4,1.4,0,1,1,0,2.8Zm25.634,0h-4.019a1.4,1.4,0,0,1,0-2.8h4.019a1.4,1.4,0,1,1,0,2.8Zm9.875,0h-4.019a1.4,1.4,0,1,1,0-2.8h4.019a1.4,1.4,0,0,1,0,2.8Z" transform="translate(-63.568 -49.589)" fill="#e80054"/>
    <path id="Path_4580" data-name="Path 4580" d="M127.178,11.578a3.859,3.859,0,1,1-7.719,0V3.859a3.859,3.859,0,1,1,7.718,0v7.719Zm35.509,0a3.859,3.859,0,0,1-7.719,0V3.859a3.859,3.859,0,0,1,7.719,0v7.719Z" transform="translate(-83.876)" fill="#ebf5fc"/>
    <path id="Path_4581" data-name="Path 4581" d="M166.6,0a3.84,3.84,0,0,0-2.141.649,3.855,3.855,0,0,1,1.718,3.21v7.719a3.855,3.855,0,0,1-1.718,3.21,3.859,3.859,0,0,0,6-3.21V3.859A3.859,3.859,0,0,0,166.6,0ZM131.1,0a3.84,3.84,0,0,0-2.141.649,3.855,3.855,0,0,1,1.718,3.21v7.719a3.855,3.855,0,0,1-1.718,3.21,3.859,3.859,0,0,0,6-3.21V3.859A3.859,3.859,0,0,0,131.1,0Z" transform="translate(-91.654)" fill="#d3dcfb"/>
    <path id="Path_4582" data-name="Path 4582" d="M407.278,34.133H402.99a6.175,6.175,0,0,1,6.175,6.175V55.746h4.288V40.308A6.175,6.175,0,0,0,407.278,34.133Z" transform="translate(-316.113 -27.958)" fill="#e80054"/>
    <path id="Path_4583" data-name="Path 4583" d="M17.058,111.74H97.34v2.8H17.058Z" transform="translate(0 -91.525)" fill="#e80054"/>
    <circle id="Ellipse_131" data-name="Ellipse 131" cx="23.156" cy="23.156" r="23.156" transform="translate(57.199 46.313)" fill="#4fabf7"/>
    <circle id="Ellipse_132" data-name="Ellipse 132" cx="16.981" cy="16.981" r="16.981" transform="translate(63.374 52.488)" fill="#ebf5fc"/>
    <path id="Path_4584" data-name="Path 4584" d="M360.614,327.054a1.4,1.4,0,0,1-1.4-1.4v-7.719a1.4,1.4,0,0,1,2.8,0v7.719A1.4,1.4,0,0,1,360.614,327.054Zm7.719,3.088H363.7a1.4,1.4,0,0,1,0-2.8h4.631a1.4,1.4,0,0,1,0,2.8Z" transform="translate(-280.258 -259.275)" fill="#3c58a0"/>
    <path id="Path_4585" data-name="Path 4585" d="M357.237,256c-.723,0-1.437.035-2.143.1a23.156,23.156,0,0,1,0,46.113c.706.065,1.421.1,2.143.1a23.156,23.156,0,0,0,0-46.313Z" transform="translate(-276.882 -209.687)" fill="#1886ea"/>
    <path id="Path_4586" data-name="Path 4586" d="M357.245,290.133a17.142,17.142,0,0,0-2.142.134,16.983,16.983,0,0,1,0,33.695,16.982,16.982,0,1,0,2.142-33.829Z" transform="translate(-276.889 -237.645)" fill="#d3dcfb"/>
    <circle id="Ellipse_133" data-name="Ellipse 133" cx="3.088" cy="3.088" r="3.088" transform="translate(77.268 66.382)" fill="#ffdd40"/>
  </g>
</svg>
