<svg width="72" height="72" viewBox="0 0 72 72" fill="none" xmlns="http://www.w3.org/2000/svg">
<path d="M71.9996 48.7383C65.9995 48.7383 65.9995 51.6357 59.9992 51.6357C53.9989 51.6357 53.999 48.7383 47.9988 48.7383C41.9988 48.7383 41.9988 51.6357 35.9989 51.6357C29.9992 51.6357 29.9992 48.7383 23.9993 48.7383C17.9994 48.7383 17.9994 51.6357 11.9996 51.6357C5.99986 51.6357 5.99986 48.7383 0 48.7383V35.9227C0 34.9998 0.801697 34.2758 1.71885 34.3793C6.06708 34.87 6.63534 37.186 11.9996 37.186C17.9994 37.186 17.9994 34.2886 23.9993 34.2886C29.999 34.2886 29.999 37.186 35.9989 37.186C41.9989 37.186 41.9989 34.2886 47.9988 34.2886C53.9989 34.2886 53.9989 37.186 59.9992 37.186C65.3638 37.186 65.9321 34.87 70.2808 34.3793C71.1979 34.276 71.9996 34.9998 71.9996 35.9227V48.7383Z" fill="#01C0FA"/>
<path d="M43.4188 10.3043L38.6787 11.9134C38.2869 12.0464 38.1707 12.5444 38.4634 12.837L40.1912 14.5649C40.3403 14.7131 40.4586 14.8894 40.5391 15.0836C40.6197 15.2778 40.661 15.4861 40.6606 15.6963C40.6606 16.1991 40.4259 16.6973 39.974 17.0117C39.7354 17.1776 39.4563 17.2755 39.1664 17.2949C38.8765 17.3143 38.5867 17.2545 38.3282 17.1218L33.8589 14.8314C33.6043 14.7009 33.3166 14.6495 33.0326 14.6837C32.7486 14.718 32.4813 14.8363 32.2649 15.0235L18.6102 26.844L22.1219 34.3989L25.829 42.374C26.1459 43.0566 26.6549 43.6321 27.2938 44.0299C27.9326 44.4277 28.6736 44.6305 29.426 44.6137L32.106 44.5543L38.4122 44.3617L41.5443 49.6798C40.1825 50.326 40.0267 55.2498 37.3292 55.2498C34.329 55.2498 32.8297 54.5254 31.3302 53.8011C29.8293 53.0767 26.9996 55.7245 23.9994 55.7245C21.0005 55.7245 19.4998 55.0002 18.0003 55.7245C18.0452 55.7027 17.9569 55.7462 18.0003 55.7245C16.8341 56.288 15.5072 50.6387 13.579 50.8357L9.64587 37.0066L6.67294 26.5556C6.40706 25.6207 6.45043 24.6249 6.79659 23.7167C7.14276 22.8084 7.77317 22.0364 8.59386 21.5156L12.5024 19.0355L16.7759 16.3235L28.274 9.02795C28.8447 8.66554 29.4873 8.43126 30.1573 8.34128L42.5595 6.65647C43.0116 6.59506 43.4707 6.70004 43.8513 6.95187C44.2319 7.2037 44.5079 7.58523 44.6282 8.02544C44.6413 8.07466 44.6528 8.12388 44.6615 8.17464C44.8341 9.08743 44.3111 10.0001 43.4188 10.3043Z" fill="#FFEEE6"/>
<path d="M11.5159 27.1974L17.8683 49.526C17.2924 49.8043 17.7971 52.6714 17.1224 52.9019C16.4307 53.1383 14.5548 50.7357 13.5787 50.8356L9.64558 37.0065L6.67294 26.5556C6.40706 25.6207 6.45043 24.6249 6.79659 23.7167C7.14276 22.8084 7.77317 22.0364 8.59386 21.5156L12.5024 19.0355L16.7759 16.3235L28.274 9.02795C28.8447 8.66554 29.4873 8.43126 30.1573 8.34128L42.5595 6.65647C43.0116 6.59506 43.4707 6.70004 43.8513 6.95187C44.2319 7.2037 44.5079 7.58523 44.6282 8.02544C44.6413 8.07466 44.6528 8.12388 44.6615 8.17464C39.5043 9.13946 31.5625 10.6592 31.1641 10.9112L13.4368 22.1574C11.752 23.2266 10.9697 25.2779 11.5159 27.1974Z" fill="#FFDFCF"/>
<path d="M62.3291 42.3187L60.2858 44.362L60.2849 44.361C52.5422 40.2138 44.4981 31.9156 40.7588 24.8349L42.8021 22.7917C48.1944 17.3993 56.9367 17.3983 62.3291 22.7907C67.7215 28.183 67.7215 36.9263 62.3291 42.3187Z" fill="#FE7D43"/>
<path d="M64.3081 25.2848C58.9838 21.9814 51.8982 22.6408 47.2752 27.2638L44.2782 30.2608C42.8849 28.4317 41.6892 26.5951 40.7588 24.8339L42.8021 22.7907C48.1944 17.3983 56.9367 17.3973 62.3291 22.7897C63.0826 23.5425 63.7467 24.3797 64.3081 25.2848Z" fill="#FD6930"/>
<path d="M60.2868 44.3619L54.9019 49.7469C49.5085 55.1402 40.7662 55.1392 35.3739 49.7469C29.9825 44.3555 29.9815 35.6132 35.3748 30.2198L40.7598 24.8349C50.182 27.572 57.5487 34.9389 60.2858 44.361L60.2868 44.3619Z" fill="#FFEEE6"/>
<path d="M37.868 51.7266C36.9636 51.1642 36.1267 50.4999 35.3739 49.7466C29.9825 44.3552 29.9815 35.6129 35.3748 30.2196L40.7598 24.8347C42.9511 25.4712 45.0587 26.3669 47.0378 27.5029L39.848 34.6927C35.2248 39.3158 34.5654 46.4013 37.868 51.7266Z" fill="#FFDFCF"/>
<path d="M45.8954 45.757C42.2936 45.757 39.3633 42.8267 39.3633 39.2249C39.3633 38.9367 39.4777 38.6604 39.6815 38.4566C39.8853 38.2529 40.1616 38.1384 40.4497 38.1384C40.7379 38.1384 41.0142 38.2529 41.218 38.4566C41.4217 38.6604 41.5362 38.9367 41.5362 39.2249C41.5362 41.6286 43.4917 43.5839 45.8953 43.5839C46.1834 43.5839 46.4598 43.6984 46.6635 43.9022C46.8673 44.1059 46.9817 44.3823 46.9817 44.6704C46.9818 44.8131 46.9537 44.9544 46.8991 45.0862C46.8445 45.218 46.7645 45.3378 46.6637 45.4387C46.5628 45.5396 46.443 45.6197 46.3112 45.6743C46.1794 45.7289 46.0381 45.757 45.8954 45.757Z" fill="#FE7D43"/>
<path d="M54.7105 43.482C53.7296 44.463 52.1391 44.463 51.1581 43.482L49.2729 41.5968C48.2919 40.6158 48.2919 39.0253 49.2729 38.0443C50.2539 37.0633 51.8443 37.0633 52.8253 38.0443L54.7105 39.9295C55.6915 40.9104 55.6915 42.501 54.7105 43.482ZM46.981 35.7524C46 36.7334 44.4096 36.7334 43.4286 35.7524L41.5434 33.8672C40.5624 32.8862 40.5624 31.2958 41.5434 30.3148C42.5244 29.3338 44.1148 29.3338 45.0958 30.3148L46.981 32.2C47.962 33.181 47.962 34.7714 46.981 35.7524Z" fill="#C8EFFE"/>
<path d="M58.7077 45.9416L56.1289 43.3629C56.8311 42.0077 56.6152 40.2966 55.4798 39.1612L53.5946 37.2761C52.4593 36.1408 50.7481 35.925 49.3929 36.6271L48.3992 35.6335C49.1014 34.2783 48.8855 32.5672 47.7501 31.4318L45.8649 29.5466C44.7295 28.4112 43.0184 28.1954 41.6632 28.8974L39.1806 26.4149C38.9761 26.2147 38.7009 26.1033 38.4148 26.1048C38.1286 26.1063 37.8546 26.2207 37.6522 26.4231C37.4499 26.6254 37.3355 26.8994 37.334 27.1856C37.3325 27.4717 37.4439 27.747 37.644 27.9515L40.1268 30.4342C39.4249 31.7894 39.6408 33.5003 40.7759 34.6356L42.6611 36.5208C43.3625 37.2224 44.284 37.5731 45.2055 37.5731C45.7753 37.5731 46.3447 37.4382 46.8625 37.1701L47.8563 38.1639C47.1544 39.519 47.3703 41.23 48.5054 42.3653L50.3905 44.2503C51.0919 44.9519 52.0134 45.3026 52.9349 45.3026C53.5047 45.3026 54.0741 45.1678 54.5919 44.8996L57.1707 47.4784C57.3829 47.6906 57.6609 47.7966 57.9389 47.7966C58.2169 47.7966 58.4951 47.6904 58.7071 47.4784C58.8081 47.3775 58.8882 47.2578 58.9429 47.1259C58.9976 46.9941 59.0258 46.8528 59.0258 46.7101C59.0259 46.5674 58.9978 46.4261 58.9432 46.2942C58.8886 46.1624 58.8086 46.0425 58.7077 45.9416ZM44.198 34.9841L42.3128 33.0989C41.758 32.5441 41.7573 31.6424 42.3097 31.0862C42.3107 31.0853 42.3119 31.0844 42.3129 31.0833L42.316 31.0799C42.5829 30.8143 42.9442 30.6655 43.3208 30.6661C43.6858 30.6661 44.0507 30.805 44.3286 31.0829L46.2138 32.9681C46.7696 33.5238 46.7696 34.4282 46.2138 34.9841C45.6581 35.5398 44.7539 35.5398 44.198 34.9841ZM51.9275 42.7136L50.0424 40.8285C49.4866 40.2728 49.4866 39.3684 50.0424 38.8126C50.3203 38.5347 50.6854 38.3957 51.0504 38.3957C51.4155 38.3957 51.7806 38.5347 52.0584 38.8126L53.9436 40.6976C54.4994 41.2534 54.4994 42.1577 53.9436 42.7136C53.3876 43.2692 52.4834 43.2693 51.9275 42.7136Z" fill="#0681AF"/>
<path d="M71.9995 60.9781C71.9995 61.7813 71.3858 62.4518 70.5856 62.5234C65.9555 62.9374 65.4866 65.3609 59.999 65.3609C53.9989 65.3609 53.9989 62.4635 47.9986 62.4635C41.9986 62.4635 41.9986 65.3609 35.9987 65.3609C29.999 65.3609 29.999 62.4635 23.9992 62.4635C17.9993 62.4635 17.9993 65.3609 11.9994 65.3609C6.51216 65.3609 6.04346 62.9374 1.41369 62.5234C1.02764 62.4889 0.668485 62.3112 0.406867 62.0252C0.145249 61.7392 0.000110065 61.3657 0 60.9781L0 48.014C5.99972 48.014 5.99972 50.9114 11.9996 50.9114C17.9994 50.9114 17.9994 48.014 23.9993 48.014C29.999 48.014 29.999 50.9114 35.9989 50.9114C41.9989 50.9114 41.9989 48.014 47.9988 48.014C53.9989 48.014 53.9989 50.9114 59.9992 50.9114C65.9995 50.9114 65.9993 48.014 71.9996 48.014L71.9995 60.9781Z" fill="#01D0FB"/>
</svg>
