<svg xmlns="http://www.w3.org/2000/svg" width="60.585" height="59.999" viewBox="0 0 60.585 59.999">
  <g id="ic-football" transform="translate(0 -2.475)">
    <circle id="Ellipse_137" data-name="Ellipse 137" cx="7.046" cy="7.046" r="7.046" transform="translate(46.493 48.383)" fill="#e5e1e5"/>
    <path id="Path_4674" data-name="Path 4674" d="M417.7,391.325a7.043,7.043,0,0,1-6.032,12.071,7.045,7.045,0,1,0,6.032-12.071Z" transform="translate(-362.955 -342.838)" fill="#c9bfc8"/>
    <path id="Path_4675" data-name="Path 4675" d="M63.919,280.088l-1.151,5.624a1.482,1.482,0,0,1-.883,1.072l-11.7,4.865v5.277l16.169-6.414a2.989,2.989,0,0,0,1.7-1.732l1.814-4.848Z" transform="translate(-44.242 -244.763)" fill="#fed2a4"/>
    <path id="Path_4676" data-name="Path 4676" d="M63.919,280.088l-.1.47,2.416,1.563-1.814,4.848a2.99,2.99,0,0,1-1.7,1.732L50.18,293.678v3.248l16.169-6.414a2.989,2.989,0,0,0,1.7-1.732l1.814-4.848Z" transform="translate(-44.242 -244.763)" fill="#ffbd86"/>
    <path id="Path_4677" data-name="Path 4677" d="M173.633,234.948l9.735,4.085,7.288,5.49a4.134,4.134,0,0,1,1.612,2.771l1.84,14.2h-5.271l-2.691-13.68-11.519-5.7Z" transform="translate(-153.087 -204.965)" fill="#fed2a4"/>
    <path id="Path_4678" data-name="Path 4678" d="M192.267,247.294a4.134,4.134,0,0,0-1.612-2.771l-7.288-5.49-9.735-4.085.179,1.293,6.654,2.792,7.288,5.49a4.134,4.134,0,0,1,1.612,2.771l1.84,14.2h2.9Z" transform="translate(-153.087 -204.965)" fill="#ffbd86"/>
    <path id="Path_4679" data-name="Path 4679" d="M183.368,113.217l6.525-15.465a2.757,2.757,0,0,0-1.363-3.565l-3.222-1.52a4.392,4.392,0,0,0-5.188,1.089,8.755,8.755,0,0,0-1.563,2.6l-4.925,12.78Z" transform="translate(-153.087 -79.148)" fill="#fe9738"/>
    <path id="Path_4680" data-name="Path 4680" d="M188.529,94.191l-3.222-1.52a4.4,4.4,0,0,0-2.227-.405,4.824,4.824,0,0,0,3.659,4.619l.009,0a.737.737,0,0,1,.513,1l-2.512,5.953a8.231,8.231,0,0,1-10.769,4.39l-.261.678-.087.226,9.735,4.085,6.525-15.465a2.757,2.757,0,0,0-1.363-3.565Z" transform="translate(-153.086 -79.153)" fill="#fe860a"/>
    <path id="Path_4681" data-name="Path 4681" d="M296.635,141.086l3.116,2.1h8.138a2.235,2.235,0,0,1,.083,4.468l-8.385.311a2.424,2.424,0,0,1-1.428-.4l-3.325-2.2Z" transform="translate(-259.945 -122.209)" fill="#fed2a4"/>
    <path id="Path_4682" data-name="Path 4682" d="M302.116,459.312h5.271l2.7,2.463a2,2,0,0,1-1.347,3.478h-4.254a2.37,2.37,0,0,1-2.369-2.37Z" transform="translate(-266.367 -402.78)" fill="#0067c5"/>
    <path id="Path_4683" data-name="Path 4683" d="M327.348,461.774l-2.7-2.463h-2.954l2.7,2.463a2,2,0,0,1-1.347,3.478H326a2,2,0,0,0,1.347-3.478Z" transform="translate(-283.628 -402.779)" fill="#0055a3"/>
    <path id="Path_4684" data-name="Path 4684" d="M5.938,377.809v5.275l-2.462,2.7A2,2,0,0,1,0,384.437v-4.963a1.664,1.664,0,0,1,1.664-1.665Z" transform="translate(0 -330.921)" fill="#0067c5"/>
    <path id="Path_4685" data-name="Path 4685" d="M2,398.136a2,2,0,0,1-2-2V399.4a2,2,0,0,0,3.476,1.348l2.462-2.7v-3.266l-2.462,2.7A2,2,0,0,1,2,398.136Z" transform="translate(0 -345.886)" fill="#0055a3"/>
    <path id="Path_4686" data-name="Path 4686" d="M103.208,128.438l-2.328.089L95.846,133.5a2.468,2.468,0,1,1-3.44-3.541l5.265-5.041a3.71,3.71,0,0,1,2.37-1.025l3.175-.168Z" transform="translate(-80.801 -106.902)" fill="#fed2a4"/>
    <path id="Path_4687" data-name="Path 4687" d="M189.37,121.838l-.008,4.714,3.9-.149a1.644,1.644,0,0,0,1.548-1.315l.446-2.189a1.1,1.1,0,0,0-1.132-1.314Z" transform="translate(-166.955 -105.015)" fill="#fe860a"/>
    <path id="Path_4688" data-name="Path 4688" d="M299.751,143.184l-3.116-2.1-1.8,4.272,3.325,2.2a2.421,2.421,0,0,0,.673.31Z" transform="translate(-259.946 -122.21)" fill="#fe9738"/>
    <path id="Path_4689" data-name="Path 4689" d="M159.486,241.854l-6.543-2.82-9.735-4.085-3.973,9.738a1.481,1.481,0,0,0,.32,1.6l4.467,4.506a1.484,1.484,0,0,0,2.34-.305l2.372-4.13,4.437,3.1a1.484,1.484,0,0,0,1.917-.184l4.876-5.037A1.482,1.482,0,0,0,159.486,241.854Z" transform="translate(-122.663 -204.965)" fill="#0067c5"/>
    <path id="Path_4690" data-name="Path 4690" d="M159.486,262.487l-.5-.217L157.6,263.7a5.711,5.711,0,0,1-7.377.707l2.725-4.743-3.135-1.316-3.256,5.668a4.545,4.545,0,0,1-7.168.936l-.149.365a1.481,1.481,0,0,0,.319,1.6l4.468,4.507a1.483,1.483,0,0,0,2.34-.306l2.372-4.13,4.437,3.1a1.484,1.484,0,0,0,1.917-.184l4.875-5.036A1.482,1.482,0,0,0,159.486,262.487Z" transform="translate(-122.663 -225.599)" fill="#0055a3"/>
    <path id="Path_4691" data-name="Path 4691" d="M254.458,15.106a4.823,4.823,0,0,1-3.516-5.845l.775-3.122a4.822,4.822,0,1,1,9.359,2.325l-.775,3.122a4.823,4.823,0,0,1-5.843,3.52Z" transform="translate(-221.121 0)" fill="#fed2a4"/>
    <path id="Path_4692" data-name="Path 4692" d="M265.867,12.808c-.02.114-.044.227-.072.341l-.388,1.56h0l-.388,1.562A4.82,4.82,0,0,1,256.15,17.5a4.821,4.821,0,0,0,7.058-3.035l.232-.932.543-2.189a4.807,4.807,0,0,0-.428-3.44l-.06-.109c.026.015.052.03.078.046A4.825,4.825,0,0,1,265.867,12.808Z" transform="translate(-225.84 -4.686)" fill="#ffbd86"/>
    <path id="Path_4693" data-name="Path 4693" d="M261.517,2.618a4.823,4.823,0,0,0-5.843,3.52L255.287,7.7l1.666,1.106a1.231,1.231,0,0,0,1.6-.2l.624-.7a1.231,1.231,0,0,1,1.551-.234l3.92,2.356.388-1.561a4.823,4.823,0,0,0-3.516-5.845Z" transform="translate(-225.079 0)" fill="#685e68"/>
    <path id="Path_4694" data-name="Path 4694" d="M320.187,12.808c-.02.114-.044.227-.072.341l-.388,1.56h0l-1.967-1.182.543-2.189a4.807,4.807,0,0,0-.428-3.44l-.06-.109c.026.015.052.03.078.046a4.825,4.825,0,0,1,2.294,4.972Z" transform="translate(-280.16 -4.686)" fill="#554e56"/>
  </g>
</svg>
