<svg width="72" height="72" viewBox="0 0 72 72" fill="none" xmlns="http://www.w3.org/2000/svg">
<path d="M35.9999 3.09399C16.972 3.09399 1.54688 18.5192 1.54688 37.547C1.54688 49.84 7.98637 60.6275 17.6749 66.725L35.5027 71.9936C35.6684 71.996 35.8336 72 35.9999 72C55.0277 72 70.4528 56.5748 70.4528 37.547C70.4528 18.5192 55.0277 3.09399 35.9999 3.09399Z" fill="#4FABF7"/>
<path d="M44.1876 5.49576C43.1833 4.9957 41.7434 4.14632 40.611 2.94721C37.4883 -0.359585 29.7436 -1.79509 26.0659 3.57299C25.83 3.91724 25.4996 4.18471 25.121 4.36007C23.2867 5.21001 18.8194 8.29701 23.257 16.0488C24.3156 17.898 25.0015 19.4474 25.4226 20.745C26.2485 19.8093 26.9938 18.6974 27.0221 17.7071C27.0514 16.6849 26.7638 15.8969 26.5327 15.2639C26.2686 14.5405 26.0941 14.0628 26.4433 13.5868C26.9336 12.9181 27.7542 13.0718 28.3592 13.4388C28.7013 13.6464 28.9062 14.04 28.8941 14.4661L28.8734 15.1864C28.8666 15.4373 28.9595 15.6807 29.1318 15.8632C29.3041 16.0457 29.5418 16.1524 29.7927 16.1599C30.0353 16.1671 30.2714 16.0808 30.4521 15.9188C30.6329 15.7567 30.7444 15.5314 30.7636 15.2894C31.0358 11.8581 31.5522 9.47516 32.1451 8.9152C32.6139 8.47251 33.7053 8.6106 35.0862 8.7854C36.696 8.98902 38.6795 9.24046 40.8288 8.77738C40.8161 8.82927 40.8025 8.88862 40.7886 8.95077L41.1124 8.50288C41.1124 8.50288 42.7877 7.89398 44.2665 6.91691C44.796 6.56718 44.7552 5.77827 44.1876 5.49576Z" fill="#3C58A0"/>
<path d="M25.121 4.3601C23.2867 5.21004 18.8194 8.29704 23.257 16.0488C24.3156 17.8981 25.0015 19.4475 25.4226 20.745C26.2485 19.8093 26.9938 18.6974 27.0221 17.7071C27.0514 16.6849 26.7638 15.897 26.5327 15.2639C26.2686 14.5405 26.0941 14.0628 26.4433 13.5868C26.9336 12.9181 27.7541 13.0718 28.3592 13.4388C28.7013 13.6464 28.9063 14.04 28.8941 14.4661L28.8734 15.1864C28.8666 15.4373 28.9595 15.6807 29.1319 15.8632C29.3042 16.0457 29.5419 16.1524 29.7928 16.1599C30.0355 16.1672 30.2716 16.0808 30.4523 15.9188C30.633 15.7568 30.7445 15.5314 30.7637 15.2895C31.0196 12.064 31.4912 9.7653 32.0393 9.03588C26.3571 8.74563 26.0657 3.5733 26.0657 3.5733C25.8302 3.91713 25.4996 4.1846 25.121 4.3601Z" fill="#2A428C"/>
<path d="M35.3499 32.5796C35.178 32.1503 34.9559 31.6605 34.7249 31.1395L34.7291 31.1615C33.1236 29.2504 30.1607 28.3277 26.0905 27.0599C25.9385 26.9862 23.8067 26.5333 22.5526 24.9839C22.3018 24.6738 21.9648 24.1531 21.9077 23.7253C18.9975 26.5444 11.8128 34.8115 14.6992 45.4355C16.8213 53.2468 17.2598 61.2401 17.2644 66.4632C21.0183 68.9004 25.2761 70.6261 29.8474 71.4507L33.95 71.9377L33.9487 71.9391C34.6275 71.9789 35.3113 72 36 72C36.0278 72 36.0553 71.999 36.083 71.999C36.4723 69.2788 37.8746 59.6688 39.2713 52.4315C40.9145 43.9172 35.3499 32.5796 35.3499 32.5796Z" fill="#3C58A0"/>
<path d="M32.378 41.4546C26.5609 38.6356 28.63 32.052 29.1845 30.5712C29.2166 30.4854 29.227 30.3931 29.2147 30.3023C29.2024 30.2116 29.1678 30.1253 29.1141 30.0512C28.6826 29.455 28.8502 28.8488 29.016 28.5027C29.0951 28.3379 29.0831 28.151 29.0002 27.9904C28.1056 27.688 27.1352 27.3853 26.0905 27.0599C25.9385 26.9862 23.8067 26.5333 22.5526 24.9839C22.3018 24.6738 21.9648 24.1531 21.9077 23.7253C18.9975 26.5444 11.8128 34.8115 14.6992 45.4355C16.8213 53.2468 17.2598 61.2401 17.2644 66.4632C21.0183 68.9004 25.2761 70.6261 29.8474 71.4507L33.95 71.9377L33.9487 71.9391C34.6275 71.9789 35.3113 72 36 72C36.0278 72 36.0553 71.999 36.083 71.999C36.4723 69.2788 37.8746 59.6688 39.2713 52.4315C39.5008 51.2421 39.5895 49.9974 39.5725 48.7364C36.7155 46.7095 37.6293 43.9995 32.378 41.4546Z" fill="#2A428C"/>
<path d="M28.3568 47.3731C27.842 46.8643 27.2394 46.4528 26.5782 46.1585C25.1234 45.5098 23.8904 44.4544 23.0215 43.1376C23.0983 46.2393 23.5836 50.1723 25.1711 53.8041C27.7541 59.7133 31.0499 65.8232 29.8353 71.4493C31.1958 71.6943 32.5698 71.8574 33.9499 71.9377C34.7202 69.2872 35.0984 65.5276 33.4107 61.2444C31.3909 56.1188 29.1901 51.6382 28.3568 47.3731Z" fill="#BBEA49"/>
<path d="M27.0342 57.9769C27.9124 54.7192 31.1872 55.8333 31.1876 55.8335C29.9582 52.8548 28.884 50.0707 28.3568 47.3731C27.842 46.8643 27.2394 46.4528 26.5782 46.1585C25.1234 45.5098 23.8904 44.4544 23.0215 43.1376C23.0983 46.2393 23.5836 50.1723 25.1711 53.8041C25.7755 55.187 26.4187 56.5808 27.0342 57.9769Z" fill="#9FD332"/>
<path d="M41.5018 14.4275C40.0464 11.9967 41.1123 8.5026 41.1123 8.5026C36.8969 9.5511 33.1547 7.68163 32.0053 8.76711C31.1027 9.61944 30.6963 13.5786 30.5633 15.2398C30.5331 15.6177 30.2379 15.9363 29.8593 15.9557C29.7567 15.9612 29.654 15.9454 29.5578 15.9092C29.4616 15.873 29.374 15.8172 29.3004 15.7454C29.2268 15.6737 29.1689 15.5874 29.1303 15.4921C29.0918 15.3968 29.0734 15.2946 29.0763 15.1918L29.0971 14.4644C29.1109 13.9812 28.8775 13.5155 28.4642 13.2647C27.7311 12.8199 26.8159 12.7344 26.279 13.4664C25.5121 14.5119 26.8798 15.5677 26.8186 17.7012C26.7811 19.0126 25.3723 20.5917 24.292 21.6143C24.3839 21.6625 24.4594 21.7369 24.5088 21.8281C24.5627 22.0341 25.0515 23.7125 26.8788 24.5912C28.7076 25.4703 31.6263 27.177 32.8631 27.6792C33.1279 27.7866 33.3942 27.9769 33.6312 28.2122C33.4951 27.6633 33.4226 27.1337 33.4572 26.6529C33.7282 22.8845 37.9921 26.6496 39.3684 25.6857C41.4608 24.2205 39.8368 19.3839 40.9371 19.122C43.183 18.5875 42.9573 16.8584 41.5018 14.4275Z" fill="#F9BA8F"/>
<path d="M29.0763 15.1919L29.0971 14.4644C29.1109 13.9812 28.8775 13.5155 28.4642 13.2648C27.7311 12.82 26.8159 12.7345 26.279 13.4664C25.5121 14.512 26.8798 15.5678 26.8186 17.7012C26.7811 19.0127 25.3723 20.5917 24.292 21.6144C24.3839 21.6625 24.4594 21.7369 24.5088 21.8281C24.5627 22.0341 25.0515 23.7125 26.8788 24.5913C28.7076 25.4703 31.6262 27.1771 32.8631 27.6792C33.1279 27.7867 33.3942 27.9769 33.6312 28.2122C33.4951 27.6633 33.4226 27.1338 33.4572 26.653C33.5928 24.7682 34.7272 24.7679 35.9996 25.118C29.484 22.4934 29.8593 15.9559 29.8593 15.9559C29.7567 15.9613 29.654 15.9454 29.5578 15.9092C29.4616 15.873 29.374 15.8173 29.3004 15.7455C29.2268 15.6737 29.169 15.5874 29.1304 15.4921C29.0918 15.3969 29.0734 15.2946 29.0763 15.1919Z" fill="#FFAA7B"/>
<path d="M34.5745 29.5578C34.4211 28.7552 33.6768 27.8481 32.9197 27.5408C31.6884 27.041 28.788 25.3433 26.9438 24.4566C25.0784 23.5597 24.6496 21.7749 24.6496 21.7749C24.4443 21.3646 23.901 21.2702 23.5667 21.5846L21.9495 23.1055C21.851 23.1984 21.7821 23.3183 21.7513 23.4502C21.7206 23.5821 21.7295 23.7201 21.7768 23.847C21.7768 23.847 22.1988 26.0034 25.6785 27.0881C30.0024 28.436 33.1067 29.3584 34.7062 31.3695C34.7787 31.4607 34.9253 31.392 34.9035 31.2775L34.5745 29.5578Z" fill="#BBEA49"/>
<path d="M59.529 38.3927C59.4743 38.3963 59.42 38.4008 59.3652 38.4033C59.2017 38.4113 59.0381 38.4154 58.8745 38.4157C57.3473 38.4172 55.839 38.0763 54.4609 37.4182C54.2222 37.8498 53.9723 38.2181 53.7167 38.4737C52.3242 39.8664 48.7051 42.1643 47.5476 45.6842C47.4829 45.881 47.2145 45.9037 47.1198 45.7193C46.7604 45.0196 45.9846 43.7342 44.56 42.2675C43.4952 45.2117 40.595 51.1068 33.8857 53.7258C35.6676 54.9804 37.9049 56.0534 40.6733 56.5691C40.6733 56.5691 45.5507 60.2485 49.5244 59.1008C49.7928 59.0231 50.0741 59.0068 50.3486 59.0597C50.8348 59.1534 51.6741 59.2119 52.3334 58.7204C53.0259 58.2041 53.2151 57.4684 53.2649 57.044C53.2933 56.8017 53.3703 56.5695 53.4981 56.3617C54.4905 54.7483 58.5878 47.6372 59.8041 38.3729C59.7129 38.3815 59.621 38.387 59.529 38.3927Z" fill="#F9BA8F"/>
<path d="M44.6457 51.3528L42.7341 46.0919C41.0545 48.8739 38.2914 52.0063 33.8857 53.726C35.6676 54.9807 37.9049 56.0537 40.6733 56.5693C39.7917 52.3258 44.6457 51.3528 44.6457 51.3528Z" fill="#FCAD6D"/>
<path d="M54.4603 37.4183C54.2217 37.8499 53.9718 38.2182 53.7161 38.4739C52.3236 39.8665 48.7045 42.1644 47.547 45.6843C47.4823 45.8811 47.2139 45.9038 47.1192 45.7194C46.7598 45.0197 45.984 43.7344 44.5595 42.2676C43.9348 43.9948 42.677 46.7371 40.3906 49.2381C40.9869 49.5561 41.7105 50.4861 42.6105 50.758C49.3591 52.7971 49.4646 52.325 50.7654 51.0242C52.0662 49.7234 56.9565 42.5871 56.9565 38.2351C56.0927 38.0716 55.2537 37.7971 54.4603 37.4183Z" fill="#FCAD6D"/>
<path d="M43.3001 41.0809C42.2774 43.9689 39.3577 50.0601 32.3779 52.5362C32.8701 52.9704 33.4066 53.3974 33.994 53.8041C40.8386 51.227 43.6731 45.1523 44.6455 42.3534C44.2176 41.9081 43.7686 41.4834 43.3001 41.0809Z" fill="#DAE2FE"/>
<path d="M38.9621 48.2446C37.3285 49.9636 35.1813 51.5417 32.3779 52.5362C32.8701 52.9703 33.4066 53.3974 33.994 53.8041C36.8083 52.7445 38.9434 51.0933 40.5512 49.3218C39.8886 48.9857 39.3773 48.625 38.9621 48.2446Z" fill="#AAB9F2"/>
<path d="M38.9209 38.1381C38.4491 37.8908 38.0836 37.4798 37.9029 36.9789L37.4642 35.7621C37.2909 35.2817 37.0848 34.8126 36.8263 34.3723C35.3285 31.8199 32.5063 30.1386 29.3034 30.2721C24.9809 30.4522 21.4833 33.9969 21.3571 38.3214C21.2555 41.8103 23.3062 44.8327 26.2799 46.1586C27.3673 46.6435 28.2876 47.4335 28.9162 48.4447C29.6345 49.6004 30.7973 51.171 32.4996 52.6449C39.482 50.1483 42.3872 44.03 43.3953 41.1637C42.2353 40.1528 40.7682 39.106 38.9209 38.1381Z" fill="#4F71B6"/>
<path d="M32.3781 41.4545C26.561 38.6356 28.6301 32.0519 29.1846 30.5712C29.2194 30.4775 29.2281 30.3762 29.2099 30.278C24.9307 30.5051 21.4823 34.028 21.3571 38.3211C21.2555 41.81 23.3062 44.8324 26.2799 46.1583C27.3673 46.6432 28.2876 47.4332 28.9162 48.4445C29.6345 49.6001 30.7973 51.1708 32.4996 52.6446C35.2979 51.6441 37.44 50.0614 39.069 48.3398C36.8072 46.364 37.2942 43.837 32.3781 41.4545Z" fill="#3C58A0"/>
<path d="M67.8229 29.3113C68.3299 24.3624 64.7291 19.9396 59.7803 19.4325C54.8314 18.9255 50.4085 22.5263 49.9015 27.4751C49.3944 32.424 52.9952 36.8468 57.9441 37.3539C62.8929 37.8609 67.3158 34.2601 67.8229 29.3113Z" fill="#6289CC"/>
<path d="M64.0461 35.7896C63.8479 35.4725 63.7981 35.1122 63.7968 34.8371C63.7957 34.596 63.6077 34.3956 63.3673 34.3749C60.3769 34.1167 60.6537 31.3689 60.7874 30.614C60.7984 30.5514 60.7966 30.4872 60.782 30.4253C60.7674 30.3634 60.7403 30.3051 60.7025 30.254L57.6677 26.1199C57.5895 26.0133 57.4688 25.948 57.3372 25.934C54.4817 25.6313 54.488 23.4237 54.643 22.4215C54.6822 22.1678 54.5061 21.933 54.2534 21.888C53.7946 21.8061 53.487 21.608 53.2823 21.3581C51.202 23.008 49.8662 25.5559 49.8662 28.4173C49.8662 33.3921 53.8991 37.4249 58.8738 37.4249C60.7254 37.4271 62.5323 36.8558 64.0461 35.7896Z" fill="#4F71B6"/>
<path d="M58.8746 38.697C53.2062 38.697 48.5947 34.0855 48.5947 28.4172C48.5947 22.7489 53.2062 18.1374 58.8746 18.1374C64.5429 18.1374 69.1544 22.7489 69.1544 28.4172C69.1544 34.0855 64.5429 38.697 58.8746 38.697ZM58.8746 20.6819C54.6094 20.6819 51.1392 24.1519 51.1392 28.4172C51.1392 32.6825 54.6093 36.1526 58.8746 36.1526C63.1398 36.1526 66.6099 32.6825 66.6099 28.4172C66.6098 24.1519 63.1397 20.6819 58.8746 20.6819Z" fill="#4F71B6"/>
<path d="M65.2269 36.4904C65.2238 36.4898 65.221 36.4884 65.2177 36.488C63.9984 36.2935 63.8001 35.3919 63.7976 34.8372C63.7969 34.7734 63.7831 34.7104 63.7569 34.6522C63.7307 34.594 63.6927 34.5419 63.6454 34.4991C62.33 35.5333 60.6737 36.1524 58.8744 36.1524C54.6093 36.1524 51.1392 32.6824 51.1392 28.4171C51.1392 25.7669 52.4795 23.4243 54.5171 22.0299C54.4468 21.9558 54.3548 21.906 54.2543 21.8877C53.085 21.6793 52.8917 20.7193 52.9035 20.0571C50.2977 21.9237 48.5947 24.9743 48.5947 28.4171C48.5947 34.0854 53.2062 38.6969 58.8746 38.6969C61.2709 38.6971 63.4768 37.8705 65.2269 36.4904Z" fill="#3C58A0"/>
<path d="M61.4688 29.4601C62.0533 28.0284 61.3666 26.3938 59.9349 25.8093C58.5031 25.2247 56.8686 25.9115 56.284 27.3432C55.6995 28.7749 56.3862 30.4094 57.818 30.994C59.2497 31.5786 60.8842 30.8918 61.4688 29.4601Z" fill="#DAE2FE"/>
<path d="M1.54688 37.547C1.54688 47.4343 5.71331 56.3469 12.3847 62.6294C13.4807 59.6051 12.2029 54.8476 10.2992 48.1404C6.63469 35.2289 13.771 25.2742 16.9533 18.8724C18.857 15.043 16.3439 12.469 14.0168 11.0185C6.399 17.3383 1.54688 26.8757 1.54688 37.547Z" fill="#73C3F9"/>
<path d="M25.6783 27.088C26.9061 27.4708 28.0353 27.8192 29.0599 28.168C27.9792 26.4839 29.6667 25.8769 29.6667 25.8769C28.7079 25.3599 27.7299 24.8345 26.9438 24.4566C25.0784 23.5597 24.6496 21.7749 24.6496 21.7749C24.4443 21.3646 23.901 21.2702 23.5667 21.5846L21.9495 23.1055C21.851 23.1984 21.7821 23.3183 21.7513 23.4502C21.7206 23.5821 21.7295 23.7201 21.7768 23.847C21.7768 23.847 22.1987 26.0032 25.6783 27.088Z" fill="#9FD332"/>
<path d="M47.4009 5.02777C47.5199 6.39521 47.4016 7.92676 46.5199 8.80847C43.1482 12.1801 45.1575 18.1374 48.5942 18.1374C51.4638 18.1374 55.6633 13.4961 62.4825 15.51C58.535 10.7713 53.3396 7.10986 47.4009 5.02777Z" fill="#73C3F9"/>
</svg>
