<svg width="72" height="72" viewBox="0 0 72 72" fill="none" xmlns="http://www.w3.org/2000/svg">
<path d="M36.1745 11.7062L37.6344 8.28001C38.7094 5.75748 41.6254 4.58312 44.1491 5.65694C46.6716 6.73201 47.846 9.64801 46.7722 12.1717L45.3124 15.5979C44.2373 18.1204 41.3213 19.2947 38.7976 18.2209C36.2738 17.1447 35.1007 14.2287 36.1745 11.7062ZM19.8604 67.0345L26.1789 67.1089L30.0024 53.3793H22.7404L19.8604 67.0345Z" fill="#F2BB80"/>
<path d="M16.1357 70.3862C16.1357 71.2775 16.8583 72 17.7496 72H24.8254L26.1909 67.109L19.8598 67.0344L16.8556 69.033C16.6337 69.1821 16.4519 69.3835 16.3264 69.6195C16.2008 69.8556 16.1353 70.1189 16.1357 70.3862ZM44.6874 67.0346H38.3439L39.7219 72H46.7978C47.689 72 48.4116 71.2775 48.4116 70.3862C48.412 70.1189 48.3465 69.8556 48.2209 69.6196C48.0953 69.3836 47.9135 69.1822 47.6916 69.0331L44.6874 67.0346Z" fill="#DE4C3C"/>
<path d="M41.6581 53.3793H34.545L38.3435 67.0345H44.687L41.6581 53.3793ZM25.1477 10.378L35.9973 4.33252L33.5766 0L22.1311 6.20691C21.4159 6.59327 20.7885 7.12367 20.2885 7.76466C19.7886 8.40565 19.4269 9.1433 19.2263 9.93108C19.0365 10.7075 19.0047 11.5142 19.1326 12.3032C19.2606 13.0922 19.5457 13.8475 19.9711 14.5242L23.025 20.2842L28.3753 16.2373L25.1477 10.378Z" fill="#F2BB80"/>
<path d="M39.7223 44.6897L24.8257 43.4484L22.7402 53.3793H30.0022L31.0326 49.6551H33.5153L34.5457 53.3793H41.6588L39.7223 44.6897Z" fill="#666666"/>
<path d="M31.0323 21.1035L28.3757 16.262L23.0254 20.3089L26.0668 26.0689V34.7586L24.8254 43.4484L39.7219 44.6897L43.4461 23.5862L31.0323 21.1035Z" fill="#DE4C3C"/>
<path d="M28.3264 43.7338C26.8611 45.6594 25.2774 47.4919 23.5844 49.2207L22.7402 53.3793H30.0022L31.0326 49.6551H33.5153L34.5457 53.3793H41.6588L39.7223 44.6897L28.3264 43.7338Z" fill="#595959"/>
<path d="M39.722 44.6896L43.4462 23.5862L39.9951 22.8911C36.996 30.301 33.0755 37.3037 28.3262 43.7338L39.722 44.6896Z" fill="#CF4737"/>
<path d="M43.4461 23.5862L42.4033 29.4951L46.0404 32.1269L49.3426 27.72L43.4461 23.5862Z" fill="#CF4737"/>
<path d="M53.6623 30.7365L49.3423 27.72L46.0402 32.1269L49.6526 34.7585L40.7768 38.7062L39.7217 44.6896L52.57 39.7241C55.2191 38.705 56.54 35.7307 55.5195 33.0816C55.1506 32.1242 54.5039 31.2989 53.6624 30.7118V30.7365H53.6623Z" fill="#F2BB80"/>
</svg>
