<svg width="72" height="72" viewBox="0 0 72 72" fill="none" xmlns="http://www.w3.org/2000/svg">
<path d="M71.6135 18.1508C70.7377 16.8297 68.9379 16.6503 67.8231 17.6808L61.2971 23.7192C61.1172 23.8857 60.8923 23.9955 60.6504 24.0349C60.4086 24.0744 60.1604 24.0419 59.937 23.9413L54.4053 21.4521C53.8518 21.203 53.2093 21.3979 52.8638 21.897C51.6148 23.7002 49.6578 24.5874 48.0457 23.9108C46.3785 23.211 45.6399 21.0763 46.1471 18.8395C46.2786 18.2596 45.993 17.6666 45.4508 17.4226L39.3974 14.6987C38.3167 14.2124 37.1199 14.0437 35.9469 14.2125C34.7739 14.3812 33.6732 14.8804 32.7734 15.6516L25.9417 21.5073C24.9977 22.3165 24.6754 23.7111 25.3217 24.7731C26.146 26.1271 27.9386 26.3745 29.0906 25.3859L36.0241 19.4431C36.2041 19.2888 36.4243 19.189 36.6589 19.1552C36.8936 19.1214 37.133 19.1552 37.3492 19.2524L40.2302 20.5487C41.4999 21.1201 42.0569 22.6193 41.4687 23.8811L31.6079 45.0274C31.4788 45.3055 31.2518 45.5262 30.9702 45.6473C30.6886 45.7684 30.3722 45.7815 30.0816 45.684L20.1422 42.3771L18.4512 47.0756L29.3772 50.708C30.0139 50.9209 30.6809 51.0296 31.3523 51.0299C33.7193 51.0299 35.9584 49.6754 37.008 47.4242L39.7938 41.9821L51.3569 46.7623C51.5263 46.8326 51.6781 46.9395 51.8013 47.0753C51.9246 47.2112 52.0164 47.3726 52.07 47.548L56.1793 60.3444H61.173L56.5859 45.0608C56.3173 44.1841 55.8585 43.3775 55.2421 42.6987C54.6257 42.0198 53.8671 41.4855 53.0203 41.1338L46.8265 38.5532L51.5809 28.3579C52.1581 27.12 53.6229 26.5757 54.8683 27.1361L57.8873 28.4947C58.6933 28.8581 59.5673 29.0461 60.4514 29.0464C62.0227 29.0461 63.5359 28.4527 64.6885 27.3848L71.12 21.4343C72.032 20.5909 72.3 19.186 71.6135 18.1508Z" fill="#F5C882"/>
<path d="M32.1446 43.8756L31.6074 45.0275C31.4783 45.3055 31.2513 45.5262 30.9697 45.6473C30.6881 45.7685 30.3717 45.7815 30.0811 45.6841L31.8656 46.2564C32.9807 46.614 34.1865 46.0758 34.6646 45.0068L34.6983 44.9313L32.1446 43.8756Z" fill="#F5AF73"/>
<path d="M33.7078 32.8783H1.24847C1.08451 32.8783 0.922145 32.8461 0.770657 32.7833C0.619169 32.7206 0.481524 32.6286 0.365586 32.5127C0.249647 32.3968 0.157687 32.2591 0.0949588 32.1076C0.0322305 31.9561 -3.69174e-05 31.7938 3.16966e-08 31.6298C-3.69174e-05 31.4659 0.0322305 31.3035 0.0949588 31.152C0.157687 31.0005 0.249647 30.8629 0.365586 30.7469C0.481524 30.631 0.619169 30.539 0.770657 30.4763C0.922145 30.4136 1.08451 30.3813 1.24847 30.3813H33.7078C33.8718 30.3813 34.0341 30.4136 34.1856 30.4763C34.3371 30.539 34.4748 30.631 34.5907 30.7469C34.7066 30.8629 34.7986 31.0005 34.8613 31.152C34.9241 31.3035 34.9563 31.4659 34.9563 31.6298C34.9563 31.7938 34.9241 31.9561 34.8613 32.1076C34.7986 32.2591 34.7066 32.3968 34.5907 32.5127C34.4748 32.6286 34.3371 32.7206 34.1856 32.7833C34.0341 32.8461 33.8718 32.8783 33.7078 32.8783Z" fill="#D5DCED"/>
<path d="M21.2237 27.8851L11.2362 27.8845C11.0722 27.8846 10.9099 27.8523 10.7584 27.7896C10.6069 27.7268 10.4693 27.6349 10.3533 27.5189C10.2374 27.403 10.1454 27.2654 10.0827 27.1139C10.02 26.9624 9.98771 26.8 9.98774 26.6361C9.98774 25.9466 10.5473 25.3876 11.2362 25.3876L21.2237 25.3882C21.3876 25.3881 21.55 25.4204 21.7015 25.4831C21.853 25.5458 21.9906 25.6378 22.1066 25.7537C22.2225 25.8697 22.3145 26.0073 22.3772 26.1588C22.4399 26.3103 22.4722 26.4727 22.4721 26.6366C22.4721 27.3261 21.9125 27.8851 21.2237 27.8851ZM17.4784 22.8914C16.7896 22.8914 16.2299 22.3324 16.2299 21.6429C16.2299 21.4789 16.2622 21.3166 16.3249 21.1651C16.3876 21.0136 16.4796 20.8759 16.5955 20.76C16.7115 20.6441 16.8491 20.5521 17.0006 20.4894C17.1521 20.4267 17.3145 20.3944 17.4784 20.3944L21.2237 20.3939C21.9125 20.3939 22.4721 20.9528 22.4721 21.6423C22.4722 21.8063 22.4399 21.9687 22.3772 22.1201C22.3145 22.2716 22.2225 22.4093 22.1066 22.5252C21.9906 22.6411 21.853 22.7331 21.7015 22.7958C21.55 22.8586 21.3876 22.8908 21.2237 22.8908L17.4784 22.8914ZM31.2111 37.872H11.2362C11.0722 37.872 10.9099 37.8398 10.7584 37.777C10.6069 37.7143 10.4693 37.6224 10.3533 37.5064C10.2374 37.3905 10.1454 37.2528 10.0827 37.1013C10.02 36.9499 9.98771 36.7875 9.98774 36.6235C9.98771 36.4596 10.02 36.2972 10.0827 36.1457C10.1454 35.9942 10.2374 35.8566 10.3533 35.7406C10.4693 35.6247 10.6069 35.5327 10.7584 35.47C10.9099 35.4073 11.0722 35.375 11.2362 35.3751H31.2111C31.3751 35.375 31.5375 35.4073 31.689 35.47C31.8404 35.5327 31.9781 35.6247 32.094 35.7406C32.21 35.8566 32.3019 35.9942 32.3647 36.1457C32.4274 36.2972 32.4597 36.4596 32.4596 36.6235C32.4597 36.7875 32.4274 36.9499 32.3647 37.1013C32.3019 37.2528 32.21 37.3905 32.094 37.5064C31.9781 37.6224 31.8404 37.7143 31.689 37.777C31.5375 37.8398 31.3751 37.872 31.2111 37.872ZM6.24248 27.8845H3.74554C3.58158 27.8846 3.41922 27.8523 3.26773 27.7896C3.11624 27.7268 2.97859 27.6349 2.86266 27.5189C2.74672 27.403 2.65476 27.2654 2.59203 27.1139C2.5293 26.9624 2.49703 26.8 2.49707 26.6361C2.49703 26.4721 2.5293 26.3097 2.59203 26.1583C2.65476 26.0068 2.74672 25.8691 2.86266 25.7532C2.97859 25.6372 3.11624 25.5453 3.26773 25.4826C3.41922 25.4198 3.58158 25.3876 3.74554 25.3876H6.24248C6.40644 25.3876 6.5688 25.4198 6.72029 25.4826C6.87178 25.5453 7.00942 25.6372 7.12536 25.7532C7.2413 25.8691 7.33326 26.0068 7.39599 26.1583C7.45872 26.3097 7.49098 26.4721 7.49095 26.6361C7.49098 26.8 7.45872 26.9624 7.39599 27.1139C7.33326 27.2654 7.2413 27.403 7.12536 27.5189C7.00942 27.6349 6.87178 27.7268 6.72029 27.7896C6.5688 27.8523 6.40644 27.8846 6.24248 27.8845Z" fill="#E4EAF8"/>
<path d="M64.9187 65.3382H56.1797V60.3445H61.1734C63.2418 60.3445 64.9187 62.0213 64.9187 64.0897V65.3382ZM12.4844 48.9093L15.443 40.6862L20.1418 42.3769L18.4511 47.0758C17.7508 49.022 15.6053 50.0323 13.659 49.3318L12.4844 48.9093Z" fill="#D5DCED"/>
<path d="M53.6832 17.8976C50.9252 17.8976 48.6895 15.6618 48.6895 12.9039V10.4069C48.6895 8.33849 50.3663 6.66168 52.4347 6.66168H58.0527C58.2182 6.66172 58.377 6.7275 58.494 6.84456C58.6111 6.96162 58.6769 7.12037 58.6769 7.28592V12.9039C58.6769 15.6618 56.4411 17.8976 53.6832 17.8976Z" fill="#F5C882"/>
<path d="M51.5812 28.358C52.1585 27.1201 53.6232 26.5759 54.8686 27.1363L55.7269 27.5226L57.867 23.0098L54.4053 21.4521C53.8518 21.203 53.2093 21.3979 52.8637 21.897C51.6147 23.7002 49.6578 24.5874 48.0456 23.9107C46.3784 23.211 45.64 21.0763 46.1471 18.8395C46.2785 18.2596 45.9929 17.6666 45.4507 17.4226L41.6077 15.6932L39.4678 20.2058L40.2298 20.5487C41.4995 21.12 42.0566 22.6192 41.4683 23.8811L36.5996 34.3218L46.8281 38.5502L51.5812 28.358Z" fill="#7DF5A5"/>
<path d="M46.828 38.5503L36.5995 34.3218L32.1445 43.8756L37.6576 46.1547L39.7935 41.9821L49.205 45.8728L51.3771 40.4493L46.8265 38.5534L46.828 38.5503Z" fill="#5B5D6E"/>
<path opacity="0.27" d="M42.59 21.5483L40.2298 20.5487C41.4995 21.1201 42.0566 22.6193 41.4683 23.8811L36.5996 34.3218L38.9999 35.3142L43.7915 24.6018C44.3167 23.4272 43.775 22.0502 42.59 21.5483Z" fill="#5B5D6E"/>
<path d="M38.9999 35.3141L36.5995 34.3218L32.1445 43.8756L34.6981 44.9313L38.9999 35.3141Z" fill="#464655"/>
<path d="M41.4683 23.8811L36.5996 34.3218L38.9999 35.3142L43.7915 24.6018C44.3168 23.4272 43.775 22.05 42.5901 21.5483L40.23 20.5487C41.4997 21.1202 42.0568 22.6194 41.4683 23.8811Z" fill="#64DCA0"/>
<path d="M52.4347 12.9039V10.4069C52.4347 8.33849 54.1115 6.66168 56.18 6.66168H52.4347C50.3663 6.66168 48.6895 8.33849 48.6895 10.4069V12.9039C48.6895 15.6618 50.9252 17.8976 53.6832 17.8976C54.3464 17.8976 54.9767 17.7622 55.5559 17.5274C53.7272 16.7858 52.4347 14.9986 52.4347 12.9039Z" fill="#F5AF73"/>
<path d="M52.4347 6.66168C50.3663 6.66168 48.6895 8.33849 48.6895 10.4069V12.9039C48.6895 13.3376 48.762 13.7512 48.8659 14.1524H51.0985C51.9334 14.1524 52.7129 13.7351 53.1761 13.0404L54.1904 11.5189C54.4185 11.1769 54.7274 10.8964 55.0898 10.7024C55.4522 10.5085 55.8569 10.407 56.268 10.4069H58.6771V7.28592C58.677 7.12037 58.6112 6.96162 58.4942 6.84456C58.3771 6.7275 58.2184 6.66172 58.0528 6.66168H52.4347Z" fill="#6E4848"/>
<path d="M48.6895 10.4069V12.9039C48.6895 13.3376 48.762 13.7512 48.8659 14.1524H51.0985C51.6097 14.1524 52.0902 13.9805 52.5 13.6997C52.4571 13.4366 52.4353 13.1706 52.4347 12.904V10.4069C52.4347 8.33849 54.1115 6.66168 56.18 6.66168H52.4347C50.3663 6.66168 48.6895 8.33849 48.6895 10.4069Z" fill="#643C3E"/>
</svg>
