<svg width="72" height="72" viewBox="0 0 72 72" fill="none" xmlns="http://www.w3.org/2000/svg">
<g clip-path="url(#clip0_58_35)">
<path d="M9.66699 55.17L55.1628 9.67444L62.3183 16.8299L16.8224 62.3257L9.66699 55.17Z" fill="#EBCA5F"/>
<path d="M57.9159 62.1696C56.8273 62.1696 55.7388 61.7543 54.9082 60.9238L11.076 17.0915C9.41478 15.4305 9.41478 12.7372 11.076 11.0762C12.737 9.41496 15.4303 9.41496 17.0914 11.0762L60.9236 54.9084C62.5848 56.5695 62.5848 59.2627 60.9236 60.9238C60.0931 61.7543 59.0045 62.1696 57.9159 62.1696Z" fill="#E26E7E"/>
<path d="M17.4301 23.4457C19.0365 21.078 21.0778 19.0368 23.4455 17.4305L17.0914 11.0763C15.4304 9.41514 12.7372 9.41514 11.076 11.0763C9.41478 12.7374 9.41478 15.4307 11.076 17.0917L17.4301 23.4457ZM54.5695 48.5543C52.963 50.922 50.9218 52.9632 48.5541 54.5695L54.9082 60.9237C55.7388 61.7544 56.8273 62.1695 57.9159 62.1695C59.0045 62.1695 60.0931 61.7542 60.9236 60.9237C62.5847 59.2626 62.5847 56.5694 60.9236 54.9085L54.5695 48.5543Z" fill="#D9495D"/>
<path d="M36 72.0002C26.3841 72.0002 17.3437 68.2555 10.5442 61.4561C3.7447 54.6566 0 45.6163 0 36.0003C0 26.3844 3.7447 17.3441 10.5442 10.5444C17.3437 3.74505 26.3841 0.000488281 36 0.000488281C45.6159 0.000488281 54.6563 3.74519 61.4558 10.5446C68.2553 17.3441 72 26.3844 72 36.0003C72 45.6163 68.2553 54.6566 61.4558 61.4563C54.6563 68.2556 45.6159 72.0002 36 72.0002ZM36 8.50746C20.8403 8.50746 8.50697 20.8407 8.50697 36.0003C8.50697 51.16 20.8403 63.4932 36 63.4932C51.1597 63.4932 63.493 51.16 63.493 36.0003C63.493 20.8407 51.1597 8.50746 36 8.50746Z" fill="#E26E7E"/>
<path d="M7.87068 66.8219L5.17855 64.1298C3.94569 62.8969 3.94569 60.8982 5.17855 59.6653L9.65858 55.1853L16.8153 62.3419L12.3352 66.8219C11.1022 68.0546 9.10339 68.0546 7.87068 66.8219Z" fill="#EBCA5F"/>
<path d="M24.0955 63.8945L22.3996 65.5905C20.3976 67.5924 17.1517 67.5924 15.1498 65.5905L6.40966 56.8505C4.40772 54.8486 4.40772 51.6026 6.40966 49.6007L8.10559 47.9048C10.1075 45.9028 13.3534 45.9028 15.3554 47.9048L24.0955 56.6449C26.0974 58.6467 26.0974 61.8926 24.0955 63.8945Z" fill="#7C899A"/>
<path d="M33.0192 60.741L31.5329 62.2273C29.0863 64.6739 25.1197 64.6739 22.6731 62.2273L9.77245 49.3266C7.32585 46.88 7.32585 42.9134 9.77245 40.4668L11.2587 38.9806C13.7053 36.534 17.6719 36.534 20.1185 38.9806L33.0192 51.8812C35.4656 54.3278 35.4656 58.2946 33.0192 60.741Z" fill="#9CA9BA"/>
<path d="M64.13 5.17808L66.8221 7.8702C68.055 9.10306 68.055 11.1018 66.8221 12.3346L62.3421 16.8147L55.1855 9.65811L59.6656 5.17808C60.8984 3.94536 62.8973 3.94536 64.13 5.17808Z" fill="#EBCA5F"/>
<path d="M47.9048 8.10547L49.6007 6.40953C51.6026 4.4076 54.8486 4.4076 56.8505 6.40953L65.5906 15.1497C67.5926 17.1516 67.5926 20.3975 65.5906 22.3994L63.8947 24.0954C61.8927 26.0973 58.6468 26.0973 56.6449 24.0954L47.9048 15.3554C45.9028 13.3533 45.9028 10.1074 47.9048 8.10547Z" fill="#7C899A"/>
<path d="M38.9803 11.259L40.4666 9.77275C42.9132 7.32616 46.8798 7.32616 49.3264 9.77275L62.2271 22.6734C64.6737 25.12 64.6737 29.0866 62.2271 31.5332L60.7408 33.0195C58.2942 35.4661 54.3276 35.4661 51.881 33.0195L38.9803 20.1188C36.5339 17.6722 36.5339 13.7055 38.9803 11.259Z" fill="#9CA9BA"/>
</g>
<defs>
<clipPath id="clip0_58_35">
<rect width="72" height="72" fill="white"/>
</clipPath>
</defs>
</svg>
