<svg xmlns="http://www.w3.org/2000/svg" width="60.499" height="60.499" viewBox="0 0 60.499 60.499">
  <g id="ic-rugby" transform="translate(0.001 0)">
    <path id="Path_4665" data-name="Path 4665" d="M65.915,10.671a4.3,4.3,0,0,0-3.361-3.361c-.161-.033-.322-.064-.483-.095C49.328,8.8,36.259,15.029,25.644,25.644S8.8,49.328,7.216,62.072c.031.161.062.322.095.483a4.3,4.3,0,0,0,3.361,3.361,47.061,47.061,0,0,0,15.974.485l1.623-2.115,5.377-1,3.25.461A46.912,46.912,0,0,0,63.745,36.894L63.422,34l1.891-6.17L66.4,26.645a47.061,47.061,0,0,0-.485-15.974Z" transform="translate(-6.365 -6.363)" fill="#ce775f"/>
    <path id="Path_4666" data-name="Path 4666" d="M48.834,259.688a33.792,33.792,0,0,1-30.8-19.886A61.118,61.118,0,0,0,7.216,267.174c.031.161.062.322.095.483a4.3,4.3,0,0,0,3.361,3.361,47.054,47.054,0,0,0,15.974.485l1.622-2.115,5.377-1,3.25.461h0a46.567,46.567,0,0,0,14.913-9.291q-1.483.131-2.973.132Z" transform="translate(-6.365 -211.466)" fill="#c0694e"/>
    <path id="Path_4667" data-name="Path 4667" d="M40.216.462V1.827l-6.7,2.544L29.967,3.117A46.912,46.912,0,0,0,3.116,29.969l.655,5.092L2.466,39.255l-2,.962A47.058,47.058,0,0,0,.946,56.191a4.3,4.3,0,0,0,.78,1.731C2.512,44.688,8.614,30.8,19.707,19.708s24.98-17.2,38.214-17.981A4.3,4.3,0,0,0,56.19.948,47.06,47.06,0,0,0,40.216.462Z" transform="translate(0 0)" fill="#c0694e"/>
    <path id="Path_4668" data-name="Path 4668" d="M9.015,162.217a46.463,46.463,0,0,0-5.9,10.8l.655,5.092L2.465,182.3l-2,.962A47.053,47.053,0,0,0,.946,199.24a4.3,4.3,0,0,0,.78,1.731,57.692,57.692,0,0,1,10.253-28.918,33.549,33.549,0,0,1-2.963-9.836Z" transform="translate(0 -143.048)" fill="#b25d46"/>
    <path id="Path_4669" data-name="Path 4669" d="M38.529,101.078a.913.913,0,0,1-.278-1.261A66.62,66.62,0,0,1,59.351,79.1a.913.913,0,1,1,.954,1.557A64.792,64.792,0,0,0,39.79,100.8a.913.913,0,0,1-1.261.278Zm-6.61,12.081,16.51,16.51a46.758,46.758,0,0,0,10.249-2.655L35.913,104.25A62.487,62.487,0,0,0,31.919,113.159Z" transform="translate(-28.149 -69.632)" fill="#b5dcff"/>
    <path id="Path_4670" data-name="Path 4670" d="M7.862,267.813a59.533,59.533,0,0,1,3.866-9.038l-5.162-5.162h0A46.748,46.748,0,0,0,3.91,263.861Z" transform="translate(-3.449 -223.644)" fill="#8bcaff"/>
    <path id="Path_4671" data-name="Path 4671" d="M301.865,31.919a62.488,62.488,0,0,0-8.91,3.994L315.72,58.678a46.761,46.761,0,0,0,2.655-10.249Z" transform="translate(-258.339 -28.147)" fill="#dbedff"/>
    <path id="Path_4672" data-name="Path 4672" d="M263.861,3.91a46.79,46.79,0,0,0-10.249,2.655l5.162,5.162a59.528,59.528,0,0,1,9.038-3.866Z" transform="translate(-223.645 -3.448)" fill="#b5dcff"/>
    <path id="Path_4673" data-name="Path 4673" d="M88.539,100.018l-3.226-3.226A.913.913,0,1,1,86.6,95.5l3.226,3.226a.913.913,0,0,1-1.291,1.291Zm16.26-16.26-3.226-3.226a.913.913,0,1,1,1.291-1.291l3.226,3.226a.913.913,0,1,1-1.291,1.291Zm-3,2.417L98.57,82.948a.913.913,0,1,1,1.291-1.291l3.226,3.226a.913.913,0,0,1-1.291,1.291Zm-3,2.417-3.226-3.226a.913.913,0,1,1,1.291-1.291l3.226,3.226a.913.913,0,1,1-1.291,1.291ZM95.985,91.2l-3.226-3.226a.913.913,0,1,1,1.291-1.291l3.226,3.226A.913.913,0,0,1,95.985,91.2Zm-2.612,2.808-3.226-3.226a.913.913,0,1,1,1.291-1.291l3.226,3.226a.913.913,0,1,1-1.291,1.291Zm-2.417,3L87.73,93.788A.913.913,0,1,1,89.021,92.5l3.226,3.226a.913.913,0,0,1-1.291,1.291Z" transform="translate(-74.997 -69.64)" fill="#dbedff"/>
  </g>
</svg>
