<svg width="72" height="72" viewBox="0 0 72 72" fill="none" xmlns="http://www.w3.org/2000/svg">
<g clip-path="url(#clip0_59_362)">
<path d="M24.8275 50.2758C38.5393 50.2758 49.655 39.1602 49.655 25.4483C49.655 11.7365 38.5393 0.62085 24.8275 0.62085C11.1156 0.62085 0 11.7365 0 25.4483C0 39.1602 11.1156 50.2758 24.8275 50.2758Z" fill="#F15A24"/>
<path d="M25.0954 46.6585C25.1221 46.9678 25.2637 47.2559 25.4924 47.4659C25.721 47.6759 26.0201 47.7927 26.3306 47.7931C26.3666 47.7949 26.4026 47.7949 26.4386 47.7931C26.7664 47.7647 27.0696 47.6072 27.2814 47.3553C27.4933 47.1035 27.5964 46.7778 27.5682 46.4499C27.0911 40.7494 24.7461 35.3657 20.8971 31.1338L24.8272 27.2036L28.9151 31.2915C29.1492 31.5176 29.4628 31.6427 29.7883 31.6399C30.1138 31.6371 30.4251 31.5065 30.6553 31.2764C30.8854 31.0462 31.016 30.7349 31.0188 30.4094C31.0216 30.0839 30.8965 29.7703 30.6704 29.5362L26.5826 25.4483L30.5264 21.5045C32.0108 22.8541 33.6447 24.0295 35.3963 25.0077C35.539 25.0883 35.6962 25.1399 35.8588 25.1596C36.0215 25.1792 36.1865 25.1664 36.3442 25.122C36.502 25.0776 36.6493 25.0024 36.7779 24.9008C36.9064 24.7991 37.0136 24.6731 37.0932 24.5298C37.1728 24.3866 37.2233 24.229 37.2417 24.0662C37.2601 23.9034 37.2462 23.7385 37.2006 23.5811C37.155 23.4237 37.0787 23.2769 36.9762 23.1491C36.8736 23.0213 36.7467 22.915 36.6029 22.8365C35.0519 21.9715 33.6032 20.9347 32.2842 19.7455L43.2182 8.81393C42.6628 8.19983 42.077 7.61399 41.4629 7.05863L30.5264 18.0001C27.0101 14.1005 24.9002 9.1361 24.533 3.89809L24.3096 0.782241C24.3008 0.737156 24.2888 0.692765 24.2736 0.649414C23.4568 0.666793 22.6486 0.720172 21.8517 0.815758C21.843 0.862987 21.8368 0.910638 21.8331 0.958516L22.0565 4.07436C22.4663 9.90647 24.8311 15.4299 28.7686 19.7517L24.8272 23.693L8.19284 7.05614C7.57771 7.61171 6.99143 8.19841 6.43629 8.81393L23.0719 25.4483L19.1405 29.3798C14.8147 25.4438 9.28767 23.082 3.45327 22.6764L0.337422 22.4541C0.289474 22.4573 0.241837 22.4635 0.194664 22.4728C0.0990786 23.2685 0.0456995 24.0754 0.0283203 24.8922C0.0719236 24.9071 0.116148 24.9195 0.161147 24.9294L3.277 25.1517C8.51381 25.5179 13.4777 27.6249 17.379 31.1376L6.43629 42.0827C6.9921 42.6964 7.57791 43.2823 8.1916 43.8381L19.1405 32.8966C22.5738 36.7113 24.665 41.5443 25.0954 46.6585Z" fill="black"/>
<path d="M27.8639 46.5517C25.1228 34.5193 32.6548 22.543 44.6873 19.8019C56.7198 17.0608 68.6959 24.5928 71.437 36.6253C74.1781 48.6577 66.6461 60.634 54.6136 63.3751C53.7968 63.5611 52.9702 63.7011 52.1377 63.7943" fill="#E6E6E6"/>
<path d="M71.8436 39.0351C71.4453 35.5062 70.207 32.1242 68.2324 29.1724C67.6397 28.3001 66.9864 27.4704 66.2773 26.6897H64.5518C64.282 26.6899 64.0196 26.7779 63.8044 26.9406C63.5891 27.1032 63.4327 27.3315 63.3588 27.5909L61.0238 35.7604L57.2277 37.6982L50.8967 33.4775V28.5778L57.8161 23.7364C58.0257 23.5897 58.1848 23.3818 58.2717 23.1411C58.3586 22.9005 58.369 22.6388 58.3014 22.392L57.8732 20.8254C52.6304 18.7604 46.8022 18.7458 41.5491 20.7845L41.0302 22.3225C40.9444 22.5767 40.9433 22.8519 41.027 23.1068C41.1107 23.3617 41.2747 23.5826 41.4945 23.7364L48.4139 28.5778V33.4738L42.0618 37.7081L36.9548 35.6648L34.6707 29.9545C34.5571 29.672 34.3443 29.4407 34.0723 29.304L31.8143 28.1793C29.1671 31.6852 27.6224 35.8991 27.3763 40.2852C27.3515 40.7197 27.3105 41.1542 27.3105 41.5911C27.3105 42.0653 27.3292 42.5358 27.3577 43.0026L29.2384 43.9435C29.4715 44.0599 29.7352 44.0999 29.9923 44.058C30.2494 44.0161 30.4868 43.8944 30.6709 43.7102L36.2993 38.083L41.1817 40.0357L43.4968 48.1381C43.5716 48.3967 43.7284 48.6239 43.9436 48.7855C44.1588 48.9472 44.4207 49.0345 44.6898 49.0344H54.1068L56.8379 51.7654L53.5135 58.4142C53.407 58.6273 53.364 58.8666 53.3898 59.1034C53.4155 59.3403 53.5089 59.5647 53.6587 59.7499L56.2346 62.9378C61.6476 61.2868 66.2229 57.6256 69.0207 52.7064L68.1518 50.9623C68.0482 50.755 67.8886 50.5808 67.6912 50.4595C67.4937 50.3381 67.2663 50.2745 67.0345 50.2758H58.8588L56.0148 47.4318L58.1252 40.027L61.9809 38.0569L68.8233 42.619C69.0051 42.74 69.2156 42.811 69.4335 42.8247C69.6515 42.8385 69.8692 42.7945 70.0647 42.6972L71.9851 41.7364C71.9851 41.6855 71.9926 41.6371 71.9926 41.5862C71.9914 40.7337 71.9416 39.882 71.8436 39.0351Z" fill="#1A1A1A"/>
<path d="M4.87604 62.0018L8.86954 64.996C14.3929 69.1397 21.1116 71.3795 28.0165 71.3792H31.5693C38.4742 71.3795 45.1929 69.1397 50.7163 64.996L54.7098 62.0018C55.8068 61.1793 56.0292 59.6231 55.2066 58.526C55.1146 58.4034 55.0114 58.2895 54.8984 58.1859L51.3581 54.9397C45.4719 49.5447 37.7774 46.5518 29.7929 46.5517C21.8084 46.5518 14.1139 49.5447 8.22775 54.9397L4.68736 58.1859C3.67688 59.1127 3.60907 60.6832 4.53591 61.6937C4.63949 61.8067 4.75336 61.9099 4.87604 62.0018Z" fill="#FF902A"/>
<path d="M40.9653 60.2068H16.1379C15.8086 60.2068 15.4929 60.076 15.2601 59.8432C15.0273 59.6104 14.8965 59.2947 14.8965 58.9654C14.8965 58.6362 15.0273 58.3205 15.2601 58.0876C15.4929 57.8548 15.8086 57.7241 16.1379 57.7241H40.9653C41.2946 57.7241 41.6103 57.8548 41.8431 58.0876C42.0759 58.3205 42.2067 58.6362 42.2067 58.9654C42.2067 59.2947 42.0759 59.6104 41.8431 59.8432C41.6103 60.076 41.2946 60.2068 40.9653 60.2068Z" fill="#42210B"/>
<path d="M18.6203 62.6896C18.291 62.6896 17.9753 62.5588 17.7425 62.326C17.5097 62.0932 17.3789 61.7774 17.3789 61.4482V56.4827C17.3789 56.1535 17.5097 55.8377 17.7425 55.6049C17.9753 55.3721 18.291 55.2413 18.6203 55.2413C18.9495 55.2413 19.2653 55.3721 19.4981 55.6049C19.7309 55.8377 19.8617 56.1535 19.8617 56.4827V61.4482C19.8617 61.7774 19.7309 62.0932 19.4981 62.326C19.2653 62.5588 18.9495 62.6896 18.6203 62.6896ZM23.5858 62.6896C23.2565 62.6896 22.9408 62.5588 22.708 62.326C22.4752 62.0932 22.3444 61.7774 22.3444 61.4482V56.4827C22.3444 56.1535 22.4752 55.8377 22.708 55.6049C22.9408 55.3721 23.2565 55.2413 23.5858 55.2413C23.915 55.2413 24.2308 55.3721 24.4636 55.6049C24.6964 55.8377 24.8271 56.1535 24.8271 56.4827V61.4482C24.8271 61.7774 24.6964 62.0932 24.4636 62.326C24.2308 62.5588 23.915 62.6896 23.5858 62.6896ZM28.5513 62.6896C28.222 62.6896 27.9063 62.5588 27.6735 62.326C27.4407 62.0932 27.3099 61.7774 27.3099 61.4482V56.4827C27.3099 56.1535 27.4407 55.8377 27.6735 55.6049C27.9063 55.3721 28.222 55.2413 28.5513 55.2413C28.8805 55.2413 29.1963 55.3721 29.4291 55.6049C29.6619 55.8377 29.7926 56.1535 29.7926 56.4827V61.4482C29.7926 61.7774 29.6619 62.0932 29.4291 62.326C29.1963 62.5588 28.8805 62.6896 28.5513 62.6896ZM33.5168 62.6896C33.1875 62.6896 32.8718 62.5588 32.639 62.326C32.4062 62.0932 32.2754 61.7774 32.2754 61.4482V56.4827C32.2754 56.1535 32.4062 55.8377 32.639 55.6049C32.8718 55.3721 33.1875 55.2413 33.5168 55.2413C33.846 55.2413 34.1617 55.3721 34.3946 55.6049C34.6274 55.8377 34.7581 56.1535 34.7581 56.4827V61.4482C34.7581 61.7774 34.6274 62.0932 34.3946 62.326C34.1617 62.5588 33.846 62.6896 33.5168 62.6896ZM38.4823 62.6896C38.153 62.6896 37.8373 62.5588 37.6045 62.326C37.3717 62.0932 37.2409 61.7774 37.2409 61.4482V56.4827C37.2409 56.1535 37.3717 55.8377 37.6045 55.6049C37.8373 55.3721 38.153 55.2413 38.4823 55.2413C38.8115 55.2413 39.1272 55.3721 39.36 55.6049C39.5929 55.8377 39.7236 56.1535 39.7236 56.4827V61.4482C39.7236 61.7774 39.5929 62.0932 39.36 62.326C39.1272 62.5588 38.8115 62.6896 38.4823 62.6896Z" fill="#42210B"/>
</g>
<defs>
<clipPath id="clip0_59_362">
<rect width="72" height="72" fill="white"/>
</clipPath>
</defs>
</svg>
