<svg xmlns="http://www.w3.org/2000/svg" width="65.166" height="59.999" viewBox="0 0 65.166 59.999">
  <g id="ic-swimming" transform="translate(-4.17 -4.997)">
    <path id="Path_4613" data-name="Path 4613" d="M66.127,44.132V59.98H5V44.132l.668-.668a2.3,2.3,0,0,0,3.192,0L9.336,43h7.177l.475.464a2.3,2.3,0,0,0,3.192,0L20.655,43h7.177l.475.464a2.3,2.3,0,0,0,3.192,0L31.975,43h7.177l.475.464a2.3,2.3,0,0,0,3.192,0L43.3,43h7.177l.475.464a2.3,2.3,0,0,0,3.192,0L54.615,43h7.177l.475.464a2.3,2.3,0,0,0,3.192,0Z" transform="translate(0.11 5.016)" fill="#3cb3f0"/>
    <path id="Path_4614" data-name="Path 4614" d="M68.391,32.55v3.124a1.132,1.132,0,0,1-1.641,1.019l-2.887-1.449L63,37.836a1.146,1.146,0,0,1-1.109.781l-.136-.011a1.132,1.132,0,0,1-1.1-1.143l.068-3.69L39.707,24.694A2.27,2.27,0,0,0,36.854,25.7L31.036,36.376v6.792L36.7,40.9l3.792,6.645.736,1.279H38.235a1.739,1.739,0,0,1-.215-.192l-.86-.86a2.308,2.308,0,0,0-3.192,0l-.86.86a1.74,1.74,0,0,1-.215.192H26.915a1.74,1.74,0,0,1-.215-.192l-.86-.86a2.308,2.308,0,0,0-3.192,0l-.86.86a1.74,1.74,0,0,1-.215.192H15.6a1.74,1.74,0,0,1-.215-.192l-.86-.86a2.308,2.308,0,0,0-3.192,0l-.86.86a1.74,1.74,0,0,1-.215.192H5V44.3L23.112,32.98l9.633-14.444A5.685,5.685,0,0,1,37.488,16a5.773,5.773,0,0,1,2.762.713L59.335,27.32l8.433,4.211A1.132,1.132,0,0,1,68.391,32.55Z" transform="translate(0.11 1.452)" fill="#fec093"/>
    <path id="Path_4615" data-name="Path 4615" d="M34.335,35.951l7.915-4.4a4.528,4.528,0,0,1,6.158,1.757l1.1,1.979a4.528,4.528,0,0,1-1.757,6.158l-8.9,4.951a3.4,3.4,0,0,1-4.619-1.318l-1.65-2.968a4.528,4.528,0,0,1,1.757-6.158Z" transform="translate(3.674 3.429)" fill="#fec093"/>
    <path id="Path_4616" data-name="Path 4616" d="M40.2,32.1l.989-.55a4.528,4.528,0,0,1,6.158,1.757l1.1,1.979a4.528,4.528,0,0,1-1.757,6.158l-.989.55L40.2,32.1Z" transform="translate(4.755 3.429)" fill="#ea4747"/>
    <path id="Path_4617" data-name="Path 4617" d="M44.959,39.812l-.549-.989a2.252,2.252,0,0,0-1.95-1.155l-.282-.566a2.255,2.255,0,0,0,.033-2.24l-.549-.989a2.266,2.266,0,0,0-3.962,2.2l.55.989A2.253,2.253,0,0,0,40.2,38.215l.282.566a2.256,2.256,0,0,0-.033,2.239l.55.99a2.266,2.266,0,0,0,3.962-2.2Z" transform="translate(4.388 3.657)" fill="#0b9ce6"/>
    <g id="Group_2652" data-name="Group 2652" transform="translate(8.506 4.997)">
      <path id="Path_4618" data-name="Path 4618" d="M10.264,26.508c1.251,0,6.792-2.264,6.792-2.264s-5.541-2.264-6.792-2.264a2.264,2.264,0,1,0,0,4.528Zm2.652-8.861c.884.884,6.4,3.2,6.4,3.2s-2.317-5.52-3.2-6.4a2.264,2.264,0,1,0-3.2,3.2ZM66.589,27.794A23.783,23.783,0,0,0,27.7,12.863l-1.459-1.731A26.046,26.046,0,0,1,68.831,27.486ZM23.454,17.5l-1.8-1.374.687-.9c.266-.346.541-.688.824-1.019l.732-.864L25.625,14.8l-.731.864q-.388.453-.752.934Z" transform="translate(-8 -4.997)" fill="#3cb3f0"/>
    </g>
    <path id="Path_4619" data-name="Path 4619" d="M63.973,52.836a4.516,4.516,0,0,1-3.2-1.324l-.857-.857a2.318,2.318,0,0,0-3.2,0l-.857.857a4.528,4.528,0,0,1-6.4,0l-.857-.857a2.264,2.264,0,0,0-3.2,0l-.857.857a4.528,4.528,0,0,1-6.4,0l-.857-.857a2.264,2.264,0,0,0-3.2,0l-.857.857a4.528,4.528,0,0,1-6.4,0l-.857-.857a2.264,2.264,0,0,0-3.2,0l-.857.857a4.528,4.528,0,0,1-6.4,0l-.857-.857a2.264,2.264,0,0,0-3.2,0l-.857.857a4.528,4.528,0,0,1-6.4,0l1.6-1.6a2.27,2.27,0,0,0,3.2,0l.857-.857a4.641,4.641,0,0,1,6.4,0l.857.857a2.27,2.27,0,0,0,3.2,0l.857-.857a4.528,4.528,0,0,1,6.4,0l.857.857a2.27,2.27,0,0,0,3.2,0l.857-.857a4.528,4.528,0,0,1,6.4,0l.857.857a2.27,2.27,0,0,0,3.2,0l.857-.857a4.528,4.528,0,0,1,6.4,0l.857.857a2.27,2.27,0,0,0,3.2,0l.857-.857a4.528,4.528,0,0,1,6.4,0l.857.857a2.27,2.27,0,0,0,3.2,0l1.6,1.6a4.515,4.515,0,0,1-3.2,1.324Zm3.2-7.565a4.381,4.381,0,0,1-.94.713,4.465,4.465,0,0,1-2.264.611,4.528,4.528,0,0,1-3.2-1.324l-.86-.86a2.308,2.308,0,0,0-3.192,0l-.86.86a4.537,4.537,0,0,1-6.407,0l-.86-.86a2.308,2.308,0,0,0-3.192,0l-.86.86a4.641,4.641,0,0,1-6.407,0l-.86-.86a2.308,2.308,0,0,0-3.192,0l-.86.86a4.641,4.641,0,0,1-6.407,0l-.86-.86a2.308,2.308,0,0,0-3.192,0l-.86.86a4.537,4.537,0,0,1-6.407,0l-.86-.86a2.308,2.308,0,0,0-3.192,0l-.86.86a4.66,4.66,0,0,1-5.467.7,3.99,3.99,0,0,1-.94-.7l.94-.94.668-.668a2.3,2.3,0,0,0,3.192,0l.475-.464.385-.385a4.641,4.641,0,0,1,6.407,0l.385.385.475.464a2.3,2.3,0,0,0,3.192,0l.475-.464.385-.385a4.641,4.641,0,0,1,6.407,0l.385.385.475.464a2.3,2.3,0,0,0,3.192,0l.475-.464.385-.385a4.537,4.537,0,0,1,6.407,0l.385.385.475.464a2.3,2.3,0,0,0,3.192,0L43.4,43.2l.385-.385a4.641,4.641,0,0,1,6.407,0l.385.385.475.464a2.3,2.3,0,0,0,3.192,0l.475-.464.385-.385a4.641,4.641,0,0,1,6.407,0l.385.385.475.464a2.3,2.3,0,0,0,3.192,0l.668.668Z" transform="translate(0 4.817)" fill="#0182c3"/>
    <path id="Path_4620" data-name="Path 4620" d="M63.973,57.123a4.5,4.5,0,0,1-3.2-1.327l-.858-.856a2.317,2.317,0,0,0-3.2,0l-.858.858a4.641,4.641,0,0,1-6.4,0l-.858-.856a2.317,2.317,0,0,0-3.2,0l-.858.858a4.641,4.641,0,0,1-6.4,0l-.858-.856a2.317,2.317,0,0,0-3.2,0l-.858.858a4.641,4.641,0,0,1-6.4,0l-.858-.856a2.317,2.317,0,0,0-3.2,0l-.858.858a4.641,4.641,0,0,1-6.4,0l-.858-.856a2.317,2.317,0,0,0-3.2,0l-.858.858a4.641,4.641,0,0,1-6.4,0l1.6-1.6a2.317,2.317,0,0,0,3.2,0l.858-.858a4.641,4.641,0,0,1,6.4,0l.858.856a2.315,2.315,0,0,0,3.2,0l.858-.858a4.641,4.641,0,0,1,6.4,0l.858.856a2.315,2.315,0,0,0,3.2,0l.858-.858a4.641,4.641,0,0,1,6.4,0l.858.856a2.315,2.315,0,0,0,3.2,0l.858-.858a4.641,4.641,0,0,1,6.4,0l.858.856a2.315,2.315,0,0,0,3.2,0l.858-.858a4.641,4.641,0,0,1,6.4,0l.858.856a2.315,2.315,0,0,0,3.2,0l1.6,1.6a4.5,4.5,0,0,1-3.2,1.327Z" transform="translate(0 6.212)" fill="#0182c3"/>
  </g>
</svg>
