<svg xmlns="http://www.w3.org/2000/svg" width="37.848" height="37.848" viewBox="0 0 37.848 37.848">
  <g id="ic-animal-age" transform="translate(-0.001)">
    <path id="Path_3790" data-name="Path 3790" d="M18.925.941a1.219,1.219,0,0,0,.619-.17A5.947,5.947,0,0,1,22.587,0a10.791,10.791,0,0,1,4.884,1.221L26.25,2.442a13.985,13.985,0,0,1,3.5,1.315c5.069,2.656,7.486,8.452,7.486,8.452H34.8c3.052,4.884,3.052,11.6,3.052,11.6l-1.831-.61s0,5.494-2.442,9.157l-1.831-1.221a16.042,16.042,0,0,1-4.884,4.884L25.64,34.8a16.614,16.614,0,0,1-6.715,3.052A16.615,16.615,0,0,1,12.21,34.8l-1.221,1.221a16.042,16.042,0,0,1-4.884-4.884L4.274,32.354C1.832,28.691,1.832,23.2,1.832,23.2L0,23.807s0-6.715,3.052-11.6H.611S3.029,6.412,8.1,3.757a13.986,13.986,0,0,1,3.5-1.315L10.379,1.221A10.79,10.79,0,0,1,15.262,0a5.946,5.946,0,0,1,3.043.771,1.219,1.219,0,0,0,.619.17" fill="#d26437"/>
    <path id="Path_3791" data-name="Path 3791" d="M13.84,6.733A18.534,18.534,0,0,1,18.576.886a1.228,1.228,0,0,1-.27-.114A5.946,5.946,0,0,0,15.262,0a10.791,10.791,0,0,0-4.884,1.221L11.6,2.442A13.986,13.986,0,0,0,8.1,3.757C3.029,6.412.611,12.209.611,12.209H3.053C0,17.093,0,23.807,0,23.807l1.831-.61s0,5.494,2.442,9.157l1.831-1.221a16.042,16.042,0,0,0,4.884,4.884L12.21,34.8a16.614,16.614,0,0,0,6.715,3.052S14.5,36.016,13.84,6.733Z" fill="#b44632"/>
    <path id="Path_3792" data-name="Path 3792" d="M327.627,49.59a2.206,2.206,0,0,1,2.629,2.359,13.639,13.639,0,0,1-3.341,6.915l-5.882-5.92A18.027,18.027,0,0,1,327.627,49.59Z" transform="translate(-297.301 -45.886)" fill="#ebaf4b"/>
    <path id="Path_3793" data-name="Path 3793" d="M342.607,74.613c1.874-1.433,4.645-3.318,5.413-3.395.882-.089,1.432,1.128,1.087,2.441a20.483,20.483,0,0,1-2.578,4.9Z" transform="translate(-317.28 -65.95)" fill="#e18c46"/>
    <path id="Path_3794" data-name="Path 3794" d="M68.705,49.59a2.206,2.206,0,0,0-2.629,2.359,13.64,13.64,0,0,0,3.341,6.915l5.882-5.92A18.026,18.026,0,0,0,68.705,49.59Z" transform="translate(-61.181 -45.886)" fill="#ebaf4b"/>
    <path id="Path_3795" data-name="Path 3795" d="M86.661,74.613c-1.874-1.433-4.645-3.318-5.413-3.395-.882-.089-1.432,1.128-1.087,2.441a20.484,20.484,0,0,0,2.578,4.9Z" transform="translate(-74.139 -65.95)" fill="#e18c46"/>
    <path id="Path_3796" data-name="Path 3796" d="M93.289,91.547c-2.409-1.874-7.325,1.221-7.325,1.221s-4.916-3.095-7.325-1.221c-5.494,4.273-6.715,16.482-6.1,18.924.444,1.777,4.273,4.884,8.546,6.1h9.767c4.273-1.221,8.1-4.328,8.546-6.1C100,108.029,98.783,95.82,93.289,91.547Z" transform="translate(-67.038 -84.222)" fill="#ffc850"/>
    <path id="Path_3797" data-name="Path 3797" d="M76.3,114.118c-.469-2.928.64-15.918,4.582-23.118a3.306,3.306,0,0,0-2.241.593c-5.494,4.273-6.715,16.482-6.1,18.924.267,1.07,1.766,2.62,3.845,3.952C76.347,114.349,76.315,114.229,76.3,114.118Z" transform="translate(-67.038 -84.267)" fill="#ebaf4b"/>
    <path id="Path_3798" data-name="Path 3798" d="M99.4,308.711c-.444,1.777-4.273,4.884-8.546,6.1H81.086c-4.273-1.221-8.1-4.328-8.546-6.1a3.763,3.763,0,0,1-.07-.4,12.973,12.973,0,0,0,.07,3.458c.444,1.777,4.273,4.884,8.546,6.1h9.767c4.273-1.221,8.1-4.328,8.546-6.1a12.972,12.972,0,0,0,.07-3.458A3.75,3.75,0,0,1,99.4,308.711Z" transform="translate(-67.045 -285.522)" fill="#faebc8"/>
    <path id="Path_3799" data-name="Path 3799" d="M187.462,413.744a4.1,4.1,0,0,0,4.042,3.433h2.048a4.1,4.1,0,0,0,4.039-3.409l-5.062-.864Z" transform="translate(-173.604 -382.382)" fill="#f5dcb4"/>
    <path id="Path_3800" data-name="Path 3800" d="M167.588,346.839a4.335,4.335,0,0,0-3.357,1.431,4.335,4.335,0,0,0-3.357-1.431c-2.191,0-3.968,1.367-3.968,3.052s1.776,3.052,3.968,3.052a4.335,4.335,0,0,0,3.357-1.431,4.335,4.335,0,0,0,3.357,1.431c2.191,0,3.968-1.367,3.968-3.052S169.779,346.839,167.588,346.839Z" transform="translate(-145.305 -321.2)" fill="#faebc8"/>
    <path id="Path_3801" data-name="Path 3801" d="M161.659,370.8a4.6,4.6,0,0,1-2.9-1.022.32.32,0,0,0-.4,0,4.6,4.6,0,0,1-2.9,1.022,4.7,4.7,0,0,1-4.673-4.706.61.61,0,1,1,1.221,0,3.472,3.472,0,0,0,3.452,3.485,3.386,3.386,0,0,0,2.141-.754,1.533,1.533,0,0,1,1.93,0,3.389,3.389,0,0,0,2.141.754,3.472,3.472,0,0,0,3.452-3.485.61.61,0,1,1,1.221,0A4.7,4.7,0,0,1,161.659,370.8Z" transform="translate(-139.629 -338.471)" fill="#d4af91"/>
    <path id="Path_3802" data-name="Path 3802" d="M207.809,343.555l1.3,1.081a3.119,3.119,0,0,0,3.994,0l1.3-1.081a.8.8,0,0,0-.508-1.414h-5.571A.8.8,0,0,0,207.809,343.555Z" transform="translate(-192.178 -316.85)" fill="#5d5360"/>
    <path id="Path_3803" data-name="Path 3803" d="M248.353,136.98a.61.61,0,0,1-.61-.61v-4.984a.61.61,0,1,1,1.221,0v4.984A.61.61,0,0,1,248.353,136.98Z" transform="translate(-229.429 -121.108)" fill="#ffdc64"/>
    <path id="Path_3804" data-name="Path 3804" d="M150.477,243.757h0a1.831,1.831,0,0,1-1.831-1.831v-.61a1.831,1.831,0,0,1,1.831-1.831h0a1.831,1.831,0,0,1,1.831,1.831v.61A1.831,1.831,0,0,1,150.477,243.757Z" transform="translate(-137.657 -221.781)" fill="#4b3f4e"/>
    <path id="Path_3805" data-name="Path 3805" d="M173.42,239.484v2.137a.916.916,0,0,0,1.831,0v-.305A1.831,1.831,0,0,0,173.42,239.484Z" transform="translate(-160.6 -221.781)" fill="#5d5360"/>
    <circle id="Ellipse_105" data-name="Ellipse 105" cx="0.61" cy="0.61" r="0.61" transform="translate(12.21 18.313)" fill="#fff"/>
    <path id="Path_3806" data-name="Path 3806" d="M315.639,243.757h0a1.831,1.831,0,0,1-1.831-1.831v-.61a1.831,1.831,0,0,1,1.831-1.831h0a1.831,1.831,0,0,1,1.831,1.831v.61A1.831,1.831,0,0,1,315.639,243.757Z" transform="translate(-290.61 -221.781)" fill="#4b3f4e"/>
    <path id="Path_3807" data-name="Path 3807" d="M338.582,239.484v2.137a.916.916,0,1,0,1.831,0v-.305A1.831,1.831,0,0,0,338.582,239.484Z" transform="translate(-313.553 -221.781)" fill="#5d5360"/>
    <circle id="Ellipse_106" data-name="Ellipse 106" cx="0.61" cy="0.61" r="0.61" transform="translate(24.419 18.313)" fill="#fff"/>
    <path id="Path_3808" data-name="Path 3808" d="M211.468,344.543l-1.3-1.491a1.3,1.3,0,0,1-.288-.911h-1.566a.8.8,0,0,0-.508,1.414l1.3,1.081a3.115,3.115,0,0,0,3.1.519A3.1,3.1,0,0,1,211.468,344.543Z" transform="translate(-192.177 -316.849)" fill="#4b3f4e"/>
    <path id="Path_3809" data-name="Path 3809" d="M72.541,308.711a3.763,3.763,0,0,1-.07-.4,12.973,12.973,0,0,0,.07,3.458c.267,1.07,1.766,2.62,3.845,3.952-.031-.119-.064-.239-.082-.35a16.7,16.7,0,0,1-.082-2.815C74.229,311.249,72.8,309.753,72.541,308.711Z" transform="translate(-67.046 -285.522)" fill="#f5dcb4"/>
  </g>
</svg>
