<svg xmlns="http://www.w3.org/2000/svg" xmlns:xlink="http://www.w3.org/1999/xlink" width="112" height="112" viewBox="0 0 112 112">
  <defs>
    <clipPath id="clip-path">
      <circle id="Ellipse_93" data-name="Ellipse 93" cx="56" cy="56" r="56" fill="#fff"/>
    </clipPath>
  </defs>
  <g id="ic-breath" transform="translate(-453 -977)">
    <circle id="Ellipse_26" data-name="Ellipse 26" cx="56" cy="56" r="56" transform="translate(453 977)" fill="#fff"/>
    <g id="Mask_Group_16" data-name="Mask Group 16" transform="translate(453 977)" clip-path="url(#clip-path)">
      <g id="Group_1836" data-name="Group 1836" transform="translate(17.3 13.756)">
        <g id="Sneeze">
          <g id="Flat">
            <path id="Path_2450" data-name="Path 2450" d="M173.945,128h38.073v10.545c4.058,5.461,4.757,5.544,4.56,6.627-.192,1.058-1.008,1.01-4.774,3.489a1.644,1.644,0,0,1-2.367.965c-2.432-1.334-4.658-2.039-6.061-1.638-3.334.952-3.643,6.558-.243,8.258,3.059,1.49,4.482,2.4,5.355,2.679a6.821,6.821,0,0,1-5.773,3.247c-1.362,0-1.919-.325-6.208-1.344v4.725a50.86,50.86,0,0,1,3.869,5.41,1.41,1.41,0,0,1-1.2,2.159c-11.473-.059-23.976-6.934-24.5-7.227C173.289,165.127,174.223,165.638,173.945,128Z" transform="translate(-161.242 -105.44)" fill="#ffdfc5"/>
            <path id="Path_2451" data-name="Path 2451" d="M287.35,191.116v4.546a50.823,50.823,0,0,1,3.869,5.409,1.41,1.41,0,0,1-1.2,2.159c-11.473-.059-23.976-6.934-24.5-7.227a1.41,1.41,0,0,1-.725-1.232v-30.22A40.988,40.988,0,0,0,287.35,191.116Z" transform="translate(-252.09 -135.55)" fill="#ffd5c7"/>
            <path id="Path_2452" data-name="Path 2452" d="M224,363.068h43.65c.429-10.057-3.834-19.056-7.383-24.721-3.868.75-24.068-3.481-26.606-7.147a40.881,40.881,0,0,0-9.694,26.8Z" transform="translate(-221.136 -272.824)" fill="#63a8d5"/>
            <path id="Path_2453" data-name="Path 2453" d="M228.953,369.857a36.685,36.685,0,0,0,38.571,20.421c.146,1.54.187,23.088.123,24.634H224l-.033-25.069A41.3,41.3,0,0,1,228.953,369.857Z" transform="translate(-221.136 -304.667)" fill="#267ab3"/>
            <path id="Path_2454" data-name="Path 2454" d="M174.05,53.341a1.412,1.412,0,0,0,.5-.09c12.2-4.581,12.2-16.9,12.2-24.254a2.23,2.23,0,0,1,.643-1.685,2.594,2.594,0,0,1,2.031-.518,1.388,1.388,0,0,0,.146.008h13.156a13.382,13.382,0,0,0,10.067-4.279c5.659-6.182,4.972-16.778,4.94-17.225a1.424,1.424,0,0,0-1.146-1.309,1.383,1.383,0,0,0-1.518.772c-.1.171-1.15,1.888-4.166,1.888-3.329,0-8.193-1.43-13.343-2.944C191.879,2.036,186.013.311,180.9.044c-5.819-.3-9.787,1.465-11.808,5.261-3.168.423-5.766,2.525-7.378,6-2.1,4.521-2.346,10.871-.7,17.882,1.851,7.87,5.973,16.036,11.92,23.615A1.41,1.41,0,0,0,174.05,53.341Z" transform="translate(-159.941 -0.011)" fill="#68676b"/>
            <path id="Path_2455" data-name="Path 2455" d="M340.542,41.784a10.9,10.9,0,0,1,3.987-4.771A38.785,38.785,0,0,0,365.07,68.3c-.945,6.082-3.7,12.421-11.7,15.427a1.41,1.41,0,0,1-1.605-.45c-5.947-7.579-10.068-15.745-11.92-23.615C338.2,52.655,338.444,46.3,340.542,41.784Z" transform="translate(-338.766 -30.491)" fill="#58575b"/>
            <path id="Path_2456" data-name="Path 2456" d="M327.008,166.826h5.64V155.545H329.7c-1.2-6.125-9.74-5.457-9.74,2.82C319.958,163.125,322.355,166.826,327.008,166.826Z" transform="translate(-303.029 -124.778)" fill="#ffdfc5"/>
            <path id="Path_2457" data-name="Path 2457" d="M311.958,426.563H331.7V394.021a9.871,9.871,0,1,0-19.741-.15Z" transform="translate(-300.67 -316.318)" fill="#7bc0ee"/>
            <path id="Path_2458" data-name="Path 2458" d="M327.376,155.515c0,.029,0,.057,0,.085a16.217,16.217,0,0,0,9.06,14.555h-4.83c-4.653,0-7.051-3.7-7.051-8.461C324.555,158.553,325.785,156.509,327.376,155.515Z" transform="translate(-307.627 -128.106)" fill="#ffd5c7"/>
            <path id="Path_2459" data-name="Path 2459" d="M97.35,258.82h14.1a1.41,1.41,0,0,0,0-2.82H97.35a1.41,1.41,0,1,0,0,2.82Z" transform="translate(-43.756 -210.879)" fill="#267ab3"/>
            <path id="Path_2460" data-name="Path 2460" d="M73.35,290.82H91.681a1.41,1.41,0,0,0,0-2.82H73.35a1.41,1.41,0,0,0,0,2.82Z" transform="translate(-19.756 -237.238)" fill="#267ab3"/>
            <path id="Path_2461" data-name="Path 2461" d="M37.283,227.211a7.06,7.06,0,0,0,0-12.973,7.058,7.058,0,0,0-13.1-2.681,1.41,1.41,0,1,0,2.441,1.413,4.234,4.234,0,0,1,7.891,2.2,1.427,1.427,0,0,0,1.058,1.452,4.236,4.236,0,0,1,0,8.2,1.41,1.41,0,0,0-1.059,1.411,4.234,4.234,0,0,1-7.892,2.245,1.41,1.41,0,0,0-2.441,1.412A7.059,7.059,0,0,0,37.283,227.211Z" transform="translate(40.232 -171.373)" fill="#267ab3"/>
          </g>
        </g>
      </g>
    </g>
  </g>
</svg>
