<svg xmlns="http://www.w3.org/2000/svg" width="23.177" height="29.15" viewBox="0 0 23.177 29.15">
  <g id="ic-cake" transform="translate(-1399.823 -580.425)">
    <g id="Candle" transform="translate(1409.492 580.425)">
      <path id="Path_3761" data-name="Path 3761" d="M224.356,46.028c-1.025,0-2.056-.353-2.056-1.15V37.572c0-.581.672-.678.923-.718a7.568,7.568,0,0,1,1.133-.068,9.385,9.385,0,0,1,1.133.068c.251.04.923.137.923.718v7.312C226.411,45.675,225.381,46.028,224.356,46.028Z" transform="translate(-222.3 -34.696)" fill="#fff"/>
      <path id="Path_3762" data-name="Path 3762" d="M233.786,46.8c-.82,0-1.486.1-1.486.216v7.312c0,.319.666.581,1.486.581s1.486-.262,1.486-.581V47.016C235.273,46.9,234.606,46.8,233.786,46.8Z" transform="translate(-231.731 -44.141)" fill="#0476bb"/>
      <path id="Path_3763" data-name="Path 3763" d="M235.084,47.016v7.312c0,.319-.666.581-1.486.581s-1.486-.262-1.486-.581v-.786a1.106,1.106,0,0,0,1.048.524,1.2,1.2,0,0,0,1.23-1.253V51.031a.229.229,0,0,1-.137.028c-.154-.006-.194-.159-.194-.262s.085-.609.188-.609c.051,0,.1.108.142.216V48.56c-.137-.085-.154-.313-.074-.552a.157.157,0,0,0,0-.131c-.108-.08-.171.171-.091.467a1.359,1.359,0,0,1,.028.661.45.45,0,0,1-.427.325.355.355,0,0,1-.347-.387c.051-.3.131-.6.051-.632-.125-.046-.1.41-.216.4-.182-.017.091-.661-.068-.831-.125-.131-.239-.017-.251.359s.194,1.327.205,1.754c.011.45-.268.5-.347.5s-.268-.051-.205-.5a9.537,9.537,0,0,0,.1-1.8c-.011-.137-.074-.273-.142-.273-.1,0-.12.763-.433.718a.322.322,0,0,1-.068-.023V47.016c0-.12.666-.216,1.486-.216s1.5.1,1.5.216Z" transform="translate(-231.542 -44.141)" opacity="0.3"/>
      <path id="Path_3764" data-name="Path 3764" d="M241.983,119.293a.319.319,0,0,1-.3.342h-.017c-.142,0-.307-.08-.29-.382.006-.142.114-1.253.256-1.253C241.813,118,241.983,119.15,241.983,119.293Z" transform="translate(-240.292 -111.286)" opacity="0.3"/>
      <path id="Path_3765" data-name="Path 3765" d="M232.391,45.284c.011-.569,0-.712-.142-.9s-.661-.285-1.469-.285-1.321,0-1.469.285c-.137.256-.382,1.452.057,1.52.273.046.3-.718.433-.718.074,0,.114.063.114.273a9.489,9.489,0,0,1-.051,1.811c-.063.438.068.484.154.484.125,0,.279-.057.262-.507-.017-.4-.176-1.367-.171-1.743s.205-.49.33-.359c.159.171-.063.82.068.831.114.011.091-.444.216-.4.085.028.028.347-.023.643a.337.337,0,0,0,.285.376.1.1,0,0,1,.04.006.368.368,0,0,0,.382-.325,2.143,2.143,0,0,0-.074-.661c-.04-.159.011-.49.176-.467.108.017.04.171,0,.3-.028.085-.057.387.171.416.2.023.233-.142.256-.239s.051-.177.091-.177.04.159-.046.347c-.074.159-.063.5.108.518s.29-.29.3-1.031Z" transform="translate(-228.73 -41.594)" fill="#c73100"/>
      <path id="Path_3766" data-name="Path 3766" d="M232.426,49.405h-.006a.594.594,0,0,1-.006-.325c.034-.239.051-.467.063-.695.034.262.063.5.068.661.011.251-.04.325-.051.342S232.472,49.405,232.426,49.405Zm1.008-1.15a.209.209,0,0,1-.154-.074.15.15,0,0,1-.034-.137c.074-.444.125-.735-.068-.8a.242.242,0,0,0-.063-.011.2.2,0,0,0-.063.011.567.567,0,0,0-.1-.4.282.282,0,0,0-.211-.1.345.345,0,0,0-.307.251.221.221,0,0,0-.222-.159c-.159,0-.211.177-.268.376-.028.091-.091.313-.142.342-.017,0-.046-.011-.068-.063a2,2,0,0,1,.12-1.247c.148-.228.757-.245,1.333-.245.968,0,1.3.177,1.367.268.1.137.125.245.114.809a1.71,1.71,0,0,1-.148.894.439.439,0,0,1,.006-.308.592.592,0,0,0,.051-.473.17.17,0,0,0-.131-.08h-.017c-.154,0-.194.165-.228.285l-.006.017c-.028.12-.046.12-.074.12H234.1a.058.058,0,0,1-.04-.023.3.3,0,0,1-.011-.211.39.39,0,0,1,.017-.046.388.388,0,0,0,.017-.336.222.222,0,0,0-.148-.1h-.04a.268.268,0,0,0-.205.1.739.739,0,0,0-.1.535,1.8,1.8,0,0,1,.068.6A.216.216,0,0,1,233.434,48.255Z" transform="translate(-231.145 -43.386)" fill="#fe4d0b"/>
      <path id="Path_3767" data-name="Path 3767" d="M241.813,119.253a.257.257,0,0,1-.513,0c0-.142.114-1.253.256-1.253S241.813,119.11,241.813,119.253Z" transform="translate(-240.218 -111.286)" fill="#fe4d0b"/>
      <path id="Path_3768" data-name="Path 3768" d="M266.782,107a.191.191,0,0,1-.382.006c0-.1.085-.609.188-.609S266.782,106.9,266.782,107Z" transform="translate(-263.889 -100.346)" fill="#fe4d0b"/>
      <path id="Path_3769" data-name="Path 3769" d="M242.284,119.441a.255.255,0,0,1-.484.114.259.259,0,0,0,.456-.165,5.223,5.223,0,0,0-.2-1.19A4.194,4.194,0,0,1,242.284,119.441Z" transform="translate(-240.69 -111.475)" opacity="0.3"/>
      <path id="Path_3770" data-name="Path 3770" d="M266.97,107.192a.187.187,0,0,1-.194.188.2.2,0,0,1-.177-.114.189.189,0,0,0,.268.011.182.182,0,0,0,.063-.137,1.812,1.812,0,0,0-.12-.541A1.358,1.358,0,0,1,266.97,107.192Z" transform="translate(-264.077 -100.535)" opacity="0.3"/>
      <ellipse id="Ellipse_104" data-name="Ellipse 104" cx="0.7" cy="0.097" rx="0.7" ry="0.097" transform="translate(1.355 2.693)" fill="#ffc7b5"/>
      <path id="Path_3771" data-name="Path 3771" d="M256.411,30.325a.107.107,0,0,1-.114.1.109.109,0,0,1-.1-.1,5.682,5.682,0,0,1,.1-1.025A5.657,5.657,0,0,1,256.411,30.325Z" transform="translate(-254.27 -27.637)" fill="#2a2e33"/>
      <path id="Path_3772" data-name="Path 3772" d="M247.161,2.691c-.393,0-.661-.353-.661-.877a1.757,1.757,0,0,1,.239-.826.282.282,0,0,1,.188-.131A4.158,4.158,0,0,0,246.933.4a.284.284,0,0,1,.262-.3h.023a.288.288,0,0,1,.285.251,5.568,5.568,0,0,0,.256.94,1.176,1.176,0,0,1-.063,1.116A.676.676,0,0,1,247.161,2.691Z" transform="translate(-245.122 -0.1)" fill="#fff"/>
      <path id="Path_3773" data-name="Path 3773" d="M251.933,5a5.228,5.228,0,0,0,.273,1c.228.661-.046,1.025-.33,1.025s-.376-.342-.376-.6a1.487,1.487,0,0,1,.2-.678s0,.336.091.336S251.956,5.535,251.933,5Z" transform="translate(-249.837 -4.721)" fill="#ffaa39"/>
      <path id="Path_3774" data-name="Path 3774" d="M253.13,16.3a1.975,1.975,0,0,1,.159.649c.04.456-.074.649-.29.649s-.3-.216-.308-.382a1.135,1.135,0,0,1,.1-.507s.074.285.142.285S253.141,16.676,253.13,16.3Z" transform="translate(-250.96 -15.377)" fill="#faf180"/>
    </g>
    <path id="Path_3775" data-name="Path 3775" d="M137.838,182.027V188.4H122.6v-6.372a2.226,2.226,0,0,1,2.227-2.227h10.78A2.227,2.227,0,0,1,137.838,182.027Z" transform="translate(1281.215 410.858)" fill="#fff"/>
    <path id="Path_3776" data-name="Path 3776" d="M134.263,189.8h10.78a1.655,1.655,0,0,1,1.657,1.657v5.8H132.6v-5.808A1.659,1.659,0,0,1,134.263,189.8Z" transform="translate(1271.784 401.427)" fill="#0476bb"/>
    <path id="Path_3777" data-name="Path 3777" d="M145.538,193.547v-.74a.832.832,0,0,0-1.663-.034v2.033a.832.832,0,0,1-1.663.034v-2.033a.832.832,0,0,0-1.663-.034v.752a.832.832,0,0,1-1.663.034v-.752a.832.832,0,0,0-1.663-.034v1.6a.832.832,0,0,1-1.663.034v-1.6a.839.839,0,0,0-.809-.848.806.806,0,0,0-.518.165v1.344a2.34,2.34,0,0,0,2.34,2.34h10.1v1.458H132.6v-5.808a1.655,1.655,0,0,1,1.657-1.657h10.78a1.655,1.655,0,0,1,1.657,1.657v2.853a.817.817,0,0,1-.33.068.835.835,0,0,1-.826-.831Z" transform="translate(1271.784 401.427)" opacity="0.3"/>
    <path id="Path_3778" data-name="Path 3778" d="M127.778,180.553a1.4,1.4,0,0,1-1.4-1.4v-2.078a.261.261,0,0,0-.262-.262.258.258,0,0,0-.262.262v.763a1.4,1.4,0,0,1-2.8,0v-.763a.261.261,0,0,0-.251-.273.258.258,0,0,0-.273.251v1.634a1.4,1.4,0,0,1-2.8.057v-1.668a.261.261,0,0,0-.251-.273.258.258,0,0,0-.273.251v.467a1.4,1.4,0,1,1-2.8.057v-1.748a2.227,2.227,0,0,1,2.232-2.227h11.611a2.226,2.226,0,0,1,2.227,2.227v2.01a1.4,1.4,0,0,1-2.8,0v-.763a.262.262,0,1,0-.524-.023v2.1A1.357,1.357,0,0,1,127.778,180.553Z" transform="translate(1287.062 416.705)" fill="#fff"/>
    <path id="Path_3779" data-name="Path 3779" d="M141.259,185.544v2.01a.831.831,0,0,1-1.663.006V186.8a.831.831,0,1,0-1.663,0v2.078a.831.831,0,0,1-1.663.006V186.8a.831.831,0,0,0-1.663,0v.763a.831.831,0,1,1-1.663,0V186.8a.831.831,0,0,0-1.663,0v1.612a.831.831,0,0,1-1.663,0V186.8a.829.829,0,1,0-1.657,0v.444a.831.831,0,0,1-1.663-.006v-1.686a1.66,1.66,0,0,1,1.663-1.657h11.611a1.648,1.648,0,0,1,1.686,1.646Z" transform="translate(1277.726 406.993)" fill="#c73100"/>
    <path id="Path_3780" data-name="Path 3780" d="M142.489,193.928a.535.535,0,0,1-.535-.535v-2.078a1.122,1.122,0,1,0-2.244,0v.763a.536.536,0,0,1-1.071,0v-.763a1.125,1.125,0,1,0-2.249-.051v1.663a.536.536,0,1,1-1.071.034v-1.646a1.125,1.125,0,1,0-2.249-.051v.5a.536.536,0,0,1-1.071.034v-1.725a1.363,1.363,0,0,1,1.367-1.367h11.611a1.363,1.363,0,0,1,1.367,1.367v2.01a.536.536,0,0,1-1.071,0v-.763a1.125,1.125,0,1,0-2.249-.051v2.13A.535.535,0,0,1,142.489,193.928Z" transform="translate(1272.35 402.465)" fill="#fe4d0b"/>
    <path id="Path_3781" data-name="Path 3781" d="M104.386,307.828v8.12H84.9v-8.12a2.724,2.724,0,0,1,2.728-2.728h14.026A2.729,2.729,0,0,1,104.386,307.828Z" transform="translate(1316.768 292.693)" fill="#fff"/>
    <path id="Path_3782" data-name="Path 3782" d="M97.153,315.1h14.025a2.161,2.161,0,0,1,2.158,2.158v7.551H95v-7.551A2.156,2.156,0,0,1,97.153,315.1Z" transform="translate(1307.242 283.262)" fill="#0476bb"/>
    <path id="Path_3783" data-name="Path 3783" d="M111.827,319.98v-.962a1.094,1.094,0,0,0-1.065-1.1,1.082,1.082,0,0,0-1.093,1.071v2.642a1.094,1.094,0,0,1-1.065,1.1,1.073,1.073,0,0,1-1.093-1.065v-2.648a1.094,1.094,0,0,0-1.065-1.1,1.082,1.082,0,0,0-1.093,1.071v.979a1.094,1.094,0,0,1-1.065,1.1,1.072,1.072,0,0,1-1.093-1.059v-.985a1.094,1.094,0,0,0-1.065-1.1,1.082,1.082,0,0,0-1.093,1.071v2.078a1.09,1.09,0,0,1-1.065,1.1,1.073,1.073,0,0,1-1.093-1.065v-2.084a1.091,1.091,0,0,0-1.048-1.1,1.071,1.071,0,0,0-.678.216v1.748a3.04,3.04,0,0,0,3.041,3.041h13.143v1.9H95v-7.568a2.161,2.161,0,0,1,2.158-2.158h14.026a2.161,2.161,0,0,1,2.158,2.158v3.707a1.075,1.075,0,0,1-1.418-.558A1,1,0,0,1,111.827,319.98Z" transform="translate(1307.243 283.262)" opacity="0.3"/>
    <path id="Path_3784" data-name="Path 3784" d="M91.995,305.8a1.653,1.653,0,0,1-1.651-1.651v-2.7a.513.513,0,0,0-1.019-.108.345.345,0,0,0,0,.108v1a1.649,1.649,0,0,1-3.3.006v-1a.507.507,0,0,0-1.014-.034v2.13a1.652,1.652,0,0,1-3.3,0v-2.1a.516.516,0,0,0-.564-.456.51.51,0,0,0-.456.456v.581a1.649,1.649,0,1,1-3.3,0v-2.209a2.739,2.739,0,0,1,2.728-2.728H95.235a2.739,2.739,0,0,1,2.728,2.728v2.614a1.649,1.649,0,0,1-3.3,0v-.991a.507.507,0,1,0-1.014-.034v2.739A1.667,1.667,0,0,1,91.995,305.8Z" transform="translate(1323.841 300.237)" fill="#fff"/>
    <path id="Path_3785" data-name="Path 3785" d="M106.441,309.258v2.614a1.082,1.082,0,1,1-2.164,0v-.991a1.079,1.079,0,1,0-2.158,0v2.7a1.082,1.082,0,1,1-2.164,0v-2.7a1.082,1.082,0,1,0-2.164,0v1a1.079,1.079,0,1,1-2.158,0v-1a1.076,1.076,0,1,0-2.153,0v2.1a1.079,1.079,0,1,1-2.158,0v-2.1a1.079,1.079,0,1,0-2.158,0v.581a1.082,1.082,0,0,1-2.164,0v-2.2a2.161,2.161,0,0,1,2.158-2.158h15.13a2.156,2.156,0,0,1,2.153,2.158Z" transform="translate(1314.787 290.807)" fill="#c73100"/>
    <path id="Path_3786" data-name="Path 3786" d="M107.65,320.594a.7.7,0,0,1-.695-.695v-2.7a1.464,1.464,0,0,0-2.927,0v1a.695.695,0,1,1-1.389,0v-1a1.464,1.464,0,0,0-2.927,0v2.1a.7.7,0,0,1-1.4,0v-2.1a1.464,1.464,0,0,0-2.927,0v.581a.695.695,0,1,1-1.389,0v-2.2a1.779,1.779,0,0,1,1.777-1.777h15.107a1.779,1.779,0,0,1,1.777,1.777v2.614a.695.695,0,1,1-1.389,0V317.2a1.464,1.464,0,0,0-2.927,0v2.7a.693.693,0,0,1-.695.689Z" transform="translate(1308.186 284.488)" fill="#fe4d0b"/>
    <path id="Path_3787" data-name="Path 3787" d="M54,460.981a1.541,1.541,0,0,1,0-3.081H74.162a1.541,1.541,0,0,1,0,3.081Z" transform="translate(1347.328 148.594)" fill="#fff"/>
    <path id="Path_3788" data-name="Path 3788" d="M62.874,467.9H83.032a.968.968,0,0,1,0,1.936H62.874a.968.968,0,1,1,0-1.936Z" transform="translate(1338.458 139.164)" fill="#ffc34d"/>
    <path id="Path_3789" data-name="Path 3789" d="M84.095,484.9a.973.973,0,0,1-.974.974H62.968A.972.972,0,0,1,62,484.9Z" transform="translate(1338.363 123.131)" fill="#ffb600"/>
  </g>
</svg>
