<svg xmlns="http://www.w3.org/2000/svg" width="37.848" height="38" viewBox="0 0 37.848 38">
  <path id="ic-combine_age" data-name="ic-combine age" d="M16323.426-5208a.952.952,0,0,1-.951-.952v-11.93h-1.3a2.455,2.455,0,0,1-.546-.062v11.991a.953.953,0,0,1-.952.952h-8.984a.952.952,0,0,1-.951-.952v-11.93h-1.3a2.452,2.452,0,0,1-2.448-2.449v-6.74a7.7,7.7,0,0,1,5.51-7.377,5.057,5.057,0,0,1-1.388-3.482,5.075,5.075,0,0,1,5.066-5.07,5.079,5.079,0,0,1,5.071,5.07,5.046,5.046,0,0,1-1.115,3.167h4.82a5.05,5.05,0,0,1-1.113-3.167,5.075,5.075,0,0,1,5.066-5.07,5.077,5.077,0,0,1,5.071,5.07,5.045,5.045,0,0,1-1.114,3.167h.54a5.046,5.046,0,0,0,5.037-5.042,3.2,3.2,0,0,1,3.2-3.2,3.2,3.2,0,0,1,3.2,3.2,11.345,11.345,0,0,1-3.352,8.085,11.319,11.319,0,0,1-7.134,3.311v22.456a.952.952,0,0,1-.947.952Zm8.037-1.9v-22.415a.949.949,0,0,1,.952-.948,9.548,9.548,0,0,0,9.533-9.538,1.3,1.3,0,0,0-1.3-1.3,1.3,1.3,0,0,0-1.3,1.3,6.949,6.949,0,0,1-6.94,6.945h-6a5.794,5.794,0,0,0-5.787,5.789v6.74a.545.545,0,0,0,.546.545h2.247a.948.948,0,0,1,.947.952v11.929h2.6v-9.681a.95.95,0,0,1,.948-.952.953.953,0,0,1,.952.952v9.681Zm-12.729,0v-13.286c0-.046,0-.093,0-.14v-6.74a7.676,7.676,0,0,1,2.631-5.789h-7.67a5.8,5.8,0,0,0-5.792,5.789v6.74a.546.546,0,0,0,.55.545h2.248a.952.952,0,0,1,.947.952v11.929h2.593v-9.681a.953.953,0,0,1,.952-.952.949.949,0,0,1,.948.952v9.681Zm6.018-31.026a3.169,3.169,0,0,0,3.167,3.167,3.173,3.173,0,0,0,3.172-3.167,3.176,3.176,0,0,0-3.172-3.171A3.172,3.172,0,0,0,16324.751-5240.931Zm-12.729,0a3.169,3.169,0,0,0,3.167,3.167,3.172,3.172,0,0,0,3.172-3.167,3.176,3.176,0,0,0-3.172-3.171A3.172,3.172,0,0,0,16312.021-5240.931Z" transform="translate(-16306 5246.001)" fill="#0779be"/>
</svg>
