<svg xmlns="http://www.w3.org/2000/svg" xmlns:xlink="http://www.w3.org/1999/xlink" width="112" height="112" viewBox="0 0 112 112">
  <defs>
    <clipPath id="clip-path">
      <circle id="Ellipse_93" data-name="Ellipse 93" cx="56" cy="56" r="56" fill="#fff"/>
    </clipPath>
  </defs>
  <g id="ic-cow" transform="translate(-453 -977)">
    <circle id="Ellipse_26" data-name="Ellipse 26" cx="56" cy="56" r="56" transform="translate(453 977)" fill="#cbffa8"/>
    <g id="Mask_Group_16" data-name="Mask Group 16" transform="translate(453 977)" clip-path="url(#clip-path)">
      <g id="Group_2349" data-name="Group 2349" transform="translate(14.699 -22.311)">
        <g id="Group_2348" data-name="Group 2348" transform="translate(0 44.129)">
          <g id="Group_2321" data-name="Group 2321" transform="translate(0 7.954)">
            <path id="Path_3896" data-name="Path 3896" d="M6.017,117.144a1.226,1.226,0,0,1-.945-.443A20.6,20.6,0,0,1,2.079,94.158a1.228,1.228,0,0,1,2.24,1.008c-4.05,9-.8,15.822,2.642,19.965a1.228,1.228,0,0,1-.944,2.013Z" transform="translate(0 -93.434)" fill="#dddaec"/>
          </g>
          <g id="Group_2322" data-name="Group 2322" transform="translate(53.897 5.697)">
            <path id="Path_3897" data-name="Path 3897" d="M338.6,80.632a2.286,2.286,0,0,0-4.279,1.346l-.246,4.679A13.988,13.988,0,0,1,341.3,84.09Z" transform="translate(-334.079 -79.439)" fill="#2b4d66" fill-rule="evenodd"/>
          </g>
          <g id="Group_2323" data-name="Group 2323" transform="translate(62.981 5.697)">
            <path id="Path_3898" data-name="Path 3898" d="M393.078,80.632l-2.7,3.458a14.015,14.015,0,0,1,7.222,2.567l-.246-4.679a2.286,2.286,0,0,0-4.279-1.346Z" transform="translate(-390.381 -79.439)" fill="#2b4d66" fill-rule="evenodd"/>
          </g>
          <g id="Group_2324" data-name="Group 2324" transform="translate(1.566 0)">
            <path id="Path_3899" data-name="Path 3899" d="M17.326,44.442c-1.912-1.23-5.254,1.388-7.046,4.052a3.421,3.421,0,0,0,.933,4.734l.125.084A3.422,3.422,0,0,0,15.947,52.3C18.356,48.717,19.238,45.677,17.326,44.442Z" transform="translate(-9.705 -44.129)" fill="#365e7d" fill-rule="evenodd"/>
          </g>
          <g id="Group_2325" data-name="Group 2325" transform="translate(54.139 50.864)">
            <path id="Path_3900" data-name="Path 3900" d="M344.844,359.406a29.516,29.516,0,0,1-9.269,1.462l.836,10.982h7.324Z" transform="translate(-335.575 -359.406)" fill="#d0cee7" fill-rule="evenodd"/>
          </g>
          <g id="Group_2326" data-name="Group 2326" transform="translate(5.691 16.463)">
            <path id="Path_3901" data-name="Path 3901" d="M59.44,146.183c-3.8,2.005-19.527,16.881-24.163,19.861.065,6.526.371,11.785.891,18.659l.631,8.318h7.324l.752-9.2a10.9,10.9,0,0,0,1.467.1h22.78l.687,9.1h7.324l.989-11.038c.469-.056,2.738.125,5.6.056a29.516,29.516,0,0,0,9.269-1.462c3.1-1.16,5.444-3.2,5.454-6.753l0-1.281c-6.577-9.292-11.45-23.524-24.99-26.327.111-.06-10.787-.032-14.022-.032Z" transform="translate(-35.277 -146.177)" fill="#dddaec" fill-rule="evenodd"/>
          </g>
          <g id="Group_2327" data-name="Group 2327" transform="translate(70.811 12.781)">
            <path id="Path_3902" data-name="Path 3902" d="M445.766,125.033a6.059,6.059,0,0,0-6.851-1.082c0,3.087.944,4.622,1.8,7.291.339,1.04,1.228,1.79,3.275,2.243,3.147-.524,6.145-2.353,6.628-4.637C451.094,126.611,449.609,129.057,445.766,125.033Z" transform="translate(-438.915 -123.349)" fill="#2b4d66" fill-rule="evenodd"/>
          </g>
          <g id="Group_2328" data-name="Group 2328" transform="translate(41.485 12.781)">
            <path id="Path_3903" data-name="Path 3903" d="M262.08,125.033a10.241,10.241,0,0,1-2.548,2.038c-1.94,1.026-2.655.13-2.307,1.778.483,2.284,3.5,4.052,6.642,4.577,1.888-1.059,5.686-6.387,5.064-9.473a6.059,6.059,0,0,0-6.851,1.081Z" transform="translate(-257.141 -123.349)" fill="#2b4d66" fill-rule="evenodd"/>
          </g>
          <g id="Group_2329" data-name="Group 2329" transform="translate(5.682 16.47)">
            <path id="Path_3904" data-name="Path 3904" d="M52.574,146.216A17.356,17.356,0,0,0,35.22,163.576c0,.854,0,1.689.009,2.5,1.866,1.007,9.172,4.052,11.994-2.112,4.563-9.965,13.7-.836,12.17-17.749H52.574Z" transform="translate(-35.22 -146.216)" fill="#365e7d" fill-rule="evenodd"/>
          </g>
          <g id="Group_2330" data-name="Group 2330" transform="translate(54.974 63.308)">
            <path id="Path_3905" data-name="Path 3905" d="M340.753,436.539l.246,3.24a1.874,1.874,0,0,0,1.815,1.815h5.249c1.908,0,2.26-1.392,1.495-2.636l-1.481-2.418Z" transform="translate(-340.753 -436.539)" fill="#365e7d" fill-rule="evenodd"/>
          </g>
          <g id="Group_2331" data-name="Group 2331" transform="translate(40.224 63.308)">
            <path id="Path_3906" data-name="Path 3906" d="M249.323,436.539l.246,3.24a1.877,1.877,0,0,0,1.815,1.815h5.254c1.9,0,2.256-1.392,1.495-2.636l-1.485-2.418Z" transform="translate(-249.323 -436.539)" fill="#365e7d" fill-rule="evenodd"/>
          </g>
          <g id="Group_2332" data-name="Group 2332" transform="translate(21.653 54.206)">
            <path id="Path_3907" data-name="Path 3907" d="M134.216,380.121l.692,9.1h7.324l.812-9.1Z" transform="translate(-134.216 -380.121)" fill="#d0cee7" fill-rule="evenodd"/>
          </g>
          <g id="Group_2333" data-name="Group 2333" transform="translate(22.345 63.308)">
            <path id="Path_3908" data-name="Path 3908" d="M145.827,436.539H138.5l.246,3.24a1.874,1.874,0,0,0,1.815,1.815h5.249c1.908,0,2.26-1.392,1.495-2.636Z" transform="translate(-138.503 -436.539)" fill="#365e7d" fill-rule="evenodd"/>
          </g>
          <g id="Group_2334" data-name="Group 2334" transform="translate(19.065 34.907)">
            <path id="Path_3909" data-name="Path 3909" d="M124.985,263.046a5.733,5.733,0,0,0-5.4,1.508,4.983,4.983,0,0,0,.59,7.454c1.889,1.55,4.674,1.824,6.266-.641a7.7,7.7,0,0,1,2.78-2.646c1.792-1.017,3.458-1.211,4.163-3.323a3.623,3.623,0,0,0-5.723-4.033C126.642,262.216,126.275,263.325,124.985,263.046Z" transform="translate(-118.173 -260.499)" fill="#365e7d" fill-rule="evenodd"/>
          </g>
          <g id="Group_2335" data-name="Group 2335" transform="translate(40.127 26.24)">
            <path id="Path_3910" data-name="Path 3910" d="M249.537,219.394c-4.289,5.7,9.7,13.354,12.383,2.553-.074-.065-.149-.13-.223-.2-4.159-3.723-5.036-6.67-3.968-8.856l-.237-3.017c-.079-1.03-.246-2.061-.394-3.1C247.082,206.736,253.682,213.884,249.537,219.394Z" transform="translate(-248.726 -206.778)" fill="#365e7d" fill-rule="evenodd"/>
          </g>
          <g id="Group_2336" data-name="Group 2336" transform="translate(7.214 63.308)">
            <path id="Path_3911" data-name="Path 3911" d="M52.038,436.539H44.714l.246,3.24a1.874,1.874,0,0,0,1.815,1.815h5.254c1.9,0,2.256-1.392,1.49-2.636Z" transform="translate(-44.714 -436.539)" fill="#365e7d" fill-rule="evenodd"/>
          </g>
          <g id="Group_2337" data-name="Group 2337" transform="translate(48.21 10.32)">
            <path id="Path_3912" data-name="Path 3912" d="M312.662,108.1a14.081,14.081,0,0,0-13.4,9.757,9.358,9.358,0,0,0-.432,2.78,21.918,21.918,0,0,0,.288,3.384c.149,1.035.316,2.066.394,3.1l.125,1.587.111,1.43c2.971-3.333,22.822-2.864,25.788.357l.339-4.428c.153-2.038.627-3.625.631-5.366a8.786,8.786,0,0,0-.446-2.841,14.081,14.081,0,0,0-13.4-9.756Z" transform="translate(-298.829 -108.096)" fill="#f9f6f6" fill-rule="evenodd"/>
          </g>
          <g id="Group_2338" data-name="Group 2338" transform="translate(48.715 27.662)">
            <path id="Path_3913" data-name="Path 3913" d="M328.162,220.637c-2.785-6.577-22.65-6.763-25.788-.357-1.068,2.186-.19,5.134,3.968,8.856l.223.2a16.219,16.219,0,0,0,2.39,1.722,12.149,12.149,0,0,0,8.243,1.629,13,13,0,0,0,4.911-1.931,16.472,16.472,0,0,0,2.121-1.62c3.927-3.509,4.841-6.345,3.931-8.5Z" transform="translate(-301.959 -215.587)" fill="#d09080" fill-rule="evenodd"/>
          </g>
          <g id="Group_2339" data-name="Group 2339" transform="translate(62.753 10.334)">
            <path id="Path_3914" data-name="Path 3914" d="M397.029,111.232a14.008,14.008,0,0,0-8.058-3.049,14.166,14.166,0,0,1,8.364,8.833,9.048,9.048,0,0,1,.446,2.841c-.009,1.741-.483,3.328-.636,5.366l-.139,1.852a7.264,7.264,0,0,1,4.131,3.486l.339-4.428c.153-2.038.627-3.625.631-5.366a8.786,8.786,0,0,0-.446-2.841A14.07,14.07,0,0,0,397.029,111.232Z" transform="translate(-388.971 -108.183)" fill="#dddaec" fill-rule="evenodd"/>
          </g>
          <g id="Group_2340" data-name="Group 2340" transform="translate(51.396 29.225)">
            <path id="Path_3915" data-name="Path 3915" d="M336.261,231.479a20.655,20.655,0,0,1-2.228,2.3,16.817,16.817,0,0,1-2.121,1.62A13.1,13.1,0,0,1,327,237.328a12.186,12.186,0,0,1-8.243-1.629l-.181-.111a22.539,22.539,0,0,0,1.7,1.676l.223.2a16.222,16.222,0,0,0,2.39,1.722,12.149,12.149,0,0,0,8.243,1.629,13,13,0,0,0,4.911-1.931,16.474,16.474,0,0,0,2.121-1.62c3.927-3.509,4.841-6.345,3.931-8.5a7.265,7.265,0,0,0-4.131-3.486,4.114,4.114,0,0,1,.316,1.824,7.732,7.732,0,0,1-2.019,4.377Z" transform="translate(-318.572 -225.278)" fill="#ce775f" fill-rule="evenodd"/>
          </g>
          <g id="Group_2341" data-name="Group 2341" transform="translate(51.266 41.409)">
            <path id="Path_3916" data-name="Path 3916" d="M330.456,304.152a12.15,12.15,0,0,1-8.243-1.629,16.2,16.2,0,0,1-2.39-1.722,7.868,7.868,0,0,1-2.056,3.871c.042.032.079.07.116.1,3.412,3,8.944,3.625,16.175,2.683a6.255,6.255,0,0,0,1.3-3.955l0-1.281A13,13,0,0,1,330.456,304.152Z" transform="translate(-317.766 -300.801)" fill="#d0cee7" fill-rule="evenodd"/>
          </g>
          <g id="Group_2342" data-name="Group 2342" transform="translate(45.478 26.24)">
            <path id="Path_3917" data-name="Path 3917" d="M284.913,206.778a12.228,12.228,0,0,0-3.022.3c.357,2.446.529,4.8.719,7.269-.45,3.384-.265,6.651,5.068,11.469a7.868,7.868,0,0,0,2.056-3.871l-.223-.2a22.6,22.6,0,0,1-1.7-1.676c-2.683-2.943-3.165-5.333-2.265-7.181l-.111-1.43-.125-1.587c-.079-1.03-.246-2.061-.394-3.1Z" transform="translate(-281.891 -206.778)" fill="#2b4d66" fill-rule="evenodd"/>
          </g>
          <g id="Group_2343" data-name="Group 2343" transform="translate(37.436 16.465)">
            <path id="Path_3918" data-name="Path 3918" d="M242.821,152.58a11.984,11.984,0,0,1-3.216-1.007c-1.764-.849-3.114-2.1-3.425-3.569-.348-1.648.367-.752,2.307-1.778.051-.028-3.365-.037-6.377-.037-.877,7.854,7.658,7.928,7.979,10.077a12.228,12.228,0,0,1,3.022-.3A21.9,21.9,0,0,1,242.821,152.58Z" transform="translate(-232.045 -146.189)" fill="#d0cee7" fill-rule="evenodd"/>
          </g>
          <g id="Group_2344" data-name="Group 2344" transform="translate(55.417 20.765)">
            <path id="Path_3919" data-name="Path 3919" d="M344.726,176.239a1.228,1.228,0,0,1-1.228-1.228v-.942a1.228,1.228,0,0,1,2.456,0v.942A1.228,1.228,0,0,1,344.726,176.239Z" transform="translate(-343.498 -172.841)" fill="#365e7d"/>
          </g>
          <g id="Group_2345" data-name="Group 2345" transform="translate(66.227 20.765)">
            <path id="Path_3920" data-name="Path 3920" d="M411.731,176.239a1.228,1.228,0,0,1-1.228-1.228v-.942a1.228,1.228,0,0,1,2.456,0v.942A1.228,1.228,0,0,1,411.731,176.239Z" transform="translate(-410.503 -172.841)" fill="#365e7d"/>
          </g>
          <g id="Group_2346" data-name="Group 2346" transform="translate(56.689 33.567)">
            <path id="Path_3921" data-name="Path 3921" d="M352.609,256.633a1.228,1.228,0,0,1-1.228-1.228v-1.987a1.228,1.228,0,1,1,2.456,0V255.4A1.228,1.228,0,0,1,352.609,256.633Z" transform="translate(-351.381 -252.19)" fill="#365e7d"/>
          </g>
          <g id="Group_2347" data-name="Group 2347" transform="translate(64.955 33.567)">
            <path id="Path_3922" data-name="Path 3922" d="M403.848,256.633a1.228,1.228,0,0,1-1.228-1.228v-1.987a1.228,1.228,0,1,1,2.456,0V255.4A1.228,1.228,0,0,1,403.848,256.633Z" transform="translate(-402.62 -252.19)" fill="#365e7d"/>
          </g>
        </g>
      </g>
    </g>
  </g>
</svg>
