<svg xmlns="http://www.w3.org/2000/svg" xmlns:xlink="http://www.w3.org/1999/xlink" width="112" height="112" viewBox="0 0 112 112">
  <defs>
    <clipPath id="clip-path">
      <circle id="Ellipse_93" data-name="Ellipse 93" cx="56" cy="56" r="56" fill="#fff"/>
    </clipPath>
  </defs>
  <g id="ic-cat" transform="translate(-453 -977)">
    <circle id="Ellipse_26" data-name="Ellipse 26" cx="56" cy="56" r="56" transform="translate(453 977)" fill="#dbfded"/>
    <g id="Mask_Group_16" data-name="Mask Group 16" transform="translate(453 977)" clip-path="url(#clip-path)">
      <g id="Group_2354" data-name="Group 2354" transform="translate(14.808 23.276)">
        <path id="Path_3932" data-name="Path 3932" d="M284.83,391.928A4.228,4.228,0,0,1,280.6,387.7v-8.05a4.228,4.228,0,0,1,8.457,0v8.05A4.228,4.228,0,0,1,284.83,391.928Zm0,0" transform="translate(-236.546 -316.48)" fill="#e3e2e1"/>
        <path id="Path_3933" data-name="Path 3933" d="M13.82,332.392a15.476,15.476,0,0,1-4-.531A15.272,15.272,0,0,1,.483,324.7a3.6,3.6,0,0,1,6.235-3.6,8.173,8.173,0,0,0,11.164,2.991,3.6,3.6,0,0,1,3.6,6.235,15.284,15.284,0,0,1-7.661,2.066Zm0,0" transform="translate(0 -269.169)" fill="#ddaf89"/>
        <path id="Path_3934" data-name="Path 3934" d="M80.522,347.223a8.116,8.116,0,0,1-5.964.874,16.658,16.658,0,0,0,.318,7.343,15.194,15.194,0,0,0,9.245-1.982,3.6,3.6,0,0,0-3.6-6.235Zm0,0" transform="translate(-62.641 -292.301)" fill="#c9a07d"/>
        <path id="Path_3935" data-name="Path 3935" d="M130.017,291.608c-2.086,10.582-9.065,12.576-20.246,12.576-13.212,0-22.087-.135-20.247-12.576,1.332-9,9.065-12.171,20.247-12.171S131.619,283.49,130.017,291.608Zm0,0" transform="translate(-75.265 -235.565)" fill="#eeeeed"/>
        <path id="Path_3936" data-name="Path 3936" d="M99.021,7.492C93.517,3.343,79.327-3,74.726,1.6S76.464,20.4,80.614,25.9Zm0,0" transform="translate(-61.641 0)" fill="#ddaf89"/>
        <path id="Path_3937" data-name="Path 3937" d="M89.5,35.541a43.814,43.814,0,0,0,4.921,8.944l18.407-18.407a41,41,0,0,0-6.933-4.031A37.761,37.761,0,0,0,96,28.106a32.862,32.862,0,0,0-6.5,7.434Zm0,0" transform="translate(-75.448 -18.586)" fill="#c9a07d"/>
        <path id="Path_3938" data-name="Path 3938" d="M90.486,41.326C84.9,33.666,78.34,30.859,73.261,30.012,72.227,36.1,77.173,46.636,80.614,51.2Zm0,0" transform="translate(-61.641 -25.3)" fill="#f5c9c2"/>
        <path id="Path_3939" data-name="Path 3939" d="M89.5,63.914a43.829,43.829,0,0,0,4.92,8.946l9.872-9.873a30.5,30.5,0,0,0-7.349-7.28c-.318.254-.635.511-.945.775A32.853,32.853,0,0,0,89.5,63.914Zm0,0" transform="translate(-75.451 -46.961)" fill="#e6bab3"/>
        <path id="Path_3940" data-name="Path 3940" d="M347.039,7.492C352.542,3.343,366.731-3,371.333,1.6S369.6,20.4,365.446,25.9Zm0,0" transform="translate(-292.552 0)" fill="#ddaf89"/>
        <path id="Path_3941" data-name="Path 3941" d="M370.367,35.541a43.814,43.814,0,0,1-4.921,8.944L347.039,26.078a40.976,40.976,0,0,1,6.933-4.031,37.747,37.747,0,0,1,9.9,6.059,32.88,32.88,0,0,1,6.5,7.434Zm0,0" transform="translate(-292.553 -18.586)" fill="#c9a07d"/>
        <path id="Path_3942" data-name="Path 3942" d="M401.395,41.326c5.585-7.661,12.147-10.468,17.226-11.315,1.034,6.089-3.912,16.625-7.353,21.188Zm0,0" transform="translate(-338.374 -25.3)" fill="#f5c9c2"/>
        <path id="Path_3943" data-name="Path 3943" d="M416.188,63.914a43.858,43.858,0,0,1-4.921,8.946l-9.873-9.873a30.512,30.512,0,0,1,7.349-7.28c.319.254.635.511.945.775A32.872,32.872,0,0,1,416.188,63.914Zm0,0" transform="translate(-338.374 -46.961)" fill="#e6bab3"/>
        <path id="Path_3944" data-name="Path 3944" d="M145.157,45.481c0,14.538-15.1,23.193-33.736,23.193S77.684,60.018,77.684,45.481s15.1-28.063,33.736-28.063,33.736,13.525,33.736,28.063Zm0,0" transform="translate(-65.487 -14.684)" fill="#eeeeed"/>
        <path id="Path_3945" data-name="Path 3945" d="M111.424,113.076a52.507,52.507,0,0,0,13.711-1.734C80,112.4,77.217,86.139,87.941,70.09c-6.322,5.228-10.253,12.378-10.253,19.793,0,14.538,15.1,23.193,33.736,23.193Zm0,0" transform="translate(-65.491 -59.086)" fill="#e3e2e1"/>
        <path id="Path_3946" data-name="Path 3946" d="M286.237,171.963a1.178,1.178,0,0,1-1.178-1.178v-3.757a1.178,1.178,0,1,1,2.355,0v3.757A1.177,1.177,0,0,1,286.237,171.963Zm0,0" transform="translate(-240.304 -139.812)" fill="#495059"/>
        <path id="Path_3947" data-name="Path 3947" d="M161.349,158.389c0-2.594-2.641-4.7-5.9-4.7s-5.9,2.1-5.9,4.7,2.641,4.7,5.9,4.7S161.349,160.984,161.349,158.389Zm0,0" transform="translate(-126.071 -129.561)" fill="#eb8d9a"/>
        <path id="Path_3948" data-name="Path 3948" d="M372.217,158.389c0-2.594-2.641-4.7-5.9-4.7s-5.9,2.1-5.9,4.7,2.641,4.7,5.9,4.7S372.217,160.984,372.217,158.389Zm0,0" transform="translate(-303.831 -129.561)" fill="#eb8d9a"/>
        <path id="Path_3949" data-name="Path 3949" d="M202.7,137.435a1.178,1.178,0,0,1-1.178-1.178v-2.083a1.178,1.178,0,1,1,2.355,0v2.083A1.177,1.177,0,0,1,202.7,137.435Zm0,0" transform="translate(-169.883 -112.116)" fill="#495059"/>
        <path id="Path_3950" data-name="Path 3950" d="M369.772,137.435a1.178,1.178,0,0,1-1.178-1.178v-2.083a1.178,1.178,0,1,1,2.355,0v2.083A1.177,1.177,0,0,1,369.772,137.435Zm0,0" transform="translate(-310.723 -112.116)" fill="#495059"/>
        <path id="Path_3951" data-name="Path 3951" d="M254.1,193.64a5.549,5.549,0,0,1-3.3-1.089,5.548,5.548,0,0,1-7.488-.819,1.177,1.177,0,0,1,1.775-1.547,3.2,3.2,0,0,0,4.825,0,1.177,1.177,0,0,1,1.776,0,3.2,3.2,0,0,0,4.825,0,1.177,1.177,0,0,1,1.776,1.547A5.554,5.554,0,0,1,254.1,193.64Zm0,0" transform="translate(-204.865 -159.985)" fill="#495059"/>
        <path id="Path_3952" data-name="Path 3952" d="M273.253,147.42a8.956,8.956,0,0,0-4.537,0,2.634,2.634,0,0,0-1.511,1.067,1.379,1.379,0,0,0,.58,2.036l2.18.969a2.508,2.508,0,0,0,2.039,0l2.18-.969a1.379,1.379,0,0,0,.58-2.036A2.633,2.633,0,0,0,273.253,147.42Zm0,0" transform="translate(-225.052 -124.029)" fill="#f5c9c2"/>
        <g id="Group_2353" data-name="Group 2353" transform="translate(19.007 28.678)">
          <path id="Path_3953" data-name="Path 3953" d="M122.241,186.526a1.178,1.178,0,0,1-.481-2.253,29.479,29.479,0,0,1,8.445-1.6,1.177,1.177,0,1,1-.1,2.353,27.811,27.811,0,0,0-7.388,1.4,1.174,1.174,0,0,1-.478.1Zm0,0" transform="translate(-121.062 -182.664)" fill="#495059"/>
          <path id="Path_3954" data-name="Path 3954" d="M143.228,221.593a1.178,1.178,0,0,1-.873-1.967,29.429,29.429,0,0,1,7.076-4.879,1.177,1.177,0,1,1,.862,2.191A27.741,27.741,0,0,0,144.1,221.2a1.176,1.176,0,0,1-.874.388Zm0,0" transform="translate(-138.756 -209.64)" fill="#495059"/>
          <path id="Path_3955" data-name="Path 3955" d="M407.727,186.526a1.177,1.177,0,0,1-.479-.1,27.693,27.693,0,0,0-7.388-1.4,1.177,1.177,0,1,1-.1-2.353,29.429,29.429,0,0,1,8.445,1.6,1.178,1.178,0,0,1-.481,2.253Zm0,0" transform="translate(-355.054 -182.664)" fill="#495059"/>
          <path id="Path_3956" data-name="Path 3956" d="M393.625,221.594a1.176,1.176,0,0,1-.874-.388,27.737,27.737,0,0,0-6.191-4.267,1.177,1.177,0,1,1,.862-2.191,29.422,29.422,0,0,1,7.077,4.879,1.178,1.178,0,0,1-.873,1.967Zm0,0" transform="translate(-344.246 -209.641)" fill="#495059"/>
        </g>
        <path id="Path_3957" data-name="Path 3957" d="M208.642,391.928a4.228,4.228,0,0,1-4.228-4.228v-8.05a4.228,4.228,0,0,1,8.456,0v8.05A4.228,4.228,0,0,1,208.642,391.928Zm0,0" transform="translate(-172.32 -316.48)" fill="#e3e2e1"/>
        <path id="Path_3958" data-name="Path 3958" d="M103.533,391.928A4.228,4.228,0,0,1,99.3,387.7v-8.05a4.228,4.228,0,0,1,8.457,0v8.05a4.228,4.228,0,0,1-4.228,4.228Zm0,0" transform="translate(-83.713 -316.48)" fill="#e3e2e1"/>
      </g>
    </g>
  </g>
</svg>
