<svg xmlns="http://www.w3.org/2000/svg" xmlns:xlink="http://www.w3.org/1999/xlink" width="112" height="112" viewBox="0 0 112 112">
  <defs>
    <clipPath id="clip-path">
      <circle id="Ellipse_93" data-name="Ellipse 93" cx="56" cy="56" r="56" fill="#fff"/>
    </clipPath>
  </defs>
  <g id="ic-elephant" transform="translate(-453 -977)">
    <circle id="Ellipse_26" data-name="Ellipse 26" cx="56" cy="56" r="56" transform="translate(453 977)" fill="#ffe4b6"/>
    <g id="Mask_Group_16" data-name="Mask Group 16" transform="translate(453 977)" clip-path="url(#clip-path)">
      <g id="Group_2352" data-name="Group 2352" transform="translate(10 23.91)">
        <path id="SVGCleanerId_0" d="M32.733,80.973c7.655-4.917,21.075-3.591,29.956-2.713.937.093,1.821.18,2.639.254a24.42,24.42,0,0,1,13.1,4.983c2.038-.355,7.775-1.149,12.418.166,4.485,1.27,5.969,5.639,6.217,8.509,1.176.749,2.632,2.662,3.73,7.325q.095.4.209.879c2.025,8.5,7.405,31.092-2.659,38.432-2.888,2.106-5.26,2.784-7.117,2.784a6.685,6.685,0,0,1-4.466-1.636,7.153,7.153,0,0,1-1.71-8.367,1.511,1.511,0,0,1,1.774-.713l3.016.944a1.51,1.51,0,0,1,1.057,1.519,2.191,2.191,0,0,0,.282,1.213c.01.01.024.025.093.03a3.423,3.423,0,0,0,1.877-1.574c2.693-4.091,1.244-12.379-.039-17.5-2.262-.577-7.7-2.264-9.84-5.562l-2.6-.291a1.51,1.51,0,0,1-.33-.076c-.58,1.01-1.818,2.146-4.445,1.9-.536-.049-1-.106-1.392-.167l-2.552,22.373c4.394,3.343,3.586,6.308,3.474,6.651a1.51,1.51,0,0,1-1.435,1.039H61.907a1.511,1.511,0,0,1-1.51-1.51V125.458c-.663-1.456-1.324-3.187-1.942-4.957a33.8,33.8,0,0,1-9.215,1.33,25.278,25.278,0,0,1-7.148-.956c-.864,1.085-1.611,1.928-2.055,2.411v10.839a17.828,17.828,0,0,1,3.441,5.164,1.511,1.511,0,0,1-1.4,2.087H28.749a1.511,1.511,0,0,1-1.464-1.883c.029-.114,2.809-11.542-4.172-26.552C17.072,99.95,20.4,88.9,32.733,80.973Z" transform="translate(-15.884 -77.411)" fill="#8a8990"/>
        <g id="Group_2350" data-name="Group 2350" transform="translate(4.295 0)">
          <path id="SVGCleanerId_0_1_" d="M32.733,80.973c7.655-4.917,21.075-3.591,29.956-2.713.937.093,1.821.18,2.639.254a24.42,24.42,0,0,1,13.1,4.983c2.038-.355,7.775-1.149,12.418.166,4.485,1.27,5.969,5.639,6.217,8.509,1.176.749,2.632,2.662,3.73,7.325q.095.4.209.879c2.025,8.5,7.405,31.092-2.659,38.432-2.888,2.106-5.26,2.784-7.117,2.784a6.685,6.685,0,0,1-4.466-1.636,7.153,7.153,0,0,1-1.71-8.367,1.511,1.511,0,0,1,1.774-.713l3.016.944a1.51,1.51,0,0,1,1.057,1.519,2.191,2.191,0,0,0,.282,1.213c.01.01.024.025.093.03a3.423,3.423,0,0,0,1.877-1.574c2.693-4.091,1.244-12.379-.039-17.5-2.262-.577-7.7-2.264-9.84-5.562l-2.6-.291a1.51,1.51,0,0,1-.33-.076c-.58,1.01-1.818,2.146-4.445,1.9-.536-.049-1-.106-1.392-.167l-2.552,22.373c4.394,3.343,3.586,6.308,3.474,6.651a1.51,1.51,0,0,1-1.435,1.039H61.907a1.511,1.511,0,0,1-1.51-1.51V125.458c-.663-1.456-1.324-3.187-1.942-4.957a33.8,33.8,0,0,1-9.215,1.33,25.278,25.278,0,0,1-7.148-.956c-.864,1.085-1.611,1.928-2.055,2.411v10.839a17.828,17.828,0,0,1,3.441,5.164,1.511,1.511,0,0,1-1.4,2.087H28.749a1.511,1.511,0,0,1-1.464-1.883c.029-.114,2.809-11.542-4.172-26.552C17.072,99.95,20.4,88.9,32.733,80.973Z" transform="translate(-20.179 -77.411)" fill="#8a8990"/>
        </g>
        <g id="Group_2351" data-name="Group 2351" transform="translate(0 0)">
          <path id="Path_3923" data-name="Path 3923" d="M468.941,198.09h.014a1.51,1.51,0,0,0,1.5-1.524c-.169-18.31,4.354-22.341,4.4-22.377A1.51,1.51,0,1,0,473,171.8c-.589.458-5.749,5.043-5.567,24.79A1.51,1.51,0,0,0,468.941,198.09Z" transform="translate(-467.426 -154.582)" fill="#666568"/>
          <path id="Path_3924" data-name="Path 3924" d="M322.022,80.975c5.009-3.217,12.485-3.761,19.544-3.507-5.228.215-10.273,1.132-13.971,3.507-12.335,7.923-15.661,18.977-9.619,31.968,6.981,15.01,4.2,26.439,4.172,26.552a1.511,1.511,0,0,0,1.464,1.883h-5.573a1.511,1.511,0,0,1-1.464-1.883c.029-.114,2.809-11.542-4.172-26.552C306.361,99.952,309.687,88.9,322.022,80.975Z" transform="translate(-305.173 -77.413)" fill="#666568"/>
          <path id="Path_3925" data-name="Path 3925" d="M137.542,181.318l-2.595-.29a1.508,1.508,0,0,1-.3-.067l2.777-16.539S138.571,176.026,137.542,181.318Z" transform="translate(-70.165 -148.787)" fill="#666568"/>
          <path id="Path_3926" data-name="Path 3926" d="M50.483,282.387c6.276,20.525-6.023,20.339-7.03,20.339a3.423,3.423,0,0,0,1.876-1.574c2.693-4.091,1.244-12.379-.039-17.5l-.133-.035c-.072-.385-.146-.775-.224-1.175C47.292,282.508,50.483,282.387,50.483,282.387Z" transform="translate(31.934 -245.555)" fill="#666568"/>
        </g>
        <path id="Path_3927" data-name="Path 3927" d="M2.426,242.543a1.51,1.51,0,0,1,1.892-.048c3.482,2.658,12.245,7.4,12.333,7.447a1.51,1.51,0,0,1-.572,2.832c-.729.07-1.451.1-2.16.1a30.1,30.1,0,0,1-10.567-2.06c-2.4-.882-3.118-2.262-3.3-3.268C-.4,245.018,2.136,242.789,2.426,242.543Z" transform="translate(74.557 -212.577)" fill="#d9d9db"/>
        <path id="Path_3928" data-name="Path 3928" d="M197.452,194.442l-.029,0-.538,4.716c-3.459-1.432-9.553-6.014-10.764-10.117-1.188-5.229-.058-8.385,1.739-10.293a15.032,15.032,0,0,0,.275,6.265C189.129,188.381,194.384,192.614,197.452,194.442Z" transform="translate(-138.806 -160.536)" fill="#666568"/>
        <path id="Path_3929" data-name="Path 3929" d="M131.427,135.678c3.115-3.9,8.4-3.948,8.625-3.948a1.507,1.507,0,0,1,1.36,2.158l6.436,3.067a1.51,1.51,0,0,1,2.871.733c-.009.167-.234,4.141-.928,8.441-1.339,8.306-3.191,10.211-4.468,10.921a4.962,4.962,0,0,1-2.434.574,9.713,9.713,0,0,1-3.621-.8c-3.68-1.5-8.027-5.166-9.439-9.953-.009-.031-.017-.062-.024-.093C128.741,142.094,129.286,138.359,131.427,135.678Z" transform="translate(-81.95 -121.97)" fill="#8a8990"/>
        <path id="Path_3930" data-name="Path 3930" d="M233.477,266.495a.343.343,0,0,1,.6-.318c2.53,3.229,7.755,9.66,9.642,13.687v16.249h-4.028a1.51,1.51,0,0,1-1.51-1.51V280.2c-.663-1.456-1.324-3.187-1.942-4.957l-.069.019C235.225,271.97,234.146,268.563,233.477,266.495Z" transform="translate(-193.665 -232.148)" fill="#666568"/>
        <path id="Path_3931" data-name="Path 3931" d="M80.457,198.737a1.751,1.751,0,1,0-1.754-1.751A1.754,1.754,0,0,0,80.457,198.737Z" transform="translate(-4.352 -174.063)" fill="#2b2b2b"/>
      </g>
    </g>
  </g>
</svg>
