<svg xmlns="http://www.w3.org/2000/svg" xmlns:xlink="http://www.w3.org/1999/xlink" width="112" height="112" viewBox="0 0 112 112">
  <defs>
    <clipPath id="clip-path">
      <circle id="Ellipse_92" data-name="Ellipse 92" cx="56" cy="56" r="56" transform="translate(453 977)" fill="#fff"/>
    </clipPath>
  </defs>
  <g id="ic-heartbeats" transform="translate(-453 -977)">
    <circle id="Ellipse_26" data-name="Ellipse 26" cx="56" cy="56" r="56" transform="translate(453 977)" fill="#fff"/>
    <g id="Mask_Group_15" data-name="Mask Group 15" clip-path="url(#clip-path)">
      <g id="Group_2214" data-name="Group 2214" transform="translate(450.07 898.855)">
        <g id="Group_2215" data-name="Group 2215" transform="translate(3.249 3.022)">
          <path id="Path_3669" data-name="Path 3669" d="M114.273,100.643l-4.633-5.321c-7.644-8.779-20.152-8.779-27.8,0h0c-7.644,8.78-7.644,23.146,0,31.925l4.633,5.321L113.3,159.325a1.384,1.384,0,0,0,1.955,0l26.818-26.757,4.633-5.321c7.644-8.779,7.644-23.146,0-31.925h0c-7.644-8.779-20.152-8.779-27.8,0Z" transform="translate(-58.592 -0.097)" fill="#df2828"/>
          <path id="Union_3" data-name="Union 3" d="M15538.6-6415.265l-5.384-5.373,21.431-21.384,4.633-5.321c7.676-8.813,7.676-23.108,0-31.925a19.4,19.4,0,0,0-7.534-5.4c6.87-2.694,14.779-.9,20.262,5.4,7.675,8.817,7.675,23.112,0,31.925l-4.634,5.321-26.818,26.756a1.379,1.379,0,0,1-.978.4A1.379,1.379,0,0,1,15538.6-6415.265Zm-11.7-58.728-4.685-5.274a19.38,19.38,0,0,0-7.534-5.4,17.824,17.824,0,0,1,18.533,3.632c.6.543,6.354,7.147,6.361,7.089a8.471,8.471,0,0,1-6.317,2.811A8.465,8.465,0,0,1,15526.9-6473.993Z" transform="translate(-15483.894 6574.491)" opacity="0.1"/>
        </g>
        <path id="Path_3672" data-name="Path 3672" d="M53.657,213.751a1.727,1.727,0,0,1-1.554-.975L41.9,191.665l-5.028,7.468a1.727,1.727,0,0,1-1.432.762H1.726a1.726,1.726,0,0,1,0-3.453h32.8l6.194-9.2a1.726,1.726,0,0,1,2.987.213l9.362,19.375,6.4-28.213a1.726,1.726,0,0,1,3.294-.241l7.782,20.132,4.137-8.455a1.726,1.726,0,0,1,2.975-.218l4.527,6.605h33.952a1.726,1.726,0,1,1,0,3.453H81.271a1.727,1.727,0,0,1-1.424-.75l-3.368-4.914-4.572,9.345a1.726,1.726,0,0,1-3.161-.136L61.581,184.9l-6.239,27.5a1.726,1.726,0,0,1-1.488,1.334A1.762,1.762,0,0,1,53.657,213.751Z" transform="translate(0 -68.251)" fill="#f6ff00"/>
      </g>
    </g>
  </g>
</svg>
