<svg xmlns="http://www.w3.org/2000/svg" xmlns:xlink="http://www.w3.org/1999/xlink" width="112" height="112" viewBox="0 0 112 112">
  <defs>
    <clipPath id="clip-path">
      <circle id="Ellipse_93" data-name="Ellipse 93" cx="56" cy="56" r="56" fill="#fff"/>
    </clipPath>
  </defs>
  <g id="ic-hair-length" transform="translate(-453 -977)">
    <circle id="Ellipse_26" data-name="Ellipse 26" cx="56" cy="56" r="56" transform="translate(453 977)" fill="#fff"/>
    <g id="Mask_Group_16" data-name="Mask Group 16" transform="translate(453 977)" clip-path="url(#clip-path)">
      <g id="Group_2242" data-name="Group 2242" transform="translate(-4.733 15.503)">
        <g id="Group_2241" data-name="Group 2241" transform="translate(15.384 0)">
          <g id="Group_2237" data-name="Group 2237" transform="translate(20.748 67.632)">
            <path id="Path_3728" data-name="Path 3728" d="M179.125,410.7H208.1l-3.99,15.173H182.546Z" transform="translate(-169.013 -400.929)" fill="#354f67"/>
            <path id="Path_3729" data-name="Path 3729" d="M166.273,464.22a28.71,28.71,0,0,1,8.4,9.005h-49.2a28.712,28.712,0,0,1,8.4-9.005" transform="translate(-125.473 -444.361)" fill="#61a2f9"/>
            <path id="Path_3730" data-name="Path 3730" d="M143.132,464.22a32.323,32.323,0,0,0-3.6,9.005H125.473a28.712,28.712,0,0,1,8.4-9.005Z" transform="translate(-125.473 -444.361)" fill="#5490f9"/>
            <path id="Path_3731" data-name="Path 3731" d="M212.885,378.827l-9.414,1.777-9.267-2.465c-2.713,0-4.135-1.278-1.628-2.314l.086-.035a28.216,28.216,0,0,1,4.8-1.483V358.849h12.015V374.3a28.328,28.328,0,0,1,4.87,1.511C216.867,376.854,215.608,378.827,212.885,378.827Z" transform="translate(-178.872 -358.849)" fill="#ffddce"/>
            <path id="Path_3732" data-name="Path 3732" d="M207.772,385.616v16.542h-9.126V397.51a28.216,28.216,0,0,1,4.8-1.483V385.616h4.324Z" transform="translate(-184.855 -380.571)" fill="#ffcbbe"/>
            <path id="Path_3733" data-name="Path 3733" d="M236.138,385.617v4.306a21.207,21.207,0,0,1-4.213.421h-3.588a21.22,21.22,0,0,1-4.213-.421v-4.306Z" transform="translate(-205.53 -380.572)" fill="#ffcbbe"/>
            <path id="Path_3734" data-name="Path 3734" d="M169.334,410.7l-2.1,6.94a3.909,3.909,0,0,0,3.741,5.043h12.85Z" transform="translate(-159.223 -400.928)" fill="#5490f9"/>
            <path id="Path_3735" data-name="Path 3735" d="M270.486,410.7l2.1,6.94a3.909,3.909,0,0,1-3.741,5.043H256Z" transform="translate(-231.397 -400.928)" fill="#61a2f9"/>
            <path id="Path_3736" data-name="Path 3736" d="M249.727,472.693a1.456,1.456,0,0,1-1.456-1.456v-3.23a1.456,1.456,0,1,1,2.912,0v3.23A1.456,1.456,0,0,1,249.727,472.693Z" transform="translate(-225.127 -446.252)" fill="#354f67"/>
          </g>
          <path id="Path_3737" data-name="Path 3737" d="M81.858,46.458a9.427,9.427,0,1,0,17.007-5.6,9.426,9.426,0,0,0-.048-18.338,9.429,9.429,0,0,0-12.545-11.98,9.428,9.428,0,0,0-15.9-4.765,10.934,10.934,0,0,0-19.276,0,9.428,9.428,0,0,0-15.9,4.765A9.429,9.429,0,0,0,22.65,22.517,9.426,9.426,0,0,0,22.6,40.855a9.426,9.426,0,1,0,17.007,5.6" transform="translate(-15.384 0)" fill="#ffd064"/>
          <path id="Path_3738" data-name="Path 3738" d="M60.733,0a10.885,10.885,0,0,1,7.644,3.12,9.437,9.437,0,0,0-10.682,7.417,9.429,9.429,0,0,0-12.546,11.98A9.426,9.426,0,0,0,45.1,40.855a9.39,9.39,0,0,0-1.846,5.6H39.609a9.427,9.427,0,1,1-17.008-5.6,9.426,9.426,0,0,1,.048-18.338A9.429,9.429,0,0,1,35.2,10.537,9.427,9.427,0,0,1,51.1,5.77,10.927,10.927,0,0,1,60.733,0Z" transform="translate(-15.384 0)" fill="#ffc250"/>
          <g id="Group_2238" data-name="Group 2238" transform="translate(10.957 43.739)">
            <circle id="Ellipse_100" data-name="Ellipse 100" cx="7.691" cy="7.691" r="7.691" fill="#ffcbbe"/>
            <circle id="Ellipse_101" data-name="Ellipse 101" cx="7.691" cy="7.691" r="7.691" transform="translate(53.402)" fill="#ffcbbe"/>
          </g>
          <g id="Group_2239" data-name="Group 2239" transform="translate(15.337 48.424)">
            <path id="Path_3739" data-name="Path 3739" d="M104.235,262.171a1.5,1.5,0,0,1-1.313-.771,2.926,2.926,0,0,0-2.474-1.437,6.314,6.314,0,0,0-1.831.1,1.5,1.5,0,0,1-.715-2.914,9.094,9.094,0,0,1,2.846-.168,5.872,5.872,0,0,1,4.8,2.964,1.5,1.5,0,0,1-1.31,2.229Z" transform="translate(-96.76 -256.935)" fill="#eaac9d"/>
            <path id="Path_3740" data-name="Path 3740" d="M369.132,262.171a1.5,1.5,0,0,1-1.31-2.23,5.873,5.873,0,0,1,4.8-2.963,9.1,9.1,0,0,1,2.846.168,1.5,1.5,0,0,1-.709,2.915,6.278,6.278,0,0,0-1.909-.09,2.9,2.9,0,0,0-2.4,1.429,1.5,1.5,0,0,1-1.312.771Z" transform="translate(-316.582 -256.934)" fill="#eaac9d"/>
          </g>
          <path id="Path_3741" data-name="Path 3741" d="M180.459,150.742v14.343a21.067,21.067,0,0,1-15.837,20.4h0a21.086,21.086,0,0,1-5.215.65h-3.588a21.056,21.056,0,0,1-21.056-21.055V150.1a9.173,9.173,0,0,0,6.77-8.609,9.22,9.22,0,0,0,2.4.318,9.1,9.1,0,0,0,4.856-1.394,9.374,9.374,0,0,0,1.45-1.122,10.293,10.293,0,0,0,17.816,1.815,11.417,11.417,0,0,0,11.283,9.69C179.713,150.8,180.088,150.777,180.459,150.742Z" transform="translate(-112.261 -113.039)" fill="#ffddce"/>
          <path id="Path_3742" data-name="Path 3742" d="M164.619,190.32a21.086,21.086,0,0,1-5.215.65h-3.588a21.056,21.056,0,0,1-21.056-21.055V154.929a9.173,9.173,0,0,0,6.77-8.609,9.219,9.219,0,0,0,2.4.318,9.1,9.1,0,0,0,4.856-1.394v24.672A21.069,21.069,0,0,0,164.619,190.32Z" transform="translate(-112.26 -117.87)" fill="#ffcbbe"/>
          <g id="Group_2240" data-name="Group 2240" transform="translate(31.948 43.709)">
            <path id="Path_3743" data-name="Path 3743" d="M187.446,231.914c-1.4,0-2.548,1.566-2.548,3.491s1.143,3.491,2.548,3.491,2.548-1.566,2.548-3.491S188.851,231.914,187.446,231.914Z" transform="translate(-184.898 -231.914)" fill="#2b4d66"/>
            <path id="Path_3744" data-name="Path 3744" d="M302.612,231.914c-1.4,0-2.548,1.566-2.548,3.491s1.143,3.491,2.548,3.491,2.548-1.566,2.548-3.491S304.017,231.914,302.612,231.914Z" transform="translate(-278.359 -231.914)" fill="#2b4d66"/>
          </g>
          <path id="Path_3745" data-name="Path 3745" d="M182.615,200.23a1.452,1.452,0,0,1-1.03-.426,2.967,2.967,0,0,0-4.191,0,1.456,1.456,0,1,1-2.059-2.059,5.882,5.882,0,0,1,8.309,0,1.456,1.456,0,0,1-1.03,2.486Z" transform="translate(-144.843 -159.081)" fill="#ffc250"/>
          <path id="Path_3746" data-name="Path 3746" d="M297.347,200.219a1.452,1.452,0,0,1-1.03-.427,2.963,2.963,0,0,0-4.19,0,1.456,1.456,0,0,1-2.06-2.059,5.876,5.876,0,0,1,8.309,0,1.456,1.456,0,0,1-1.029,2.486Z" transform="translate(-237.951 -159.07)" fill="#ffc250"/>
          <path id="Path_3747" data-name="Path 3747" d="M230.458,277.778a6.163,6.163,0,0,1-5.871-4.373,1.456,1.456,0,0,1,2.791-.832,3.215,3.215,0,0,0,6.16,0,1.456,1.456,0,1,1,2.792.829A6.158,6.158,0,0,1,230.458,277.778Z" transform="translate(-185.109 -220.356)" fill="#eaa598"/>
        </g>
      </g>
    </g>
  </g>
</svg>
