<svg xmlns="http://www.w3.org/2000/svg" xmlns:xlink="http://www.w3.org/1999/xlink" width="112" height="112" viewBox="0 0 112 112">
  <defs>
    <clipPath id="clip-path">
      <circle id="Ellipse_93" data-name="Ellipse 93" cx="56" cy="56" r="56" fill="#fff"/>
    </clipPath>
  </defs>
  <g id="ic-horse" transform="translate(-453 -977)">
    <circle id="Ellipse_26" data-name="Ellipse 26" cx="56" cy="56" r="56" transform="translate(453 977)" fill="#ffea80"/>
    <g id="Mask_Group_16" data-name="Mask Group 16" transform="translate(453 977)" clip-path="url(#clip-path)">
      <g id="Group_2319" data-name="Group 2319" transform="translate(0 7.638)">
        <g id="Group_2320" data-name="Group 2320" transform="translate(-5.558 -3.765)">
          <path id="Path_3877" data-name="Path 3877" d="M377.888,266.906a5.464,5.464,0,0,1-.6-1.026l-3.526-8a2.708,2.708,0,0,1-.224-1.092,3.707,3.707,0,0,0-1.777-3.235,4.062,4.062,0,0,0-3.94.086,2.536,2.536,0,0,1-1.341.265c-3.37-.291-8.623,4.361-9.853,5.592-.773.772-3.174,1.622-5.025,2.194a28.135,28.135,0,0,1-1.422,10.877,41.99,41.99,0,0,1,5.837,1.2c6.633-3.5,10.044-10.03,11.185-12.622a1.059,1.059,0,0,1,1.288-.573,3.067,3.067,0,0,0,1.089.169,1.024,1.024,0,0,1,.924.532l2.5,5.911a1.685,1.685,0,0,1-.071,1.458l-.947,1.743,3.809,4.426c4.144-4.145,2.8-6.949,2.1-7.9Zm0,0" transform="translate(-280.455 -202.514)" fill="#c65330"/>
          <path id="Path_3878" data-name="Path 3878" d="M365.235,271.6a4.175,4.175,0,0,1-3.454-6.522,30.521,30.521,0,0,0-5.159,4.028c-.773.772-3.174,1.622-5.025,2.194a28.136,28.136,0,0,1-1.422,10.877,41.987,41.987,0,0,1,5.837,1.2c6.275-3.313,9.665-9.332,10.979-12.167A4.148,4.148,0,0,1,365.235,271.6Zm0,0" transform="translate(-280.455 -212.121)" fill="#b24223"/>
          <path id="Path_3879" data-name="Path 3879" d="M92.507,61.162a.4.4,0,0,1,.377.637l-.211.283a.4.4,0,0,0,.215.626,13.483,13.483,0,0,0,10.019-1.1C103.976,59,105,56.1,106.05,53.116c2.291-6.5,4.889-13.875,8.61-19.928,4.242-6.9,9.314-11.057,15.507-12.709a1.807,1.807,0,0,0,1.32-1.951,5.554,5.554,0,0,1,.172-2.031c-3.888-.916-13.334-1.835-22.466,7.3-11.665,11.666-7.259,33.715-23.367,34.532a.4.4,0,0,0-.24.7,8.958,8.958,0,0,0,6.921,2.135Zm0,0" transform="translate(-68.61 -12.757)" fill="#535b6e"/>
          <path id="Path_3880" data-name="Path 3880" d="M92.507,61.162a.4.4,0,0,1,.377.637l-.211.283a.4.4,0,0,0,.215.626,13.483,13.483,0,0,0,10.019-1.1C103.976,59,105,56.1,106.05,53.116c2.291-6.5,4.889-13.875,8.61-19.928,4.242-6.9,9.314-11.057,15.507-12.709a1.807,1.807,0,0,0,1.32-1.951,5.554,5.554,0,0,1,.172-2.031c-3.888-.916-13.334-1.835-22.466,7.3-11.665,11.666-7.259,33.715-23.367,34.532a.4.4,0,0,0-.24.7,8.958,8.958,0,0,0,6.921,2.135Zm0,0" transform="translate(-68.61 -12.757)" fill="#535b6e"/>
          <path id="Path_3881" data-name="Path 3881" d="M106.515,139.9a5.863,5.863,0,0,1-5.659-4.336c-2.937,9.3-5.036,17.978-15.029,18.485a.4.4,0,0,0-.24.7,8.958,8.958,0,0,0,6.921,2.135.4.4,0,0,1,.377.637l-.21.284a.4.4,0,0,0,.215.625,13.483,13.483,0,0,0,10.019-1.1c1.069-2.606,2.091-5.5,3.143-8.488,1.12-3.178,2.313-6.563,3.675-9.9a5.833,5.833,0,0,1-3.211.959Zm0,0" transform="translate(-68.611 -108.484)" fill="#40495e"/>
          <path id="Path_3882" data-name="Path 3882" d="M104.844,19.6a2.948,2.948,0,0,1-1.313-.548L97.34,14.525a7.838,7.838,0,0,1-1.864-1.953,13.341,13.341,0,0,0-6.99-5.514A1.454,1.454,0,0,1,87.474,5.8,4.914,4.914,0,0,0,84.656,1.93,3.35,3.35,0,0,1,83.113.382.659.659,0,0,0,82.007.24a7.408,7.408,0,0,0-2.067,5.567,1.488,1.488,0,0,1-1.1,1.59C58.711,12.8,55.98,42.785,48.386,54.783,42.5,64.078,28.8,70.493,21.457,73.4A49.092,49.092,0,0,0,50.274,99.658c10.5-4.1,22.73-10.7,30.721-19.32a5.6,5.6,0,0,1,2.968-1.679,67.829,67.829,0,0,0,7.251-1.946,1.306,1.306,0,0,1,1.617.709,5.139,5.139,0,0,0,1.2,1.654,1.35,1.35,0,0,1,.339,1.419c-1.338,3.922-1.747,10.432-1.747,10.432L97.076,94.7c4.486-4.486,3.044-13.374,2.641-15.408a1.3,1.3,0,0,1,.088-.783,5.438,5.438,0,0,0-.2-5.11,5.067,5.067,0,0,0-4.762-2.087,1.331,1.331,0,0,1-.586-.085,30.421,30.421,0,0,0-5.27-1.336,1.138,1.138,0,0,1-.907-1.421c2.629-9.5-.7-19.21-2.525-23.466a15.7,15.7,0,0,1-1.238-5c-.449-5.907-1.1-10.209-1.536-12.684a.949.949,0,0,1,1.405-.991c3.373,1.907,6.819.5,10.09.882,3.886.457,4.667,3.257,6.42,2.8a3.083,3.083,0,0,0,1.936-1.458.638.638,0,0,1,.779-.263,3.066,3.066,0,0,0,3.617-1.129c1.064-1.6.278-3.515.278-5.036a2.531,2.531,0,0,0-2.46-2.526Zm0,0" transform="translate(-17.403 0)" fill="#d66138"/>
          <path id="Path_3883" data-name="Path 3883" d="M83.964,201.81a67.829,67.829,0,0,0,7.251-1.946,1.306,1.306,0,0,1,1.617.709,5.14,5.14,0,0,0,1.2,1.654,1.352,1.352,0,0,1,.339,1.419c-1.337,3.922-1.747,10.432-1.747,10.432l4.457,3.771c4.486-4.485,3.044-13.374,2.641-15.408a1.3,1.3,0,0,1,.089-.783,5.438,5.438,0,0,0-.2-5.11,5.069,5.069,0,0,0-4.762-2.087,1.331,1.331,0,0,1-.586-.084,30.367,30.367,0,0,0-5.27-1.337,1.138,1.138,0,0,1-.907-1.421c2.628-9.5-.7-19.209-2.525-23.466a15.928,15.928,0,0,1-.837-2.5c-4.069-5.8-10.666-6.958-17.294-5.662-5.633,1.1-8.287-3.27-9.393-6.1-3.648,9.052-6.124,18.478-9.643,24.039-5.883,9.295-19.59,15.71-26.93,18.614a49.093,49.093,0,0,0,28.816,26.262c10.5-4.1,22.73-10.7,30.721-19.32a5.609,5.609,0,0,1,2.968-1.679Zm0,0" transform="translate(-17.404 -123.151)" fill="#d66138"/>
          <path id="Path_3884" data-name="Path 3884" d="M90.43,197.349a3.244,3.244,0,0,1,3.064-3.238,33.818,33.818,0,0,0-4.508-1.071,1.137,1.137,0,0,1-.907-1.42c2.629-9.5-.7-19.21-2.525-23.466a16.031,16.031,0,0,1-.837-2.5c-4.069-5.8-10.666-6.958-17.294-5.662-5.634,1.1-8.287-3.271-9.394-6.1-3.647,9.052-6.123,18.478-9.643,24.04-5.882,9.295-19.589,15.709-26.93,18.613a49.092,49.092,0,0,0,28.817,26.262c10.5-4.1,22.73-10.7,30.721-19.32a5.6,5.6,0,0,1,2.968-1.679,68.041,68.041,0,0,0,7.251-1.945,1.306,1.306,0,0,1,.337-.064,3.237,3.237,0,0,1-1.121-2.451Zm0,0" transform="translate(-17.403 -123.151)" fill="#c65330"/>
          <path id="Path_3885" data-name="Path 3885" d="M369.5,458.931l-4.457-3.771-2.918,3.552a.972.972,0,0,0,.04,1.317l6.262,5.695a.969.969,0,0,0,1.632-.428A11.145,11.145,0,0,0,369.5,458.931Zm0,0" transform="translate(-289.824 -364.234)" fill="#535b6e"/>
          <path id="Path_3886" data-name="Path 3886" d="M447.946,344.172l-3.808-4.426-3.44,3.049a.972.972,0,0,0-.168,1.307l4.327,5.647a.97.97,0,0,0,1.679-.166,17.323,17.323,0,0,0,1.409-5.41Zm0,0" transform="translate(-352.617 -271.875)" fill="#535b6e"/>
          <path id="Path_3887" data-name="Path 3887" d="M416.478,120.432a43.061,43.061,0,0,0-5.009-4.5,1.5,1.5,0,0,0-1.824,2.378,41.123,41.123,0,0,1,3.19,2.721.638.638,0,0,1,.747-.218,3.127,3.127,0,0,0,2.9-.38Zm0,0" transform="translate(-327.574 -92.524)" fill="#c65330"/>
          <path id="Path_3888" data-name="Path 3888" d="M308.444,109c-.162-1.093-.316-2.023-.451-2.781a.948.948,0,0,1,.963-1.114c-.275-.343-3.068-3-3.068-5.007a1.5,1.5,0,0,0-3,0C302.891,103.492,306.169,106.475,308.444,109Zm0,0" transform="translate(-242.616 -78.904)" fill="#c65330"/>
          <path id="Path_3889" data-name="Path 3889" d="M352.452,68.349a1.5,1.5,0,0,1-1.384-1.6l.023-.322-1.894-.6a1.5,1.5,0,0,1,.9-2.858l2.382.75a2.343,2.343,0,0,1,1.639,2.415l-.062.832a1.5,1.5,0,0,1-1.6,1.384Zm0,0" transform="translate(-278.833 -50.333)" fill="#40495e"/>
          <path id="Path_3890" data-name="Path 3890" d="M240.758,324.266a39.74,39.74,0,0,1-14.683-1.347c-1.08-1.3-5.676-7.26-5.676-14.5a1.5,1.5,0,1,0-3,0c0,9.309,6.405,16.478,6.677,16.779a1.505,1.505,0,0,0,.567.389,38.7,38.7,0,0,0,11.709,1.847q.741-.735,1.443-1.49a5.6,5.6,0,0,1,2.96-1.676Zm0,0" transform="translate(-174.205 -245.605)" fill="#b24223"/>
          <path id="Path_3891" data-name="Path 3891" d="M300.5,296.024c1.3,0,4.389-.5,6.946-.62l-.291-.053a1.138,1.138,0,0,1-.907-1.421c.136-.493.253-.986.358-1.48-2.3.151-4.677.512-5.867.571a25.65,25.65,0,0,0-3.913-10.617,1.5,1.5,0,0,0-2.483,1.676,22.677,22.677,0,0,1,3.439,9.542A2.6,2.6,0,0,0,300.5,296.024Zm0,0" transform="translate(-235.571 -225.461)" fill="#b24223"/>
          <path id="Path_3892" data-name="Path 3892" d="M442.509,346.315a3.184,3.184,0,0,1,5.068-2.571l-3.44-4L440.7,342.8a.97.97,0,0,0-.168,1.306l2.008,2.62a3.167,3.167,0,0,1-.029-.407Zm0,0" transform="translate(-352.615 -271.876)" fill="#40495e"/>
          <path id="Path_3893" data-name="Path 3893" d="M365.634,462.421a3.6,3.6,0,0,1,3.6-3.6c.051,0,.1.005.15.008l-4.34-3.673-2.918,3.552a.971.971,0,0,0,.041,1.317l3.581,3.257a3.6,3.6,0,0,1-.109-.865Zm0,0" transform="translate(-289.824 -364.234)" fill="#40495e"/>
          <path id="Path_3894" data-name="Path 3894" d="M312.481,6.766a1.482,1.482,0,0,1-.431,1.207,3.4,3.4,0,0,0,4.691.811c1.049-1.049.225-3.7-.9-4.819A5.093,5.093,0,0,1,314.549,1.2a7.407,7.407,0,0,0-2.068,5.567Zm0,0" transform="translate(-249.946 -0.959)" fill="#c65330"/>
        </g>
      </g>
    </g>
  </g>
</svg>
