<svg xmlns="http://www.w3.org/2000/svg" xmlns:xlink="http://www.w3.org/1999/xlink" width="112" height="112" viewBox="0 0 112 112">
  <defs>
    <linearGradient id="linear-gradient" x1="0.189" y1="0.028" x2="0.845" y2="1.023" gradientUnits="objectBoundingBox">
      <stop offset="0.05" stop-color="#cf9d8b"/>
      <stop offset="0.19" stop-color="#c7572f"/>
      <stop offset="0.36" stop-color="#c99080"/>
      <stop offset="0.49" stop-color="#ca8a79"/>
      <stop offset="0.68" stop-color="#cc7966"/>
      <stop offset="0.89" stop-color="#cf6049"/>
      <stop offset="0.9" stop-color="#c45841"/>
      <stop offset="0.95" stop-color="#993922"/>
      <stop offset="0.98" stop-color="#7e260e"/>
      <stop offset="1" stop-color="#741f07"/>
    </linearGradient>
  </defs>
  <g id="ic-jupiter" transform="translate(-258 -1305)">
    <path id="Path_4193" data-name="Path 4193" d="M56,0A56,56,0,1,1,0,56,56,56,0,0,1,56,0Z" transform="translate(258 1305)" fill="#fbfbfb"/>
    <g id="jupiter" transform="translate(283 1330)">
      <g id="Layer_2" data-name="Layer 2">
        <g id="Layer_1" data-name="Layer 1">
          <path id="Path_4079" data-name="Path 4079" d="M62,31A31,31,0,1,1,31,0,31,31,0,0,1,62,31Z" fill="url(#linear-gradient)"/>
          <path id="Path_4080" data-name="Path 4080" d="M11.443,35.7a38.995,38.995,0,0,1,9.362-9.6,34.923,34.923,0,0,1,10.432-4.458,71.333,71.333,0,0,0,12.186-3.715A59.087,59.087,0,0,0,53.856,9.9L55.1,8.977A31.475,31.475,0,0,0,45.653,1.22L43.959,2.379c-1.159.743-2.378,1.427-3.477,2.259a103.252,103.252,0,0,0-8.917,8.411A28.622,28.622,0,0,1,21.37,19.172c-2.051.713-4.161,1.248-6.242,1.932a30.376,30.376,0,0,0-5.944,2.764A58.106,58.106,0,0,1,0,28.92,30.7,30.7,0,0,0,3.656,43.187,24.639,24.639,0,0,0,11.443,35.7Z" transform="translate(0 2.406)" fill="#e7cac1"/>
          <path id="Path_4082" data-name="Path 4082" d="M5.611,20.329a35.667,35.667,0,0,1,5.944-1.664,29.9,29.9,0,0,0,5.469-1.546,27.493,27.493,0,0,0,9.095-7.014A95.464,95.464,0,0,1,35.868.535,30.227,30.227,0,0,0,31.5,0,22.856,22.856,0,0,0,27.13,4.131a52.606,52.606,0,0,1-4.161,4.339,46.871,46.871,0,0,1-4.339,3.418A52.281,52.281,0,0,1,8.554,17.833a26.75,26.75,0,0,1-7.222,2.08c-.357.921-.654,1.843-.921,2.764C2.164,21.875,3.858,21.043,5.611,20.329Z" transform="translate(0.809)" fill="#e28481"/>
          <path id="Path_4083" data-name="Path 4083" d="M29.537,4.371a43.839,43.839,0,0,0-3.6,4.191,29.722,29.722,0,0,1-4.131,3.953,19.022,19.022,0,0,1-4.785,2.734c-1.991.773-4.012,1.456-5.944,2.2A58.671,58.671,0,0,1,.767,20.9,5.768,5.768,0,0,1,.41,22.055c1.754-.535,3.448-1.367,5.2-2.081a35.667,35.667,0,0,1,5.944-1.664,29.9,29.9,0,0,0,5.469-1.546A27.493,27.493,0,0,0,26.119,9.75,95.465,95.465,0,0,1,35.868.18H35.63a47.555,47.555,0,0,0-6.093,4.191Z" transform="translate(0.809 0.355)" fill="#e7cac1"/>
          <path id="Path_4084" data-name="Path 4084" d="M4.1,14.837c1.575-1.07,3.24-1.991,4.815-2.972A10.046,10.046,0,0,0,12.751,8a19.943,19.943,0,0,0-9.243,2.17A28.534,28.534,0,0,0,.178,12.1,29.187,29.187,0,0,0,0,15.223v2.794H0C1.486,16.917,2.734,15.758,4.1,14.837Z" transform="translate(0 15.777)" fill="#e28481"/>
          <path id="Path_4085" data-name="Path 4085" d="M11.13,9.239A13.464,13.464,0,0,0,17.788,7.1a42.681,42.681,0,0,1,6.123-3.18L25.4,3.384A29.514,29.514,0,0,0,19.809.65C17.312,3.8,13.359,5.822,11.13,9.239Z" transform="translate(21.95 1.282)" fill="#e28481"/>
          <path id="Path_4086" data-name="Path 4086" d="M46.152,8.846a39.352,39.352,0,0,1-14.207,6.36c-1.962.535-3.953,1.011-5.944,1.575a20.122,20.122,0,0,0-5.469,2.289c-2.972,1.962-5.409,4.785-8.263,6.985a73.443,73.443,0,0,1-7.074,4.4A17.09,17.09,0,0,0,.47,34.317a32.1,32.1,0,0,0,3.6,7.638,12.81,12.81,0,0,0,6.9-7.936,15.574,15.574,0,0,1,7.43-8.56,29.9,29.9,0,0,1,9.9-3.3,34.715,34.715,0,0,0,11.383-2.615c3.745-1.991,6.093-5.677,9.243-8.411a23.361,23.361,0,0,1,6.628-3.923A31.3,31.3,0,0,0,52.037,3.05a48.031,48.031,0,0,1-5.885,5.8Z" transform="translate(0.927 6.015)" fill="#e6b3a9"/>
          <path id="Path_4087" data-name="Path 4087" d="M5.6,33.336a56.948,56.948,0,0,0,5.172-5.2,68.629,68.629,0,0,1,5.944-4.28c1.9-1.367,3.477-2.972,5.439-4.339A32.962,32.962,0,0,1,32.262,15.86a51.33,51.33,0,0,0,12.3-5.082,18.784,18.784,0,0,0,2.972-1.932c.743-.624,1.4-1.308,2.081-1.962A15.485,15.485,0,0,1,53.1,4.12L52.087,3.05a48.029,48.029,0,0,1-5.944,5.707,39.352,39.352,0,0,1-14.207,6.36c-1.962.535-3.953,1.011-5.944,1.575a20.122,20.122,0,0,0-5.469,2.289c-2.972,1.962-5.409,4.785-8.263,6.985a73.441,73.441,0,0,1-7.074,4.4A17.09,17.09,0,0,0,.46,34.228c.208.624.416,1.248.654,1.843C2.57,35.06,4.175,34.347,5.6,33.336Z" transform="translate(0.907 6.015)" fill="#e28481"/>
          <path id="Path_4088" data-name="Path 4088" d="M52.568,4.5a8.471,8.471,0,0,1-1.932,1.456c-1.724.921-3.388,1.9-5.053,2.972a31.148,31.148,0,0,0-4.726,3.626,37.242,37.242,0,0,1-4.25,3.448,16.377,16.377,0,0,1-5.439,2.2c-2.051.446-4.072.892-6.093,1.456A28.474,28.474,0,0,0,13.811,25.25a28.889,28.889,0,0,0-3.864,4.458,27.967,27.967,0,0,1-3.24,3.923A16.5,16.5,0,0,1,1.12,37.377,31.06,31.06,0,0,0,2.7,40.111,12.81,12.81,0,0,0,9.68,32.265a15.574,15.574,0,0,1,7.43-8.56,29.9,29.9,0,0,1,9.9-3.3A34.715,34.715,0,0,0,38.391,17.79c3.745-1.991,6.093-5.677,9.243-8.411a23.362,23.362,0,0,1,6.628-3.923L53.1,3.94A3.183,3.183,0,0,0,52.568,4.5Z" transform="translate(2.209 7.77)" fill="#e7cac1"/>
          <path id="Path_4089" data-name="Path 4089" d="M15.67,15.3a6.123,6.123,0,0,0,2.794-.565c.892-.3,1.813-.594,2.675-.951a34.15,34.15,0,0,1,6.152-2.11l2.318-.357A30.524,30.524,0,0,0,26.816,5.14c-1.635,1.129-3.269,2.229-4.874,3.418A21.251,21.251,0,0,0,15.67,15.3Z" transform="translate(30.904 10.137)" fill="#e9c69c"/>
          <path id="Path_4090" data-name="Path 4090" d="M9.3,32.792a22.113,22.113,0,0,1,6.658,1.337,18.279,18.279,0,0,0,12.067-.684,15.663,15.663,0,0,0,7.936-8.114c1.189-2.972,1.456-6.985,4.577-8.916a50.29,50.29,0,0,1,4.993-2.259,49.248,49.248,0,0,1,5.944-2.348c1.783-.535,3.656-.684,5.469-1.1l.535-.149a10.66,10.66,0,0,0-.327-2.14c-1.932.654-3.923,1.129-5.766,1.6a34.418,34.418,0,0,0-4.042,1.159,33.823,33.823,0,0,0-4.607,2.11,31.208,31.208,0,0,1-4.488,2.17,13.226,13.226,0,0,1-4.131.624c-1.962,0-3.894-.357-5.944-.505a22.38,22.38,0,0,0-5.944.357A16.228,16.228,0,0,0,13.613,20.9c-2.259,2.526-3.507,5.736-5.677,8.352a11.889,11.889,0,0,1-5.8,3.983c.416.535.862,1.04,1.308,1.575A21.073,21.073,0,0,1,9.3,32.792Z" transform="translate(4.22 16.605)" fill="#e7cac1"/>
          <path id="Path_4091" data-name="Path 4091" d="M53.087,10.1c-2.5.773-5.053,1.367-7.49,2.259a36.38,36.38,0,0,0-7.044,3.923,21.192,21.192,0,0,0-4.9,3.507,41.61,41.61,0,0,0-3.18,5.172,11.175,11.175,0,0,1-3.953,3.685,17.447,17.447,0,0,1-5.261,1.9,22.261,22.261,0,0,1-5.439.386,22.173,22.173,0,0,0-6.271,0A18.784,18.784,0,0,0,3.927,33.31l-1.4.8h0a21.073,21.073,0,0,1,5.944-2.021,22.113,22.113,0,0,1,6.658,1.337A18.279,18.279,0,0,0,27.2,32.745a15.663,15.663,0,0,0,7.936-8.114c1.189-2.972,1.456-6.985,4.577-8.916a50.291,50.291,0,0,1,4.993-2.259,49.248,49.248,0,0,1,5.944-2.348c1.783-.535,3.656-.684,5.469-1.1l.535-.149A2.889,2.889,0,0,0,56.5,8.73,16.42,16.42,0,0,1,53.087,10.1Z" transform="translate(4.99 17.217)" fill="#e9c69c"/>
          <path id="Path_4092" data-name="Path 4092" d="M57.334,8.78a36.856,36.856,0,0,0-5.647,1.248,122.423,122.423,0,0,0-12.394,4.755c-1.872.892-3.656,2.021-5.588,2.972a14.564,14.564,0,0,1-5.647.921,20.805,20.805,0,0,0-11.889,2.348c-2.972,2.14-4.28,5.736-6.866,8.292A11.5,11.5,0,0,1,4.756,32.29a21.964,21.964,0,0,0-2.586.654l.624.773A30.94,30.94,0,0,1,8,31.457a12.573,12.573,0,0,1,6.3,0,21.222,21.222,0,0,0,7.074.892,16.347,16.347,0,0,0,5.944-1.962,15.515,15.515,0,0,0,4.547-3.656,17.06,17.06,0,0,0,2.5-5.409,13.107,13.107,0,0,1,6.777-6.6,71.808,71.808,0,0,1,11.057-4.547c1.635-.535,3.388-.8,5.112-1.189C57.363,8.929,57.334,8.839,57.334,8.78Z" transform="translate(4.28 17.315)" fill="#e5a79e"/>
          <path id="Path_4093" data-name="Path 4093" d="M14.814,38.32a7.847,7.847,0,0,1,5.766-1.754,29.99,29.99,0,0,0,6.925-.535,15.842,15.842,0,0,0,4.785-2.17,17.833,17.833,0,0,0,3.715-3.448,23.777,23.777,0,0,0,3.121-4.547,18.724,18.724,0,0,1,2.586-4.726,14.266,14.266,0,0,1,4.637-2.734,42.71,42.71,0,0,0,5.766-3.329c1.011-.684,1.962-1.516,2.972-2.259v-2.2a15.13,15.13,0,0,0-1.4,1.011c-.921.743-1.813,1.546-2.764,2.289-2.972,2.289-6.955,2.586-9.987,4.726a11.5,11.5,0,0,0-3.18,4.339A23.777,23.777,0,0,1,34.49,27.8,17.833,17.833,0,0,1,24.384,34.04a26.75,26.75,0,0,1-11.354-.773c-2.972-.773-6.747-1.872-9.57,0A30.851,30.851,0,0,0,13.982,39.3Z" transform="translate(6.824 20.944)" fill="#e5a79e"/>
          <path id="Path_4094" data-name="Path 4094" d="M36.97,16.4c-3.24,1.843-5.023,5.35-7.847,7.668a33.14,33.14,0,0,1-10.284,5.409,53.5,53.5,0,0,1-6.42,1.6,13.673,13.673,0,0,0-3.269,1.1,26.957,26.957,0,0,0,3.8.238A30.97,30.97,0,0,0,40.774,15a14,14,0,0,0-3.8,1.4Z" transform="translate(18.045 29.582)" fill="#e28481"/>
          <path id="Path_4096" data-name="Path 4096" d="M27.684,12.251c-.594.149-1.159.386-1.754.535a19.765,19.765,0,0,1-3.983.535,26.482,26.482,0,0,0-6.271.951,14.861,14.861,0,0,0-5.35,2.556,13.613,13.613,0,0,0-2.14,2.2l-.446.594h0c-.654.773-1.427,1.456-2.11,2.2h0l-.594.684a.178.178,0,0,0,0,.178c.267.267,1.129,0,1.4,0a20.122,20.122,0,0,1,5.172-.505,17.833,17.833,0,0,0,6.925-1.04,12.661,12.661,0,0,0,4.785-3.685,22.143,22.143,0,0,1,2.526-2.972,7.46,7.46,0,0,0,1.9-1.962S27.743,12.222,27.684,12.251Z" transform="translate(9.884 24.157)" fill="#e7cac1"/>
          <path id="Path_4097" data-name="Path 4097" d="M20.745,13a8.174,8.174,0,0,0-2.586.446,26.75,26.75,0,0,0-7.133,1.635,9.66,9.66,0,0,0-2.764,1.872A11.146,11.146,0,0,0,6.27,18.885s0,.208,0,.208a12.275,12.275,0,0,0,3.418-.565,32.694,32.694,0,0,0,4.161-.654,10.551,10.551,0,0,0,3.507-1.9c1.129-.892,2.348-1.694,3.477-2.586C20.834,13.327,20.982,13,20.745,13ZM14.8,17.1a11.621,11.621,0,0,1-3.388.8,15.742,15.742,0,0,0-3.448.684,2.586,2.586,0,0,0,.476-.505,12.543,12.543,0,0,1,5.082-3.15h.208c1.1-.267,2.2-.446,3.3-.684.624-.149,1.248-.208,1.843-.357l1.011-.267c-.565.386-1.189.743-1.724,1.189A16.733,16.733,0,0,1,14.77,17.1Z" transform="translate(12.366 25.638)" fill="#e5a79e"/>
          <path id="Path_4098" data-name="Path 4098" d="M20.56,3.15c-1.011-.238-2.437,1.011-3.3,1.427A15.188,15.188,0,0,0,15.091,6h0l-.981.8a5.35,5.35,0,0,0-1.516,1.308L12,8.708c0,.178,0,.446.149.416a9.362,9.362,0,0,0,4.429-1.575C17.469,6.835,18.242,6,19.044,5.23a6.806,6.806,0,0,0,1.635-1.694C20.917,3.388,20.917,3.209,20.56,3.15Z" transform="translate(23.666 6.153)" fill="#e7cac1" opacity="0.6"/>
          <path id="Path_4099" data-name="Path 4099" d="M8.319,9.282a8.917,8.917,0,0,0-2.2,1.486L4.663,11.9l-.357.238c-.684.476-1.724,1.04-2.051,1.843a.208.208,0,0,0,.238.3,7.163,7.163,0,0,0,2.972-1.308C6.625,12.076,7.338,10.738,8.438,10,8.646,9.7,8.854,9.1,8.319,9.282ZM5.525,11.9a5.944,5.944,0,0,1-.832.684Z" transform="translate(4.402 18.24)" fill="#e7cac1" opacity="0.6"/>
          <path id="Path_4100" data-name="Path 4100" d="M21.527,10.636a32.01,32.01,0,0,0-3.151,1.308l-.594.327a8.917,8.917,0,0,0-2.437,1.754s-.357.565,0,.565a6.539,6.539,0,0,0,2.675-.921,15.931,15.931,0,0,0,3.656-2.645C21.825,10.874,21.854,10.517,21.527,10.636Z" transform="translate(29.951 20.928)" fill="#e7cac1" opacity="0.6"/>
          <path id="Path_4101" data-name="Path 4101" d="M14.222,11.48a9.808,9.808,0,0,0-4.9,2.11,10.492,10.492,0,0,0-1.872,1.754c-.505.565-.862,1.337-1.337,1.962a4.072,4.072,0,0,1-.505.505c-.3.238,0,.684.238.446a27.82,27.82,0,0,0,3.537-3.21,34.091,34.091,0,0,1,4.785-3.15S14.49,11.48,14.222,11.48Zm-3.953,2.14a13.4,13.4,0,0,1,2.407-1.278A23.006,23.006,0,0,0,10.3,13.65Z" transform="translate(10.804 22.64)" fill="#e7cac1" opacity="0.6"/>
          <path id="Path_4102" data-name="Path 4102" d="M19.057,14.273a10.819,10.819,0,0,1-2.586,2.021A13.851,13.851,0,0,1,13.5,18.107a7.7,7.7,0,0,1-2.972.951A7.609,7.609,0,0,0,8,19.831H8c1.1-.208,2.2.238,3.3,0a19.022,19.022,0,0,0,2.972-1.337,12.037,12.037,0,0,0,2.824-2.051,9.125,9.125,0,0,0,2.051-2.229S19.116,14.183,19.057,14.273Z" transform="translate(15.777 28.021)" fill="#e7cac1" opacity="0.6"/>
          <path id="Path_4103" data-name="Path 4103" d="M17.24,12.889c0-.416-.773-.208-1.04,0a1.813,1.813,0,0,0-.713.773,1.011,1.011,0,0,0-.357.357.178.178,0,0,0,0,.267,1.427,1.427,0,0,0,1.427-.357C16.824,13.692,17.359,13.276,17.24,12.889Z" transform="translate(29.72 24.946)" fill="#e7cac1" opacity="0.6"/>
          <path id="Path_4104" data-name="Path 4104" d="M17.919,12.253a.357.357,0,0,0-.446-.238.505.505,0,0,0-.3,0,.713.713,0,0,0-.178.267l-.178.238a.149.149,0,0,0,0,.238,2.451,2.451,0,0,0,.773-.3C17.83,12.371,18.038,12.371,17.919,12.253Z" transform="translate(33.054 23.651)" fill="#e7cac1" opacity="0.6"/>
          <path id="Path_4105" data-name="Path 4105" d="M14.944,5.287c0-.3-.535-.208-.713,0A1.516,1.516,0,0,0,13.458,6h0a.981.981,0,0,0-.208.386s0,0,0,.178.862,0,1.189-.208A1.1,1.1,0,0,0,14.944,5.287Z" transform="translate(26.131 10.05)" fill="#e7cac1" opacity="0.6"/>
          <path id="Path_4106" data-name="Path 4106" d="M17.114,4a2.972,2.972,0,0,0-1.011.446l-.327.178a2.17,2.17,0,0,0-.862.773.446.446,0,0,0,.416.654,2.5,2.5,0,0,0,1.219-.416,2.17,2.17,0,0,0,1.011-.921A.467.467,0,0,0,17.114,4Z" transform="translate(29.312 7.889)" fill="#e7cac1" opacity="0.6"/>
          <path id="Path_4107" data-name="Path 4107" d="M3.472,11.2a1.189,1.189,0,0,0-1.159.8h0s-.178.267,0,.357a.743.743,0,0,0,.505,0,1.456,1.456,0,0,0,.654-.3C3.68,11.943,4.007,11.26,3.472,11.2Z" transform="translate(4.405 22.088)" fill="#e7cac1" opacity="0.6"/>
          <path id="Path_4108" data-name="Path 4108" d="M9.873,10.579H9.4a1.724,1.724,0,0,0-.535,0h0a3.507,3.507,0,0,0-.951.565s-.208.238,0,.357a1.977,1.977,0,0,0,1.248,0c.357-.149,1.011-.476,1.07-.981Z" transform="translate(15.42 20.747)" fill="#e7cac1" opacity="0.6"/>
          <path id="Path_4109" data-name="Path 4109" d="M5.556,12.824h0a.862.862,0,0,0,0,.267h0a.3.3,0,0,0-.059.267h0a.386.386,0,0,0,0-.178S5.675,12.764,5.556,12.824Z" transform="translate(10.821 25.279)" fill="#e7cac1" opacity="0.6"/>
          <path id="Path_4189" data-name="Path 4189" d="M31,0A31,31,0,1,0,62,31,31,31,0,0,0,31,0ZM28.682,53.5a25.65,25.65,0,1,1,25.65-25.65A25.65,25.65,0,0,1,28.682,53.5Z" opacity="0.1"/>
        </g>
      </g>
    </g>
  </g>
</svg>
