<svg xmlns="http://www.w3.org/2000/svg" width="112" height="112" viewBox="0 0 112 112">
  <g id="ic-laughs" transform="translate(-453 -977)">
    <circle id="Ellipse_26" data-name="Ellipse 26" cx="56" cy="56" r="56" transform="translate(453 977)" fill="#fff"/>
    <g id="Group_1874" data-name="Group 1874" transform="translate(473.671 989.345)">
      <g id="Group_1873" data-name="Group 1873" transform="translate(0 9.658)">
        <g id="Group_1862" data-name="Group 1862" transform="translate(0.661 25.342)">
          <path id="Path_2726" data-name="Path 2726" d="M43.18,212.584l-.436,5.714-31.628,6.55c-3.29-4.791-10.948-15.521-2.456-23.93,6.535-6.471,16.036-5.783,16.036-5.783S41.1,184.922,43.18,212.584Z" transform="translate(-4.792 -193.292)" fill="#f4dd45"/>
          <path id="Path_2727" data-name="Path 2727" d="M18.454,229.681l-.449,11.639-6.888-5.1C7.827,231.434.169,220.7,8.661,212.3c6.535-6.471,16.036-5.784,16.036-5.784-14.82,5.663-10.824,18.825-6.243,23.169Z" transform="translate(-4.793 -204.669)" fill="#eab14d"/>
          <path id="Path_2728" data-name="Path 2728" d="M44.406,350.851a4.666,4.666,0,0,1-6.28-3.695,2.3,2.3,0,0,1,4.429-1.15l27.871-10.65a2.3,2.3,0,0,1,4.067-2.1,4.666,4.666,0,0,1-2.216,6.941" transform="translate(-33.502 -313.044)" fill="#eaac9d"/>
          <path id="Path_2729" data-name="Path 2729" d="M86.523,295.387l2.714,7.1a10.873,10.873,0,0,1-6.276,14.038L75.4,319.416a10.874,10.874,0,0,1-14.038-6.276l-2.638-6.9c2.028-1.11,4.156-2.368,6.218-3.74,5-3.325,9.612-7.325,11.493-11.532C76.44,290.964,80.824,296.647,86.523,295.387Z" transform="translate(-51.286 -277.485)" fill="#ffcbbe"/>
          <path id="Path_2730" data-name="Path 2730" d="M82.077,388.9,75.4,391.45a10.874,10.874,0,0,1-14.038-6.276l-2.638-6.9c2.028-1.11,4.156-2.368,6.218-3.74l3.093,8.094A10.873,10.873,0,0,0,82.077,388.9Z" transform="translate(-51.285 -349.518)" fill="#eaac9d"/>
          <g id="Group_1860" data-name="Group 1860" transform="translate(13.275 25.648)">
            <ellipse id="Ellipse_31" data-name="Ellipse 31" cx="2.442" cy="1.485" rx="2.442" ry="1.485" transform="translate(16.415 1.744) rotate(-20.918)" fill="#e490b7"/>
            <ellipse id="Ellipse_32" data-name="Ellipse 32" cx="2.442" cy="1.485" rx="2.442" ry="1.485" transform="translate(0 8.017) rotate(-20.918)" fill="#e490b7"/>
          </g>
          <path id="Path_2731" data-name="Path 2731" d="M159.326,394.44a.845.845,0,0,1-.3-1.635l2.714-1.037a.845.845,0,1,1,.6,1.579l-2.714,1.037A.842.842,0,0,1,159.326,394.44Z" transform="translate(-137.271 -364.33)" fill="#eaac9d"/>
          <path id="Path_2732" data-name="Path 2732" d="M149.448,414.043a4.914,4.914,0,1,0,9.18-3.508Z" transform="translate(-129.485 -380.554)" fill="#454045"/>
          <g id="Group_1861" data-name="Group 1861" transform="translate(12.632 22.553)">
            <path id="Path_2733" data-name="Path 2733" d="M97.168,399.987a.846.846,0,0,1-.771-1.19,4.211,4.211,0,0,1,5.563-2.126.845.845,0,1,1-.69,1.543,2.521,2.521,0,0,0-3.33,1.273A.845.845,0,0,1,97.168,399.987Z" transform="translate(-96.323 -390.839)" fill="#df9380"/>
            <path id="Path_2734" data-name="Path 2734" d="M200.777,360.4a.846.846,0,0,1-.771-1.19,4.211,4.211,0,0,1,5.563-2.126.845.845,0,1,1-.69,1.543,2.521,2.521,0,0,0-3.33,1.272A.845.845,0,0,1,200.777,360.4Z" transform="translate(-185.634 -356.713)" fill="#df9380"/>
          </g>
        </g>
        <g id="Group_1865" data-name="Group 1865" transform="translate(29.874 0)">
          <path id="Path_2735" data-name="Path 2735" d="M219.576,166.535a4.666,4.666,0,0,1-2.388-6.884,2.3,2.3,0,0,1,4.118,1.995l28.127,9.952a2.3,2.3,0,0,1,4.456,1.039,4.666,4.666,0,0,1-6.186,3.85" transform="translate(-216.468 -138.011)" fill="#b17a4a"/>
          <path id="Path_2736" data-name="Path 2736" d="M246.535,80.074l-5.886,16.635a10.874,10.874,0,0,0,6.623,13.877l7.627,2.7a10.873,10.873,0,0,0,13.877-6.623l5.886-16.635" transform="translate(-236.772 -70.356)" fill="#c38959"/>
          <path id="Path_2737" data-name="Path 2737" d="M253.727,112.869l-6.456-2.284a10.874,10.874,0,0,1-6.623-13.877l5.886-16.635,6.456,2.284L247.1,98.991a10.874,10.874,0,0,0,6.623,13.877Z" transform="translate(-236.772 -70.355)" fill="#b17a4a"/>
          <g id="Group_1863" data-name="Group 1863" transform="translate(6.625 26.912)">
            <ellipse id="Ellipse_33" data-name="Ellipse 33" cx="1.485" cy="2.442" rx="1.485" ry="2.442" transform="matrix(0.334, -0.943, 0.943, 0.334, 16.577, 8.661)" fill="#e490b7"/>
            <ellipse id="Ellipse_34" data-name="Ellipse 34" cx="1.485" cy="2.442" rx="1.485" ry="2.442" transform="matrix(0.334, -0.943, 0.943, 0.334, 0, 2.801)" fill="#e490b7"/>
          </g>
          <path id="Path_2738" data-name="Path 2738" d="M338.1,218.112a.843.843,0,0,1-.282-.049l-2.739-.969a.845.845,0,0,1,.564-1.593l2.739.969a.845.845,0,0,1-.282,1.642Z" transform="translate(-318.223 -187.052)" fill="#b17a4a"/>
          <path id="Path_2739" data-name="Path 2739" d="M297.14,17.756,274.753,9.835a3.044,3.044,0,0,0-3.885,1.854l-2.72,7.688-.763,2.156L265.1,28a3.087,3.087,0,0,0,3.94-1.881l1.259-3.557L292.6,30.456l-1.259,3.557a3.087,3.087,0,0,0,1.881,3.94l2.288-6.468.763-2.156,2.72-7.688a3.044,3.044,0,0,0-1.854-3.885Z" transform="translate(-258.385 -9.659)" fill="#544f57"/>
          <path id="Path_2740" data-name="Path 2740" d="M281.357,12.17a3.043,3.043,0,0,0-3.885,1.854l-3.483,9.844L270.3,22.562l-1.258,3.557A3.085,3.085,0,0,1,265.1,28l5.771-16.311a3.044,3.044,0,0,1,3.885-1.854Z" transform="translate(-258.387 -9.658)" fill="#454045"/>
          <path id="Path_2741" data-name="Path 2741" d="M307.5,235.058a4.914,4.914,0,1,0,9.265,3.278Z" transform="translate(-294.69 -203.952)" fill="#454045"/>
          <g id="Group_1864" data-name="Group 1864" transform="translate(8.727 23.722)">
            <path id="Path_2742" data-name="Path 2742" d="M285.041,185.163a.845.845,0,0,1-.763-.481,2.521,2.521,0,0,0-3.361-1.189.845.845,0,0,1-.728-1.525,4.211,4.211,0,0,1,5.614,1.986.845.845,0,0,1-.762,1.209Z" transform="translate(-279.708 -181.554)" fill="#985e33"/>
            <path id="Path_2743" data-name="Path 2743" d="M389.6,222.161a.845.845,0,0,1-.763-.481,2.521,2.521,0,0,0-3.361-1.189.845.845,0,0,1-.728-1.525,4.211,4.211,0,0,1,5.614,1.986.845.845,0,0,1-.762,1.209Z" transform="translate(-369.84 -213.446)" fill="#985e33"/>
          </g>
        </g>
        <g id="Group_1867" data-name="Group 1867" transform="translate(23.471 4.973)">
          <path id="Path_2744" data-name="Path 2744" d="M190.6,63.709a1.054,1.054,0,0,1-.787-.352L187,60.217a1.056,1.056,0,1,1,1.574-1.409l2.811,3.14a1.056,1.056,0,0,1-.786,1.761Z" transform="translate(-184.432 -56.695)" fill="#80b4fb"/>
          <g id="Group_1866" data-name="Group 1866">
            <path id="Path_2745" data-name="Path 2745" d="M224.772,50.846a1.057,1.057,0,0,1-1.005-.733l-.978-3.039a1.056,1.056,0,1,1,2.011-.647l.978,3.039a1.057,1.057,0,0,1-1.006,1.38Z" transform="translate(-215.471 -45.694)"/>
            <path id="Path_2746" data-name="Path 2746" d="M174.047,96.26a1.054,1.054,0,0,1-.432-.093L170.7,94.86a1.056,1.056,0,0,1,.865-1.928l2.913,1.307a1.057,1.057,0,0,1-.433,2.02Z" transform="translate(-170.078 -86.333)"/>
          </g>
        </g>
        <g id="Group_1869" data-name="Group 1869" transform="translate(40.537 56.863)">
          <path id="Path_2747" data-name="Path 2747" d="M317.01,450.519a1.052,1.052,0,0,1-.589-.18l-3.5-2.355a1.056,1.056,0,0,1,1.181-1.752l3.5,2.355a1.056,1.056,0,0,1-.591,1.932Z" transform="translate(-309.875 -442.689)" fill="#f4dd45"/>
          <g id="Group_1868" data-name="Group 1868">
            <path id="Path_2748" data-name="Path 2748" d="M296.488,469.524a1.056,1.056,0,0,1-.9-.5l-1.693-2.707a1.056,1.056,0,1,1,1.791-1.12l1.693,2.707a1.056,1.056,0,0,1-.895,1.616Z" transform="translate(-293.737 -458.768)"/>
            <path id="Path_2749" data-name="Path 2749" d="M326.919,424.36a1.056,1.056,0,0,1-.184-.016l-3.144-.553a1.056,1.056,0,1,1,.366-2.081l3.144.553a1.056,1.056,0,0,1-.182,2.1Z" transform="translate(-318.718 -421.694)"/>
          </g>
        </g>
        <g id="Group_1872" data-name="Group 1872" transform="translate(0 9.795)">
          <g id="Group_1870" data-name="Group 1870">
            <path id="Path_2750" data-name="Path 2750" d="M94.869,90.143l-5.618-8.912-.017-.026a1.283,1.283,0,0,0-2.325.478l0,.025L85.2,92.116a1.056,1.056,0,1,0,2.085.341l.307-1.874,4.48-.916,1.009,1.6a1.056,1.056,0,0,0,1.787-1.127Zm-6.912-1.79.677-4.138,2.233,3.543Z" transform="translate(-73.43 -80.637)"/>
            <path id="Path_2751" data-name="Path 2751" d="M9.836,95.783v0l-.966-4.728a1.056,1.056,0,1,0-2.07.423l.755,3.694-4.708.962-.755-3.694a1.056,1.056,0,1,0-2.07.423l.966,4.728h0l1.035,5.064a1.056,1.056,0,0,0,1.034.845,1.068,1.068,0,0,0,.213-.022,1.056,1.056,0,0,0,.823-1.246L3.27,98.2l4.708-.962.824,4.03a1.056,1.056,0,0,0,1.034.845,1.068,1.068,0,0,0,.213-.022,1.056,1.056,0,0,0,.823-1.246Z" transform="translate(0 -88.886)"/>
          </g>
          <g id="Group_1871" data-name="Group 1871" transform="translate(52.382 36.031)">
            <path id="Path_2752" data-name="Path 2752" d="M447.349,374.728a1.256,1.256,0,0,0-2.175-.819l-.017.019-6.163,6.953a1.056,1.056,0,0,0,1.581,1.4l1.052-1.187,3.606,1.363v1.581a1.056,1.056,0,0,0,1.056,1.057h0a1.056,1.056,0,0,0,1.056-1.056l0-9.281c0-.011,0-.021,0-.032Zm-4.223,4.676,2.109-2.379,0,3.176Z" transform="translate(-430.564 -369.122)"/>
            <path id="Path_2753" data-name="Path 2753" d="M389.814,343.949a1.057,1.057,0,0,0-1.362.615l-1.13,2.99-3.725-1.408,1.13-2.99a1.056,1.056,0,0,0-1.976-.747l-1.5,3.977h0l-1.61,4.26a1.056,1.056,0,1,0,1.976.747l1.237-3.272,3.725,1.408-1.237,3.272a1.056,1.056,0,1,0,1.976.747l3.113-8.238A1.056,1.056,0,0,0,389.814,343.949Z" transform="translate(-379.569 -341.726)"/>
          </g>
        </g>
      </g>
    </g>
  </g>
</svg>
