<svg xmlns="http://www.w3.org/2000/svg" xmlns:xlink="http://www.w3.org/1999/xlink" width="112" height="112" viewBox="0 0 112 112">
  <defs>
    <radialGradient id="radial-gradient" cx="-0.079" cy="-0.201" r="1.523" gradientTransform="translate(0)" gradientUnits="objectBoundingBox">
      <stop offset="0" stop-color="#e3f3fc"/>
      <stop offset="0.22" stop-color="#aeb7bd"/>
      <stop offset="0.61" stop-color="#8ca4af"/>
      <stop offset="1" stop-color="#393b3d"/>
    </radialGradient>
  </defs>
  <g id="ic-mercury" transform="translate(-258 -1305)">
    <path id="Path_4190" data-name="Path 4190" d="M56,0A56,56,0,1,1,0,56,56,56,0,0,1,56,0Z" transform="translate(258 1305)" fill="#fbfbfb"/>
    <g id="mercury" transform="translate(290.891 1337.891)">
      <g id="Layer_2" data-name="Layer 2" transform="translate(0 0)">
        <g id="Layer_1" data-name="Layer 1">
          <path id="Path_4129" data-name="Path 4129" d="M46.21,23.061A23.061,23.061,0,1,1,39.438,6.737,23.11,23.11,0,0,1,46.21,23.061Z" transform="translate(0.01 0)" fill="url(#radial-gradient)"/>
          <path id="Path_4130" data-name="Path 4130" d="M11.685,8.564c0-1.689-2.219-1.206-3.232-.724S5.7,9.819,6.426,11.314a1.544,1.544,0,0,0,.627,1.11,2.412,2.412,0,0,0,2.461-.289,4.149,4.149,0,0,0,2.171-3.57Z" transform="translate(23.969 28.247)" fill="#8ca4af" opacity="0.5"/>
          <path id="Path_4131" data-name="Path 4131" d="M8.628,7.319h0a.531.531,0,0,0-.386,0A.917.917,0,0,0,7.76,7.9h0a.868.868,0,0,0,.965-.482A.1.1,0,0,1,8.628,7.319Z" transform="translate(29.727 27.852)" fill="#8ca4af" opacity="0.5"/>
          <path id="Path_4132" data-name="Path 4132" d="M10.547,6.15A1.447,1.447,0,0,0,8.81,5.812h0a1.592,1.592,0,0,0-1.11.868A2.026,2.026,0,0,0,7.218,9a1.5,1.5,0,0,0,.627,1.013C9,10.685,10.5,8.948,10.837,8.08a2.268,2.268,0,0,0-.289-1.93Z" transform="translate(26.988 21.639)" fill="#8ca4af" opacity="0.5"/>
          <path id="Path_4133" data-name="Path 4133" d="M8.658,6.36H8.224v.289h.241Z" transform="translate(31.338 24.324)" fill="#8ca4af" opacity="0.5"/>
          <path id="Path_4134" data-name="Path 4134" d="M9.365,8.461c-.917-1.4-3.763-.627-4.825.434l-.1.241a.917.917,0,0,0,0,.434c-.434,1.061,1.3,2.026,2.219,1.93S10.33,9.956,9.365,8.461Z" transform="translate(16.784 29.46)" fill="#8ca4af" opacity="0.5"/>
          <path id="Path_4135" data-name="Path 4135" d="M5.8,8.51h0V8.9c0,.386,0,0,.338,0S5.993,8.8,5.8,8.51Z" transform="translate(22.231 32.547)" fill="#8ca4af" opacity="0.5"/>
          <path id="Path_4136" data-name="Path 4136" d="M6,8.93H6v.338H6Z" transform="translate(22.996 34.153)" fill="#8ca4af" opacity="0.5"/>
          <path id="Path_4137" data-name="Path 4137" d="M3.892,8.878c0-1.061-.82-2.7-1.93-1.785a1.061,1.061,0,0,0-.386,1.254,4.487,4.487,0,0,0,.338.965,1.061,1.061,0,0,0,.965.627,1.158,1.158,0,0,0,.868-.627h0a.531.531,0,0,0,.145-.434Z" transform="translate(5.805 26.1)" fill="#8ca4af" opacity="0.5"/>
          <path id="Path_4138" data-name="Path 4138" d="M2.258,7.75h0a.289.289,0,0,0,0,.434A.6.6,0,0,0,2.258,7.75Z" transform="translate(8.308 29.64)" fill="#8ca4af" opacity="0.5"/>
          <path id="Path_4139" data-name="Path 4139" d="M10.141,3.813c-1.3,0-2.364,3.039-1.351,3.86a1.206,1.206,0,0,0,1.592.579C11.636,7.576,12.119,3.668,10.141,3.813Z" transform="translate(32.123 14.568)" fill="#8ca4af" opacity="0.5"/>
          <path id="Path_4140" data-name="Path 4140" d="M6.527,2.73h0s-.386.338-.241.579h.241l.338-.241A1.721,1.721,0,0,0,6.527,2.73Z" transform="translate(23.964 10.441)" fill="#8ca4af" opacity="0.5"/>
          <path id="Path_4141" data-name="Path 4141" d="M3.566,5.207a.772.772,0,0,0-1.158,0c-.627.338-1.3,1.544-.724,2.075a.675.675,0,0,0,.482.482,1.731,1.731,0,0,0,1.254-.82,1.93,1.93,0,0,0,.145-1.737Z" transform="translate(5.649 18.916)" fill="#8ca4af" opacity="0.5"/>
          <path id="Path_4142" data-name="Path 4142" d="M2.224,3.916a.579.579,0,0,0-.675,0h0A1.4,1.4,0,0,0,.825,5.653a.531.531,0,0,0,.724.289A1.3,1.3,0,0,0,2.32,4.736C2.465,4.736,2.513,4.109,2.224,3.916Z" transform="translate(2.89 14.562)" fill="#8ca4af" opacity="0.5"/>
          <path id="Path_4143" data-name="Path 4143" d="M16.18,8.437a22.627,22.627,0,0,1-4.294,2.8h0A12.207,12.207,0,0,0,13,9.981,12.833,12.833,0,0,0,15.263,6.7h0a12.351,12.351,0,0,1-1.689,2.461l-.868,1.013a12.187,12.187,0,0,1-.917.965h0a13.219,13.219,0,0,0,.965-2.991h0A11.917,11.917,0,0,1,11.693,10.7a10.712,10.712,0,0,1,.482-1.978h0L11.6,10.608a24.122,24.122,0,0,1,0-3.715h0a25.907,25.907,0,0,0,0,3.86h0A11.482,11.482,0,0,1,10,7.472h0A12.061,12.061,0,0,0,11.6,10.849h-.772c-.434-.531-1.061-.868-1.5-1.4l1.5,1.833h0c-1.351-.241-2.75-.434-4.1-.579h0l4.1.724h0a9.649,9.649,0,0,1-1.5.579A22.386,22.386,0,0,1,6,13.647H6a18.864,18.864,0,0,0,3.136-1.158l1.689-.482-.917.531a7.189,7.189,0,0,1-1.4.965h0a7.382,7.382,0,0,0,1.447-.917l.868-.482L9.281,13.358a22.05,22.05,0,0,1-2.75,1.978h0a12.737,12.737,0,0,0,2.8-1.978,16.259,16.259,0,0,0,1.5-1.351h0c-.338.579-.724,1.158-1.11,1.689a17.8,17.8,0,0,1-1.4,1.93h0a9.649,9.649,0,0,0,1.5-1.93,16.259,16.259,0,0,0,1.013-1.5,10.518,10.518,0,0,1-.724,2.75h0a10.9,10.9,0,0,0,.917-3.088h0a4.525,4.525,0,0,0,.482,1.351c.145.434.579,1.64.917,1.785h0a8.25,8.25,0,0,1-.434-2.026,5.6,5.6,0,0,1-.482-1.351h0c.579.917,1.254,1.737,1.785,2.653h0c-.531-.965-1.158-1.785-1.737-2.7h0a.965.965,0,0,0,.386,0l1.737,1.4h0l-1.11-.868H12.9a7.141,7.141,0,0,0,1.3.482h0a7.43,7.43,0,0,1-1.447-.531h-.241a11.82,11.82,0,0,0,1.882,0H12.368a25.089,25.089,0,0,0,3.715-1.061h0a24.123,24.123,0,0,1-4,1.013h0a24.123,24.123,0,0,0,4.149-2.846S16.18,8.389,16.18,8.437Z" transform="translate(22.996 25.624)" fill="#b9e5fb" opacity="0.4"/>
          <path id="Path_4144" data-name="Path 4144" d="M7.39,3.706A25.715,25.715,0,0,0,6.376,8.531h0c0-.531.579-1.061.724-1.447A12.254,12.254,0,0,1,9.271,3.706h0a12.5,12.5,0,0,0-1.64,2.509A9.649,9.649,0,0,0,7,7.421a12.742,12.742,0,0,0-.531,1.206h0A10.952,10.952,0,0,1,8.5,6.7h0A10.952,10.952,0,0,0,6.521,8.675l1.64-1.206h0L6.618,8.724A27.5,27.5,0,0,0,10.14,7.518h0a32.373,32.373,0,0,1-3.618,1.3h0a13.316,13.316,0,0,0,3.667,0h0a10.614,10.614,0,0,1-3.715,0h0c.627,0,1.206.627,1.833.868h0a13.075,13.075,0,0,1-1.882-.82h0c.724,1.158,1.447,2.412,2.075,3.618h0c-.675-1.206-1.447-2.316-2.171-3.522h0a1.423,1.423,0,0,0,.241.82c.241.241,0,.82,0,1.206h0a2.367,2.367,0,0,0-.338-1.447,1.785,1.785,0,0,1,0-.531h0v1.592a19.684,19.684,0,0,0,0,3.377h0a15.824,15.824,0,0,1,0-3.377v-.482a6.61,6.61,0,0,0-.338,1.64h0a6.9,6.9,0,0,1,.289-1.689l-.145-.1c-.241.627-.386,1.3-.579,1.93a15.535,15.535,0,0,0-.82,3.281h0a15.873,15.873,0,0,1,.772-3.329q.246-.954.579-1.882h0l-.917,1.4a11.289,11.289,0,0,0-1.254,2.075h0a11.1,11.1,0,0,1,1.206-2.075l.675-1.4a10.807,10.807,0,0,0-2.219,1.689h0A11.048,11.048,0,0,1,5.942,9.689H2.565a7.141,7.141,0,0,0,2.026,0,7.526,7.526,0,0,0,1.447,0h0a25.041,25.041,0,0,1-3.088-.627h0a18.283,18.283,0,0,1,3.184.531h0L5.8,9.3,4.205,8.289h0l1.206.675-.338-.917c-.289-.386-.724-.579-.965-1.061h0s.724.724,1.061,1.158l.386.434h0a1.013,1.013,0,0,1,0-.289A13.46,13.46,0,0,1,5.074,6.7h0l.772,1.4.241.338a20.07,20.07,0,0,1-.434-3.811h0a28.223,28.223,0,0,0,.531,4.053h0A21.228,21.228,0,0,1,7.2,3.851S7.39,3.658,7.39,3.706Z" transform="translate(9.448 14.145)" fill="#b9e5fb" opacity="0.4"/>
          <path id="Path_4145" data-name="Path 4145" d="M3.552,4.78a.434.434,0,0,0-.289,0h0a.724.724,0,0,0,0,.482v.289A.627.627,0,0,0,3.7,5.069S3.745,4.828,3.552,4.78Z" transform="translate(12.369 18.185)" fill="#fff" opacity="0.5"/>
          <path id="Path_4146" data-name="Path 4146" d="M7.778,7.666H7.44c-.338,0-.386.289-.338.579s.338,0,.434,0a.627.627,0,0,0,.434-.675A.337.337,0,0,1,7.778,7.666Z" transform="translate(27.152 28.952)" fill="#fff" opacity="0.5"/>
          <path id="Path_4147" data-name="Path 4147" d="M9.853,6.007a.434.434,0,0,0-.241-.386.482.482,0,0,0-.434,0,1.254,1.254,0,0,0-.338.772h.579A.772.772,0,0,0,9.853,6.007Z" transform="translate(33.858 21.3)" fill="#fff" opacity="0.5"/>
          <path id="Path_4148" data-name="Path 4148" d="M9.338,6.027h0a.434.434,0,0,0-.338,0h.338Z" transform="translate(34.469 22.92)" fill="#fff" opacity="0.5"/>
          <path id="Path_4149" data-name="Path 4149" d="M3.5,8.416a.338.338,0,0,0-.289,0s-.338,0-.338.289.289.675.627.627a.531.531,0,0,0,0-.386A.627.627,0,0,0,3.5,8.416Z" transform="translate(11.025 32.062)" fill="#fff" opacity="0.5"/>
          <path id="Path_4150" data-name="Path 4150" d="M3.315,8.65h.241S3.363,8.7,3.315,8.65Z" transform="translate(12.317 33.082)" fill="#fff" opacity="0.5"/>
          <path id="Path_4151" data-name="Path 4151" d="M7.362,4H7.024a.482.482,0,0,0,0,.338v.82h0a.386.386,0,0,0,.434,0A1.013,1.013,0,0,0,7.362,4Z" transform="translate(26.796 15.298)" fill="#fff" opacity="0.5"/>
          <path id="Path_4152" data-name="Path 4152" d="M7.338,4.42H7S7.386,4.565,7.338,4.42Z" transform="translate(26.82 16.904)" fill="#fff" opacity="0.5"/>
          <path id="Path_4153" data-name="Path 4153" d="M1.484,4.929h0a.338.338,0,0,0-.338-.289h0a.772.772,0,0,0-.338.579.675.675,0,0,0,0,.434h.386a2.846,2.846,0,0,0,0-.386h0S1.532,4.929,1.484,4.929Z" transform="translate(3.003 17.746)" fill="#fff" opacity="0.5"/>
          <path id="Path_4154" data-name="Path 4154" d="M.88,5Z" transform="translate(3.414 19.123)" fill="#fff" opacity="0.5"/>
          <path id="Path_4155" data-name="Path 4155" d="M7.963,1.72H7.577c-.048,0,0,.241,0,.289h0S7.963,1.768,7.963,1.72Z" transform="translate(28.945 6.578)" fill="#fff" opacity="0.5"/>
          <path id="Path_4156" data-name="Path 4156" d="M23.1,0A23.061,23.061,0,1,0,39.438,6.737,23.11,23.11,0,0,0,23.1,0ZM21.411,39.947a19.3,19.3,0,1,1,19.3-19.3A19.3,19.3,0,0,1,21.411,39.947Z" transform="translate(0.01 0)" opacity="0.1"/>
        </g>
      </g>
    </g>
  </g>
</svg>
