<svg xmlns="http://www.w3.org/2000/svg" xmlns:xlink="http://www.w3.org/1999/xlink" width="112" height="112" viewBox="0 0 112 112">
  <defs>
    <linearGradient id="linear-gradient" x1="0.269" y1="-0.008" x2="0.735" y2="1.009" gradientUnits="objectBoundingBox">
      <stop offset="0.03" stop-color="#89d2d9"/>
      <stop offset="0.27" stop-color="#e36233"/>
      <stop offset="0.77" stop-color="#e79338"/>
      <stop offset="1" stop-color="#a7ada2"/>
    </linearGradient>
    <linearGradient id="linear-gradient-2" x1="0.353" y1="0.04" x2="0.65" y2="0.962" gradientUnits="objectBoundingBox">
      <stop offset="0" stop-color="#e36233"/>
      <stop offset="0.28" stop-color="#df1f2f"/>
      <stop offset="0.28" stop-color="#df212f"/>
      <stop offset="0.46" stop-color="#e25132"/>
      <stop offset="0.59" stop-color="#e46f34"/>
      <stop offset="0.66" stop-color="#e57a35"/>
      <stop offset="0.72" stop-color="#e57335"/>
      <stop offset="0.8" stop-color="#e35e33"/>
      <stop offset="0.9" stop-color="#e13c31"/>
      <stop offset="0.92" stop-color="#e13731"/>
    </linearGradient>
  </defs>
  <g id="ic-mars" transform="translate(-258 -1305)">
    <path id="Path_4192" data-name="Path 4192" d="M56,0A56,56,0,1,1,0,56,56,56,0,0,1,56,0Z" transform="translate(258 1305)" fill="#fbfbfb"/>
    <g id="mars" transform="translate(286.582 1333.551)">
      <g id="Layer_2" data-name="Layer 2" transform="translate(0 0)">
        <g id="Layer_1" data-name="Layer 1">
          <path id="Path_4110" data-name="Path 4110" d="M54.7,27.208A27.352,27.352,0,1,1,27.546.051,27.352,27.352,0,0,1,54.7,27.208Z" transform="translate(0 0.143)" fill="url(#linear-gradient)"/>
          <path id="Path_4111" data-name="Path 4111" d="M54.7,27.208A27.352,27.352,0,1,1,27.546.051,27.352,27.352,0,0,1,54.7,27.208Z" transform="translate(0 0.143)" fill="url(#linear-gradient-2)"/>
          <g id="Group_2376" data-name="Group 2376" transform="translate(0 4.811)" opacity="0.4">
            <path id="Path_4112" data-name="Path 4112" d="M10.126,17.645a20.718,20.718,0,0,0,8.264-1.862c2.289-1.552,3.414-4.345,5.7-5.858a8.923,8.923,0,0,1,3.88-1.242A7.449,7.449,0,0,0,32.4,7.131c.5-.427,1.823-1.552,1.28-2.328a2.91,2.91,0,0,0-2.134-.892,27.158,27.158,0,0,0-6.4,0,15.519,15.519,0,0,0-4.113.892,19.4,19.4,0,0,1-4.772,1.668,30.223,30.223,0,0,1-8.768-.66,16.14,16.14,0,0,0-4.733,0H2.173A27.546,27.546,0,0,0,0,16.636,27.158,27.158,0,0,0,1.086,24.2a46.282,46.282,0,0,0,4.462-3.88,9.971,9.971,0,0,1,4.578-2.677Z" transform="translate(0 5.905)" fill="#c18ea6"/>
            <path id="Path_4113" data-name="Path 4113" d="M13.873,41.974a11.639,11.639,0,0,0,3.181-1.358,18.778,18.778,0,0,0,4.19-3.647,12.454,12.454,0,0,1,3.88-2.871,35.655,35.655,0,0,1,8.225-2.367,17.071,17.071,0,0,1,5.044-.543A31.737,31.737,0,0,1,43.126,32a38.8,38.8,0,0,0,5.626,1.048,27.158,27.158,0,0,0,.97-29.641,21.883,21.883,0,0,1-1.2,2.056,8.729,8.729,0,0,0-1.513,3.608,13.036,13.036,0,0,0,.427,4.578A12.531,12.531,0,0,1,47.9,17.8a5.315,5.315,0,0,1-1.823,3.414c-1.125.854-2.716,1.2-3.647,2.25a3.492,3.492,0,0,0-.66,2.6,3.3,3.3,0,0,1-.66,1.979,3.492,3.492,0,0,1-2.755,1.746,9.389,9.389,0,0,1-3.647-.815,41.941,41.941,0,0,0-4.85-2.405,5.044,5.044,0,0,0-2.405,0,5.626,5.626,0,0,0-1.474.621,12.066,12.066,0,0,1-3.88,1.785,15.053,15.053,0,0,1-4.578.388,13.152,13.152,0,0,1-4.694-1.241,42.134,42.134,0,0,0-4.966-1.862,7.139,7.139,0,0,0-2.871,0,23.94,23.94,0,0,0-3.686.466H.41A27.158,27.158,0,0,0,13.873,41.974Z" transform="translate(1.181 5.009)" fill="#c18ea6"/>
            <path id="Path_4114" data-name="Path 4114" d="M11.294,4.654a12.26,12.26,0,0,1,2.017-.466,10.281,10.281,0,0,1,2.444-.31H18.2a15.985,15.985,0,0,0,2.367,0A25.529,25.529,0,0,0,17.191,1.24,46.557,46.557,0,0,1,8.85,4.189,2.638,2.638,0,0,0,11.294,4.654Z" transform="translate(25.486 -1.24)" fill="#c18ea6"/>
          </g>
          <g id="Group_2377" data-name="Group 2377" transform="translate(0.272 15.519)" opacity="0.4">
            <path id="Path_4115" data-name="Path 4115" d="M6.066,5.6A12.1,12.1,0,0,0,.557,5.368,10.745,10.745,0,0,1,.13,7.23a18.662,18.662,0,0,0,2.638-.543A20.485,20.485,0,0,0,6.066,5.6Z" transform="translate(0.103 -0.673)" fill="#c18ea6"/>
            <path id="Path_4116" data-name="Path 4116" d="M4.13,7.643A5.548,5.548,0,0,0,8.01,5.82h-.5A29.564,29.564,0,0,1,4.13,7.643Z" transform="translate(11.622 1.241)" fill="#c18ea6"/>
            <path id="Path_4117" data-name="Path 4117" d="M6.685,4.841h-.5l-.892.349-.388.5A4.733,4.733,0,0,0,8.431,4.8,7.76,7.76,0,0,0,6.8,4.8.17.17,0,0,1,6.685,4.841Z" transform="translate(13.839 -1.814)" fill="#c18ea6"/>
            <path id="Path_4118" data-name="Path 4118" d="M.07,8.665v.582a8.225,8.225,0,0,0,2.561-1.4A7.372,7.372,0,0,0,.07,8.665Z" transform="translate(-0.07 7.087)" fill="#c18ea6"/>
            <path id="Path_4119" data-name="Path 4119" d="M9.665,4.892c.582-.272,1.086-.621,1.668-.892A16.877,16.877,0,0,0,6.6,5.319a7.527,7.527,0,0,0,3.065-.427Z" transform="translate(18.735 -4)" fill="#c18ea6"/>
            <path id="Path_4120" data-name="Path 4120" d="M4.177,6.928A21.8,21.8,0,0,0,6.117,5.57C4.642,6.036,3.246,6.7,1.81,7.238A3.88,3.88,0,0,0,4.177,6.928Z" transform="translate(4.941 0.521)" fill="#c18ea6"/>
            <path id="Path_4121" data-name="Path 4121" d="M9,13.73a4.151,4.151,0,0,0,1.823-.7,13.19,13.19,0,0,1,1.319-1.242,40.349,40.349,0,0,0-5.626,1.2,11.019,11.019,0,0,0-3.88,1.785A15.518,15.518,0,0,0,4.153,15.9a8.768,8.768,0,0,1,3.1-1.746Z" transform="translate(7.331 18.433)" fill="#c18ea6"/>
            <path id="Path_4122" data-name="Path 4122" d="M4.54,11.5a14.046,14.046,0,0,1,1.785,0,5.781,5.781,0,0,0,2.91-.582A8.885,8.885,0,0,0,4.54,11.5Z" transform="translate(12.802 15.656)" fill="#c18ea6"/>
            <path id="Path_4123" data-name="Path 4123" d="M15.3,6.177a6.285,6.285,0,0,0,0-.737l-1.746.97Z" transform="translate(38.749 0.147)" fill="#c18ea6"/>
            <path id="Path_4124" data-name="Path 4124" d="M9.878,10.49l.815-.66A15.519,15.519,0,0,0,7.24,10.878a3.414,3.414,0,0,0,2.638-.388Z" transform="translate(20.578 12.789)" fill="#c18ea6"/>
            <path id="Path_4125" data-name="Path 4125" d="M12.55,9.319a2.521,2.521,0,0,0,2.289-1.164,2.6,2.6,0,0,0,.233-.466A6.052,6.052,0,0,0,12.55,9.319Z" transform="translate(35.869 6.626)" fill="#c18ea6"/>
            <path id="Path_4126" data-name="Path 4126" d="M13,10.065a13.967,13.967,0,0,0,3.414-.582l.233-.854a6.052,6.052,0,0,0-1.668.31A13.316,13.316,0,0,0,13,10.065Z" transform="translate(37.165 9.333)" fill="#c18ea6"/>
          </g>
          <path id="Path_4127" data-name="Path 4127" d="M27.352,0A27.352,27.352,0,1,0,54.7,27.352,27.352,27.352,0,0,0,27.352,0ZM25.3,47.293A22.657,22.657,0,1,1,47.915,24.675,22.658,22.658,0,0,1,25.3,47.293Z" transform="translate(0 0)" opacity="0.1"/>
        </g>
      </g>
    </g>
  </g>
</svg>
