<svg xmlns="http://www.w3.org/2000/svg" xmlns:xlink="http://www.w3.org/1999/xlink" width="112" height="112" viewBox="0 0 112 112">
  <defs>
    <clipPath id="clip-path">
      <circle id="Ellipse_92" data-name="Ellipse 92" cx="56" cy="56" r="56" transform="translate(453 977)" fill="#fff"/>
    </clipPath>
  </defs>
  <g id="ic-nail-length" transform="translate(-453 -977)">
    <circle id="Ellipse_26" data-name="Ellipse 26" cx="56" cy="56" r="56" transform="translate(453 977)" fill="#fff"/>
    <g id="Mask_Group_15" data-name="Mask Group 15" clip-path="url(#clip-path)">
      <g id="Group_2245" data-name="Group 2245" transform="translate(453 951.403)">
        <g id="Group_2244" data-name="Group 2244" transform="translate(0 32.764)">
          <path id="Path_3748" data-name="Path 3748" d="M28.1,77.675l19.8,8.712a4.455,4.455,0,0,1,2.5,2.885l5.586,20.1c2.106,7.578,6.289,12.808,9.986,12.808l1.585-6L59.531,87.293c-1.072-3.858,1.3-6.042,3.754-2.905L72.828,96.6l3.551,12.779c2.106,7.578,6.256,12.808,9.986,12.808l1.585-6L85.871,108.7S92.855,119.47,97.9,119.47l1.585-6-.351-1.261s.6-6.325,3.113-6.325L104.8,100.7V78.742a5.919,5.919,0,0,0-3.535-5.418L32.011,42.851a24.486,24.486,0,0,0-9.863-2.074H19.541L17.5,61.422A17.757,17.757,0,0,0,28.1,77.675Z" transform="translate(-13.929 -39.142)" fill="#ffcdbe"/>
          <path id="Path_3749" data-name="Path 3749" d="M78.406,122.183,77,127.516c-3.821-.678-7.877-6.239-10.618-16.1L62.828,98.636,53.285,86.429a.978.978,0,0,0-1.714.865L51.1,85.582a3.587,3.587,0,0,1,6.27-3.234l9.543,12.208,3.551,12.779C72.566,114.913,75.45,119.948,78.406,122.183Zm3.588-17.56-4.3-15.489L66.282,74.525A2.792,2.792,0,0,0,61.3,75.958l-.136,1.326,12.44,15.931,4.3,15.489c2.741,9.862,6.8,15.424,10.618,16.1l1.408-5.334C86.983,117.237,84.1,112.2,81.993,104.622Zm8.315-22.556a3.82,3.82,0,0,0-2.281-3.5l-5.443-2.4c-6.177-2.718-11.024-7.931-12.563-13.095a18.347,18.347,0,0,0,3.886,11.291L84.383,87.787l6.79,24.422,3.113-6.325c-1.313-1.853-3.978-7.079-3.978-18.994V82.067ZM7.5,63.463A17.757,17.757,0,0,0,18.1,79.716l21.732,9.563,6.152,22.136c2.741,9.862,6.8,15.424,10.618,16.1l1.408-5.334c-2.956-2.235-5.839-7.27-7.945-14.849l-5.586-20.1a4.455,4.455,0,0,0-2.5-2.885l-19.8-8.712a17.758,17.758,0,0,1-10.6-16.253v-18.6H9.03a1.53,1.53,0,0,0-1.53,1.53Z" transform="translate(-5.97 -39.143)" fill="#ebae9d"/>
          <path id="Path_3750" data-name="Path 3750" d="M252.375,410.323a5.8,5.8,0,0,0-2.527,1.5l1.465,9.964c.34,1.225,2.721.8,4.462.313l-3.282-11.809Z" transform="translate(-198.863 -333.251)" fill="#e2a5cf"/>
          <path id="Path_3751" data-name="Path 3751" d="M245.7,426.743l-2.485-8.944a5.877,5.877,0,0,0-1.485,5.71l1.137,4.093c.742,2.67,3.549,3.11,5.811,2.481a.986.986,0,0,0,.684-1.214l-.22-.792c-1.742.485-3.1-.108-3.442-1.333Z" transform="translate(-192.23 -339.228)" fill="#d273b3"/>
          <path id="Path_3752" data-name="Path 3752" d="M352.3,410.323a5.8,5.8,0,0,0-2.527,1.5l1.465,9.964c.34,1.225,2.721.8,4.462.313l-3.282-11.809Z" transform="translate(-278.396 -333.251)" fill="#e2a5cf"/>
          <path id="Path_3753" data-name="Path 3753" d="M345.623,426.743l-2.485-8.944a5.877,5.877,0,0,0-1.485,5.71l1.137,4.093c.742,2.67,3.549,3.11,5.811,2.481a.986.986,0,0,0,.684-1.214l-.22-.792C347.323,428.561,345.963,427.968,345.623,426.743Z" transform="translate(-271.762 -339.228)" fill="#d273b3"/>
          <path id="Path_3754" data-name="Path 3754" d="M408.815,397.036a5.8,5.8,0,0,0-2.527,1.5l1.465,9.964c.34,1.225,2.721.8,4.462.313L408.934,397Z" transform="translate(-323.38 -322.676)" fill="#e2a5cf"/>
          <path id="Path_3755" data-name="Path 3755" d="M402.14,413.455l-2.485-8.944a5.877,5.877,0,0,0-1.485,5.71l1.137,4.093c.742,2.67,3.549,3.11,5.811,2.481a.986.986,0,0,0,.684-1.214l-.22-.792C403.84,415.273,402.48,414.68,402.14,413.455Z" transform="translate(-316.746 -328.651)" fill="#d273b3"/>
          <path id="Path_3756" data-name="Path 3756" d="M428.731,334.408a5.8,5.8,0,0,0-2.836.767l-1.256,9.992c0,1.271,2.408,1.5,4.216,1.5V334.407Z" transform="translate(-337.986 -272.853)" fill="#e2a5cf"/>
          <path id="Path_3757" data-name="Path 3757" d="M419.252,347.454v-9.283a5.877,5.877,0,0,0-2.96,5.1v4.248c0,2.771,2.587,3.947,4.935,3.946a.986.986,0,0,0,.984-.986v-.822C420.4,349.66,419.252,348.725,419.252,347.454Z" transform="translate(-331.343 -275.849)" fill="#d273b3"/>
          <g id="Group_2243" data-name="Group 2243" transform="translate(8.983 10.58)">
            <circle id="Ellipse_102" data-name="Ellipse 102" cx="3.061" cy="3.061" r="3.061" transform="translate(72.804)" fill="#d3effd"/>
            <circle id="Ellipse_103" data-name="Ellipse 103" cx="3.061" cy="3.061" r="3.061" transform="translate(18.856 55.908)" fill="#d3effd"/>
            <path id="Path_3758" data-name="Path 3758" d="M5.612,312.212a1.53,1.53,0,0,1-1.53-1.53V306.09H1.53a1.53,1.53,0,0,1,0-3.061H4.081v-4.591a1.53,1.53,0,0,1,3.061,0v4.591H9.693a1.53,1.53,0,0,1,0,3.061H7.142v4.591A1.53,1.53,0,0,1,5.612,312.212Z" transform="translate(0 -251.735)" fill="#d3effd"/>
          </g>
          <path id="Path_3759" data-name="Path 3759" d="M100.516,176.9a1.53,1.53,0,0,1-1.53-1.53v-4.591H96.434a1.53,1.53,0,1,1,0-3.061h2.551v-4.591a1.53,1.53,0,1,1,3.061,0v4.591H104.6a1.53,1.53,0,1,1,0,3.061h-2.551v4.591a1.53,1.53,0,0,1-1.53,1.53Z" transform="translate(-75.538 -135.306)" fill="#ffeee5"/>
          <path id="Path_3760" data-name="Path 3760" d="M462.612,48.069a1.53,1.53,0,0,1-1.53-1.53V41.947H458.53a1.53,1.53,0,1,1,0-3.061h2.551V34.294a1.53,1.53,0,0,1,3.061,0v4.591h2.551a1.53,1.53,0,0,1,0,3.061h-2.551v4.591A1.53,1.53,0,0,1,462.612,48.069Z" transform="translate(-403.744 -34.764)" fill="#d3effd"/>
        </g>
      </g>
    </g>
  </g>
</svg>
