<svg xmlns="http://www.w3.org/2000/svg" xmlns:xlink="http://www.w3.org/1999/xlink" width="38.223" height="38" viewBox="0 0 38.223 38">
  <defs>
    <radialGradient id="radial-gradient" cx="-0.107" cy="0.371" r="1.079" gradientTransform="translate(0)" gradientUnits="objectBoundingBox">
      <stop offset="0" stop-color="#e3f3fc"/>
      <stop offset="0.47" stop-color="#00bbf1"/>
      <stop offset="0.98" stop-color="#00466c"/>
    </radialGradient>
    <radialGradient id="radial-gradient-2" cx="0.499" cy="0.5" r="0.585" gradientTransform="translate(0.12) scale(0.759 1)" xlink:href="#radial-gradient"/>
    <radialGradient id="radial-gradient-3" cx="-0.616" cy="1.275" r="1.735" gradientTransform="translate(-0.101) scale(1.202 1)" xlink:href="#radial-gradient"/>
    <radialGradient id="radial-gradient-4" cx="-11.718" cy="0.757" r="6.523" gradientTransform="translate(-0.776) scale(2.551 1)" xlink:href="#radial-gradient"/>
    <radialGradient id="radial-gradient-5" cx="-0.025" cy="0.839" r="1.582" gradientTransform="translate(-0.138) scale(1.276 1)" xlink:href="#radial-gradient"/>
    <radialGradient id="radial-gradient-6" cx="-4.294" cy="2.499" r="4.923" gradientTransform="translate(-0.457) scale(1.915 1)" xlink:href="#radial-gradient"/>
  </defs>
  <g id="ic-planet" transform="translate(0.01)">
    <g id="Layer_2" data-name="Layer 2" transform="translate(-0.01 0)">
      <g id="Layer_1" data-name="Layer 1">
        <path id="Path_4060" data-name="Path 4060" d="M37.99,19A18.944,18.944,0,1,1,32.451,5.558,19,19,0,0,1,37.99,19Z" transform="translate(0.01 0)" fill="url(#radial-gradient)"/>
        <path id="Path_4061" data-name="Path 4061" d="M19.018,0A19,19,0,1,0,37.99,19,19,19,0,0,0,19.018,0ZM17.595,32.838A15.708,15.708,0,1,1,33.3,17.131,15.708,15.708,0,0,1,17.595,32.838Z" transform="translate(0.01 0)" opacity="0.1"/>
        <g id="Group_2374" data-name="Group 2374" transform="translate(1.897 0.223)">
          <path id="Path_4062" data-name="Path 4062" d="M1.953,10.015c.363-.419.949-.419,1.423-.67s.446-1.172,1-1.4.865,0,1.256-.167a1.283,1.283,0,0,0,.391-.7c0-.2.474-.363.67-.446s.614,0,.753-.167.67.307,1.144.167,0-.865-.363-1.116c-.67-.753.363-1.116.893-1.423a1.953,1.953,0,0,0,1.088-1.311c0-.391.725-.446,1-.586s.614-.614,1.06-.642,2.344.251,2.2-.781a4.882,4.882,0,0,1,0-.67A20.06,20.06,0,0,0,.67,10.6a6.194,6.194,0,0,0,1.283-.586Z" transform="translate(-0.67 -0.026)" fill="url(#radial-gradient-2)"/>
          <path id="Path_4063" data-name="Path 4063" d="M8.97.08a1.953,1.953,0,0,1,.391.977c0,.363-.335.419-.642.53a2.455,2.455,0,0,0-1.479,1.2h0a.837.837,0,0,0,.781.251,10.518,10.518,0,0,1,1.311,0,4.469,4.469,0,0,1,1.479.167,20.73,20.73,0,0,1,2.623.2,2.79,2.79,0,0,1,1.618,1.311,4.687,4.687,0,0,0,1.814,1.869A2.79,2.79,0,0,1,18.4,8.032a12.583,12.583,0,0,0,1.646,2.511,3.571,3.571,0,0,1,.53,1.144A2.4,2.4,0,0,1,20.269,13h0l-.753-.223a.977.977,0,0,1-.279.67h0a1.06,1.06,0,0,1,.2.419c0,.2.139.446,0,.642a1.237,1.237,0,0,0,.223,1.088c.223.223.307.642.474.67s.363.335.67-.419,0-.614.307-.781.586.167.474.53-.223.446,0,.7a1.562,1.562,0,0,1,0,1.256c-.2.279-.446.893-.223,1.228s0,.586-.167.753-.474.7-.391.921.223.586.446.67.642.223.893,0,.391-.725.809-.67.865-.5,1.228-.977.167-1.088.67-1.367A19.251,19.251,0,0,0,8.97.08Z" transform="translate(11.09 -0.08)" fill="url(#radial-gradient-3)"/>
          <path id="Path_4064" data-name="Path 4064" d="M13.743,8.743a2.288,2.288,0,0,1-.837,1.228c-.2,0-.2.642-.279,1.116a5.943,5.943,0,0,0,.335,2.79,17.912,17.912,0,0,0,1.869-5.72A1.048,1.048,0,0,0,13.743,8.743Z" transform="translate(20.658 14.358)" fill="url(#radial-gradient-4)"/>
          <path id="Path_4065" data-name="Path 4065" d="M21.085,17.362c-.279-.474-.753-.474-.642-.893a.921.921,0,0,0-.223-.921c-.167-.139-.251-.865-.614-.307a2.79,2.79,0,0,1-.753.921c-.2,0-.14.279-.279.67s-.725.586-.893.67,0-.139,0-.614v-.977c0-.419.14-.2-.363-.725s-.893-.419-.7-.921a1.59,1.59,0,0,1,.725-.837c.223,0,1.2-.977,1.674-.781a1.451,1.451,0,0,0,1.228,0c.223,0,.837-.167.7-.558a.725.725,0,0,0-.725-.558.976.976,0,0,1-.781-.5c0-.251,0-.279-.307-.725a2.929,2.929,0,0,1-.614-.893,4.938,4.938,0,0,1-.307-1.674c0-.977.223-1.06,0-1.256s-.167-.614,0-.949.614-.558.307-.977,0-.446-.251-.781l-.335-.251a2.79,2.79,0,0,1-.391-.335.865.865,0,0,0-.558-.223,8.091,8.091,0,0,1-1.423-.2c-.363,0-.865.419-1.228.474s-.586,0-.391.5,0,.67.223.921a1.367,1.367,0,0,1,.251,1.144c0,.223-1.507.753-1.758,1.283s-.419.7-.67.753a1.59,1.59,0,0,0-.865.781c0,.307,0,.753,0,.837a1.367,1.367,0,0,1-.865.586c-.363.167-1.423.5-1.646.642a3.264,3.264,0,0,0-1.4.781c-.446.53-.753.14-1.088,1.088s-.809.781-.614,1.283.558,1.981.223,2.427A13,13,0,0,0,4.6,18.087a9.821,9.821,0,0,1-.391,1.674,2.79,2.79,0,0,0-.586,1.032A2.511,2.511,0,0,0,4.039,22.1a4.408,4.408,0,0,1,.837,1.451,3.683,3.683,0,0,0,1.4,1.59c.67.446.725.837,1.2.809s.335-.223,0-.642,0-.53-.446-1.088-.335-.167-.446-.809a1.674,1.674,0,0,1,.251-1.507l.809-1.172A2.79,2.79,0,0,1,9.7,19.873c1.032,0,.335.586,1.618.642s1.4,1.283,2.79.921,1.172-.977,1.73-1.283,2.12,2.26,3.209,1.869.725.307,1.535-.558,1.4-1.088,1.144-1.953a9.932,9.932,0,0,0-.642-2.148Z" transform="translate(4.611 4.735)" fill="url(#radial-gradient-5)"/>
          <path id="Path_4066" data-name="Path 4066" d="M12.516,5.575a5.162,5.162,0,0,0-.335-1.73A1.507,1.507,0,0,0,11.01,3.12a2.148,2.148,0,0,0-1.4.893.7.7,0,0,0-.139.7c0,.167.67.5.614.7-.307.809.725,1.535.363,2.316,0,.223-.307.279-.446.474a2.065,2.065,0,0,0,0,1.814c0,.2.419.67.725.53s0-.419.167-.586a5.58,5.58,0,0,1,1.814-2.093,1.786,1.786,0,0,0,.614-.725,1.762,1.762,0,0,0-.391-1.06A2.79,2.79,0,0,1,12.516,5.575Z" transform="translate(15.021 5.362)" fill="url(#radial-gradient-6)"/>
        </g>
        <path id="Path_4067" data-name="Path 4067" d="M1.483,9.708c.363-.446.949-.419,1.451-.67s.446-1.144.977-1.451.865,0,1.283,0a1.256,1.256,0,0,0,.391-.725c0-.2.474-.363.67-.446s.809-.112.809-.307.67.307,1.144.167,0-.865-.363-1.116c-.67-.781.391-1.144.921-1.451A2.065,2.065,0,0,0,9.853,2.37c0-.391.725-.446,1-.586s.614-.614,1.088-.67,2.372.279,2.2-.781V.11A19.112,19.112,0,0,0,.73,10.21a2.427,2.427,0,0,0,.753-.5Z" transform="translate(1.335 0.197)" fill="#b7d333"/>
        <path id="Path_4068" data-name="Path 4068" d="M8.99.08c.335.167.335.307.335.53s-.223.419-.558.53A2.539,2.539,0,0,0,7.26,2.368h0a.809.809,0,0,0,.837.279H9.325a4.989,4.989,0,0,1,1.479.167c.5.167,1.786,0,2.79.2a2.93,2.93,0,0,1,1.618,1.339,4.827,4.827,0,0,0,1.841,1.9,2.79,2.79,0,0,1,1.562,1.479,13.95,13.95,0,0,0,1.674,2.567,3.348,3.348,0,0,1,.558,1.144,2.79,2.79,0,0,1-.307,1.311h0a2.344,2.344,0,0,1-.753-.223.949.949,0,0,1-.307.7h0a1.06,1.06,0,0,1,.223.446v.642c0,.2-.139.893.2,1.116s.335.642.5.7.363.335.67-.446,0-.642.335-.781.586.167.474.53-.223.446,0,.7a1.618,1.618,0,0,1,0,1.283,1.367,1.367,0,0,0-.251,1.256c.223.335,0,.586-.167.753s-.474.725-.391.949a1.283,1.283,0,0,0,.474.67c.223,0,.642.223.893,0s.391-.725.809-.67.893-.5,1.256-.977.2-1.116.7-1.4A19.028,19.028,0,0,0,8.99.08Z" transform="translate(13.023 0.143)" fill="#b7d333"/>
        <path id="Path_4069" data-name="Path 4069" d="M13.859,8.75a2.567,2.567,0,0,1-.865,1.256c-.2,0-.223.614-.279,1.116a24.746,24.746,0,0,0,0,2.79h0a18.944,18.944,0,0,0,2.12-5.831C14.7,8.108,14,8.247,13.859,8.75Z" transform="translate(22.718 14.463)" fill="#b7d333"/>
        <path id="Path_4070" data-name="Path 4070" d="M21.284,17.417c-.307-.474-.753-.446-.67-.865a1.032,1.032,0,0,0-.2-.977c-.2,0-.251-.865-.642-.279a3.181,3.181,0,0,1-.753.921c-.167,0,0,.279-.279.7a1.643,1.643,0,0,1-.921.7c-.167,0,0,0,0-.614v-.977c0-.419,0-.2-.391-.753s-1.2-.446-.921-.977a1.339,1.339,0,0,1,.753-.837c.223,0,1.2-1,1.7-.809a1.507,1.507,0,0,0,1.256,0c.223-.139.809-.167.7-.558A.725.725,0,0,0,20.2,11.5c-.363,0-.781-.279-.809-.5s0-.279-.307-.725a4.743,4.743,0,0,1-.642-.893,4.966,4.966,0,0,1-.279-1.73c0-.977.2-1.06,0-1.283a.844.844,0,0,1,0-.921c.167-.307.642-.586.335-1s0-.446-.279-.781l-.335-.279a2.79,2.79,0,0,1-.391-.335.67.67,0,0,0-.558-.223,8.37,8.37,0,0,1-1.451-.2c-.363,0-.865.419-1.256.474s-.781.028-.586.558,0,.67.223.949a1.367,1.367,0,0,1,.251,1.144c0,.251-1.535.781-1.758,1.311s-.446.7-.7.753a1.59,1.59,0,0,0-1,.781v.865a1.311,1.311,0,0,1-.53.5c-.363.2-1.423.53-1.674.67a3.488,3.488,0,0,0-1.423.781c-.446.558-.753.167-1.088,1.116s-.837.809-.614,1.311.558,2.009.223,2.455a11.16,11.16,0,0,0-1.172,1.841c-.167.419-.167,1.367-.391,1.674a2.4,2.4,0,0,0-.586,1.06,2.316,2.316,0,0,0,.419,1.339,4.52,4.52,0,0,1,.837,1.479,3.822,3.822,0,0,0,1.423,1.618c.67.446.725.837,1.228.809s.335-.223,0-.67,0-.5-.446-1.088-.335-.167-.446-.809a1.73,1.73,0,0,1,.251-1.535c.335-.5.642-.865.809-1.2a2.985,2.985,0,0,1,2.093-.865c1.032,0,.335.614,1.646.642s1.423,1.311,2.79.949,1.311-.977,1.814-1.283,2.148,2.288,3.264,1.9.725.307,1.562-.558,1.423-1.116,1.144-1.981a10.6,10.6,0,0,0-.5-2.2Z" transform="translate(6.114 4.708)" fill="#b7d333"/>
        <path id="Path_4071" data-name="Path 4071" d="M12.572,5.351a5.329,5.329,0,0,0-.363-1.758,1.339,1.339,0,0,0-1.283-.67,2.065,2.065,0,0,0-1.4.893.67.67,0,0,0-.167.7c0,.167.7.5.614.725-.307.809.753,1.562.391,2.344,0,.223-.335.279-.446.474a1.953,1.953,0,0,0,0,1.841c0,.223.418.67.725.558s0-.446.167-.614a5.887,5.887,0,0,1,1.841-2.12A1.786,1.786,0,0,0,13.269,7a1.914,1.914,0,0,0-.391-1.088A2.79,2.79,0,0,1,12.572,5.351Z" transform="translate(16.723 5.223)" fill="#b7d333"/>
        <g id="Group_2375" data-name="Group 2375" transform="translate(2.065 0.251)">
          <path id="Path_4072" data-name="Path 4072" d="M1.762,8.251a4.3,4.3,0,0,0,.921-1.367A6.278,6.278,0,0,1,3.66,5.21,10.407,10.407,0,0,1,5.278,3.9,21.678,21.678,0,0,0,7.342,2.392a8.788,8.788,0,0,0,.614-.809A7.617,7.617,0,0,1,8.6.83,19.14,19.14,0,0,0,.73,8.921l.446-.2Z" transform="translate(-0.73 1.235)" fill="#b7d333"/>
          <path id="Path_4073" data-name="Path 4073" d="M21.768,20.876a.7.7,0,0,1-.418-.753,1.367,1.367,0,0,1,.474-.949c.5-.419,0-1.116.167-1.674s.67-1.283.5-2.037a10.016,10.016,0,0,0-.865-1.674,5.05,5.05,0,0,0-1.116,1.2h0s-.753-1.339,0-1.7a.739.739,0,0,0,.67-.251,1,1,0,0,0,.5-.7,8.343,8.343,0,0,1,.251-1.367.809.809,0,0,1-.949-.446A11.551,11.551,0,0,1,19.955,8.6a5.022,5.022,0,0,1-.446-1.06,5.384,5.384,0,0,0-.307-.949c0-.167-.363-.167-.558-.251a2.79,2.79,0,0,1-.837-.391c-.335-.223-.642-.474-.949-.725a10.406,10.406,0,0,1-.837-.725c-.5-.586-.893-1.451-1.618-1.758a6.64,6.64,0,0,0-2.678-.112,6.473,6.473,0,0,1-2.4-.53h0S10.134.955,9.715.62,9.325.257,9.074.09h0c.251.14.251.279.251.5s-.223.419-.558.53A2.539,2.539,0,0,0,7.26,2.35h0a.809.809,0,0,0,.837.279H9.325A4.989,4.989,0,0,1,10.8,2.8c.5.167,1.786,0,2.79.2a2.93,2.93,0,0,1,1.618,1.339,4.827,4.827,0,0,0,1.841,1.9,2.79,2.79,0,0,1,1.562,1.479,13.95,13.95,0,0,0,1.674,2.567,3.348,3.348,0,0,1,.558,1.144,2.79,2.79,0,0,1-.307,1.311h0a2.344,2.344,0,0,1-.753-.223.949.949,0,0,1-.307.7h0a1.06,1.06,0,0,1,.223.446v.642c0,.2-.139.893.2,1.116s.335.642.5.7.363.335.67-.446,0-.642.335-.781.586.167.474.53-.223.446,0,.7a1.618,1.618,0,0,1,0,1.283,1.367,1.367,0,0,0-.251,1.256c.223.335,0,.586-.167.753s-.474.725-.391.949a1.283,1.283,0,0,0,.474.67c.223,0,.642.223.893,0l.251-.307a.725.725,0,0,1-.921.167Z" transform="translate(10.959 -0.09)" fill="#b7d333"/>
          <path id="Path_4074" data-name="Path 4074" d="M13.105,12.8c.167-.614-.474-1.311,0-1.869a2.455,2.455,0,0,1,.7-.5,1.562,1.562,0,0,0,.753-.893l.167-.307a7.534,7.534,0,0,1,.223-1.088c.056-.363-.949.2-1.088.7a2.567,2.567,0,0,1-.865,1.256c-.2,0-.223.614-.279,1.116a18.748,18.748,0,0,0,0,2.4A3.519,3.519,0,0,0,13.105,12.8Z" transform="translate(20.654 14.12)" fill="#b7d333"/>
          <path id="Path_4075" data-name="Path 4075" d="M6.274,25.118c-.251-.251-.781-.67-.781-1.088v-.446a1.032,1.032,0,0,0-.419-.614,8.788,8.788,0,0,1-.614-.809,1.562,1.562,0,0,1-.419-1.423A9.877,9.877,0,0,1,5.074,18.98c.279-.642.167-1.4.53-2.009s1-.949,1.172-1.562-.307-1.2-.391-1.841A1.841,1.841,0,0,1,7.5,11.559a3.711,3.711,0,0,0,.837-.5,3.4,3.4,0,0,1,.474-.419,5.72,5.72,0,0,1,1.535-.446,2.623,2.623,0,0,1,1.228,0h.5a1.535,1.535,0,0,0,0-.781c-.167-.614-.363-.949.223-1.367s1.283-1.59,2.2-2.065a1.311,1.311,0,0,1,.474,0h.251c.251,0,0-.53,0-.642s-.5-.446-.335-.7.53-.391.223-.725L14.5,3.44a.391.391,0,0,1,0-.474,1.172,1.172,0,0,1,.865-.2,2.4,2.4,0,0,0,.781,0h-.781c-.363,0-.865.419-1.256.474s-.67-.335-.474.2,0,.67.223.949a1.367,1.367,0,0,1,.251,1.144c0,.251-1.535.781-1.758,1.311s-.446.7-.7.753a1.59,1.59,0,0,0-1,.781v.865a1.311,1.311,0,0,1-.53.5c-.363.2-1.423.53-1.674.67a3.488,3.488,0,0,0-1.423.781c-.446.558-.753.167-1.088,1.116s-.837.809-.614,1.311.558,2.009.223,2.455A11.16,11.16,0,0,0,4.377,17.92c-.167.419-.167,1.367-.391,1.674a2.4,2.4,0,0,0-.586,1.06,2.316,2.316,0,0,0,.419,1.339,4.52,4.52,0,0,1,.837,1.479A3.822,3.822,0,0,0,6.078,25.09a3.571,3.571,0,0,1,.725.642,4.241,4.241,0,0,0-.53-.614Z" transform="translate(4.049 4.679)" fill="#b7d333"/>
          <path id="Path_4076" data-name="Path 4076" d="M13.7,10.934c-.5,0-.949.363-1.423,0a4.464,4.464,0,0,1-1.172-1.311.7.7,0,0,0-.363-.53A3.99,3.99,0,0,0,9.8,8.7c-.921-.251-.893.5-1.228,1.088a1.256,1.256,0,0,1-1.032.642H6.7a1.423,1.423,0,0,0,1.507.446C9.49,10.515,9.518,9.9,10.02,9.595s2.148,2.288,3.264,1.9.809,0,1.088-.14a1.06,1.06,0,0,0-.67-.419Z" transform="translate(9.956 15.236)" fill="#b7d333"/>
          <path id="Path_4077" data-name="Path 4077" d="M10.513,9.911A2.009,2.009,0,0,1,10.178,8.8a.865.865,0,0,1,.223-.809c.251-.279.837-.725.642-1.172a3.962,3.962,0,0,1-.335-1.507,2.12,2.12,0,0,0-.279-1.088c0-.14-.251-.251-.335-.391a.865.865,0,0,1,0-.809,2.148,2.148,0,0,0-.614.614.67.67,0,0,0-.167.7c0,.167.7.5.614.725-.307.809.753,1.562.391,2.344,0,.223-.335.279-.446.474a1.953,1.953,0,0,0,0,1.841c0,.223.419.67.725.558Z" transform="translate(14.569 5.155)" fill="#b7d333"/>
        </g>
      </g>
    </g>
  </g>
</svg>
