<svg xmlns="http://www.w3.org/2000/svg" xmlns:xlink="http://www.w3.org/1999/xlink" width="112" height="112" viewBox="0 0 112 112">
  <defs>
    <clipPath id="clip-path">
      <circle id="Ellipse_93" data-name="Ellipse 93" cx="56" cy="56" r="56" fill="#fff"/>
    </clipPath>
  </defs>
  <g id="ic-turtle" transform="translate(-453 -977)">
    <circle id="Ellipse_26" data-name="Ellipse 26" cx="56" cy="56" r="56" transform="translate(453 977)" fill="#c6eaff"/>
    <g id="Mask_Group_16" data-name="Mask Group 16" transform="translate(453 977)" clip-path="url(#clip-path)">
      <g id="Group_2318" data-name="Group 2318" transform="translate(20.348 20.347)">
        <g id="Group_2317" data-name="Group 2317" transform="translate(0 0.001)">
          <path id="Path_3855" data-name="Path 3855" d="M302.887,18.087a11.855,11.855,0,0,1-3.276,1.614c-1.429.446-2.84.943-4.224,1.5a47,47,0,0,0-7.2,3.612c-4.708,2.91-8.4,5.491-8.4,5.491l-3.719-5.309a62.179,62.179,0,0,0,4.593-4.3,23.816,23.816,0,0,0,4.062-5.669,26.163,26.163,0,0,0,2.258-6.19,11.345,11.345,0,0,1,4.749-6.681c4.959-3.471,11.86-2.521,15.261,1.2l.422,1.837.993.356C310.152,9.788,307.291,15,302.887,18.087Z" transform="translate(-237.623 -0.001)" fill="#7dce5c"/>
          <path id="Path_3856" data-name="Path 3856" d="M295.387,114.078a47,47,0,0,0-7.2,3.612c-4.708,2.91-8.4,5.491-8.4,5.491l-3.719-5.309a62.181,62.181,0,0,0,4.593-4.3,23.816,23.816,0,0,0,4.062-5.669C288.281,108.149,293.149,109.4,295.387,114.078Z" transform="translate(-237.623 -92.878)" fill="#59c230"/>
          <path id="Path_3857" data-name="Path 3857" d="M16.131,304.538A12.974,12.974,0,0,1,2.439,309.76l-.779-.184a2.152,2.152,0,0,1-.943-3.7,36.249,36.249,0,0,0,5.33-5.781,45.057,45.057,0,0,0,5.06-10.967l8.843,6.208A24.065,24.065,0,0,1,16.131,304.538Z" transform="translate(0 -248.866)" fill="#48a024"/>
          <path id="Path_3858" data-name="Path 3858" d="M203.015,185.863c0,.015,2.981,15.085-11.137,22.707a2.152,2.152,0,0,1-3.175-1.888,98.417,98.417,0,0,0-1.279-15.9A102.8,102.8,0,0,0,181.943,172l13.835-2.422A38.406,38.406,0,0,1,203.015,185.863Z" transform="translate(-156.605 -145.965)" fill="#59c230"/>
          <path id="Path_3859" data-name="Path 3859" d="M96.648,205.578l-.222.156c-11.254,7.859-22.58,9.182-27.177,4.485l-2.474-3.544,11.883-8.3,28.86-20.154,2.475,3.543C112.8,187.661,107.744,197.744,96.648,205.578Z" transform="translate(-57.476 -153.403)" fill="#c76d33"/>
          <path id="Path_3860" data-name="Path 3860" d="M96.648,330.141l-.222.156c-11.254,7.859-22.58,9.182-27.177,4.485l-2.474-3.544,11.883-8.3C81.984,327.064,87.52,330.168,96.648,330.141Z" transform="translate(-57.476 -277.965)" fill="#a05423"/>
          <path id="Path_3861" data-name="Path 3861" d="M268.573,202.324a2.153,2.153,0,0,1-3.174-1.89c0-1.141-.027-2.5-.086-4.015l2.149-4.016-2.731-3.619c-.232-2.009-.534-3.911-.8-5.28l1.007-2.151c-1.668-.879-1.634-.855-1.649-.87a105.717,105.717,0,0,0-4.649-14.729l13.835-2.421a38.4,38.4,0,0,1,7.237,16.281c0,.014,2.98,15.086-11.137,22.708Z" transform="translate(-222.619 -140.588)" fill="#7dce5c"/>
          <path id="Path_3862" data-name="Path 3862" d="M309.917,345.986a3.119,3.119,0,0,1-.723,2.409,8.025,8.025,0,0,1-5.175,2.779c-.348.043-.7.072-1.043.091-.091-2.285-.262-4.911-.58-7.635a26.6,26.6,0,0,0,4.026-.372A3.133,3.133,0,0,1,309.917,345.986Z" transform="translate(-260.284 -295.434)" fill="#f1e12b"/>
          <path id="Path_3863" data-name="Path 3863" d="M292.785,253.028a3.119,3.119,0,0,1-.722,2.41,8.033,8.033,0,0,1-5.175,2.779,17.532,17.532,0,0,1-2.1.121c-.526-2.758-1.213-5.458-1.915-7.887a18.611,18.611,0,0,0,6.415-.15A3.132,3.132,0,0,1,292.785,253.028Z" transform="translate(-243.482 -215.422)" fill="#f1e12b"/>
          <path id="Path_3864" data-name="Path 3864" d="M57.63,363.5a12.975,12.975,0,0,1-11.08,9.59l-.795.093a2.152,2.152,0,0,1-2.151-3.151c.344-.643.7-1.344,1.052-2.083l2.781-3.116-.529-3.185a47.509,47.509,0,0,0,.732-10.906l10.433,2.809A24.062,24.062,0,0,1,57.63,363.5Z" transform="translate(-37.309 -301.892)" fill="#59c230"/>
          <path id="Path_3865" data-name="Path 3865" d="M59.686,432.734c-.615,1.2-3.4,2.936-6.569,2.655-.121-.01-.241-.022-.362-.038a28.709,28.709,0,0,0,2.251-6.3l2.769.238A2.378,2.378,0,0,1,59.686,432.734Z" transform="translate(-45.408 -369.298)" fill="#f3c23b"/>
          <path id="Path_3866" data-name="Path 3866" d="M87.331,137.666c-4.4,9.986-14.274,19.29-25.2,24.936l-4.561.2-1.418,2.474h0a43.005,43.005,0,0,1-12.42,2.835,2.149,2.149,0,0,1-2.24-1.682A23.661,23.661,0,0,1,41,162.962l2.439-3.2-1.369-5.488a26.687,26.687,0,0,1,3.442-6.992L51.649,143l15.528-10.837a26.748,26.748,0,0,1,7.732-.822l3.281,2.781,5.241-.791a23.288,23.288,0,0,1,3.091,1.656A2.149,2.149,0,0,1,87.331,137.666Z" transform="translate(-35.288 -113.027)" fill="#df8a57"/>
          <path id="Path_3867" data-name="Path 3867" d="M62.126,234.815a47.518,47.518,0,0,1-18.4,5.513,2.149,2.149,0,0,1-2.24-1.682A23.663,23.663,0,0,1,41,235.175l2.439-3.2-1.369-5.488a26.687,26.687,0,0,1,3.442-6.992l6.14-4.286C51.789,221.046,53.476,230.328,62.126,234.815Z" transform="translate(-35.287 -185.24)" fill="#c76d33"/>
          <path id="Path_3868" data-name="Path 3868" d="M95.066,137.392l-2.122,5.074a8.607,8.607,0,0,1-2.992,3.685l-6.58,4.594a8.63,8.63,0,0,1-4.49,1.54l-5.484.231,3.934-2.455,2.234-4.312A39.668,39.668,0,0,1,95.066,137.392Z" transform="translate(-63.176 -118.258)" fill="#c76d33"/>
          <path id="Path_3869" data-name="Path 3869" d="M79.866,203.825a8.643,8.643,0,0,1-.983.108l-5.484.231a35.4,35.4,0,0,1,6.168-6.767A34.078,34.078,0,0,0,79.866,203.825Z" transform="translate(-63.177 -169.907)" fill="#a05423"/>
          <path id="Path_3870" data-name="Path 3870" d="M174.89,231.3a2.153,2.153,0,0,1,.316,3.282,27.287,27.287,0,0,1-8.348,5.83,2.153,2.153,0,0,1-2.972-1.427l-1.126-4.394a2.16,2.16,0,0,1,1.338-2.551,11.8,11.8,0,0,0,4.2-2.932,2.159,2.159,0,0,1,2.855-.378Z" transform="translate(-140.035 -196.555)" fill="#c76d33"/>
          <path id="Path_3871" data-name="Path 3871" d="M47.256,292.8l1.952,4.1a2.152,2.152,0,0,1-1.367,3,27.387,27.387,0,0,1-7.151,1.014,23.475,23.475,0,0,1,1.07-8.687,11.089,11.089,0,0,0,2.835-.522A2.16,2.16,0,0,1,47.256,292.8Z" transform="translate(-34.98 -250.971)" fill="#a05423"/>
          <path id="Path_3872" data-name="Path 3872" d="M280.919,133.483a27.345,27.345,0,0,1-3.414,6.364,2.152,2.152,0,0,1-3.287.25l-3.173-3.243a2.159,2.159,0,0,1-.115-2.877,11.077,11.077,0,0,0,1.466-2.484A23.531,23.531,0,0,1,280.919,133.483Z" transform="translate(-232.774 -113.181)" fill="#c76d33"/>
          <g id="Group_2316" data-name="Group 2316" transform="translate(55.749 3.356)">
            <g id="Group_2313" data-name="Group 2313" transform="translate(0 1.426)">
              <path id="Path_3873" data-name="Path 3873" d="M407.694,62.946c1.051,1.515.361,3.812-1.541,5.132s-4.3,1.161-5.346-.354-.361-3.812,1.542-5.132S406.643,61.432,407.694,62.946Z" transform="translate(-400.314 -57.888)" fill="#fff"/>
              <g id="Group_2312" data-name="Group 2312" transform="translate(0.8)">
                <path id="Path_3874" data-name="Path 3874" d="M407.493,39.625a1.075,1.075,0,0,1-.885-.463,3.071,3.071,0,0,1,5.047-3.5,1.076,1.076,0,1,1-1.769,1.227.919.919,0,1,0-1.51,1.047A1.078,1.078,0,0,1,407.493,39.625Z" transform="translate(-406.06 -34.342)" fill="#495560"/>
              </g>
            </g>
            <g id="Group_2315" data-name="Group 2315" transform="translate(9.347)">
              <g id="Group_2314" data-name="Group 2314">
                <path id="Path_3875" data-name="Path 3875" d="M473.123,26.292a4.206,4.206,0,0,1-4.871,2.4,1.075,1.075,0,1,1,.518-2.088,2.057,2.057,0,0,0,2.541-1.779,1.065,1.065,0,0,1,.4-.725A7.394,7.394,0,0,1,473.123,26.292Z" transform="translate(-467.435 -24.1)" fill="#495560"/>
              </g>
            </g>
          </g>
        </g>
      </g>
    </g>
  </g>
</svg>
