<svg xmlns="http://www.w3.org/2000/svg" xmlns:xlink="http://www.w3.org/1999/xlink" width="112" height="112" viewBox="0 0 112 112">
  <defs>
    <radialGradient id="radial-gradient" cx="0.256" cy="0.035" r="1.302" gradientTransform="translate(0)" gradientUnits="objectBoundingBox">
      <stop offset="0" stop-color="#e3f3fc"/>
      <stop offset="0.42" stop-color="#e26343"/>
      <stop offset="0.76" stop-color="#cf181f"/>
    </radialGradient>
    <radialGradient id="radial-gradient-2" cx="-11.234" cy="14.423" r="36.358" gradientTransform="translate(-0.081) scale(1.163 1)" xlink:href="#radial-gradient"/>
    <radialGradient id="radial-gradient-3" cx="-3.658" cy="5.01" r="8.485" gradientTransform="translate(-0.211) scale(1.422 1)" xlink:href="#radial-gradient"/>
  </defs>
  <g id="ic-venus" transform="translate(-258 -1305)">
    <path id="Path_4191" data-name="Path 4191" d="M56,0A56,56,0,1,1,0,56,56,56,0,0,1,56,0Z" transform="translate(258 1305)" fill="#fbfbfb"/>
    <g id="venus" transform="translate(286.714 1333.754)">
      <g id="Layer_2" data-name="Layer 2" transform="translate(0 0)">
        <g id="Layer_1" data-name="Layer 1">
          <path id="Path_4172" data-name="Path 4172" d="M54.482,27.246A27.166,27.166,0,1,1,46.54,7.971a27.246,27.246,0,0,1,7.943,19.275Z" transform="translate(0.01 0)" fill="url(#radial-gradient)"/>
          <path id="Path_4173" data-name="Path 4173" d="M11.937,5.426h-.2c-.32.36-.48.88,0,1.16s.64.24.88,0a1.16,1.16,0,0,0,0-.96C12.537,5.146,12.217,5.266,11.937,5.426Z" transform="translate(34.353 15.859)" fill="url(#radial-gradient-2)"/>
          <path id="Path_4174" data-name="Path 4174" d="M47.05,21.044c0-1.12,2.08-1.2,2.841-1.28s1.84,0,2.8,0h.88a27.045,27.045,0,0,0-2-9.722c-1.56.48-3.561,1.04-4.561,0s-.48-2.12-.2-3.081.4-2.521.76-3.681a6.361,6.361,0,0,0-.8-.96l-.24.4a5.441,5.441,0,0,0-.32,2.521c0,1.72,0,3.441-1.32,4.6-.44.4-1,.68-1.4,1.12a2.8,2.8,0,0,0,0,2.481,4,4,0,0,1,0,2.881,3.681,3.681,0,0,1-3.041,2.721c-1.44.24-2.921,0-4.361.24a2.721,2.721,0,0,0-2,1.12c-.56.88,0,1.76-.52,2.721-.52,1.72-3.241,2.561-4.841,2.641a17.924,17.924,0,0,0-5.081.24,8,8,0,0,0-2.721,1.56,35.448,35.448,0,0,1-4,3.481,6.962,6.962,0,0,1-5.361.72A30.486,30.486,0,0,1,6,29.046a7.322,7.322,0,0,0-5.681-.56,26.926,26.926,0,0,0,12,15.2h.52a5.481,5.481,0,0,0,2.881-1.12,4.281,4.281,0,0,0,1.24-3.321,4,4,0,0,1,.48-2.2c1.08-1.68,4-2.12,5.641-2.6s3.4-.28,4.961-.92,1.72-3.161,2.561-4.8a4.6,4.6,0,0,1,1.64-1.76,11.522,11.522,0,0,0,2.8-2.561,6.361,6.361,0,0,1,2.521-2.2c1.2-.56,2.481-.76,3.641-1.36A4.2,4.2,0,0,1,43.49,20a2.561,2.561,0,0,1,1.6,1.28,10.8,10.8,0,0,1,.56,1.6c.44,1.08,1.44,1.16,2.441,1.12a3.121,3.121,0,0,1,2.481.8c.6.56,1.12,1.28,1.92,1.44h.32a6.918,6.918,0,0,1,.28-1.24c-.6-.4-1.08-.92-1.68-1.28S47.05,23.2,47.05,21.044Zm-32.287,20.4h-.4c-.88.28-1.88,0-1.84-.76s1.32-2.481,2.361-1.72a.72.72,0,0,1,.28,0,.24.24,0,0,1,.2,0,1.36,1.36,0,0,1,.36.56,1.24,1.24,0,0,1-1.04,2.04Zm.32-4c-.92,0-2.681-1.08-2.08-2.32a2,2,0,0,1,1.8-.96,4.881,4.881,0,0,1,1.32,0h.52a1.36,1.36,0,0,1,.96,1.04,2.135,2.135,0,0,1-2.561,2.28Zm7.042-8.4c-.36.28-1.64.84-1.76,0a1.76,1.76,0,0,1,.88-1.32h0c.32-.28.64-.4.96,0A1.04,1.04,0,0,1,22.125,29.046Zm6.561,2.881a4,4,0,0,1-4,.88c-1.32-.48-.4-2,.44-2.4a6.281,6.281,0,0,1,1.92-.6h0s1.48,0,1.76.56a1.76,1.76,0,0,1-.12,1.64ZM46.05,15.683a1.04,1.04,0,0,1-1.56-.28,1.44,1.44,0,0,1,.92-1.88h.24a.68.68,0,0,1,.76.52,1.44,1.44,0,0,1-.36,1.72Z" transform="translate(1 6.962)" fill="#ffebcc" opacity="0.3"/>
          <path id="Path_4175" data-name="Path 4175" d="M12.811,8.971a7.162,7.162,0,0,0,3.641-.36A26.886,26.886,0,0,0,12.931,2.65a9.866,9.866,0,0,1-.52,2.761C12.131,6.371,11.331,8.531,12.811,8.971Z" transform="translate(35.88 7.952)" fill="url(#radial-gradient-3)"/>
          <path id="Path_4176" data-name="Path 4176" d="M7.4,12.718A3.281,3.281,0,0,0,9.684,11.6a4,4,0,0,1,.88-.96c.92-.72,2.2,0,3.2,0s.72-1.08.8-1.8v-.52a4.321,4.321,0,0,0-2.24-.56,4,4,0,0,1-1.72,0A5.281,5.281,0,0,0,8,7.037a2.16,2.16,0,0,1-2.4-.76c-.96-.84-2.281-.36-3.4-.28A2,2,0,0,1,1,6H.282A24,24,0,0,0,0,9.877a24,24,0,0,0,.28,4l1.28-.32a28.287,28.287,0,0,1,5.2-.48Z" transform="translate(0.038 17.368)" fill="#ffebcc" opacity="0.3"/>
          <path id="Path_4177" data-name="Path 4177" d="M10.5,5h-.64a6.427,6.427,0,0,0-1.84.2c-.84.2-1.36.4-1.64,1v.4a2,2,0,0,0,1.72.64,2.2,2.2,0,0,1,.72,0c.32,0,.44,0,.52-.28a.64.64,0,0,1,.44-.64,2.2,2.2,0,0,0,1.32-.28v-.6C11.1,5.12,10.861,5,10.5,5Z" transform="translate(19.186 15.004)" fill="#ffd191" opacity="0.3"/>
          <path id="Path_4178" data-name="Path 4178" d="M6.583,6h0a2.4,2.4,0,0,0-1.44.48c-.24,0-.8.48-.36.72a3.161,3.161,0,0,0,1.48.4A1.92,1.92,0,0,0,8.384,6Z" transform="translate(13.901 18.005)" fill="#9b1b1d" opacity="0.5"/>
          <path id="Path_4179" data-name="Path 4179" d="M9.06,5.62a4.561,4.561,0,0,0-.6.92,3.281,3.281,0,0,0,4.321-3A6.8,6.8,0,0,0,9.06,5.62Z" transform="translate(25.427 10.623)" fill="#9b1b1d" opacity="0.5"/>
          <path id="Path_4180" data-name="Path 4180" d="M6.221,8.93h0a7.442,7.442,0,0,0-2.481.52.8.8,0,0,0-.32.48,2.241,2.241,0,0,0,.68.28,2.121,2.121,0,0,0,1.32,0c.24,0,1.68-.4,1.4-.8a1.72,1.72,0,0,0-.6-.48Z" transform="translate(10.303 26.798)" fill="#9b1b1d" opacity="0.5"/>
          <path id="Path_4181" data-name="Path 4181" d="M11.531,1.6a19.725,19.725,0,0,1,3.6,1.4,7.762,7.762,0,0,1,1.6.88l1.6,1.44c1.24,1,3.041,2.16,4.681,1.28s2.04-1.68,3.241-2.24A27.006,27.006,0,0,0,11.491,0,26.646,26.646,0,0,0,5.25.72a22.245,22.245,0,0,1,6.281.88Z" transform="translate(15.795 0)" fill="#ffd191" opacity="0.3"/>
          <path id="Path_4182" data-name="Path 4182" d="M7.133,5.84h-.72a5.521,5.521,0,0,0-1.08-.56,1.64,1.64,0,0,0-1.64.28.84.84,0,0,0,0,.44c0,.52.72.72,1.16.8a5.4,5.4,0,0,0,2.4,0,1.36,1.36,0,0,0,.48-.24A1.12,1.12,0,0,0,7.133,5.84Z" transform="translate(11.031 15.524)" fill="#9b1b1d" opacity="0.5"/>
          <path id="Path_4183" data-name="Path 4183" d="M9.331,12.06h-.2l-1.28.72a5.4,5.4,0,0,0-1.56,1.6,3,3,0,0,0,4-2.641l-.6.32Z" transform="translate(18.916 35.23)" fill="#9b1b1d" opacity="0.5"/>
          <path id="Path_4184" data-name="Path 4184" d="M27.276,0A27.246,27.246,0,1,0,54.482,27.246,27.246,27.246,0,0,0,27.276,0Zm-2.04,47.09A22.525,22.525,0,1,1,47.761,24.565,22.525,22.525,0,0,1,25.236,47.09Z" transform="translate(0.01 0)" opacity="0.1"/>
          <path id="Path_4186" data-name="Path 4186" d="M7.741,3.594a4.641,4.641,0,0,0-3.2,0,3.281,3.281,0,0,0-1.48.64c-.32.32-.96.8-.96,1.32s.8.84,1.08,1.16a1.4,1.4,0,0,0,1.24.52,2.681,2.681,0,0,0,1.28-.48,2.881,2.881,0,0,0,1.04-.68l.36-.52a8,8,0,0,1,.84-1.12.56.56,0,0,0-.2-.84Z" transform="translate(6.342 9.929)" fill="#6e0909" opacity="0.5"/>
          <path id="Path_4187" data-name="Path 4187" d="M5.02,3.973a.96.96,0,0,0-.72,0h0a.4.4,0,0,0,0,.4h0a.52.52,0,0,0,.32.32.8.8,0,0,0,.88-.36.4.4,0,0,0-.48-.36Z" transform="translate(12.784 11.711)" fill="#6e0909" opacity="0.5"/>
          <path id="Path_4188" data-name="Path 4188" d="M16.385,7.732c-.28-.48-2.24.24-2.561.44l-1.32.88a3.721,3.721,0,0,0-.8.4c-.64.4-1,1.08-1.64,1.48a2.761,2.761,0,0,0-1,.8c-.32.6,0,1.4.72,1.32s1.44-.6,2.321-.48a4.761,4.761,0,0,0,1.84,0c.92-.2,1.6-1.32,2-2.12a4,4,0,0,0,.24-1.64C16.185,8.372,16.625,8.132,16.385,7.732Z" transform="translate(26.865 22.715)" fill="#9b1b1d" opacity="0.5"/>
        </g>
      </g>
    </g>
  </g>
</svg>
