<svg xmlns="http://www.w3.org/2000/svg" xmlns:xlink="http://www.w3.org/1999/xlink" width="112" height="112" viewBox="0 0 112 112">
  <defs>
    <linearGradient id="linear-gradient" x1="0.034" y1="-41.396" x2="0.43" y2="-40.468" gradientUnits="objectBoundingBox">
      <stop offset="0.05" stop-color="#cf9d8b"/>
      <stop offset="0.2" stop-color="#efb072"/>
      <stop offset="0.46" stop-color="#c99080"/>
      <stop offset="0.5" stop-color="#cd9786"/>
      <stop offset="0.55" stop-color="#d6aa97"/>
      <stop offset="0.61" stop-color="#e6cab3"/>
      <stop offset="0.62" stop-color="#ead1b9"/>
      <stop offset="0.66" stop-color="#d8b69e"/>
      <stop offset="0.71" stop-color="#ba8870"/>
      <stop offset="0.77" stop-color="#a1624a"/>
      <stop offset="0.83" stop-color="#8d452d"/>
      <stop offset="0.89" stop-color="#7f3018"/>
      <stop offset="0.95" stop-color="#77230b"/>
      <stop offset="1" stop-color="#741f07"/>
    </linearGradient>
    <linearGradient id="linear-gradient-2" x1="0.402" y1="-37.835" x2="0.28" y2="-38.346" gradientUnits="objectBoundingBox">
      <stop offset="0" stop-color="#c5937b"/>
      <stop offset="0.02" stop-color="#c79882"/>
      <stop offset="0.29" stop-color="#e5e0df"/>
      <stop offset="1" stop-color="#8ca99c"/>
    </linearGradient>
  </defs>
  <g id="ic-saturn" transform="translate(-258 -1305)">
    <path id="Path_4194" data-name="Path 4194" d="M56,0A56,56,0,1,1,0,56,56,56,0,0,1,56,0Z" transform="translate(258 1305)" fill="#fbfbfb"/>
    <g id="Group_2425" data-name="Group 2425">
      <path id="Path_4158" data-name="Path 4158" d="M49.066,54.369a29.007,29.007,0,1,1,8.326-40.164,29.008,29.008,0,0,1-8.326,40.164Z" transform="translate(279.551 1331.543)" fill="url(#linear-gradient)"/>
      <path id="Path_4159" data-name="Path 4159" d="M48.927,21.182h-3.5a16.8,16.8,0,0,1-5.11-.744,30.878,30.878,0,0,1-4.8-2.4c-1.68-.936-3.383-1.847-5.039-2.855A41.915,41.915,0,0,1,15.505,1.34c-.96.192-1.9.432-2.855.72a24.76,24.76,0,0,0,6.67,10.053,53.7,53.7,0,0,0,17.851,12,73.155,73.155,0,0,0,9.741,3.143c1.056.264,2.183.552,3.311.72a28.311,28.311,0,0,0-1.3-6.79Z" transform="translate(291.471 1331.86)" fill="#ffdbb2" opacity="0.4"/>
      <path id="Path_4160" data-name="Path 4160" d="M19.927,7.471a59.289,59.289,0,0,0,4.8,3.6c1.392,1.008,2.615,2.207,3.983,3.239,4.487,3.455,10.269,6.478,16.075,5.71a28.168,28.168,0,0,0-2.951-5.806,28.936,28.936,0,0,0-26.632-13,30.135,30.135,0,0,0,4.727,6.262Z" transform="translate(295.039 1331.535)" fill="#ffdbb2" opacity="0.4"/>
      <path id="Path_4161" data-name="Path 4161" d="M14.891,10.17a27.9,27.9,0,0,0,6.142,6.43c1.584,1.248,3.215,2.4,4.8,3.623s3.119,2.4,4.8,3.479a47.675,47.675,0,0,0,9.429,4.8,83.976,83.976,0,0,0,12.98,3.407c0-.84.144-1.679.168-2.4L51.816,29.1c-2.735-.84-5.47-1.727-8.182-2.615a56.6,56.6,0,0,1-13.508-6.79,79.608,79.608,0,0,1-11.685-9.309A25.384,25.384,0,0,1,14.1,4.651,8.949,8.949,0,0,1,13.091,2.06c-.864.36-1.727.792-2.591,1.248a69.026,69.026,0,0,1,4.391,6.862Z" transform="translate(288.463 1332.867)" fill="#ffdbb2" opacity="0.4"/>
      <path id="Path_4162" data-name="Path 4162" d="M7.35,7.945a37.285,37.285,0,0,0,3.407,4.391c1.128,1.248,2.4,2.4,3.479,3.647a29.872,29.872,0,0,1,3.575,4.367,18.091,18.091,0,0,0,4.055,4.583,29.439,29.439,0,0,0,5.3,2.975c3.551,1.679,6.982,3.623,10.581,5.23a31.191,31.191,0,0,0,11.277,3.335c2.4,0,4.8-.168,7.2-.216a28.023,28.023,0,0,0,.96-2.711h-.312a17.2,17.2,0,0,1-5.039.96A25.649,25.649,0,0,1,41.9,31.338c-3.383-1.632-6.79-3.143-10.125-4.8a35.989,35.989,0,0,1-9.6-6.5A125.457,125.457,0,0,1,13.972,9.984,50.416,50.416,0,0,0,9.989,5.546c-.288-.288-.552-.6-.84-.936a32.1,32.1,0,0,0-2.4,2.711Z" transform="translate(283.215 1336.436)" fill="#ffdbb2" opacity="0.4"/>
      <path id="Path_4163" data-name="Path 4163" d="M8.5,18.045a38.748,38.748,0,0,0,3.359,5.35,25.1,25.1,0,0,0,3.863,3.791c1.44,1.152,2.927,2.183,4.439,3.239s2.951,2.183,4.487,3.239a59.407,59.407,0,0,0,8.781,5.11,39.421,39.421,0,0,0,15.763,4.2,26.39,26.39,0,0,0,2.567-2.015,17.035,17.035,0,0,1-5.278-.432A86.88,86.88,0,0,1,31.176,34a86.951,86.951,0,0,1-10.029-5.3,45.586,45.586,0,0,1-8.781-8.134,31.19,31.19,0,0,1-6.5-10.029A13.762,13.762,0,0,0,5.408,9a25.289,25.289,0,0,0-.888,2.807A62.117,62.117,0,0,1,8.5,18.045Z" transform="translate(280.094 1342.578)" fill="#ffdbb2" opacity="0.4"/>
      <path id="Path_4164" data-name="Path 4164" d="M36.544,40.518c-7.438-.456-13.916-4.631-19.674-9.021a28.792,28.792,0,0,1-4.583-4.127,32.054,32.054,0,0,1-3.671-5.206C6.961,19.308,5.594,16.285,4.13,13.31A29.069,29.069,0,0,0,42.207,40.638C40.263,40.614,38.392,40.638,36.544,40.518Z" transform="translate(279.549 1348.609)" fill="#ffdbb2" opacity="0.4"/>
      <path id="Path_4167" data-name="Path 4167" d="M79.683,59.973c2.975-4.055-2.063-13.244-12-23.585-.12.744-.288,1.488-.456,2.231,6.358,7.006,9.453,12.836,7.558,15.4s-7.51,1.536-15.212-1.8a131.218,131.218,0,0,1-24.185-14.4,126.25,126.25,0,0,1-22-19.89c-4.847-5.95-7.006-10.6-5.35-12.884s7.678-1.488,15.6,1.967c.672-.408,1.344-.792,2.039-1.152C13.414-.009,3.745-1.832.866,2.079s1.464,12,10.221,21.593A145.781,145.781,0,0,0,32.1,42.171a150.03,150.03,0,0,0,22.6,13.868C67.038,62.012,76.8,63.836,79.683,59.973Z" transform="translate(273.744 1329.994)" fill="url(#linear-gradient-2)"/>
      <path id="Path_4168" data-name="Path 4168" d="M12.406,1.115C9.743.779,4.321.108,2.977,3.251S4.249,9.3,5.76,11.48l.816,1.1C4.033,8.7,3.121,5.626,4.369,3.923c1.8-2.4,7.678-1.488,15.6,1.967C20.636,5.482,21.308,5.1,22,4.738a75.257,75.257,0,0,0-7.462-3.215,20.97,20.97,0,0,0-2.135-.408Z" transform="translate(277.414 1331.125)" opacity="0.2"/>
      <path id="Path_4169" data-name="Path 4169" d="M30.491,17.371c6.358,7.006,9.453,12.836,7.558,15.4-1.488,2.039-5.83,1.727-11.829-.432,1.152.648,2.4,1.248,3.527,1.823A12,12,0,0,0,34.785,35.8c1.7,0,3.935-.36,4.8-2.063,1.224-2.4.12-5.47-.864-7.846a45.082,45.082,0,0,0-2.255-4.583c-1.608-1.991-3.455-4.055-5.494-6.166A8.263,8.263,0,0,0,30.491,17.371Z" transform="translate(310.459 1351.17)" opacity="0.2"/>
      <path id="Path_4170" data-name="Path 4170" d="M19.219,4.409s-13.58-7.39-17.587-2.4S7.007,20.292,25.889,36.367c0,0-20.394-18.45-22.721-27.808S9.742.45,19.219,4.409Z" transform="translate(274.775 1330.375)" fill="#fcd1c2"/>
      <path id="Path_4171" data-name="Path 4171" d="M45.09,29.657c.384-5.542-4.8-11.037-4.8-11.037s7.2,11.3.96,12.236c-5.206.768-12.356-1.751-17.731-4.271l1.08.672C31.87,30.76,44.634,35.967,45.09,29.657Z" transform="translate(306.682 1356.039)" fill="#fcd1c2"/>
    </g>
  </g>
</svg>
