<svg xmlns="http://www.w3.org/2000/svg" viewBox="0 0 31.81 31.81"><defs><style>.cls-1{fill:#fbb040;}.cls-2{fill:#fff;}</style></defs><g id="Layer_2" data-name="Layer 2"><g id="Layer_1-2" data-name="Layer 1"><path class="cls-1" d="M16.2,0A15.91,15.91,0,1,0,31.81,16.2,15.93,15.93,0,0,0,16.2,0Z"/><rect class="cls-2" x="15.22" y="15.65" width="1.13" height="14.02" transform="translate(-7.17 38.02) rotate(-88.94)"/><path class="cls-2" d="M9.06,15.15a2.29,2.29,0,1,0-2.24-2.33A2.28,2.28,0,0,0,9.06,15.15Z"/><path class="cls-2" d="M22.78,15.4a2.29,2.29,0,1,0-2.25-2.33A2.29,2.29,0,0,0,22.78,15.4Z"/><path class="cls-2" d="M11.62,5.67s-.43.09-1,.23c-.28.06-.59.17-.91.26a6,6,0,0,0-1,.38A4.42,4.42,0,0,0,7.85,7a3.75,3.75,0,0,1-.44.24A2.65,2.65,0,0,0,7,7.5,5.64,5.64,0,0,1,6.17,8a4.34,4.34,0,0,1,.4-1,1.41,1.41,0,0,1,.27-.43c.13-.14.26-.28.41-.42a3.09,3.09,0,0,1,.48-.4l.58-.3a2.29,2.29,0,0,1,.62-.22c.2,0,.42-.07.62-.11a3.74,3.74,0,0,1,.58,0,2,2,0,0,1,.51.08,2.26,2.26,0,0,1,.73.26A2.08,2.08,0,0,1,11.62,5.67Z"/><path class="cls-2" d="M20.57,5.84a2.68,2.68,0,0,1,.25-.15,2.82,2.82,0,0,1,.74-.23,2.14,2.14,0,0,1,.52,0,3.79,3.79,0,0,1,.58,0c.2,0,.41.08.62.14a2.22,2.22,0,0,1,.6.24l.57.32a3.19,3.19,0,0,1,.47.42c.14.14.27.29.39.43a1.46,1.46,0,0,1,.26.45,4.53,4.53,0,0,1,.36,1,6.37,6.37,0,0,1-.85-.57,2.6,2.6,0,0,0-.36-.27l-.43-.25a4.19,4.19,0,0,0-.9-.51,7.23,7.23,0,0,0-.95-.42c-.31-.09-.62-.21-.9-.29C21,5.94,20.57,5.84,20.57,5.84Z"/></g></g></svg>