<svg xmlns="http://www.w3.org/2000/svg" viewBox="0 0 31.82 31.82"><defs><style>.cls-1{fill:#39b54a;}.cls-2{fill:#fff;}</style></defs><g id="Layer_2" data-name="Layer 2"><g id="Layer_1-2" data-name="Layer 1"><path class="cls-1" d="M14.46.07A15.91,15.91,0,1,1,.07,17.35,15.92,15.92,0,0,1,14.46.07Z"/><path class="cls-2" d="M17.12,29.19A11.18,11.18,0,0,0,27.23,17.05l-1.12.1A10,10,0,1,1,6.1,19L5,19.08A11.19,11.19,0,0,0,17.12,29.19Z"/><path class="cls-2" d="M22.68,14.66a2.29,2.29,0,1,1,2.07-2.49A2.3,2.3,0,0,1,22.68,14.66Z"/><path class="cls-2" d="M9,15.9a2.28,2.28,0,1,1,2.07-2.48A2.29,2.29,0,0,1,9,15.9Z"/><path class="cls-2" d="M19.44,5.39l1,.16c.28,0,.6.12.92.18a7.13,7.13,0,0,1,1,.32,4.24,4.24,0,0,1,.95.4c.15.08.3.14.45.21a2.11,2.11,0,0,1,.39.23,6.28,6.28,0,0,0,.91.47,4.26,4.26,0,0,0-.47-1,1.71,1.71,0,0,0-.3-.42l-.44-.38a4.74,4.74,0,0,0-.51-.37L22.73,5a2.36,2.36,0,0,0-.63-.17c-.21,0-.42-.05-.62-.07a2.88,2.88,0,0,0-.59,0,1.59,1.59,0,0,0-.5.1,2.51,2.51,0,0,0-.71.32C19.52,5.31,19.45,5.4,19.44,5.39Z"/><path class="cls-2" d="M10.53,6.21a1.22,1.22,0,0,0-.27-.13,2.35,2.35,0,0,0-.75-.18,2.22,2.22,0,0,0-.52,0,4.08,4.08,0,0,0-.58.06c-.19.06-.4.11-.6.18a2.66,2.66,0,0,0-.59.28c-.18.12-.36.25-.54.36a3.17,3.17,0,0,0-.44.46c-.13.15-.25.31-.36.46a1.53,1.53,0,0,0-.23.46,4.72,4.72,0,0,0-.28,1,6.46,6.46,0,0,0,.81-.64,2.56,2.56,0,0,1,.34-.29L6.92,8a4.43,4.43,0,0,1,.86-.57,7.42,7.42,0,0,1,.92-.49c.31-.12.61-.26.88-.35C10.11,6.34,10.53,6.21,10.53,6.21Z"/></g></g></svg>