<svg width="331" height="480" viewBox="0 0 331 480" fill="none" xmlns="http://www.w3.org/2000/svg">
<path fill-rule="evenodd" clip-rule="evenodd" d="M227.081 467.007C230.853 473.104 236.885 477.46 243.859 479.124C250.832 480.788 258.181 479.624 264.3 475.887C270.418 472.149 274.809 466.142 276.512 459.178C278.216 452.214 277.094 444.859 273.392 438.719L211.241 337.883L198.197 285.105C197.572 285.835 196.959 286.57 196.351 287.314L154.199 332.651L159.363 353.521C159.957 356.832 161.163 360.003 162.92 362.872L227.081 467.007ZM19.7628 442.93L60.1518 335.951C61.57 332.171 63.8087 328.752 66.7068 325.941L129.82 256.072V141.44C129.837 132.746 133.298 124.413 139.445 118.266C145.593 112.118 153.926 108.657 162.62 108.64C171.459 108.64 175.207 111.085 182.39 114.682L318.799 193.438C321.545 195.029 323.952 197.145 325.88 199.666C327.809 202.186 329.222 205.062 330.04 208.129C330.857 211.196 331.062 214.394 330.643 217.54C330.225 220.687 329.191 223.719 327.6 226.466C326.009 229.213 323.893 231.619 321.372 233.548C318.851 235.476 315.975 236.89 312.909 237.707C309.842 238.524 306.644 238.729 303.497 238.311C300.351 237.892 297.318 236.858 294.572 235.267L195.418 178.02V254.935C195.418 269.08 193.604 268.543 185.792 278.107L109.661 359.991L71.0608 462.243C68.4993 469.045 63.3408 474.55 56.72 477.549C50.0992 480.547 42.5585 480.792 35.7568 478.231C28.9551 475.67 23.4494 470.511 20.4511 463.89C17.4528 457.269 17.2073 449.729 19.7688 442.927L19.7628 442.93ZM149.92 0C142.001 0 134.26 2.34813 127.676 6.74745C121.092 11.1468 115.961 17.3997 112.93 24.7155C109.9 32.0313 109.107 40.0814 110.652 47.8478C112.197 55.6142 116.01 62.7482 121.609 68.3474C127.209 73.9467 134.343 77.7599 142.109 79.3047C149.875 80.8495 157.925 80.0567 165.241 77.0264C172.557 73.9961 178.81 68.8644 183.209 62.2804C187.609 55.6963 189.957 47.9556 189.957 40.037C189.957 29.4185 185.739 19.235 178.23 11.7266C170.722 4.21817 160.538 0 149.92 0ZM115.82 212.661V142.517L84.0718 175.1L17.7088 193.811C11.5561 195.518 6.32886 199.59 3.16848 205.138C0.00809669 210.686 -0.828592 217.259 0.841133 223.422C2.51086 229.585 6.55133 234.837 12.0802 238.03C17.609 241.224 24.177 242.1 30.3498 240.468L105.587 220.1C108.139 219.441 110.461 218.091 112.298 216.2L115.82 212.661Z" fill="#2D9BDE"/>
<path d="M210.755 338.003L210.774 338.079L210.815 338.145L272.964 438.977C272.964 438.978 272.964 438.978 272.965 438.979C276.598 445.005 277.699 452.224 276.027 459.059C274.354 465.895 270.045 471.791 264.039 475.46C258.033 479.128 250.82 480.271 243.975 478.638C237.129 477.004 231.209 472.729 227.506 466.744L163.346 362.611C161.622 359.795 160.438 356.682 159.855 353.433L159.852 353.417L159.848 353.401L154.749 332.793L196.717 287.654L196.728 287.643L196.738 287.63C197.138 287.141 197.54 286.656 197.946 286.173L210.755 338.003ZM20.6854 441.912L20.6808 441.914L60.6196 336.128L60.6199 336.127C62.0122 332.416 64.2099 329.06 67.0549 326.3L67.0668 326.288L67.0778 326.276L130.191 256.407L130.32 256.264V256.072V141.441C130.336 132.879 133.745 124.673 139.799 118.619C145.853 112.565 154.059 109.157 162.621 109.14C170.398 109.14 174.135 111.044 179.981 114.023C180.672 114.375 181.392 114.742 182.153 115.122L318.548 193.871C321.238 195.429 323.594 197.501 325.483 199.969C327.372 202.438 328.756 205.255 329.556 208.258C330.357 211.261 330.558 214.393 330.148 217.474C329.738 220.555 328.725 223.526 327.167 226.215C325.609 228.905 323.537 231.262 321.068 233.15C318.6 235.039 315.783 236.423 312.78 237.224C309.776 238.024 306.645 238.225 303.563 237.815C300.482 237.405 297.512 236.392 294.822 234.834L294.822 234.834L195.668 177.587L194.918 177.154V178.02V254.935C194.918 262.007 194.459 265.3 193.088 268.013C192.4 269.375 191.471 270.611 190.208 272.12C189.748 272.67 189.239 273.26 188.683 273.906C187.732 275.01 186.642 276.276 185.415 277.778L109.295 359.651L109.228 359.723L109.193 359.814L70.593 462.066L70.5929 462.067C68.0782 468.744 63.0137 474.15 56.5138 477.093C50.0138 480.037 42.6107 480.278 35.933 477.763C29.2554 475.248 23.8502 470.184 20.9066 463.684C17.9629 457.184 17.722 449.781 20.2367 443.103L20.6854 441.912ZM84.2075 175.581L84.3364 175.545L84.4299 175.449L115.32 143.747V212.455L111.943 215.847L111.939 215.852C110.166 217.677 107.925 218.98 105.462 219.616L105.456 219.617L30.222 239.985C24.1769 241.583 17.7447 240.725 12.3303 237.597C6.9158 234.47 2.95892 229.327 1.32373 223.291C-0.31145 217.256 0.50793 210.819 3.60293 205.385C6.69794 199.952 11.8171 195.964 17.8425 194.293L17.8445 194.292L84.2075 175.581ZM127.954 7.16319C134.456 2.81881 142.1 0.5 149.92 0.5C160.406 0.5 170.462 4.66549 177.877 12.0801C185.291 19.4947 189.457 29.5511 189.457 40.037C189.457 47.8567 187.138 55.5008 182.794 62.0026C178.449 68.5044 172.274 73.572 165.05 76.5644C157.826 79.5569 149.876 80.3399 142.207 78.8143C134.537 77.2888 127.492 73.5232 121.963 67.9939C116.434 62.4645 112.668 55.4197 111.142 47.7503C109.617 40.0809 110.4 32.1313 113.392 24.9068C116.385 17.6824 121.452 11.5076 127.954 7.16319Z" fill="#2D9BDE" stroke="black"/>
</svg>
