<svg width="512" height="513" viewBox="0 0 512 513" fill="none" xmlns="http://www.w3.org/2000/svg">
<path d="M393.087 303.032L362.204 195.542C376.29 193.077 387 180.793 387 166.001C387 149.433 373.568 136.001 357 136.001H309.486L253.903 95.6695C240.093 85.6475 220.694 89.1585 211.272 103.387L141.038 209.437C131.601 223.687 135.968 242.943 150.623 251.731L211.185 288.043C211.185 296.284 211.186 380.376 211.186 390.987L208.672 390.986C204.427 363.471 189.454 339.451 168.177 323.341L178.867 303.755L153.116 288.315L141.919 308.83C73.594 283.028 0 333.767 0 407.051C0 464.921 47.081 512.001 104.95 512.001C158.096 512.001 202.136 472.292 208.973 420.985L241 420.996V420.947C257.73 421.046 271.184 407.513 271.184 390.952V271.052C271.184 260.511 265.652 250.743 256.611 245.323L208.386 216.408L244.007 162.623L282.13 190.284C287.253 194.001 293.42 196.003 299.749 196.003H331.199C331.287 196.48 331.396 196.957 331.533 197.433L339.756 226.053H280.654C289.63 233.997 296.053 244.497 299.066 256.053H332.528L301 306.215V362.592L354.52 277.438L364.232 311.241C327.647 327.655 302.1 364.425 302.1 407.052C302.1 464.922 349.18 512.001 407.05 512.001C464.92 512.001 512 464.921 512 407.051C512 343.825 456.169 294.607 393.087 303.032ZM153.579 350.087C165.773 360.512 174.588 374.765 178.146 390.975L131.271 390.96L153.579 350.087ZM104.95 482.001C63.623 482.001 30 448.379 30 407.051C30 365.723 63.623 332.101 104.95 332.101C112.75 332.101 120.273 333.302 127.35 335.523L92.833 398.765C87.39 408.739 94.612 420.947 105.995 420.952L178.582 420.976C172.035 455.67 141.519 482.001 104.95 482.001ZM407.05 482.001C365.722 482.001 332.1 448.379 332.1 407.051C332.1 378.124 348.582 352.991 372.639 340.501L392.634 410.093C394.925 418.069 403.242 422.652 411.193 420.368C419.155 418.08 423.756 409.771 421.468 401.809L401.505 332.327C445.275 329.105 482 363.858 482 407.051C482 448.379 448.377 482.001 407.05 482.001Z" fill="#2D9BDE"/>
<path d="M285.975 89.95C310.774 89.95 330.95 69.774 330.95 44.974C330.95 20.176 310.774 0 285.975 0C261.176 0 241 20.176 241 44.975C241 69.774 261.176 89.95 285.975 89.95Z" fill="#2D9BDE"/>
<path d="M392.606 303.17L392.726 303.584L393.153 303.527C455.935 295.142 511.5 344.126 511.5 407.051C511.5 464.644 464.644 511.501 407.05 511.501C349.456 511.501 302.6 464.645 302.6 407.052C302.6 364.629 328.024 328.033 364.437 311.697L364.832 311.519L364.713 311.102L355.001 277.299L354.692 276.225L354.097 277.171L301.5 360.856V306.359L332.951 256.319L333.433 255.553H332.528H299.451C296.485 244.467 290.403 234.364 281.952 226.553H339.756H340.42L340.237 225.914L332.014 197.294L332.013 197.294C331.882 196.836 331.776 196.375 331.691 195.912L331.615 195.503H331.199H299.749C293.526 195.503 287.461 193.534 282.424 189.879L244.301 162.218L243.878 161.911L243.59 162.346L207.969 216.131L207.68 216.567L208.129 216.836L256.354 245.751C265.244 251.081 270.684 260.686 270.684 271.052V390.952C270.684 407.237 257.454 420.544 241.003 420.447L240.5 420.444V420.495L208.973 420.485L208.535 420.484L208.477 420.918C201.673 471.981 157.842 511.501 104.95 511.501C47.3571 511.501 0.5 464.644 0.5 407.051C0.5 334.116 73.7443 283.619 141.742 309.297L142.149 309.451L142.358 309.069L153.305 289.011L178.198 303.936L167.738 323.101L167.532 323.479L167.875 323.739C189.052 339.773 203.953 363.68 208.178 391.062L208.243 391.485L208.672 391.486L211.186 391.487L211.686 391.487V390.987L211.686 338.626L211.685 288.043V287.759L211.442 287.614L150.88 251.302C136.469 242.66 132.175 223.725 141.455 209.713L211.689 103.663L211.272 103.387L211.689 103.663C220.954 89.6718 240.03 86.2193 253.609 96.0742L253.903 95.6695L253.609 96.0742L309.192 136.405L309.324 136.501H309.486H357C373.292 136.501 386.5 149.709 386.5 166.001C386.5 180.545 375.969 192.625 362.118 195.049L361.57 195.145L361.723 195.68L392.606 303.17ZM153.904 349.706L153.435 349.306L153.14 349.847L130.832 390.72L130.429 391.459L131.271 391.46L178.146 391.475L178.768 391.475L178.634 390.867C175.052 374.548 166.178 360.2 153.904 349.706ZM127.789 335.762L128.081 335.228L127.5 335.045C120.375 332.81 112.802 331.601 104.95 331.601C63.3469 331.601 29.5 365.446 29.5 407.051C29.5 448.655 63.3469 482.501 104.95 482.501C141.764 482.501 172.483 455.993 179.073 421.068L179.185 420.476L178.582 420.476L105.995 420.452C94.9922 420.447 88.0104 408.645 93.2719 399.004L127.789 335.762ZM373.12 340.362L372.951 339.775L372.409 340.057C348.193 352.629 331.6 377.929 331.6 407.051C331.6 448.655 365.446 482.501 407.05 482.501C448.653 482.501 482.5 448.655 482.5 407.051C482.5 363.569 445.531 328.584 401.468 331.828L400.854 331.873L401.024 332.465L420.987 401.947C423.199 409.643 418.752 417.675 411.055 419.887C403.369 422.095 395.329 417.664 393.115 409.954L373.12 340.362Z" stroke="black"/>
<path d="M330.45 44.974C330.45 69.4979 310.498 89.45 285.975 89.45C261.452 89.45 241.5 69.4979 241.5 44.975C241.5 20.4521 261.452 0.5 285.975 0.5C310.498 0.5 330.45 20.4521 330.45 44.974Z" stroke="black"/>
</svg>
