<svg width="418" height="446" viewBox="0 0 418 446" fill="none" xmlns="http://www.w3.org/2000/svg">
<path d="M401.5 181.779V178.624C401.5 175.465 400.565 172.377 398.813 169.748L385.5 149.779L372.187 169.748C370.435 172.377 369.5 175.465 369.5 178.624V181.779C369.5 186.023 371.186 190.092 374.186 193.093C377.187 196.094 381.257 197.779 385.5 197.779C389.743 197.779 393.813 196.094 396.814 193.093C399.814 190.092 401.5 186.023 401.5 181.779Z" fill="#2D9BDE"/>
<path d="M414.813 305.749L401.5 285.779L388.187 305.749C386.435 308.377 385.5 311.465 385.5 314.624V317.779C385.5 322.023 387.186 326.092 390.186 329.093C393.187 332.094 397.257 333.779 401.5 333.779C405.743 333.779 409.813 332.094 412.814 329.093C415.814 326.092 417.5 322.023 417.5 317.779V314.624C417.5 311.465 416.565 308.377 414.813 305.749Z" fill="#2D9BDE"/>
<path d="M329.5 389.779L316.187 409.749C314.435 412.377 313.5 415.465 313.5 418.624V421.779C313.5 426.023 315.186 430.092 318.186 433.093C321.187 436.094 325.257 437.779 329.5 437.779C333.743 437.779 337.813 436.094 340.814 433.093C343.814 430.092 345.5 426.023 345.5 421.779V418.624C345.5 415.465 344.565 412.377 342.813 409.749L329.5 389.779Z" fill="#2D9BDE"/>
<path d="M161.5 405.779H97.5V445.779H161.5V405.779Z" fill="#2D9BDE"/>
<path d="M55.6034 136.644L66.9018 132.878C70.4967 131.68 73.5479 129.241 75.5094 125.999C77.4709 122.756 78.2147 118.922 77.6077 115.181C77.0007 111.441 75.0824 108.039 72.1963 105.583C69.3101 103.127 65.6443 101.779 61.8549 101.779H50.9384L49.2689 93.4346C46.7591 81.1853 49.1521 68.4401 55.9343 57.9355C62.7165 47.4308 73.3471 40.0042 85.5439 37.25L114.491 30.5698C121.91 28.8874 128.691 25.1137 134.031 19.6957C139.371 14.2777 143.046 7.4425 144.621 0L56.0434 20.1314C37.6169 24.3191 21.5753 35.583 11.3797 51.4928C1.18411 67.4026 -2.34822 86.6829 1.54483 105.174L3.14542 112.776C7.04687 131.12 15.4753 148.196 27.6632 162.45C39.851 176.704 55.411 187.682 72.9262 194.385L55.6034 136.644Z" fill="#2D9BDE"/>
<path d="M118.09 46.1611L89.143 52.8413C81.7623 54.5063 75.2161 58.7464 70.6786 64.8011C66.1411 70.8557 63.909 78.3289 64.3828 85.8803C71.4212 86.4385 78.0767 89.3117 83.31 94.0513C88.5433 98.7909 92.0598 105.13 93.3104 112.079C94.561 119.028 93.4753 126.195 90.2228 132.462C86.9704 138.729 81.7342 143.742 75.332 146.719L96.2813 216.55L158.615 254.643L147.033 190.945C146.303 186.82 147.212 182.573 149.566 179.108C151.92 175.643 155.534 173.234 159.638 172.394L174.916 169.338C176 169.121 177.027 168.683 177.932 168.049C178.838 167.416 179.603 166.602 180.178 165.658C180.753 164.715 181.127 163.662 181.275 162.567C181.423 161.472 181.343 160.358 181.04 159.296L167.702 112.613L191.039 104.834L154.541 82.9355L142.279 33.8906C135.342 39.8986 127.036 44.1121 118.09 46.1611ZM125.076 92.9355L117.92 78.625L133.92 70.625L141.076 84.9355L125.076 92.9355Z" fill="#2D9BDE"/>
<path d="M183.388 288.531L90.7653 231.928C64.1641 260.059 49.391 297.337 49.5006 336.054V445.779H81.5006V405.779H73.5006V325.779H89.5006V389.779H169.501V325.779H185.501V405.779H177.501V445.779H225.501V363.62C225.449 348.555 221.555 333.752 214.185 320.612C206.816 307.472 196.216 296.43 183.388 288.531Z" fill="#2D9BDE"/>
<path d="M343.867 260.322L315.648 136.159L306.521 139.202C302.785 140.442 298.709 140.15 295.187 138.389C291.666 136.629 288.987 133.543 287.737 129.81C287.375 128.722 286.783 127.726 286.002 126.887C285.22 126.048 284.268 125.387 283.209 124.949C282.15 124.51 281.009 124.304 279.864 124.345C278.718 124.386 277.595 124.672 276.57 125.184L272.156 127.391C270.57 128.184 269.292 129.482 268.524 131.081C267.755 132.679 267.54 134.488 267.912 136.222L285.962 220.457C286.939 225.001 286.574 229.73 284.911 234.07C283.247 238.409 280.358 242.171 276.594 244.898L301.094 312.272L316.793 307.366C326.367 304.324 334.455 297.809 339.466 289.102C344.477 280.395 346.047 270.128 343.867 260.322Z" fill="#2D9BDE"/>
<path d="M180 267.71L191.729 274.878C213.119 288.046 229.056 308.471 236.629 332.419L285.812 317.05L261.518 250.242L180 267.71Z" fill="#2D9BDE"/>
<path d="M256.948 87.5849C257.944 88.1154 259.042 88.4263 260.169 88.4967C261.295 88.5671 262.423 88.3954 263.477 87.9931L297.319 75.3022C299.159 74.6131 300.681 73.2709 301.594 71.5315C302.507 69.7921 302.748 67.7773 302.271 65.8716L299.829 56.1016L250.438 72.5653L252.907 82.4423C253.174 83.5384 253.673 84.5644 254.371 85.4515C255.068 86.3385 255.947 87.066 256.948 87.5849Z" fill="#2D9BDE"/>
<path d="M191.941 139.199L211.661 132.626L225.103 146.067C226.033 147 227.18 147.687 228.441 148.069C229.702 148.45 231.037 148.514 232.329 148.255L253.239 144.073L252.275 139.575C251.16 134.372 251.805 128.946 254.11 124.149C256.415 119.353 260.249 115.459 265.009 113.08L269.423 110.874C272.412 109.379 275.68 108.525 279.017 108.367C282.355 108.209 285.689 108.749 288.806 109.953C291.923 111.158 294.754 113 297.118 115.362C299.482 117.723 301.327 120.553 302.534 123.668L318.792 118.249L408.359 83.8003C410.283 83.0639 411.847 81.6127 412.726 79.7499C413.605 77.8872 413.731 75.7568 413.076 73.8037L398.971 31.4873C398.298 29.4759 396.854 27.8136 394.957 26.865C393.06 25.9165 390.864 25.7592 388.852 26.4278L315.058 51.0255L317.799 61.9893C319.231 67.7068 318.508 73.7512 315.768 78.9695C313.028 84.1878 308.462 88.2148 302.943 90.2823L269.101 102.973C265.934 104.16 262.553 104.665 259.177 104.454C255.802 104.243 252.51 103.322 249.516 101.749C246.522 100.177 243.894 97.99 241.804 95.3312C239.715 92.6724 238.21 89.6021 237.39 86.3213L235.219 77.6385L219.62 82.8384C218.443 83.2338 217.374 83.8964 216.496 84.7742C215.618 85.652 214.955 86.7212 214.56 87.898L209.5 103.077V115.545L187.297 122.946L191.941 139.199Z" fill="#2D9BDE"/>
<path d="M400 178.624V181.779C400 185.625 398.472 189.313 395.753 192.032C393.034 194.752 389.346 196.279 385.5 196.279C381.654 196.279 377.966 194.752 375.247 192.032C372.528 189.313 371 185.625 371 181.779V178.624C371 175.761 371.847 172.962 373.435 170.581L372.187 169.748L373.435 170.581L385.5 152.483L397.565 170.581L398.813 169.748L397.565 170.581C399.153 172.962 400 175.761 400 178.624Z" stroke="black" stroke-width="3"/>
<path d="M413.565 306.581L413.565 306.581C415.153 308.962 416 311.761 416 314.624V317.779C416 321.625 414.472 325.313 411.753 328.032C409.034 330.752 405.346 332.279 401.5 332.279C397.654 332.279 393.966 330.752 391.247 328.032C388.528 325.313 387 321.625 387 317.779V314.624C387 311.761 387.847 308.962 389.435 306.581L389.435 306.581L401.5 288.483L413.565 306.581Z" stroke="black" stroke-width="3"/>
<path d="M317.435 410.581L329.5 392.483L341.565 410.581L341.565 410.581C343.153 412.962 344 415.761 344 418.624V421.779C344 425.625 342.472 429.313 339.753 432.032C337.034 434.752 333.346 436.279 329.5 436.279C325.654 436.279 321.966 434.752 319.247 432.032C316.528 429.313 315 425.625 315 421.779V418.624C315 415.761 315.847 412.962 317.435 410.581L317.435 410.581Z" stroke="black" stroke-width="3"/>
<path d="M99 407.279H160V444.279H99V407.279Z" stroke="black" stroke-width="3"/>
<path d="M55.1291 135.221L53.7485 135.681L54.1667 137.075L70.5971 191.842C54.4835 185.156 40.1597 174.757 28.8032 161.475C16.7783 147.412 8.46248 130.564 4.61293 112.466C4.61282 112.465 4.61271 112.465 4.6126 112.464L3.01265 104.865C-0.799297 86.7591 2.65945 67.8805 12.6427 52.3021C22.6259 36.7238 38.3332 25.6946 56.3758 21.5941L142.589 2.00004C140.852 8.2633 137.544 13.9949 132.963 18.6427C127.824 23.8565 121.299 27.488 114.159 29.107L114.154 29.1082L85.2135 35.7869C85.2121 35.7872 85.2107 35.7875 85.2094 35.7878C72.6314 38.6292 61.6685 46.2885 54.6741 57.1219C47.6796 67.9554 45.2112 81.0993 47.7988 93.7323C47.799 93.7334 47.7992 93.7346 47.7995 93.7357L49.4675 102.073L49.7088 103.279H50.9384H61.8549C65.2881 103.279 68.6094 104.501 71.2243 106.725C73.8392 108.95 75.5771 112.033 76.127 115.422C76.677 118.811 76.0031 122.285 74.226 125.222C72.4489 128.16 69.6844 130.369 66.4275 131.455L55.1291 135.221Z" stroke="black" stroke-width="3"/>
<path d="M141.402 36.5674L153.085 83.2993L153.236 83.9021L153.769 84.2217L187.47 104.442L167.227 111.19L165.865 111.644L166.259 113.025L179.597 159.708L179.597 159.708C179.844 160.571 179.909 161.476 179.789 162.366C179.668 163.256 179.365 164.111 178.897 164.878C178.43 165.644 177.809 166.305 177.073 166.82C176.337 167.335 175.502 167.691 174.622 167.867L174.622 167.867L159.343 170.923L159.337 170.924C154.85 171.843 150.899 174.477 148.325 178.265C145.751 182.054 144.758 186.697 145.556 191.207L145.557 191.214L156.54 251.617L97.5531 215.569L77.1345 147.507C83.3049 144.341 88.3494 139.328 91.5542 133.153C94.9593 126.592 96.096 119.088 94.7867 111.813C93.4774 104.538 89.7958 97.9015 84.3169 92.9395C79.1677 88.276 72.7032 85.3384 65.8269 84.5167C65.6864 77.7572 67.8098 71.1303 71.8789 65.7006C76.2026 59.9313 82.4402 55.8911 89.4731 54.3045L89.4731 54.3045L89.4803 54.3029L118.425 47.6233C118.426 47.6232 118.426 47.6231 118.426 47.623C126.825 45.699 134.674 41.9171 141.402 36.5674ZM123.734 93.6064L124.405 94.948L125.747 94.2772L141.747 86.2772L143.088 85.6064L142.417 84.2647L135.262 69.9542L134.591 68.6125L133.25 69.2834L117.25 77.2834L115.908 77.9542L116.579 79.2958L123.734 93.6064Z" stroke="black" stroke-width="3"/>
<path d="M51.0006 336.054L51.0006 336.049C50.8932 298.123 65.211 261.59 91.0244 233.844L182.602 289.808C182.603 289.808 182.603 289.809 182.604 289.809C195.214 297.575 205.633 308.43 212.877 321.346C220.121 334.262 223.949 348.812 224.001 363.62C224.001 363.622 224.001 363.623 224.001 363.625L224.001 444.279H179.001V407.279H185.501H187.001V405.779V325.779V324.279H185.501H169.501H168.001V325.779V388.279H91.0006V325.779V324.279H89.5006H73.5006H72.0006V325.779V405.779V407.279H73.5006H80.0006V444.279H51.0006L51.0006 336.054Z" stroke="black" stroke-width="3"/>
<path d="M306.994 140.626L306.995 140.625L314.552 138.106L342.403 260.648C342.403 260.649 342.403 260.65 342.403 260.651C344.501 270.091 342.989 279.973 338.166 288.354C333.343 296.735 325.556 303.007 316.34 305.936C316.34 305.936 316.339 305.936 316.338 305.936L302.014 310.413L278.382 245.424C281.939 242.596 284.68 238.863 286.311 234.607C288.079 229.995 288.467 224.97 287.429 220.142L269.379 135.908L269.379 135.908C269.077 134.499 269.251 133.029 269.876 131.73C270.5 130.431 271.538 129.377 272.827 128.733L272.827 128.733L277.241 126.526C278.074 126.11 278.986 125.877 279.917 125.844C280.848 125.811 281.775 125.978 282.635 126.335C283.496 126.691 284.269 127.228 284.904 127.91C285.539 128.591 286.02 129.401 286.314 130.284L286.315 130.286C287.69 134.396 290.64 137.793 294.517 139.731C298.393 141.669 302.88 141.991 306.994 140.626Z" stroke="black" stroke-width="3"/>
<path d="M192.511 273.598L183.988 268.39L260.555 251.983L283.865 316.087L237.599 330.545C229.743 306.867 213.787 286.696 192.516 273.601L192.511 273.598Z" stroke="black" stroke-width="3"/>
<path d="M257.654 86.261L257.646 86.257L257.638 86.253C256.827 85.8326 256.115 85.2433 255.55 84.5246C254.985 83.806 254.581 82.9747 254.364 82.0868L254.364 82.0868L254.362 82.0785L252.23 73.549L298.766 58.0368L300.816 66.2353L300.816 66.2359C301.204 67.7842 301.008 69.421 300.266 70.8341C299.524 72.2472 298.288 73.3377 296.793 73.8975L296.792 73.8977L262.951 86.5887L262.951 86.5886L262.943 86.5917C262.088 86.9176 261.175 87.0567 260.262 86.9997C259.35 86.9426 258.46 86.6908 257.654 86.261Z" stroke="black" stroke-width="3"/>
<path d="M211.187 131.203L192.953 137.281L189.134 123.915L209.975 116.968L211 116.626V115.545V103.32L215.982 88.3757C215.982 88.3752 215.982 88.3747 215.982 88.3742C216.304 87.4176 216.843 86.5485 217.557 85.8349C218.27 85.1211 219.14 84.5823 220.096 84.2606C220.097 84.2605 220.097 84.2604 220.097 84.2603L234.157 79.5738L235.935 86.6851C235.935 86.6851 235.935 86.6851 235.935 86.6852C236.806 90.1709 238.405 93.4332 240.625 96.2581C242.845 99.0831 245.637 101.407 248.818 103.077C252 104.748 255.498 105.727 259.084 105.951C262.67 106.175 266.263 105.639 269.627 104.378L269.101 102.973L269.627 104.378L303.469 91.687C303.469 91.6869 303.469 91.6868 303.47 91.6868C309.334 89.49 314.184 85.2112 317.096 79.6668C320.007 74.1224 320.776 67.7003 319.255 61.6255C319.255 61.6253 319.254 61.6251 319.254 61.6249L316.85 52.0092L389.324 27.8513C389.324 27.8513 389.325 27.8512 389.325 27.8512C390.96 27.308 392.745 27.4358 394.287 28.2067C395.828 28.9775 397.001 30.3285 397.548 31.9632L411.653 74.2781L411.654 74.2804C412.186 75.8666 412.084 77.5969 411.37 79.1098C410.656 80.6227 409.385 81.8013 407.823 82.3995L407.82 82.4003L318.286 116.837L303.378 121.806C302.112 119.015 300.352 116.472 298.178 114.3C295.667 111.791 292.659 109.834 289.347 108.554C286.035 107.274 282.493 106.7 278.946 106.869C275.4 107.037 271.928 107.944 268.752 109.532L264.339 111.738C259.281 114.266 255.207 118.404 252.758 123.5C250.309 128.596 249.623 134.361 250.809 139.89L251.454 142.9L232.034 146.784L232.033 146.784C230.984 146.995 229.899 146.943 228.875 146.633C227.851 146.323 226.92 145.765 226.164 145.008L226.163 145.007L212.722 131.565L212.066 130.91L211.187 131.203Z" stroke="black" stroke-width="3"/>
</svg>
