<svg width="427" height="427" viewBox="0 0 427 427" fill="none" xmlns="http://www.w3.org/2000/svg">
<path d="M373.333 224H202.667V53.3333C202.667 47.4453 197.899 42.6667 192 42.6667C86.1333 42.6667 0 128.8 0 234.667C0 340.533 86.1333 426.667 192 426.667C297.867 426.667 384 340.533 384 234.667C384 228.779 379.232 224 373.333 224ZM106.667 234.667C83.104 234.667 64 215.563 64 192C64 168.437 83.104 149.333 106.667 149.333C130.229 149.333 149.333 168.437 149.333 192C149.333 215.563 130.229 234.667 106.667 234.667ZM160 373.333C148.213 373.333 138.667 363.787 138.667 352C138.667 340.213 148.213 330.667 160 330.667C171.787 330.667 181.333 340.213 181.333 352C181.333 363.787 171.787 373.333 160 373.333ZM288 320C276.213 320 266.667 310.453 266.667 298.667C266.667 286.88 276.213 277.333 288 277.333C299.787 277.333 309.333 286.88 309.333 298.667C309.333 310.453 299.787 320 288 320ZM234.667 0C228.768 0 224 4.77867 224 10.6667V192C224 197.888 228.768 202.667 234.667 202.667H416C421.899 202.667 426.667 197.888 426.667 192C426.667 86.1333 340.533 0 234.667 0ZM288 106.667C276.213 106.667 266.667 97.12 266.667 85.3333C266.667 73.5467 276.213 64 288 64C299.787 64 309.333 73.5467 309.333 85.3333C309.333 97.12 299.787 106.667 288 106.667Z" fill="#2D9BDE"/>
<path d="M201.667 224V225H202.667H373.333C378.679 225 383 229.33 383 234.667C383 339.981 297.314 425.667 192 425.667C86.6856 425.667 1 339.981 1 234.667C1 129.352 86.6856 43.6667 192 43.6667C197.346 43.6667 201.667 47.997 201.667 53.3333V224ZM63 192C63 216.115 82.5517 235.667 106.667 235.667C130.782 235.667 150.333 216.115 150.333 192C150.333 167.885 130.782 148.333 106.667 148.333C82.5517 148.333 63 167.885 63 192ZM137.667 352C137.667 364.339 147.661 374.333 160 374.333C172.339 374.333 182.333 364.339 182.333 352C182.333 339.661 172.339 329.667 160 329.667C147.661 329.667 137.667 339.661 137.667 352ZM265.667 298.667C265.667 311.006 275.661 321 288 321C300.339 321 310.333 311.006 310.333 298.667C310.333 286.328 300.339 276.333 288 276.333C275.661 276.333 265.667 286.328 265.667 298.667ZM225 10.6667C225 5.3303 229.321 1 234.667 1C339.981 1 425.667 86.6856 425.667 192C425.667 197.336 421.346 201.667 416 201.667H234.667C229.321 201.667 225 197.336 225 192V10.6667ZM265.667 85.3333C265.667 97.6723 275.661 107.667 288 107.667C300.339 107.667 310.333 97.6723 310.333 85.3333C310.333 72.9944 300.339 63 288 63C275.661 63 265.667 72.9944 265.667 85.3333Z" stroke="black" stroke-width="2"/>
</svg>
