<svg width="512" height="464" viewBox="0 0 512 464" fill="none" xmlns="http://www.w3.org/2000/svg">
<path d="M254.537 200.545V317.72L166.781 395.355C188.249 419.603 219.605 434.895 254.537 434.895C319.251 434.895 371.712 382.434 371.712 317.72C371.712 253.006 319.251 200.545 254.537 200.545Z" fill="white"/>
<path d="M254.538 200.545C189.824 200.545 137.363 253.006 137.363 317.72C137.363 347.501 148.479 374.682 166.781 395.355L254.537 317.72L254.538 200.545Z" fill="#2D9BDE"/>
<path d="M89.58 110.696V97.3457H10V111.824C10 128.108 13.288 144.225 19.667 159.208C26.317 174.828 29.054 191.365 29.054 208.298V313.133C29.054 332.164 27.548 350.867 23.363 369.453C19.482 386.687 17.524 404.298 17.524 421.963C17.524 438.909 29.453 453.77 47.264 453.77H52.315C68.74 453.77 82.055 440.455 82.055 424.03C82.055 405 79.783 386.039 75.286 367.548C70.79 349.057 69.523 330.096 69.523 311.066V209.426C69.523 192.414 72.106 175.592 79.048 160.061C85.992 144.53 89.58 127.709 89.58 110.696Z" fill="#2D9BDE"/>
<path d="M452.63 12.6797C441.845 12.6797 431.792 18.1337 425.912 27.1737C411.127 49.9037 403.258 76.4367 403.258 103.553C403.258 130.465 416.128 144.225 422.507 159.208C429.197 174.79 431.894 191.394 431.894 208.298V313.135C431.894 332.165 430.388 350.868 426.203 369.452C422.322 386.686 420.364 404.297 420.364 421.962C420.364 438.908 432.293 453.769 450.104 453.769H455.155C471.58 453.769 484.895 440.454 484.895 424.029C484.895 405 482.623 386.038 478.126 367.547C473.63 349.056 472.363 330.095 472.363 311.065V209.425C472.363 192.413 474.946 175.592 481.888 160.06C488.831 144.53 502.002 127.184 502.002 103.553C502.002 76.4367 494.132 49.9047 479.348 27.1737C473.467 18.1327 463.414 12.6797 452.63 12.6797Z" fill="#2D9BDE"/>
<path d="M362.437 117.905C362.437 158.736 339.763 194.266 306.316 212.584C290.704 204.868 273.13 200.543 254.541 200.543C235.952 200.543 218.378 204.869 202.766 212.584C169.319 194.266 146.645 158.736 146.645 117.905C146.645 58.314 194.95 9.99805 254.541 9.99805C314.132 9.99805 362.437 58.314 362.437 117.905Z" fill="#2D9BDE"/>
<path d="M11.192 164.833C16.482 177.258 19.053 191.476 19.053 208.3V313.135C19.053 331.434 17.631 349.393 13.607 367.257C9.571 385.183 7.524 403.589 7.524 421.964C7.524 444.345 24.02 463.772 47.264 463.772H52.315C74.228 463.772 92.055 445.945 92.055 424.032C92.055 404.229 89.683 384.43 85.003 365.187C81.264 349.813 79.523 332.617 79.523 311.069V209.428C79.523 191.985 82.354 177.172 88.178 164.144C95.743 147.218 99.579 129.237 99.579 110.699V12.6816C99.579 7.15964 95.101 2.68164 89.579 2.68164C84.057 2.68164 79.579 7.15964 79.579 12.6816V87.3476H59.79V12.6816C59.79 7.15964 55.312 2.68164 49.79 2.68164C44.268 2.68164 39.79 7.15964 39.79 12.6816V87.3476H20V12.6816C20 7.15964 15.522 2.68164 10 2.68164C4.478 2.68164 0 7.15964 0 12.6816V111.826C0 129.555 3.521 146.815 10.467 163.129L11.192 164.833ZM79.58 107.348V110.699C79.58 126.406 76.33 141.641 69.919 155.982C62.924 171.632 59.523 189.115 59.523 209.428V311.069C59.523 334.252 61.445 352.951 65.57 369.913C69.874 387.611 72.055 405.819 72.055 424.032C72.055 434.917 63.2 443.772 52.315 443.772H47.264C34.933 443.772 27.524 433.432 27.524 421.964C27.524 405.065 29.406 388.137 33.119 371.652C37.468 352.342 39.054 332.915 39.054 313.134V208.3C39.054 190.004 36.047 172.162 28.868 155.293C22.983 141.472 20 126.847 20 111.825V107.347H79.58V107.348Z" fill="black"/>
<path d="M452.627 2.68164C438.403 2.68164 425.281 9.79964 417.525 21.7236C401.646 46.1366 393.254 74.4336 393.254 103.555C393.254 125.973 401.279 140.529 407.728 152.225C410.004 156.352 412.201 160.491 414.031 164.837C419.32 177.262 421.891 191.479 421.891 208.3V313.137C421.891 331.436 420.467 349.393 416.445 367.257C412.409 385.183 410.362 403.589 410.362 421.964C410.362 444.344 426.857 463.772 450.101 463.772H455.153C477.065 463.772 494.892 445.945 494.892 424.032C494.892 404.229 492.52 384.43 487.84 365.188C484.102 349.813 482.361 332.616 482.361 311.068V302.995C482.361 297.473 477.883 292.995 472.361 292.995C466.839 292.995 462.361 297.473 462.361 302.995V311.068C462.361 334.251 464.282 352.949 468.407 369.913C472.711 387.611 474.892 405.819 474.892 424.032C474.892 434.917 466.038 443.772 455.153 443.772H450.101C437.77 443.772 430.362 433.431 430.362 421.964C430.362 405.065 432.244 388.137 435.957 371.65C440.305 352.341 441.892 332.916 441.892 313.137V208.3C441.892 188.734 438.798 171.954 432.433 157C430.337 152.031 427.845 147.289 425.244 142.568C419.349 131.878 413.256 120.824 413.256 103.554C413.256 78.3136 420.53 53.7866 434.293 32.6266C438.344 26.3986 445.199 22.6806 452.629 22.6806C460.06 22.6806 466.913 26.3986 470.964 32.6266C484.725 53.7876 491.999 78.3146 491.999 103.555C491.999 118.983 485.344 131.561 478.908 143.725C476.679 147.939 474.572 151.919 472.757 155.982C465.761 171.63 462.361 189.113 462.361 209.428V214.487C462.361 220.009 466.839 224.487 472.361 224.487C477.883 224.487 482.361 220.009 482.361 214.487V209.428C482.361 191.984 485.192 177.171 491.016 164.144C492.561 160.687 494.516 156.992 496.586 153.079C503.453 140.1 511.999 123.949 511.999 103.556C511.999 74.4346 503.606 46.1376 487.728 21.7246C479.974 9.79964 466.852 2.68164 452.627 2.68164Z" fill="black"/>
<path d="M381.715 317.719C381.715 273.797 359.332 235.006 325.375 212.148C354.749 190.063 372.437 155.29 372.437 117.907C372.437 52.892 319.549 0 254.541 0C189.533 0 136.644 52.892 136.644 117.906C136.644 155.289 154.332 190.063 183.706 212.148C149.749 235.006 127.367 273.797 127.367 317.719V317.721V317.722C127.369 387.844 184.418 444.893 254.541 444.893C324.664 444.894 381.715 387.843 381.715 317.719ZM156.644 117.906C156.644 63.92 200.56 19.999 254.54 19.999C308.52 19.999 352.436 63.92 352.436 117.906C352.436 152.028 334.697 183.542 305.817 201.312C289.667 194.163 272.444 190.542 254.54 190.542C236.636 190.542 219.413 194.162 203.263 201.312C174.383 183.542 156.644 152.029 156.644 117.906ZM147.837 327.72H154.912C160.434 327.72 164.911 323.242 164.911 317.719C164.911 312.197 160.433 307.72 154.91 307.72H147.836C152.589 256.588 193.409 215.768 244.54 211.014V219.094C244.54 224.616 249.018 229.094 254.54 229.094C260.062 229.094 264.54 224.616 264.54 219.094V211.014C315.671 215.768 356.491 256.587 361.244 307.718H353.165C347.643 307.718 343.165 312.196 343.165 317.718C343.165 323.24 347.643 327.718 353.165 327.718H361.244C356.49 378.849 315.671 419.669 264.54 424.422V417.348C264.54 411.826 260.062 407.348 254.54 407.348C249.018 407.348 244.54 411.826 244.54 417.348V424.422C193.41 419.669 152.591 378.851 147.837 327.72Z" fill="black"/>
<path d="M202.293 84.9258H210.507V160.141C210.507 165.663 214.985 170.141 220.507 170.141C226.029 170.141 230.507 165.663 230.507 160.141V74.9258C230.507 69.4038 226.029 64.9258 220.507 64.9258H202.293C196.771 64.9258 192.293 69.4038 192.293 74.9258C192.293 80.4478 196.77 84.9258 202.293 84.9258Z" fill="black"/>
<path d="M287.017 169.683C306.119 169.683 321.659 154.142 321.659 135.04C321.659 115.938 306.119 100.398 287.017 100.398C286.028 100.398 285.051 100.45 284.083 100.531C291.152 89.4516 298.759 83.5336 298.96 83.3786C303.362 80.0756 304.27 73.8326 300.981 69.4126C297.685 64.9806 291.419 64.0586 286.99 67.3566C285.789 68.2486 257.709 89.5716 252.804 129.605C252.524 131.376 252.375 133.19 252.375 135.039C252.375 154.142 267.915 169.683 287.017 169.683ZM301.658 135.04C301.658 143.114 295.09 149.683 287.016 149.683C278.942 149.683 272.374 143.115 272.374 135.04C272.374 126.967 278.942 120.398 287.016 120.398C295.09 120.398 301.658 126.967 301.658 135.04Z" fill="black"/>
<path d="M261.23 325.151C263.336 323.255 264.54 320.553 264.54 317.719V253.268C264.54 247.746 260.062 243.268 254.54 243.268C249.018 243.268 244.54 247.746 244.54 253.268V313.266L213.571 341.147C209.467 344.842 209.134 351.165 212.83 355.269C214.805 357.462 217.529 358.579 220.265 358.579C222.649 358.579 225.041 357.731 226.953 356.011L261.23 325.151Z" fill="black"/>
<path d="M480.682 253.184C477.598 248.684 471.387 247.39 466.812 250.424C462.266 253.439 461.049 259.759 464.052 264.283C467.067 268.825 473.382 270.073 477.912 267.054C482.464 264.02 483.664 257.733 480.682 253.184Z" fill="black"/>
</svg>
