<svg width="512" height="512" viewBox="0 0 512 512" fill="none" xmlns="http://www.w3.org/2000/svg">
<path d="M256 512C397.385 512 512 397.385 512 256C512 114.615 397.385 0 256 0C114.615 0 0 114.615 0 256C0 397.385 114.615 512 256 512Z" fill="#97CAFA"/>
<path d="M380.968 130.758L130.757 380.969L117.977 393.749L235.402 511.174C242.197 511.715 249.064 512 255.999 512C397.384 512 511.999 397.385 511.999 256C511.999 249.065 511.714 242.198 511.173 235.402L393.748 117.977L380.968 130.758Z" fill="#5EB5FC"/>
<path d="M61 256C61 363.696 148.304 451 256 451L283.894 256L256 61C148.304 61 61 148.304 61 256Z" fill="#555A65"/>
<path d="M451 256C451 148.304 363.696 61 256 61V451C363.696 451 451 363.696 451 256Z" fill="#333940"/>
<path d="M86 256C86 349.888 162.112 426 256 426L281.34 256L256 86C162.112 86 86 162.112 86 256Z" fill="white"/>
<path d="M426 256C426 162.112 349.888 86 256 86V426C349.888 426 426 349.888 426 256Z" fill="#E9EDF5"/>
<path d="M139.828 239.648L165.002 256.534C165.135 279.333 173.784 302.096 190.95 319.635L149.936 360.649C121.466 331.801 107.154 294.229 107.001 256.608L139.828 239.648Z" fill="#2D9BDE" stroke="black" stroke-width="2"/>
<path d="M150.203 151.081L182.85 162.16L191.24 192.068C173.999 209.528 165.254 232.228 165.005 255H107.003C107.254 217.392 121.654 179.863 150.203 151.081Z" fill="#2D9BDE" stroke="black" stroke-width="2"/>
<path d="M255.499 165.001C232.69 165.127 209.915 173.777 192.367 190.95L151.354 149.936C180.211 121.456 217.799 107.144 255.433 107.001L274.528 139.363L255.499 165.001Z" fill="#2D9BDE" stroke="black" stroke-width="2"/>
<path d="M362.066 149.934C332.777 120.645 294.388 106 256 106V166C279.033 166 302.066 174.787 319.64 192.36L350.277 183.851L362.066 149.934Z" fill="#2D9BDE"/>
<path d="M346.998 255.315C346.828 232.565 338.178 209.865 321.051 192.363L362.064 151.35C390.515 180.177 404.827 217.718 404.999 255.313L375.812 266.523L346.998 255.315Z" fill="#2D9BDE" stroke="black" stroke-width="2"/>
<path d="M346.995 257H404.997C404.747 294.49 390.436 331.902 362.064 360.649L321.051 319.636C338.099 302.216 346.748 279.644 346.995 257Z" fill="#2D9BDE" stroke="black" stroke-width="2"/>
<path d="M264.98 264.982C272.468 257.494 271.647 245.124 263.235 238.691L158.914 158.916L238.689 263.237C245.122 271.649 257.491 272.47 264.98 264.982Z" fill="#555A65"/>
<path d="M243.338 296.613C234.275 341.808 188.542 343.972 194.408 396.075C198.256 427.122 225.095 450.584 255.996 450.995L274.254 379.39L255.996 303.445C251.686 300.335 247.199 298.16 243.338 296.613Z" fill="#FF6A4D"/>
<path d="M256.273 450.999C321.063 449.053 336.377 370.491 295.373 338.57C286.744 348.043 282.11 348.898 279.48 347.972C272.688 345.58 276.161 330.218 267.597 315.879C264.441 310.595 260.308 306.552 256 303.443V450.993C256.09 450.995 256.181 450.998 256.273 450.999Z" fill="#FA455C"/>
<path d="M248.55 360.18C243.218 386.767 216.315 388.04 219.766 418.69C222.03 436.954 237.818 450.756 255.996 450.998L265.611 414.003L255.997 364.199C253.461 362.37 250.822 361.09 248.55 360.18Z" fill="#FDE575"/>
<path d="M256.154 451.001C294.268 449.856 303.276 403.641 279.155 384.863C274.079 390.436 271.353 390.939 269.805 390.394C265.809 388.987 267.852 379.95 262.814 371.515C260.957 368.407 258.526 366.028 255.992 364.199V450.998C256.047 450.998 256.1 451.001 256.154 451.001Z" fill="#FCC74C"/>
</svg>
