<svg width="448" height="449" viewBox="0 0 448 449" fill="none" xmlns="http://www.w3.org/2000/svg">
<path d="M383.473 242.723C338.964 287.233 252.199 296.109 198.505 297.012C171.089 297.473 150.516 276.899 150.976 249.483C151.879 195.789 160.753 109.025 205.265 64.5147C272.593 -2.81331 336.905 -7.02451 395.958 52.0283C455.01 111.081 450.801 175.395 383.473 242.723Z" fill="#2D9BDE"/>
<path d="M110.825 372.804C125.588 387.566 125.588 411.502 110.825 426.265C96.0623 441.028 72.1263 441.03 57.3615 426.265C50.4858 419.387 46.9487 410.511 46.4794 401.508C37.4746 401.039 28.5999 397.504 21.722 390.626C6.95724 375.861 6.95724 351.927 21.722 337.162C36.4868 322.397 60.4207 322.4 75.1834 337.162L151.416 260.93L187.058 296.571L110.825 372.804Z" fill="#2D9BDE"/>
<path d="M197.608 307.695L198.692 307.684C261.297 306.622 345.484 295.81 391.025 250.268C481.211 160.06 447.588 88.5696 403.505 44.4864C371.837 12.8299 337.962 -2.09703 303.025 0.236839C268.546 2.49817 233.109 21.5808 197.734 56.9771C152.172 102.53 141.358 186.707 140.317 249.31C140.277 251.731 140.642 254.048 140.87 256.403L74.3589 322.914C55.6091 311.07 30.4848 313.321 14.1712 329.624C-4.72373 348.518 -4.72373 379.268 14.1712 398.176C20.4837 404.478 28.4219 408.843 37.0875 410.895C39.1291 419.571 43.5045 427.499 49.8171 433.811C58.984 442.968 71.1504 448.009 84.0869 448.009C97.0448 448.009 109.211 442.968 118.357 433.811C127.524 424.666 132.565 412.489 132.565 399.541C132.565 390.229 129.941 381.312 125.064 373.634L191.581 307.136C193.589 307.332 195.554 307.695 197.608 307.695ZM103.274 365.267C101.273 367.268 100.149 369.975 100.149 372.809C100.149 375.642 101.273 378.351 103.274 380.35C108.398 385.474 111.231 392.288 111.231 399.537C111.231 406.786 108.398 413.6 103.274 418.724C93.0235 428.975 75.1483 428.975 64.8997 418.724C60.232 414.057 57.4821 407.755 57.128 400.964C56.8571 395.505 52.5029 391.142 47.0437 390.85C42.2309 390.601 35.2315 389.047 29.2517 383.078C18.6896 372.495 18.6896 355.287 29.2517 344.704C39.8139 334.142 57.0427 334.121 67.6475 344.704C71.8139 348.87 78.5637 348.87 82.7301 344.704L148.025 279.409C150.453 283.678 153.233 287.736 156.753 291.256C160.266 294.769 164.319 297.542 168.58 299.968L103.274 365.267ZM161.649 249.664C162.44 201.643 170.169 114.705 212.814 72.0598C244.439 40.4352 275.253 23.4347 304.398 21.519C306.231 21.4038 308.066 21.3419 309.898 21.3419C336.627 21.3419 363.022 34.1867 388.42 59.5712C443.274 114.447 439.212 171.904 375.94 235.185C333.294 277.82 246.357 285.54 198.314 286.351C188.793 286.904 178.585 282.925 171.835 276.164C165.085 269.425 161.48 260.009 161.649 249.664Z" fill="#0F172A"/>
</svg>
