<svg width="512" height="512" viewBox="0 0 512 512" fill="none" xmlns="http://www.w3.org/2000/svg">
<path d="M345.095 438.115H83.9993C51.5503 438.115 24.6253 413.023 22.3413 380.654L0.156252 66.16C-2.36575 30.399 25.9643 0 61.8143 0H367.28C403.13 0 431.46 30.399 428.938 66.16L406.753 380.653C404.469 413.022 377.544 438.115 345.095 438.115Z" fill="#2D9BDE"/>
<path d="M367.283 0H326.076C361.926 0 390.256 30.399 387.734 66.16L365.549 380.653C363.266 413.022 336.341 438.114 303.891 438.114H345.098C377.547 438.114 404.472 413.022 406.756 380.653L428.94 66.16C431.463 30.399 403.132 0 367.283 0Z" fill="#1479B7"/>
<path d="M330.395 148.737H98.6922C90.8781 148.737 84.3991 142.687 83.8641 134.892L78.4731 56.3712C77.8831 47.7822 84.6922 40.4902 93.3012 40.4902H335.785C344.394 40.4902 351.203 47.7822 350.613 56.3712L345.222 134.892C344.688 142.687 338.209 148.737 330.395 148.737Z" fill="#99CAF7"/>
<path d="M178.658 93.6108L198.423 75.4438C199.932 74.0567 200.827 72.1274 200.914 70.08C201 68.0327 200.27 66.0349 198.883 64.5258C197.496 63.0175 195.567 62.1217 193.519 62.0354C191.472 61.9492 189.474 62.6795 187.965 64.0658L173.483 77.3768V69.1108C173.483 67.0617 172.669 65.0966 171.22 63.6477C169.771 62.1988 167.806 61.3848 165.757 61.3848C163.708 61.3848 161.743 62.1988 160.294 63.6477C158.845 65.0966 158.031 67.0617 158.031 69.1108V120.117C158.031 122.166 158.845 124.131 160.294 125.58C161.743 127.029 163.708 127.843 165.757 127.843C167.806 127.843 169.771 127.029 171.22 125.58C172.669 124.131 173.483 122.166 173.483 120.117V110.09L189.64 125.678C191.079 127.07 193.003 127.847 195.004 127.844C196.544 127.844 198.049 127.384 199.326 126.523C200.603 125.662 201.593 124.439 202.17 123.01C202.746 121.582 202.883 120.015 202.562 118.508C202.241 117.002 201.478 115.626 200.369 114.557L178.658 93.6108ZM263.337 86.8878H248.079C246.03 86.8878 244.065 87.7018 242.616 89.1507C241.167 90.5996 240.353 92.5647 240.353 94.6138C240.353 96.6629 241.167 98.628 242.616 100.077C244.065 101.526 246.03 102.34 248.079 102.34H254.485C252.702 107.942 248.654 112.39 241.322 112.39C231.52 112.39 223.545 104.416 223.545 94.6128C223.545 84.8108 231.519 76.8368 241.322 76.8368C244.862 76.8298 248.323 77.8857 251.256 79.8678C252.097 80.4358 253.041 80.8326 254.035 81.0356C255.029 81.2386 256.054 81.2438 257.05 81.0509C258.046 80.8581 258.994 80.4709 259.841 79.9115C260.687 79.3522 261.415 78.6315 261.983 77.7908C262.551 76.9501 262.948 76.0057 263.151 75.0116C263.354 74.0176 263.359 72.9932 263.166 71.9971C262.974 71.0011 262.586 70.0527 262.027 69.2062C261.468 68.3598 260.747 67.6318 259.906 67.0638C254.42 63.3528 247.946 61.3744 241.322 61.3848C222.999 61.3848 208.093 76.2908 208.093 94.6138C208.093 112.937 222.999 127.843 241.322 127.843C258.834 127.843 271.063 114.179 271.063 94.6138C271.063 92.5647 270.249 90.5996 268.8 89.1507C267.351 87.7018 265.386 86.8878 263.337 86.8878Z" fill="#2D9BDE"/>
<path d="M307.209 386.996H121.89C119.841 386.996 117.876 387.81 116.427 389.259C114.978 390.708 114.164 392.673 114.164 394.722C114.164 396.771 114.978 398.736 116.427 400.185C117.876 401.634 119.841 402.448 121.89 402.448H307.209C309.258 402.448 311.223 401.634 312.672 400.185C314.121 398.736 314.935 396.771 314.935 394.722C314.935 392.673 314.121 390.708 312.672 389.259C311.223 387.81 309.258 386.996 307.209 386.996Z" fill="#99CAF7"/>
<path d="M381.822 512.001C453.719 512.001 512.003 453.717 512.003 381.82C512.003 309.923 453.719 251.639 381.822 251.639C309.925 251.639 251.641 309.923 251.641 381.82C251.641 453.717 309.925 512.001 381.822 512.001Z" fill="#1A7EBB"/>
<path d="M381.823 251.637C374.811 251.637 367.931 252.199 361.219 253.266C423.324 263.143 470.797 316.933 470.797 381.818C470.797 446.703 423.325 500.494 361.219 510.37C368.033 511.454 374.923 511.999 381.823 511.999C453.72 512 512.004 453.716 512.004 381.819C512.004 309.922 453.72 251.637 381.823 251.637Z" fill="#0A4B73"/>
<path d="M431.288 406.183C425.641 399.648 415.766 398.927 409.231 404.574L397.458 414.746V314.771C397.458 306.134 390.457 299.133 381.82 299.133C373.183 299.133 366.182 306.134 366.182 314.771V414.747L354.409 404.575C347.874 398.928 337.999 399.65 332.352 406.184C326.706 412.72 327.426 422.595 333.961 428.241L371.596 460.758C377.38 465.753 386.261 465.765 392.044 460.758L429.679 428.241C436.214 422.593 436.934 412.718 431.288 406.183Z" fill="white"/>
</svg>
