<svg width="290" height="400" viewBox="0 0 290 400" fill="none" xmlns="http://www.w3.org/2000/svg">
<path d="M217.953 142.089V95.1917C217.953 88.9707 222.996 83.9277 229.218 83.9277H285.042C287.678 83.9277 289.814 86.0647 289.814 88.6997V96.1017C289.814 98.7377 287.677 100.875 285.042 100.875H239.62C237.018 100.875 234.908 102.984 234.908 105.587V142.088" fill="#2D9BDE"/>
<path d="M119.189 162.475H5.28125C6.11625 155.272 7.93225 148.234 10.6672 141.573L14.5302 132.186L18.4482 122.68C19.9162 124.277 21.2742 125.937 22.5862 127.543C27.6702 133.773 31.6892 138.701 39.9832 138.701C48.2772 138.701 52.2972 133.773 57.3802 127.543C62.9322 120.734 69.2353 113.008 81.8893 113.008C94.5433 113.008 100.837 120.734 106.398 127.543C107.536 128.938 108.619 130.268 109.711 131.488L113.73 141.205C114.473 143.003 115.153 144.82 115.758 146.674C117.436 151.794 118.593 157.089 119.189 162.475Z" fill="#2D9BDE"/>
<path d="M119.71 358.25V378.41H4.72656V358.838C4.72656 354.543 5.16656 350.268 6.04756 346.084L14.6536 314.738C15.2776 310.748 15.2776 306.654 14.6536 302.664L5.67956 244.957C5.41256 243.24 5.20156 241.525 5.05556 239.791H119.36C119.231 241.194 119.056 242.59 118.855 243.984L110.174 302.938C109.614 306.755 109.623 310.646 110.193 314.462L118.488 345.991C119.297 350.02 119.71 354.131 119.71 358.25Z" fill="#2D9BDE"/>
<path d="M171.054 285.753C173.138 285.753 174.827 284.064 174.827 281.98C174.827 279.896 173.138 278.207 171.054 278.207C168.97 278.207 167.281 279.896 167.281 281.98C167.281 284.064 168.97 285.753 171.054 285.753Z" fill="#232323"/>
<path d="M190.354 287.788C192.552 287.788 194.333 286.007 194.333 283.809C194.333 281.612 192.552 279.83 190.354 279.83C188.156 279.83 186.375 281.612 186.375 283.809C186.375 286.007 188.156 287.788 190.354 287.788Z" fill="#232323"/>
<path d="M238.581 331.38C240.778 331.38 242.56 329.598 242.56 327.401C242.56 325.203 240.778 323.422 238.581 323.422C236.383 323.422 234.602 325.203 234.602 327.401C234.602 329.598 236.383 331.38 238.581 331.38Z" fill="#232323"/>
<path d="M255.268 313.079C257.466 313.079 259.247 311.298 259.247 309.1C259.247 306.903 257.466 305.121 255.268 305.121C253.071 305.121 251.289 306.903 251.289 309.1C251.289 311.298 253.071 313.079 255.268 313.079Z" fill="#232323"/>
<path d="M238.581 355.55C240.778 355.55 242.56 353.768 242.56 351.571C242.56 349.373 240.778 347.592 238.581 347.592C236.383 347.592 234.602 349.373 234.602 351.571C234.602 353.768 236.383 355.55 238.581 355.55Z" fill="#232323"/>
<path d="M245.237 219.019C247.434 219.019 249.216 217.237 249.216 215.04C249.216 212.842 247.434 211.061 245.237 211.061C243.039 211.061 241.258 212.842 241.258 215.04C241.258 217.237 243.039 219.019 245.237 219.019Z" fill="#232323"/>
<path d="M226.596 230.88C228.794 230.88 230.575 229.098 230.575 226.901C230.575 224.703 228.794 222.922 226.596 222.922C224.399 222.922 222.617 224.703 222.617 226.901C222.617 229.098 224.399 230.88 226.596 230.88Z" fill="#232323"/>
<path d="M171.054 305.192C173.138 305.192 174.827 303.503 174.827 301.419C174.827 299.336 173.138 297.646 171.054 297.646C168.97 297.646 167.281 299.336 167.281 301.419C167.281 303.503 168.97 305.192 171.054 305.192Z" fill="#232323"/>
<path d="M67.4453 310.32H57.4453V352.7H67.4453V310.32Z" fill="#232323"/>
<path d="M78.9476 312.089L88.4297 353.189L98.1737 350.941L88.6916 309.841L78.9476 312.089Z" fill="#232323"/>
<path d="M26.7638 350.932L36.5078 353.18L45.9899 312.08L36.2459 309.832L26.7638 350.932Z" fill="#232323"/>
<path d="M124.074 245.039C124.678 240.941 124.983 236.76 124.983 232.611V171.879C124.983 160.685 122.841 149.831 118.619 139.618L94.046 80.184C89.722 69.725 87.525 58.6 87.518 47.117L87.506 29.616V12.307C87.506 5.521 81.985 0 75.199 0H49.689C42.902 0 37.381 5.521 37.381 12.307V34.511H37.389L37.395 47.198C37.401 58.672 35.22 69.792 30.915 80.25L6.317 139.994C2.126 150.174 0 160.99 0 172.142V232.925C0 237.308 0.341 241.722 1.014 246.046L9.993 303.753C10.522 307.161 10.537 310.614 10.034 314.024L1.501 345.079L1.429 345.377C0.482001 349.893 0.000999451 354.53 0.000999451 359.159V386.994C0.000999451 393.856 5.305 399.438 11.823 399.438H113.162C119.681 399.438 124.984 393.856 124.984 386.994V358.58C124.984 354.137 124.541 349.68 123.667 345.333L115.373 313.785C114.913 310.535 114.923 307.242 115.4 303.992L124.074 245.039ZM47.382 12.307C47.382 11.035 48.417 10 49.69 10H75.2C76.471 10 77.507 11.035 77.507 12.307V24.511H47.383L47.382 12.307ZM11.184 347.578L19.753 316.39L19.872 315.834C20.575 311.315 20.575 306.733 19.872 302.216L10.937 244.792H31.633V234.792H10.034C10.018 234.169 9.998 233.546 9.998 232.925V172.142C9.998 170.578 10.062 169.024 10.157 167.476H85.886V157.476H11.433C12.363 152.8 13.739 148.23 15.563 143.801L40.161 84.056C44.732 72.953 47.152 61.19 47.373 49.063H66.172V39.063H47.391L47.389 34.51H77.509L77.512 39.063H73.509V49.063H77.541C77.784 61.174 80.222 72.919 84.804 84.003L109.377 143.438C111.256 147.982 112.664 152.673 113.6 157.476H101.303V167.476H114.842C114.926 168.937 114.983 170.403 114.983 171.878V232.61C114.983 233.337 114.963 234.064 114.943 234.792H47.05V244.792H114.002L105.505 302.536C104.871 306.845 104.875 311.215 105.519 315.522L113.89 347.444C114.615 351.098 114.983 354.843 114.983 358.579V372.449H10V359.159C10 355.27 10.398 351.373 11.184 347.578ZM113.161 389.439H11.822C10.835 389.439 10 388.32 10 386.995V382.45H114.983V386.995C114.983 388.32 114.148 389.439 113.161 389.439Z" fill="#232323"/>
<path d="M228.584 299.46L210.333 277.999C208.261 275.563 208.556 271.907 210.993 269.835L232.453 251.585C234.89 249.513 238.545 249.808 240.617 252.245L258.868 273.704C260.94 276.142 260.644 279.796 258.208 281.868L236.748 300.12C234.311 302.192 230.656 301.897 228.584 299.46Z" fill="#2D9BDE"/>
<path d="M170.847 251.691L162.166 224.89C161.181 221.847 162.849 218.581 165.892 217.595L192.693 208.914C195.736 207.929 199.002 209.597 199.988 212.64L208.669 239.441C209.654 242.484 207.986 245.75 204.943 246.736L178.142 255.416C175.099 256.402 171.833 254.734 170.847 251.691Z" fill="#2D9BDE"/>
<path d="M209.93 355.855H178.737C175.538 355.855 172.945 353.261 172.945 350.063V318.869C172.945 315.671 175.538 313.078 178.737 313.078H209.93C213.129 313.078 215.722 315.671 215.722 318.869V350.063C215.722 353.262 213.13 355.855 209.93 355.855Z" fill="#2D9BDE"/>
<path d="M283.831 137.093H226.01V95.5715C226.01 93.6755 227.553 92.1336 229.448 92.1336H276.064C279.957 92.1336 283.123 88.9675 283.123 85.0755V72.2435C283.123 68.3515 279.957 65.1855 276.064 65.1855H222.017C208.979 65.1855 198.372 75.7916 198.372 88.8296V137.094H137.075C134.027 137.094 131.547 139.574 131.547 142.622V169.221C131.547 172.269 134.027 174.749 137.075 174.749H139.346L150.068 377.156C150.172 379.052 151.237 380.67 152.766 381.578V393.801C152.766 396.849 155.245 399.328 158.293 399.328H262.613C265.661 399.328 268.141 396.849 268.141 393.801V381.988C270.12 381.23 271.562 379.371 271.676 377.125L281.579 174.75H283.83C286.878 174.75 289.358 172.27 289.358 169.222V142.623C289.359 139.573 286.879 137.093 283.831 137.093ZM209.673 83.0555L216.605 89.9865H208.374V88.8286C208.373 86.7636 208.847 84.8125 209.673 83.0555ZM273.123 82.1326H234.088V75.1845H273.123V82.1326ZM224.088 75.1855V83.2555C224.071 83.2625 224.055 83.2725 224.038 83.2795L216.935 76.1766C218.507 75.5426 220.22 75.1845 222.017 75.1845L224.088 75.1855ZM208.373 99.9865H216.01V137.093H208.373V99.9865ZM141.547 147.093H279.36V164.748H276.291H144.619H141.547V147.093ZM258.141 389.327H162.765V382.358H258.141V389.327ZM261.897 372.358H159.827L149.36 174.748H271.568L261.897 372.358Z" fill="#232323"/>
</svg>
