<svg width="488" height="336" viewBox="0 0 488 336" fill="none" xmlns="http://www.w3.org/2000/svg">
<path d="M150.466 33.3298H300.978C304.933 33.3298 308.138 30.1238 308.138 26.1688C308.138 22.2138 304.933 19.0078 300.978 19.0078H150.466C146.511 19.0078 143.305 22.2138 143.305 26.1688C143.305 30.1238 146.511 33.3298 150.466 33.3298Z" fill="#2D9BDE"/>
<path d="M15.8563 103.346H166.367C170.322 103.346 173.528 100.14 173.528 96.1854C173.528 92.2304 170.322 89.0254 166.367 89.0254H15.8563C11.9013 89.0254 8.69531 92.2304 8.69531 96.1854C8.69531 100.14 11.9013 103.346 15.8563 103.346Z" fill="#2D9BDE"/>
<path d="M56.2578 177.023C56.2578 180.978 59.4638 184.185 63.4188 184.185H213.93C217.885 184.185 221.091 180.978 221.091 177.023C221.091 173.068 217.885 169.863 213.93 169.863H63.4188C59.4638 169.863 56.2578 173.068 56.2578 177.023Z" fill="#2D9BDE"/>
<path d="M142.396 260.248H7.161C3.206 260.248 0 263.453 0 267.408C0 271.363 3.206 274.569 7.161 274.569H142.396C146.351 274.569 149.557 271.363 149.557 267.408C149.557 263.453 146.351 260.248 142.396 260.248Z" fill="#2D9BDE"/>
<path d="M385.728 78.227C407.328 78.227 424.839 60.714 424.839 39.113C424.839 17.512 407.327 0 385.728 0C364.123 0 346.609 17.513 346.609 39.113C346.608 60.714 364.122 78.227 385.728 78.227Z" fill="#2D9BDE"/>
<path d="M450.065 66.9635C427.606 98.4225 397.532 102.065 365.17 82.8535C362.967 81.5475 353.193 76.1625 351.029 74.8765C298.968 43.9705 246.968 56.0905 212.095 104.926C197.276 125.697 231.55 145.385 246.203 124.856C264.221 99.6245 287.132 92.3235 312.189 100.315C299.359 122.585 288.142 144.72 272.314 176.168C256.482 207.616 221.527 232.73 187.94 213.088C163.705 198.923 141.85 233.739 166.012 247.86C211.866 274.659 265.631 258.203 293.078 223.367C294.03 223.876 295.036 224.335 296.14 224.721C318.562 232.533 347.954 253.331 356.91 260.702C365.863 268.073 381.246 305.623 390.381 324.49C401.463 347.383 437.252 330.709 426.129 307.719C415.774 286.313 398.393 243.59 384.836 232.781C373.961 224.112 352.848 207.978 334.941 198.825C347.056 175.359 359.67 152.146 372.949 129.334C415.277 142.303 455.51 127.026 484.164 86.8885C498.995 66.1205 464.729 46.4325 450.065 66.9635Z" fill="#2D9BDE"/>
<path d="M300.978 32.3298H150.466C147.063 32.3298 144.305 29.5715 144.305 26.1688C144.305 22.7661 147.063 20.0078 150.466 20.0078H300.978C304.38 20.0078 307.138 22.7659 307.138 26.1688C307.138 29.5717 304.38 32.3298 300.978 32.3298Z" stroke="black" stroke-width="2"/>
<path d="M166.367 102.346H15.8563C12.4536 102.346 9.69531 99.5881 9.69531 96.1854C9.69531 92.7829 12.4534 90.0254 15.8563 90.0254H166.367C169.77 90.0254 172.528 92.7829 172.528 96.1854C172.528 99.5881 169.77 102.346 166.367 102.346Z" stroke="black" stroke-width="2"/>
<path d="M63.4188 183.185C60.0163 183.185 57.2578 180.426 57.2578 177.023C57.2578 173.621 60.0159 170.863 63.4188 170.863H213.93C217.333 170.863 220.091 173.621 220.091 177.023C220.091 180.426 217.332 183.185 213.93 183.185H63.4188Z" stroke="black" stroke-width="2"/>
<path d="M7.161 261.248H142.396C145.799 261.248 148.557 264.006 148.557 267.408C148.557 270.811 145.799 273.569 142.396 273.569H7.161C3.75828 273.569 1 270.811 1 267.408C1 264.006 3.7581 261.248 7.161 261.248Z" stroke="black" stroke-width="2"/>
<path d="M423.839 39.113C423.839 60.1618 406.776 77.227 385.728 77.227C364.675 77.227 347.608 60.1616 347.609 39.113C347.609 18.0654 364.676 1 385.728 1C406.775 1 423.839 18.0643 423.839 39.113Z" stroke="black" stroke-width="2"/>
<path d="M245.39 124.275L245.39 124.276C238.435 134.019 226.817 134.275 218.599 129.514C214.498 127.138 211.339 123.556 210.069 119.398C208.809 115.275 209.369 110.47 212.909 105.508C230.231 81.2503 251.752 66.1828 275.333 60.9747C298.91 55.7673 324.668 60.3898 350.519 75.7361C351.616 76.388 354.617 78.0652 357.598 79.7304L357.625 79.7456C360.613 81.4153 363.576 83.0706 364.66 83.7134C380.975 93.3986 396.824 97.3892 411.499 94.896C426.189 92.4001 439.535 83.4352 450.879 67.5445C457.84 57.7993 469.459 57.5439 477.674 62.3041C481.774 64.6798 484.931 68.261 486.199 72.4183C487.456 76.5406 486.894 81.3455 483.351 86.3073L484.164 86.8885L483.351 86.3074C454.91 126.147 415.102 141.204 373.242 128.378L372.484 128.146L372.085 128.831C358.796 151.66 346.174 174.888 334.053 198.367L333.592 199.259L334.486 199.716C352.294 208.818 373.338 224.894 384.213 233.563C387.465 236.156 391.021 240.734 394.706 246.574C398.378 252.393 402.128 259.382 405.789 266.723C410.16 275.488 414.359 284.66 418.144 292.926C420.724 298.562 423.111 303.777 425.229 308.155L426.129 307.719L425.229 308.155C427.887 313.648 427.721 318.694 425.88 322.853C424.028 327.039 420.445 330.401 416.159 332.405C411.873 334.409 406.952 335.023 402.47 333.796C398.014 332.577 393.929 329.523 391.282 324.055L390.381 324.49L391.282 324.055C389.127 319.606 386.623 314.112 383.931 308.204L383.467 307.186C380.6 300.898 377.537 294.196 374.479 287.851C371.421 281.509 368.36 275.506 365.495 270.62C362.653 265.772 359.936 261.898 357.546 259.93L357.546 259.93C353.029 256.213 343.406 249.146 332.108 242.031C320.817 234.921 307.789 227.721 296.471 223.777C295.422 223.411 294.463 222.974 293.55 222.486L292.811 222.091L292.293 222.749C265.115 257.243 211.887 273.513 166.517 246.997L166.012 247.86L166.517 246.997C160.705 243.6 157.73 239.011 156.819 234.289C155.903 229.542 157.054 224.564 159.674 220.4C164.906 212.085 175.855 207.183 187.436 213.952C204.57 223.972 222.075 222.562 237.247 214.674C252.384 206.806 265.216 192.492 273.208 176.618L273.208 176.618C289.038 145.166 300.242 123.056 313.056 100.815L313.675 99.7397L312.493 99.3628C299.791 95.3112 287.571 95.1198 276.22 99.1855C264.874 103.249 254.489 111.533 245.39 124.275Z" stroke="black" stroke-width="2"/>
</svg>
