<svg width="401" height="513" viewBox="0 0 401 513" fill="none" xmlns="http://www.w3.org/2000/svg">
<path d="M362.153 418.596C361.334 440.47 369.966 458.314 382.898 475.173C387.509 481.183 392.659 487.069 398.13 492.965C404.399 500.54 399.021 512 389.188 512H11.636C1.802 512 -3.576 500.54 2.694 492.965C8.186 487.048 13.357 481.163 17.957 475.173C30.92 458.304 39.5 440.574 38.671 418.596V168.612C38.671 138.562 28.174 109.455 8.994 86.327H8.984C3.181 79.322 1.26521e-07 70.504 1.26521e-07 61.406V13.243C-0.000999874 5.927 5.926 0 13.242 0H387.582C394.898 0 400.825 5.927 400.825 13.243V61.406C400.825 70.504 397.644 79.322 391.841 86.327H391.831C372.651 109.455 362.154 138.562 362.154 168.612L362.153 418.596Z" fill="#2D9BDE"/>
<path d="M400.826 13.243V60.121C399.728 60.95 399.127 61.406 399.127 61.406H0V13.243C0 5.927 5.927 0 13.243 0H387.583C394.899 0 400.826 5.927 400.826 13.243Z" fill="#1380C2"/>
<path d="M398.132 492.965C392.661 487.069 387.511 481.183 382.9 475.173H74.925C65.01 475.173 58.71 464.726 63.157 455.863C68.828 444.561 72.028 432.419 71.509 418.596V168.612C71.509 138.562 61.012 109.455 41.832 86.327H41.822C36.019 79.322 32.838 70.504 32.838 61.406V13.243C32.838 5.927 38.765 0 46.08 0H13.243C5.929 0 0 5.929 0 13.243V61.406C0 70.504 3.181 79.322 8.984 86.327H8.994C28.174 109.455 38.671 138.562 38.671 168.612V418.597C39.803 448.727 23.146 470.933 2.694 492.966C-3.575 500.54 1.803 512 11.637 512C28.113 512 370.295 512 389.189 512C399.023 512 404.401 500.54 398.132 492.965Z" fill="#1380C2"/>
<path d="M83.3165 101.604C83.3165 98.709 86.0255 95.999 92.6585 95.999C100.319 95.999 102.092 99.549 105.455 99.549C109.566 99.549 111.247 94.411 111.247 91.888C111.247 84.602 97.6085 83.668 92.6585 83.668C80.9805 83.668 68.7445 88.993 68.7445 103.005C68.7445 124.864 98.3565 122.902 98.3565 134.204C98.3565 138.688 93.5925 140.369 89.2945 140.369C80.6065 140.369 77.8055 133.456 73.4145 133.456C69.8645 133.456 67.0625 138.126 67.0625 141.302C67.0625 147.467 77.3375 153.445 89.5755 153.445C103.12 153.445 112.929 146.158 112.929 132.707C112.929 109.171 83.3165 110.946 83.3165 101.604Z" fill="#0F2762"/>
<path d="M160.572 84.2286C156.929 84.2286 153.286 85.5366 153.286 88.6186V120.379L138.153 91.5136C134.603 84.6946 132.642 84.2266 127.411 84.2266C123.768 84.2266 120.125 85.6286 120.125 88.7106V148.029C120.125 151.018 123.768 152.513 127.411 152.513C131.053 152.513 134.698 151.019 134.698 148.029V116.268L152.446 148.589C154.221 151.858 157.21 152.512 160.573 152.512C164.216 152.512 167.86 151.018 167.86 148.028V88.6206C167.858 85.5376 164.214 84.2286 160.572 84.2286Z" fill="#0F2762"/>
<path d="M209.892 88.526C208.864 85.257 204.66 83.668 200.364 83.668C196.068 83.668 191.863 85.257 190.836 88.526L173.461 145.508C173.368 145.882 173.273 146.255 173.273 146.536C173.273 149.992 178.598 152.515 182.614 152.515C184.95 152.515 186.819 151.768 187.378 149.806L190.554 138.129H210.264L213.44 149.806C214.001 151.768 215.869 152.515 218.204 152.515C222.22 152.515 227.545 149.993 227.545 146.536C227.545 146.255 227.451 145.882 227.357 145.508L209.892 88.526ZM193.545 126.92L200.364 101.885L207.183 126.92H193.545Z" fill="#0F2762"/>
<path d="M255.206 96.9335C263.146 96.9335 263.427 102.913 263.52 105.341C263.708 108.705 266.882 109.731 270.806 109.731C275.757 109.731 278.093 108.423 278.093 102.818C278.093 90.9535 268.004 84.2285 254.646 84.2285C242.408 84.2285 232.227 90.2075 232.227 106.274V131.028C232.227 147.095 242.409 153.073 254.646 153.073C268.005 153.073 278.093 145.973 278.093 133.55C278.093 127.945 275.757 126.637 270.713 126.637C266.977 126.637 263.8 127.571 263.521 131.027C263.24 134.67 262.774 140.368 255.301 140.368C249.883 140.368 246.8 137.379 246.8 131.027V106.273C246.8 99.9215 249.881 96.9335 255.206 96.9335Z" fill="#0F2762"/>
<path d="M333.016 143.36L313.679 113.748L328.998 94.5045C329.746 93.4765 329.933 92.4495 329.933 91.7015C329.933 88.0585 325.075 84.2285 321.339 84.2285C319.845 84.2285 318.537 84.7895 317.509 86.2835L300.042 111.039V88.6205C300.042 85.5375 296.398 84.2305 292.755 84.2305C289.113 84.2305 285.469 85.5385 285.469 88.6205V148.031C285.469 151.02 289.112 152.515 292.755 152.515C296.397 152.515 300.042 151.021 300.042 148.031V131.123L303.965 126.079L319.938 150.367C321.152 152.329 323.021 153.076 324.982 153.076C329.186 153.076 333.763 149.433 333.763 145.789C333.762 144.948 333.484 144.107 333.016 143.36Z" fill="#0F2762"/>
<path d="M13.243 0C5.927 0 0 5.927 0 13.243V61.406H32.837V13.243C32.838 5.927 38.765 0 46.08 0H13.243Z" fill="#3B5FBA"/>
<path d="M247.832 262.301L199.719 278.583C195.683 279.949 191.683 276.434 192.518 272.256L202.474 222.448L212.43 172.64C213.265 168.462 218.309 166.755 221.51 169.568L259.667 203.094L297.824 236.62C301.025 239.432 299.98 244.654 295.945 246.019L247.832 262.301Z" fill="#07476D"/>
<path d="M162.54 436.706L149.2 485.716C148.081 489.827 142.932 491.185 139.931 488.16L104.157 452.101L68.3826 416.042C65.3816 413.017 66.7806 407.879 70.9006 406.793L120.016 393.84L169.131 380.888C173.251 379.802 177.001 383.582 175.882 387.693L162.54 436.706Z" fill="#07476D"/>
<path d="M266.035 414.437L206.8 434.482C201.831 436.164 196.906 431.836 197.934 426.693L210.191 365.372L222.448 304.051C223.476 298.907 229.687 296.806 233.627 300.268L280.603 341.544L327.579 382.82C331.52 386.282 330.234 392.712 325.266 394.392L266.035 414.437Z" fill="#07476D"/>
<path d="M120.133 340.087L70.7399 328.24C66.5969 327.246 65.0829 322.141 68.0159 319.05L102.971 282.197L137.926 245.344C140.857 242.253 146.036 243.495 147.248 247.58L161.685 296.279L176.122 344.978C177.333 349.063 173.668 352.927 169.526 351.933L120.133 340.087Z" fill="#07476D"/>
<path d="M329.904 438.824L329.189 491.919L328.92 512.001H256.075L228.481 495.577C224.657 493.297 224.73 487.733 228.616 485.557L274.955 459.621L321.294 433.695C325.179 431.519 329.967 434.368 329.904 438.824Z" fill="#07476D"/>
<path d="M231.854 220.939C235.282 220.939 238.06 218.161 238.06 214.733C238.06 211.306 235.282 208.527 231.854 208.527C228.427 208.527 225.648 211.306 225.648 214.733C225.648 218.161 228.427 220.939 231.854 220.939Z" fill="#1380C2"/>
<path d="M225.651 246.855C229.079 246.855 231.857 244.077 231.857 240.649C231.857 237.222 229.079 234.443 225.651 234.443C222.224 234.443 219.445 237.222 219.445 240.649C219.445 244.077 222.224 246.855 225.651 246.855Z" fill="#1380C2"/>
<path d="M255.151 240.648C258.579 240.648 261.357 237.87 261.357 234.442C261.357 231.015 258.579 228.236 255.151 228.236C251.724 228.236 248.945 231.015 248.945 234.442C248.945 237.87 251.724 240.648 255.151 240.648Z" fill="#1380C2"/>
<path d="M304.534 490.125C307.962 490.125 310.74 487.346 310.74 483.919C310.74 480.491 307.962 477.713 304.534 477.713C301.107 477.713 298.328 480.491 298.328 483.919C298.328 487.346 301.107 490.125 304.534 490.125Z" fill="#1380C2"/>
<path d="M279.417 499.016C282.844 499.016 285.623 496.237 285.623 492.81C285.623 489.382 282.844 486.604 279.417 486.604C275.989 486.604 273.211 489.382 273.211 492.81C273.211 496.237 275.989 499.016 279.417 499.016Z" fill="#1380C2"/>
<path d="M243.573 367.127C247.001 367.127 249.779 364.348 249.779 360.921C249.779 357.493 247.001 354.715 243.573 354.715C240.146 354.715 237.367 357.493 237.367 360.921C237.367 364.348 240.146 367.127 243.573 367.127Z" fill="#1380C2"/>
<path d="M244.222 393.767C247.649 393.767 250.428 390.989 250.428 387.561C250.428 384.134 247.649 381.355 244.222 381.355C240.794 381.355 238.016 384.134 238.016 387.561C238.016 390.989 240.794 393.767 244.222 393.767Z" fill="#1380C2"/>
<path d="M271.151 380.205C274.579 380.205 277.357 377.426 277.357 373.999C277.357 370.571 274.579 367.793 271.151 367.793C267.724 367.793 264.945 370.571 264.945 373.999C264.945 377.426 267.724 380.205 271.151 380.205Z" fill="#1380C2"/>
<path d="M136.792 422.037C140.219 422.037 142.998 419.258 142.998 415.831C142.998 412.404 140.219 409.625 136.792 409.625C133.364 409.625 130.586 412.404 130.586 415.831C130.586 419.258 133.364 422.037 136.792 422.037Z" fill="#1380C2"/>
<path d="M112.534 433.082C115.962 433.082 118.74 430.303 118.74 426.876C118.74 423.448 115.962 420.67 112.534 420.67C109.107 420.67 106.328 423.448 106.328 426.876C106.328 430.303 109.107 433.082 112.534 433.082Z" fill="#1380C2"/>
<path d="M135.581 452.531C139.008 452.531 141.787 449.753 141.787 446.325C141.787 442.898 139.008 440.119 135.581 440.119C132.154 440.119 129.375 442.898 129.375 446.325C129.375 449.753 132.154 452.531 135.581 452.531Z" fill="#1380C2"/>
<path d="M130.878 297.318C134.305 297.318 137.084 294.54 137.084 291.112C137.084 287.685 134.305 284.906 130.878 284.906C127.45 284.906 124.672 287.685 124.672 291.112C124.672 294.54 127.45 297.318 130.878 297.318Z" fill="#1380C2"/>
<path d="M112.495 316.613C115.923 316.613 118.701 313.835 118.701 310.407C118.701 306.98 115.923 304.201 112.495 304.201C109.068 304.201 106.289 306.98 106.289 310.407C106.289 313.835 109.068 316.613 112.495 316.613Z" fill="#1380C2"/>
<path d="M141.136 326.053C144.563 326.053 147.342 323.274 147.342 319.847C147.342 316.419 144.563 313.641 141.136 313.641C137.708 313.641 134.93 316.419 134.93 319.847C134.93 323.274 137.708 326.053 141.136 326.053Z" fill="#1380C2"/>
</svg>
