<svg width="513" height="432" viewBox="0 0 513 432" fill="none" xmlns="http://www.w3.org/2000/svg">
<path d="M263.603 106.347C259.19 106.145 254.77 106.145 250.357 106.347C172.916 109.803 111.195 173.688 111.195 251.981C111.195 261.56 112.117 270.918 113.881 279.986H400.08C401.871 270.759 402.77 261.38 402.765 251.981C402.765 173.688 341.044 109.803 263.603 106.347Z" fill="#2D9BDE"/>
<path d="M11 251.981C11 261.45 11.531 270.798 12.5731 279.986H113.881C112.09 270.759 111.191 261.38 111.196 251.981C111.196 211.853 127.414 175.513 153.65 149.151L82.7972 78.2988C38.4306 122.792 11 184.181 11 251.981Z" fill="#2D9BDE"/>
<path d="M431.165 78.2988L360.312 149.151C386.548 175.514 402.766 211.853 402.766 251.981C402.766 261.56 401.845 270.918 400.081 279.986H501.389C502.431 270.798 502.962 261.45 502.962 251.981C502.962 184.181 475.532 122.792 431.165 78.2988Z" fill="#2D9BDE"/>
<path d="M256.98 6C188.925 6 127.33 33.637 82.7969 78.2982L153.649 149.151C178.599 124.08 212.608 108.031 250.357 106.346C254.77 106.144 259.19 106.144 263.603 106.346C301.352 108.031 335.361 124.079 360.311 149.151L431.163 78.2982C386.63 33.638 325.035 6 256.98 6Z" fill="#2D9BDE"/>
<path d="M96.7756 201.151L251.423 277.274C265.694 284.3 282.886 277.131 287.939 262.048C292.992 246.964 283.587 230.886 267.964 227.897L98.6683 195.502C95.2275 194.843 93.6324 199.604 96.7756 201.151Z" fill="#B5B4EE"/>
<path d="M211.987 10.1055C97.6192 31.2438 11 131.493 11 251.98C11 261.448 11.531 270.797 12.5731 279.985M501.388 279.985C502.43 270.797 502.961 261.448 502.961 251.98C502.961 131.502 416.355 31.2588 302 10.1095M400.08 279.985C401.871 270.757 402.77 261.379 402.765 251.98C402.765 173.687 341.045 109.802 263.603 106.345C259.19 106.144 254.77 106.144 250.357 106.345C172.916 109.802 111.196 173.687 111.196 251.98C111.196 261.559 112.117 270.917 113.881 279.985M429.497 79.9639L360.843 148.618M153.118 148.618L84.4635 79.9639" stroke="black" stroke-width="20.0391" stroke-miterlimit="10" stroke-linecap="round" stroke-linejoin="round"/>
<path d="M12.5703 279.986H501.385M276.715 421.169L309.158 335.988C309.821 334.367 312.115 334.365 312.781 335.984L344.928 421.169M286.833 399.954H334.974M377.133 334.807V421.132H407.386M106.569 334.771V421.169M153.045 335.861L109.333 376.039L156.112 421.169M247.948 342.148C240.817 337.327 232.403 334.757 223.795 334.771C199.936 334.771 180.595 354.111 180.595 377.97C180.595 401.829 199.936 421.169 223.795 421.169C233.485 421.169 241.454 417.979 247.504 412.592C248.759 411.472 249.931 410.264 251.01 408.974M96.7728 201.151L251.42 277.274C265.692 284.3 282.883 277.131 287.936 262.048C292.989 246.964 283.585 230.886 267.961 227.897L98.6655 195.502C95.2247 194.843 93.6296 199.604 96.7728 201.151Z" stroke="black" stroke-width="20.0391" stroke-miterlimit="10" stroke-linecap="round" stroke-linejoin="round"/>
</svg>
