<svg width="472" height="410" viewBox="0 0 472 410" fill="none" xmlns="http://www.w3.org/2000/svg">
<path d="M81.8562 376.91C87.1659 376.91 91.4702 372.605 91.4702 367.296C91.4702 361.986 87.1659 357.682 81.8562 357.682C76.5465 357.682 72.2422 361.986 72.2422 367.296C72.2422 372.605 76.5465 376.91 81.8562 376.91Z" fill="#2D9BDE" stroke="black"/>
<path d="M42.3634 208.956L42.4701 209.474L42.9815 209.339C49.036 207.73 55.4262 207.903 61.3848 209.837L61.3848 209.837C68.0964 212.014 73.9702 216.214 78.201 221.861L78.4373 222.177L78.7992 222.02L80.1252 221.448L80.1252 221.448C84.0881 219.738 88.3746 218.907 92.6894 219.014C97.0042 219.12 101.245 220.16 105.119 222.063L112.445 225.663L112.665 225.214L112.445 225.663C116.629 227.719 121.381 228.315 125.944 227.356C130.506 226.397 134.617 223.939 137.62 220.372L137.62 220.372C140.907 216.464 142.665 211.497 142.568 206.391C142.471 201.285 140.526 196.388 137.093 192.607L137.093 192.607L137.088 192.602L110.319 164.016C107.96 161.493 105.112 159.476 101.949 158.089C98.7858 156.701 95.3733 155.971 91.9192 155.944C88.4651 155.917 85.0416 156.593 81.857 157.93C78.6724 159.268 75.7932 161.239 73.3946 163.725C73.3945 163.725 73.3944 163.725 73.3943 163.725L47.8576 190.146C47.8574 190.146 47.8572 190.146 47.8569 190.147C45.4761 192.595 43.7307 195.59 42.7731 198.868C41.8154 202.147 41.6747 205.61 42.3634 208.956Z" fill="#2D9BDE" stroke="black"/>
<path d="M244.993 345.886L244.992 345.865L244.994 345.886C256.855 344.8 267.262 334.969 270.368 322.045L269.882 321.928L270.368 322.045C273.731 308.051 267.642 294.404 255.749 289.663L255.745 289.662C250.848 287.761 245.489 287.39 240.377 288.598C235.265 289.805 230.639 292.533 227.11 296.423C223.571 300.274 218.981 303.003 213.907 304.271C208.834 305.54 203.5 305.293 198.566 303.562C198.565 303.562 198.565 303.561 198.564 303.561L93.6795 265.643C93.6789 265.643 93.6783 265.643 93.6776 265.642C88.777 263.819 84.5185 260.599 81.429 256.38C78.3395 252.162 76.5544 247.131 76.2947 241.908C76.0693 236.66 74.258 231.604 71.0999 227.407C67.9416 223.209 63.5847 220.068 58.6042 218.398L58.6042 218.398L58.5998 218.396C46.4302 214.441 33.0137 221.037 26.6528 233.944C20.7736 245.867 22.4877 260.079 30.9148 268.498L30.9176 268.501C31.8267 269.396 32.4601 270.532 32.7425 271.776C33.0249 273.02 32.9444 274.319 32.5106 275.518C32.0768 276.717 31.308 277.767 30.2953 278.543C29.2826 279.318 28.0687 279.786 26.7977 279.892L26.7936 279.893C14.9321 280.978 4.52687 290.81 1.42006 303.735L1.90622 303.852L1.42006 303.735C-1.94338 317.728 4.14676 331.376 16.0381 336.116L16.0423 336.118C20.9406 338.019 26.3002 338.389 31.4134 337.18C36.5257 335.972 41.1513 333.242 44.6796 329.35C47.2051 326.631 50.2609 324.459 53.6584 322.967C57.0565 321.474 60.7243 320.694 64.4355 320.675C67.4311 320.673 70.4041 321.193 73.2212 322.212L73.3912 321.742L73.2212 322.212L178.111 360.132C178.112 360.133 178.112 360.133 178.113 360.133C183.014 361.956 187.273 365.177 190.363 369.396C193.452 373.615 195.237 378.648 195.496 383.871C195.721 389.118 197.533 394.174 200.691 398.372C203.849 402.57 208.206 405.711 213.186 407.382L213.191 407.383C225.36 411.337 238.777 404.741 245.139 391.835C251.018 379.912 249.303 365.7 240.876 357.28L240.873 357.277C239.964 356.383 239.33 355.246 239.048 354.002C238.766 352.759 238.846 351.46 239.28 350.26C239.714 349.061 240.482 348.011 241.495 347.236C242.508 346.461 243.722 345.992 244.993 345.886Z" fill="#2D9BDE" stroke="black"/>
<path d="M63.0389 129.794C66.7211 129.794 69.9921 127.54 72.3194 124.025C74.6492 120.506 76.0739 115.674 76.0739 110.362C76.0739 105.05 74.6492 100.217 72.3194 96.6987C69.9921 93.1838 66.7211 90.9297 63.0389 90.9297C59.3567 90.9297 56.0857 93.1838 53.7584 96.6987C51.4286 100.217 50.0039 105.05 50.0039 110.362C50.0039 115.674 51.4286 120.506 53.7584 124.025C56.0857 127.54 59.3567 129.794 63.0389 129.794Z" fill="#2D9BDE" stroke="black"/>
<path d="M135.601 111.6C135.601 106.38 134.142 101.549 131.798 98.0093C129.459 94.4767 126.19 92.168 122.566 92.168C118.943 92.168 115.673 94.4767 113.334 98.0093C110.99 101.549 109.531 106.38 109.531 111.6C109.531 116.82 110.99 121.65 113.334 125.19C115.673 128.722 118.942 131.031 122.566 131.031C126.19 131.031 129.46 128.722 131.799 125.19C134.143 121.65 135.601 116.819 135.601 111.6Z" fill="#2D9BDE" stroke="black"/>
<path d="M173.391 137.187L173.39 137.187C172.676 136.957 171.929 136.841 171.179 136.844V136.844L171.168 136.844C169.633 136.882 168.129 137.278 166.774 138.001C162.557 140.159 158.992 144.835 157.178 150.465C155.727 154.968 155.587 159.528 156.54 163.214C157.489 166.888 159.554 169.782 162.583 170.763L162.594 170.767L162.605 170.77C164.828 171.375 167.199 171.079 169.205 169.947C173.419 167.787 176.982 163.113 178.796 157.485C180.247 152.983 180.386 148.423 179.434 144.737C178.484 141.062 176.419 138.169 173.391 137.187Z" fill="#2D9BDE" stroke="black"/>
<path d="M327.381 111.155L327.383 111.149C330.594 102.842 331.01 93.7136 328.567 85.1487L328.561 85.1284L328.553 85.1087C322.79 69.892 306.253 61.1458 290.018 64.7336L290.015 64.7342C287.522 65.3006 285.125 66.2298 282.902 67.492C282.901 67.4924 282.901 67.4927 282.9 67.493L279.608 69.3366L279.608 69.337C278.894 69.738 278.093 69.9566 277.275 69.9734C276.456 69.9901 275.646 69.8046 274.917 69.4331C274.188 69.0617 273.561 68.5158 273.094 67.8441C272.626 67.1728 272.332 66.3966 272.237 65.5843C271.796 61.5291 270.351 57.6479 268.031 54.2925L268.031 54.2925L268.027 54.287C264.936 49.9417 260.844 46.4045 256.098 43.9743C251.352 41.5443 246.09 40.2925 240.758 40.3248C236.536 40.3285 232.349 41.1007 228.403 42.6036L228.4 42.6045C228.347 42.6252 228.293 42.6445 228.236 42.6635L228.235 42.6637C225.551 43.5624 216.429 47.4775 209.047 60.6707L209.047 60.6714C204.261 69.2586 202.615 79.2443 204.392 88.9132L204.392 88.914C208.909 113.284 220.777 133.64 233.289 155.1L233.298 155.116L233.298 155.116L234.135 156.551L234.319 156.866L234.675 156.787C237.627 156.135 240.537 155.513 243.425 154.896L243.425 154.896L243.469 154.887C264.393 150.413 284.221 146.174 308.611 132.725L308.611 132.725L308.618 132.721C317.125 127.854 323.738 120.254 327.381 111.155Z" fill="#2D9BDE" stroke="black"/>
<path d="M386.582 232.471C413.263 232.471 434.891 210.844 434.891 184.166C434.891 157.488 413.263 135.861 386.582 135.861C359.902 135.861 338.273 157.488 338.273 184.166C338.273 210.844 359.902 232.471 386.582 232.471Z" fill="#2D9BDE" stroke="black"/>
<path d="M469.527 296.437L469.527 296.438C463.918 313.785 452.962 328.912 438.229 339.651C423.496 350.39 405.743 356.19 387.511 356.221H387.51C380.64 356.22 373.795 355.389 367.124 353.744C364.373 353.077 361.476 353.377 358.92 354.596C356.365 355.814 354.308 357.876 353.094 360.434L469.527 296.437ZM469.527 296.437L471.411 290.559L469.527 296.437ZM337.203 394.101L353.094 360.435L471.411 290.558C471.476 290.358 471.5 290.147 471.483 289.937C471.466 289.727 471.408 289.522 471.311 289.335C471.215 289.147 471.082 288.981 470.921 288.844C470.76 288.708 470.573 288.606 470.372 288.542L464.794 286.754L464.764 286.745L464.732 286.739C430.381 280.378 405.812 288.889 388.908 300.851C372.018 312.802 362.809 328.175 359.11 335.514L359.109 335.516C358.111 337.513 356.586 339.199 354.699 340.393C352.812 341.587 350.635 342.243 348.403 342.29L348.388 342.29L348.373 342.291L305.073 345.771L304.227 345.839L304.697 346.546L336.335 394.164L336.825 394.902L337.203 394.101Z" fill="#2D9BDE" stroke="black"/>
<path d="M163.473 0.5H163.472C161.491 0.5 159.555 1.08745 157.908 2.18805C156.261 3.28865 154.977 4.85297 154.219 6.68316C153.461 8.51334 153.263 10.5272 153.65 12.47C154.036 14.4128 154.991 16.1973 156.391 17.5978C157.792 18.9983 159.577 19.9519 161.52 20.338C163.463 20.724 165.477 20.5252 167.307 19.7668C169.137 19.0083 170.701 17.7241 171.801 16.0767C172.901 14.4294 173.488 12.4928 173.487 10.5118V10.5113C173.483 7.85676 172.427 5.31215 170.549 3.43542C168.672 1.5587 166.127 0.503063 163.473 0.5Z" fill="#2D9BDE" stroke="black"/>
<path d="M283.221 229.968V229.967C283.222 227.986 282.634 226.05 281.534 224.403C280.434 222.756 278.87 221.472 277.04 220.714C275.21 219.956 273.196 219.757 271.253 220.143C269.31 220.53 267.526 221.484 266.125 222.884C264.724 224.285 263.77 226.069 263.384 228.012C262.997 229.955 263.196 231.968 263.954 233.799C264.712 235.629 265.995 237.193 267.642 238.293C269.289 239.394 271.226 239.981 273.206 239.981H273.207C275.862 239.978 278.407 238.923 280.285 237.045C282.162 235.168 283.218 232.623 283.221 229.968Z" fill="#2D9BDE" stroke="black"/>
<path d="M415.863 44.3906H415.863C413.882 44.3906 411.946 44.978 410.299 46.0785C408.652 47.1789 407.368 48.7431 406.61 50.5731C405.852 52.4031 405.654 54.4167 406.04 56.3595C406.427 58.3022 407.38 60.0867 408.781 61.4873C410.182 62.8879 411.966 63.8418 413.909 64.2282C415.852 64.6146 417.865 64.4163 419.695 63.6583C421.525 62.9003 423.089 61.6166 424.19 59.9697C425.29 58.3227 425.878 56.3864 425.878 54.4056V54.405C425.875 51.75 424.819 49.2046 422.941 47.3272C421.064 45.4498 418.518 44.3937 415.863 44.3906Z" fill="#2D9BDE" stroke="black"/>
<path d="M305.171 32.4608V32.4603C305.171 30.4795 304.583 28.5432 303.483 26.8963C302.382 25.2493 300.818 23.9657 298.988 23.2077C297.158 22.4497 295.144 22.2513 293.202 22.6378C291.259 23.0242 289.475 23.978 288.074 25.3786C286.673 26.7793 285.719 28.5638 285.333 30.5065C284.947 32.4492 285.145 34.4629 285.903 36.2929C286.661 38.1229 287.945 39.687 289.592 40.7875C291.239 41.8879 293.175 42.4753 295.156 42.4753H295.156C297.811 42.4725 300.357 41.4165 302.234 39.5391C304.112 37.6616 305.168 35.116 305.171 32.4608Z" fill="#2D9BDE" stroke="black"/>
<path d="M284.182 382.628H284.183C286.164 382.628 288.1 382.04 289.747 380.94C291.394 379.839 292.678 378.275 293.436 376.445C294.194 374.615 294.392 372.601 294.005 370.658C293.619 368.716 292.665 366.931 291.264 365.531C289.864 364.13 288.079 363.176 286.136 362.79C284.193 362.404 282.18 362.602 280.35 363.36C278.52 364.118 276.956 365.402 275.855 367.049C274.755 368.696 274.168 370.633 274.168 372.614L274.168 372.614C274.171 375.269 275.228 377.814 277.105 379.691C278.982 381.569 281.528 382.625 284.182 382.628Z" fill="#2D9BDE" stroke="black"/>
<path d="M381.856 406.91C387.166 406.91 391.47 402.605 391.47 397.296C391.47 391.986 387.166 387.682 381.856 387.682C376.547 387.682 372.242 391.986 372.242 397.296C372.242 402.605 376.547 406.91 381.856 406.91Z" fill="#2D9BDE" stroke="black"/>
</svg>
