<svg width="416" height="480" viewBox="0 0 416 480" fill="none" xmlns="http://www.w3.org/2000/svg">
<path d="M336 448C375.765 448 408 415.765 408 376C408 336.235 375.765 304 336 304C296.235 304 264 336.235 264 376C264 415.765 296.235 448 336 448Z" fill="#62798C"/>
<path d="M248.73 293.84L223.38 315.07L173.33 240H112V192H180.92C188.913 192.002 196.723 194.398 203.343 198.878C209.962 203.359 215.088 209.72 218.06 217.14L248.73 293.84Z" fill="#2D9BDE"/>
<path d="M240.306 368V336C240.306 327.513 243.678 319.374 249.679 313.373C255.68 307.371 263.819 304 272.306 304H320V272H264C249.148 272 234.904 277.9 224.402 288.402C213.9 298.904 208 313.148 208 328V368H240.306Z" fill="#62798C"/>
<path d="M302.055 144L376.001 448H344.001L270.055 144H302.055Z" fill="#718799"/>
<path d="M168 192H112V240H168V192Z" fill="#2D9BDE"/>
<path d="M264 128H312L340.686 99.3137C342.808 97.192 345.686 96 348.686 96C350.172 96 351.643 96.2926 353.016 96.8612C354.389 97.4298 355.636 98.2631 356.686 99.3137C357.737 100.364 358.57 101.611 359.139 102.984C359.707 104.357 360 105.828 360 107.314C360 110.314 358.808 113.192 356.686 115.314L331.716 140.284C328.001 143.999 323.592 146.945 318.739 148.955C313.886 150.965 308.684 152 303.431 152H264V128Z" fill="#8098AB"/>
<path d="M240 448V416H200L216 448H240Z" fill="#718799"/>
<path d="M56 448L72 416V400H32V448H56Z" fill="#718799"/>
<path d="M104 264H72V328H104V264Z" fill="#62798C"/>
<path d="M240.306 351.109L240 416H60.9807C46.9293 416 33.4535 410.419 23.5177 400.483C13.5819 390.547 8 377.071 8 363.02C8 355.022 9.81052 347.129 13.2958 339.931C16.7811 332.733 21.8507 326.417 28.1245 321.457C34.3983 316.498 41.7135 313.023 49.5216 311.293C57.3297 309.563 65.4281 309.624 73.2095 311.47L240.306 351.109Z" fill="#8098AB"/>
<path d="M152 232H40V264H152V232Z" fill="#8098AB"/>
<path d="M200.002 269.66C200.001 281.403 195.336 292.665 187.032 300.97L136.002 352L96.0025 344L152.002 272L116.632 251.37L80.0925 230.05C73.6766 226.306 68.2052 221.14 64.0994 214.949C59.9936 208.758 57.3628 201.708 56.4094 194.341C55.456 186.974 56.2055 179.487 58.6003 172.455C60.995 165.423 64.971 159.034 70.2225 153.78L92.0025 132L160.002 64H176.002V144L128.002 192L155.002 213L182.902 234.7C188.227 238.84 192.536 244.142 195.499 250.201C198.463 256.259 200.003 262.915 200.002 269.66Z" fill="#2D9BDE"/>
<path d="M176 64V144L140 180L92 132L160 64H176Z" fill="#2D9BDE"/>
<path d="M168 24L160.505 16.505C157.809 13.8086 154.607 11.6697 151.084 10.2104C147.561 8.75109 143.785 8 139.972 8C133.971 8 128.088 9.67118 122.983 12.8263C117.878 15.9814 113.752 20.4958 111.068 25.8636C108.867 30.2651 105.691 34.1059 101.78 37.093C97.8689 40.08 93.3275 42.1345 88.502 43.0996L64 48L90.5468 57.9551C101.354 62.0079 113.184 62.4488 124.264 59.2117C135.343 55.9747 145.075 49.234 152 40L168 39.9999V24Z" fill="#2D9BDE"/>
<path d="M160 55.999L176 40H200V64C200 70.3652 197.471 76.4697 192.971 80.9706C188.47 85.4714 182.365 88 176 88C169.635 88 163.53 85.4714 159.029 80.9706C154.529 76.4697 152 70.3652 152 64V56L160 55.999Z" fill="#2D9BDE"/>
<path d="M200 40C200 33.6348 197.471 27.5303 192.971 23.0294C188.47 18.5286 182.365 16 176 16C169.635 16 163.53 18.5286 159.029 23.0294C154.529 27.5303 152 33.6348 152 40V56L160 55.999L176 40H200Z" fill="#2D9BDE"/>
<path d="M194.894 168C198.287 168 201.67 167.621 204.98 166.871L268.317 152.512C271.981 151.681 275.255 149.629 277.6 146.693C279.945 143.757 281.222 140.111 281.222 136.353C281.222 131.376 279.245 126.602 275.725 123.083C272.206 119.563 267.433 117.586 262.455 117.586C259.032 117.586 255.674 118.522 252.744 120.294L240 128H200L158.627 86.6274C156.526 84.5263 154.032 82.8595 151.287 81.7224C148.541 80.5853 145.599 80 142.627 80C139.656 80 136.714 80.5853 133.968 81.7224C131.223 82.8595 128.729 84.5263 126.627 86.6274C124.526 88.7286 122.86 91.223 121.722 93.9683C120.585 96.7135 120 99.6559 120 102.627C120 105.599 120.585 108.541 121.722 111.287C122.86 114.032 124.526 116.526 126.627 118.627L162.64 154.64C166.876 158.876 171.904 162.235 177.438 164.528C182.972 166.82 188.904 168 194.894 168Z" fill="#2D9BDE"/>
<path d="M96 344L136 352L144 392L128 408L88 352L96 344Z" fill="#E0EDFF"/>
<path d="M376 448H8V472H376V448Z" fill="#8098AB"/>
<path d="M155.002 213L116.632 251.37L80.0925 230.05C73.6766 226.306 68.2052 221.14 64.0994 214.949C59.9936 208.758 57.3628 201.708 56.4094 194.341C55.456 186.974 56.2055 179.487 58.6003 172.455C60.995 165.423 64.971 159.034 70.2225 153.78L92.0025 132L140.002 180L128.002 192L155.002 213Z" fill="#3B5FBA"/>
<path d="M8 480H376C377.051 480 378.091 479.793 379.061 479.391C380.032 478.989 380.914 478.4 381.657 477.657C382.4 476.914 382.989 476.032 383.391 475.062C383.793 474.091 384 473.051 384 472V448C383.998 447.364 383.919 446.729 383.766 446.111L383.773 446.11L382.548 441.07C395.53 431.783 405.438 418.823 410.995 403.859C416.553 388.895 417.506 372.611 413.733 357.1C409.961 341.59 401.634 327.562 389.824 316.823C378.014 306.083 363.262 299.122 347.463 296.835L313.899 158.848C322.796 156.878 330.943 152.399 337.373 145.941L362.343 120.97C365.965 117.348 367.999 112.436 367.998 107.314C367.998 102.192 365.963 97.2804 362.342 93.6587C358.72 90.037 353.808 88.0022 348.686 88.0018C343.564 88.0015 338.652 90.0357 335.03 93.657L308.687 120H283.624C279.612 114.796 273.824 111.251 267.364 110.042C260.905 108.834 254.227 110.046 248.604 113.448L237.769 120H203.314L179.157 95.8431C187.054 95.0505 194.377 91.3548 199.706 85.4719C205.034 79.589 207.99 71.9377 208 64.0002V40.0002C208.001 34.8667 206.766 29.8084 204.401 25.2524C202.035 20.6963 198.608 16.7764 194.409 13.8235C190.21 10.8706 185.362 8.97141 180.274 8.28638C175.187 7.60135 170.009 8.15056 165.178 9.88762C158.615 3.52561 149.827 -0.0221364 140.687 0.000233463H139.972C132.48 -0.0253308 125.13 2.04906 118.757 5.98815C112.383 9.92724 107.241 15.5734 103.913 22.2864C102.267 25.6053 99.8789 28.501 96.9346 30.7498C93.9903 32.9986 90.5683 34.5401 86.9331 35.2551L62.4311 40.1555C60.726 40.4965 59.1785 41.3837 58.0227 42.6828C56.867 43.9819 56.166 45.6222 56.0258 47.3554C55.8856 49.0885 56.314 50.8202 57.2459 52.2881C58.1779 53.7561 59.5628 54.8804 61.1909 55.491L87.7377 65.446C94.5665 68.0048 101.8 69.313 109.093 69.3079C121.547 69.2912 133.708 65.5323 144 58.5188V64.0002C144.002 65.4653 144.105 66.9285 144.307 68.3795L140.613 72.0738C133.208 72.5712 126.234 75.7377 120.986 80.9859C115.737 86.2341 112.571 93.2078 112.074 100.613L64.5645 148.122C54.6293 158.05 48.7476 171.321 48.0665 185.35C47.3853 199.378 51.9535 213.157 60.8801 224H40C38.9494 224 37.9091 224.207 36.9385 224.609C35.9679 225.011 35.086 225.6 34.3431 226.343C33.6002 227.086 33.0109 227.968 32.6089 228.939C32.2069 229.909 32 230.95 32 232V264C32 265.051 32.2069 266.091 32.6089 267.062C33.0109 268.032 33.6002 268.914 34.3431 269.657C35.086 270.4 35.9679 270.989 36.9385 271.391C37.9091 271.793 38.9494 272 40 272H64V302.114C51.0039 301.463 38.1405 304.988 27.2922 312.174C16.4438 319.36 8.17995 329.829 3.70967 342.05C-0.760616 354.27 -1.20262 367.601 2.44832 380.09C6.09926 392.58 13.6515 403.574 24 411.462V440H8C6.94942 440 5.90911 440.207 4.9385 440.609C3.96788 441.011 3.08595 441.6 2.34308 442.343C1.6002 443.086 1.01093 443.968 0.608902 444.939C0.206875 445.909 -3.02023e-05 446.95 3.30675e-09 448V472C-3.02023e-05 473.051 0.206875 474.091 0.608902 475.062C1.01093 476.032 1.6002 476.914 2.34308 477.657C3.08595 478.4 3.96788 478.989 4.9385 479.391C5.90911 479.793 6.94942 480 8 480ZM76.9441 424H195.056L203.056 440H68.9441L76.9441 424ZM136 272V271.929L140.073 274.304L112 310.398V272H136ZM158.315 276.912C159.015 276.012 159.515 274.973 159.78 273.864C160.046 272.755 160.071 271.602 159.855 270.483C159.639 269.363 159.186 268.303 158.526 267.373C157.866 266.443 157.016 265.664 156.031 265.09L129.626 249.687L155.663 223.651L177.993 241.019C182.054 244.177 185.396 248.163 187.799 252.712C190.202 257.261 191.61 262.269 191.93 267.403C192.25 272.538 191.474 277.682 189.654 282.494C187.834 287.306 185.011 291.675 181.374 295.313L133.371 343.316L110.262 338.694L158.315 276.912ZM120.971 124.284L152.687 156L140 168.687L103.313 132L116.575 118.738C117.823 120.749 119.298 122.61 120.971 124.284ZM266.014 161.237L291.01 264H264C258.049 264.002 252.127 264.836 246.407 266.479L225.485 214.174C221.949 205.248 215.806 197.595 207.856 192.213C199.906 186.831 190.519 183.969 180.918 184H147.314L164.653 166.661C170.742 170.819 177.622 173.676 184.865 175.055C192.108 176.433 199.558 176.303 206.748 174.673L266.014 161.237ZM304.676 320.184L333.807 439.945C319.848 439.468 306.429 434.437 295.597 425.621C284.764 416.804 277.114 404.685 273.813 391.114C270.512 377.543 271.742 363.265 277.314 350.458C282.887 337.651 292.496 327.019 304.676 320.184ZM232.306 336V340.989L216 337.12V328C216.014 315.274 221.076 303.074 230.075 294.075C239.073 285.076 251.274 280.015 264 280H294.902L298.794 296H272.306C261.701 296.012 251.534 300.23 244.035 307.729C236.536 315.228 232.318 325.395 232.306 336ZM180.918 200C187.319 199.979 193.577 201.887 198.877 205.476C204.177 209.064 208.272 214.166 210.63 220.116L231.697 272.785C225.169 276.617 219.366 281.568 214.556 287.412L207.504 276.834C207.831 274.456 207.997 272.058 208 269.658C208.025 261.692 206.218 253.827 202.718 246.671C199.218 239.515 194.119 233.26 187.816 228.389L176 219.199V200H180.918ZM192.687 306.627C195.9 303.414 198.683 299.799 200.966 295.87L205.343 302.437C201.813 310.497 199.994 319.201 200 328V333.325L172.51 326.804L192.687 306.627ZM160 200V206.754L151.316 200H160ZM98.6294 352.684L129.201 358.799L135.316 389.371L129.021 395.666L98.4487 352.865L98.6294 352.684ZM149.657 397.657C150.588 396.726 151.275 395.579 151.657 394.319C152.038 393.058 152.103 391.723 151.845 390.431L144.684 354.629L159.219 340.095L232.276 357.426L232.038 408H139.313L149.657 397.657ZM220.944 440L212.944 424H232V440H220.944ZM248 416.038L248.302 352H248.306V336C248.313 329.637 250.844 323.537 255.343 319.038C259.843 314.538 265.943 312.007 272.306 312H288.004C278.064 319.45 269.996 329.114 264.44 340.226C258.885 351.337 255.995 363.59 256 376.013C256.005 388.436 258.904 400.686 264.469 411.793C270.033 422.9 278.109 432.558 288.055 440H248V416.038ZM350.287 440L282.179 160H297.713L365.821 440H350.287ZM400 376C400.005 385.069 398.08 394.035 394.353 402.303C390.626 410.57 385.183 417.95 378.384 423.952L351.619 313.919C365.456 317.381 377.736 325.374 386.504 336.625C395.272 347.876 400.023 361.737 400 376ZM312 136C313.051 136 314.091 135.793 315.061 135.391C316.032 134.989 316.914 134.4 317.657 133.657L346.343 104.97C346.965 104.35 347.807 104.002 348.686 104.003C349.564 104.003 350.406 104.353 351.027 104.974C351.648 105.594 351.997 106.436 351.997 107.315C351.998 108.193 351.65 109.035 351.03 109.657L326.059 134.628C323.095 137.608 319.568 139.972 315.684 141.58C311.8 143.189 307.636 144.012 303.432 144H288.004C288.808 141.531 289.22 138.95 289.222 136.353C289.222 136.235 289.215 136.118 289.213 136H312ZM192 64.0002C192 68.2437 190.314 72.3134 187.314 75.3139C184.313 78.3145 180.243 80.0002 176 80.0002C171.757 80.0002 167.687 78.3145 164.686 75.3139C161.686 72.3134 160 68.2437 160 64.0002V63.9992H160.001C162.122 63.9987 164.156 63.1561 165.657 61.6565L179.313 48.0002H192V64.0002ZM189.835 32.0002H176C173.878 32.0003 171.844 32.843 170.343 34.343L160 44.6859V40.0002C159.997 36.4792 161.157 33.0558 163.299 30.2613C165.441 27.4668 168.445 25.4576 171.846 24.5457C175.247 23.6338 178.854 23.8702 182.106 25.2181C185.359 26.566 188.076 28.9501 189.835 32.0002ZM93.356 50.4646L92.8702 50.2825C98.3291 48.7977 103.411 46.1726 107.782 42.5803C112.152 38.9879 115.711 34.51 118.224 29.4416C120.231 25.3929 123.333 21.9876 127.177 19.6118C131.021 17.236 135.453 15.9849 139.972 16.0002H140.687C144.571 15.9925 148.367 17.1655 151.57 19.3637C147.34 24.3503 144.747 30.518 144.143 37.0293C138.093 44.2275 129.967 49.3813 120.876 51.7861C111.786 54.1909 102.174 53.7294 93.356 50.4646ZM142.627 88.0002C144.549 87.995 146.453 88.3709 148.228 89.1063C150.004 89.8417 151.616 90.9219 152.971 92.2844L194.343 133.657C195.086 134.4 195.968 134.989 196.939 135.391C197.909 135.793 198.949 136 200 136H240C241.459 136 242.891 135.601 244.14 134.846L256.883 127.14C258.516 126.152 260.382 125.616 262.291 125.587C264.199 125.558 266.081 126.037 267.743 126.975C269.406 127.912 270.789 129.274 271.752 130.922C272.715 132.57 273.222 134.445 273.222 136.353C273.23 138.299 272.573 140.188 271.359 141.709C270.145 143.229 268.447 144.288 266.548 144.71L203.21 159.07C197.012 160.474 190.56 160.286 184.454 158.522C178.349 156.759 172.79 153.477 168.296 148.983L132.284 112.971C130.239 110.925 128.845 108.319 128.281 105.481C127.717 102.644 128.006 99.7029 129.113 97.0301C130.221 94.3572 132.095 92.0728 134.501 90.4655C136.906 88.8582 139.734 88.0003 142.627 88.0002ZM75.8779 159.436L92 143.314L128.687 180L122.343 186.343C121.541 187.146 120.919 188.109 120.518 189.17C120.116 190.231 119.945 191.365 120.016 192.497C120.086 193.63 120.397 194.734 120.926 195.737C121.456 196.74 122.193 197.619 123.088 198.315L142.935 213.752L115.336 241.351L84.1201 223.142C78.7602 220.016 74.1893 215.701 70.7592 210.53C67.3291 205.359 65.1314 199.47 64.3352 193.316C63.539 187.162 64.1656 180.907 66.1668 175.033C68.1679 169.16 71.4902 163.824 75.8779 159.436ZM48 240H81.2659L108.694 256H48V240ZM96 272V308.654L80 304.858V272H96ZM16 363.019C16.0001 356.23 17.5373 349.528 20.4963 343.417C23.4553 337.306 27.7594 331.944 33.0858 327.733C38.4123 323.523 44.6228 320.572 51.2519 319.104C57.8809 317.635 64.7564 317.686 71.3628 319.254L99.8552 326.013L89.9893 338.697L82.3433 346.343C81.0042 347.682 80.1835 349.453 80.0273 351.34C79.8711 353.228 80.3895 355.109 81.4903 356.65L118.169 408H60.9805C49.055 407.987 37.6218 403.243 29.1892 394.811C20.7567 386.378 16.0134 374.945 16 363.019ZM40 420.28C46.1213 422.522 52.564 423.762 59.08 423.952L51.0559 440H40V420.28ZM16 456H368V464H16V456Z" fill="black"/>
</svg>
